<svg xmlns="http://www.w3.org/2000/svg" xmlns:xlink="http://www.w3.org/1999/xlink" viewBox="0 0 976 1600">
<style type="text/css">
	.st0{fill:#FFFFFF;}
	.st1{clip-path:url(#SVGID_2_);}
	.st2{fill:#333333;}
	.st3{fill:#FFEB5C;}
	.st4{fill:#D81E1E;}
	.st5{fill:none;stroke:#333333;stroke-width:2;stroke-linecap:square;stroke-miterlimit:3;}
</style>
<g id="Paper_Backing">
	<path class="st0" d="M960,22v1556c0,3.3-2.7,6-6,6H22c-3.3,0-6-2.7-6-6V22c0-3.3,2.7-6,6-6h932C957.3,16,960,18.7,960,22z"/>
</g>
<g>
	<g>
		<defs>
			<path id="SVGID_1_" d="M960,22v1556c0,3.3-2.7,6-6,6H22c-3.3,0-6-2.7-6-6V22c0-3.3,2.7-6,6-6h932C957.3,16,960,18.7,960,22z"/>
		</defs>
		<clipPath id="SVGID_2_">
			<use xlink:href="#SVGID_1_"  style="overflow:visible;"/>
		</clipPath>
		<g class="st1">
			<path class="st2" d="M903.9,1604c-15.9-8.7-15.5-6.3-14.7-25.7c0.8-23.7-0.6-45.3-2.2-69c-7.2-23.9,28.9-29.3,38.5-42.5
				c17.9-12.8,34.4-31.8,51.9-42.5c7.5,36,0.1,136.3,2.6,175.7C984.4,1608.5,905.7,1602.2,903.9,1604z M697.2,1604
				c-53.8-81.6-100.5-176.4-128.2-271.4c-6.3-17.5-32.1-140.9,9-105.5c34.6,17.7,13.7-14.2,10.9-31.4
				c167.1-9.7,108.8,77.3,136.4-125.5C738.8,961.8,756.8,846.1,788,740c4.8-22,84.5-243.5,86.3-142.9c7.8,51.1,26.9-12.5,30.1-22.8
				c8-10.8,17.4,13.6,24,22.5c93.3,191.5,37.2,516.5,51.7,726c0,6.5-0.2,50,0,57.7c-6.6,9.7-21.8,13.8-29.8,19.8
				c-13.5,8.6-29,14.7-42.7,23.1c-7.8,6.4-14.9,11.6-20.1-6.3c5-168,2.7-338.5,3-505.3c-0.9-11-0.5-19.5,4.2-27.8
				c-1.5-14.1-7.7-31.2-0.9-46.9c-1.7-16.5-5.9-37.2-0.9-54.7c3.5-6.4-5.5-14-1.5-20.5c1-3.2,0.7-4.2,0.3-7
				c-4.8-14.9,3.4-24.4-0.5-36.4c1.4-21.5,2.6-83-13.5-31.3c-0.5,4.5,0.9,10.9,2.8,15.3c-0.9,5.8-7.6,11.3-4.7,17.1
				c1.6,33-3.3,70.6-6.5,103.1c0.9,29.6-2.5,60.9-7.4,90.7c0.2,14.4,0.5,31.3-3.8,46.9c-2,10.9,1.9,24.1-1.7,36.1
				c-4.5,20-1.4,40-4.3,60.6c-2.7,8.7-8.7,11.8-1.8,21.3c5.4,14.5-3.5,29.6-4.5,41.8c4.7,39.8-2.6,78.1-3.9,118.3
				c-3.7,47.2-5.8,96.1-5.3,145c2.9,27.1-0.2,50.3-29.6,24.1c-32.8-25.6-67.3-49.1-95.6-79.5c-14.9-11.8-33.8-19.9-44.4-37.7
				c-3.6-4.4-10.9-4.9-14.5-10c-11.5-5.7-10.5,8.5-5.4,14.5c11.3,11.4,24.4,24.8,32.8,40.1c21.8,25,48.7,47.2,67.2,75.2
				c0.1,2.7,1.9,5,4.5,5.6c11.1,5.3,21.8,19.2,29.3,29.4c15,13.6,31.9,26.5,47,40.4c8.1,17.2,0.7,34.8,2.3,51.4
				c-2.2,8.5,2.9,17.8-1.9,26.1c-2,2.6-1.6,6.3,0.9,8.4c5.4,5.3,0.5,18.8,2.1,27.2C837.4,1612.4,699.7,1600,697.2,1604z M0,1604
				c-11.5,0.7-0.1-316.2-4-320.3c1.3-7.1,11.5-4.4,11.8,2.1c17.7,34.7,45,62.8,71.3,90.3c7.8,8.2,2,15.1,4.1,22.5
				c-0.7,13.5,2,28.4,1.5,42.6c-3.5,20.7,6.6,46.2-3.6,64.8c-6.6,5.6,6.3,28.7,1.4,42.8c-2.8,14.7,3.8,31.8,1.2,46.8
				C78.9,1609.4,11.4,1602.4,0,1604z M129.4,1599.4c-12.1-2.3-3.7-18.6-5.6-26.3c-8.6-10.1,6.5-22.8,2.6-32.6
				c-6.1-11.2-1.6-32.3-4-45.6c1.5-17.7-4.5-38.4,0.7-56.5c3.5-9.3-11.2-23.8-2.3-33.8c-4.5-22.6,23-40.4,30.7-60
				c1.8-12.3,16.5-20.7,19.1-31.6c5.8-10.4,10.1-27.7,19.9-34.4c2.8-1.3,4.2-4.4,3.2-7.3c-0.1-9.9,9.6-17.2,10.8-27.9
				c-7-34.8-64.5,69.3-79,74.1c-16.4-6.6-11-77.7-8.4-92.9c3.6-6.6-4.4-14.7-2-23.7c-2.9-13.7,6-28.9-2-40.1
				c2.9-36.2-4.9-69.1-3.6-104.6c-1.1-10.9-8.2-85.1-15.9-51.7c-5,25.1-2.4,49.8-4.4,75.2c-2.1,30.6,3.3,61.9-1.8,93.5
				c1.4,34.4,3.6,72.8,0,108c16.3,107.3-61-17.8-91.3-33.6c14.7-102.9,31.7-224.4,84.6-313.1c8.3-6.7,8.8,10,11,14.9
				c13.2,19.2,17.2-28.6,30.1-20.2c28.2,40.7,39.4,121.1,46.6,173.4c12.1,75.2-15.9,59.6,54.8,75.3c7.6,15.3-36,55.7,13.8,34.6
				c7.6,2.3,21.7-21,26.3-9c-3.3,87.8-11.3,187-25.6,274.1C215.6,1590.3,251,1585.4,129.4,1599.4z"/>
			<path class="st3" d="M592.6,1233.4c-56.8-12.5-54.6-84-14.9-50.7C582.5,1192.4,609.5,1229.5,592.6,1233.4z M215.8,1218.9
				c-13.3-19.1,28.2-65.2,49.6-63.4C300.2,1170.2,238.9,1218.9,215.8,1218.9L215.8,1218.9z M97.1,958.4c-14.1-17.5-24.6-74.8,6.3-81
				C141.3,884.1,111,943.5,97.1,958.4z M883.1,614.8c-17.7-16.7-15.6-56.8-3.7-82.5C919.6,498.3,908.4,601.5,883.1,614.8
				L883.1,614.8z"/>
			<path class="st2" d="M835,1604c-3.4-0.2-4.4-3.3-3.9-6.3c-0.5-35.3,0.9-67.9-0.3-106.1c-44-44.7-91.9-90.4-134-138.4
				c-8.3-13.4-78.3-81.2-63.7-87.6c26.9,11.5,191.4,180.8,204,150.7c1-241.9,25.1-483.6,43.3-724.4c1.3-6.7,1.4-30.4,10.4-18.2
				c1.8,148.9-2.5,300.8,0.1,450.8c-1.1,99.6-0.3,197.1-2.3,296.5c6.6,25.4,83.6-49.5,91.3-32.7c4.5,30-9.4,39.9-28.9,55.9
				c-21.8,20.5-49.3,32.7-63.9,54.6c2.6,34.2,3.7,69.5,4.8,103.1C893.1,1606.8,836.5,1602.6,835,1604z M87.5,1604
				c-8.6-5.3-2.9-23.2-4-32.9c2.3-58.4,1.3-120.2,3-178.3c1.3-14-12.2-23.2-21.7-32.7c-24.6-20.4-38.2-55.3-62.1-72.3
				c-2.8,0.3-6.9-0.3-6.8-4c2.5-3.6-5.6-43.3,5.2-40.3c20.9,32.5,47.3,61,78.1,84.3c18.6,5.4,6.6-37.3,10.7-48.5
				c-6.6-256.3,15.7-443.2,25.4-36.2c-5.8,144.6,15.9,56.8,73.6-1.3c42.5-50.7,4,31.2-6.6,47.2c-17.2,46.6-67.9,84-62.1,136.3
				c2.5,57.6,1.7,115.6,3.3,172.9C128.6,1609.6,91.1,1601.8,87.5,1604L87.5,1604z M640.4,1135.8c-17.8-6.5-26-87.4-41.8-67.5
				c-8.2,20-35.3,84.1-44.4,29.1c-7.3-12.5-1.2-37.6-13.6-44.9c-21,3.4-44.1-54.1-44.6-72.3c7.4-10.4,70.1,11.8,61.9-10.5
				c-36.3-41.6-24.2-36.2,13.4-35.5c10.3-3.2,21.6-5.4,32.5-8.1c27.6-11.5-98.4-50.4-43.5-49.9c15.2,1.6,28.2,3.9,43.1-4.1
				c4.7-2.1,4.2-9.5-0.7-11c-16.6-1.5-75.3-60.3-46.2-59c96.3,26.6,184.3,123.5,169.5,227.7c-42.1-12.1-15.9-15.4-29.8,60
				c-0.1,10.5-9.8,4.3-13.6-0.6C639.8,1024.7,662.2,1116,640.4,1135.8z M146.2,805.5c-29.3-39.5-5.6-125.5,14.4-164.9
				c33.2-37.3,21-94.9-9.7-129.5c-3.5-15,25.4,5.7,34.5-2c10.7,0.6,1.7,14.8,8.8,18.7c3,1.9,6.4,5.6,5.9,9.7
				c37.6,62.6-4.3,121,14.4,178.3c-0.2,10-17,17-23.7,24.7c-6.7,2.9-7.3,13.5-14.6,16.7c-7.8,6.4-8.7,20.1-19.4,25
				C155.6,789.8,153.8,801.9,146.2,805.5z"/>
			<path class="st4" d="M182.9,506.6c-92.7-7.6-45.2-105.8,24.9-96.1C279,419.8,236.8,503.4,182.9,506.6z M911.6,470.5
				c-163.4,6.1-331.1-93.7-411-233.2c-32.9-64.6-53.8-121-61.5-196c-3.4-10.8,2.4-30.6-9.1-36C402.2-19.4,977,3.6,976-4
				c11.5-0.8,0.1,465.1,4,469.1c-1.1,6.9-6.7,2.2-10.8,1.7C952.3,468.1,929.5,470.7,911.6,470.5z"/>
			<path d="M995.5,1370.7c-4.4-2.2-14.6,7.7-19.5,9.7c-21.8,13-43.7,26.6-67,36.8c-4.8,2-13.6,17.1-17.7-1
				c-1.2-5.2-1.5-11.2,0.1-16.1c1.9-5.7-1.5-14.9,1.7-16c35-17.8,69.2-37.9,97.5-65.3c5-2.4,0.6-7.1-3.1-3.5
				c-30.7,23.7-65.5,41.8-95.9,65.3c4.1-10.4-2-36.4,3.4-42c27.9-17.2,53-38.7,74.2-63.7c2.4-3.2,9-9.8,5.7-13.3
				c-4.9-2.8-7,5.8-10.6,9.3c-22.2,21.4-44,43.9-70.9,59.7c-1.1-17.1-0.3-34.2-0.4-51.3c0-1.5-0.7-2.9,1.7-4.4
				c19.5-13.7,80.1-53.2,86-73.4c-2-0.1-3.5-0.1-4.8,1.3c-26.8,20.4-52.2,42.9-79.7,62.2c-3.1,1.9-2.5-0.2-2.5-2.1
				c0.5-15.8,0.8-31.7,1.3-47.5c0-1.3-0.1-3.6,0.5-3.8c12.7-4.7,21.8-14.5,32.5-22c16.4-12.4,43.8-28.3,48.5-49.1
				c-8.9,1.1-12.2,9.5-18.5,14.8c-19.8,16.9-40.3,34.8-62.8,47.2c-1-18.2-0.3-36.4-1.1-54.6c-0.1-2.6,0.9-2.3,2.3-3.1
				c26.3-15.2,54.5-31.6,71.1-57.7c-9.3,0.7-11.8,7-17.8,12.3c-18.5,11.7-34.3,28.1-54.2,37.3c-0.7-13.4-1.7-28.2,0-41.3
				c21.4-11,76.5-48.3,78.4-72.3c-8.5,2.9-12.5,12.7-19.3,18.3c-18.2,16.7-36.9,34.1-58.9,45.4c-1.3-10.6-1-21.4-0.8-32.1
				c0.2-6-0.4-10.2,7-15.5c26.8-19.1,53.5-40.4,68.8-70.8c-1.3-3.8-4.8-3.1-6.3,0.2c-18.1,23.6-39.9,43.6-62.7,62.5
				c-1.6,0.9-6.8,5.3-7.5,2.5c1.8-12.1-0.6-24-0.8-36c0-1.6-1.3-5.5,2.2-7.6c16.3-9.7,31.4-21.3,45-34.5
				c11.6-11.2,21.4-24.3,31.5-37c1.6-2.4,0.3-6.4,0.5-9.1c-24.2,26.6-48.2,54.3-79,73.3c-1.4-8.8-0.6-18-0.4-27
				c0.4-6.9-3.6-16.5,2-20.1c26.8-18.2,69.5-49.5,80-80.5c-7.3,0.8-10,8.2-14.3,12.8c-21,21-41.3,44.1-67.3,58.8
				c1.9-20.6-5.2-39.1,16.5-53.5c22.5-16.5,43.2-38.4,56.3-64c-3.7-1.3-5.7,1-7.9,3.4c-19.8,21.3-38.4,44.3-62.6,60.9
				c0.1-14.8-7.2-32.9,11-44.3c26.3-17.2,48.4-42.1,65.1-68.6c2.4-3.1,5-10.1,2.2-12.9c-2-1.1-2.9,1-3.8,2.9
				c-19.6,29.9-46.6,55.2-74.7,77.3c-1.3-9.8-0.7-19.8-0.7-29.6c0.1-4.7-1.2-10.9,1.2-13.7c22.9-23.4,49.9-44.4,67-72.8
				c2.4-5.7,14.6-19,8.6-24.2c-2.2-1.7-5.2,3-7,6c-18.3,30.2-41.8,56.9-69.3,79.1c-2.7-5.5,0.5-10,0.3-15.8
				c-1.3-8.9-3.8-22.5,0.8-26.6c25.1-21.9,68.2-66,77.5-97.6c-6.6,1.3-16.8,19.5-22.5,25.2c-16.4,21.8-32.9,43.8-53.8,61.7
				c-1.9,1.6-2.7,1.9-2.7-1c0-14.8,0-29.6,0.2-44.4c0-0.9,1.1-2.1,2-2.7c16.6-11.2,30.1-26.2,42.6-41.6c6.2-9.5,16.3-18.4,17.5-30
				c-21.1,19.5-37,45.9-61.2,63.1c-1-6.9-3.3-13.4-2.4-19.5c0.8-5.2-2.3-12,2.5-15.6c14.2-11.9,50.1-41.2,46-59.3
				c-13.1,19.1-30,34.5-46.6,50.7c-0.5-4.2-1.6-7.6-0.2-11.3c5.7-10.3,10.1-21.4,13-32.8c3.3-13.5,3.6-27.5,0.9-41.1
				c-2.8-14.9-24.1-21.9-31.9-7.8c-17.2,28.8-8.7,58.3-4.2,89.5c-9.8-11.4-20-19.8-24.4-33.8c-3.3-4.8-3.3-19.7-11.3-17.8
				c-6,2.6-1.2,7.7-0.4,11.6c1.8,9.2,5.4,18,10.6,25.9c20.7,30.9,35.8,15.2,26.8,59.9c-23.8-15.8-39.2-39-59.2-58.3
				c-1.2,2.4-3.6,4.6-1.3,7.6c14.7,19.6,30.5,39.2,49.4,54.7c7.5,5.8,14.3,9.7,10.4,20.4c-2.7,6.9,6.8,20.4-2.5,24.3
				c-24.5-16.8-46-37.6-63.6-61.5c-3.8-7.5-9.8-2.3-5.7,4.2c14.8,24.9,36.1,44.2,58.9,62c4.5,3.5,15.1,3.5,11.5,13.6
				c-3.3,14.6-0.8,25.3-1.5,42.5c-12.7-17.2-29.7-25-43.1-40.5c-13.4-15-26.4-30.7-34.9-49.1c-0.9-2-2.9-3.2-5-2.3
				c-6,0.4,10,28.6,12,31.6c16.5,23.9,38.7,42.7,59,63.2c3.5,3.6,11.4,2.8,10.9,9.8c-0.7,9.7-2.3,19.4-3.5,28.8
				c-27.6-20.7-53.7-43.9-74.5-71.4c-4.5-4.3-6.6-12.6-13-14.1c-2.7-0.1-2.3,2.7-1.7,3.7c19,40.3,57.1,67.5,89.5,95.7
				c-2.6,10.2-1.1,20.6-1.6,30.8c-0.1,2.4,0.3,4.6-3,1.8c-28.2-25.2-60.3-47-80.9-79.4c-3.1-4.3-6.2-8.7-9.5-12.9
				c-1.2-1.6-1.5-5.5-4.6-3.2c-2.3,1.7-2.2,4.4-0.2,7.3c7.4,10.6,13.7,22.1,21.8,32.2c18.3,22.9,40.7,41.6,63.3,60.2
				c4.3,3.6,12.6,4.7,11.2,13.7c-1.5,9.7-3.1,19.5-3.5,29.4c-0.3,6.4-1,4.7-4.6,1.8c-19.6-14.4-39.4-29.5-55.3-48
				c-10.1-12.1-20.2-24.2-29.2-37.2c-4.7-5.1-6.5-13.4-12.6-16.8c-4.6,11.6,6.3,19.8,11.7,28c19.6,32.4,48,58.8,78.4,81.3
				c4.5,3,13.5,5.2,10.6,13.5c-2,10.5-1.7,20.4-4.5,30.7c-36.8-22.2-68.4-52.6-94.2-87c-4.9-5.1-8-17.5-13.7-19.6
				c-5,13.1,8.4,23.1,15,32.5c21.7,31.2,51.4,56.1,81.9,79c4,2.7,12,2.6,11.6,9.6c-0.5,10.9-2.4,21.8-3.6,32.6
				c-0.3,2.8-1.1,2.1-3.1,1.1c-44.1-25.6-82.4-60.1-112.6-101.2c-2-5.2-6.4-3.5-6.1,1.3c5,12.2,13.4,22,22,31.6
				c26.3,27.7,54.7,55,88.3,73.8c3.9,1.8,10.1,4.7,10.2,7.2c0.4,12.1-0.8,24.2-1.8,36.3c-0.2,1.8-0.9,6.1-4.4,3.9
				c-35.5-21.3-70.5-44.1-97.8-75.8c-40.9-41-16.3-69.8-84-130.2c-26.1-23.2-80.2-62.3-116.3-57.1c-0.7,0.1-1.9-1.1-2.6-1.9
				c-38.3-50.2-98.3-73-160.1-73.4c-22.2-2.5-44.6-3.1-65.3,3.6c-34.9,12-100.5,12.2-103-35.6c6.5-55,29.1-115.8-0.8-167.6
				c-12.7-18.4,16-25.7,24.4-39.3c5.3-7.2,8.5-16.8,15.4-21.7c17.4-12.3,36.2-22.6,54.3-33.9c34.2-22.1,68.5-43.8,103-65.3
				c16.4-10.4,32.8-20.8,49-31.5c6.5-3.5,6.3-13.3-3.1-10.6c-51,17-101.6,35.3-152,54.1c-27,9.5-54.1,20-81.3,28.7
				c-10.1,2.7-21-4-31.9-0.7c-12.5,3.7-24.8,7-36.4,14.2c-30.6,21.7-30.4,43.5-33.9,76.8c-1.5,13-4.2,26.3-1.9,39.3
				c5.9,30.6,31.3,59,28.7,91c-7.4,62.1-42,128-15.4,189.6c23.3,59.8,81.8,105.3,145.9,112c9.5,0.8,17.5,4.3,23.6,12.5
				c21,26.5,38,55.3,52.8,85.5c16.2-14.7-20.4-73.2-33.6-89.3c49.4,12.8,95.5,25.2,143.9,39.5c6.6,2.2,16.3-0.5,19.3,7.7
				c8.1,22.5,19.2,43.5,30.2,64.7c5.5,10.6,18.7,16.7,21.1,27c3.1,13.6,8.8,25.9,13.2,38.8c5,14.5,20.3,21.2,26.6,11.6
				c10.7-15,18.1-31.8,24.8-48.8c0.8,0.9,2.3,1.8,2.3,2.7c0,8.4,2.6,16.3,5.2,24.1c4.4,11.6,18.5,55.4,32.7,53.7
				c2-0.9,3.6-2.7,4.2-4.9c4.2-20.7,13.2-40.4,12.3-62.1c0-1.6,1.5-3.1,2.3-4.6c9.2,7.4,30.4,42,41.3,21.8
				c1.2-25.7,6.8-50.6,1.8-76.3c4.7,3.5,8.2,6.1,11.8,8.7c21.8,17.7,11.5-21.4,24.6-4.5c24.4,32.5,54.8,62,91.3,80.7
				c4.7,2,11.8,6,12,9.5c1.3,17,0.6,34.1,0.6,53.1c-43.1-36.2-79.3-70.1-110-115.3c-1.2-1.9-2.8-4.6-5.6-3.2
				c-13.4,7.4,48.1,68.3,55.8,77.9c14.3,15.5,30,29.6,46.9,42.1c5.3,4,14,7.9,10.8,17.8c-4.3,13.9-0.1,28.4-3.1,42.5
				c-35.6-24.6-65.5-59-92.2-93.2c-7.7-9.9-14.2-20.7-21-31.3c-2.8-3.1-4.4-10.3-9.7-8.7c-5.3,3,6.2,18.5,8.3,22.7
				c27.5,42.1,60.8,81.2,100.7,111.9c4.3,3.4,12.3,6.7,12.4,10.2c0.5,17.8-1.1,35.6-2,54.5c-5.6-9.2-14.3-13.8-20.8-20.6
				c-26.1-29.9-53.9-58.6-76.9-91c-6-8.2-11.5-16.7-17-25.2c-4.3-5.5-6.3-13.4-13.6-15.8c-0.7,29.7,82,114.5,104,140.2
				c9.4,10.9,26.4,15.7,23.7,37.2c-3.9,28.1,0.3,56.5-1.3,85c-27.9-60.8-56.1-121.3-95.8-175.3c-1.9-2.5-5.2-9.1-8.5-6.5
				c-3.7,2.9,1.1,7.7,3.3,11.2c36.8,54.7,64.1,113.3,94.1,172.2c-20.1-11.2-37.6-27.9-56.4-41.6c-5.8-4.6-14.5-7.1-15.9-15.6
				c-2.4-25.3-1.3-55.7-14.5-78c-3.9,5.6-1,13.4,0,19.8c4.7,17.7,5.8,36.1,7.4,54.8c-9.9-8.5-20.1-16.5-29.3-25.5
				c-5.6-5.5-0.1-13-1-19.7c-3.3-34.3-9.7-68.7-23.4-100.6c-0.5-1.9-2.3-4-4.2-1.6c-3.2,5.5,4,22.3,5.2,29.2
				c8.8,27,14.8,55.7,14.9,84.1c-11.3-4.9-19.9-14.8-29.8-22c-6.6-5.5-10.7-11.5-9.9-21.4c2.7-26.1-5.1-51.3-13.1-75.9
				c-1.8-3.8-1.6-10.6-5.9-12.2c-2.6,0-0.8,2.3-0.9,3.5c-0.2,2.6-0.2,5.2,0,7.8c5.6,27.4,14.1,53.7,12.4,82.2
				c-8.6-8.3-20.6-14.9-23.9-24.5c-4.3-12.3-2.1-27-6.2-40.1c-4.7-13-4.5-30.8-17.4-39c-0.9,9.4,4.2,19.1,6.5,28.3
				c5,14,6.5,28.6,7.9,43.9c-6.2-4.9-10.8-11-16.3-16.1c-3-2.7-7.2-4-8.5-8.5c-5.4-18.4-11.8-36-25.3-50.2
				c-21.2-22.3-46,7.7-30.8,29.8c23.8,33.2,59.4,25.4,66.8,50.8c-17.7,0.6-36.5-3.3-54-6.8c-9-2-17.9-4.5-26.5-7.6
				c-1.2-0.4-2.8,0.5-4.2,0.8c9.8,16.6,68.9,22.7,88.1,21.6c1.8-0.1,4.9,0.3,5.3,1.4c4.5,11,14.7,17.7,20.4,28.4
				c-32,1.4-63.9-1.1-94.3-11.4c-4.3-1.4-8.5,2.3-3.3,4.8c5.6,4.2,12.3,5.7,18.9,7.4c21.1,5.8,43,8.2,64.9,7
				c10.2-0.6,21.4-2.3,28.9,7.4c5.2,8.8,12.3,17.9,17.8,25c-40.2,0.8-83-1.6-121.2-16c-2.3-0.1-8,4.1-2.6,5.9
				c11.7,7.1,24.9,9.5,38.1,11.9c25.3,6.4,51.2,5.3,76.9,7c5.9,0.8,12.4-3.6,16.9,0.7c9.8,9.3,18.7,19.7,27.9,29.6
				c0.9,0.9,2.3,2.5-0.4,2.5c-42.7,1.2-85.8,2.6-127.4-8.8c-7-0.6-14.3-6.3-20.8-2c22.9,17,71.1,18.4,99.7,20.5
				c12.3,0.4,24.5,1.8,36.8-0.9c7.1-1.5,16.6-3.6,21.7-0.3c8.2,5.4,13.7,15.1,20.3,22.9c1,1.2,2.6,2.4-0.6,2.7
				c-22.6,3-46,3.8-68.6,4.9c-13.5,1.3-26.7-1-40.2,0.2c-10.5,0.9-21.5-3.3-32.4-6.2c-3.2-0.1-9.4-4.6-10.7,0
				c-3.2,7.2,45.9,13.1,52.5,13.8c29.3,2.7,58.1,1.1,87.1-2c11.3-1.2,23.6-8,32.3,6.6c3.5,6.9,12.5,10.3,15.9,17.5
				c-16.6,5-35.7,7.2-53.2,8.7c-38.5,3.5-76.9,0.4-115.3-3.5c-2.2-0.2-5.2-2.9-6,0.9c-0.7,3.1,2.8,4,5,4.2c11,0.8,21.5,4,32.3,5.8
				c21.9,3.5,43.8-0.4,65.7,2.8c19.9,0.8,41-5.5,61.1-7.4c6.3-1,14.1-5.4,18.3-3.1c9,5,16.2,13.4,24.3,20.6
				c-47.8,12.6-96.9,17.8-146.1,16.4c-10.4,1-21,0.3-31.2-2c-3.2-0.7-8.5-0.7-9.1,2.4c-1,4.6,4.1,2.8,6.8,3.7
				c40.3,7.3,83.5,7.9,123.7-0.2c14.1-2.3,28-5.6,42.1-7.5c9.7-1.3,20.3-13.6,29.3,0.1c6.1,9.3,1.5,20.5,2.2,30.8
				c0,0.2-1.1,0.3-1.7,0.6c-60.4,17.9-124.5,11.8-186,3.6c-1.9-0.2-3.7-3-5.8-0.7c-5.9,10.5,19.9,7.1,25.5,10.2
				c51.4,9.5,105,9.8,156.3-0.7c6.7-1.1,16.1-5,10.9,5.5c-0.1,30.9,5,24.5-27.1,28.3c-40.3,7.3-81.6,4.5-122-0.6
				c-2.9,0.4-19.2-4-17.9,0c0.1,1.5-0.5,3.4,2.3,4.7c24.5,6.8,50.7,6.8,75.9,9.5c24.1-0.8,49.2-0.1,72.8-5.7
				c23.5-7.2,16.5,8.1,17.2,24.5c-1.1,5.3,7.3,8.4,8,2.4c-0.5-36.3,1-73.1-0.3-109.2c-2-9.5-11.7-13.4-18.2-19.6
				c-66.2-62.4-127.4-129.7-183.2-201.5c21.1,13,36,34.8,56.7,48.5c15.5,11.3,28.2,25.5,43.7,36.8c31.8,25.7,61.7,53.8,97.9,73.6
				c2.5,1.6,5.7,4,9.3,1.8c0.6-53.2,1.4-107.8,2.6-161.6c2.5-38.8,6-77.5,6.5-116.3c4.7-39,6-78.3,7.3-117.5
				c3.2-40.1,9-80,10.1-120.2c0.2-19.2,5.6-38.4,5.6-57.3c1.6-61.2,6.4-122.3,14.2-183c3,91-1.1,182.1-1.8,273.2
				c3.5,159.3,1.5,318.9-0.6,478.3c-0.6,15.8,7.1,8.1,11.9,6c18.3-8.2,36.1-17.6,53.3-27.9C957.3,1398.4,997.3,1379.3,995.5,1370.7z
				 M593.2,1229.4c-14.8,0.3-62.5-40.5-31.6-51.4c5.1-1,10,2.8,12.8,7C577.6,1187.7,599.7,1230.7,593.2,1229.4z M508.4,776.8
				c32.2,25.3,44.5,69,83.3,86.5c1,0.4,1.5,1.9,2.2,2.9c-36.3-0.2-73.9-9.3-108.5-19.6c3.9-3,9.6-0.9,13.7-3
				c4.9-2.3,13.8-5.6,12.4-9.5c-3.9-10.5-11.2-19.4-20.6-25.4c-7.6-4.9-13.7-12.2-23.2-14.2c-1.3-0.3-2.2-2.7-3.2-4
				c28.1-9.1,1.6-30.1-10.1-44.6C474,752,491.6,763.3,508.4,776.8z M624.1,970.9c-0.1,1.4-0.8,2.5-2.2,1.6
				c-14.6-11.2-33.8-20.3-42.3-37.1c11.2-1.7,22.3-4.2,33.1-7.7c7.8-2.5,6.2,6.3,7.3,9.5C623.7,948,625.1,959.5,624.1,970.9z
				 M601.4,993.6c-0.7,5-1.9,10-2.9,14.9c-6.1-3.3-54.7-60-59.8-70.4c10.8,0,20.9-0.1,31,0c3.3,0,1.3,3.1,1.9,4.6
				C580.9,966,609.4,965.5,601.4,993.6L601.4,993.6z M595.4,923.1c-7.2-0.4-15,0-21.2-0.1c-26.2,5.3-50.8,1-75-4.4
				c-4.4-1.3-66.3-17.1-57.4-21.2c22.8-10.4-8-25,3.5-29.7c16.5-4,5.9-13.2,1.6-21.7c-0.2-0.8,0-1.7,0.6-2.3
				c2.6-2.7,4.6,1.5,6.6,2.9c23.6,16.8,50.7,23.9,78.5,30c5.9,1.3,10.3,8.7,15.9,12.4c15.2,10,30.6,19.6,46,29.4
				C596.2,919.3,598.1,923,595.4,923.1L595.4,923.1z M373.1,870.3c9.8-5.5,0.8-15,0.2-22.8c19.5,10.5,37.8,22.4,61.1,22.7
				c1.1,0.1,2.9,1.8,3.2,2.4c-2.5,6.2,6.9,8.7,4.4,13.8c-0.6,1.2-6.9,0.4-10.2-0.7C411.6,883.5,390.6,881.9,373.1,870.3z
				 M393.1,910.8c-26.7-6.9-50.9-18.3-72.2-41.1c17.4,5.5,34.6-1,47.2,13.4c3.6,4.1,10.3,6.2,16,7.8c9.8,2.7,7.9,12.6,12.5,18.5
				C398,911.1,394.3,911.1,393.1,910.8z M444.7,859.3c1.3,0.9-1.9,1.8-3,1.4c-23.4-6.8-45.9-16.3-67.2-28.3
				c11.5-1.8,22.1-0.4,32.7-2.8c9.6-2.2,17,5.8,25.7,8.3C443.9,840.9,437.1,853.9,444.7,859.3z M265.1,442.6l-9.4,5.9
				c-8.9-23.1,13.3-20.8,23.4-27.2c9.6-6,19.5-11.6,29.7-16.6c20.7-10.3,41.9-19.5,61.7-31.5c0.6-0.3,1.5,0,4.6,0.2L265.1,442.6z
				 M255.9,401.1c42.5-15.4,84.5-30.2,127.2-45.3c-1.6,7-9,6.5-13.3,8.8c-39.1,20.6-78.7,40.3-118.1,60.1c-1.7,0.8-4.7,2.5-5.3-1.7
				c-3.8-4.5-8.1-9-12-13.5C241.6,406.7,248.7,403.7,255.9,401.1L255.9,401.1z M173.3,419.3c6.9-2.2,14.3-2.6,21.1-4.9
				c7.4-2.5,14.1,1.5,21.2,1c3-0.2,1.2,2.3-0.2,3.8c-11.9,13.6-41.6,25.1-54.3,6.7C165.2,423.6,169,420.6,173.3,419.3L173.3,419.3z
				 M150.7,432.1c2-1.6,4.7-2.1,6,0c16.9,25.6,56.5,9.1,68.9-12.5c39.4,26.2,1.1,67.4-29.3,80.3
				C152.1,514.1,111.5,467.4,150.7,432.1L150.7,432.1z M267,905.6c-72-21.4-145.4-95.7-128-175.8c5.5-37.1,20.3-73.4,19.8-111.1
				c1-43.8-44.5-80.7-26.7-125.5c7.2,5.2,14.2,11.5,21.9,15.6l0,0c8.9,4.9,18.6,7.4,30.1,4.6c3.3-0.8,2.9,1.4,2.6,3.1
				c5.2,11.4-37.6,4.1-43.8,7.6c4.6,9.7,18.2,9.9,27.2,10.1c7.3,1.1,18.4-7.1,23.9-1c5.5,5.8-2.4,6.3-6.5,5.9
				c-9.8,1.7-26.8-0.7-34.5,4.2c5.7,8.1,15.5,5.6,24,6.1c7.9,2.3,25-8.9,25.9,3.5c0.8,5.4-18.4,4.7-22.6,5.7
				c-3.5,1-10.6-1.2-11.2,3.4c3.3,10,26.8,3.4,34.7,1.6c3.8-1.1,4.3,2,4.5,3.6c4.7,29.5,6.6,59-0.9,88.3
				c-1.4,20.4-7.9,44.3,3.6,62.6c15.1,22.7,46,26.1,72.1,25c-67,55.2-58.4,99.9-8.9,162.3C271.9,905.4,269.4,906,267,905.6z
				 M250.6,848.8C228,791.6,278.9,741.7,333,734.4c27.3-1.8,54.6-1.5,81.9,0.7c15.3,1.3,44.7,27.4,52.8,40.3
				c0.9,1.3,2.9,3.1-0.4,3.4c-26.8,3.7-54,2.5-78.8-9.5c-2.8-1.3-5.7-3.1-8.9-0.7c11.1,14.6,30.8,23.3,47.8,23
				c28.8,1.5,53.3,17,70.7,38.6c2,2.9,2.8,4.9-2.5,4.8c-27.8-0.7-54.9-5.2-79.4-18.6c-13.4-8.9-22.9-25.1-37.1-33.8
				c-11.8-8.7-24.8-15.2-40.4-16.3c-1.6-0.1-4.6-1.3-4.3,0.9c0.4,3.5,4.1,5.4,7.1,5.7c16.2,1,50.8,30.3,60.6,43.5
				c-18.1,6-48.5-6.1-66.6-12c-16.5-4.5-27.6-20.9-43.1-27c13.7,36.2,48,24.6,79.9,87.5c-20.4-7-39.9-3.8-58.3-12.9
				c-15.3-7.6-29.9-15.3-42.3-27c-2.2-2.1-3.4-1.2-5.6,0.6c-6.1,7.9,25.9,29.8,30.6,36.8c7.9,9.3,15.8,18.8,23.5,28
				C293.6,890.4,263.4,882.5,250.6,848.8L250.6,848.8z M304.9,912.8c-8.9-5.7-16.8-13-25.1-19.7c-0.4-0.3-0.3-1.2-0.4-1.7
				c1.8,0,3.9-0.6,5.4,0.2c13.1,6.8,27.4,7.5,41.6,7.2c11.1,0.3,13.4,10.1,27.1,13.7C336.4,917,320.4,922.6,304.9,912.8L304.9,912.8
				z M350.9,925.2c8.5-7.8,15.8-8.2,25.6-4.8c9.3,3.3,20.9,1.9,28.6-5.2c5.6-5.1-2-11-4-17.5c25.8,12.9,51.2,23.6,78.8,31.1
				c62.3,18,38.3-7.9,71.9,43C481.4,968,417.5,942.6,350.9,925.2L350.9,925.2z M597.2,1060.7c-6.9,19.4-16.4,37.8-28.4,54.5
				c-0.6,0.6-1.5,0.9-2.4,0.8c-3.8-0.7-4.4-4.5-5-7c-10.7-31.6-13.2-65.3-8.8-98.5c0.3-4-2.6-11.3-5-11.7c-4.3-0.8-4,4.9-5,8.8
				c-3.4,13.2-6.4,26.4-6.3,40.1c0,1.9-1,3.3-2.6,1.3c-11.3-13.9-22-28-27.9-44.9c-2.2-5.5-2.6-11.9-5.5-17.3
				c-2.5-4.6-1.6-6.5,6.5-5.3c13.6,3.6,30.4-0.4,46.7,2.2c14.1,5.8,16.5,26.9,39,32.7c7.7,2.4,7,6,5.7,11.5
				C595.9,1038.8,601.1,1049.6,597.2,1060.7L597.2,1060.7z M645.3,1109.7c-2,6.8-3.1,14-4.9,22.1c-27.9-47-38.8-102-31-156.1
				c6.7,0,12.4,7,20.7,5.9c0.9,0.6,2.6,7.2,2.8,9.2C635.7,1037,662.6,1062.1,645.3,1109.7L645.3,1109.7z M694.4,1075
				c-0.6,5.6-1.8,11.2-2.4,16.9c-34.4-28.9-42.7-66-52.4-107.9c-2.1-11.9-10.5-27.3-7.7-38.7c27.5,8.2,33.9,37.2,49.5,56.6
				C703,1021,697,1049.5,694.4,1075L694.4,1075z M715.5,1022.5c-24.5-21.3-43.3-47.3-54.4-77.4c-4-10.8-3.9-24.3-8.5-35.3
				c-4.6-10.7-12-36.8-27.3-35.2c-1.3,0.8-1,3-0.2,4.4c11.4,20.3,24.5,41.9,25.3,65.5c-27.1-32.1-68.5-40.3-99.8-65.1
				c21.7,3,44.8,5.5,63.5-8.7c17.8-16.2-32.1-2.2-62.9-65c54.3,10,119.9,61.3,146.5,109.6c15.2,31.3,32.9,77.7,24.8,112.4
				C720.3,1026,717.7,1024.4,715.5,1022.5L715.5,1022.5z M831.6,1104.4c-36.9-22.4-69.5-53.5-95.6-87.2c-4.9-11.5-2.7-24.5-5.1-36.7
				c11.9,13.8,23.3,28.2,36.9,39.6c19.6,16.5,41,30.1,62.8,43.3c13.7,4.5,21.6,22.1,14.9,35.8C847,1119.8,836.9,1107.9,831.6,1104.4
				L831.6,1104.4z M884.9,609.8c-6.8,6.4-9.7-31.8-10.3-40.8c-1.8-9.5,3.5-22.3,8.7-35.2c1.8-4.4,5.4-6,9.6-4.7
				C914.4,540.7,894.9,593.6,884.9,609.8L884.9,609.8z M988.7,1403.4c-2.7,27.6-41.8,48.3-60.5,66.5c-8.3,7.4-18.2,15-29.7,19.9
				c-12.8,5.4-5.9,18.7-7.2,28.5c1.2,12.5-2.3,29.8,14.5,16.9c25.2-15.5,46.8-36.2,70.6-53.2c1.6,12.2-64.6,62.3-76.9,63
				c-6.9,0.8-6.6,4.1-6.5,8.9c1,13.4-1.4,28.2,1.1,41c30-13.6,54.9-34.8,80.1-57.1c-3.1,21.2-46.4,45.1-63.3,58
				c-9.1,6.5-24.9,13.7-23.8-4c0.6-31-2.1-61.8-3.9-92.7c-0.3-8.3,7.7-11.9,13.4-16.4c17.3-13.9,34.7-27.6,52.1-41.4
				c10.1-8,19-17.2,27.4-26.8C979.9,1410.1,982.7,1405.1,988.7,1403.4L988.7,1403.4z M425.1,6.5c-0.4-1.7-1.6-5.1,2.4-5.2
				c4.4-0.1,10.3-0.6,11.3,5.1c5.8,39,6.7,78.6,19.8,116.3c22.3,76.1,57.5,149,115.8,203.9c62.9,59.3,137.4,108.6,222.7,126.9
				c23.9,6.3,47.5,12.3,72.5,11.4c16.1,0.7,32.2,1.9,48.3,1.5c17-0.4,33.9-2.1,50.8-3.6c3.6-0.3,5.9,0.5,7.3,2.3
				c3.5,5.5,1.3,12.6-7.1,12.1c-34.2,4.9-68.9,7.7-103.4,3.9C623,464.1,426,248.4,425.1,6.5z M555.7,1423.8
				c-1.5,2.7-4.1,0.3-6.2,0.2c-17.6-1-35.2-0.9-52.8,1.4c-11.7,0.9-12.6,12.1-16.9,19.1c-9.9,16-18,33.2-27,49.8
				c-1.1,2.1-3.9,5-5.5,4.8c-3.3-0.5-2.8-4.4-2.2-6.7c5.2-25.2,19.4-42,32.7-64.8c-30.5,12.7-56.6,25.3-86.6,37
				c19.8-17.3,43-32.7,68.8-38c0.9,0,1.8-1.6,2.8-2.5c-20-9.7-43.2-7-63.7-14c16.3-13,59.4,0.7,78.4,6.3c6.9,2.1,3.3-6.9,3.1-9.9
				c-2.6-53.9,5.6-107.5,1.8-161.4c-0.2-5.1-6.4-9.9-8.1-16.3c-1.3-4.7-1.9-8.8,0.7-12.4c11-15.1-0.3-29.7-1-44.4
				c-0.5-9.7-3.9-19.2-5-28.9c-3.5-29.2-4.4-58.8-10.1-87.7c-0.6-4,0.1-9,3.7-9.5c9.7,1.2,6.7,21.9,9,29.4
				c5.5,46.1,10.4,92.4,21.9,137.5c4.3,17.7,1.3,34.7,1.3,52c-0.7,48.6-0.1,97.3-3.9,145.8c-0.9,9.2,4.4,6.5,9.4,5.7
				c17.4-2.8,34.9-7.1,51.9,1.4C554.3,1418.6,557.3,1420.7,555.7,1423.8z M436.9,984c-0.8-2.3,1.3-3.3,2.7-4.5
				c1.8-1.5,2.9,0.3,4.1,1.4c11.9,10.1,23.7,20.2,35.5,30.2c2.5,3.2,10.2,5.4,7.7,10.3c-1.9,3.2-4.8-0.1-6.3-0.7
				c-4.8-1.8-9.3-4.1-13.6-6.9c-7.9-5.1-15-11.3-21.3-18.3C442.6,992,436.9,990.4,436.9,984z M413.7,981.4
				c9.9,12,19.6,24.1,29.4,36.2c4.7,5.3,5.8,9.1,13.3,12.4c-22,1.5-35.4-29.1-48.8-43.2C400.4,979.7,408.3,971.8,413.7,981.4
				L413.7,981.4z M395,988.4c7.5,17.5,15.6,28.7,18.9,48.8c-11.9-16.4-21.6-34.3-29.1-53.2c-3.3-3-6.6-8.7-2.6-10.2
				C389.3,971.9,392,983.4,395,988.4L395,988.4z M389.3,1345c-36.4-2.7-46-19.3-74.1,15.4c-8.1,6.2-14.2,20.4-24.6,22
				c3.9-17.8,18.9-28.1,32.5-42.4c-19.8,5.5-38.8,13.3-56.7,23.3c-3,1.7-6.9,4-9.2,1.3c-2.5-3,2.2-4.8,4-6.7
				c15.9-15.9,36.3-21.6,56.7-26.8c-15-8.7-34.9-11.1-51.6-17.2c20.9-8,43.6,3.4,62.9,11.7c3,1.5,4,0.2,3.7-2.1
				c-1.9-13.2,5.3-24.1,9.2-35.7c11-30.7,18.9-62.4,27.8-93.8c2.2-7.9,10.9-17.7,0.2-27.8c-4.2-4-2.5-13.8,1.1-19.6
				c7.7-12,1.2-23.6,0.3-35.3c1.2-10.5-11.7-80.8-3-78.3c3.1,0,5.8,2.3,6.3,5.3c2.3,12.8,5,25.7,6,38.7c1.9,23,6.4,45.7,9.9,68.4
				c2.5,16-2.3,31.4-6.1,46.7c-9.6,46.3-26.9,89.9-43.6,134c-0.6,1.9,0.5,2.6,2.4,2.7c16.1,0.3,31.7,2.9,46.3,10
				C395.5,1341.8,397,1347.1,389.3,1345z M368.6,974c8.7,17.2,18.9,35.5,18.7,54.2c-5-2.1-4.6-8.3-7.2-12.3
				c-5.2-12.6-10.9-25.3-15.7-38c-2.8-3.1-8-7.1-3.4-10.5C365.8,963.8,367.2,971.5,368.6,974z M290.1,1553.2
				c-22.8,13.2-48.2,19.9-73.4,26.6c-27,8.3-54.5,12.2-82.7,14.5c-2.3,0.3-7,3.3-6.7-2c0.2-4.6-4.5-12.9,5.3-13
				c9.1-0.1,17.6-3.3,26.2-4.9c24.1-4.3,46.9-13.7,69.1-23.8c18.6-8.9,42.1-9.8,56.3-26.3c-2.1-5.2-6.1-1.3-8.9,0.5
				c-44.2,15.8-87.1,36.2-133.1,45.8c-25.5,13.7-18.8-25.4-1.5-27.3c49-6.8,94.7-29,137.8-52.4c5.3-1.4,1.3-7.7-3.1-5.4
				c-24.3,11.5-48.4,23.7-73.5,33.3c-18.7,6.7-37.9,11.8-56.8,17.9c-15.9,5.2-18.1,3.9-17.9-12.7c0-3.2-2.2-8,3.6-8.7
				c22-2.9,42.6-11,62.8-18.9c27.1-10.7,54.3-22.2,78-39.6c1.7-1.2,7.5-0.8,4.7-5.3c-2.1-3.5-6.7-1.2-9,0
				c-10.6,5.6-21.1,11.2-31.8,16.5c-28.9,14.6-58.3,27.6-90.2,34.9c-6.4,1.5-21.3,17-19.1-7.5c0-5.4-3.1-15,2.5-15.8
				c11.1-1.7,20.7-7.2,31.5-9.6c27.3-7.1,53.9-18.8,79.3-31.2c5.8-3.5,36-19.3,33-25.8c-1.2-4.3-15.1,6.1-17.8,7.3
				c-35,22.9-75,35.1-114.2,48.4c-15.4,5.9-15.5,6.4-15.5-10.3c1.3-5.4-3.2-17.3,3.6-18.9c39.9-10,78.3-25.8,116-42
				c5.4-3.5,32.5-13.3,28.7-20.2c-2.2-3.8-7.1,0.8-10.6,2.3c-36.8,17.8-74.8,33.8-114,45.1c-6.5,1.8-23.4,8.6-25.2-1.4
				c-3.9-12.1-0.2-22.2,11.8-24c25.1-4.5,47.7-14.9,70.9-24.8c15.8-4.7,29.5-13.8,43.1-22.7l0,0c3.9-1.8,4.5-3.8,4.6-8.4
				c-42.9,18.3-84.2,42.2-131.2,51.3c10.3-13.7,17.3-30.3,29.3-41.4c5.7-3.7,14.2-2.9,21.2-5c22.8-8.6,51.3-10.4,68.7-28.6
				c-3.4-4.7-10.4,1.3-14.9,2.3c-22.3,9.5-45.4,17-69.1,22.4c-0.8,0.2-1.8-0.6-2.6-0.9c14.3-26.9,20.2-24.3,46.5-33.8
				c33.3-14.7,66.7-30.7,95.1-53.8c6.8-4.7,2.5-13.9-4-6.2c-36.2,27.9-75.7,45.4-118.4,62.2c7.9-9,9.4-25.6,18.1-30.1
				c22.6-9.4,43.3-21.7,64.8-33.1c13.7-8.1,26.6-17.7,37-30.3c2.2-2.6,7.7-5.4,4-8.9c-2.6-2.4-6.6,1.8-9.4,4.3
				c-25,24-56.1,38.9-86.5,54.6c-1.6,0.8-2.8,3.6-4.8,1.5c-0.7-0.7,0-3.7,1-4.8c12.9-18.5,10.7-44.8,39-49.4
				c7.9-1.6,15.3-6.6,21.5-13c7.7-9.6,29.3-33.7,19.5-45.4c-17.9-20.6-46.7,7.7-56.9,23.7c-15.4,28.4-11.4,40.4-40.6,61.9
				c6.3-22.3,8.8-46.1,17.8-67.6c1.3-7.1,11-15.8,3.8-22.2c-5.4-0.9-9.4,16.7-11.8,21c-7.2,19.8-12.8,40.2-16.7,61
				c-1.3,6.7,2,14.2-2.3,19.7c-15.3,19.7-31.1,38.9-46.7,58.2c15.1-51.6,33.6-102.2,55.4-151.4c2.4-4.9,0.8-21.6-5.2-9
				c-6.4,14.5-12.6,29-18.5,43.6c-15,36.9-28.1,67-38,107.3c1-28.4-2-53.3,1.2-77c10.2-13.7,55.2-84.9,48.9-97.8
				c-1.5-1.7-2.8,0.3-3.4,1.5c-15,27.8-28.5,57-45.5,83.4c-2.5-20.7-5.4-45.2,13-62.4c10-7.8,37-49.3,32.8-60.6
				c-8.3,3.2-12.1,17.2-17,24.5c-8.2,16.1-19.8,29.6-32,45.2c0-15,0.4-27.8-0.2-40.7c-0.2-3.5-1.1-6.1,1.6-9.4
				c13.7-17.4,29.6-35.9,35.4-57.5c-2.8-6.3-7,0.9-9.3,5.3c-9.4,14.2-17.2,29.5-28.5,42.3c-1.8-9.2-5.7-38-1.5-45.3
				c8.8-10.1,26.5-27.7,26-41.4c-1.1,0.5-2.6,0.7-3.3,1.6c-8.5,10.3-16.9,20.7-25.9,31.7c-0.7-9,0.4-17.5-2-25.8
				c-0.9-3.1-0.8-8.2,1.2-10.2c5.9-6.6,29.8-33.7,22.8-41.5c-2.2-1.6-2.1,2-3.1,3.2c-4.2,5.2-7.8,10.9-12.2,15.8
				c-3.3,3.8-8.6,16.9-10-1.2c-1.1-15.2-7.6-30.4,3.3-44.9c11.6-15.3,17.8-33.1,13.7-53c-2-10.2-9.1-16.9-18.7-18.1
				c-19.7-1.8-27.1,22.9-26.6,39.4c-0.9,22.9,14.3,42.7,10.1,66c-1.6,8.5-0.3,17.6-0.3,27.3c-7.5-7-29.4-38.8-36.8-36.5
				c-1.2,5.3,5.3,9.7,7.6,14.2c8.1,11.6,18.6,22.3,28.4,32.1c-3.4,10-0.7,20.5-2.4,32.3c-13.3-15.6-25.4-29.8-38-44.5
				c-1-1.2-2.5-2.8-4.2-1.2c-2.4,4.1,3.6,7.7,5.2,11.2c4.1,5.6,8.3,11.3,12.2,17c10.6,15.4,31.5,26.2,23.5,50.4
				c-0.6,1.7,1.1,5-3,1.8c-17.8-14.2-33-30.9-47.7-48.2c-0.8-1-1.3-4.4-3.8-2c-4.8,5.5,5.4,11.8,7.8,16.7
				c8.8,11.3,17.9,22.3,29.3,31.3c5.7,4.5,14.2,8,16.5,13.8c3,7.7,1.2,17.3,1.3,26c0,2.6-0.7,2.8-2.6,0.9
				c-16.5-16.9-35.3-31.4-48.2-51.7c-2-5.9-13.7-8.2-8.9,0.8c16.1,23.7,40.3,46.2,60.3,64.9c-3,12.3,0.7,24.6-2,37
				c-3.3-8.6-11.7-12.3-17.3-18.5c-13.9-15.3-28.6-29.8-43.2-44.5c-2.5-2.3-4.3-5.4-8-5.9c0,1-0.4,2.3,0,3
				c15.7,22.3,34.5,42.3,53.9,61.3c8.4,8.2,18.2,13.7,15.9,27.9c-1.8,9.7,0.7,19.9-1.2,29.6c-23.7-23-44.6-49.6-69.5-71.8
				c-3.3-2.4-8.5,0.4-3.9,3.8c20.7,21.8,40.9,44.1,60.7,66.8c4.3,5,12.8,6.9,13.2,14.3c0.2,13.9,1.5,28.4-0.7,42
				c-28.5-19.3-52.5-45.8-75.1-72c-1.3-1.5-4.3-1.5-6.2-2.2c14.2,28.8,41.6,50.4,64.9,72.3c7.8,6.7,21.2,9.7,17.4,24.8
				c-0.2,6.8-0.3,13.8-2.8,20.4c-19.7-12.2-34.8-30.5-51.4-46.5c-8-8.4-15.2-17.6-23.1-26.1c-1.3-1.4-4.3-1.3-6.6-1.9
				c8.9,24.9,65.6,84,91.1,90.3c6.8-110.3-5.1-221.4,6.7-331.4c11.8,107.8,13.9,216.5,12,324.9c2,23,47.8-49.6,53.8-54.2
				c12.6-15.7,25.7-30.9,40.7-48.9c-0.8,4.9-0.6,6.7-1.3,8c-8.4,17-16.4,34.2-25.4,50.8c-17.2,32.1-34.8,64-55.9,93.8
				c-9.6,15-7.7,31.2-6.5,48.1c1.9,27.3,0,54.7,1.6,82.1c2.7,29.4-1.3,59.8,1.9,89c2.7,4.7,30.9,0,37.4,0
				c27.9-4.5,55.1-12.2,82.5-19.1C244.6,1581.6,312.5,1554.4,290.1,1553.2L290.1,1553.2z M217.9,1204.9c10-19.2,23.8-44.5,48.1-45.4
				c3.1,0.3,5.5,2.7,5.8,5.8c-1.3,22.3-33.6,46.3-55.9,49.6C216.6,1211.5,216.5,1207.9,217.9,1204.9L217.9,1204.9z M102.6,942.6
				c-1.9,3-3,6.6-5.3,11.8c-7.7-19.6-10.9-37-8-57.2C96.5,863.5,139.6,884,102.6,942.6z M206.2,767.2c2.4,3.4-1.1,6.5-4.3,4.9
				c-11.1-3.7-34.2-44.2-16.3-47.1c5.9-0.3,2.9,4.3,3.3,6.8C191.2,745,199.4,755.9,206.2,767.2z M185.5,460.2
				c4-14.4,34.7-3.9,9.2,11.2C187.6,470,185.7,464.4,185.5,460.2L185.5,460.2z M170.4,676.7c4.2-11.2,16.1-18.7,25.5-25.7
				c0.7-0.4,2.2-0.7,2.4-0.4c7.5,7.5-21,27-26.1,27.3C171.8,677.7,170.4,677.1,170.4,676.7z M155.6,706.3c0.4-1.3,0.4-3,1.3-3.8
				c11.7-10.7,23.2-21.6,35.3-31.8c3.5-3.8,4.6-1.3,5,3.3c-2.7,10.5-12.8,14.9-19.9,22C171.4,701.3,164.1,707.8,155.6,706.3
				L155.6,706.3z M186,784.3c5.1,7.5-2,9-5.8,3.2c-8.8-7.9-26.6-55.7-11-60.1c7.4-0.3,2.2,7,3.5,9.3
				C173.6,753.5,180.2,769,186,784.3L186,784.3z M169,801.6c0.4,1.2-0.2,2.7-0.3,4c-20.2-10-20.6-31.4-22.9-53
				c-2.4-7.6-0.6-19.2,3-30.7c1.2-4,3.4-5.6,6.9-4.8c3.8,0.9,2.3,3.3,2.1,6.3C154.8,750.2,157.7,776.9,169,801.6L169,801.6z
				 M126.2,1495.6L126.2,1495.6C126.3,1495.2,126.3,1495.5,126.2,1495.6L126.2,1495.6z M90.5,1393.1c-1.2,69-2.3,138.3-3,206.9
				c-5.1,7.1-15.1,2.4-20.5-2.2c-21.7-17-43-34.5-64.5-51.8c-1.9-1.5-2.3-3.4-1-5.3c1.6-2.3,3.6-0.2,4.7,0.7
				c19,15.6,40.2,28.4,58.1,45.4c3.8,3.6,9.1,5.6,13.8,8.2c2.6,1.3,2.6-6.1,2.3-7.4c-2.7-9.6-0.1-19.6-2.3-28.8
				c-0.9-3.9-7.7-6.3-11.6-9.5c-21.4-18.3-43.7-36.8-63.7-56c-0.2-2.6,2.7-1.1,5-0.2c26.8,14.3,45.9,38.5,70.6,55.3
				c3.7-30-4.7-38.7-25.8-55.6c-16.4-17.5-41.2-30.9-50.4-53.6c27.3,16.2,47,45.1,73.9,62.9c3.1,2,4.7-0.9,4.7-3.3
				c0.2-11,1.1-22.2-0.4-33c-24-22.9-49.4-48.7-72.8-73.2c-2.1-2.9-5-7.4-4.3-11.3c23,18.3,45.5,39.7,64.1,63.2
				c2,2.1,13.3,16,13.5,8.3c-0.4-13.8-0.5-27.6-1.2-41.4c-0.1-2-2.8-4.2-4.9-5.7c-11.2-8-22-16.5-32.7-25.1
				c-2.9-1.7-56.7-50.8-36-41c21.2,18.3,42.3,36.6,63.3,54.9c3.2,1.9,6.1,6.5,10,5.7c-3.3-6.7,3.5-14.3-3.3-21.4
				c-27-28-54.1-56-72-91.2c-4-5.5,1.6-8.9,5.7-2.8c18.1,25,35.8,50.3,57.8,72.4C77.6,1367.2,91.8,1376.8,90.5,1393.1z"/>
		</g>
	</g>
</g>
<g>
	<g id="Layer_1_2_">
		<g transform="matrix( 1, 0, 0, 1, 0,0) ">
			<g>
				<g id="Layer0_0_FILL_1_">
					<path d="M52,1548v15l-37,37h946l-37-37v-15H52 M52,52V37.7L14.3,0H0v1600h15l37-37v-15V52 M924,52V37.7L961.7,0H14.3L52,37.7
						V52H924 M976,0h-14.3L924,37.7V52v1496v15l37,37h15V0z"/>
				</g>
			</g>
			<g>
				<path id="Layer0_0_1_STROKES_1_" class="st5" d="M961,1600h15V0h-14.3L924,37.7V52v1496v15L961,1600H15H0V0h14.3h947.4 M52,52
					V37.7L14.3,0 M15,1600l37-37v-15V52h872 M924,1548H52"/>
			</g>
		</g>
	</g>
</g>
</svg>
