<svg xmlns="http://www.w3.org/2000/svg" xmlns:xlink="http://www.w3.org/1999/xlink" viewBox="0 0 976 1600">
<style type="text/css">
	.st0{fill:#FFFFFF;}
	.st1{clip-path:url(#SVGID_2_);}
	.st2{fill:#333333;}
	.st3{fill:#FFEB5C;}
	.st4{fill:#D81E1E;}
	.st5{fill:none;stroke:#333333;stroke-width:2;stroke-linecap:square;stroke-miterlimit:3;}
</style>
<g id="Paper_Backing">
	<path class="st0" d="M960,22v1556c0,3.3-2.7,6-6,6H22c-3.3,0-6-2.7-6-6V22c0-3.3,2.7-6,6-6h932C957.3,16,960,18.7,960,22z"/>
</g>
<g id="Wikipedia_Cropped">
	<g>
		<g>
			<g>
				<defs>
					<path id="SVGID_1_" d="M960,22v1556c0,3.3-2.7,6-6,6H22c-3.3,0-6-2.7-6-6V22c0-3.3,2.7-6,6-6h932C957.3,16,960,18.7,960,22z"/>
				</defs>
				<clipPath id="SVGID_2_">
					<use xlink:href="#SVGID_1_"  style="overflow:visible;"/>
				</clipPath>
				<g class="st1">
					<path class="st2" d="M663.7,1604c-17.4,2.3,46.9-78.1,53.8-81.5c30.7-51.3,69-102.3,93.1-159.6c22.2-63.2-15.8-0.9-16.3-0.3
						c-13.6,21.3-29.5,42.2-43.6,63c-6.6,10.1-15.9,24.9-26.7,32.9c-7.6,6.2-7.3,19.1-16.7,25.7c-16.4,16-25.2,36.6-42.5,51.2
						c-56.6,90.8-38.1-7.3-42.6-53c0.1-59.7-2.9-120.6-0.6-178.3c-5.1-32.9,6.9-29.8,33.2-31.9c3.1,0.7,5.8,3.8,9.2,1.6
						c13.8-8.2,27.4-4.2,42.1-6.6c4.7-1.2,7.3,3.8,11.5,4c6.3-3.6,16.4-5.1,19.8-11.4c4.4-11.7-8.4-16.9-12.8-26.7
						c-1-12.5-14.3-21.5-17.3-34.5c-2.2-8-16.2-10.3-13-22.6c0.5-2.8-1.1-5.6-3.8-6.6c-7-3.3-12.8-21.1-18.5-28.5
						c-10.2-8-11.5-23-17.6-32.1c-9-5-10.8-21.9-16.3-29.7c-5.4-4.9-12.4-14.9-14.5-23.6c-10.2-42-0.6-86.2-4.2-128.1
						c-2.6-15.3,2.7-31.5,0.4-45.5c-1.4-5.2,1.1-9.2-0.2-13.8c-3.7-6.3,2.6-16.4,1.3-23.5c-1.9-28.5-1.9-63.3,0.5-91.3
						c-8.2-15.2,2.3-32.8-0.3-46.5c-4.4-13.7-2-29.9-1.1-44c-3.2-16.8,0.3-34.7-0.1-50.7c-3.9-17.6-3.4-36-1.4-52.9
						c-1.8-12.8-6.5-28.5-2.1-40.8c3.9-4.6-0.6-8.8-3.4-12.2c3.3-12.1-3-24.8,1.2-38.1c1.3-7.2-9.9-18.1-14.8-8.3
						c-1.2,12.7-0.6,27.1-1,41.6c-11.1,148.2-1.7,301.2-7.3,450.7c0.2,46-27.6-16.3-27.1-30.9c-1.7-10.7-13.2-20.3-13.2-31.8
						c-4.2-8.5-1.7-17.2-4.6-24.5c-5.2-4.9-6.5-11.5-7.7-17.3c-4.9-16.7-8.5-32.6-12.8-48.9c-3.7-16.5-11-32.2-8-48.4
						c-9.1-17.4-13.5-36.9-12.9-56.5c-9.5-18.8-12.9-41.4-12-60.8c-12.5-18.6-8.4-43.4-13.8-64.7c-4.3-20.2,9.6-40,14.6-58.7
						c14.7-38.2,33.5-74.5,56.9-107c11-12.6,20.5-30,34.6-36.4c6.2,5.2,6,16,12.1,22.4c27,8.5-0.9-63.7,48.9,17.3
						c47.8,90.7,71.6,196,89.9,297.1c22.6,121.8,36.4,245.7,45.1,370.7c4.9,42.8,5,86.6,8.9,128.3c4.5,26.6-3.8,59.6,8.2,83
						c12.2-1.2,22.9-20.8,36-17.4c5.1,7.7-12.7,33.6,6.5,29.8c14.6-2.9,23-20.2,34.3-23.5c42.6,17.8,82.9,74,104.4,120.4
						C985.6,1702.3,1011,1581.1,663.7,1604z M169.3,1604c-4.2-2.3-8.3-5.4-12.7-7.8c-3.2-7-3.6-21.6-2-29.8
						c-2.6-14.7,0.3-30.7-3-45.6c0.4-67.7-4.8-137.5-2-205.4c-1.8-14.8-4.5-31.6-0.4-46.4c-5.3-17-7.2-53.1,0.7-65.5
						c2.1-11.6-15.3-23.1-5.5-38.2c-1-16.1-4.6-34-2.3-50.8c-5-24.8-1.8-51.5-2.9-76c-4.1-9.9-2.8-22.7-0.5-32.8
						c-1.7-9.8-5.3-22.3,1.6-33.4c3.1-7.3-9.6-9.7-3.8-17.4c-0.2-15.5-2-30.3-2.2-46.5c0.5-11.3-0.6-22.6-3.2-33.6
						c-2.6-12.5,3.3-18.1-1.8-30.8c-18.8-42.6-18.7,99.8-18.3,108.5c-3.3,47.1-1.2,93.7-2.5,140.9c-2.5,7.9,2.6,11.5-1.2,19.7
						c-2.7,2.3-5,5.6-2.8,9.1c9.3,18.1-2.6,43.8,3.7,63.1c-3.6,32-0.4,64.4,1.7,96.9c2.3,15.2-0.2,30.7-1.7,44.4
						c6.7,9.3,1.9,21.4,3,32.9c0.5,3.7,1.1,8.6-1.7,11.5c-5.2,9,6.4,17,1.6,29.2c1.6,24.5-2,51.2,1.6,75.2
						c0.7,39.3-1.4,75.7,2.4,114.6c22.8,28.5-109.7,7.9-115.1,13.8c-10.7-27-0.7-93.3-4-124.3c0.2-80.8,0.2-172.6,0-252.7
						c0.5-151.4-11.9-325,74.5-455.2c40.2-47.7,17.3-28.6,48.9-1.4c14-1.3,8-29.7,20.4-27.6c21.6,16.8,41.6,57.4,50.7,85.9
						c55.2,145.3,69.8,302.5,93.1,456.4c146.2-9.7,71.4,50.3,105.2-152.3c28.1,22.2,82.6,164.5,122.1,154.9c17.6,0.9,75.1-21,72.4,7
						c-2.6,68.1-1.5,130-1.1,199.1c0.6,32.1,0.5,64.7,0.5,96.6c-2.3,11.7-27.9-9.8-31.4-13.6c-70.1-44.5-130.5-104.1-189-161.9
						c-7.1-3.3-8.9-12.7-14.9-16.6c-7.5-1.9-7.1-6.6-11.8-11.9c-8.3-6.7-14,5.9-6.6,11.2c48.1,60.4,95.1,131.5,156.3,180.6
						c5.3,4,9.6,8.3,13.9,12.2c4.5,1.3,6.3,5.2,5.4,9.8C505.5,1611.3,173.2,1600.2,169.3,1604z M234.6,1256
						c-23.4,27,24.3,76.1,52.6,75.1C289.6,1306.5,268.5,1247.8,234.6,1256z"/>
					<path class="st3" d="M281.4,1329.8c-24-2-74.2-53.3-42.1-73.4C264,1252.1,297.7,1318.4,281.4,1329.8z M834.3,1299.4
						c-11.7-19,13.5-71.6,42.5-65.7C897.6,1254.2,858.2,1293.3,834.3,1299.4L834.3,1299.4z M118.8,771.5
						c-47.8-33.3-4.2-131.8,18-81.4C137,717.7,141,754.6,118.8,771.5z M602.5,393c-11.3-1.8-35.8-71-1.4-84.4
						C629.3,311.8,614.2,379.5,602.5,393z"/>
					<path class="st2" d="M583.7,1604c-5-4.5-94.5,9.9-87.2-8.6c3.3-8.3-7.3-12.2-11.9-17.2c-34.4-28.4-68.6-69.4-92.4-100.8
						c-14.8-19.9-30.8-39.7-46.1-58.7c-4.1-8.1-23.9-21.1-16.9-30.3c79.7,61.9,151.6,158.3,248.8,205c13.5-6.7,2-31.7,5.1-44.9
						c-0.1-61.6,0.1-122.9-0.3-184.2c5.8-28.3-18.3-86.2,23.9-87.2c9.5-2.4,20.5,2.1,14.3,13.2c-0.6,50.3,0.8,101.2,1.8,152
						c5.9,17.3-12.7,145,10.4,133.2c60.7-69.3,115.2-142.9,167.1-220.4c56.2-56.2-72.3,155.4-87.9,168.9
						C650.1,1601.1,688.7,1608.1,583.7,1604z M116.4,1604c-7.9-249.3-15.9-511.1,0-763.4c5.3-46.4,17.7,1.5,16.1,20.3
						c9.1,192.1,13.2,384.3,18.6,576.6c0.5,48.5,4.8,100.9,2.8,149c-1.9,7,7.4,8.9,7.2,14.6C161.6,1608.1,119.2,1602.1,116.4,1604z
						 M616,1034.2c-48.2-54.7-17.3-138.8-25-206.1c2.1-110.7-3.1-224,5.7-334.2c14.6-272.5,28.4,244,24.3,287.3
						c-0.1,45.2-0.1,92.4-0.1,137.6C616.9,955.5,629,1002.1,616,1034.2z"/>
					<path class="st4" d="M507.6,1283.7c-32.9-5-42.7-52.6-65.6-74.3c-40.5-64.7-78.5-131.9-103.8-203.7
						c-70-174.1-106.6-363-122.7-551c-2.3-36.3-5.2-72.4-10-108.4C205,329.7,195,305,222.4,315c74,1,148,4,222.2,7.3
						c8.2-0.2,19.5,2,14.6,12.8c-0.4,45.5,4.6,91.4,6.3,137c5.4,101.4,27.6,201.1,48,300.2c35.6,170.5,119.4,323.6,212,468.8
						l-0.1-0.1c28.9,31.9-33.6,20.8-49.7,25.1C619.5,1270.6,563.7,1276.8,507.6,1283.7L507.6,1283.7z"/>
					<path d="M785.2,344.5c1.2,23.2-31.5,18.3-28.3,0C758.9,329.1,786.9,329.4,785.2,344.5z M761.7,200.7
						c9.3-0.3,11.6-9.9,12.7-16.8c1.1-6.5-5.8-11.6-11.8-10.4c-6.3,1.2-14.7,3.4-13.7,14C747.8,196.6,754.3,200.9,761.7,200.7z
						 M734,55c11.5-0.1,12.8-24.3,1.2-24C719.9,28.7,717.2,58.4,734,55z M821,24.6c12.2,1.1,10.9-22.2,0.7-21.9
						C804.8,2.9,808.2,25,821,24.6L821,24.6z M849.1,186.9c0,17.4,23.1,23.6,24.4,2.4c-2.5-3.8,0-12.4-8.6-12
						C858.7,177.6,848.2,174.7,849.1,186.9z M844.6,121.8c13.2,1.9,18.8-26.1,1.5-22.8c-5.9-0.7-11.3,0.3-10.9,7.6
						C835.5,113.1,837.2,121.5,844.6,121.8z M795,93.1c12.1,0.6,9.8-23,0.9-22.7C780,68.7,777.2,94.5,795,93.1z M720.6,137.3
						c14.8-1.1,17.7-32.7,2.1-32.1c-10.4,1.2-15.6,8.8-14.4,19C709.2,130.2,709.6,138.8,720.6,137.3L720.6,137.3z M789,252
						c0.5,7,6.5,10.2,11.9,9.8c16.2-2,15.5-23.6-1.5-24.9C792.9,239.6,788.5,244.3,789,252z M805.8,475.3c-4.9,0.4-12.2,1.2-11,10.1
						c1,5.5,1.6,12,9.2,12C816.8,498,819.2,475,805.8,475.3L805.8,475.3z M828.3,413.5c0.5,6,0.2,13.4,14,13.9
						c6.3,0.5,8.2-7.4,9.1-15.1C854.2,394.2,825.8,395.9,828.3,413.5L828.3,413.5z M524.8,219.2c19.1,1.9,22-28.5,3.9-28
						c-8.3,0.1-13.7,5.9-13.5,14.1C515.5,211.3,514.4,220.7,524.8,219.2z M506.9,65c12,0.3,17.5-22,3.2-22
						C496.2,41.3,490.6,64.9,506.9,65z M541.6,128.8c8.1,0,13.9-3.7,11.2-13.5c5.8-18.5-24.3-15.4-23.5-0.4
						C529.3,121.7,533.1,128.8,541.6,128.8L541.6,128.8z M441.1,97.6c-0.4,5.5,2.5,8.7,8.7,7.3c10.7,2.5,10.3-6.3,10.8-12.1
						c0.4-5.6-5.4-6-9.9-6.1C443.2,86.4,441.4,91.9,441.1,97.6z M472.6,173.5c11,1.1,12.3-23-1.1-20.6
						C456.6,150.9,452.7,174.1,472.6,173.5L472.6,173.5z M650,133.2c8.2-1.3,5.6-10.8,6.6-16.9s-4.8-9.6-10.5-9.1s-13.6,2-12.8,9.6
						S636.3,133.1,650,133.2z M660.2,60.6c2.7-0.7,8.9-2.9,8.5-10.3c1.9-17.5-21.4-13.4-21.3,1.3C647.3,55.7,649.5,61.9,660.2,60.6
						L660.2,60.6z M592.9,55.9c7.2-1.8,5.4-7.8,5.8-9.1c1.8-11.1-3.7-12.7-9.3-12.8C572.9,32.9,575.1,62.7,592.9,55.9L592.9,55.9z
						 M696,246.8c6.3,0.3,11.6-2.7,11.1-10.6c0.8-11-8.3-11.6-15.1-12.9C677.3,221.7,681.7,248.2,696,246.8z M597.2,165
						c-17.1-3.5-12.6,29.6,3.3,26.7C615.6,191.1,615,161.6,597.2,165z M883,637.6c13.1,0.2,13.2-23.4-0.2-22.4
						c-6.7,0.1-10,5.2-9.8,12.8C871.5,635.4,877.7,637.5,883,637.6z M922.9,154.6c11.1,0.4,12-28.1-1-25.7
						C903.5,128.6,905.2,157.1,922.9,154.6L922.9,154.6z M897.5,443.4c0.9,16.9,24.6,12.5,23.7-3.5c0.2-8.5-5.3-12.9-12.3-12.7
						C899.5,427.6,897.6,436.2,897.5,443.4z M852.3,1030.8c9.2-0.4,12.1-9.2,12.1-16c0-7.1-4.6-13.1-14.1-12c-10,1.1-6.5,10-9.6,14
						C841.3,1025.3,844.5,1031.2,852.3,1030.8z M835,847.7c-5.6,1.6-12,2.7-12.1,11.2c-0.2,7.8,2.8,13.4,11.1,13.2
						C849.2,872.4,851.6,848.7,835,847.7z M947.4,216.1c0.5-18.8-24.4-16.1-24.3-1.1C922.5,232.3,947.2,234.3,947.4,216.1z
						 M933.5,520.6c-0.8-15.9-24.7-10.5-22.6,4.5c-0.1,7.3,1.3,13.2,10.1,12C934.4,538,933.3,528,933.5,520.6z M938.7,90.9
						c16-0.4,11.9-24.1-1.1-22C923.7,68.8,925.7,91.5,938.7,90.9z M861.6,507.2c-1.5,19.7,25.3,18,23.9-1
						c0.4-6.5-2.1-12.2-10.4-11.1C865.6,493.7,862,499.6,861.6,507.2z M913.4,885.9c-9.4,1.2-8.1,10.1-7.8,16.7
						c0.3,6.2,4.9,8.9,11.1,8.5C935.7,910.1,931.1,882,913.4,885.9z M914.5,666.9c-8.7,0.1-12.3,4.1-11.3,14.3
						c0.5,4.7,1,11.8,8.5,11.7C927,694.7,931.2,664.5,914.5,666.9L914.5,666.9z M847.7,686.2c0.2,4.6,1.4,13.2,8.3,12.3
						c5.5-0.7,17,3,14.9-10.4c1.9-11.6-7.2-12.1-14.6-12.8C849.4,674.5,847.5,682.1,847.7,686.2z M934.4,790.2
						c1.1-17.2-25.8-12.6-21.5,3.6c1.1,7.1,6.2,7.2,14.2,7.8C933.1,802.5,933.7,795.8,934.4,790.2L934.4,790.2z M881.4,368.1
						c-0.1,16.2,26.2,15.3,24.2-1.7C905.7,349.1,880.1,354.7,881.4,368.1L881.4,368.1z M890.6,726.8c-7.8,0.3-8.9,5.9-9.7,12.1
						c-1.3,10.6,6.6,11.2,13,10.6c8.3-0.8,7.2-9.3,7.5-14.6C901.8,729.2,896.8,726.4,890.6,726.8L890.6,726.8z M887.9,53.7
						c6.2-0.5,10.7-4.5,9.2-11.7c0.1-6.6-1-13.8-8.1-13.7C873.3,27.5,870.4,55.5,887.9,53.7z M899,842.7
						c0.4-16.9-23.4-14.1-22.7,2.4C876.4,859.8,899.8,856.8,899,842.7L899,842.7z M889.1,251c-8.4-1.6-9.8,5.6-9.7,10.5
						c0.1,4.8-1.3,12.4,7.3,13.6C903.4,278.4,906.9,249.1,889.1,251z M861,783c-12.6,0.4-11.1,24.7,7.6,22.1c8.1-0.2,6-6,6.4-10.3
						C877.5,782.1,868.9,782.7,861,783z M444.8,51.6c12.9,1.7,13.7-20.6,0.7-20.6c-7.9-0.5-7.4,6.2-8.6,11
						C434.7,49.5,440.4,51.2,444.8,51.6z M869.6,1157.3c16.7,1,18.1-23.5,3-24.5C858.9,1130.6,857.1,1159.2,869.6,1157.3z
						 M864.8,319.2c1.2-7.1-2.8-11.2-10.6-10.2c-11.6-2-13.2,6.5-13.8,14.4C841.3,336.9,864.8,331.7,864.8,319.2L864.8,319.2z
						 M861,915.1c11.3-1.5,9-11.9,9.5-18.7c0.5-7-6.7-5.6-11.5-5.7c-9.3-0.3-10.3,6-10.1,14C847.4,913.5,853.2,916.2,861,915.1z
						 M376,99.6c-2.3,13.9,19.1,19.1,21.2,4.4c-1.6-5.7-1.3-14-9.1-14.6C382.9,89.1,376.5,91.8,376,99.6z M45.9,543.9
						c-0.4,13.9,18,15.4,18.3,0.5C63.9,532.5,45.2,531.5,45.9,543.9z M406.7,184.9c16-1,15.6-24.5-0.7-23.2
						c-6.4,0.4-5.2,7.3-7.3,12.3C401.3,177.9,398.4,185.4,406.7,184.9L406.7,184.9z M53.5,314.7c-13.4-1.1-14.4,23.7-0.3,20.2
						c9.5,2.2,9.1-5.4,9.6-10.9C63.5,317.9,58.1,314.7,53.5,314.7z M46,456.9c14.4,4.1,14.8-21.4,0.6-18.3c-5.4,0.4-9.6,1.6-9.8,8.5
						S37.5,458.9,46,456.9z M45.2,241.2c14.1,0.2,19.9-21.4,3.7-22C37.7,218,33.5,241.6,45.2,241.2z M114.2,534.7
						c5.6,0.3,5.5-6.6,5.6-10.5c0.2-6.6-2.5-12-11.4-11.2c-9.7-2.1-8.6,7.4-8.5,11.4C100.3,531.9,108.2,534.3,114.2,534.7
						L114.2,534.7z M58.5,61c8.9,1.1,9.9-4.6,10.6-11c0.9-7.4-5-10.5-9.5-10.5C48.7,38.6,44.7,64,58.5,61z M107.8,1593.2
						c-40.4-13.2-72.2-43.5-107.7-65.7c-2.5,12.5,44.9,39.7,55.5,47.2C58.5,1578.4,124.3,1612.5,107.8,1593.2z M102.3,138.6
						c6.2-0.4,13.4-3,13.3-11.3c0-4.9-0.4-12.4-7.1-11.8s-14.8,2.7-13.5,13.4C93.4,134.8,97.2,139,102.3,138.6z M83,186.8
						c15.3,1.5,20.7-22.7,2.2-19.9c-7,0.3-8.6,4.6-8.2,11.2C76,182.5,77.9,186.7,83,186.8z M84.7,397.5c11.6,0,12.5-20.4-2.7-19.4
						C67.9,377.6,72.3,399,84.7,397.5z M129,320.9c1.6-16.2-20-15.3-18,0.9c-0.9,6.1,1.7,9.3,8.4,9.3
						C126.4,331.1,129.1,327,129,320.9z M643.2,1166.5c-2.3-1.8-3.5,0.3-4.7,1.2c-29.4,24.6-71.7,47.9-108.2,21.9
						c-40.4-33.4-26.4-92.9-59.8-131.8c-6.6-8.8-9.1-18.7-5.6-30.4c3.1-10.4,12.8-20.7,3.8-32.7c48.5-27.1,35.7-106.7-23.6-73.6
						c4.6-16.4,11.8-32,21.3-46.1c1.3-1.8,0.9-5.4,0-7.7c-0.4-1-4-0.8-6.1-0.9c-19.5-0.6-41.1,30.7-63.7,28.7
						c-21.6-3.3-0.2,29.6,33.8,4.1c1.5-0.9,3.5-1.2,5.3-1.8c0,1.9,0.8,4.4-0.1,5.7c-10.5,15.7-13,34.5-20,51.5
						c-2.2,5.3-2.9,12.8,2.8,16.1c5.4,3.2,10.8-2.1,12.4-6.5c6-16.3,25.9-40.9,45.1-34.3c6.3,2.9,7.3,8.6,7.3,14.8
						c0,23-17.5,38.8-39.9,36.6c-5.3-0.5-11.4,2.1-9.8,8.8c1.2,13.9,30.2,10.4,24.6,19.4c-27,44.6,17.9,66.1,24.7,107.8
						c9.3,57.7,35.4,113.9,104.3,93.9c23.5-6.4,43.7-17.6,56.3-39.5C644,1170.1,645.6,1168.4,643.2,1166.5L643.2,1166.5z
						 M936.9,1408c0,10.3-32.6,26.9-41.1,33.8c-40.3,29.4-92.5,41.5-141.5,44.5c-20.9,0.7-18,21.1-29.3,29c-1.8,1.3,1.8,1.8,3,1.7
						c71.2-1.3,143.2-22.8,199.5-67.3c2.1-1.8,4.8-4.6,7.7-1.3c2.6,2.9-0.7,4.2-2.4,5.7c-11.9,11-26.5,17.6-40,26
						c-14.6,9-28.7,18.3-44.9,23.9c-34.4,11.4-73.8,22.6-109.8,20.3c-27-4.8-30,18-43.4,31.8c-7.4,7.8-1.7,6.8,4.2,7.2
						c11.5,0.7,23,3.5,34.4,3.1c43.7-1.8,87.1-9.8,127.7-26.3c26-8.9,47.2-25.9,69.5-41.2c1.6-1.1,2.8-3,4.3-0.6
						c1.6,11.6-27.8,23.1-35.6,30.5c-60.7,39.6-142.1,53.7-212.7,38.9c-0.9-0.4-3.7,2.7-5,4.6c-6,9.2-11.9,18.6-17.8,27.8
						c-2,3-6.6,11.7-10,8.7c-1.2-2.6,0.2-7.3,2-10.1c17.7-25.8,35.3-51.6,53.6-76.8c38.5-52.4,71.9-108.5,100.7-166.8
						c0.8-1.6,0.7-3.6,1.7-8.9c-55.5,81.8-111.4,159.4-176.5,233.4c-1.3,1.6-2.6,4.1-4.3,4.4c-9.7,2.1-12.4-1.9-12.3-11.9
						c0.6-43.2,0.5-86.4,0.2-129.7c-0.1-19.5-2-38.9-1.6-58.3c0.3-25.8,3.1-51-1.8-76.7c-4.3-18.1,13.5-27.6-6.3-26.8
						c-22,3.7-22.8,3-22.5,29.3c0.4,79.5,0.6,159,0.5,238.6c0,13.5,0.7,27,0.9,40.4c1.3,5.7-2.7,14.4-9.8,11.1
						c-34.4-23.9-72-43.4-102.9-72.3c-22.8-17.7-42.7-38.7-63.8-58.2c-22.4-18.5-40.7-41-61.7-60.6c-5.4-5.1-11.9-9.5-15.2-16.6
						c-0.3-0.7-2.6-1.3-3-0.9c-1.3,1.1-0.6,2.3,0.5,3.6c21.2,26.5,42.9,52.7,63.2,79.9c30.5,40.4,64.1,78.1,103.4,110.2
						c3.8,2.8,7.3,9,1.7,10.2c-6.6-2.5-11.5-10.4-17.7-14.2c-8.2-6.3-16.6-0.9-24.6,0.6c-15.2,2.8-30.6,4-46,3.6
						c-19.5,4.5-39.6-1.8-59.2-3.3c-22.9-2.9-48.7-5.6-68.3-17.8c11-4.8,22.8,3.6,33.9,4.6c50.6,7.3,100,13,150.8,0.7
						c-10.5-10.2-20.8-20.4-31.4-30.2c-0.9-0.8-4.2,1.3-6.4,1.4c-45,4.2-90.7,4.2-134.6-7.3c-7.3-2-14.3-4.9-21.6-6.3
						c-3.6-0.7-7-2.2-6.3-4.8c1-3.4,5.7-2,8.2-1.3c50.4,14.4,102,13.9,154.1,12.1c-8.7-10.3-16.9-19.3-24.2-28.9
						c-2.9-3.8-5.5-1.8-8.3-1.3c-39,5.8-78,0.7-115.6-10.1c-9.7-2.8-28.1-3.1-33.2-12.5c-1.3-5.7,35.3,6.4,40.1,6.6
						c36,9.5,71.6,10,109.2,7.4c-6.9-8.8-13.7-17-19.7-25.7c-3.9-5.6-8.7-4.2-13.8-3.7c-32.5,3.3-65-2.3-96.3-10.4
						c-5.2-1.2-31.9-8.6-30.7-14.3c0.1-2.7,2.6-1.7,3.9-1.3c13.9,3.6,27.7,7.7,41.7,10.9c22.5,5.1,45.3,8.2,68.6,7.1
						c5.7-0.3,11.8-1.8,17.1,2c-5.7-12.6-15.8-21.5-24.1-31.6c-2.8-3.4-11.7-2-16.8-1.5c-11.8,1.2-23-1.6-34-3.6
						c-14.8-3.4-61-11.2-67.6-23.8c0.5-2.9,3.9-2.1,5.5-1.5c34.6,13,70.4,18.1,107.1,22.5c-9.9-13.2-19.3-25.5-28.3-37.9
						c-1.8-2.4-3.8-2.5-6.3-2.6c-29.3-0.7-55.9-11.7-82.6-23c-3.8-2.2-11.4-1.7-8-8.4c2-4,7.6,0.7,10.7,2
						c5.9,2.8,80.7,29.8,76.3,18.8c-8.6-9.3-10.3-26-21.9-31.8c-15.3-7-27.9-17.1-40.6-27.5c-11.5-9.4-18.9-38.4-12.7-51.4
						c15.5-19.5,43.1,5.8,50.7,21.7c12.8,25,12,59.1,37.6,75.5c6.5-24.4,5.7-50.9,5.5-76.2c0.4-6.6-4.6-14,1-19.3
						c12.4,17.6,6.1,40.9,6.7,60.9c0,13.6-4.8,27.1-6.9,40.8c0,11.4,18.1,19.3,21.9,30.2c0.5,1.4,3.1,2.1,4.8,3.2
						c6.2-20.4,6.4-43,8.1-64.3c0.5-18.2-2-36.5-3.1-54.7c0.5-5.7-2.3-12.8,1.5-17.4c7.7,8.4,5.7,21.8,7.4,32.3
						c5.5,36.7,2.1,74.1-6.3,110.2c-1.2,5.1,6.1,7.8,9.4,11.6c4.5,5.2,9.9,9.6,15.9,15.2c3.3-17.4,5.9-34.4,9.9-51.1
						c5.7-32,3.1-64.1-0.7-96.3c1.5-6.4,7.8,1.8,8.3,6.1c19.9,137.3-43.9,129.7,15.7,173.3c3.9-19.3,11.9-41.2,11.8-61.9
						c1.1-17.6,1.9-35.4-0.8-53.2c-0.6-6.1-2.6-34.2,1.6-37c14.1,38.3,11.4,113.1-6.6,150.3c-3.3,6.6,0.1,7.5,2.6,10.3
						c4.2,4.8,8.7,9.2,13.5,13.3c2.1,1.7,4.7,7.6,8.1,2.8c11.1-33.2,16.1-68.2,14.6-103.2c0-5.1-2.5-13.3,2.4-14.3
						c5.4-1.1,4.8,7.9,5,11.5c3.7,38.2-5.6,76.1-16.9,112.4c-1.4,4.8,6.6,8.1,10.2,12.1c3.1,3.5,7.3,5.9,10.9,9
						c7,8.7,10.6,6.2,12.1-4.3c7.5-39,6.2-78.5,6.1-118c0-2.8-0.1-7.1,2.6-7.2c9.4,7,5.7,48.4,5,60.4c-1.9,25.8-1.4,52.1-11.1,76.8
						c-2.2,5.7,3.9,7.2,6.6,9.7c7.7,6.4,15.5,13.7,24.4,18.4c8.3-48.9,7.9-98.4,5.1-147.4c8.1,9.7,9.2,22.4,9.5,34.3
						c2.8,38.6-2,76.4-9.5,114.2c1.8,6.9,13,10.7,18.1,15.8c5.6,4.1,11,9.3,11.3-3.7c0.6-21.9,5.5-43.6,3.4-65.8
						c-1.7-18.9-2-37.9-3.6-56.8c-0.5-5.4-2.2-10.5,0.9-16.6c11.2,25.2,7,51.4,10.4,76.6c2.6,19.2-3.7,37.3-3.2,56
						c0.2,5.8-2.2,11.7-3.7,17.5c-1.8,7,4.9,6.8,8,9.3c4.7,3.7,10.2,6.3,15.6,9.6c0.9-53.6-2-108,0.1-161.6
						c-0.1-9.3,0.8-19.1-1.9-27.8c-1.2-3.8-9.9-5.4-15.3-7.6c-38.3-18-78.4-36.6-109.1-66.1c12.6,2.3,126.6,75.7,124.4,57.2
						c-1.7-7.8,7.1-17.6-5.1-23.3c-35.2-16.9-71.7-32.8-101.4-58.5c-21-16.7-45-35.2-59.1-57.4c0.2-0.5,4.5,0,5.8,1.2
						c17.4,16,33.8,33.3,54.1,45.5c34.4,23.6,67.8,46.4,107.9,60.6c-4.8-78.6,20.3-70.8-47.7-63.4c-24.8,0.5-32.8,12.9-50.2-11
						c-38.3-49.9-70.6-104.3-101-159.3c-40-76.8-70.1-157.7-94.2-240.8c-12-48.9-28.6-96.5-39-145.8
						c-13.6-48.6-18.1-98.8-25.3-148.6c-9.4-82.5-16.3-165.2-20.8-248.3c0.6-7.3-3-32,3.8-30.5c23.6,1.2,47.1,2.4,70.7,3.6
						c59.6,5,119.5,7.3,179.2,8.1c14.8,0,10.8,9.8,11,17.3c-0.7,36.9,4.5,73.6,5.9,110.5c3.6,34.7,2.5,72.5,12,106
						c6,12.2,16.9,21.4,24.6,32.5c20.2,29.7,47.4,54.9,80.2,69.9c4.2-11.1-1-21.5,1.8-32.7c0.6-3.9,1.1-7.8-5.2-10.1
						c-14.4-5.1-24.9-16.3-36.8-25.6c-22.7-18.1-38.8-41.7-53.6-66.1c-2.6-5.8-9.4-10.3-6.5-17.2c26.2,27.3,41.5,63.2,73.5,85.5
						c5.7,4,34.2,31.4,28.3,9.4c-1.7-25.9,11-28-15.8-42.6c-31.7-23.8-55.5-56.3-77.1-89.1c-0.9-1.4-4.2-3.2-0.9-5.1
						c2.4-1.4,4.3,0.6,5.9,2.5c27.6,32.3,50.3,73.7,88.4,94.1c0.8-12.1,3.4-24.9,1.3-36.5c-1.1-5.3-9.6-9.3-15.3-13.2
						c-19.3-12.5-63.4-67.8-62.8-90c27.5,31.9,43.7,72.4,81.3,95.2c0-10.9-1.6-21.5,0.4-31.3c2.5-11.8-2.2-18.6-10.7-24.6
						c-28.7-22.6-52.3-65.7-57.4-102.3c12.4,17.1,16,34.9,26.7,51.6c10,20.3,25.7,37.4,42.8,52c2-15.4,0.1-31.2,4.7-46.4
						c2.9-9.8-5.5-16.1-9.5-22.9c-12.6-21.3-13.5-45.5-8.5-69.4c2.1-10.6,11.6-15.5,22.9-13c29.2,4.2,8,75.3,1.8,93.8
						c-2.2,6.3,2.4,15,3.8,22.6c2.1,11.5,4.1,23.2,3.1,36.8c10.1-13.3,18.4-25.9,23.9-40.1c3.8-7,5.6-22.1,11.7-26
						c9.3,12.5-14,53.4-24,63.1c-13.4,13.8-10,28-7.4,43.1c0.5,2.9-4.7,5.8-0.8,7.2s5.1-3.9,7-6.3c14.6-19.1,31.2-36.9,41.8-58.7
						c0.8-1.6,3.5-2.3,5.3-3.4c2.9,26.5-41.3,59.6-52.2,82.5c-4,10.1,1,25.3,1.8,37c20-22.2,39.7-44.6,56-69.7
						c2.6-2.7,5.6-12.1,9.7-10.6c4.9,3.5-5,14.8-6.7,19c-16.7,25.3-37.2,48.4-57.9,70.6c-4.8,5-1.8,12.1-1.8,18.1
						c0.3,8.8,0.7,18,2.6,26.7c30.4-26.8,53-61.1,75.3-94.9c0.8-1.2,2.3-4.2,4.4-2.3c4.5,6.5-6.3,18-9,24.5
						c-18.8,29.9-42.3,56.8-68.4,80.7c-7,6.4-2.2,15.7-3,23.7c-0.6,6,0.3,12.2,0.5,18.2c4.8-3.9,10.8-7,14.3-11.9
						c12.5-17.1,29.4-29.8,42.2-47c9.8-13.1,18.9-26.9,29.3-39.7c1.2-1.4,2.3-4.3,4.5-2.7c2.6,18.6-44.5,67.6-58.7,81.9
						c-9.7,9.3-18.8,19.1-29.9,27c-5.9,4.2-2.1,13.6-1.6,20.4c0.2,2.8-2,6-0.3,7.7c2.5,2.5-2.8,8.7,3.5,7.8
						c14.6-12.9,31-26.8,43.7-42.1c18.2-20.9,34.4-43.7,50.5-66.3c13.7-7.5-4.5,17.4-6.2,20.5c-21.8,33.7-48.3,66-79.9,90.6
						c-9.4,5.4-13.2,13-11.7,22.9c1.2,7.7-3.4,15.8,2.8,22.5c33.1-29.7,71.6-56.2,98.2-92.7c4-3.8,7.6-17.7,13.4-16.6
						c3.2,1.6,0.5,5.4-0.7,8.3c-23.3,45.2-69.2,74.8-107.7,106.4c-4,2.9-7.2,6.1-5.8,12.7c2,8.2-2.1,17.4,0.7,25.6
						c17.2-9,28.8-27.2,45.1-38c13.2-9.9,24.1-21.9,35.9-33.1c16.8-14.8,28-35.5,45.4-49.6c-0.5,25.3-95.1,107.2-119.5,123.6
						c-12.6,8.9-6,20.5-6.4,30.4c-4.8,28.2,10.1,5.1,11.8,3.7c18.3-14.9,36.8-29.6,53.3-46.4c17.2-17.3,33.2-35.8,47.8-55.4
						c5.7-7.3,9.3-15.8,18-20.2c-0.6,11.3-10.5,20.7-16.3,30.1c-14.6,21.5-32.5,40-51.6,57.5c-18.9,18.2-38.8,35.3-60.2,50.6
						c-7.3,5.2-5,13.3-3.8,19.1c0.9,4.4-1.2,8.1-0.1,12.5c1.6,6.5,3.5,3.3,5.9,1.8c26.5-17.2,51.2-36.8,72.7-59.8
						c16.8-18.2,32-38,45.2-59c1.4-2.1,4.1-6.6,7.9-4.2c4.1,2.5-0.2,5.2-1.5,7.2c-30.7,51.8-74,96.5-127.5,124.8
						c-2.5,1.2-3.5,2.8-3.5,5.7c0.5,9.9-0.5,19.9,0.5,29.8c38.5-26.5,73-59.6,105.7-93.1c7.8-8.2,14-18.1,20.3-27.7
						c2.8-3.3,5.8-11.9,10.9-9.7c4.8,4.5-7.4,15.3-9.4,20.3c-7.3,11-14.8,21.9-24.2,31.3c-30.9,30.2-62.7,59.5-98.8,83.5
						c-7.8,5.5-4.2,16.7-4.1,25.4c0,2.7,2.6,5.3,0.3,8.9c49.7-38.4,97.3-79.6,135-130.2c5.1-6.7,8.8-0.6,5,5.1
						c-2.8,3.7-5.7,7.3-8.5,10.9c-35.2,45.8-78,85.1-126.7,116.1c-12.5,7.1,0.2,27.3-6.9,42.8c41.7-30.5,78.5-59.3,109.7-99.5
						c9.8-11.5,18.5-24,27.3-36.3c1.7-2.3,4.2-5.8,5.7-4.8c4.3,4.3-2.9,10.4-5,14.3c-27.1,41.1-60.4,78.6-100.6,107.5
						c-10.8,7.7-21.1,15.9-33.2,21.9c-7.1,4-0.3,27.3,0,35.3c31.7-22.9,62.7-46.5,89.8-75.1c16.9-17.8,32.5-36.6,47.8-55.6
						c2.5-3.9,6.3-6.1,10.3-8.5c3.6,9.1-5.5,13.4-9.1,19.5c-37.8,49.2-82.9,91.7-135.7,124.3c-4.5,4,3,8.5,4.7,12.7
						c8.3,20.6,18.7,4.1,25.4-0.7c34.2-23.4,59.8-56.2,86-87.8c7.3-8.6,14.6-17.1,22-25.5c2.3-2.4,3.7-5.8,7.5-5.9
						c1.2,5.6-4,8.4-6.9,12.5c-13.6,18-25.3,37-40.9,53.3c-21.6,29.3-52.5,49-80.6,71.4c-4.2,3.7,2.8,7.6,4,11.9
						c2.9,11.3,8.9,13.5,18.6,5.1c29.2-25.2,58.6-51,83.8-80.3c8.3-11.2,17.3-21.8,27.1-31.8c-12.3,40.4-80.1,96.6-114.4,122.3
						c-9.4,5.2,5.3,21.1,8.9,26.5c15.9-7.2,28.4-25.6,41.3-37.3c15-13.6,26.2-30.4,40.1-44.9c6-4.5,15.1-22.9,21.3-22.6
						c-4.1,24.6-72.3,94-95.3,109c-5.7,3.7-0.7,6,1,9.3c10.1,19.6,9.2,18.9,24.5,3.2c25.5-25.8,46.9-55,70.7-82.2
						c1.3-1,2.8-1.4,4.3,0.2c0.9,1-0.2,4.9-1.5,6.7c-21.8,29.9-45.6,58.2-71.5,84.7c-10.5,6-16.3,18.8-3.9,25.8
						c6.3,3.7,8.9-5.2,12.5-8.5c10.5-9.6,20-20.5,29.5-31.1c12.2-13.6,23.9-27.6,36-41.3c2.1-2.4,7.3-5.8,7.7-5.4
						c4,3.9-1,6.6-2.7,8.9c-2.3,2.9-4.5,5.9-6.8,8.8c-20.9,27.2-43.9,52.6-68.9,76c-1.9,1.8-0.9,2.8-0.1,4.2
						c2.7,4.9,6.2,9.5,8.1,14.7c2,5.4,3.2,3.3,6,0.8c23.1-21.1,40.6-46.9,60.8-70.4c1.7-2,3.5-5.5,6.5-2.8s-1.3,3.8-2.2,5.3
						c-17.1,27.4-37.3,52.7-60.3,75.4c-9.3,10.4,6,13.3,6.4,20.8c5.5-0.4,6.7-5.4,9.8-8.6c13.7-13.9,25.6-29.3,37-45.1
						c4-5.5,8.1-10.8,12.1-16.3c1.5-3.3,4.3-0.1,4.3,2c-13.3,28.8-35.5,51.7-56.7,75c-3.7,3.7-0.5,14.2-9,16.2
						c-11.8,2.7-18.5,11.6-26.9,18.8c-10.1,8.8-20.5,17.5-31.3,25.3c-15.5,11.2-31.1,22.6-48.3,31.1c-2,1-3.5,1.8-3.5,4.2v27.2
						c69.5-33.8,118.7-94.3,170-150.1c3.3-5.5,9.3-5,3.9,3.2c-32.4,46.5-74,85.3-117.4,121.5c-16.3,13.4-35.2,23.1-54.3,32.1
						c-2.6,1.2-2.2,3-2.2,4.8c1,60.8,0.3,121.6,4,182.2c0.1,1.5,0.1,2.9,2.1,1.1c10.8-9.3,20.6-19.6,28.3-31.4
						c4.6-7.2-2.2-14.7-3.5-22c-6.6-32.6-7.7-66-4.7-99c1.4-12.5,5.1-24.7,7.9-37c0.1-0.4,1.4-0.9,2-0.8c2.3,0.5,1.9,2.4,1.8,4
						c-1.7,19.6-3.4,39.2-5.3,58.8c-2,20,1,39.7,4.9,59.2c1.2,8.8-0.8,18.1,4.3,26.2c7.8-5.7,13.9-14.6,19-22.6
						c1.5-2.8-2-8.3-3-12.7c-9.5-38-6.6-77.9,1.6-115.8c0.6-1.8-3.1-2.9-0.6-4.7c1.8-1.2,2.8-9.3,5.7-1.3c-0.3,40.8-10,84.1,2.8,124
						c16.2-17.6,29.9-25.5,19-51.1c-5.2-18.9-2.1-38.3-2.4-57.6c1-12.3,2.5-24.5,4.1-36.7c2.9-6.7,7.6-1.5,6.5,3.3
						c-1.5,18.6-1.6,37.2-3.1,55.7c-1.3,15.6,5,29.6,4.7,44.6c0,0.7,1.4,2.2,1.8,2.1c1.3-0.4,2.8-1.1,3.4-2.1
						c5.5-9.1,12.2-17.1,19.3-25c3.3-3.6-2.5-6.9-2.8-10.9c-1.1-15.2-5.3-30.7-3.2-45.4c2.3-16,0.4-32.8,7.1-48.2
						c1.1-4.7,7.1-3.3,6.3,1.3c-6.3,30.5-6.6,61.9-1,92.5c8.2-11.7,17.2-23.1,24.2-35.6c2.4-4.4-3.1-11-3.7-17.3
						c-2-19.9-2.8-39.6,2.3-59.1c1-4.1-2.7-12.2,4.4-11.2c2.1,0.1,3.7,1.8,3.6,3.9c0,0,0,0,0,0.1c-5.4,25.6-4.6,49.5-0.7,78.1
						c5.2-16.3,21.4-22.6,17.7-42.5c-2.5-13.3-2.5-27-0.9-40.6c1.3-5.5,3.8-39,10.8-36.4c3,0.8,1.8,3.2,1.5,5.3
						c-2.5,23.5-7.9,48.6-2.1,71.8c7.6-8.3,13-18.8,18.9-28.5c-1.4-20.8,3.1-42.1,16.6-59.2c8.5-11.8,25.3-24.6,38.7-14.1
						c11.5,12.9-1,35.2-9.6,45.8c-7.4,8.2-16.2,17.7-26.9,21.5c-9.8,2.9-9.7,12.3-13.6,19c-1.5,2.6-2.5,6.2-1.9,9
						c1,4.6-9.6,9.4-0.4,12.7c28.1-5.1,54.6-23.4,79.6-37.3c3.3-1.9,6.7-3.8,10-5.7c1.2-0.7,2.2-2.9,3.4-0.8
						c3.1,5.5-4.9,8.4-8.3,11.4c-27.1,19.5-57.3,34.9-90.1,42.6c-9.4,2.2-10,14.5-14.4,22.4c-2,4.2-4.1,8.3-6.2,12.4
						c26.4-3.8,52.4-14.7,76.5-26.3c14.1-7.8,27.5-16.9,41.1-25.5c3-1.9,6.5-4,8.6-0.9c1.7,2.4-2.4,4.4-4.4,5.9
						c-36.2,29.2-79.7,46.7-125.3,55.8c-3.5,0.7-5.7,8.4-8.3,13c-4.5,7.9-8.9,15.8-13,23.1c56.1-2.1,103.2-36.9,149.3-65.5
						c0.7-0.3,5.4,2.4,3.7,4.3c-37.2,31.6-79.2,54-126.2,66.3c-5.4,2.1-12,3.3-17.7,2.4c-11.2-1.6-16.6,3.8-21.3,12.7
						c-4.9,9.3-11,18-17.1,27.9c58.1-3.9,116.5-19.9,162.1-57C918.5,1417.4,931.3,1402.7,936.9,1408z M834.3,1295.5
						c21.9-7.8,40.2-26.7,44.8-50.1c2.1-9.1-8.4-9.6-14.1-7.1C843,1249.2,837.3,1273.3,834.3,1295.5L834.3,1295.5z M282.7,1321.3
						c-6.7-21.2-15.4-59.6-43.6-60.8c-10.5,6.2-5.4,20-1.4,28.3C237.5,1297.1,283.1,1339.8,282.7,1321.3L282.7,1321.3z M602.5,389
						c2.9-10.5,6.5-20.5,8.1-30.9c0.4-10.8,6.5-40.5-5.9-44.9c-5.2-2-10.9,0.6-12.9,5.8c-0.1,0.4-0.3,0.8-0.4,1.2
						C586.3,344.3,586.5,367.8,602.5,389z M612.9,1025.2c0.9,1.8,2,3.4,3.2,5c0-204.4,7.2-410.3-10.9-614.1
						c-10.6,119.7-9.1,240.5-9.9,360.8c-0.8,64.6,1.6,129.2-2.4,193.8C591.3,991.6,605.4,1007.2,612.9,1025.2L612.9,1025.2z
						 M587.3,891.3c-10.1-6.7-21.5-11.5-32.2-17.3c-2.6-1.4-5-1.2-3.8,1.8c7.4,26.9,7.6,37.5,36.6,49.1
						C587.9,918.3,592,893.4,587.3,891.3z M586.9,955.6c3.3-17.3,0.3-29.6-19-33.3c4.3,15.5,8.8,30,18.1,43
						C589.3,962.3,586,958.8,586.9,955.6z M580.5,851.2c-15.9-6.6-29.7-16.9-44.8-27.3c14.4,44.9,3.2,31.5,44.4,56.8
						c8.2,4.5,9.2,3.8,8.7,2.5C584.9,872.9,597.9,858.5,580.5,851.2z M580.2,801.2c-21.6-9.5-40.9-23.8-60-41.3
						c2.6,10.2,3.7,19.1,7.1,27c4.4,10.5,0.7,23.9,13.7,31.8c15.2,9.2,29.3,20.1,44.8,28.8c3.5,2,3,0.5,3.1-1.8
						c0.2-7.1,1.3-14.4,0.3-21.4C588.1,816.3,593.4,807,580.2,801.2z M589.8,755.8c-32.3-11.4-56.7-32.3-82.4-52.5
						c12.8,63.9,25.4,55.4,73.6,93.3c2.3-3.5,8.4,10.4,8.7-1.7C590.1,781.2,589.8,767.5,589.8,755.8z M590.4,749.3
						c-4.3-8.8,2.3-40.5-4.2-42.5c-34-15.8-63.5-39-90.3-64.3c4.2,20.6,3.7,44.9,22.2,59.2C542,717.7,562.3,740.5,590.4,749.3z
						 M481.7,558c1.6,10.2,2.9,19,4.4,27.8c2.3,13.9,1.2,29.9,8,41.2c8.4,13.9,22.4,25.1,35.6,35.3c18.6,12.9,37.4,27.5,58.2,36.5
						c1.3-6.4,2.7-14,1.4-20.2c-2.1-7.1,5-17.3-4.7-21.1C539.1,637.8,508.2,599.5,481.7,558z M651.1,1264
						c19.8-1.7,39.7-2.4,59.5-4.5c5.8-0.6,12.8,2.3,17.5-2.6c4.2-4.4-2.3-6.9-3.4-10.5c-0.4-1.5-2.5-2.4-3.4-3.9
						c-53.6-90.2-111-178.6-150.7-276c-28-62-43.6-127.7-61-193.2C493,696.4,478.2,619,467.3,541.1c-6.5-68.8-11-138.2-11.8-207.3
						c0.1-1.1,3-6.3-2.4-6.7c-9.1-0.7-18.1-1.7-27.2-1.9c-37.7,0.4-75.3-4-113.1-4c-34.2-1.6-68.9,0.1-102.8-4.1
						c-1.4,0-3-0.4-2.8,2.2c11.8,117.1,21.2,234.5,38.2,351c37.3,161.2,77.2,324.8,159.9,469.4c23,44.3,53.4,84.5,80.5,126.1
						c8.8,15.6,19.7,15,32.4,12.9C562.3,1271.8,606.8,1269.3,651.1,1264z M641.2,1277c-12.5-0.8-19,3.5-16.2,17.1
						c0.5,2.4,0,3.4,2.8,1.3c8.8-6.7,18-13,27-19.4C650.3,1277.9,645.7,1277.3,641.2,1277z M626.1,1336.4
						c28.6-15.4,58.1-39.1,83.4-61.5c1.5-1.3,1.8-3.4-0.8-3.7c-28.4,1-39.8-0.9-61.8,20c-9.3,8-28.6,9.7-22.3,26.7
						C625.1,1326.1,624.1,1331.9,626.1,1336.4L626.1,1336.4z M931,577.2c-12.6,0.1-9.1,24.9,4.4,24.5c9,0.4,10.8-6.8,10.7-13.6
						C946.1,581.5,942.9,576.4,931,577.2z M355.6,863.1c-28.4-21.6,11-53.8,33.3-62.4c6.5-2.8,5.1-8.9,3.6-12.6
						c-8.4-21.7-15.6-44-29-63.5c-1.8-2.6-2.7-6.9,0.3-9.6c3.9-5.4,14.8,12.6,15.8,15.7c4.4,14.3,13.2,4.7,18.5,2.8
						c5.3-1.7,31.3-9.1,31.6-1.6c-0.5,3.8-3.5,6-6.7,7c-8.9,2.7-17.8,5.1-26.8,7.6c-13.6,1.1,12.1,32.1,9.4,45
						c0,3.2,6.5,1.5,9.6,0.3c18.3-5.5,39.9,3.5,38.6,23c-3.1,16.6-14,30.5-24.1,44.7c-5.2,6.5-17.7,30.7-27.5,24.3
						c-5.4-19.4,70.1-82.9,18.6-78.2c-20,0.3-13.9,17-17.4,26.9C396.4,852.2,376.8,869.9,355.6,863.1z M393,819.1
						c2.3-12.5-27.8,16.3-30.3,19s-4.2,6-1.6,9.6c0.9,1.2,2.3,3,3.4,2.9C378.9,849.1,392.6,834,393,819.1z M942.9,291.5
						c-12-1.1-14.5,23.4-1.5,23.4C956,316.3,956.6,291.6,942.9,291.5z M321.4,531.2c-14.5,23.9-49.5,20.4-40-12.7
						c6.1-16.7,10.9-33.7,25-46.1c1.9-1.6,1.3-7.2,0.3-10.5c-2.3-7.6-2.3-15.4-1.5-22.9c1-10.1-5-8-10-6.4
						c-9.7,4.5-35.4-6.8-29.8-19.1c2.9-2.6,7-1.3,9,0.2c7.5,5.4,15.7,4.1,23.4,3c11.7-1.8,5.3-13.4,8.9-19.9
						c2.1-3.9,1.1-9.4,1.3-14.2c0.3-5.8-0.1-11-8.4-9.7c-1.3,0.2-4.2-1.9-4.3-3c-1.5-6.9,0.7-14,9.1-9c17.5,3.7,24.8,19.2,17.5,36.1
						c-1.2,2.7-0.6,6.1-0.9,8.3c20.1-4.5,37.9-18.6,58.7-12.8c4.9,1.6,10.2,2.5,9.1,8.4c-1.3,6.7-9.1,5.6-13.1,5.6
						c-15.9,0.7-30.5,6.5-44.8,12.2c-13.6,2.8-11.5,13-10,21.9c1.1,6.7-2.1,19.8,2.4,19c12.4-2.1,26.1-6.8,27.8-23.7
						c0.8-4,5.1-17.5,11.1-13.2c3.3,2.3,3.3,5,2.5,8.3c-6.1,20.1-6.7,24.2,13.5,23.5c56.6,16.5,12.7,74.8-9.3,102.9
						c-4.2,5.8-8.2,13.6-7.9,20.2c0.3,7.4,10.3,6.5,16,9.3c13.5,9.1-19.3,16.4-27.6,3.3c-18.8-26.3,26.7-58.3,34.3-82.7
						c15.6-25.7,0.5-40.7-27.3-39.8c-6.7,0.3-6.4,9.8-9.1,15.2c-3.9,7.9-6.9,16.3-10.7,24.3c-4.2,8.7,5.9,12.6,6.1,19.8
						c0.1,3.2,5.5,6.7,0.5,9.5C331.3,541.3,332.6,516.1,321.4,531.2z M327.6,492.6c1.9-6.2,8.7-15.3,6.6-19.3
						C321.6,474.1,326.3,484,327.6,492.6L327.6,492.6z M316.9,501.5c-1.6-6.3-3.1-18.4-8.8-7.9c-6.6,11-12,22.7-12.8,35.9
						C295.9,543.4,320.8,512.4,316.9,501.5z M209.5,1372c-13.8,8.4-28.1,15.4-44,19.3c-3.6,0.9-11.2,0.2-10.2,6.4
						c1.1,6.8,6.8,1.8,10.1,1.2c19.1-4.2,39.5-11.5,51.9-27.2l-3.7-1.1C212.1,1370.9,210.8,1371.4,209.5,1372z M160.4,1439.7
						c-5.9,1.8-4,8.3,2.2,6.7c15.3-6.7,56-14.3,61.8-29.5c-1.1-2.9-2.7-1.8-4.6-0.9C201.2,1426.7,180.4,1432.2,160.4,1439.7
						L160.4,1439.7z M237.1,1568.6c10.1-4.2,19-11.4,30-18.3c-17.3,32-66.6,38.1-97.8,49.8c-3.9,1.5-8.5,2.2-12.1,0
						c-5-2.8-7.9-8.3-7.3-13.9c1.3-16.2,1.3-32.5-0.1-48.7c-1.3-43.2-2-86.6-3.6-129.9c-2.4-78.7-1.9-157.5-7.1-236.1
						c-0.6-15.4,1.3-31.2-0.8-46.3c-2.5-17.3,0.9-34.6-2.9-51.9c-2.2-10-0.2-20.9-0.5-31.4c-2.4-67.5-0.9-134.9-8-202.1
						c-0.1-1-1-2-1.5-2.9c-2.2-3.5,2.9-8.9-2.8-11.6c-11.1,86.7-8.5,174.1-10.4,261.3c-3.2,125.6,4.4,251.2,3.1,376.8
						c2.3,43.3,2.8,86.8,3,130.2c0,2.7-1.5,5.4-2.3,8.1c-7.1-5.6-5.3-19-5-27.2c2.1-15.4-11.7-14.8-19.6-19
						c-34.2-17.9-65-41.9-90.7-70.7c-1.6-2-4.9-2.7-3.7-6.2c2.6,1.2,5.8,1.9,8,3.7c32,26.7,63.4,57.4,102.8,72.7
						c2.1-8.3,0.3-17,1.3-25.3c2.1-15.8-12.3-15.4-20.2-20.7c-27.8-20.3-76.1-45.3-86.7-78.7c31.2,31.1,66.3,57.7,104,80.6
						c3.3,2.2,2.7-0.9,2.7-2.4c0.1-10.8,0.7-21.7-0.2-32.5c-0.7-8.4-9.8-9-15.2-12.5C60.7,1440.6,22,1422-1.8,1389
						c-5.5-6.5,1.5-11.4,5.8-3.8c28.4,32.6,67.7,54.7,103.3,77.5c0-12.6,1.2-25.6-0.7-38.1c-34-22.7-74.1-44.8-103.1-75.9
						c-3.7-2.9-12.7-13.6-3.5-13c25.5,23.4,51.8,46.9,82.4,64c8.9,5.1,16.8,12,25.6,18.3c-3-24.6,7-38.6-20.5-51.5
						C63.8,1355,1.7,1307-3.4,1281.8c1.2,0.3,2.7,0.2,3.4,1c9.7,10.2,18.9,21,29.1,30.7c23.2,21.3,49.5,40.4,77.7,54.7
						c0.5-29.2,7-38.2-19.9-56.6c-34.7-25.5-72.2-50-93.6-88.9c12.2,5.9,19.9,18.4,28.4,26c27.6,23.2,54.3,48.6,84.7,67.8
						c-1.4-13.2,5.3-42.9-8.8-49.4c-32-16.6-89.1-57.9-96.5-94.9c28.2,39.2,63.3,66.9,103.3,92.3c1.3-8.9-2-19-0.3-27.4
						c2.8-18.8-11.8-19.8-22-26.4c-27.2-18.6-76.6-55.7-83.9-88c14.5,12.7,25.5,28.7,39,42.4c12.5,12.9,27.6,22.2,41.2,33.4
						c2.8,1.7,25.7,19.8,24.6,12.2c0.8-8.8-1.7-17.8,1.4-26.6c0.5-1.6-4.5-4.5-7.1-6.7c-19.6-17-37-36.6-56.7-53.4
						c-15-12.8-23.9-30.2-36.7-44.7c-1.4-2.1-2.5-4.8-0.5-6.8c2.8-2.7,3.3,1.3,4.4,2.5c29.2,35,61,67.9,95.1,98.2
						c0-9.2-1.8-18.2,0.3-26.2c5.4-20.5-6.5-30-21-39.8c-9.2-6.2-16.9-14.7-24.8-22.6c-6.1-7.5-44.5-39.2-39.4-46.7
						c2.5-2.3,4.6-0.5,6.4,1.3c6.8,5,82.6,94.3,80.2,66.8c-3.8-12.5,8.8-36.9-9.3-42.2c-13.6-4.4-23-16.4-33.9-25.4
						c-14.9-12.3-29.1-25.7-43.2-39c-3.4-4-1.7-13.2,4.5-6c27.9,24.1,51.5,49.7,83,69.8c-4.4-14,5.8-29.1-6.6-40.9
						c-13.6-15.7-70-57-67.8-75.1c3.2,1.6,7.4,2.4,9.3,4.9c18.3,24,41.1,44.9,63.9,63.9c2.2-12.5,1.5-24.9,0.7-37.4
						c-0.4-8.6-7.2-11-11.8-14.2c-22.3-19-44.6-38.2-63-61c-1.7-2.2-4.8-4.9-2.2-7.4c3-3.2,4.3,0.9,6,2.5
						c24,23.7,46.3,45.7,72.7,67.6c0-17.9,0.5-34.7-0.5-51.3c-25.2-15.8-51-37.6-72.5-59.3c-4.8-3.5-5.4-8.8-4.6-13.8
						c24,19.9,47,40.9,70.7,61.1c2,1.8,5,3.8,7.6,2c4.6-10.4-1.3-23.4,2.9-34.3c0.2-0.6-0.8-2.3-1.6-2.6C92,860.7,80.8,847,69.4,834
						c-6.8-8-32.4-35.5-28.5-45c1.8-1.6,2.9,0.1,3.7,1.1c19.8,25.4,37.3,53.8,65.7,70.8c4.7-11.5,1.7-23.8,4.6-35.5
						c1.5-6-5.7-8-8.6-10.9c-12.1-12.5-22.4-26.4-32.4-40.3c-5.3-9.4-17.6-18-13.7-29.8c8.7,5.1,12.6,15.3,19,22.7
						c9.4,12.9,18.7,25.8,28.2,38.6c1.7,2.3,5.3,5.2,7.4,4.8c4-0.8,0.5-4,0.6-6.3c4.2-34.3-1.8-25.6-15.3-51.6
						c-25.9-67.5,33.6-106.9,40.8-63.8c3.2,19.1,2.8,38.6-3.1,57.4c-2.4,9.6-5.5,18.9-12.2,26.8c-3.6,4.3-0.7,8,0.1,11
						c2.1,7.9,0.1,16,2.2,23.7c16.8-11.1,25.2-30.9,33.2-48.5c3.5-6.2,3.2-15.8,11.3-17.9c1.7,23.3-18.2,53-35.4,68.3
						c-10,8.8-4.7,18.2-5,27.6c1.9,2.6,1.2,11.1,2.3,11.7c10.3-0.3,39.1-44.8,45.9-55.1c2.3-3.6,3.4-11.3,9-8.2
						c3.4,1.9-0.5,9.2-2.7,12.7c-14,22.4-29.2,43.7-49.7,61.1c-5.9,5.6-0.2,21.2,1,29.6c22.2-16.8,39.4-37.3,49.6-63
						c0.7-1.8,2.8-5.4,6-3.1c6.1,5-1.6,10.6-2.6,15.7c-10.7,20.1-28.1,43.9-47.6,55.8c-10.1,5.3-2.8,14.4-4.8,21.5
						c-1,3.8,0.6,8.4,1.1,13c18.5-16.6,36.2-33.8,49.4-55c3.9-5,6.3-12.7,12.9-14.6c3.4,18.7-44.2,66.7-60.8,76.8
						c-3.1,2.1-1.8,5.7-1.1,8.8c0.4,2.1,0.4,4.3,1.3,6.2c1.7,4-4.7,8.8-0.6,10.5c2.4,1,7.6-3.8,11-6.6
						c17.5-14.5,33.8-30.3,47.2-48.8c1.8-2.4,2.9-5.3,6.5-5.2c-1,23.2-38,51.9-55.9,65.5c-7.7,3.3-16.9,43.8-0.1,28.9
						c27-17.9,52-39.9,68.4-68.1c1.2-1.6,3.6-2.3,5.6-3.3c-3.5,31.7-51.8,69.6-79.9,82.3c-3.1,1.1-3.4,29.6-0.5,30.2
						c32.7-13.3,58.8-40.8,83.5-65.7c0.4-4.2,5.9-8.4,9.4-6.5c3.3,1.7-1,4-2,5.6c-12.6,20-29.4,37-49.3,49.8
						c-10,6.4-18.9,15.2-29.8,20.5c-4,1.9-10.6,2.8-11.1,6.3c-1.3,9.6-1.3,19.3,0,28.9c0.4,3.2,5-0.3,6.9-1.5
						c22.1-13.6,44.8-26.5,63.6-44.8c6.1-5.9,12-11.9,18.3-17.5c2.1-1.8,4.8-7.5,8.1-3.5c2.9,3.6-1.6,8-4.3,10.8
						c-14.4,15-29.3,29.6-47,40.6c-13.4,8.3-27.2,16.1-41.2,23.4c-3.6,1.9-4.9,4.2-4.8,7.3c0.3,7,1.3,13.9,1.9,20.9
						c0.3,2.9,1.9,2.2,3.4,1.3c24.2-13.8,46.2-30.7,68.3-47.5c11.6-8.8,18.8-21.4,29.9-30.4c1.4-1.1,2.4-2.1,3.6-0.7
						c1.4,5.1-4.1,10.5-6.3,14.7c-9.8,14.3-23.9,24.4-37.8,34.6c-17.6,11.6-34.4,26.4-53.5,35.1c-8.2,1.8-7.8,7.3-7.5,13.1
						c0.5,7.9,0.4,15.9,2.2,23.6c1.4,6.2,5.9,0.1,7.1-0.6c34.1-18.7,66.6-41,90.5-72.2c1.8-2.4,3.9-5.5,6.9-3.4
						c3.4,2.3-0.4,4.6-1.6,6.6c-23.2,37.7-64.8,57-100.5,80.5c-6.5,4.3-3.6,14.6-1.6,21c2.9,9.5,8.4,8.5,21,1.2
						c32-17.6,64-36.3,87.4-65.1c2.6-1.7,6.8-10.4,9.4-8.6c2.1,1.2,1.5,4.7,0,7.2c-22.1,34.6-59.1,57.7-96.2,73.8
						c-19.8,8-22.6,13.8-20.5,44c43.5-19.1,89.3-37.9,117.9-77.7c1.4-2.1,3.4-5.7,6.4-3.8c3.6,2.3-0.1,5-1.3,7.2
						c-25.9,41.3-74.3,61.8-118.3,78.6c-9.9,2.8-2.6,31.9,5.7,27.5c4.5-1.4,9.5-7.1,12.9-7.8c32.9-11.3,64.7-31,91.1-54.1
						c4.1-1.8,12.5-11.6,15.2-8.3c2.4,4.3-5,8.2-8.4,11.8c-13.9,14.4-30.3,25.3-47.4,35.1c-7.8,4.4-15.7,8.6-23.6,12.8
						c-14.7,8.7-33.8,10.4-48.6,18.4c0.6,13.3-5.3,38.3,15.7,27.1c11.7-3.3,22.9-8.6,34.3-13.2c2.7-0.5,6.3-6.9,7.9-4.6
						c0.9,15.2-41.6,25.5-53.9,28.7c-2.1,0.5-2.4,0.3-2.3,3c0.7,10.2-0.9,20.5,0,30.6c11.3-6.5,24.3-9.7,36-15.5
						c8.3-4.3,17.1-8.9,26.2-11.4c-8.5,17.3-33.8,22.6-50.6,29.2c-6.6,2.2-11.9,3-11.5,12.7c1,26.1,0.2,52.2,2.2,78.3
						c0.7,10.4,0.6,20.8-0.4,31.2c-0.9,10.8,5.7,6.9,9.9,5.2c16.9-6.1,33-16.6,50.1-21c-4.6,17.4-40.4,21.5-55.1,29.1
						c-9.9,4.2-2.3,13.3-3.9,20c-0.9,4.5,0,9.7,0.3,14.4c29.7-7.9,55.9-26.9,83.9-37.4c-0.9,13.6-67.1,41.7-81.4,43.9
						c-3,6.1-0.1,15.3-1.4,22.1c-1.2,11.6,5,8.1,10.8,5.8c16.8-6.8,33.8-12.9,50.2-20.6c8.4-2.1,29.8-22.5,34.4-19.1
						c-14.3,22.4-45.2,30.9-68.9,41.5c-8.1,3.5-17,5.2-24.8,9c-2.3,2-0.3,12.6,0.4,16.6c-2.4,13.2,4.5,11.2,12.6,8.1
						C193.4,1584.7,215.6,1577.4,237.1,1568.6L237.1,1568.6z M124.4,761.7c4.8-19.1,12-35.8,8.8-57c-2-2.7,0.6-8.6-0.3-14
						c-1.6-9-5.9-13-15.2-8.1c-14.1,7.5-15.2,21.7-16.3,34.7c-2.1,18.8,5.5,35.9,17.4,50.1C120.7,765.6,123.9,764,124.4,761.7z
						 M332.4,708.7c-7.9-2.5-10-10.9-11.2-17.8c-22.8-76.3,135.2-99.3,99-9.2c-6.3,11.3-11.7,23.7-24.5,30.1
						c-7.9,4.5-13.3-2.1-7.2-8.6c6.5-9.5,13.5-18.7,19.4-28.6c8.7-14.6-2.5-33.6-20.3-33.6c-15-3.2-10.8,11.3-14.4,18.2
						C365.2,672.1,351.2,714.3,332.4,708.7L332.4,708.7z M343,689.6c9.1-14.4,19.3-29.7,23.6-46.1c-22.1,4.3-39.6,26.7-28.6,49.3
						C339.6,691.8,341.9,691.1,343,689.6z M57.5,129.2c11.1,1.2,9.7-21.2-2.4-18.2C43,111.8,44,131.1,57.5,129.2z M276.1,192.2
						c-0.6,18.5,21.4,19.1,23.1,1.3c-0.3-10.7-8.1-12.3-15-13C276.3,179.8,276.4,186.9,276.1,192.2z M245.3,128.8
						c-9.7-0.4-7.3,6.8-8.4,10.7c0,9.8,2.3,14,7.2,13.4c7-0.9,14.4-3,14.6-11.4C259,133.5,254,129.2,245.3,128.8z M107.3,260
						c-0.8-10.3-19.6-3.8-18.1,5.8C88,283.6,108.4,275.9,107.3,260z M272.2,36.8c7.6-0.3,6.7-7.1,6.8-12.3s-3.1-7.8-8.3-7.5
						C259.6,17.4,260.9,38.7,272.2,36.8z M242,89c18.7,2.8,20-24.1,2.4-23.6C232,64,229.5,87.1,242,89z M310.4,122.6
						c13.6-1,9.5-24.2-4.3-22.4c-8.1,0.5-7.7,6.9-8.3,8.4C295.1,123.8,305.1,122.3,310.4,122.6L310.4,122.6z M378.4,45.1
						c7.4,1.9,8.3-4.9,8.2-9.3c0-5.2-1.9-12.5-8.5-12.4C366.2,23.7,361.3,47.1,378.4,45.1L378.4,45.1z M320.1,66.3
						c7.9-0.1,8.7-23.2-3.8-20.1c-6.4,0.8-10.2,4.8-10.5,11.4C305.2,68.5,315.2,64.9,320.1,66.3z M349.2,248.6
						c-2.3,15.4,21.1,17.4,19.9,1C371.7,235.1,349,235.8,349.2,248.6z M341.6,187.4c10.5,0.2,15-4.3,15.7-10.9
						c0.4-3.7,2.5-10.3-5.3-11.6C335.7,160.1,328.9,184.8,341.6,187.4z M277.8,282.4c13.3-1.5,8-26.4-3.4-24.4
						c-12.1,0.3-9.8,7.9-9.9,12.3C264.2,278.5,271.7,282.6,277.8,282.4L277.8,282.4z M122,35.1c10.5,1.9,7.8-15.9,1-16.2
						c-6.5,0.1-10.4,0.5-10,5.9C113.3,30.3,115.2,34.9,122,35.1z M139,217.1c12.3,1.1,14.5-19.1,0.8-18.3
						C129.9,197.3,127.7,217.8,139,217.1L139,217.1z M102.5,465.7c-0.5-5.6-0.6-11.8-8.9-10.8c-9.3-0.7-11.9,5.9-12,12.5
						C81.2,480.2,104.2,479.9,102.5,465.7z M142.3,83c9,1.4,10.5-4.6,11.1-11.3c0.8-8.8-7.2-8.3-11.3-8.3c-8.1,0-8.3,8.2-8.9,13.9
						C132.6,83.1,137.7,83.6,142.3,83z M86.4,584.9c-13-2.7-16.3,23.1-2.8,22.1C96,608.2,101,583.7,86.4,584.9z M178,258.7
						c12.1,2,12.7-21.2-0.4-19.9c-5.8,0.2-9.4,1.6-8.6,8.4C167.8,254.2,172.4,258.1,178,258.7z M191.9,45.1c7.8-1,4.3-7.5,6.4-11
						c1.4-13.1-16-15.6-17.4-2.5C179.8,39.8,180.7,46.5,191.9,45.1z M147.2,459.1c-0.1,5,1.9,11.8,8,11.6c5.8-0.2,14.1-1,12-10.4
						C169.9,444.2,147.2,444.7,147.2,459.1L147.2,459.1z M179.5,138.4c13.5,0.5,13.9-25.2,0.1-23.1
						C166.3,117.3,165.2,139.8,179.5,138.4L179.5,138.4z M189.4,188.9c0.1,3.9,0,11.3,6.5,10.4c8.7-0.1,12.3-4.1,13.1-10.6
						C210.6,173.1,188.7,175.2,189.4,188.9L189.4,188.9z"/>
				</g>
			</g>
		</g>
	</g>
</g>
<g>
	<g id="Layer_1_2_">
		<g transform="matrix( 1, 0, 0, 1, 0,0) ">
			<g>
				<g id="Layer0_0_FILL_1_">
					<path d="M52,1548v15l-37,37h946l-37-37v-15H52 M52,52V37.7L14.3,0H0v1600h15l37-37v-15V52 M924,52V37.7L961.7,0H14.3L52,37.7
						V52H924 M976,0h-14.3L924,37.7V52v1496v15l37,37h15V0z"/>
				</g>
			</g>
			<g>
				<path id="Layer0_0_1_STROKES_1_" class="st5" d="M961,1600h15V0h-14.3L924,37.7V52v1496v15L961,1600H15H0V0h14.3h947.4 M52,52
					V37.7L14.3,0 M15,1600l37-37v-15V52h872 M924,1548H52"/>
			</g>
		</g>
	</g>
</g>
</svg>
