<svg xmlns="http://www.w3.org/2000/svg" xmlns:xlink="http://www.w3.org/1999/xlink" viewBox="0 0 976 1600">
<style type="text/css">
	.st0{fill:#FFFFFF;}
	.st1{clip-path:url(#SVGID_2_);}
	.st2{fill:#333333;}
	.st3{fill:#FFEB5C;}
	.st4{fill:none;stroke:#333333;stroke-width:2;stroke-linecap:square;stroke-miterlimit:3;}
</style>
<g id="Paper_Backing">
	<path class="st0" d="M960,22v1556c0,3.3-2.7,6-6,6H22c-3.3,0-6-2.7-6-6V22c0-3.3,2.7-6,6-6h932C957.3,16,960,18.7,960,22z"/>
</g>
<g id="Wikipedia_Cropped">
	<g>
		<g>
			<defs>
				<path id="SVGID_1_" d="M960,22v1556c0,3.3-2.7,6-6,6H22c-3.3,0-6-2.7-6-6V22c0-3.3,2.7-6,6-6h932C957.3,16,960,18.7,960,22z"/>
			</defs>
			<clipPath id="SVGID_2_">
				<use xlink:href="#SVGID_1_"  style="overflow:visible;"/>
			</clipPath>
			<g class="st1">
				<path class="st2" d="M900.6,1604c-13.9-9,29.7-29.8,33.2-40.7c15.2-15.8,26.6-38.5,42.2-51.8c9.1-3.3,1.7,86.1,4,88.4
					C982.7,1609.2,903.3,1601.7,900.6,1604z M176.2,1604c-8.2-1.7-1.8-12-1.6-17.2c1-6.8-2.8-13.8-1.3-21c6.2-11-2.5-18.6-0.3-36
					c1.2-24,0-47.4,0-71.6c0-25-1.4-48.9-3.2-75.3c-4.8-20.7,18.8-32.7,30.4-47.9c16.4-13.6,24.6-37.5,41.7-50.9
					c10.3-11,17.3-30.8,30.1-39.5c15.8-33.2,40.1-66.4,56.6-99.1c7.2-19.6,22.6-34.6,27.1-53.8c5.8-13.2,14.5-25.6,20-38.2
					c-1.2-7.8,3.4-14.3,6.3-18.4c6.6-6.7,0.4-23.3-8.4-12.6c-4,7-6,14.6-10.9,21.2c-4.3,3.1-7.8,6.4-7.4,12.2
					c-53.9,90.9-112.3,176.5-181.5,258.7c-11.5,6.6-5.1-14.6-7.2-19.4c-5.3-47.6-1.6-93-2.4-141c-4-95.2-8-189.4-10.8-281.9
					c-2.1-7.9-1-14.9-2.7-23.4c-3.8-8,4.8-17.5,1-24.5c-7-12.8-0.7-30.4-4.7-43.8c0-47.2-4.3-97.1-8.1-142.9
					c-0.6-3.8-1.4-8.9,0.9-13c0.1-10.8-8.3-19.7-1.7-32.7c6.5-7.4-3-11.4-3-18c-3.7-13.3,4.9-40.2-10.1-44.7
					c-10.6,1.5-4.6,16.9-6.2,24.2c-5.9,17.9,3.3,38.5-0.8,58.2c-1,27.4-2.8,52.2-1,80.5c0.4,5.2,0.4,8.5-1.9,11
					c-6.7,8.6,7.4,16.2,1.4,28.1c-4.3,129.7-3,264.5-5.6,398.9c-1.4,127.4,3.2,250,1.9,379.3c-3.1,19.3,7.9,42.2-1,61.4
					c-2.2,2.5-2,6.3,0.5,8.5c0,0,0,0,0.1,0.1c5.7,4.1,4.6,14,7.4,20.6c0.6,10.5-125.2,4.3-123.9,0c-0.1-185.2,0.3-374.5,0-558.1
					c0.1-80.1,0.3-165,0-244.6c0.2-59.8-2.5-140.5,11.2-198.2C21.8,525.8,44,448,94.2,391.9c9.3-7.4,14.5,31.9,26.3,14
					c14.1-73.9,78.6,93.9,87.2,113c46.9,127.5,74.3,262.9,94.1,396.5c1.8,18.9,8,18.4,24.4,14c21.9-5.3,44.9-5.6,67.4-4.3
					c11,6.7-7.5,35.8,8.5,40.4c43.4-43.5,30.8-32.9,38.5,26.2c5.4,45.8,3.4,93.7,1.9,139.8c2.1,28.9-12.6,64.5-3.8,90.3
					c12.8-0.2,15.8-22.9,23.8-30.1c8.6-12,17.7-26.3,27-35.8c10.7-3.7,45.9,55.9,36.6,3.4c-19.9-64.4,133.2,47.1,146.8,62.8
					c12.6,11.9,28,25.3,40.7,37.6c18.4,0.6,12-68.7,20.7-83.5c22.5-127.8,51.7-345,130.2-444.9c16.9-2.1,8.2,55.4,32.1-2.9
					c41.3,0.8,71.7,133.5,78.3,175c10.2,42.6,3.6,118.2,4.6,162c1.6,75.6,0.7,170.3,0.1,245.3c-4.3,25.2,15.8,161.6-18.4,174.6
					c-11,9.2-78.4,101.4-71.3,52.7c-0.1-68.9-3.8-138.1,1.1-206.3c-2.2-21.3-3.8-48.4-2.3-68.6c0-14,1.6-31-1.3-45.5
					c2-3.9,8.5-6.8,4.9-12.1c-10-20.3-1.6-42.1-5.1-62.5c0.5-10.4-4.9-20.9-0.5-32c3.2-4.3-2.6-9.1-1.6-13.6
					c2.3-14.3-7.3-26.9-0.6-40.4c1.1-14.8-4.3-33.9,0.1-49.7c-0.8-10-1.2-21.4-0.2-32.3c-2.9-7,4.9-21.3,0.8-29.8
					c-0.9-15.5,7.9-96.1-15.7-56.9c-6.4,8.2,7,16,1.5,27c-3.8,8.2,1.3,16.4-3.6,23.1c-2.1,2.3-2.1,5.9,0.1,8.2
					c3,12.5-2.2,26.9-0.4,40.7c-6.6,16.4,0.2,36.8-6,54c-5.6,6.8,4.9,12.4-0.1,21.3c-4.4,9.2,2.3,20.2-3.8,26.2
					c1.7,32.6,2.3,69.1,1.6,103.9c-4.8,11.4,3.7,16.6,0.5,29.3c-1.9,7.4-1.1,16.1-0.6,24.2c-3.7,8.3-1.1,12.1-0.4,21.2
					c-0.1,28.3-3.9,42.3-1.2,72.4v-0.2c-3.5,56.1-1.5,117-1.9,175c1.1,73.3-4.1,61-50.4,16c-2.9-2-7.7-3.6-7-8.4
					c-1.4-8.3-11.7-7.7-16.8-15.7c-7.8-2.4-6.9-15.5-14.1-18.2c-5.3-0.6-7.8-8.8-12-12.3c-3.1-5.4-10.5-8.4-11-15.6
					c-1.8-8.8-11.8-4.4-15.5-15.5c-7.9-7.8-11.4-19.7-21.2-25.5c-20.3-18-33.1-44.4-52.4-62.6c-9.1-9.6-15.7-19.6-22.7-29.3
					c-5.4-7.5-16.2-13-18.5-24c-5.1-9.6-17.8-14-20.8-26.9c-1.3-8.6-20.9-13-16.6,0c5.6,5.7,2.6,13.1,6.9,18.4
					c30.3,35.6,51.6,75.1,80.5,115.2c20.1,30.3,45.2,59.1,65.8,89.3c31,30.6,53.4,66.8,85.1,97.4
					C824.1,1616.5,179.2,1597.5,176.2,1604L176.2,1604z"/>
				<path class="st3" d="M521,1181.9c-21.5-13-39.4-41.8-42.1-67.6c-3.8-21.2,23.6-39.1,31.5-12.6
					C514.4,1117.5,541.5,1177.5,521,1181.9z M400,967c-14.5-19.5,3.1-59.8,12.5-77.6c10.8-20.5,40.1-11.6,34.7,12.2
					C443.4,929.7,419,949.6,400,967z M880.8,753c-22.2-21.4-26.6-95.1,10.4-100.2C917.8,661.5,902.5,734.7,880.8,753z M114,410.8
					c-56.4-53.5,5.1-141.7,20.4-85C136.7,350.7,135.2,387.9,114,410.8z"/>
				<path class="st2" d="M820.2,1604c-63.8-73-131-151.3-183.3-234.6c-24-32-44.5-62.8-64.1-98.7c-3.9-6.9-17.3-19.6-9.6-29.4
					c80.3,105.2,160.4,211,254.7,304.3c20.9,21.7,42.7,45.7,36.4-4.3c-2.4-36.8,2-77.8,0.6-113c7-144-0.8-286,12-430.3
					c4.2-37.6,2.8-75.3,5.1-112.8c4.5-12.4-5.1-36.5,8.9-42.3c13,74.4-3.5,162.2,2.3,240.3c7.2,130.3,3,265.9,5.8,394.8
					c4.5,14.5-10.6,78.4,10.2,72.3c24.9-18.1,52.9-59,77.6-82.7c7.2-0.7,1.7,44.9,3.4,48.1c-0.1,2.3-2,4.1-4.2,4.1
					c-0.2,0-0.4,0-0.6-0.1c-16.5,4.9-24.5,27.6-39,40.8C890.5,1613.3,886.7,1604.2,820.2,1604z M115.9,1604
					c-8.5-283.3-4.3-581.6-0.3-870.8c2.9-74.3,2.3-144.3,1.8-214.1c2.9-12-7.6-41.6,6.3-43.4c14,42.5,9.4,99.4,15.2,144.7
					c10.2,181.9,21,363.9,24.9,545.8c-0.5,47.8,2,90.5,4.4,137.3c0.2,3.2,2.8,5.7,6,5.7c44.1-42.2,81.5-97.2,115.3-149.1
					c39.6-56.9,60.5-99.6,93.2-151.5c14.8,10.9-23.9,72-29.9,88.3c-49.6,101.3-108.6,189.7-184.2,274.4c-5.4,51.6,8.6,105.9,6,158.3
					c2.9,21.8-5.6,47.7,5.6,66.4C187.5,1612.8,120.4,1600.3,115.9,1604z"/>
				<path d="M984.5,1255.5c-4.2,1-8,3.1-11.2,6c-22.7,24.7-49.2,47-79.6,61.2c-1-12.3-2.6-25.3-1-37.4c0.7-4.3-5.9-9.5,1.4-13.2
					c9.9-4.9,19.5-10.4,29.3-15.4c10-4.4,55.4-34.8,50.5-45.5c-3.5-3.6-6.7,0.9-9.5,3.5c-20.6,20.8-46.8,34.8-71.5,50.1
					c-1.2-13.3,0.3-27.1,0.1-40.5c0-2.4-4.5-5.1-0.2-7.2c13.1-6.5,25.9-13.8,38.2-21.8c15.6-10.2,33.5-17.9,45-33.1c2.2-3,3-6.9,0-9
					c-2.7-1.8-5.3,3.3-7.9,4.3c-1.3,0.5-1.8,2.9-3,4c-17.4,16.6-39.1,26.7-59.1,39.3c-10,6.3-10.4,5.2-13.1-4
					c-3.3-11.1-0.8-22.4-1.7-33.5c0-0.6,0.5-1.8,1-1.9c14-3.2,26.8-9.8,39.3-16.5c16-8.6,32.8-16.6,44.6-31.2
					c0.7-1.6,5.1-2.6,1.8-5.3c-2.1-1.6-4.3-2.1-6.7-0.1c-20.6,17.7-45.3,30-69.9,41.5c-8,3.3-11.5,4.1-10.3-6.3
					c0.5-4-1.4-8.2-0.9-12.2c0.9-7.6-7.1-18.9,6.7-21.7c14-3,90-39.1,86.7-53.2c-1.7-2.7-4.8-1.9-7.4,0.1c-5.5,5.1-93.2,62-87.1,41
					c-3.4-58.1-13-27,48.3-58.6c12.1-7,25.6-12,34-24.2c4.2-4.9-2.1-7.8-6-4.9c-19.5,17.8-43.5,27.3-67.3,37.1
					c-7.5,3.1-12.3,3.4-11-7.4c0.9-7.8,0.9-15.6,0-23.4c-0.8-7,2.3-9.6,8.1-11c18.2-6.4,36.1-13.9,53.5-22.3
					c12.3-6.3,25.4-12.6,33.6-24.2c1.2-1.7,5.1-4.5,1.3-8.3c-2.5-2.5-3.6-0.4-4.8,0.7c-25.9,22-57.5,35.1-88.5,47.6
					c-5.5,0.8-2.3-3.2-2.5-5.1c-0.8-6.3,1.7-12.4,0.7-18.9c-0.8-5.6-0.7-13.8,2.6-16.8c26.7-15.7,58.8-24.7,80.8-48.3
					c2.7-1.7,3.1-6.4-0.8-6.5c-25,16.1-50.5,31.9-77.4,44.9c-4.2,2.1-4.3,1-4.3-2.5c0-11.3,0-22.7,0-34c0-2.3,0.3-3.3,3.1-4.5
					c27.6-11.1,51.5-26.5,69.4-49.1c3.3-5.2,19.2-23.6,14.5-28.4c-4.8-3.9-18.1,20.1-22,23.7c-15.7,22.3-40.3,34.3-64.2,45.8
					c-0.3-7.2-2.1-14.9-0.3-21.5c-5.4-41,19.9-4.6,70.8-74.5c6.6-6.3,2.2-18.4-3.7-8c-8.5,11.9-19.1,22-30,31.7
					c-3.4,3.2-36.3,29.9-35.7,17.6c1.3-7.3-2.3-32.5,2.2-35.7c24.3-15.2,49.7-30.2,66.4-54.2c1.4-2,5.6-5.3,1.5-8.2s-5.9,1.7-8,4
					c-14.5,16.3-30.6,30.8-49.2,42.4c-14.6,9.1-14.7,8.7-14.9-8.9c0.3-9.2-2.9-17.5-0.9-26.6c6.7-13.7,13.1-27.6,17.2-42.3
					c4-14,3.8-27.7,2.5-41.9c-1-10.3-0.3-21.9-12.2-24.7c-10.3-2.5-21,4-26,12.2c-30,43.7,16,87.4,3.4,132.2c-1,6.4-3.3,0.5-3.6,0.1
					c-8-9.8-16.1-19.6-22.9-30.2c-3.6-5.6-6.8-11.5-9.5-17.6c-1.2-2.8-3.8-1.5-5.6-1c-7.4,3.9,22.1,45.9,27.5,50.6
					c22.4,20.4,8.7,24.7,12,51.1c-20.8-16.6-36.1-38.5-49.2-61.3c-1.3-2.4-3.5-3.6-5.8-2.5c-5.2,7.2,22.7,48.1,30.2,53.7
					c15.9,13.8,29,24.8,22.7,47c-3.1,15.7-52.7-37.8-54.5-45.5c-3.3-3.4-4.7-14.9-10.7-13.2c-1.3,0.5-3,1.3-2.3,3.7
					c7.5,23.3,24.3,40,42,56.5c22.3,15.8,27.7,10.6,21.7,43c4.6,23.5-22.6-2.2-29.1-6.5c-13.8-12.4-28.5-24.1-39.3-39.3
					c-2.3-3.3-4.4-8.3-8.6-5.3c-5,4.4,6.1,13.5,8.3,17.8c16.9,22.1,36.5,41.1,62.2,53.5c2.3,1.1,7.5,1.1,6.2,5.7
					c-3.3,11.5-1.2,23.1-1.9,34.7c-0.1,2-0.3,3.3-2.8,1.8c-14.9-9-29.5-18.4-42.3-30.2c-12.7-11.6-25.5-23.5-33.9-38.7
					c-1.8-3.2-4-0.8-6-0.7c-0.2,0-0.8,2.5-0.3,3.2c17.3,29.3,42.1,55.5,72.8,71.2c3.9,1.7,9.8,5.2,9.9,8c0.3,12.2-1.3,24.5-2.2,36.7
					c-33.4-17.2-65.1-42.3-84.2-75.4c-2.1-3.9-9.1-2.7-7,2.1c8.9,27.6,52.6,63.5,77.6,78.5c6.9,3.5,16.5,5.9,12.3,17.7
					c-6,11.1,7.2,33.7-14.5,21.9c-29.2-14.4-57.1-31.7-78-57c-2.4-1.9-4.8-7.6-8.3-4.1c-3.4,4.5,4.2,10.1,6.3,14.1
					c20.6,25.5,49.6,43.6,78.7,58.2c5.1,2.6,13.4,2,13.7,10.3c0.4,12.3,0.1,24.7,0,37c0,0.9,1.2,3.5-1.3,2.4
					c-38.6-13.8-70.8-38.7-98.6-68.5c-1.8-1.8-3.7-3.7-5.5-5.5c-1.4-1.5-1.3-4.7-4.3-5c-0.6,0-1.9,0.7-1.9,1
					c-1.6,8.9,4.9,13.6,9.8,19.6c26.6,29.8,58.5,55.9,97.4,67.6c2.6,0.8,5,2.2,4.7,6.2c-0.6,12.4,0.2,24.8-0.6,37.2
					c-40.8-18.4-77.3-44.8-107.5-77.8c-1.6-1.9-3.1-3.9-4.6-6c-1.9-2.6-3-8.3-7.6-5c-6.2,3.1,8.2,17.4,10.5,21.1
					c26.3,28.3,57,52.1,91,70.6c33.3,10.5,13.3,18.3,18.2,46.9c0.2,3.3-1.3,2.7-2.5,2.2c-46.2-18.8-87-49.7-119.3-87.4
					c-2.3-2.6-6.3-4.3-8.6-2.6c-2.9,2.3,1.3,4.5,2.6,6.2c3.5,4.6,6.9,9.4,10.5,13.9c17.1,19.9,37.8,36.7,59.8,51.1
					c16.5,10.3,31.4,23.6,51.4,27.3c5.3,1,6.1,4.8,5.8,10c-1.2,12.4,1.7,25.3-1.9,37.4c-1.7-0.4-4.4-0.3-4.9-1.4
					c-2.6-5.2-8.2-6-12.4-8c-29.2-13.8-53.2-35-78.2-54.6c-9.3-7.3-17.2-16.2-25.2-25.2c-4.4-3.3-9.7-15.3-15.5-12
					c-2.5,3.6,11.8,17.6,14.1,21.9c13.7,19.6,34.2,31.8,52.2,46.7c14.7,13.3,30.5,25,48.5,32.7c23,9,22.7,10.7,22.1,36.1
					c0,1.6-0.6,2.2-2.1,1.5c-25.7-12.7-52.3-23.9-73.3-44.3c-1.3-1.3-2.3-5-5.3-2.2c-2.1,2-1.5,4.1,0,6.1
					c17.4,21.7,42.2,33.3,66.8,45c4.8,2.3,12.7,5.4,12.9,8.7c-0.8,39.5-1.2,79.4-1.2,119c-0.7,30.2,2.2,60.6-2.5,90.6
					c-15-11.2-27.7-25.6-41.6-38.1c-2-2-8.2-1.6-3.2-8.4c9.8-13.8,36.7-60.9,28-75.8c-1.5,0.9-3.9,1.5-4.2,2.7
					c-4.9,17.4-13.3,33.3-20.1,49.8c-6.3,15.2-13,20.9-18.6,13c-4.3-6.1-17.1-9.3-11.2-20.8c24.2-32.7,35.7-73,41.2-113
					c0.6-2.7-1.7-6-2.7-9.1c-5.2,2.1-4.9,12.2-7,17.1c-3.3,13.5-5.6,27.2-9.8,40.4c-8.2,20.4-14.8,45.1-30.2,61
					c-3.3,2.5-7.5-6.7-10.8-11c-0.2-0.3-1.3-0.1-1.4-0.3c-1.7-6.3-14.8-8.2-6.1-18.6c19-24.2,47.4-94.2,38-123.2
					c-6.6,4.6-5.8,14.3-7.7,21.5c1.2,11.8-33.9,126.8-49.3,90.9c-4.8-9.2-20.5-15.3-6.8-28.9c14.4-16.2,46.2-85.8,37.7-105.4
					c-11.3,20.6-13.1,47.2-25.3,68.3c-7,12.8-13.7,25.8-20.8,38.6c-1.1,2-3.2,5-6.5,1.2c-3.8-4.4-9.2-7.8-11.8-12.8
					c-2.1-3.8-9.5-6.5-6.6-10.9c24.4-32.3,44.6-68.4,48.2-109.5c0.3-2.1-2.2-4.5-3.3-6.8c-1,1.1-2.9,1.9-3,3.1
					c1.2,6.9-3.2,12.3-4.6,18.5c-2.2,9.4-2.7,19.6-6.9,27.9c-10.2,20.4-22.1,39.9-33.5,59.7c-0.4,0.8-1.6,4-3.5,1.6
					c-6.7-8.1-13.6-16-19-24.9c27-35,47.7-79.9,48.7-125.6c0.2-3.1-1-9.8-5.2-9.6c-7.7,3.1-3.2,20.5-5.7,27.8
					c-4.1,35.5-21.3,67.2-39.5,97.2c-1.1,2.3-3.1,4.4-7.2,1.1c-6.3-5-7.9-13.8-15.5-17.8c-2.2-1.1-3.1-5.3-0.5-8.2
					c16.8-22.9,29.2-49.1,34-77.3c1.2-8.8,9-41,1.5-45.7c-7.3-1.6-8.1,47.6-12.1,56.2c-5,20.9-16.9,39-25.8,58.3
					c-1.6,3.6-5.1,5.6-5.8,4.1c-4.5-10.5-25-14.4-10.4-33.1c16-23.7,19.6-56,25.4-83.9c-0.2-5.6,4.6-15.5-2.7-17.9
					c-2.8-0.8-3.6,2.1-3.9,3.3c-7.9,34.5-9.4,73.7-31.7,102.6c-7.5-14.7-21-11.9-6.4-33.7c7.6-13.9,26.5-86.5,12.9-96
					c-1.1,1.5-2.9,2.9-3,4.4c-2.6,29.1-6.3,58.6-16.2,86.2c-1.2,3-2.6,5.9-4.1,8.7c-4.5,8.4-5.1-1.2-6.9-2.1c-2.5-1.2-4-4.7-5.4-7.5
					c-2.6-5.6-10.4-9.7-7-17.2c10.3-22.8,16.6-46.3,17.8-70.8c0.3-6.5,0.3-13-0.1-19.4c-0.1-2.2,0.8-4.9-3.2-4.5
					c-3.3,0.3-4.7,2-4.9,5.3c0.1,28.1-5.8,55.4-14.3,81.8c-0.2,0.9-2.3,4.4-3.4,1.9c-3.8-9-15.7-15-10.4-27.7c5.8-26.3,10-54,6.1-81
					c0.2-4.6-8.9-6.6-8.1-1.2c0,26.1,1.3,53.5-5.6,78.8c-17.2-12.8-15.3-38.2-19.9-57c-3.8-15.8-11.3-66.8-34.5-60.6
					c-38.2,14.1-9.5,68,9.2,87.6c5.7,6.5,14.5,10,19.1,16.1c7.3,9.8,9.3,23.2,18.1,32.9c-25.8-4.1-47.5-21.1-70.3-33
					c-1.8-1.1-3.8-6.3-6.7-1.6c-2.2,3.5,0.2,6.8,3.5,8.7c10.6,6.8,21.6,12.8,32.9,18.2c13.5,6.5,25.4,16.1,41.6,15.1
					c6.4,2.6,10,20.4,16.4,25.9c-28.2-7.6-55.4-18.6-81-32.8c-2.1-1.1-4.4-4-6.2-1.3c-6,13.2,60,34.3,71.3,38
					c24.8,2.9,24.9,9.4,36.3,30c-39.4-5.1-71.8-22.4-106.7-39c-2.3-1.3-5.2-2.2-6.7,0.3c-1.8,2.9,1.3,4.4,3.3,5.6
					c28,14.1,56.1,31.1,87.4,35.7c21.4,2.2,36.4,13,43.3,33c-46.3-7.3-91.5-20.6-134.3-39.6c-15.5,0.1,12.4,14.8,15.6,16.1
					c32.6,14.6,68.2,21.7,103.2,28.3c11.5,1.6,24.5,0.4,31,14.6c4.3,9.4,11,17.8,17.5,28c-33.7-4.2-67.1-5.3-99.5-15.4
					c-24.8-6.1-48.6-15.8-70.6-28.8c-2-1.2-5-1.8-6.8,0.7c-2.2,3.1,1,4,2.8,5c5.8,3.3,11.6,6.6,17.6,9.7
					c49.2,24.4,105,38.8,160.1,35.4c0.8-0.1,2,1,2.6,1.8c8,12,16.7,23.5,23.9,35.9c-70,6.1-141.6-10-204.6-40.6
					c-5.3-1-3.7,6.8-0.2,8.3c58.4,29.8,125.8,45.8,191.5,41.8c6.9-0.6,15.6-5.7,21.5,1c6.5,7.2,11,16.1,16.9,23.9
					c10.9,11.9-67.6,9.6-74.4,9.3c-47-1.1-94.1-12.2-137.1-31.6c-4.1-1.7-10.9-5.9-12.7-2.6c-2.4,4.6,4.4,6.1,8.3,7.9
					c39.2,20.9,82.5,31,126.6,34c31.9,4,67.5,1.2,97.7-4.9c9,9,16.4,19.7,23.9,30.2c0.7,1,5.8,4.8,1.6,5.8
					c-82.5,17.9-170,6-246.9-27.8c-3.2-1.3-6.4-6.6-9.3-2.7c-1.3,1.8,3.2,7,6.9,8.8c74.5,36.4,161.6,47.4,243,32.5
					c6.1-0.6,11.8-9.3,18.9,0.1c10,13.2,21.5,25.3,32.1,38c1.8,2.1,3.4,5.5,3,8c-0.3,2.8-4.2,0.4-6,1.4c-4.2,2.6-9.1,0.8-13.3,2.2
					c-45.7,11.7-93.4,6.8-139.5-0.1c-44.6-3.1-85.4-19.9-127.4-33.9c-5.9-4.7-8,1.4-2.5,5.3c37.1,14.9,74.3,30.8,114.3,35.1
					c56.7,10.3,128,17.9,181.9-3.3c11.9,13.2,23.9,26.6,36.1,39.7c2.5,3.7,4.4,3.4,9.1,2.3c-27.3-40.5-63.9-76.5-94.3-115.4
					c-30.2-38.9-60.5-77.7-86.1-119.8c-23.7-31.2-45.1-64.2-64-98.5c-3.6-6.3-10.1-11.3-11.8-23.6c60.3,94.8,133,171.2,204.2,256
					c24.5,26.1,49.5,52.4,77,75.5c5,3.4,13.7-4.9,13.5-13.2c-3.3-45,0.6-90.2-0.3-135.2c2-41.8-0.2-83.5,4.2-125.4
					c1.3-101.5-2.7-203.2,7.8-304.4c6-50.3,0.8-102,8.9-151.7c4.6,82.7-4,169.1-0.4,253.1c6.6,66.5,1.6,133.6,4.4,200.1
					c2.5,19.8-0.8,39.1,0.1,58.7c2.8,39.8-2.3,79.5,1.2,119.4c0.3,23.2-0.2,46.4,0.4,69.6c0.1,4.4-3.3,10.9,1.4,13.1
					c10.3,6.4,57.2-50.3,65.6-59.7c8.4-12,22.6-21.2,25.5-36.1c-3.6-1.3-5.9,2-7.8,4.4c-24.5,27.9-49,55.8-75.9,81.5
					c-3.5-25.4,4.1-50.1-2.7-76.6c3.4,3.9,6,3.3,9.3,1.6c11.3-5.7,22.5-11.6,33-18.8c13.3-9.2,27.7-17.1,36-31.8
					c1.7-2.8,5.9-6.6,1.6-9.3c-3.5-2.3-5.1,2.6-7.1,4.8c-18.3,22.4-45.1,36.8-70.7,49.9c-2.6-15.7-0.4-32-1.1-47.9
					c2.3-0.7,3,3.5,6.7,1.3c25.9-12.7,53-25,70.9-48.8c1.6-1.9,1.7-4.7,0.3-6.7c-1.3-2.3-3.1-0.4-4.1,0.6
					c-21.1,20.8-45.4,36.3-72.3,48.5c-0.7-1.6-2.4-3.5-2.1-4.8c3-12.6,0.3-25.4,1.3-38.1c0.1-1.3-0.9-3.2,1.5-3.6
					c21.1-2.8,87.3-43.7,88-65.4c-3.3-0.7-4.7,0.8-6.6,2.9c-24.3,22.8-51.3,43.4-82.5,55.5c-0.1-3.6-1.4-7.7-0.2-10.8
					c3-8.1-7.1-18.1,8.2-25.3C927,1316.3,977.3,1282.7,984.5,1255.5z M523.2,1177.5c-5.3,2.1-7.7-3.7-9.7-6
					c-10.2-11.7-21.3-23.3-25.5-38.7c-1.8-6.4-7.5-12-4.7-19.1c-2.6-17.1,15.5-33.5,23.5-10.4
					C510.4,1109.5,530.3,1177.2,523.2,1177.5L523.2,1177.5z M884.4,744.8c-5.4,11.5-8-4.3-9.4-8.3c-7.9-25.2-13.5-63.5,9.4-77.5
					C915.7,643,894,734.2,884.4,744.8z M974.4,1513.6c1.7,2,0.3,4.1-1.3,6.3c-12.3,15.2-23.7,31.1-36.3,46
					c-10.3,13.1-24.7,21.9-36.3,34.1c-1.8,2.1-3.5,4.8-6.7,3c-11.4,1.6,0.4-8.8,3.5-10.8c27.8-21.8,48.7-50.3,71.2-77.1
					C970.3,1513,972.7,1511.8,974.4,1513.6z M329.2,1155.9c36.9-4.1,76.2-5.5,109.2-24.5c2.4-2.1,8.5-3.1,6-7.8
					c-2.2-3.3-5.4-0.9-7.8,0.3c-32.5,16.1-68.2,22-104.4,23.4c32.2-70.4,22.6-20.9,107.9-64c4.5-2.1,33.1-15.6,30.4-20.1
					c-0.8-1.1-3-2.2-4-1.8c-35.9,14.9-69.1,36-109.6,36.9c2.7-5.2,5-10.7,8.2-15.6c5.8-8.8,5.6-23.3,20.7-23.4
					c19.9-1.8,36.5-12.9,53.9-21.7c5.8-4.5,19.5-7,18.8-15.9c-5.4-5.9-13.7,4.6-19.1,6.8c-18.5,11.2-38.6,19.4-59.7,24.2
					c-0.7-6.1,2.7-11.1,5.7-15.3c6.1-8.6,0.7-22.6,16.7-27.1c12.6-3.5,24.2-9.3,35.3-16.2c8.4-6.9,28.9-14.9,29-26.8
					c-2.7-4.6-24.9,14.9-29.9,16.9c-8.4,5.5-17,10.5-26.4,14c-3.7,1.4-12,7.2-12,2.5c0-10.1,1.6-21.3,8.1-30.1
					c16.4-22,39.4-38.6,46.5-66.7c3.4-36.8-33.2-40.6-47.5-9.1c-10.7,18.4-14.3,39.2-13.1,59.8c1.1,18.1-8.6,29.8-14,46
					c-6.2-25.8-13.5-46.7-17.6-71.8c-1.4-8.4-2.4-16.9-3.1-25.4c-0.3-3.9,0.5-9.6-3.4-9.7c-3.5-0.1-5.6,5.4-4.9,9.9
					c2,14.9,3.3,29.9,6.2,44.7s8.3,29.1,10.6,44c1.3,8.2,11.9,13,7.2,22.6c-4.6,8.4-8,17.9-13,25.9c-8,8.3-6.1-3.5-6.5-4.4
					c-12.9-31.6-31.5-69.1-24.8-103.9c2.2-3.5-1.8-9-5.4-6.7c-1,3-3,5.5-3.9,8.5c-1.7,14,1,28.3,3.5,42.2
					c4.6,21.8,11.4,42.8,21.6,62.7c2.7,5.2,8.5,11.5,7.2,15.3c-3.4,9.4-10.1,17.7-15.3,26.2c-6.1-7-7.4-15.9-10.6-24
					c-6.1-15.3-11.5-30.8-14.8-47c-5-18.4-3-38.2-7.9-56.2c-9.4-10.7-5.9,24.4-5.8,28.2c4.8,32.9,13.8,65.2,26.5,95.9
					c2,6,9,12,4.5,18c-5.7,7.6-11.2,15.3-16.2,23.2c-5.4-11.9-10.9-23.4-16-35.1c-13.3-28.4-14.3-59.9-20.6-90.2
					c-0.3-1.6,0.3-5.3-3.2-4.2c-2.6,0.8-3.8,3.2-3.3,6.2c3.2,19.2,3,38.8,7.8,57.8c21,93.2,49.9,47.9,2.4,113.5
					c-10.3-27.9-23.5-54.8-29.6-84c-7.9-26.4-4.8-54.9-10.1-81.5c-2,1.4-4.4,2.5-4.3,5.6c0.8,20.2,0.2,40.3,3.2,60.6
					c4,27.8,11.8,55,23.1,80.7c3.4,7.6,2.9,19.7,15.7,20.8c-4.6,12.1-14.8,22.4-21.3,33.9c-1.1,1.7-2.9,3.2-4.2,1.3
					c-17.1-28.4-28.1-59.8-37.3-91.8c-6-23.1-9.7-46.6-11.1-70.4c1-8-6.4-8.9-7.2-0.6c-1.2,54.4,16.8,107.6,40.5,155.8
					c2.9,6.3,11.7,11.7,9.1,18.1c-3.6,9.2-11,16.9-17,25c-0.9,1.3-2.4,0.7-3.4-1c-15.4-26.8-29.4-54.2-40.4-83.1
					c-1-2.7-4.4-4.4-6.7-6.6c-6.9,12,32.2,85.7,41.9,99.4c1.6,2.2,0.6,3.1-0.8,4.8c-15.8,18.8-31.4,37.7-48.3,58.2
					c0-7.2,1-12.7-0.2-17.8c-4-17.3-2.6-35.1-1.8-52.3c-1-54.1-0.5-108.3-3.8-162.5c-2.5-96.8-14.5-36.6,61.5-95.7
					c11.9-7.4,86.2-68.7,77.8-79.7c-1.9-2.7-4.5,0.8-7.3,3.9c-23.7,25.2-48.1,49.7-76.2,70.1c-16.9,12.9-36.3,22.5-54.4,33.8
					c-3.6,2.3-3.3,0.3-3.4-2.2c-0.4-6.2-0.6-12.4-1.4-18.7c-0.8-6.1-5-15.9,2.6-19c43-18.2,79.5-47.5,110.9-81.7
					c4-5.6,14.8-13.7,12.1-20.7c-18.3,9.9-30.1,30-46.6,42.8c-22.8,19.9-47.9,36.9-74.7,50.7c-3.4,1.7-5.4,2-5.6-2.3
					c-3.8-61.4-3.7-19,56.3-69.5c23.7-19.3,45.8-40.8,67-63c2.4-1.8,2.8-12.1-1.8-9.7c-12.5,14.3-28.4,25.8-41.1,40
					c-20.3,21.4-44.1,38.2-69.9,52.1c-4.1,2.2-13.4,14.1-12.6-3.9c0.3-6.8-0.2-13.7-1.5-20.4c-2.1-10.2,5.7-9.4,11.3-12.4
					c26.8-14.6,93.5-61.6,100-90.8c-16.9,11.4-29,30.1-46.1,42.2c-19.6,17.4-39.8,36-64.7,45.2c-0.1,0-1.3-1.8-1-2.3
					c2.6-9.1-7.6-30.6,1.6-36.3c39.8-27,85.6-56.8,105.7-101.8c-3.1-6.8-7.1,0-9.6,4.2c-10.8,13.3-20.5,27.7-33.2,39.5
					c-16.6,15.4-34.3,29.5-52.3,43.3c-10.3,7.9-16.4,9-15.4-5.9c0.5-8.1-5.2-18.7,4.3-24.4c36.9-25,89.7-65.9,105.1-107.7
					c-5.8-3-21.1,22.9-25.8,27.4c-23.6,29.8-54.6,51.8-83.7,75.7c-2.3,1.9-1.9-0.4-1.9-1.5c0-12.2,0-24.5,0-36.8
					c-0.2-1.3,0.5-2.5,1.7-2.9c34.5-20.3,64.8-48.5,85.9-82.7c1.4-2.4,4.4-5,3.6-8.1c-0.6-3.1-4.4-3-6.1-0.8
					c-13,14-23.2,30.7-35.7,44.9c-16.4,14-31.8,30.3-51.3,40c0.4-8.4-2.6-21.6,1.6-24.5c15.5-9.6,84.4-76.2,75-92.6
					c-8,2.6-20,25.3-26.8,32.9c-14.5,20.2-32.2,37.1-51.7,53.1c-0.5-8.2-1-15.7-1.3-23.3c-0.3-5.5-2.6-14.2-0.1-16
					c23.1-17.8,78.2-61.1,76.2-91.7c-18.6,28.3-40.9,54.4-67.4,76.3c-6.1,5.3-12.1,8.1-11.3-4.6c0.4-6.3-3.7-14.3,1.1-18.8
					c25.4-21.6,49.1-45.5,69.4-72.2c5.8-4.6,0.1-11.9-4.5-4.8c-21.1,22.3-38.5,48.4-64.2,66c-1.5,1.1-3.2,2.3-4.2-0.5
					c-10.1-41.3,50.9-54.4,59.6-91.9c-0.7-4-4.4-1.2-6.7,1.7c-15.1,20.8-34,38.1-54.8,53.1c2.5-14.3-10.3-27.4,6.2-39.3
					c18.9-12.6,34.8-29.6,48.4-48.1c2-2.7,7.7-6.4,4-9.9c-2.7-2.5-6,3.2-8.4,5.6c-15.4,16.1-30.4,32.7-47.8,46.7
					c-1.7,1.4-6.1,2.7-6.2,2.4c-7-13.1,0.3-30.6,11.7-39.1c9.4-7,44.3-35.9,39.3-47.6c-4.2-0.7-6.6,7.2-9.9,9.6
					c-13.9,14.3-28.4,28.1-44.2,40.3c-0.4-5.3-1.9-10.8-0.8-15.7c0.9-3.9-5.4-7.1-0.2-10.7c11.7-7.3,47.3-41.8,44.7-55
					c-6.8,1.6-9.6,8.8-14.4,13.3c-8.2,9.5-16.4,19.1-24.7,28.6c-1.9,2.2-5.9,5.4-7.3,4.8c-4.7-2.1-3-26.7,1.8-29.9
					c10-6.8,13.9-18.4,21.2-27.5c1.1-1.4,5.1-6.3,1.4-8.3c-3.2-1.7-6.2,4.6-8.5,7.4c-6,8-12.8,15.6-19.3,23.3
					c0.9-4.2-2.8-6.6-3.1-10.1c-1-11.1,7-18.9,9.5-28.4c4.9-19.9,10.3-40.1,6.5-61c-1.5-8.2-0.7-18.7-10.2-22.5
					c-14.5-5.8-25.4,1.5-33.7,12.8c-7.1,9.5-5.8,20.9-7,32.3c-1.9,19.1,4.8,34.6,11.7,50.9c3.7,8.8,16.8,12.9,12.4,25.8
					c-13.4-8.1-27.2-16-37.9-27.7c-1.3-1.4-2.8-3.3-5.7-0.8c-3.3,2.8-0.2,4.1,0.6,5.1c3.3,4.3,7,8.3,11,12c5.7,5.2,12,9.9,18.7,13.9
					c4.9,3,12.4,4.6,13.8,10.6c1.7,7.1,1.1,14.9,1,22.4c0,1.4,0.7,6.6-3.4,4.4c-19.3-10.4-38.3-21.6-53-38.1c-2.6-3-5.6-8.3-9.5-4.9
					c-8.2,9.9,47.8,47.9,57.9,50.8c4,1.8,9.2,1.5,9.3,7.6c-0.4,3.9,2.1,32.5-3,30.3C85,500.2,59.9,484.7,38,465
					c-2-1.8-4.1-4.4-6.6-2.4c-4.2,5.3,8.8,17.2,13.3,19.5c19.2,13.5,36.7,29.4,59.3,37.5c3.6,1.3,10.4,0.3,10.8,6.3
					c0.7,9,0.2,18.1,0.2,27.2c0,2.2,0.4,5-3.1,3.9c-37.5-11-66.5-39.4-96.6-62.7c-2.6,11,9.7,17.1,16.4,23.3
					c21.4,20.1,44.9,37.9,73.2,46.5c12.3,3.8,8.8,11.8,9.5,18.8c0.9,8.9,0.2,17.9,0.2,27C81,595.4,48.4,579,21.1,554.5
					c-2.8-1.4-10.2-11.6-12.4-8.8c-6.2,5.9,5.6,10.8,8.5,15.3c12.5,13.6,27.2,24.9,43.4,33.7c16.2,8.9,33.5,15.8,50.2,23.7
					c1.4,0.7,5.3-0.3,4,2.9c-3.7,9.2-1,18.7-1.8,28.1c-4.3,8.6-54-20.2-62.9-23.8c-14.1-6.7-27.2-15.3-38.9-25.7
					c-3.2-2.4-6.6-8.3-11.1-4.5c-4.6,3.2,7.7,9.6,9.7,12.3c25.8,21.9,57.9,37,89.2,50.1c23.1,4.6,11.1,15.3,14.1,33
					c0.5,8.2,1.8,13.8-10.7,8.6c-33.9-15.1-67.7-30.9-95.9-55.2c-4.4-3.5-12.7-0.9-6.4,5c13.9,10.2,26.4,22.5,41.8,30.3
					c13.6,7.3,27.4,14.4,41,21.7c17.9,8.5,34.7,4,29.8,34.2c0.2,13.5,0.4,16-16,9.7c-22.2-5.3-41.2-18-61.5-27.4
					c-10.9-5.1-19.6-14.9-29.2-22.8c-5.6-6-10.5,0.8-4.9,5.5c27.3,24.9,60.9,43.1,95.8,54.9c26.8,5.2,7.6,17.6,15.3,32.2
					c-3.3,1.1,2,9.1-5,6.8c-34.4-11.8-68.2-26.7-97-49.3c-3-3.5-9.1-7-10.1-0.3c1.1,5.9,9.3,9.6,13.5,13.7
					c111.5,77,96.6,8.5,97.4,87.2c0,2.3-0.3,4.3-3.2,3.2c-12.7-4.8-25.3-9.6-37.9-14.6c-24.1-9.6-44.6-25-64.3-41.6
					c-2.5-2.1-5.3-2.7-7.6-1c-3.1,2.4,0.7,4.5,2,5.7c6.7,6.4,13.8,12.5,20.9,18.4c23.8,19.8,51.8,31.3,80.5,41.8
					c2.6,0.9,9.2-2.7,9.2,6.1c0,8-4.4,16.1,0.1,24.3c1.2,10.5-17.1-0.2-22.2-1C56,875.7,25.7,859,0,836.5c-6.6,1.7-2.1,9.6,2,12.3
					c30,23.9,65.1,45.5,103.4,51.9c5.2,0.4,4.6,2.2,4.4,5.5c-0.2,7,1.9,14.8-0.8,20.6c-2.1,4.5,9.1,19.8-9.1,13.8
					C82.7,935,64.5,931.5,48,924c-14.7-6.7-27.4-17.5-41.2-26.1c-5.6-5.5-17-3.1-9.5,2.6c23.3,19.6,50.6,35.5,80,43.6
					c10.2,2.6,19.8,10.6,31.7,5.3c0,13.1,0,25.9,0,38.7c0,2.1-0.5,3.3-2.8,2.6C66.8,982,31.5,962.9,0,938.6
					c-2.5-0.3-6.1,2.3-3.8,5.1c6.5,5.5,12,11.7,19.1,16.6c101.5,69.3,93.9,3.2,93.6,80.9c-22.3-7.7-45.3-14.2-66-26
					c-8.9-2-42.7-32.4-45.6-24.9c-1.5,2.2-0.2,4.4,2.3,6c28.9,23,59.6,41.4,95.4,51.4c21.3-0.8,10.5,2.6,12.4,29.4
					c-0.1,3.2,3.3,7.9-4.7,6.1c-34.9-7.8-69.1-17.4-98.2-39.6c-5.3-4.8-11.6,2.6-4.5,6.6c27.9,22.7,63.1,33.4,97.7,41.3
					c2.9,0.6,8.7-1.6,8.9,2.5c0.7,15.8,0.3,31.5,0.2,47.3c0,1,0.9,2.9-1.8,2.3c-7.9-1.7-16.3-2.1-23.7-5.1
					c-27.7-11.1-56-21.4-78.4-42.4c-1.7-1.9-4.6-2-6.4-0.3c-0.2,0.2-0.4,0.4-0.6,0.6c-4.4,8.1,26.2,23.7,32.5,27.8
					c21.9,13,44.3,24.7,70.3,27.2c2.6,0.3,9.2-3,8.6,5.1c-0.8,9.3-1,18.6-0.3,27.9c0.6,7.9-3.9,7.1-8.4,6
					c-34.4-8.6-67.2-23.5-93.9-47.1c-1.5-1.4-3.6-3.7-5.5-1.9c-2.1,21.9,79.7,57,100.1,57.8c15.7,1.1,2.1,27.1,9.3,38.2
					c0,0-2,1.5-2.8,1.3c-34.1-8.8-69.2-17.3-97.4-39.8c-2.6-2-5.3-7.1-8.5-3.7s1.7,7.5,4.1,9.8c24.3,21.8,54.6,30.7,84.8,40.2
					c6,1.9,16.3-1,17.4,5.9c2.3,14.1,1.3,28.7,1.6,43.1c0,1.7-0.6,2.9-2.8,2.2c-36.2-11.1-74.3-18-105.2-41.4
					c-14.5,11.7,49.2,36.2,57.8,37.7c60,23.6,48.1-7.1,51.1,49.2c0,0.7,1.3,2.9-1.5,2.4c-39-5.6-75.8-21.3-108.3-42.8
					c-2.6,21.1,75.3,47.3,94.3,49.4c24.3,1.6,13.7,15.1,15.5,33.4c3.9,16.7-7.1,6-17.7,6.6c-32.6-2.7-58.5-23.7-85.3-40.1
					c-1.9-1.2-3.7-5.2-5.9-3.9c-4.9,3.6-0.3,8.8,3.6,11c113.6,84.7,106.3-2.4,105.4,97.4C71,1452,34,1436.2,4.9,1411.7
					c-1.3-1.3-3.3-1.9-5.1-1.4c-4.9,1.6-2.1,3.5,0,5.8c9,13.9,23.7,20.8,37.8,27.6c80.2,41.1,71.8-9.6,71.1,65.8
					c0,0.9,0.5,2.6-1.7,1.9c-35.1-2.8-69.1-11.8-98.5-31.7c-2.3-2.3-9.7-1.3-8.7,3.2c9.7,7.4,20.1,13.9,31,19.3
					c23.6,10.9,48.2,18.5,74.6,18.7c2,0,2.9,0.2,3.5,2.7c2.8,11.1,0.7,22.3,1.7,33.3c1.8,21.2-12.7,9.7-20.7,10.8
					c-2.8,0.4-5.8-2.3-8.8-2.7c-26-3.4-48.8-14.8-70.4-28.9c-8.1-5.7-17.6-0.4-5.1,5.5c24,18.3,53.7,29.8,83.1,35.6
					c11,2,25.8-0.6,24.9,17.9c-0.1,2.4-0.3,4.6,2.2,4.6s3.6-2.5,3.2-5c-3.1-17-0.3-34.1-1.4-51.2c-2.8-218.6-2.9-435.9-0.8-654.4
					c3-33.8,1.4-67.6,1.3-101.5c3.8-102.7,3.3-205.6,3.6-308.2c3.7,0.8,2.2,6.9,3,9.5c9.2,99.1,12.9,199,20.1,298.3
					c5.2,63.7,3.4,127.1,8.2,190.9c2.9,67.8,8.1,135.7,6.7,203.9c0.8,46.1,2.8,92.2,5.4,138.3c0.1,1.6,1.9,3.3,3.1,4.6
					c0.2,0.2,2.1-0.5,2.7-1.2c24.6-31.8,52.3-60.7,75.5-93.5c49.6-69.4,97.3-141.4,136.2-217.4c2.2,5.5-1.3,9.5-3.5,13.9
					c-9,31.2-25.2,59.6-40,88.4c-29.7,58-63.5,114.3-102,166.9c-16.5,22.4-34.3,43.8-52.6,64.8c-6.6,7.6-15.5,13.5-19.6,23.3
					c-5.7,13.7-0.3,27.7-0.6,41.5c-0.4,19.3,3.4,38.6,4.5,58c2.2,40.3,1.8,80.7,2.4,121c0.1,2,3.1,3.9,4.9,5.7c0.5,0.2,2.3-1,2.3-1
					c-1.9-5.3,2.8-10.4-0.1-16.1c-1.8-3.6-0.8-8.7-0.9-13.1c0-0.2,1.5-0.7,2.3-0.7c79.9,2.9,166.9,2.3,236.9-41.3
					c8.1-3.4,3.2-9.7-3.5-6.3c-22,9.9-43.3,20.8-67.4,26.3c-47.1,12.1-95.1,15-143.5,14.2c-26.7,1.6-25-3-25.3-28.6
					c-0.3-2.5,0.1-2.9,3.1-2.5c28.5,4.5,57.5,4.7,86.1,0.6c40.9-3.7,80.6-14.5,117.2-33.3c7.9-4.3,43-19.7,41.2-28.2
					c-2.5-4.8-33.4,17.2-40.3,18.8c-48.8,22.3-102.6,37.2-156.5,37.4c-14-0.4-27.9-2.3-41.8-2.8c-5.3-0.2-9.6,1-9.1-7
					c0.6-9.7,0.6-19.3-0.1-29c-0.3-4.2,0.8-4.6,4.1-4.2c31.4,4.3,63.1,6,94.7,2.1c44.2-7.9,92.1-15.7,127.8-45
					c2.1-1.9,7.9-2.7,4.9-6.5c-2.5-3.1-7-0.6-10.4,1.4c-11.6,6.7-22.8,14.5-35.1,19.5c-13.8,5.5-28.8,7.8-42.9,12.6
					c-42.6,13.8-87,12.1-130.9,9.9c-9.5,0.1-13.9-2.8-12-12.8c-5.6-35.7,12.3-14.5,43-19.5c53.5-4.7,107.4-13.3,157.2-34.2
					c13.8-6.2,29.9-8.7,40.4-21.4c1.2-1.4,3-2.5,1.3-4.4c-0.7-0.8-2.5-1.4-3.2-1.1c-18.5,9.3-37.7,17.4-57.3,24.3
					c-56.2,20.5-115.7,26.7-174.8,29.8c-5,0.3-9.4-1.9-7.7-13.5c1.4-9.4-0.7-21.3-2.9-31.9c-1-5,2.3-5.5,5.7-4.4
					c50.3,13.5,127.6,7.1,176.4-9.9c16.8-5.9,56.9-22.4,63.9-38.9c-1.2-2.5-3,0.5-4.4,1c-15.7,5.7-28.9,16.1-44.8,21.9
					c-61.2,24.7-128.5,30.8-193.3,18.7c-4.6-0.9-4.9-5-2.3-8c9.4-10.6,19.1-20.8,28.8-31c0.9-0.9,2.1-1.4,3.4-1.4
					c28.6,4.9,58.2,10.5,87.1,8.1c32.6-3.5,78.3-5.4,100.3-33.2c-2.1,0-4.7-0.7-6.3,0.3c-31.5,17.4-67.4,23.3-103,23.7
					c-23.7,0.5-47-2.6-70.4-5.2c-0.9-0.1-4.4-0.3-2.3-3.2c7.7-10.7,18.1-19.2,23.7-31.6c1.5-3.3,6.8-8.3,8.5-7.6
					c13.1,4.8,26.9,3.7,40.1,4.7c45.1,4,92-5.9,132.9-25.8c4.4-2.2,1.7-7.5-2.3-5.6c-4.7,3-10,3.4-15.1,4.8
					c-15.8,4.2-31.5,8.7-47.3,13.1c-32.4,8.5-66.1,3.5-99.1,2.9c-11.8,2,12.3-21.4,12.7-25.5c4.9-8.8,10.3-10.3,18.6-9.3
					c46,5.1,106.4-0.8,146.9-24.3c3-1.9,7.9-4.2,7-9c-0.6-2.9-4.7-1.4-6-0.6c-23.7,14.4-50.6,19.3-77.3,23.3
					c-24.3,3.7-49.1,3.4-73.8,2.4c-2.7-0.1-2.6-0.7-1.3-2.9c5.3-9,9.9-18.5,15.7-27.2c1.4-2.1,2.8-5.9,7-5.9
					c48.4-2.2,103.8-8,141.9-39.8c-8.6-4.1-33,13.3-44.3,15.6c-31,9.4-62.5,17.4-95.5,16.3c4.4-7.7,8.2-14.7,12.3-21.5
					C321.1,1167.3,324.6,1156.4,329.2,1155.9z M399.1,947.1c1.7-15.8,8.7-66.7,34.4-65.5c10.9,2.3,9.5,11.7,9.7,20
					c0.4,16.7-12.5,25.8-21.3,37.3c-6.9,8.3-13.8,17-21.9,24C398.4,956.9,399.2,956.4,399.1,947.1z M116.8,402.4
					c-0.8,1.5-1.8,3-2.8,4.4c-5.8-10.4-14.6-19.1-15.9-31.7c-5.2-21.1-6-66,26-61.6c7.1,2.1,5.8,10.6,6.5,16
					C133.9,355.2,127.5,379.2,116.8,402.4z"/>
			</g>
		</g>
	</g>
</g>
<g>
	<g id="Layer_1_2_">
		<g transform="matrix( 1, 0, 0, 1, 0,0) ">
			<g>
				<g id="Layer0_0_FILL_1_">
					<path d="M52,1548v15l-37,37h946l-37-37v-15H52 M52,52V37.7L14.3,0H0v1600h15l37-37v-15V52 M924,52V37.7L961.7,0H14.3L52,37.7
						V52H924 M976,0h-14.3L924,37.7V52v1496v15l37,37h15V0z"/>
				</g>
			</g>
			<g>
				<path id="Layer0_0_1_STROKES_1_" class="st4" d="M961,1600h15V0h-14.3L924,37.7V52v1496v15L961,1600H15H0V0h14.3h947.4 M52,52
					V37.7L14.3,0 M15,1600l37-37v-15V52h872 M924,1548H52"/>
			</g>
		</g>
	</g>
</g>
</svg>
