<svg xmlns="http://www.w3.org/2000/svg" xmlns:xlink="http://www.w3.org/1999/xlink" viewBox="0 0 976 1600">
<style type="text/css">
	.st0{fill:#FFFFFF;}
	.st1{clip-path:url(#SVGID_2_);}
	.st2{fill:#FF970D;}
	.st3{fill:#5D4E8C;}
	.st4{fill:#80E3ED;}
	.st5{fill:#333333;}
	.st6{fill:#FFEB5C;}
	.st7{fill:#D81E1E;}
	.st8{fill:none;stroke:#333333;stroke-width:2;stroke-linecap:square;stroke-miterlimit:3;}
</style>
<g id="Paper_Backing">
	<path class="st0" d="M960,22v1556c0,3.3-2.7,6-6,6H22c-3.3,0-6-2.7-6-6V22c0-3.3,2.7-6,6-6h932C957.3,16,960,18.7,960,22z"/>
</g>
<g id="Wikipedia_Cropped">
	<g>
		<defs>
			<path id="SVGID_1_" d="M960,22v1556c0,3.3-2.7,6-6,6H22c-3.3,0-6-2.7-6-6V22c0-3.3,2.7-6,6-6h932C957.3,16,960,18.7,960,22z"/>
		</defs>
		<clipPath id="SVGID_2_">
			<use xlink:href="#SVGID_1_"  style="overflow:visible;"/>
		</clipPath>
		<g class="st1">
			<path class="st2" d="M196.6,1463.2c-10,2.4-39.3-12.2-21.7-21.1c12.4,3.6,25.3,1.5,35.7-6.6c7.1-9.2-29-49.8-32-65.6
				c-4.5-10.7-6.5-23.1-21.3-18.8c-34.8,0.6-48.3-30.7-51.6-61c-1-7.6-8.2-27.3,1.8-28.6c20.3,0.8,11.7,36.7,24.5,48.5
				c40.4,38,37-18.5,22.3-43.7c-7.4-14.7,8.4-27.9,15.2-39.3c9.2-21,32.6-14.9,51.6-16.8c8.8-0.9,5.5,15.5,15.9,11.8
				c3.2,0,5,1.8,6.5,3.2c21.1,23.8,21.3-10.9,8.2-24.5c-3.5-6.6-10.4-10.2-10.7-19c5.2-29.7,33.6,26.5,43.6,32.8
				c8.3,11.7,0,27.2-5.9,38.8c-5.9,15.9,21,33.3,24.7,50.4c9.1,18.2,15.6,37,23.1,55.6c6.2,17.6,27,3.4,39.1,21
				c13,8.6,31.5,66.8,3.3,47.3c-18.4-20.4-47.7-18.7-70.4-25C265.8,1412,234.3,1461.2,196.6,1463.2L196.6,1463.2z"/>
			<path class="st2" d="M0,469.8c-11.1-42.9-0.4-140.1-4-187.1c63.7-71,153.6-130.1,199-219.9c14.8-22.8,35.8-45.7,56.1-66.8
				c2.5,3.2,112.8-6.3,109.9,4c-13.6,48.4-34.7,75.1-75.7,100.2c-12,64.7-91.7,71.6-119.8,129.8c-75.1,95.2-8.3,37.2,49.7,25.4
				c29.9-9.3,72.8,9.6,12.5,11.7c-54,14.5-100.5,52.8-147,82.6C38,373.7,25.7,433,0,469.8z"/>
			<path class="st2" d="M721.7,1604c-23.8-74.3-77.4-150.2-102-226.1c5.7-19,48.4-30.1,63.5-28.4c30.4,36.4,34,91.8,65.7,129.1
				c3,0,5.6-2.2,6-5.2c4.5-35.5,9.5-70.2,12.9-105.2c-2-60.2,30.4-55,77.2-42.7c16.4,8.4,5.2,33,4.5,48
				c-12.3,65.8-22.9,136.7-34.8,203.1c-1.2,7.8-3.6,15.7-1.4,23.3C816.8,1609.3,723.9,1601.6,721.7,1604z"/>
			<path class="st3" d="M477.7,1283.4c-12-1.8-30.9-0.3-39.2-9.1c-0.2-6.6-9.7-4.1-9.3-11c-1.1-24.2-2-50.9,1.3-74.4
				c11.3-0.7,15.1-12.8,27.4-12.3c31.1,4.6,62.8,3,93.2-4.9c11.5,0.7,12.3-15,22-14.8c15.5,3.4,31,12.3,46.9,11.4
				c28.1,4.2,14.8,45.2,20.6,64.9c0.1,5.8-9.9,7.4-14.5,7.6c-17.3,8-36.8,8.4-56.7,10.1c-11-1.5-20.8,11.3-31.7,9.7
				C520,1269,500.2,1286.1,477.7,1283.4z"/>
			<path class="st4" d="M924.2,1236c-82.7-6.6-184-11.8-242.1-74.2c-47.6-62.7,58.5-71.1,94.6-88c7.7-13.4-16.6-16.1-25.7-17.8
				c-5.6-4.1-2.9-13.3-14-10.8c-30.6,3.6-35.3,9-22.5-24.3c0.2-24.4,97.1,18,111.6,26.9c60,67.8-219.8,45.4-91.5,115.4
				c69.4,29.4,146.4,38,220.4,22.4c7.6,1.4,22.7-12.6,25-3.1C979.3,1250.6,991.4,1229.9,924.2,1236z M210.4,1085.7
				c-70.8-5-140.6-17.7-210.9-26.6c-8.3-3.8-0.8-27.3-3.4-34.1c2.1-11.3-7.7-40.5,15.1-25.6c53.6,23,110.5,34.1,167.3,45.6
				c9.4,3.2,22.5,0.6,30.1,6.5c0.2,3.9,1.4,8.5,6.3,8.4c29.7,0.7,76.8-22.9,35.7-49.4c-10.2-4.4-8.9-16.3-17.6-18.5
				c-7.8,1.5-13.7-8.7-15.3-14c4.4-30.2,59.1-35.2,88.9-36.8c23.3,4.2,116.3,1,106.3,35.2c-8.2,8.2,6.8,26.7-11,26.8
				c-43.1-6.4-80.3-20.8-116.8-8.3c-6.3,11.6,7.3,22.9,13.5,32.1C334.1,1083.2,245.1,1085.8,210.4,1085.7z"/>
			<path class="st5" d="M137.6,986.1c-44.9-48.2-61.1-132.7-61.7-199.3c-0.7-89.2,40-174.8,73.4-256.8l0,0
				c109.6-258.7-53.4-234.1,116.5-267.8c4.5-14.4-23.1-6.1-32.1-12.4c-11,3.4-22.6,4.9-34,9.1c-4.9-1.3-8.9-1.4-12.6,2.6
				c-9.6,1.1-68.4,40.3-49.4,11.4c21-29.4,37.2-62,77-66.5c4-0.4,7.9,5,11.7,0.5c9.8-8.8,25.8-5.3,38.9-7.6c5.1,3,8.6,2.3,13.5-0.4
				c11.6,0.1,23.4-0.9,33.2,4.5c103.4,1.9,153.7,116,159.3,204.7c4.5,28.8-4.2,48.5-27.6,18c-6.7-5.4-25.9-42.6-32.3-20.8
				c-4.5,139.8-14.7,281.3-53,416.9c-6.3,10.8-6.5,32.3-15.5,35.5c-12.8,1-19.4-10-24.5-21c-26.6-40.4-38-92.4-43-140.4
				c-5.2-124.8-50.9,38.5-64.7,73.7c-11.1,43.6-26.7,97.6-38.2,140.1C162,933.2,159.1,976.7,137.6,986.1L137.6,986.1z M936.8,935.4
				c-80.2-81.4-75.8-340.5-114-461.3c-8-14-28.8,18.6-39,18.6c-5.3,2.6-11.8,0.8-14,7.7c-13,12.7-30.9,13.3-43.6,23.1
				c-20.7,11.3-27.6,4.4-39.3,16.2c-10.7,2.5-22.5,11.6-33.6,8.3c-11.3,7.5-24.9,12-38.1,11c-11-1.3-26.2,13.7-38.9,5.9
				c-15.6-7.4-13.4,17.3-60.2,4.7c-14.4,9-34.3,1.2-50.9,4c-13.6-13.8,34.1-29.4,47.4-27.7c40.2,10,29.6-8.4,64.2-5.9
				c11.9,7.8,22-12.4,35.8-5.9c8.6,3.3,13.9-10.8,23.5-8.5c10.2,3.5,11.2-3.6,20.8-6.9c6-2.2,10.4-4.5,16.4-2.8
				c8.8-4.1,15.7-15,26.4-12.2c9.8-4.7,17.9-18.9,30.6-18.6c3.5,0.5,7.3-1.5,7.6-5.3c14.3-26.7,48.3-12.6,72.1-15.4
				c24.8-1.2-27.7-100.9-31.2-114.5c-1-7.6-6.8-23-14.8-12.4c-39.7,66.7-43.1,87.3-103.4,24.6c-28.3-25.3-52.3-58.1-76.2-87.3
				c-39.5-60.4-29.9-21.9-44,21.5c-5.6,9.7-2.5,25.3-18.4,22.9c-14.8-9-34.9-30.1-48.1-45c-52.3-56.3-92.6-125.4-123.7-195.5
				c-23-28.5,17-55.7,2.8-78.8c60.3-9.6,317-1.5,376.6-4c23.7,5.7,72.3-13,89.5,16C886,72.7,936,153.3,965.5,239.1
				c23.7,6.8,12.5,505.2,14.5,533c-6.6,32-18.4,89.5-27.5,127.1C949.6,915.1,950.2,929.2,936.8,935.4L936.8,935.4z"/>
			<path class="st6" d="M505.8,1313c-13.1-2.9-42-3-33.1-23.6c5-4.9,14.1-2.4,20-0.8c7.1-3.3,15-6.8,22.5-8.6
				C530.6,1277.7,523.7,1316.9,505.8,1313z M586,1283c-15.2,1.6-23.4-28.7-7.7-29.8c14,4.4,51.8-18.3,46.4,10.5
				c-3.1,8.3-13.9,9.4-21,10.1C597,1275.2,592.9,1284.6,586,1283z M521.2,546.7c-51.4,2.4,38.1-46.9,55.4-46.1
				c9.4,6,19.1-3.7,28.9,2.5c4.8,0.4,6.8-7,11.6-5.8c6.1,3.7,10.3-5.3,16.9-3c6.2-1.1,7.8-10,15.7-5.8c5.1-1,7.7-6.4,13.9-5.3
				c6.7-0.7,6.8-10.4,14.8-10.1c7.4,0.5,3.7-10,9.9-10.4h55.3c15.6,13.1-25.2,12.1-25,22c-5.9,16.4-24,7-30.1,19.3l-11.7,5.5
				c-3.3,0.8-7.4-1.3-9.6,2.6c-7.5,6.5-19,5.3-27.1,8.7c-3.3,3.3-11,5.4-15.8,6.8c-3.6-0.8-6.5-3-9.6,0.2c-6.5,7.4-17.5,2-24.9,4.4
				c-10.2,8.5-24.7,9.4-35.9,2.2C542.6,539.8,532.8,547.9,521.2,546.7z"/>
			<path class="st5" d="M922.4,1604c-5.3-5.2-115.5,8.5-117.2-5.1c0.1-4.8,7.7-3.9,7.4-9.3c-0.3-8.8,3.8-16.3,5-24
				c8.4-55.7,17.1-113.3,26.3-164.9c-2.1-29.1,40.2-15,58-17.6c24.7,4.4,57.9-1,78,9.9c-3.7,4,7.2,211.7-4,210.9L922.4,1604z
				 M354.2,1604c-6.2-7-345,13.8-329.5-7.9c141.9-33,279.6-91,425.2-130.9c59.8-16.6,118-37.6,178.8-50.5
				c10.9,1.7,17.2,28.6,24,38.1c23.6,47.9,41,102.7,73,145.3C730.1,1614.7,358.3,1598.6,354.2,1604L354.2,1604z M749.8,1479.5
				c-5,0-18-33.5-18.6-37.1c0.8-7.4-11.4-11.9-10.4-19.7c-22.3-34.3,12.8-27,33-33.3c22.5-4.4,1.8,31.4,7,41.5
				C754.6,1443.9,760.5,1470.1,749.8,1479.5z"/>
			<path class="st7" d="M435.5,1184.9c-163.4-64.5-144-36.2-52.3-123.7c16.5-23.2,24.3-9.6,25.9-43.3c5.9-46.4,8.4-93.1,7.6-139.8
				c0.7-15.5-5-50,10.4-69.2c3,0.2,5.7-1.9,6.3-4.9c4.2-17.4,28.6-30.3,41.1-41.8c17.1-24.3,20.3-7.6,41.2-2.8
				c15.2,7.4,25.2-25.2,38.1-15.5c6.5,0.9,6.2,8.5,12.4,9.1c14.7,1.5,27.3,14.9,39.5,21c30.8,6.3,15.7,73.1,43.8,52.4
				c2.1-0.9,3.5-0.8,5.3-1c7.6,5.5,12.5-3.2,19.8-4.2c4.3,3.4,9.6-0.4,13.3,2.8c6.9,5.6,4.2,26.3,16.8,22.5
				c30.8-13.7,13.2,183.7,0.7,196.3c-6,36.4-55.2-33-65.5-43.8c-30-17.9,3.6,144.8,5,161.9c-23,11.3-59.8-13.2-79.7-1.1
				c-0.5,6.6-9.8,9.4-16.3,6.5c-30.8,5.2-64.3,8.8-94.8,4.5C445.6,1172.1,445,1186.3,435.5,1184.9z"/>
			<path d="M976,1386.2c-39-9.5-79.8-11.7-120-11.3c-1.3,0-3.9,1-3.4-1.9c1.1-7.1,1.4-14.6,3.9-21.4c13-31.1-23.7-32.9-44.4-37.5
				c-10.9-2.4-22.3-1.8-32.8,1.9c-11.1,3.8-9.2,14.6-11.3,24.1c-3.4,7.1-1.5,44-9.9,40.7c-11-1.6-21.3,2.9-32,3.5
				c-5.7,0.3-12.9,5.7-16.6,1.2c-5.6-6.8-9.3-15.4-12.9-23.8c-2.5-5.9-1.4-15.4-10.8-16.9c-16.1-4.8-73.3,14-72.3,32.2
				c0.4,9.5,3.9,19.4,11.1,26.6c-206.3,54.9-404.8,128.4-608.2,192.6c-1.4,0.5-4.4,0.8-3.2,3.3c0.7,1.2,3.2,1.4,4.6,1.4
				c40.5-8.6,80.5-20.1,122.3-22c50.3-3.5,100.5-9.1,148.9-23.8c83.8-19.9,166.5-44.2,251.2-60.3c33.4-6.8,66.5-14.9,99.7-22.8
				c5.5-1.2,13.6-7,16.5-1.2c10.9,22.1,21.2,44.8,30,67.9c-68.7-12-140-10.8-207.4,8.8c-44.4,15.3-93.4,25.8-132.6,51.2
				c2.6,1.5,4.9,2.8,7.7,1.3c30.3-13.2,61.5-23.6,93-33.4c73.4-22.6,152.5-36.8,228.6-21.2c6.5,1.9,15.4-1.4,19.7,9.1
				c5.8,14.2,14.2,27.3,21.3,41c1.2,2.3,3,2.1,4.9,2.6c2-10.6-4.3-20-8.7-29.1c-28.5-59.7-57.4-119.1-86.9-178.3
				c-0.8-1.6-2.9-4.9-0.6-5.2c3.6-0.5,9.2-2.9,11.3,1.2c15,30.6,29.5,61.4,44.2,92.1c18.5,37.7,36.6,75.5,54.4,113.6
				c1.3,2.6,4,4.2,6.9,4.2c9.9,2.1-24.9-56.8-26.5-63.6c-24.9-49.6-48.5-99.9-73.3-149.4c4.9-1.2,11.3-7.8,14.5-0.9
				c9.4,19.9,18.7,39.8,27.9,59.8c23,49.8,45.4,99.8,68.4,149.5c0.7,2,3.5,3.3,5.4,4.9c1.1-2.2,5.7-2.4,4-5.9
				c-32.4-71.1-67.3-141-100-212c-0.5-1.1-3.3-3.5-0.3-3.4c3.6,0.1,7.1-6.7,9.8-1.4c36.6,71.7,65.4,147.3,104.3,217.8
				c4.4,12.4,13,5,6.6-4.2c-34.7-72.5-70.2-144.7-104.9-217.3c-2.1-4.7,5.8-5.3,8.4-8.4c0.7-0.8,1.5-1.8,2.4,0.3
				c32.4,76.1,65.9,152,106.5,224c2.8,5,6.8,12.6,13.8,12.6c9,0.3,6.5-9.4,8.3-15.2c1.3-3.3-1.8-11.1,4.9-9.9
				c10.5,2,20.7,6.1,31,9.2c21,6.2,42,12.2,62.8,18.7c2.4,0.8,5.1,2.4,6.3,0.3c0.3-8.6-35.3-16.2-43.2-20
				c-74.4-24.6-59.2,3.8-48.4-75.3c3-18.7,5-37.7,8.5-56.3c0.6-3.2-1-10.9,4.5-10.3c23.6,2.6,47.2,4.6,70,12.6
				c16.8,5.9,34.5,9.5,51.9,13.9c3.2,0.9,8.3,1.5,8.5-2.8c0-2.5-3.5-4.1-5.8-4.8c-24.3-7-47.2-17.3-72-21.9
				c-16.2-3.5-32.8-5.9-49.6-4.3c-2,0.2-4.3,0.5-3.8-2.8c1.3-9.1,1.4-18.6,4.5-27.3c1.9-5.3-2-15.5,9-15.7c15.1-0.3,30.2-0.9,45.2,0
				c23.6,1.4,47.1,3.9,70.7,5.9C977.7,1394.6,981.5,1389.8,976,1386.2z M629.4,1418.7c1.3-0.2,3.7,3.9,5,6.3c5,9.9,9.5,20,14.8,29.8
				c5.4,10-6.1,7.3-7.3,7.5c-41.7,10.4-84,18.1-125.9,27.9c-96.7,19.8-190.8,50.4-287.6,69.5c-21.3,4.2-43,3.7-64.2,8.5
				c-11,2.5-22.9,4.7-37.3,1.8c92.3-25.6,180.6-57.2,271.8-85.6C475.7,1463.1,551.5,1436.3,629.4,1418.7L629.4,1418.7z
				 M678.4,1358.3c-14.4,9.4-29.7,16.7-47.1,18.4c-2.6,0.3-6.5,5.2-7.8,0.2c-1-3.7,4.4-4.9,7.2-6.7c17.8-10.8,35.7-18.5,51.9-16.6
				C681.3,1355.1,680.1,1357.2,678.4,1358.3L678.4,1358.3z M779.3,1326.7c5.7-8.4,70.8-3.1,69.2,8.3
				C842,1344.7,782.8,1335.2,779.3,1326.7L779.3,1326.7z M754.8,1440.9c-1.6,11.2-3.2,22.3-5,34.6l-14.7-32
				C738.2,1443.6,755.9,1436.3,754.8,1440.9L754.8,1440.9z M754.7,1432.8c-5.9-3.3-11.6-0.7-17.5,0c-14.6,1.6-10.3-13.1-15.8-19.5
				c-10-11.7-0.8-15.1,9.2-16c47.8-6.1,24-12.7,26.2,33.8C756.8,1431.7,755,1433,754.7,1432.8L754.7,1432.8z M763.9,1498.3
				c-0.2,0.9-0.6,1.7-1.1,2.4c-2.7-2.2-7.3-10.7-5.8-13.5c6.9-51.1,12.8-99.6,18.1-150.2c0.3-0.8,0.8-1.4,1.5-1.8
				c3.6,1.9,10.4,4.3,10.3,5.9c-1.7,16.5-4.4,32.9-7,49.4C774.4,1426.4,767.5,1462.2,763.9,1498.3L763.9,1498.3z M778.1,1534.4
				c-13.1-18.9-4.9-38.4-1.3-58.1c3-28.5,8.4-56.9,11.7-85.3c1-14.6,3.5-28.9,5.8-43.3c0.8-4.8,3.4-5.5,7.5-4.4
				c5.4,1.4,6.6,5.7,4.7,9.5C793.4,1412.4,789.2,1474.3,778.1,1534.4L778.1,1534.4z M792.9,1563.9c-12.2-20.6-2.7-39.6-1.2-58.3
				c1.4-17.1,5.8-33.9,7.1-51c3.7-34.3,12-67.6,14.3-102c0.3-2.6-1-6.6,2.2-7.3c8.5-0.7,13.8-0.9,11.1,10.1
				c-2.3,13.7-5.1,27.2-7.4,40.9C809.5,1452.9,801.4,1506.7,792.9,1563.9L792.9,1563.9z M839.2,1409.9
				c-11.9,59.5-20,119.4-30.3,179.2c-13.5-11.5-7.1-25-5.3-37.7c2.9-20.7,6.2-41.4,9.5-62.1c4.6-29,10-57.9,14-87
				c1.9-13.1,0.8-26.5,5.9-39.1c-2.3-17-0.2-17.8,14.8-19.7c1.9-0.3,2.3,1.4,1.6,5.5C845.9,1369.4,842.9,1389.8,839.2,1409.9
				L839.2,1409.9z M977.8,1210.9c0.5,3.1-2.4,3-4.4,3.3c-10.5,1.6-20.1,4-32.4,4.5c-53.1,0.7-106.4-2.8-156.8-20.8
				c-1.7-0.6-4.6-2.4-4.5-2.7c0.9-2.3,3.2-2.7,5.4-2.3c52,11.9,104.8,17.1,158.1,18.3C949.4,1213,977.5,1205.5,977.8,1210.9
				L977.8,1210.9z M640.2,82.1c-0.4-2.3-1.7-4.9-1.2-7c3.1-20.9,13.3-51.9,7-71.7c-2-2.8-0.2-4.8,1.8-5.9c2.2-1.6,3.8,0.9,4.9,2.5
				c7,11.1,17.1,16.6,29.8,19.2c18.4,3.7,37,6.1,55.7,7c2.1,1,5.7,1.3,5.4,3.4c-4.3,8.9-41.5-0.5-51.9-0.8
				c24.5,25.6,35.7,28,69.2,34.1c4.8,1.3,13.2,1.6,14.6,7.1c-1.4,5.9-39.8-5.3-45.8-6.7c20.7,35.3,56.2,35.1,90.7,49.7
				c1.3,0.4,3.1,2.5,2.9,3.2c-0.6,1.9-2.6,0.9-4.2,1c-20.3,1.8-36.6-11.7-55.6-14.3c15,36.5,52.4,44.6,84.1,60.2
				c1.4,0.7,3.2,3.4,2.8,4.5c-0.9,2.6-3.2,0.9-5,0.5c-18.7-3.5-34.7-13.4-51.5-21.4c9.4,39,52.4,39.2,78.1,59.5
				c-17.3,6.6-57.3-27.3-53-14c11.7,31.7,21.8,39.4,51.3,54.4c9.4,6.8,28.2,9.9,33.3,19.6c-3.7,0-7.9,1.2-11-0.2
				c-18.3-7.2-35.2-17.5-50.8-29c9.6,43.5,48.3,69,83.2,91.8c3.8,2.8,9.7,5,11.2,9.7c-14.3,6-67.8-40.8-76.4-55.1
				c7.8,57.9,39.8,79.8,80.6,114.4c0.8,0.8,3.5,2,0.9,3.8c-13.1,6-55.5-42.6-63.6-54.1c-0.5-0.6-1.7-0.8-2.5-1.2
				c-1.7,47,42.4,75.2,74.3,102.6c2,1.9,6.2,3.5,4.2,7c-24.4-4-54.7-39.5-72.2-61.9c3.7,17.5,1.3,32.7,12.1,45
				c17.3,21.7,34.5,44.1,59.2,58c3,1.6,7.8,3.7,5.7,8c-2.5,5-5.5-0.4-7.7-1.4c-26.2-11.9-42.3-37.8-61.3-58.4
				c-5.7,54.4,40.5,68.1,67.9,102.7c-16.3-0.3-33.2-22.1-46-31.5c-7-5.9-12-14.2-18.6-22.3c4.2,13.5-1.3,27.1,7.8,39.3
				c15.2,20.6,30.1,41.3,48.4,59.3c3.3,3.2,12.9,4.2,8,10.5c-2.9,3.7-9.3-2.9-13.3-6.2c-19.6-15-32.8-36.1-46.7-55.8
				c-2.6,0.3-0.3,1.9-0.4,3c-3.6,50.3,46,77.9,73.2,112c-1.7,15.4-66.8-59.1-69.1-66.5c-0.3,21.3,0.7,40.5,14.3,57
				c9.3,11.3,17.4,23.6,26.7,35.1c9,12.3,22.5,20.3,31.6,31.6c-0.6,4.1-5,1.8-8,0c-27.2-16.5-42.6-41.9-60.7-67.7
				c1.8,19.2,0.3,37.2,13.9,52.3c12.5,13.8,21.4,30.8,35.9,43c5.7,5.1,12.4,10.6,17.4,16c-8.8,12.7-50-39.5-54.7-48.7
				c-2.3-3.8-5-7.3-8.6-12.5c2.7,58.6,11.4,64.9,47.1,106.9c-4,1.7-8.5,0-10.2-2.3c-8.7-12.1-23.1-19.8-28.2-35
				c3.2,14.9-0.3,30.7,7.7,45c9,16.2,20.4,30.3,33.4,43.3c1.7,1.5,3.5,3.6,1.8,5.7c-0.5,0.9-1.7,1.3-2.6,0.8
				c-0.2-0.1-0.3-0.2-0.5-0.3c-14.7-7.2-22.2-20.8-31.7-34.3c-0.8,39.1,22.4,59.5,42.7,88.2c-17.4-0.2-26.6-26.1-36.9-40.3
				c4.5,21.4,7,34.5,11.7,52.5c1.4,9.8,9.8,26.6,6.6,35.1c-13.4-8.5-15.5-54.1-23.2-70.8c-1,9.3-4.1,57.1-14.4,56.7
				c-0.2-1.3-0.8-2.7-0.5-3.9c5.1-22.6,7-45.4,8.2-68.5c0.6-10.8,3-21.2-0.7-31.8c-1.2-3.4,1.5-7.8-2.8-10.4
				c-1,3.6-2.7,7.1-3.1,10.7c-2.1,20-9.2,38.5-16,57.2c-0.9,2.5-2.7,5.2-4.9,4.5c-6-0.3,8.7-33.3,9.1-39.2
				c7.4-30.8,13.8-64.3,6.7-95.6c-7.1,25-12.8,51.7-24,75.6c-1.8,4.7-2.5,12.5-9.1,12.6c3.4-21.3,14.3-41,18.5-62.3
				c7.8-31.6,14.7-62.2,6.9-94.7c-5.8,24.7-13,48.6-22.5,72c-3.5,8.7-7.3,17.3-10.7,26.1c-1.1,2.8-3.7,1.4-5.1,2.8
				c-0.3-1.5-1.3-3.2-0.9-4.4c7.4-21,15.2-41.9,22.5-62.9c4.7-13.5,5.3-28.2,9.9-41.5c4.3-12.7,3-24.8,3.3-37.3
				c0.1-2,0.3-4.8-2.3-4.8c-2.8,0-0.9,2.9-1.5,4.4c-11.2,31.4-23.3,62.3-38.1,92.1c-1.4,3-2.8,8.3-6.9,6.8c-3.7-1.4-0.1-5.3,0.9-7.8
				c5.5-13.5,11.4-26.9,16.9-40.5c14.3-37.3,32.2-78.6,24.4-118.7c-13.2,30.2-29,57.7-48.8,83.5c-1.1,1.6-2.2,3.8-4.4,2.5
				c-2.6-1.6-0.8-4.4,0.2-5.7c15-20.5,26.6-43.2,38.7-65.5c11.3-20.8,17.3-43,10-65.4c-9.1,19.1-21.3,40.3-35.2,57.3
				c-6,6-7.9,17.2-18.1,17.5c0.1-1.1-0.1-2.4,0.5-3.3c5.3-7.7,11-15.2,16.3-23c12-16.2,18.8-35.8,29.9-52.5
				c7.9-11.6,4.7-23.6,5.7-35.5c0.2-2.6-0.7-4.5-3-5.4c-13.1,28.2-27.4,56.2-47.6,80.1c-3.9,7.9-9.3,0.4-4.9-4.2
				c14.2-15.9,25.1-34.8,34.4-53.7c9.7-19.8,25-42.5,14.4-66.2c-5.4,22.3-15.7,40.9-27.5,58.7c-1.1,1.7-1.8,5.6-4.5,4
				c-5-6.2,15.3-34,17.6-43.8c9.5-23.3,16-48.1,8.1-72.5c-2.7,8-21,61.2-32.3,54.3c-1.3-1.5-1-3.8,0.8-6.1
				c18.1-27.5,34.4-64.3,23.6-97.2c-2.4,17.1-26.1,76.8-42.6,80.6c0.2-1.6-0.1-3.6,0.7-4.9c14.1-22,27.3-45.1,33.3-70.2
				c4.6-19.5,7.3-41.5-5.9-61c-1.4,31.1-12.4,60.8-30.1,86.2c-0.7,1-2.5,1.2-3.8,1.8c5.9-20.3,16.9-39.2,22.7-59.5
				c3.8-12.1,3.6-25.5,5.8-38.3c2.8-15.9-9.4-27.4-12-43.4c-2.9,26.2-3.3,63.2-22.6,82c-0.1-2-1-4.2-0.3-5.8
				c10.3-26.3,13.8-53.4,14.6-81.6c0.3-11.3-6.8-17.3-9.5-26.1c-1.4-4.5-2-9.6-7.5-13.7c3.4,13.7,3.5,27.9,0.3,41.6
				c-2.7,7.7-2.9,41.6-14.3,39.4c-2.2-0.8-1.9-2.9-1.3-4.7c11.7-38.5,17.7-83.4-8.3-117.9c0,6.1-0.2,10.2,0,14.2
				c1.3,8.2-3.5,65.3-13.4,62.9c-4.3-2.3-1.1-6.9-0.4-9.6c6-22.6,5.4-45.2,4.6-68.4c-0.6-17.3-11.9-26-19-41.6
				c2.7,15.6,9,69.6-1.2,77.2c-6.8-1.3,0.4-40.3-2.7-49.7c-2.6-30.1-5.3-45.8-29.5-66.1c0.4,12.7,11.6,69.9,0.8,74
				c-1.2-2-3.3-4.1-3.3-6c0.7-19.9-2.3-39.5-4.2-59.2c-1.8-19.1-7.6-26.7-32-42.4c5,9.7,19,69.2,9.1,72.9c-5.5,0-5-6.7-5.1-11.6
				c-1.8-24.6-4.4-70.1-30-81c-3-1.6-1.7,1.9-1.7,3C653.4,33,651.7,74.3,640.2,82.1z M729.6,0c-1.1-4.3,2.4-2.9,5-1.6
				c2.2,0.5,4.3,1.1,6.5,1.6c31,8.9,63,18.6,95.2,10.2c1.7-0.3,4-1.6,4.5,1.1c-1.8,6.6-13,6.5-18.5,8.4c-14.2,3.5-28.6-1.4-43,0.3
				c23.1,27.2,60,28.1,92.4,31.5c4.7,0.5,11.1,1.7,16-2.1c0.4-0.3,1.8,0.2,2.5,0.7c2.7,16.7-59.4,4.2-69.3,1.5
				c-2.1-0.4-6-0.4-6.3,0.4c-0.8,2.5,2.5,2.7,3.8,4.1c4.5,4.8,8.9,9.6,13.1,14.6c8.6,10.5,21.5,12.2,33.2,16.2
				c18.5,7.4,38,7.4,57,9.2c-13.1,14.1-56.1-2.6-73-6.5c18.1,36.5,56.5,57.8,96,63.8c1,0,2.8,3.4,2.5,3.8
				c-5.6,8.2-14.6,0.9-21.7-0.9c-9.4-3.4-18.8-6.9-28.1-10.5c-4.1-1-7.7-5.1-12-4.2c9.2,24.9,36.3,37.5,57.7,50.6
				c8.3,4.6,16.7,9.1,26.1,11.3c1,0.2,1.5,2.6,2.2,4c-16.7,4.5-49.1-19.4-64.8-29.9c26.6,49.6,29.9,45.4,72.5,74.4
				c-2.6,3.4-6.2,4-9.4,1c-8.9-5.8-17.8-11.6-26.7-17.2c-1.9-1-4.5-0.1-3.5,2.5c9.4,22.2,31.5,58.3,29.6,81.5
				c-8.3-17.5-16.5-35-25.3-53.7c-1.8,10-1.8,36.8-10.2,40.8c-2.8-0.2-2.7-3-2.5-5.2c8.9-46.1,3.2-63.2-21.2-102
				c1.4,8.7,9,49.6-2.6,50.5c-4.3-0.2-2.2-6.5-2.1-10c0.2-18.1-2.2-35.8-5.3-53.6c-2.4-13.7-13-21.7-18-33.5
				c2.1,5.2,3.2,46.6-5.2,43.6c-1.8-1.4-3.2-4.5-2.8-6.6c3.1-17.6,0-34.5-4-51.7c-3.1-13.4-13.6-20.6-19.6-32.2
				c1,10.6,2.3,20.1,2.8,29.7c0.2,3.8,2.3,10.1-3,10.6c-4.9,0.5-4.3-6.8-4.5-9.6c-0.8-15.3-3.7-30.5-8.6-45
				C833,80.6,822.1,74.7,815,63.2c2.1,11.3,3.6,20.5,5.7,29.6c0.8,3.7,0.6,7-3.1,8s-3-3.1-3.6-5.1c-9.5-44.9-8.9-45.6-46-74.7
				c3.3,12.6,9.6,21.3,9.2,31.9c-0.1,2.7,0.2,5.7-3.4,6.2c-1.6,0.2-2.3-0.2-2.6-0.9c-3-15-9.8-30.5-17-43.9
				C750.3,6.7,735.1,7.1,729.6,0z M494.1,75c3.5,1.3,6.1-2.4,6.8-5.7c2.5-11.2,6.4-22.1,6.3-33.9c0-2,1.7-4.1,2.6-6.2
				c11.1,8.9,12,19.5,9.1,32c-2.6,15.1-5.3,30.2-8.4,45.2c-0.5,2.6-4.6,5-0.6,7.3c13.2,4.2,15.9-53.5,18.3-63.9
				c1.6,9.7,14.3,12.2,11.6,23.6c-3.1,13-5.2,26.3-6.3,39.6c-1,12.8-7.3,24.1-8.4,36.7c-0.2,1.7-1.8,4.5,1.5,5.4
				c7.6,3.9,12.3-30.7,14.4-36.4c3.2-13.2,3.2-27.5,7.1-40.4c0.8,0.6,1.9,1.1,2.2,1.8c3.7,9.7,11.5,16.5,9.5,30
				c-4.2,28.2-11.2,55.2-22.2,81.3c-1.2,2.8-0.5,6.9,0.7,9.9c4.7,8.6,18.8-40.3,20.7-44.4c4.7-15.9,7.6-32.3,8.6-48.9
				c15.5,21,14.1,32.7,8.9,56.1c-6.5,27.6-8.5,57-20.1,83c-1.5,2.7-5.8,7.3-1.3,10.1c14.6,5.8,31.7-102.5,31.1-116
				c4.3,7.4,10.2,14.9,10.4,22.5c1.9,44.1-3.6,87.8-13.4,130.8c0.2,3,5.1,4.4,6.1,0.5c10.7-41,16-80.9,13.8-123.9
				c14.2,38.1,20.6,23.9,16,66.9c0.1,28.8-6,56.6-13.8,83.9c-0.9,3.2-0.9,6.7,2.6,8.6c5,2.4,7.1-18,8.9-21.6
				c7.7-29.5,8.4-55.8,11.1-87.1c3.1,16.4,14.2,26.4,12.7,43.1c-1.5,16.3-2.6,33.3-1.8,50c-2.3,14.7-7.3,29.7-9.5,44.6
				c-0.3,1.5,1.8,3.4,2.8,5.1c17-28.7,14.9-66,15.1-98.7c5.4,11.2,14.4,22.3,15.4,34.4c0.7,23-0.6,46-1.7,69
				c1,6.6-8.3,29.8-1.8,31.9c12.3,4.7,9.3-71.6,12.5-81.8c20.9,29.2,14.8,65.9,13.5,99.4c-0.1,1.5-0.8,3.9,1.7,3.9
				c2.3,0.1,4.2-1.6,4.3-3.9c3.3-15.8,4.2-32,2.8-48c3.8,8.3,8.1,16.1,11.7,24.4c4.3,9.5,8.2,19.1,11.8,28.9c0.9,2.4,6.2,5.7,7.6,5
				c3.2-1.6,0.1-4.7-1-7c-4.2-7.8-6.5-16.4-10-24.6c-36.1-91-76.5-180-122.7-266.6c4.7,0,9.1-0.1,13.6,0c5.3,0.2,11.4-4,15.7,1.6
				c10.9,13.9,17,29.8,20.6,47c0.8,3.8,0.7,9.7,5,10.7c2.3,0.5,3.4-5,2.8-8.3c-2.5-13.8-4.7-27.6-13-39.6c-2.4-3.4-3.3-7.8-4.8-11.7
				c4.3-0.8,7,3.7,10.4,3.8c19,0.8,21.9,15.1,25.4,29.2c4.1,16,1.8,32.2,2,48.4c0,1.7-1.1,4.7,2,4.6c10.4-1.2,6.3-55.4,2.7-63.6
				c6.6,0,7.2,6.8,10.9,10.1c15.9,12,12.7,20.1,15,36.7c3.3,18.3,0.8,36.2-1.1,54.1c-0.3,3-2.7,5.7,1.5,6.8
				c10.8,1.2,10.3-57.2,7.5-65.6c6.5,10.2,15.3,19.9,15.4,32.8c-0.3,9.6,3.5,18.8,3.5,28c1.8,7.2-6.7,52.3-1.6,50.1
				c7.1-2.9,4-13.4,6.3-19.4c3.3-13,1.1-26.4,2.2-39.6c5,1.1,2.9,5.8,4.7,8.4c10.5,15.8,11.7,34.1,12.6,52.1
				c0.7,15.1-1,30.4-1.6,45.6c-0.2,1.8-0.2,3.7,2.2,3.6c5.9-0.1,8-38.9,8.2-46.3c6.6,14.1,13.3,28.3,19.6,41.9
				c0.4,0.9-0.4,3,1.6,2.1c8.6-4.5-18.7-56.3-21.8-68.8c6.5,6,34.5,35.5,40,27c0.4-5.9-9-8.2-12.5-12.3
				c-21.9-17-42.3-38.9-46.8-67.4c9.3,5,28.5,23,37.3,21.9c-0.5-1.8-0.4-4.4-1.6-5.3c-9.1-7.2-18.2-14.5-27.9-20.8
				c-18.6-12.3-28.7-30.8-38.3-49.9c11.6,7,23.3,13.9,34.9,21c2.7,1.6,4.6-0.3,6.7-1c-0.5-1.3-0.7-3-1.6-3.7
				c-26.9-17.9-54.7-34.9-77.7-57.6c9.3-4.8,20.3,0.4,28.5-7.4c-0.8-1.1-1.5-3.2-2.4-3.2c-4.8-0.1-9.9-0.5-14.5,0.6
				c-19,4.6-36.3-1.8-55.7-7.8c6.3-0.8,40.6-19.7,25.9-21.6c-4.7,0-6.1,4.9-9.8,6.5c-15.5,5.6-40.3,23.1-56,17.9
				c-6.7-5.4-10-15.1-16-25c15.4,6.8,46.3,9.7,57.2-1.3c-1.2-0.7-2.7-2.2-3.7-1.9c-12.2,3-24.4,3-36.7,1.1c-7.1-1.1-16.5,0-20.6-4.2
				c-7.3-7.3-11-18.1-19.6-27.1c16,4.3,58.9,20.8,69.3,11.2c-25.3-7.8-55.1-10.5-77.8-24.1c-7.9-6.5-12.7-17-21.2-23.9
				c-0.7-0.6-0.8-1.9-1.2-3c17.6,7.8,35.5,16.9,54.6,21.8c8.4,1.9,34.4,8.5,41,5c-13.2-7.7-29-8.2-42.9-13.1
				c-22.4-6.7-43-17.2-64.2-27c-1.7,0-3.1,0.8-3.3,3.5c-1.4,17.5-5.1,34.4-9.2,51.3C492.5,68.7,490,73.7,494.1,75z M708.8,178.7
				L708.8,178.7l-0.2-0.3L708.8,178.7z M512.4,698.6c-2-8.3,16-10.8,22-6.3C527.9,695.4,517.5,707.3,512.4,698.6z M511.9,740.6
				c0.5,2.2-2,2.5-4,2.4C501,744.1,506.9,727,511.9,740.6L511.9,740.6z M498.4,722.2c-0.4-4.8,0.4-12.6,6.1-10.7
				c-3.8,14,5.4,8.8,5.8,14.2C509.5,733.2,496.6,726.6,498.4,722.2L498.4,722.2z M105.2,1081c46.6,5.5,231.1,41.9,204.6-48.8
				c-5.4-9.4-11.5-18.4-17.5-27.4c-2.4-3.6-0.1-5.2,2.5-5.6c12.8-2,25.8-2.2,38.7-0.4c20.4,1.8,40.4,5,60.7,7
				c4.7,0.1,9.6,1.1,9.3,9.5c-3.3,33.5-34.9,51.7-56.1,73.6c-9.9,9.8-20.8,18.2-31.8,26.6c-5,5.4-15.8,7-16.9,14.8
				c-0.3,6.1,6.5,8.3,11.2,10.8c34.1,17.2,66.9,37.2,104.2,46.1c3.1,1,8.3,0.2,8.6,4.2c0.7,10.3,2.3,21.2-0.3,30.9
				c-4.2,16.1-1.6,31.9-0.9,47.7c0.2,4-0.3,11.5,6.3,13c10.3,2.5,20.8,5.1,31.4,5.7c7.8,0.5,10.5,2.4,10,10.3
				c-0.6,10.4,8.9,18,19.2,15.7c1.8-0.4,3-0.5,3.7,0.8c7.5,13.2,16.3,5.3,24.1,1c18.9-9.9,5.9-34.1,13.2-39.8
				c12.5-5.6,24.6-12,37.5-18.4c1.1,10.9-3.3,24.1,8.5,30.6c17.5,8.9,28.5-7.4,42.4-12.4c6.3-2.3,8.5-7.8,10.2-13.7
				c2.5-8.7,3.8-18.3,15-20.6c3.2-10.4-0.5-21,0-31.5c2.3-12.3-4.2-23.7-4.2-35.8c17.5,2,12.1-9,10.4-19.2
				c-7.5-48.4-18.8-97.2-15.5-146.4c19.2,17.7,35,43.7,62.4,49.2c21.7,1,43.9-1.2,65.4,4.6c8.9,1.7,14.3,7.6,2.3,8.1
				c-26.3,8.3-52,18.6-77.2,29.8c-34.2,13.1-26.3,52.4-3.5,71.8c59.1,57,217.4,83.8,293.1,58.6c0.2-6.9-8-2.8-12.5-1
				c-18.2-0.1-36.3,2.8-54.6,0.6c-76.8-7.7-167.3-12.3-223.7-71.8c-9.9-12.1-17.4-27-6.1-40.3c15-16.9,61.3-29.3,84.3-36.3
				c7.3-1.6,17.9-3,19.1-12c0.5-14.1-19.7-16.7-30.7-18.6c20.3,0.3,39.3,8.1,58.7,11.1c-9.9-14.1-30.3-15.7-46.1-19.1
				c-17.8-3.8-35.2-3.3-53,0.4c1.6-6.3,2.8-13.4,6.1-18.8c2.2-3.2-0.9-11,5.6-9.7c13.6,2.8,26.7,8,40.3,10.9
				c16.8,4.3,86.1,22.3,64.2,47.4c-22.7,25.8-144.4,22.6-127.7,66.8c18.4,26.8,52.4,33,81.5,42.3c10.1,2.6,19.9,6.3,30.2,8.4
				c15,2.8,31,1.8,46,4c36.7,3.3,73.7,0.4,109.3-8.8c10.3-1.1,15-11.4,0.6-7.9c-83.4,12.2-172.3,9.6-247.3-33.1
				c-10.7-6.5-12-18.5-2.5-22.4c14.1-5.6,28.5-10.4,43.2-14.4c27.7-6.1,110.2-22.1,73.2-62.9c-30.8-23.3-70.8-32-108.4-36.6
				c-1.8-0.5-3-1.5-3-3.6c-1.2-32,4.5-64.9,0.9-96.4c4.6-21.3,0.2-41.9-5.2-62.2c-1.6-6.1,0.9-7.6,4.5-10.9
				c0.8,5.8,1.3,17.5,9.2,15.9c6-1,5.8-7.3,3.3-12.9c-7.9-18.1,15.2-12.3,12.8-30.5c-0.2-10.8-10.5-16.5-11.6-26.5
				c-0.4-3.3-1.8-5-5-5.7c-4.7-1.1-12.8-1.3-13.6-3.8c-5.1-15.5-8.5-31.4-12.7-47.2c-4.3-16-9.6-31.8-12.9-48.1
				c-2.9-14.2-10.9-27.1-7.5-43c5-30.6,8.5-59.3,10.9-91c6.4,5.8,28.5,37,35.3,29.2c1.2-4-2.4-5.3-4.4-7.5
				c-5.3-6.1-9.8-13-15.9-18.1c-10.5-8.7,1.9-11.6,8-13.7c10.3-5.5,20-9.8,31.4-1.1c7.1,5.4,15.9,8.4,23.8,12.7
				c3.7,3.8,7.4-1.5,3.7-4.5c-9-9.2-21-13.5-31.3-20.8c8.9-3,16.4-8.4,24.5-13c4.3-2.2,7.5-6.5,14-4.8c11.3,3,22.9,4.7,34.4,6.7
				c1.4,0.3,3.8,1.1,4-2.1c2.5-6.7-24.3-10.1-29.8-13c17.2-10.5,30.3-30.4,53-24.8c2.8,0.6,5.7-0.5,5.7-3.2c-0.1-5-6.4-5.2-10.4-5.1
				c-39.8-1.3-79.6-2.5-119.5-3.8c-13.9-0.4-27.9-0.1-41.8-1.2c-7.8-0.6-17.7,4.6-23.1-2.2c-13.6-19.1-39.1-7.6-54.2,3.4
				c-4.4,3.9,0.6,10.2-4.3,13.3c-42.8,26.4-84.2,55.5-126.6,82.3c-14.8,7.4-26.6,18.6-39.9,27.8c-2.2,1.5-3.2,5.5-1,7.9s3.9-1,5.6-2
				c6.2-3.6,12.3-10.3,18.5-10.4c14.4-0.3,28.8,2.7,42.9,4.2c-3.1,4.8-15.6,11.8-9.3,18.4c4.4,5,7.2,0.6,10.3-2.8
				c5.8-5.5,10.8-14.3,17.5-15.9c12.7-3,26.4-2,40.8-2.6c-3.5,7-17.1,21.2-11.5,27.4c1.6,1.5,5.9,1.6,7.8-1.5
				c2.5-4.1,4.5-8.7,7.3-12.6c4.5-6.3,5.9-15.5,16.2-16.7c7.9-0.9,15.7-3.1,23.5-4.5c1.6-0.3,3.9-1.2,2.4,2.8
				c-1,4.9-8.1,22.8-1.9,24.9c8.7,1.8,9-15.4,10.3-20.9c7.5,4.3,10.5,12.9,16.8,18.8c7.2,7,12.2,15.9,17.3,24.4
				c10,16.8,28,27.4,32,49.3c6.3,31.5,15.9,62.7,25.9,93.2c0.8,2.8,1,5.1-0.1,6.3c-8.8,10.4-10,22.4-13,34.3
				c-2.3,21.5-35.7,14.5-50.2,25.3c-3.3,1.9-2.9,0.8-3.4-1.9c-2.3-12.4-4-25-9.8-36.6c-4.4-8.8-12.2-13.5-19.9-19
				c-16.3-11.8-34-20.8-52.1-29.2c-1.9-0.9-5.8-0.3-3.3-6.1c14.6-34.1-0.8-82.2-14.6-115.2c-12-24.7-44.4-11.9-65.7-10.5
				c-51.7,5.6,13.5,57.9,7.5,85.1c-6,39.7,16.6,47.3-2.2,57.6c-11.5,6.3-20,17.5-29.6,26.8c-25.2,21.6-40.6,50.1-35.9,83.8
				c1,29.8,1.3,59.2-2.4,89c0.8,5.9-17-5.4-21.2-4.1c-34.5-4.4-67.7-14.8-102.2-11.8c-22.4,0.2-73.3,12.1-76.6,38.8
				c-2.2,20,33.7,38.5,46.8,52.5c1.7,1.4,4.5,3,2.8,5.4c-11.6,9.8-29.4,9.7-44.1,8.7c-28.6-1.1-56.1-9-84.1-13.8
				c-21.8-3.1-43.4-7.9-64.4-14.5c-22-7.2-44.1-13.7-65.9-21.5c-1.5-0.3-2.9,0.2-3.7,2.6c-5.7,5.3,40.6,19.7,44.5,21
				c24.3,6.3,46.8,17.9,72.1,21.1c30.8,4.2,60.9,14,91.9,17.3c-34.5,6.2-72.2-5.4-107.4-8.5c-17.7-2.3-34.8-7.5-52.4-10.4
				c-9.8-0.7-50.6-14.8-55-7.6c1,3.7,6.5,4.7,10,5.6c38.7,9.7,77.3,19.8,117,25.2c25.1,1.6,49.4,8.3,74.6,7.4
				c24-0.3,79-0.9,79.2-33.5c-1.7-10.5-9.4-18.2-18-23.9c-14.5-9.6-14.9-23.5,0.5-30.5c16.2-7.3,34.1-4.3,51.2-4.6
				c28.7-0.5,57.4,1.3,85.4,9c6,1.6,14.6,1.3,16.8,7.7c4,12-3.9,11.3-12.3,9.3c-31.2-6.3-159.5-36.7-99,31.3
				c23.1,27.9-8.6,48.2-34.9,49.2c-30,3-60.5,4-90.3-0.6c-56.7-6.9-113.4-15.3-170-22.9c-2.3-0.2-6.1-1.3-6.6,1.8
				c-0.4,2.8,3.7,4.3,6.6,4.8C34.7,1070.6,69.8,1077,105.2,1081z M681.9,514.8c16.4-16.1,28.5-1.1,42.6,5.2
				C694.1,532.7,693.8,532.6,681.9,514.8L681.9,514.8z M651.5,528.2c-1.3-4.8,6.5-5,10.4-7c13.1-6.7,16.1,7.1,23.7,11.7
				c7.8,3.4-24,10.7-27.1,12.8C650.1,542.3,653.1,533.7,651.5,528.2L651.5,528.2z M736.4,514.2c-4.7,2.4-9-4.4-13.7-6.6
				c-4-3.2-8.9-5-13.5-7.2c3.1-1.9,6.8-3.3,9.2-5.8c10.1-10.4,20.3-2.9,30.5-0.7c5.9,1.2,11.8,2.5,18.1,3.8
				C757.9,505.7,746.6,509,736.4,514.2L736.4,514.2z M787.8,468.7c7.1,1.3,14.7-0.8,22-0.3c-7.3,9.3-17.9,15.2-28,20.9
				c-7.1,3.8-13.3-1.3-19.7-2.8c-6.9-1.7-14.5-1.6-20.3-6.2C753.9,464.4,770.3,465.3,787.8,468.7L787.8,468.7z M743.5,466.8
				c-15.1,11.1-29.7,11.2-55.3,0H743.5z M678.8,477.2c12,2.3,23.9,5,35.6,7.5c-15.5,18.1-28.8,2.6-41.2-5
				C675.1,478.8,677.2,476.9,678.8,477.2z M664.7,487.6c7.3,4,15.9,7,21.9,12.9l-11.7,5.5L658,488.1
				C660.3,487.9,662.9,486.8,664.7,487.6z M650.3,495.3c4.8,4.6,9.3,9.5,13.4,14.7l-15.3,5.7C645.9,510,635.8,482.1,650.3,495.3
				L650.3,495.3z M630.9,498.2c4.3-0.9,6.4,12.5,6.2,19.5c-0.1,2.2-8.3,4.1-12.9,6c-0.6-1-1.2-2.1-1.7-3.1
				C628.5,513.8,620.3,500.3,630.9,498.2L630.9,498.2z M577,504.7c-21.6,18.8-36,45.8-69.2,36C529.7,529.9,546.6,507.4,577,504.7z
				 M500.7,569.8c-12.3-1.4-24.8-0.3-35.6-0.3c16.5-17.3,38.8-22.6,63-18.3C518.9,555.7,517,571.6,500.7,569.8L500.7,569.8z
				 M574,550.9c-9.8,14.9-26,20.9-46.1,17.5c10.6-17.1,29.2-27.7,49.2-24.3C576,546.4,575.3,548.9,574,550.9z M561.8,534.5
				c7.8-8.2,16-17,24.4-25.7c1.5-1.6,4-3.9,5.4-3.5c3,0.9,8.9-3.9,8.6,2.8c-0.1,2.5-2.3,6-3.7,9
				C589.9,531.6,575.4,538.1,561.8,534.5L561.8,534.5z M610.9,539.7c-2.5,9.4-2.5,20.7-16.4,21.3c-2.8-1.1-19.5,6.7-14.5-2.5
				c5.7-11.6,13.3-20.7,27.5-21.3C609.4,537.1,611.6,536.9,610.9,539.7L610.9,539.7z M605.6,527.8c-2.3,0.6-4.6,0.8-6.9,0.8
				c6.1-8.9,8.8-20.4,17.3-27.4c0.5,2,0.9,3.9,1.6,6.9C612.9,513.8,618.3,525.5,605.6,527.8L605.6,527.8z M617.1,552.4
				c-0.6-25.3,32.8-32.9,28.9-5.3c-6.6,8.2-18.3,5.2-27.5,8.5C615.7,556.6,617.9,553.3,617.1,552.4L617.1,552.4z M640.3,594.7
				c-6.6-9.7-16.6-17.8-21-28.7c3.6-0.4,10-2,10.3-1.1c4.9,12.6,10.8,24.6,16.4,37L640.3,594.7z M657.8,601.5
				c-5.9-13.5-16.3-25.9-19.2-40.4c3.7,1.9,9.1-4.2,10.3-0.5c4.5,13.2,7.5,26.9,11,40.4L657.8,601.5z M670.9,573h-0.2
				c0.2,6.6-0.1,13.2-0.8,19.7c-4.6-1.8-3.2-6.8-4.4-10c-3-7.8-4.3-16.1-6.2-24.2c-1.1-5.5,7.4-4,10.9-5.3
				C671.9,559.1,670.6,566.8,670.9,573z M679.9,602.8c-1-19-1.8-35.2-2.6-52.5c2.8-2.4,8-2.3,11.5-3.5
				C686.1,566.1,683.8,583.5,679.9,602.8L679.9,602.8z M489.2,1306.4c-12.2,1.6-20.9-18.7-7.5-15c10-3.3,7.8,5.3,7.5,9
				C489,1302.5,494.1,1306.5,489.2,1306.4z M506.2,1309c-10.7,0.2-10.7-9.6-9.5-14.2c2.3-8.9,13.4-7.8,20.4-11.2
				c3.4-1.6,0,4.8,2.2,6.5C518,1299,519.2,1308.8,506.2,1309L506.2,1309z M587,1279c-9.9,1.1-12-8.7-13-16.5
				c-0.4-9.9,10.9-2.1,15-4.8C607.3,1245.5,601.2,1278.3,587,1279L587,1279z M607,1269.8c-2.1,1.4-1.8-2.3-1.9-3.8
				c-0.3-8.6,0.3-13.7,10.3-12.9c5.3-2,6.7,4.9,5.4,9.4C618.9,1268.7,611.2,1266.9,607,1269.8L607,1269.8z M632.7,1189
				c2,14.7,2.8,29.6,3.9,44.4c0,0.4-1.5,1.5-1.7,1.4c-3.4-2.1-6.5,5.5-9.8,0.2c-6-15.1-10.6-30.8-16.3-46c-2.9-4.3-7.5,0.1-5.8,4
				c2.8,9.4,5.9,18.7,8.9,28c1.6,5,3.4,10,4.9,15.1c2.1,7-5.3,6.1-7.4,6.4c-13.4,2.1-26.9,3.3-40.4,4.3c-6.4,0.5-5.3-6-5.7-8.8
				c-1.9-14.9-7.5-29.4-6.3-44.7c0.3-3.9-3.9-1.4-4.9-3.5c-8.2,11.1,0.2,40.3,4.7,53.1c4.6,11.7-7.7,8.3-11.8,11.7
				c-6.3,5.3-8.9,1.3-8-6c0.9-5.9,3.4-37.4-1.8-39.2c-1.9,0.3-4.2,1.1-4.4,4.4c-0.4,11.7-2.7,23.5-1.5,35s-4.2,15.6-13.1,20.4
				c-23.4,13.7-48.4,11.2-73.8,4.8c18.1-17.4,39.1-32.7,51.4-54.5c-1.7,0.2-3.9-0.3-4.9,0.6c-8.8,8.3-17.3,16.8-26,25.2
				c-0.8,0.8-2.7,1.8-3.2,1.4c-2-1.4,0.6-1.5,1-2.3c7.4-14.6,14.7-29.2,22.3-43.6c2.5-3.3,0.3-6.2-3.3-6.3c-1.9,0.1-3.7,1.3-4.6,3
				c-13.5,22.7-25.3,46.3-41.7,67.2c-3.2-22.9,0.1-46.4-0.5-69.6c-1.2-9.5,6.4,3,9.5-4.2c6.9-17.3,24.4-7.5,37.7-7.8
				c15.5,0.6,31-1.9,46.5-2.6c6.2-0.3,36-5.8,38.4-10.6c1.8-7,4.6-9.2,7.8-9.2c4.7,0,10.3,4.6,14.7,5.2c10,1.2,20.1,7.3,29.7,6.4
				C631.8,1171.2,631.5,1180.1,632.7,1189z M582.1,961.3c30.2-4.6,18-0.2,29.7,12.2c-2.1,3.1-5.2,1.3-7.7,1.3
				c-20.2,0.2-40.4,0.1-61.2,0.1C549.2,949.2,569.2,965.6,582.1,961.3z M552.8,938.6c6.5-16.5-1-30.9,21-22.2
				c14.9,1.4,11,18.3,19,26.1c2.5,2.5,3.5,6.5,5.5,10.5c-12.4,0-25-1.3-37.3,0.3C543.6,955.5,551.2,945.8,552.8,938.6L552.8,938.6z
				 M578,1024.4c1.7,26.3,9,47.7,19.1,68.3c1.6,3.2-2.3,3.1-3.8,4.1c-9.8,6.5-14.4,3.2-16.3-7.9c-1.9-11.3-5.5-22.4-7.3-33.7
				C568,1045.1,575.5,1037,578,1024.4z M563,1041.8c-8.4,18.8-16,38-24.5,56.8c-3.5,2.1-14.6-2-18.5-4.3
				c15.2-28.7,29.4-59.2,42-89.3c2.7-5.9,1.5-15.1,12.3-14c2.3,0.2,3,0.9,2.1,3C570.1,1009.4,569.9,1026.5,563,1041.8z M554.6,991.1
				c0,4.8,1.6,10.5-0.4,14.4c-5.7,10.9-7.8,23.7-14.1,33.6c-9,17.9-18,35.1-26.5,53.1c-1.7,3.6-0.3,5.4,3.2,8
				c31,23.2,36.8-15.9,47.3-37.3c13.5,55.4,13.1,40.6-3,95.7c-2.4,9.7-9.7,2.5-14.4,4c-28.2,6.5-58.4,5.6-87.2,6.2
				c30.6-49.4,59.5-100.6,73.6-157.6C541.2,991.7,531.6,990.2,554.6,991.1L554.6,991.1z M641.6,1156.9c0.7,7.7-58.2-4.1-66.3-4.5
				c-10.8-2.8,0.6-11.1,0.9-14.5c0.8-8.1,3.5-16.6,4.6-25c0.5-3.6,2.1-5,4.9-5.7c40.9-7.7,1.8-31.7,1.3-69.7
				c-1.4-12.1-2.9-24.2-3.9-36.3c-0.5-6.5,1.3-10.9,9.7-10.4c16.2,3.4,33.1-11.2,32,11.4C623.5,1054.3,627,1106.7,641.6,1156.9
				L641.6,1156.9z M716.7,921.1c0.9,26.8-5.7,54.6-1.7,80.9c-16.4-42.9-27.3-90-30.9-134.8c6-4.8,12.6-9.1,18.3-14.2
				c9.7-8.7,9.3,0.7,10.3,5.7C717,879.2,717.2,900.2,716.7,921.1L716.7,921.1z M738.8,811.3c-4,6.1-11.3,2.2-16.3,5.3
				c-1.7,1-3.5-3.7-3.3-3.8c5-2.2,10.1-4.1,15.3-5.7C737.5,806.3,737.5,809.5,738.8,811.3z M732.3,798.7c-3,4.8-9.8,2.5-13.9,6.1
				c-1.1-1.3-3.4-2.8-3.1-3.8c1.7-6.4,8.2-3.4,12.2-5.8C729.1,794.3,732,794.7,732.3,798.7z M722.3,781.4c3.2-0.7,6.6,4.2,5.2,5.2
				c-3.9,2.7-9.1,3.5-13.7,5c-2.9,0.3-3.9-2.1-3.3-3.5C712.5,782.8,717.8,782.3,722.3,781.4L722.3,781.4z M693.1,814.7
				c2.6-8.6,5.6-17.1,8.4-25.6c8.4,11.2,6.6,26.7,17.6,36.2c0.3,0.3,0.4,1.4,0.2,1.5c-4.8,2.4-15.8,15.5-19.6,13
				C694.6,832.8,690.2,824.3,693.1,814.7L693.1,814.7z M683.1,828.2c0.1-0.6,0.8-1.2,1.3-1.8c4,4,3.7,10.1,6.4,14.8
				c5,6.9-4.4,7.9-8.6,11.1C679.5,843.8,682.4,835.8,683.1,828.2L683.1,828.2z M564.7,793.7c0.6,2.5,0.2,9,4.2,7.8
				c7.7-1-4.6-38.7-0.8-44.8c8.1,3.5,15.5,8.5,23.5,12.3c10.7,5.4,2,12.7,0.4,17.4c-3.7,10.5-4.8,21.4-6.8,32.1
				c-0.3,5.5-5.6,30.5,1.3,31c2.9,0.1,2.2-3.1,2.8-5.4c5.1-22.2,4.8-45.6,14.6-66.6c21.9,10.4,20.7,35.2,26.8,55.1
				c0.6,2.2,0.1,2.9-1.6,4.7c-11.9,14-35.6,32.3-36.3,51.4c18.7-12.5,37.8-54,61.9-59.3c-0.2,1.4,0.2,3.3-0.5,4.1
				c-11.9,12.5-17.3,28.7-24.9,43.6c-4.6,8.9-8,18.5-11.8,27.8c-0.9,2.3-0.7,4.8,2.1,5.8c2.4,0.9,3-0.3,4-2.6
				c11.8-22.1,28-73.6,51-82.9c-2.8,53.5,7.6,107.3,23.9,158.5c3.7,11.5,12.8,21.9,10.4,34.7c-1.9,10.3-6.3,20.1-10,30
				c-0.8,2.1-2.7,3.7-5,1.2c-35.9-30.5-64.6-68.2-88.9-108.6c-21.7-39-41.3-80.1-45.9-125c-1.3-7.4-1.4-22.9-6.1-28
				c-6.1,5.9-3.9,15.9-2.3,23.6c4.9,31.4,11,62.9,25.9,91.5c1.4,2.5-1.7,1.7-2.8,1.7c-7.3-0.1-12.8-0.2-19.5-7.1
				c-7.1-7.3-21.1-7.5-31.4-12.3s-8.6-16.6-11.4-25.4c-9-29.4-15.8-58.8-22.4-89c25.7,22.1,49.9,15.1,69.6-10.6
				C560.8,772,562.9,782.8,564.7,793.7z M489.1,726.5c-0.9-6.1-2-12.3-2.3-18.4c0.1-2.1,1.1-3.8,5-4.3c4.9-0.6,4.1-5.5,1.5-6.7
				c-8.1-3.8-4.5-10.5-3.6-15.2c0.7-7.2,19.4-14.6,25.6-12.8c20.4-1.5,23.7,11.7,27.1,31.1c2.1,11.7,7,24.8-1.4,36.7
				c-6.4,9-12.7,19.4-25.2,19.8C503.8,756.5,490.4,739.2,489.1,726.5L489.1,726.5z M483.7,757.2c8.4-8.9,10.8-2.1,18.8,2.2
				c15.1,7.9,31.2,4.8,41.3-11c5.3-8,8.2,2.8,12.4,0.9c-7,10.9-18.4,18.2-27.6,27.2c-0.7,0.8-3,0.7-3.6,0.5
				c-15.5,0.2-24.4-8.9-34.8-15.1C488.9,760.3,482.4,759.4,483.7,757.2L483.7,757.2z M450.7,787c6.6-4.6,12.1-11,18.1-16.7
				c-1.9,24.2-11.5,48.9-0.2,77.8c0.7-28.4,3.9-56.7,9.5-84.6c10.8,41.4,19.2,76.9,30.4,114.9c-18.8-4.6-35.3-15.6-47.6-29.7
				C445.1,831.3,422.1,804.5,450.7,787L450.7,787z M397.9,974.4c-37.3-12.3-77.2-16.4-116.2-13c-17.4,1.1-36.8,0.3-48.3,18.5
				c-2.2,2.6,0.3,9.4-3.1,8.3c-3.9-1.3-7.5-6.8-8.8-11.2c7-29.8,86.8-35,112.2-29.5c24.1,3.5,48.8,4.9,71.9,13.8
				c7.3,2.8-0.3,10.3,3.2,14.7C404.7,979.1,401,975.5,397.9,974.4z M406.8,1054.2c11.7-57.9,14.4-117.3,13.7-176.3
				c-1.4-20.8-0.7-41.9,6.3-65c19.9,53.5,64.5,73.5,113.3,88.6c-24.8,16.8-54.3,22.8-83.6,25.7c-5.1,0.1-5.3-1.9-5.6-5.6
				c-1.3-10.2-3.1-31.8-13-36.5c-0.3,1.7-1.4,3.6-0.9,5c8.1,23.9,8.4,48.7,7.9,73.5c0,2-1.6,5.5,1.5,5.8c1.3,0.1,4-3.6,4.3-5.8
				c1.2-8,1.9-16.2,2-24.3c0-5.2,2.3-5.6,6.3-5.7c28.3-0.8,56.5-7.7,81-22.4c-9.7,14.2-21,27.2-33.7,38.7
				c-14.3,12.8-30.7,22.7-45.5,34.7c-1.7,1.3-2.1,4.2-3.2,6.3c2.2,0.7,3.7-0.1,5.8-1.3c30.6-15.4,54.3-37.5,77.2-62.6
				c-17.4,88.5-54.5,170.7-98.1,249c-5.9,10.1-13.9,2.2-19.7,0.5c-30.7-9.1-59.8-22.5-88.8-36.2c-6.2-3.3-27.8-12.1-14.3-18.7
				c29.3-21.6,54.7-43.7,78.1-72.2c-4.5,23.4-8,40.4-13.1,61.8c-0.3,1.8-1.7,5.7,1.6,5.7c3,0,5.5-2.7,6.4-6.2
				C397.7,1091.7,402.6,1073,406.8,1054.2L406.8,1054.2z M320.6,1459.7c-1.8,8.7,14.8,12.1,15,3.5c-0.6-7.2,19.7-9.6,25.4-12.1
				c40.3-8.9,32.1-33.4,20.3-60.9c-4.7-21.6-25.5-33.2-45.4-24.3c-1.9,0.9-4.3,1.7-4.5-0.6c-6.8-32-21.7-62.2-38.3-90.1
				c-4.8-7.6-13.9-13.8-5-25.9c13.5-21.5-3.1-48.2-20.5-62.6c-29.6-23.7-4.1-46.3-13.2-57.1c-4.9-1.5-16.2-1.7-11.9,7.2
				c5.4,7.9,2.1,18.4-0.4,26.7c-13.8-6.2-13.3-30.5-23.9-28.8c-8.5,0.2-11.9,17-3.1,17.3c10.8-0.1,8.7,11.9,15.5,15.3
				c0.9,0.5,0.8,3-1.1,2.9c-6-0.4-12.3,2.7-17.9-2.2c-2.5-2.2-5.9-2.1-8.7-0.3c-3.5,2.3-1.9,6.1-1.9,9.2s2.9,4.4,5.6,4.1
				c6.3-0.7,12.8,1.4,19.1-1.6c1.6-0.8,4.8-2,6.8,1.5c4.7,8,9.6,15.8,14.9,23.5c5.4,7.9,12.7,15.1,8.6,26.5
				c-10.5-6.1-14.7-19-25.9-23.9c-12.2-6.5-26.4-4.3-39.7-5.5c-5.2-0.5-14.1,2.3-17.2,9c-4,8.7-9.5,16.3-14.6,24.2
				c-6.8,8-13.3,16.6-8.9,28.6c3.4,13.8,11.8,26.3,9.5,41.4c-0.5,3.1,4.1,8.4,0.5,9.4c-21.4,3.3-29.5-19.6-33.4-36.5
				c-5.4-16.3-7.3-29.9,5.5-43.2c3-3.1,2-7.9-0.4-12c-2.6-4.3-6-1.5-8.8-1.2c-1.4,0.2-3.6,3.5-3.4,5.1c1.1,9.4-7.7,14.3-9.1,22.6
				c-1.8-8.8-9.1-16.1-5.1-25.8c1.7-4-1.2-6-4.8-7.5c-6-2.8-12,6.3-8.8,10.7c6.1,9.5,3.6,20.8,7.4,30.7c1.1,3-1.3,4.6-4,3.6
				c-3.5-1.3-6.5-3.8-10-5c-4.2-1.4-7-8-12.7-3.8c-2.9,2.1-4.1,6-2.9,9.4c2.3,6.4,8.5,2.1,12.4,3.9c5.6,2.7,15.4,1.9,16.4,7.4
				c7.2,41,12.6,89.3,65,84.4c2.1-0.2,4.4-3.5,6,0.8c8.9,23.3,20.1,45.4,34.7,65.8c2.3,3.1,13.5,9.1,1.4,12.6
				c-8.7,2.4-19.3,6.2-28.9,4.8c-8.9-1.7-3.8-22.2-5-29.6c0.2-4.9-2.8-6.3-6.7-6.5c-10.6-1.1-2.6,21.2-3.1,29.5
				c-6-6.4-11.7-10.7-14.8-16.5c-2.4-4.4-4.4-5.5-8.8-5.2c-2.1,0.2-3.1,0.8-2.9,2.9c0.3,4.6-1.8,12.3,3.3,12.6
				c9.1,0.5,9.6,8.3,15.3,12.2c-6.4,0.6-12.1,2.4-17.2,1.2c-8.4-1.9-11.8,6.2-4,9.5c5.9,3.5,10.8-2.3,16.6-0.9s12.3-5,18.1,3.7
				c10.9,16.2,35.8,19.3,52.4,9.5c44-32.4,85.8-66.3,141.8-31.2c-9.6-3.4-20.5,2.5-29.5-3.8c-3.8-2.6-6.5-1.6-9.3,0.3
				c-3.3,2.3-1.5,5.9-1.2,8.7c-0.2,6.5,28.8,2.1,35.3,3.3c-11.3,5.2-20.5,9.8-30.1,13.7C323.6,1455.9,320.8,1455.7,320.6,1459.7z
				 M254.2,1196.9c-3-5.1-8.8-8.6-9.1-15.2c-0.1-1.8-0.9-4,1.8-5.1c3.1-1.3,2.6,2,3.3,2.9c10.7,12.3,20.9,25.1,31.4,37.6
				c6.9,9.4-1.5,21.1-4.7,32.4c-0.2,0.5-1,0.7-1.5,1.1c-3-6.5-13.6-7.6-10.8-18.8C267.9,1218.9,260.7,1207.8,254.2,1196.9
				L254.2,1196.9z M157.4,1346.9c-41.7,0.6-45.1-42.5-51.2-74.8c-0.6-2.5-0.9-5.9,2.3-6.8c3.4-0.9,5.5,1.6,6.4,4.8
				c4.8,22.8,11.3,57.7,41.4,55.3c10.8-0.6,5.3,12.8,8,19.4C165.4,1349.2,159.4,1345.3,157.4,1346.9L157.4,1346.9z M347.4,1408.1
				c-24.7-12.7-54.5,7-58.6-32.8c-10.5-47.7-41.9-86.4-68.6-125.8c-1.4-2.2-3.6-6.2-7.3-3.8c-7.2,4.6,9,19.2,11.4,24.7
				c28.5,39,48.2,83.6,61.1,130c0.9,3.1,1.1,5.6-3,7.3c-36.3,12.6-61,66.3-104.1,47c-2.4-1.1-5-4.7-4.9-7.1c0.1-1.2,0.6-1.6,1.4-1.6
				c16.3,4.8,32.3-0.7,43.8-12.4c3.7-3.7-2.1-6.9-4-9.3c-23.5-32.7-42.6-69.1-45.9-109.8c-2.1-70.3-32.5-36.4,11.2-95.4
				c2-2.9,3.1-3.3,5.4-0.1c3.2,3.3,13.4,20,18.2,16.7c4.4-4.6-8-16.8-9.6-21c6.8,0,14.2-0.6,21.4,0.3c2.7,0.3,11.1-4.6,8.1,6.3
				c-1.2,4.2,5.9,7.6,10.7,5.5c4-1.8,5.1-0.1,7.4,2c40.2,35.1,63.8,82.6,81.4,132.1c3.2,7.8,6,13.4,17.3,11.8
				c13.7-1.9,32.7,17.1,34.9,31.1c1.2,7.6,7.5,14.2,4,22.9c-0.9,2.3-0.8,2.6-2.9,1.1C366.7,1421,357.3,1414.2,347.4,1408.1
				L347.4,1408.1z M353.7,77.1C364.3,56,379.6,34.9,382.3,11c1-12,6.5-10.5,13.5-7.3c25.6,11.5,49.2,27.5,76.5,35
				c7.9,0.6,4.7,8.3-1.7,6.1c-26.3-4.5-48-21.5-71.9-31.4c15.4,35,54.8,49.3,85.1,68.4c1.5,0.8,4.1,2.5,2.8,5
				c-2.4,4.4-6.2,0.5-7.6-0.3c-20.4-10.8-41.4-21.4-59.4-35.4c11.1,40.4,53.5,62.7,89.6,78.5c1.5,0.4,3,2.7,1.6,4.6
				c-3.4,4.4-8.5,1.2-10.9-0.1c-18-9.8-37.8-17-52.8-31.9c-0.7-0.7-2.2-0.7-3.4-1c9.8,38.1,45.9,56.6,78.1,72.3
				c1.9,1.2,6.3,2.1,4.6,5c-2.4,4-7.5,3.6-11,1.6c-16.1-9.2-32-18.9-51.2-30.4c8.9,10.6,9.3,22.1,18.1,29.5
				c10.7,8.9,20.6,18.7,31.6,27.3c4.9,5.5,28.9,14.4,28.3,19.4c-0.3,11.7-49.8-24.8-53.5-30c1.1,15.1,12.6,22.8,20.1,33.2
				c10.1,13.7,22,26,35.4,36.5c3,3.7,16.1,8.4,12.5,13.9c-9.7,4-46.6-34.9-52.5-44.3c3.7,19.1,20.9,43.4,32.5,59.9
				c7.1,10.1,15,19.6,23.8,28.2c0.9,0.9,1,3.8,0.2,5c-11.2,0.7-30.3-30.3-37.8-39.3c6.3,20.3,10.1,39.2,13.6,59.7
				c0.2,1-0.6,2.1-1,3.1c-13.1-23.9-14.5-52.5-27.6-77.1c-1.8,8.6-7.1,47-17.9,45.7c-2.7-1.4-1.1-6.2,0.5-9.5
				c7.7-17,8.7-34.6,8.3-53.2c-0.3-11.6-5.9-20.3-8.9-34.8c-0.5,12.6-10,62.4-21.3,59.9c-3.6-1.7-0.4-4.4,0.5-6.6
				c7.5-18.8,10.5-38.5,13.7-58.5c2.1-13.1-8.9-20-8.4-31.2c-4.9,21.7-7.4,44.6-19.3,63.8c-3.3,6.1-0.1,12-10.2,10.5
				c4.6-18.7,14.7-35.9,17.5-55.3c1.9-11.9,6.8-25.1,3.7-35.6c-3.3-10.8-8.1-21.2-14.3-30.7c-0.9,11.3-17.8,93-31.1,84.8
				c-2.1-1.4-0.7-2.1,0-3.8c7.3-17.8,13-36.1,17.1-54.9c8.1-33.2,10.9-40.9-7.7-71.9c-8.1,33.4-19.8,65.5-41.5,89.5
				c-3.3-8.9,4.8-14.6,7.7-22.3c18.1-39.6,41.9-75.1,9.5-114.3c-3.8,29.5-18.5,55.7-33.8,80.6c-3.9,4.6-10.2,21.7-16.6,20.1
				c-3.9-1.3-0.6-3.5,0-4.6c19.1-33,39-67.1,43.8-105.6c1.5-5.3-8.5-30.4-10.8-16.9c-3.2,22-16.8,39.4-26.2,58.5
				c-6.2,12.6-14.5,24-24.6,33.7c-0.9,0.8-1.2,2.3-2.5,0.8c-1-1.1-2.6-2.3-1.1-4.3C341,98.8,347.8,88.2,353.7,77.1L353.7,77.1z
				 M249.1,55.2c1.5-5.5,5.1-10.5,11.3-12.1c0.4,1.2,0.7,2.3,1.4,4.6c-9.4,12-10.2,27.9-17.4,41.9c-34.2,60.1-89,104.1-131.7,157.3
				c-5.4,6.9-9-2.5-4.7-6.5c27.2-33.6,57.1-64.9,85.1-97.7C216.1,116.3,239.4,89.6,249.1,55.2z M181.1,1256.4
				c0.1,3.6-1.2,7.1-4.6,6.3c-3-0.6-9.4,0.2-7.6-6.2C167.3,1246,182.9,1246.2,181.1,1256.4L181.1,1256.4z M0,366.4l-1.5-2.6
				c10.7-29.4,26.8-55.6,45-80.9c9.3-12.8,64.9-94.2,78.3-84.5c3.1,3.9-6.5,9.5-11.1,13.2c-20.5,20-35.4,44.7-52.3,67.7
				c-10,13.7-19.3,27.8-28.6,42c-7.8,11.8-13.9,24.6-20.9,37c-2.2,3.6-4.3,7.6-8.4,9.4L0,366.4z M-2.7,475
				c6.5-31.1,29-55.8,40.6-84.3c12.1-35.7,82.7-73.2,115.7-92c37-24.4,55.1-36.5,101.5-38.6c-13.6-2.4-25.9-5.4-38.5-0.9
				c-19.5,6.9-40,10.8-58.6,20.1c-15.3,7.7-29.9,16.8-45.1,24.7c-5.4,2-35.3,18.7-36.4,12.1c-0.7-5.1,4-9,7.5-10.5
				c36.5-13.1,56.6-48,78.3-77.9c17.3-25,38.1-48.5,64.2-64c15.5-9.4,32.2-16.5,42.3-32.3c18.6-34.4,19-76.6,46.2-106.8
				c3.3-3,5.4-10,10.6-7.1c4.9,2.7-0.5,6.8-2.4,9.4C307.9,46,301.1,69,293.5,91.6c28.1-24,54-45.6,59.6-86.2
				c0.6-1.7,2.6-2.9,3.9-4.3c10.9,7.4-3.8,37.4-12.6,53.7c-16.8,28.9-40.7,28.2-54.9,63.3c-19.1,46.4-73.6,52.9-100.2,93
				c-17.8,24.2-36.2,43.9-51.9,70.1c16.2-12.1,33.4-15,47.7-23.1c4.9-2.8,8.5-13.7,11.4-21.3c8.3-17.1,27.4-38.6,43.9-48
				c3.6-2,7.8-3.9,9.9-0.7c2.4,3.6-3.1,3.8-5,5.7c-19.1,17.7-36.8,37.1-47.8,60.8c8.9-0.1,17.2-6.3,26.6-6c8.4-0.4,7.5-8.9,11-13.5
				c15.8-20.9,34.6-38.1,58.2-49.5c2.4-1.1,7.1-3.3,8.8,0.2c1.4,2.9-3,4.4-5.3,5.6c-23.8,13.2-44,32.8-59,55.4
				c6.6,1.5,18.5,6.7,23.9-0.3c12.8-15.8,26-31.5,42.7-42.4c9.9-6.5,21-11,32.7-13c2.1-0.4,5.4-4.9,6.4,0.4c0.7,3.7-2.9,4.9-6.3,5.9
				c-29.1,8.6-49.8,30.4-68.6,53.4c-2,2.4,1.1,5.3,6.3,6.2c2.4,0.4,5.2,0.6,6.9,2c9.6,7.5,12.8-2.5,16.8-6.8
				c13.1-14.1,28.4-23.8,45.7-32.3c11-5.3,22.7-8.1,34-12.4c3.5-1.4,5.3,1.9,6.1,3.7c1.6,3.5-2.2,1.6-3.4,2.1
				c-31.3,9.5-60.4,26.4-82.7,50.2c30.4,3.5,55.7-17.5,85.7-18.3c10.2,0,35.8-5.2,42.3,3.1c-28.2,4.4-58.7,3.3-85,15.9
				c36.5,19.3,81.9,10,120,26.1c2.8,1.6,9.2,0.9,7.5,6.2c-3.3,7.5-25.4-3.3-32.5-3.7c-17.6-4.4-35.8-6.7-53.5-9.6
				c13.9,18,34.6,23.2,54.8,29.8c16.8,5.9,33.2,12.9,49.1,20.9c1.8,1.1,5.4,2.5,3.8,5.4c-3.4,6.9-30.4-9.2-37.4-10.8
				c-12.9-4.6-25.5-12.3-38.7-15.2c10.5,20.3,27.7,35.3,45.8,47.2c8.8,5.6,18,10.4,27.6,14.5c5.1,2,9.9,4.1,12,9.6
				c-9.6,3.8-44.4-17.1-53.9-23.2c-0.6,1.9,6.7,23.2,8.7,25c12.8,11.5,25.1,23.5,39.5,33.1c2,1.3,4.4,3.6,2.4,6.2
				c-6.5,6.8-32-20.6-38-26.2c5.3,18.1,10.3,34,15,51.4c1.1,6.8,7.5,25.2,5,30.3c-1.9-2-4.9-3.7-5.4-6c-4.7-22.5-13-43.8-19.8-65.6
				c-0.3-5.6-3.7-5.1-4.3,0.8c-2.3,10.8-4.1,21.8-6.9,32.5c-0.7,2.8-1.6,8.9-6.2,7.4c-5.8-1.9-1.4-7.4-0.5-10.2
				c11.8-59.2,15-47.4-12.5-101.2c2,10.5,6.1,58.1-4.4,56.8c-2.5,0.3-1.5-2.1-1.6-3.3c-0.6-32.2,6-75-29.6-91.2
				c-0.5,4,0.8,7.5,2.3,11c2.9,4,9.4,61.1-2.6,44.8c-0.8-19.5-4.1-38.7-9.9-57.3c-9.1-23.5-44-28-67.5-29.2
				c23.9,14.8,38.5,34.2,44.4,59.2c10,34.4,39.9,55.2,61.7,81.5c6.3,28.2-53.9-48.9-57.3-53.6c2.4,49,6.2,54.5,40.1,90.2
				c4.7,5.6,11.9,11.1,12.3,18.8c-13.8-1.2-41.2-39.7-48.8-52.2c-14.1,36.5,31.5,73.7,56.8,97.1c2.3,2,8,3.2,5.5,6.6
				c-2.6,3.6-7.9,1.2-11.1-1.4C391,499.6,375.2,479,357,457.1c1,14.3-5.6,28-2.9,39.9c9.6,27.1,36.2,48,55.2,69.3
				c7,10.4-8.3,4.7-11.1,0.7c-18.1-16.7-34-35.7-46-57c-12.5,35.7,27,75.3,48.7,102.5c2.1,2.3,3.7,5.8,1.3,8s-3.9-1.6-5.6-3.1
				c-21.8-18.3-35.5-42.9-48.4-67.8c-12.6,30,23.9,70.4,41.6,94.6c3.7,5.2,10.5,7.8,8.9,15.3c-22.9-6.1-43.7-51.1-54.2-71.6
				c-14.6,44,25.7,81.8,48.7,114.8c1.1,1.1,3.5,3,0.7,4.9c-6.2,3.6-9.2-3-12.3-6.6c-15.8-19.7-30.3-41.3-41.6-63.7
				c-10,35.3,14.9,68.5,36.1,94.7c3.1,4,7.5,6.7,7.4,12.4c-14.1,0.5-43.6-45.2-45.2-58.8c-7,53.2,8.7,63.5,32.6,105.8
				c-3-0.3-5.4-0.6-7.1-3c-10-9.8-18.7-20.4-22.7-34.3c-0.5-1.6-2.1-2.8-3.1-4.2c-0.6,0.9-1.8,1.8-1.7,2.6
				c-0.6,32.4-3.7,40.9,18.5,68.3c2.4,4.5,15.7,18.4,12.9,22.3c-2.5,2.2-4.2-1.4-5.9-2.8c-11.6-9.8-16.4-21.2-25.6-34.9
				c4,31.2,7.8,53.8,13.1,83c1.3,6.1-3.6,8.3-5.9,1.3c-3-12.2-6-24.3-8.8-36.6c-3.7-15.2-5.6-23.7-5.5-41.4
				c-4.9,18.9-7.9,31.6-14.1,48.7c-0.2,0.7-1.5,0.9-2.3,1.4c-3.3-7.8,4.3-33.3,7-42.3c8.1-21.7,7.7-43.8,6.6-66.6
				c-3,10.8-35.4,57.2-46.3,55.3c1-10.3,12.4-16.6,17.7-24.7c12.8-21,35.3-38,28.7-67.1c-1-4.5,0.7-9.5,1.4-18
				c-5.5,10.1-48.5,75.3-55.5,63.3c-1.7-3.1,0.8-5.5,2.4-7c18.6-16.5,31.6-37.7,45.5-58c4.2-6.1,7.6-13.4,7.3-22.2
				c-0.5-12.8,1.1-25.7,1.8-39.7c-8.4,8.2-52.3,86.6-58.1,72.1c-2.6-4.3,5.6-9.7,7.3-13.8c23-35.6,60.4-65.9,54.6-112.6
				c-11.6,15.2-45.3,69.7-60.3,70.6c-1.6-2.1-0.2-6.9,2.5-9.1c13.6-12.2,24.2-26.8,34.1-42c18.8-26.8,26-24.5,29.5-60.6
				c-7.6,8.3-45.8,52.7-53.9,47c-2.7-3.3,0.9-5.7,3.5-7.9c18.4-15.6,35.9-32.4,50-51.9c4.6-6.4,3.6-16.9,5.6-28.1
				c-9.5,10.2-17,18.6-24.8,26.7c-8.7,8.9-19.6,14.9-30,21.3c-1.9,1.2-4.7,0.2-5.8-2.4c-1.4-3.8,4.6-4.6,6.6-6.9
				c21.6-16.9,61-43.6,56.5-74.2c-6.9,5.4-41.2,38.8-48.8,30c-2.2-2.8,0.1-4.3,2.2-5.3c18.5-9,33.3-23,47.4-37.3
				c6.4-10.9,2.9-30.2,3.7-43.5c-12.2,12.1-21.4,26.6-37,34.2c-1.4,0.6-1.6,2.5-3.4,0.1c-1.5-2.1-1.6-3.1,0.2-4.9
				c10.9-10.9,21.7-21.9,32.6-32.9c8.6-8.6,9.5-18.5,6.1-29.8c-1.9-6.8,1.5-14.7-3-21.1c-9.2,11.2-12.9,26-25.1,35
				c-4.4,3.8-8.9-1-4.8-5.2c11.3-13.7,21.4-28.5,27.7-45c3.6-9.3-4.5-17.3-7.8-25.7c-1.5-5.2-7-16.6-9.7-5.4
				c-3.5,5.6-16.1,44.1-23.2,37.4c-6-3.1,0.6-9.1,2.6-12.6c5.2-10.8,11.3-21.3,14.5-32.8c3-10.4-7.3-13.3-13.2-17
				c-21.3-14.1-45.1-13-70.1-10c21,14.1,40.5,10.5,57.6,32.8c0.4,0.5-0.2,2.8-0.3,2.8c-16.7-1.2-27-18.8-45-20.6
				c9.6,27.9,29.3,46.2,50.1,64.1c1.7,1.5,4.6,3.3,2.9,5.4c-8.8,9.5-40.1-30.6-44.6-38.4c-8.2,35.4,33.9,59.1,50.8,84.6
				c-2.4,0.1-5.6,1.4-7,0.3c-17.4-12.5-30.2-29.1-43.2-45.8c-10.9,42.8,23.9,73.4,42.9,106.3c0.6,1,3.3,2.5,0.5,3.8
				c-11.2,1.6-29.3-32.5-35-41.8c-4-7.4-8.4-14.5-10.7-22.7c-3.8-9.8-6,4.1-7.2,8c-10.1,41.5,16.3,78.5,36.5,112.1
				c1.3,2.2,2.9,4.8,1,5.7c-2.2,0.9-6-0.4-7.1-1.9c-14.3-20.3-28.5-40.5-33-65.8c-0.6-3.2-4.3-5.4-5-9.7c-2.1,5.9-3.9,11.9-6.3,17.6
				c-12.1,33.2,19.8,76.8,37.6,103.7c1.1,1.5,4.4,4.4,1.5,6.4c-9,2.9-22.9-24.4-27.4-31.4c-7.3-13.1-14-26.3-18-40.8
				c-0.2-0.8-1.6-1.3-2.5-2c-16,44.6,13.3,76,37.8,106.7c1.5,1.8,4.5,3.6,2.3,6.1c-2,2.3-4.8,0.1-6.6-1.3
				c-23.5-17.7-34.7-44.6-44.3-71.5c-21.6,37,5.5,84.7,30.8,113c2,2.2,4.6,6.3,2.1,8.9c-0.6,0.7-1.5,1.1-2.4,0.9
				c-23.7-20.5-38.1-47.3-43.8-77.7c-22.4,40.1,0.2,85.5,25.5,118.7c1.9,2.9,6.1,6,4.7,9.8c-2.1,3.4-5.4-1.2-7.4-2.7
				c-22-18.3-29.5-48.3-38.8-73.3c-4.4,10.9-8.7,22.6-10.2,34.1c-2.4,37.5,23.2,69.9,43.4,99.4c0.4,0.6,0,2.5-0.6,2.8
				c-4.6,2.1-7.6-1.9-9.5-4.2c-16.4-21.4-36.3-50.9-38.6-78.5c-19.6,43.1,7.9,87.9,32,121.9c-22.9-1.9-41.3-52.1-44-74.2
				c-13.4,42.2,1.2,72.7,20.6,108c2.5,5.2,7.9,8.4,11.5,12.8c0.8,1,3.4,3,1,4.5c-14.3,0.6-25.8-26.2-31.4-37.7
				c-3.8-8.4-8-16.5-10.1-25.5c-0.1-0.6-1.2-0.9-1.9-1.3c-9.3,32.2,5.5,67.5,23.1,94.7c2.7,6.2,15.7,17.5,11.8,23.5
				c-1.6,2.1-2.4-0.6-3.3-1.4c-21.8-18.8-29.9-43.6-39.2-72.7c-0.1,34.9-0.7,63.6,17.8,92.2c3.6,8.7,14.9,22.1,14.3,30.8
				c-16.9-11.7-23.4-31.1-31.8-50.6c0.1,31.1,1.2,53.8,7.6,82.4c-0.4,10.6-7.2,4.4-7.6-1.6c-5.7-26.2-8.5-53-8.6-79.8
				c-4.8,10.5-33,63.5-43.7,61.1c-1-0.8-0.5-5.7,1-7.4c8.4-10.6,16-21.7,23-33.3c10-17.6,23.4-35.8,18.3-57.3
				c-1.3-5.2,4.3-9.9,1.3-15c-8.2,18-19.5,34.1-32.3,49.3c-4.4,3.4-15,24.7-20.3,20c-2.9-2.8,0.7-5.7,2.6-8.3
				c5.5-7.4,11.1-14.8,16.6-22.2c11.9-16.2,22.6-33.3,31.8-51.2c4.9-9.2,4.2-19.9,6.4-32.8c-5.2,10-60.2,71.2-66.1,62.5
				c-4.4-4.2,13.8-16,16.6-20c17.4-16.8,37.1-32.7,48.9-54c4.5-8.2,3.3-19.5,5-31.4c-12.9,13.9-45.4,62.1-64.3,54.7
				c-1.8-3.6,2.7-4.8,4.7-6.3c23.2-13.7,37.5-36.2,55.3-55.4c11.5-12.4,9.1-27.4,15.2-44.3c-15,18.7-57.4,71.2-80.3,63
				c1.4-3.9,4.3-5,7.6-6.6c29.1-16.7,54.9-41.8,74.8-68.3c5.4-11.8,4.8-23.2,10.3-36.8c-7.9,12.3-17.2,19.1-26.8,24.8
				c-10.6,5.1-34.1,30.4-44.9,25.3c-1.2-2.3-0.3-5.1,2-6.3c0.1,0,0.1-0.1,0.2-0.1c24.2-14.1,47-30.5,68.1-49
				c7.9-6.9,8.5-19.3,11-29.5c0.8-3-2.1-0.6-2.9,0.2c-10.7,9.7-54.9,46-67.6,36.5c-0.9-2,0.5-3.8,2.4-4.5
				c16.8-6.5,33.1-14.8,46.4-26.4c12.8-11.2,31.3-19.2,32.1-40.5c0.1-1.9,1.6-3.8,1.8-5.8c0.4-3.3,4.8-7.1,0.9-9.4
				c-1.5-0.9-6.6,3-9.2,5.5c-15.7,15.1-35.6,23-54.8,32.1c-4.2,2.1-10.4-1.7-7.9-6.3c26.6-8.2,50.9-24.3,73-41.6
				c11.1-8.5,9.2-23,14-34.4c1.7-4.1,2.7-8.4,4.3-13.5c-8.3,5.9-59,52.6-63.6,37.2c0.7-1.6,1.8-2.9,3.2-3.9
				c11.4-7.1,24-12.8,34.2-21.3c23.3-17.1,38-27.7,37.9-60.7c-7.1,8.7-51.2,55.3-59.5,46.9c-1.7-2.5,0.6-4.5,2.5-5.6
				c30.2-22.3,68-51,71.8-90.9c-11.9,8.9-55.6,55.9-68.3,46.2c7.3-9.1,20.4-12,28.9-20c10.9-8.9,19.8-20.5,31.3-28.6
				c14.2-9.9,14.5-24.4,17.4-39.8c-18.5,22.9-38.1,41.4-63.7,55.2c-2.8,1.6-6.2,3.5-8,0.1c-2-3.7,2-4.8,4.6-6.8
				c17.2-12.9,36.9-22.1,49.6-40.7c23.3-22.1,24.3-25.8,23.7-58.5c-17,23.1-34.2,45.6-60,59.3c-1.6,0.9-2.7,3.3-4.3,3.6
				c-3.1,0.5-8,1.1-9.1-0.5c-2-2.8,1.9-4.2,4.2-5.8c14.6-9.6,28.3-19.5,40.4-32.5c9.2-9.9,16-21.5,25.9-30.7
				c3-1.8,6.1-42.6-0.8-38.6c-11.4,31.1-35.3,55.1-60.2,75.6c-2.4,2-4.9,1.7-7-0.5c-2.6-2.7,0.8-3.5,1.9-4.4c5-3.9,9.8-8,14.4-12.4
				c20-19.8,37.8-41.8,48.3-68.2c2.3-4.6-10.4-16.6-18.1-17.5c-17.6-2.1-8.8,12.7-10.8,18.9c-5.3,16.5-12,32.1-21.4,46.4
				c-3.6,6.8-6.7,16.2-17.2,15.2c0.3-1.5,0.2-3.3,1-4.5c5.9-7.9,11.3-16.2,16.2-24.8c7.2-14.4,16.4-30.1,16.3-46.8
				c-17.6,3-30.4,16.3-45.7,24.1c-27.3,13.4-50.3,33.3-75.8,49.3c-19.1,12-33,27.9-43.7,46.8C29,425.4,15,451.5,3,478.2
				C0.3,484-2.9,478.8-2.7,475z M0,277.1c29.7-55.2,88.6-82.7,127.7-130C172,102.1,192.8,38.1,244.6,0.2c1.1-0.7,2-1.4,3.2-0.5
				c1.2,0.1,3.2-1.7,3.5,0.7c-16.4,21.8-38.6,40.4-52.8,64.5c-11.4,17.6-20.7,36.8-33.8,52.9c-36,52.6-89.8,87.9-133.6,133.4
				c-8.1,9.3-16,18.5-22.6,28.8C5.6,285.5-5,283.9,0,277.1z"/>
		</g>
	</g>
</g>
<g>
	<g id="Layer_1_2_">
		<g transform="matrix( 1, 0, 0, 1, 0,0) ">
			<g>
				<g id="Layer0_0_FILL_1_">
					<path d="M52,1548v15l-37,37h946l-37-37v-15H52 M52,52V37.7L14.3,0H0v1600h15l37-37v-15V52 M924,52V37.7L961.7,0H14.3L52,37.7
						V52H924 M976,0h-14.3L924,37.7V52v1496v15l37,37h15V0z"/>
				</g>
			</g>
			<g>
				<path id="Layer0_0_1_STROKES_1_" class="st8" d="M961,1600h15V0h-14.3L924,37.7V52v1496v15L961,1600H15H0V0h14.3h947.4 M52,52
					V37.7L14.3,0 M15,1600l37-37v-15V52h872 M924,1548H52"/>
			</g>
		</g>
	</g>
</g>
</svg>
