<svg xmlns="http://www.w3.org/2000/svg" xmlns:xlink="http://www.w3.org/1999/xlink" viewBox="0 0 976 1600">
<style type="text/css">
	.st0{fill:#FFFFFF;}
	.st1{clip-path:url(#SVGID_2_);}
	.st2{fill:#333333;}
	.st3{fill:#D81E1E;}
	.st4{fill:none;stroke:#333333;stroke-width:2;stroke-linecap:square;stroke-miterlimit:3;}
</style>
<g id="Paper_Backing">
	<path class="st0" d="M960,22v1556c0,3.3-2.7,6-6,6H22c-3.3,0-6-2.7-6-6V22c0-3.3,2.7-6,6-6h932C957.3,16,960,18.7,960,22z"/>
</g>
<g id="Wikipedia_Cropped">
	<g>
		<defs>
			<path id="SVGID_1_" d="M960,22v1556c0,3.3-2.7,6-6,6H22c-3.3,0-6-2.7-6-6V22c0-3.3,2.7-6,6-6h932C957.3,16,960,18.7,960,22z"/>
		</defs>
		<clipPath id="SVGID_2_">
			<use xlink:href="#SVGID_1_"  style="overflow:visible;"/>
		</clipPath>
		<g class="st1">
			<path class="st2" d="M290.3,1132.5C77,908.6-8,304,0-4c51.1,3.7,280.9-3.7,326.6,0.9c29.7,32.7,41,90,48.9,134.7
				c4.6,54.7,11.3,124.8-23.3,169.1c-38,1.7-85.3-29.3-117.8-49.2c-14.1-3.7-46.8-53.2-53.9-33.5c-1.4,41.1,1,83.3,2,125.2
				c7.9,157.1,31.1,313.4,65.6,466.9c18.6,76.2,34,155.5,45,230.8C292.6,1059.1,310.7,1134.4,290.3,1132.5z M902,1006.5
				c-16.7-11.2-14.3-38-20.4-57.5c-12.5-44.7-21.2-92.2-33.6-136c-6.7-10.7-20.8-127.2-36.3-97.9c-1.6,13.3-31.3,164.6-38.7,123.8
				c0.6-5.7-6.2-4.6-7.3-8.9c-1.6-14.5-9-28.8-7.1-42.2c-5-17.2-13.4-38.1-14.8-57.3c-21-72.6-42.5-145-70.9-217.5
				C609.4,340.9,504.3,145.5,403.1,0c-2.6-8.9,48.8-1.8,51.4-4c4-0.1,4.3,6.1,8.6,5.9c19,6.8,40.1-1.3,60.1,5.9
				c14.9-3.9,31.9-2.1,47.5,3.9c37-7.8,77.2,7.1,114.4,5.6c17-1.3,30.9,11,46.5,6.2c19.7-2.9,32.7,15.3,48.5,5.6
				c63.1,13.9,129.3,9.6,190.8,33.6c17.7-4.2,6,51.9,9.2,58.7c-1.9,10.1-48.2-7.4-58.8-7.2c-49.6-10.7-99-18.6-149-27.9
				c-111.7-20.6-31.2,13.3,5.6,48.4c85.6,67.7,155.5,172.1,180.2,279.5c-7.9,22.9-18.2,1.5-30.4-4c-28-14.3-113.9-65.1-61.1,4.4
				c25.9,42.7,48.6,89.3,64.8,135.7C974.7,651.3,973.4,930.6,902,1006.5L902,1006.5z"/>
			<path class="st2" d="M394.1,1604c-37.6,0.4-109.2-0.3-147.5,0c-10.5-2.9,4.9-12.8-1.8-19.4c-17.9-47.8-38-90.8-57.1-137.7
				c-12.2-40.1-46.2-60.2-61.9-97.2c-10.5-14.6-6.4-65.8-18.9-72.9c-13.2,0.9-24.5-7.8-30.7-14.3c-25.4-25.8-32-59.6-45.4-91
				c-11.2-23-16.6-53.9-34.7-70.8v-91c2.5-9.9-4.8-416,2.5-424.3c30.5,17,47.5,58.6,61.7,88.6c21.3,46.6,21.7,82.7,29,128.7
				c5.1,16-4.8,12-2.8,22.1c17.5,38.4,20,73.7,32,115.3c19.5,74.9,43,148.4,68.8,221.5c64.9,21.6,102.5,97.1,99.4,163.6
				c46.9,82,99.4,159,151.6,237.8C486.2,1627.2,453.5,1597.4,394.1,1604z"/>
			<path class="st3" d="M507.9,1287.7c-33.9-5.3-42.7-52.3-66-74.4c-48.3-74.6-87.6-154.7-117-238.6
				c-62.3-164.4-92.5-342-108.2-506.7c-3.4-43.8-8.7-87.2-12.4-130.8c-2.4-16-1.8-24.4,18.4-18.1c76.7,1.7,153.1,3,229.7,8
				c12.5-7.2,5.9,80,9.9,91.3c3.5,87.4,11,171.8,31.2,259c31.3,208.2,119.6,401.4,237.2,574.8c16.4,25.7-40,12.3-52,17.7
				C621.5,1274.3,565.8,1280.7,507.9,1287.7z"/>
			<path d="M978.1,66.6c-1.8,3.3-5.9,0.6-8.4-0.1c-17.3-5-33.4-14-52.2-13.7c-4.6,0.1-9.3-2.1-16.5-3.9
				c24.5,20.1,45.9,43.7,63.5,70.1c1.1,2.7,6.4,5.6,2.4,8.5c-3.7,2-3.3-1.7-4.5-3.2c-15.1-18.7-30.8-36.7-48.3-53.4
				c-18.9-21.5-21-24.8-51.4-27.2c22.6,23,41,42.2,59.3,66.5c3.3,4.9,8.2,8.8,7.3,15.4c-6.6-3.4-9.7-11.9-15.1-17
				c-18.7-21-38.9-40.7-57.8-61.6c-8.4-7.8-27.5-5.4-41-8.6c28.7,23.6,49.6,49.3,69.4,80c6.1,5.6,0.8,9.8-3.9,3.4
				c-19.3-29.2-45.2-52.7-69.4-77.5c-9.4-10.6-20.8-7.3-31-11.2c-0.7-0.3-1.6,0.1-2.4,0.2c18.8,26.4,42.1,50.2,60,77.7
				c1.3,1.8,0.4,2.3-0.8,3c-1.6,1-3,1.7-4.7-0.3c-16.4-20.3-33.2-40.4-49.4-60.9c-15.1-19.2-33-26.2-55.7-25.2
				c19,20.1,37.6,41.1,53.3,64.1c5.4,3.7-2.7,7.9-5.3,2.9c-12.6-16.8-25.8-33.1-41.2-47.9c-7.8-7.5-14.4-17.5-24.1-21
				c-11.3-4.2-24.4-3.8-37.3-5.4c20.3,21.6,39.8,41.4,56.9,64.5c1.2,1.6,3.7,3.3,1.5,5.3s-4.4,0.7-6.3-1.4c-20.2-22-40.6-44-60.8-66
				c-6.6-6.8-26.6-3.3-37.1-5.5c11.6,10.1,58.2,50.8,53,64.6c-3-2.6-6.7-4.7-8.8-7.9C658.9,55.3,642,41,625.9,26.1
				c-6.9-3.8-4-10.9-10.4-11.3c-12.1-0.5-24.1-1.3-37.7-2c13.4,14.7,60.4,55.4,57.1,72.1C615.1,66,599.2,42,578.5,23.2
				c-13.1-13.1-29-12.9-45.5-14.1c7.2,9.5,67.9,77.5,58.7,83.3c-2.7,2-3.6-1.2-4.7-2.6c-16.7-22.9-35.7-44.2-52.2-67.1
				C518.5,0.1,497.8,13.2,476,7.5c41.3,35.3,64.2,76.1,94.7,118.6c5,7.2,10.6,1.5,15.5,1.3c13-0.4,25.8,3.2,39.1-2
				c14.6-5.6,30.5-7.9,46-11.3c29.4-7.2,59.8-6.3,89.7-8c5.4-1.4,5.1,5.2-0.3,5c-46.2,6.5-89,7.3-134.4,21.5
				c21.5,0.8,38.2,9.8,56.1,11.7c21.7-0.1,44.8-9,67.4-9.3c17.5-1.3,34.8,2.1,52.1,4c3.4,0.8,8,0.8,10.1,4c-9.2,4.4-19.4,0-28.9,0.3
				c-26.6,0.6-54.1-0.4-79.9,6.6c0.5,0.8,1,2.1,1.7,2.3c14.6,3.1,26.3,15.7,42.8,12.9c20-3.4,39.8-2.2,59.6,0.2
				c9.2,1.1,18.4,2.5,27.6,3.8c5.9,0.8,11.9,1,15,6.9c-1.8,0.4-3.7,1.4-5.3,1c-15-3.4-30.3-2.8-45.4-4.5
				c-10.6-1.2-21.3,0.6-31.8-2.4c-2.2-1.1-21.9,0.3-16,4.8c13.7,6.3,23.2,21.3,39.8,20.8c28,0,55.6,4.4,83,9.8
				c3.1,1.4,4.4,7.6-1.1,5.8c-27.2-2.7-53-9-80.6-7.9c9.7,6.9,17.6,14.2,25.6,21.5c8.9,8,21.9,6.7,32.9,9.5
				c6.8,1.8,13.6,3.2,20.6,4.3c10.2,1.6,20.5,2.6,30.8,2.8c1.5,0,3,2.1,4.5,3.2c-8.5,5.7-20.2,1.7-29.9,1.8c-14.2-0.3-28-6.9-42-7
				c21.4,47.5,98.6,34.8,95.8,49.5c-3.1,7.5-21.1-2.1-28-2c-11.7-2.4-23.4-4.7-34.5-9.3c-0.5-0.2-1.2,0.3-1.8,0.4
				c14.3,33.2,50.6,36.4,79.4,49.6c1.8,0.8,4.5,3.5,2.8,4.8c-12.5,6.1-36.7-14.3-51.2-14.4c10.1,33.1,41.3,45.1,70.2,57.4
				c-10.4,4.1-27.7-5.4-39.3-9.8c13.6,31.3,36.8,60.5,41.8,94.6c-12.6-23.3-24.9-46-37.4-69.1c3.5,14.8,4.5,29.8,7.1,44.7
				c0.3,6.4,5.5,26.6,1.1,30.1c-9.7-30.1-12.5-63.4-20.3-94.5c-0.9-4.4-4.6-8.5-7.8-12c-9.4-10.1-12.3-24.7-24-34.5
				c6.8,32.4,19.2,63.2,13.6,96.3c-13.6-53.1-9.1-113-55.9-151.6c6.8,35,18,75,15.2,112.5c-0.7,5.5-6.7,7.1-4.7,0.1
				c-2.5-41.7-8.9-83-19.3-123.4c-6.9-13.4-21.8-22.7-32.7-34.2c12,41.5,21.3,82.4,23.9,125.3c0.1,1.1-1.9,3.3-3,3.3
				c-2.7,0-0.6-2.2-1-3.4c-10.3-43-13.9-87.8-28.5-129.8c-6-14.5-25.9-21.3-38.2-30.6c14.5,45.4,31.6,91,34.3,139
				c-0.2,1.1,1.1,2.9-1.2,2.8c-1.1-0.3-2-1.2-2.3-2.3c-6.1-26.4-10.5-53.4-18.6-79.2c-6.4-20.3-13-40.7-20.3-60.8
				c-4.9-13.3-17.1-12.3-24.7-19.3c-1-0.9-5.7-1.5-3.7,3.3c14.2,38.7,31.1,77.1,38.7,117.9c1.6,6-3.9,4.5-5.1,0.4
				c-4.2-27.6-17.6-52.2-25.6-78.6c-5-16.5-10.7-33.3-19.6-47.8c-6.5-8.2-26-11.6-37.5-13.9c0,0,0.1,0.1,0.1,0.1
				c-10.3-5.2-21.7-6.9-32.8-9.3c-3.2-0.7-0.9,2.4-0.6,2.9c14.2,24,24.4,50.7,31.7,77.3c2.1,6.4-4.2,9-5.6,1.6
				c-9.5-23.9-19.4-47.6-28.3-71.8c-5.1-14.1-16.3-14.1-27.8-14.3c-1.3,0-5.4,0.3-2.7,4.8c11,21.3,26.2,41.9,33.9,64.2
				c-1.3-0.3-3.2-0.2-3.8-1.1c-16.6-19.2-28.9-41.3-38.8-64.6c-5.5-11.9-15-3.7-23.6-7c18.6,23.9,32.9,50.6,44.9,77.8
				c10,22.9,31.4,23.8,48.5,33.3c8.3,5.9,23.1,6.1,29.2,13.8c-1.9,0.8-4.3,2.8-5.7,2.2c-19.2-7.8-40.2-11.2-58.5-24.3
				c16.7,36.2,14.2,36.1,51.2,48.1c19.5,9.2,40.2,15.4,61.6,18.5c0.9,0.1,1.5,1.7,2.3,2.6c-22.5,9.8-68.7-16.6-92.1-24
				c7,52.4,73.4,52.5,114.4,59.3c2.4,0.2,3.3,2.1,3.2,4.3c-0.2,2.8-2.5,1.7-3.8,1.7c-32.4,0.8-63.7-8.7-93.8-19.5
				c-1,7.6,4.3,14.5,6.3,21.7c5.8,18.2,67.6,18.8,86.3,24.2c12.3,2.2,24.5,1.7,36.7-0.4c2.9-0.5,5.5,0.7,5.6,3.4
				c0.1,3-3.3,2.1-5.3,2.9c-17.8,7-35.6,2-53-0.6c-5.8-0.9-12.8,1.4-18.1-3.3c-6.5,1.1-0.3,8,3,9.5c19.3,13,42.3,15.5,63.8,22.1
				c16.2,6.1,35.4,5.1,50.8,12.5c2.6,12.7-82.9-14.3-92.6-16.6c18.1,25.4,47.7,32.5,71.3,50.3c17.4,11.1,35.8,20.1,54.9,28
				c3.8,2.2,9.9,3.4,10.8,8.3c-31.2-0.1-76.1-35.7-104.6-50.8c23.7,51.9,40.1,60.2,86,88.7c12.7,9,26.8,15,40.4,22
				c1.8,1,4.3,4.3,3.9,6.7c-32.8-5.3-65.5-34.9-94.4-52.9c15.9,42,22.8,64.7,65.7,88.1c11.3,7.9,23.6,13.9,35.7,20.3
				c0.6,0.3,0.8,1.6,1.1,2.4c-22.3,3.4-48.1-22.7-66-34.5c-1.8-2.2-4.3-1.4-4.5,0.7c4.5,15,8.4,30.8,14,45.5
				c3.4,8.5,12.5,12.5,20,17.4c17.2,12,36.5,21.5,52.7,34.6c-19-1.7-36-14.8-51.3-25.8c-3.6-2-11.5-9.9-15.2-8.1
				c-0.6,1-0.7,2.2-0.3,3.3c4.7,8.9,3,20.1,8.1,28c4.9,7.8,13.6,13.4,21,19.3c14.6,11.7,29.3,23.3,45.8,32.4
				c-27.2-2.5-43.8-23.3-64.6-38c2.6,14.7,3.6,29.3,8.3,42.6c2.3,6.4,11.2,10.8,17.7,15.2c15,10.3,30.6,20,45.8,30
				c2.4,0.8,5.4,0.3,6.3,3.7c-4.9,1-8.8,1.7-12.7-1.2c-18.8-10.8-40.3-21.1-54.7-37.1c2.7,66.3,11.1,53.8,49.8,102.8
				c1.8,4,12.1,9,7.7,13c-10.9,1.4-41.2-41.9-51.7-54.2c5.8,26.5,0.9,51.7,20,71.8c12.5,13.1,22.2,28.8,33.1,43.3
				c0.7,0.9,0.6,2.4,0.9,3.6c-22.9-9.8-31.5-37.6-48.6-54.8c0,12.4,1.3,25-0.3,37.3c-2.4,19.3,11.8,31.1,17.9,46.7
				c2.6,8.4,18,23.9,16.8,30.3c-8.2,3.8-31-41.5-36.2-49.8c-1.9,24.5-5.1,46.5-7.6,70.5c-2.6,10.8,0.5,32.6-8.9,39
				c0.6-38,5.3-75.7,7.6-113.7c-9.4,22-20.5,43-35.4,61.6c-2.2,3.2-4.3,9.5-8,7.3c-3.3-2,0.3-8.5,2.5-11.3
				c9.5-12.2,17.7-25.4,24.5-39.3c6.7-13.8,12.7-28,17.8-42.5c4.9-15.5-0.5-31.8,0.6-49.2c-10,26.5-32.3,88.4-55.2,99.1
				c0.1-1.7-0.5-4,0.3-5.1c14.8-20.1,25.3-42.7,35.5-65.3c17.3-31.8,20.5-49.5,14.7-85.4c-11.8,35.8-27.4,70.5-57.5,94.6
				c27.2-46.5,67.9-86.5,49.5-148c-6.5,22.3-36.7,95.1-56.7,102.2c0.3-1.7,0.1-3.7,0.9-5c6-9.8,11.9-19.6,17.6-29.6
				c13.2-25,27.5-51.4,34.5-78.7c2.4-11.7-2.2-24.9-4.5-37.4c-0.8-4.6-0.2-9.8-3.7-13.4c-11.5,28.3-22.3,57.2-37.6,84
				c-9.5,14.7-15.6,35.1-31,44.3c0.2-2-0.3-4.4,0.7-5.9c8-13.5,17-26.4,24.3-40.2c7.7-14.8,13.8-30.3,20.5-45.6
				c5.6-12.6,8.8-27,17.1-37.5c8.5-10.8,1.1-18.8,0.5-27.8c-0.3-4.7-2.8-9.2-4.7-15.2c-10.3,32.9-23.4,65.3-46.5,91
				c-1.3,1.3-2.4,2.9-4.5,1.4c-2.8-2.1-0.4-4.2,0.5-5.6c13.1-20,25.1-40.7,34.5-62.8c4.8-11.3,12.5-23.1,12.3-34.5
				c-0.3-14.4-7.3-28.6-11.3-42.6c-6,15.7-11.7,31.2-17.8,46.5c-0.8,2-2.8,3.8-5.5,3.1c-2.7-0.5-1-2.8-0.4-4
				c21.3-70.3,25.1-45.2-5.5-115.9c0.4,24.9,8.7,53.1-4.1,73c-0.9-1.9-2.7-3.8-2.5-5.6c2.4-14.9,2.8-30,1.2-45
				c-1.2-39.1-12.1-55.1-31.8-87.8c2.4,9.8,20.1,71.9,7.5,71.8c-4.2-2.7-2.5-7-3.1-10.8c-3.6-21-7.8-41.9-13.2-62.6
				c-11.7-40.4-54.4-69.5-90.1-85.3c4.5,18,12.6,35.6,19.5,53c5.9,13.4,18.4,22,27.4,33.2c12.5,15.5,26.1,30.2,39,45.3
				c1.1,1.3,1.1,3.5,1.7,5.3c-27.1-15.7-42.7-44.1-64.2-66.1c2.7,8.5,5.3,16.9,8.1,25.3c4.9,14.6,5.5,30.9,16.1,43.3
				c23.4,25.3,43.1,54.6,69.8,76.5c0.8,0.6,0.5,2.5,0.8,3.8c-28-7-52.7-52.9-73.4-75.4c3,17.7,5.8,32.2,15,45.5
				c21.2,30.9,42.7,61.7,71.7,85.9c2.5,2.7,8.5,5.9,6.2,10c-1.6,2.3-3.8,0-5.5-1.2c-32.6-23.4-55.2-55.6-76.1-89.9
				c2,10.2,3.2,19.5,5.6,28.5c3.7,13.6,3.6,28.2,11.8,40.8c16.3,25.1,30.1,51.8,49.4,74.9c1.9,2.3,5.3,5.8,2.1,8.5
				c-9.2,4.8-45.5-61.6-53.9-73.7c4.1,22.8,3.5,42.3,9.8,63.3c9.9,26.4,25.8,50.6,39.5,74.7c-12.3,4.7-33.1-45.1-38.4-56.5
				c0.6,10.2-0.5,18.1,1.9,24.7c2.7,7.3,2,14.8,2.8,21.9c2,17.8,11.2,33,14.5,50.2c2.5,13.2,10,23.9,16,35.5c1,2,3.3,4.4,1.1,6.2
				c-2,1.6-3.8-1-5.1-2.5c-14.2-16.4-18.8-36-23.7-56.5c0,16.1,0,29.8,0,45.5c-1.1,8.4,2.3,28.9-2.1,34.4c-1.3-1.3-3.7-2.5-3.7-3.8
				c-1.4-30.6-1.3-63.3-5.2-93.3c-4.7,8.3-20.9,63.7-27.5,61.7c-3.9-3.5,0.3-8.7,1.5-12.8c17.4-49.7,29.9-68,18.3-122.8
				c-5.1,8.6-24.8,68.9-31.9,64.5c-3.5-1.8-0.1-3.9,0.5-5.5c7.2-18.8,12.8-38.3,22.4-56c10.4-19.3,4.1-37.5,1.9-56.3
				c-1.1-5.5,0.3-11.8-2.7-16.7c-5.6,14.6-8.7,30.4-15.6,44.7c-7.2,13.4-11.8,35.9-25.7,43.3c-0.1-1.5-0.6-3.1-0.1-4.4
				c7.3-17.1,15.3-33.9,22.2-51.1c6.8-19.4,18.1-38.5,15.3-59.9c-2.3-15.3-6.3-30.3-9.9-47.2c-12.5,31.8-15,67-39.1,91.3
				c-0.2,0.3-2.4-0.2-2.4-0.3c0.1-2.4-0.5-5.5,0.7-7c13.8-16.6,17.3-37.7,24.8-57.2c15-41.9,14.9-36.3,3.8-79.3
				c-2.7,9.8-27,84.2-34.3,77.7c-4-2,0.4-6.5,1.5-9.4c1.8-4.7,3.7-9.4,5.6-14.1c8.9-21.4,18.5-42.6,21.9-65.7
				c2-19.4-8.5-36.1-13.1-54.6c-9.3,23.6-17.3,46.4-27.5,69.1c-4.2,6.7-4.7,16.8-12.9,19.8c-2.3-10.7,6-19.8,9.1-29.7
				c9.3-24.4,24-49.4,26.2-75.4c-0.8-15.9-9.7-30.1-15.2-46c-4.8,41.9-21.3,76-39.6,112.2c-5.2,5.9-6.7-5.1-4.1-7.7
				c14.6-25.6,22.8-54,32.5-81.7c9.5-25.9,7.2-41.7-4.8-67.3c-8.3,29.9-15.6,56.3-27.3,84.4c-4.1,9-6.6,20.6-14.9,26.6
				c-0.1-3.6-1.6-7.9-0.2-10.6c4-7.8,7.6-15.7,10.9-23.7c6.2-15.2,11.3-30.8,15.9-46.4c4-13.6,11.6-27,10.6-41.7
				c-0.6-9.5-9.9-16.5-10-26.6c0-0.2-1-0.5-1.1-0.5c-7.8,16.3-9.9,35.1-16.7,51.9c-5.5,15.5-12.5,30.5-18.8,45.7
				c-2.4,3.7-3.7,14.9-9.7,12.6c-2.8-1.5-2-4.8-1.2-6.7c7.3-17.6,15.6-34.9,22.3-52.7c7.3-19.3,14.6-38.8,18.8-58.9
				c1.2-9.9-10.6-21.2-12.5-32.6c-7.4,38-20.5,73.3-42,105.1c-0.8,1.4-2.7,2.2-3.7,0.5c-3.4-6.5,14.3-28.1,16.3-37.4
				c6.9-17.5,11.5-35.9,18.7-53.2c6.6-15.7,6.2-32.7-6.5-44.4c-7.9,23.9-15.8,49.4-25.8,73.1c-3.1,9.2-7,19.1-17.6,22.3
				c12.6-29.6,23.5-60.6,35.9-90.5c6.7-15.8-2.2-28.7-9.7-39.9c-9.2,26.4-16.9,54.2-29.6,79.7c-2.9,5.4-5.4,14-13,13
				c-0.4-8,6.2-13.9,8.8-21.1c12.5-33.2,45.4-79.9,10.7-109.7c-1.1,3.2-3,6.3-3.2,9.6c-1.1,15.4-9.2,28.5-13.1,43
				c-3.4,12.5-7.5,25.3-15,36.1c-1.9,6.8-8.6,1-5.5-3.6c8.3-15.8,12.3-33.5,19.7-49.6c6.8-14.8,9.3-30.4,10.8-45.9
				c0.6-6.4-6.9-13.7-11.1-20.3c-8.7-13.6-17.9-26.9-27.8-41.8c1,45.9-2.5,89.7-15.8,133.3c-2.7,9.7-9.1,4.3-6-2.8
				c7.3-31.6,12.2-63.8,14.8-96.1c2.5-21.4,4.3-43.1-11.8-61c-7.9-8.8-16.1-17.4-24.9-26.8c9.5,36.7,11.2,73,9.2,110.3
				c-1.2,7.1-5.8,37-13.5,36.8c-2.4,0.3-1.8-1.7-2-3.1c-0.9-10.7,5.2-19.9,6.5-30.4c0.7-5.3,1.2-10.6,1.5-15.9
				c1.3-20.4,0.7-40.9-1.9-61.2c-3.8-20.2-1-49.3-23.3-58.7c-5.7-2-2.4,7.7-1.9,9.5c2.3,9.3,0.2,18.2-0.7,27.2
				c-4.3,26.2,1.5,56-14.7,78.6c-0.8,1.3-2.3,2.5-3.7,0.9c-0.9-1.1-1.8-3.2-1.3-4.3c7.7-16.3,9.4-33.7,10.8-51.2
				c1.9-22.3,4.3-44.6,2.2-66.9c-0.8-2.8-0.2-9.8,4.3-6.3c10.8,10.6,24,4.3,35.9,5.3c28.1,2.4,56.3,2.9,84.4,4.5
				C649.7,9.9,720.4,14.2,790.2,27c37.1,6.3,75.1,9.5,112.1,16.4c18.1,4.8,37.8,2.9,54.8,13C961,59.8,981.2,61,978.1,66.6z
				 M738.6,1250c20.3,27.6-26.1,23.9-42.2,26.8c-42.1,1.1-83.4,8.8-125.3,12.2c-21.5,2.4-43.1,4.5-64.5,7.7
				c-13.6,2-19.3-7.7-25.9-15.7c-77.9-103.2-138.2-220.3-177.8-343.4C280,861,256.5,784.3,240.6,705.8
				c-16.6-71.4-21-144.7-29.3-217.4c-3.7-53.7-10-107.5-10.4-161.3c1.1-6.1-3.1-17.9,3.9-18.1c47.6,2.4,95.1,5.5,142.7,7.9
				c1.9,0.1,4.5,1.4,5.8-1.3s-0.4-4.3-1.8-6.2c-2.6-3.7-5.2-7.5-7.8-11.3c-14.1-19.6-25-37.8-41.6-56.3c5.3,7.3,11.9,58.9,3.5,59
				c-2.9,0.1-2.4-3.2-2.7-5.5c-2.7-35.3-5.6-72.5-37.9-94.6c6.2,21.5,18.4,77.8,2.8,94.2c-1.7-24.9,1.6-50.1-5-74.6
				c-3.7-15.1-4.3-32-19.8-42c-5.6-3.6-10.3-8.5-15.1-12.6c9.1,28.9,13.7,58.8,18.3,89c2.3,5.1-6.9,19.8-9,12.1
				c1.1-29.1-6.6-57.4-12-85.6c-2-31.2-31.5-40.3-51.9-57.8c3,9.5,25.7,49.2,17.3,54.6c-3.2-0.3-4.9-2.9-5.5-5.5
				c-5.1-21.9-15.3-42-28.2-59.5c-7.4-9.9-22.7-14-34.5-20.7c-1.8-0.2-1,1.6-0.6,2.6c2.8,7.2,24.2,42,15.9,45.8
				c-2.6,1-3.9-1.4-4.8-3.5c-7.2-17.4-13.5-35.5-24.5-50.9c-6.6-8.4-20.4-9.8-30-14.5c3.6,74.1,74.3,84.6,113,130.4
				c-3.3,2.7-10.8-4.5-14.4-5.8c-33.4-21-60.4-40.4-88.2-70.8c7.3,16.2,3,31,15.3,41.8c29.6,29.1,57.9,60.4,95.3,79.7
				c2.5,1.3,5.8,3.7,4.3,6.9c-1,2.1-4.4,1.2-6.9,0c-38.9-19.4-67.4-50.4-98.2-82.6c2,12,5.1,22,5.1,32c0,22.7,17.9,31.7,31.1,44.8
				s26.9,25.2,41.9,36c4.1,3,8.5,4.8,9.9,10.3c-12.7,6-69.5-51.2-79.1-63.1c1.2,11.2,3.2,22.3,3.6,33.5c2.9,39,41.8,54.6,67.6,76.9
				c3.4,3.2,8.9,4.6,9.3,9.8c-20.5-1.2-60.1-37.1-72-54.7c-7.1,39.7,33.9,83,64.6,105.9c2.3,0.3,5,3.1,4.5,4.9
				c-11.2,11.5-57.6-45-64.2-57.3c2.3,15.9,6,28.9,5.5,41.8c-0.9,22.7,15.4,34.4,27.7,48.9c10.4,12.3,21.9,23.6,34.4,33.7
				c1.8,2.4,10.6,5.5,7.6,8.8c-16.3,3.3-57.1-48.1-69-64.2c6.5,18.2,1.3,33.2,6.2,47.5c12.3,35.9,47.8,50.5,71.7,75.9
				c-5.6,15.9-64.6-47.1-71.2-56.1c4.7,17.2,1.9,32.9,6.5,46.5c11.7,38.2,48.9,57.8,74.2,82.4c-2,2.8-5.4,2.2-7.7,0.8
				c-26.6-14.6-44.8-37.4-63.6-60.8c1.4,11.7,3.1,23.1,3.9,34.6c3.4,28.7,42,50.2,61.8,68.2c-5.9,15.6-48.1-34.1-55.5-38.9
				c0.4,13.8,0.9,30.1,6.6,41.9c5,9.5,18,14.9,28,21.4s20.3,12.1,30.4,18.2c3,1.8,8.5,3.4,5.3,8.3c-0.1,0.2-0.3,0.4-0.5,0.6
				c-21.9-5.6-42.4-23.5-60.9-36c-0.6,54,39.5,54,73.3,86.3c-24.4-7.1-45.2-23.3-64.5-39.4c-2-2.1-2.3,0.4-2,1.4
				c6.3,19,3.8,40.5,26.6,53.7c18.6,10.7,36.9,21.8,56.1,31.3c7.5,1.9,5.2,12.5-2,7.5c-23.8-10-46.4-22.8-67.3-38.1
				c-6,49.6,45.8,66.4,80.4,89.4c-27.6-0.5-46.1-20.6-67-35.1c-2.7-2-3.3,0-2.8,2.1c3.9,16.7,4.9,34.3,18.4,47.6
				c17.8,17.5,37.2,33.2,58.1,46.9c2.8,3,17.1,7.9,14.6,11.7c-13.4,7.7-65.9-41.4-76.5-52.3c6.5,52.2,39.9,73,79,101.5
				c-27.2-0.5-47.8-26.2-64.4-46c8.2,43.2,24.4,58.5,57.6,83.3c5.1,5.5,21.2,16,22.3,22.2c-5.5-0.2-9.1-3.4-13.2-6.6
				c-15.9-12.8-34-23.4-46.8-39.6c9.3,39,33.7,68,64.4,91.2c3.7,2.8,11.9,4.5,9,10.2c-6.9,4.7-43.8-31.3-50.2-38.5
				c11.2,28.1,27.1,52.3,39.6,78.9c0.9,3.1,6.2,7,1.8,9c-3.3,1.5-6.1-4.3-7.9-7.7c-12.6-21.5-21.6-44.7-36-65
				c0.3,18.6,0.2,37.4-5.9,54.8c-0.9,3.1,1.8,9.3-3.3,8.6c-3.9-0.5-2.1-7-1.9-10.6c1.4-21.1,5-42.1,4.3-63.2
				c-0.7-13.2-9.5-26-14.1-39c-4.9,18.3-7,53-19.8,65.8c-1,1-1.4,3.2-3.1,1.5c-0.8-1.1-1.1-2.5-0.7-3.8
				c9.4-21.3,11.1-44.6,16.6-66.9c4.8-21.6-9.4-37.7-12.9-57.2c-3.6,11.7-25.2,83-35,82.6c-1.3-1-2.6-4-2-5
				c8.2-14.1,12.9-29.5,18.5-44.6c2-5.5,4.1-11,6.6-16.3c3.5-7.8,2.5-17.4,4.8-25.9c4.2-16-7.7-28.4-8.5-46.6
				c-9.3,32.5-17.2,59-37.8,84.8c-0.2,0.3-1.7,0-2.2-0.4c-2.1-2.2-2.3-4.4-0.5-7.1c6.4-10.2,11.9-20.9,16.4-32.1
				c6.1-14.9,10.8-30.4,15.1-46.1c5.1-18.7-4.7-32.9-6.9-52.6c-5.5,20.5-24.6,79.1-42.1,83.3c-1.5-7.1,11.3-22.3,14-30.2
				c9.3-20.7,18.2-41.7,22.4-64.3c2.4-13.5-5.4-25-6.5-40c-8.7,31.9-22.1,56-40.2,82c-0.9,1.5-2.2,2.5-4,0.6
				c-4.4-3.8,8.9-18.2,10.6-23.3c22.6-39.1,39.1-78.6,18.8-123.3c-4.2,18.5-7.3,35.2-15.5,50.2c-7.6,14.8-14.2,32.9-29.8,43.4
				c22.5-45.6,47.5-88.2,38.3-143c0,11.4-36.7,89.7-43.4,75.7c24.9-47,49.2-74.8,32.6-131.5c-9.4,24.3-15.1,45.2-30.4,65.4
				c-5.6,6.3-7.2,20.3-18.2,20.3c28.8-52.6,53.7-90.1,38.8-152.8c-5.9,35.1-23.7,66.6-45.2,94.4c-2.7,4-9.5,4.3-4.8-1.2
				c19.2-33,42.3-65.1,42.2-105.2c-0.6-14.3,3.2-28.9-0.6-44.9c-10.3,39.8-24.5,79.9-52.3,110.5c-0.4-13.3,10.8-23.4,16.1-34.8
				c4.1-8,7.8-16.3,11.2-24.6c9.2-23.2,19-46.7,20-71.9c0.6-10.5,5.5-21.2-0.8-31.7c-13.1,42.5-41,76.7-69.2,110.2
				c-1.5,2-3.6,4.8-6.4,2.5c-3-2.5,0.7-3.9,1.9-5.4c36.5-47,80.6-101.1,69.1-164.6c-16.6,28.6-28.6,61.6-51.6,87.4
				c-6.8,6.5-9,20.5-18.3,23c-1.3-2.7,0-5.6,1.9-8.1c15.5-23.9,31.7-47.4,43.7-73.4c16.4-36.8,26.7-40.2,18.9-82.4
				c-0.1-1.9-1.5-3.5-2.9-0.6c-5.6,19.3-18.7,34.8-27.4,52.5c-7.1,14.6-16.4,27.9-27.6,39.5c-4.9,3.9-14.8,19.7-20.8,18
				c-1.1-2,0.2-3.6,1.5-5.3c11.7-15.4,26.5-28.4,35.3-46c16.5-34.2,49.7-68.6,35.7-109.1c-1-5,2.7-10.4-2.2-14.7
				C89.7,334.5,62.9,378.6,28.7,413c-0.6,0-1.3-0.3-1.6-0.8c-2-5.6,2.3-8.7,5.1-12.1c11.4-16.3,25.4-30.9,34.9-48.5
				c15.2-25.8,24.1-54.3,34.4-82.2c2.4-5.8-0.7-10.8-0.9-16.1c-0.3-9.7-2.7-19.3-4.3-29.7C80.2,267.5,59,308.2,29.5,344
				c-0.1-1.3-1.1-2.8-0.5-4c15-29,34.8-55.2,46.2-86c5.7-15.5,12.5-30.5,19.2-45.6c1.9-4.3-1.3-7.2-1.6-10.8
				c-0.8-10-2.3-19.9-3.8-32.4c-12.4,37.3-24.7,69.5-49.8,98.4c-4.9,5.7-7.8,15.4-17,15.4c16.1-24.9,34.1-49.2,45.7-76.8
				c6.3-14,8.8-29.7,15.4-43.5s-4-25.1-2.4-37.7c0.1-0.6-0.7-1.3-1-1.9c-12.4,27.4-24.7,54.8-44.2,78.3c-1.7,2.2-3.4,5.6-7.1,2.4
				c-4-3.4,0.2-4.8,1.7-6.9c15.2-21.2,28.5-43.4,36.9-68.3c14-26.3,4.3-38.8-1.2-66.3c-7.6,24.7-21.9,71.8-44.9,82.8
				c0.3-2-0.2-4.7,0.9-6c12.7-15,20.1-32.8,26.8-50.9c5.7-15.5,13.8-30.8,9.1-48.3C55,25,46.4,18,40.3,9.3c-1.6-2.3-6.5-3.2-4.5-6.8
				c1.9-4,6.4-0.6,8.1,0.9c30.9,18.5,67.5,20.9,102.6,21.5c2.7,0.1,6.2-0.2,6.2,3.2c0,3-3.3,2.5-5.8,2.6c-29.7,2.6-59.4-2-86.8-11.1
				c4.3,12.2,7.3,25.6,13.6,37.3c3.5,6.5,12.3,0.6,18.6-0.3c9.8-0.4,57.6-13,61.2-5.3c-22.6,9.3-46.6,9-72.2,14.7
				c25.4,7.1,48.4,14.4,73.7,11.3c12.2-1.5,24.8,0,37.1-2.1c0.5-0.1,1.3,1,1.9,1.5c-1.8,1.5-3.5,3.8-5.5,4.2
				c-19,3.9-38.5,5.2-57.9,3.8c-1.1-0.1-2.2,0.4-6.4,1.3c15.1,3.8,23.9,13.5,36.5,17.6c13,4.2,25.9,7.8,39.4,9.5
				c11.5,1.5,23.1,2.7,34.7,3.8c4.6,0.4,8.5,4.3,13.6,2.3c1.5-0.6,2.4,1.6,1.6,3.2c-2.2,4.8-6.8,2.4-9.8,2.2
				c-20.5-0.9-40.8-5.5-61-7.6c0.3,0.6,0.5,1.6,1,1.8c12.6,5.4,21.6,16,33.1,23.1s24.6,10.1,37.5,12.7c12.5,2.5,25.4,2.4,38.2,3.6
				c1.3,0.1,2.6,1.4,3.9,2.1c-2.8,1.4-5.7,4.2-8.5,4.1c-17.7,0.9-34.9-3.2-51.6-6.9c7.6,11.1,20.3,14.4,30.4,21.4
				c19.1,13.3,40.8,20.8,62.4,28.5c1.6,0.6,2.6,2.7,3.8,4.1c-2.2,1.6-4.4,1.5-7,0.8c-15.9-4.1-31.4-9.1-45.9-17.1
				c-0.8-0.5-2.2-0.1-3-0.1c8.5,9.5,16.1,20.1,25.8,28.1c21.5,15.5,43.4,31,65.3,46.1c10.3,6.7,20.7,13.2,31.3,19.5
				c1.7,1.1,3.9,2.9,2.3,5.5s-4.4,1.1-5.8,0.3c-28.7-16.7-51.1-29.8-78-52.1c15.9,19.3,25.7,36.2,39.3,56.1
				c3.5,5.4,5.1,13.4,9.9,16.3c5.7,3.5,13.9,3.3,21.1,3.6c23.3,1,46.6,2.3,70,1.8c14.9-0.3,11,9.7,11.2,17.2
				c4,108.8,10.5,218.6,33.8,325.2c18.6,94.8,39.5,189.8,73.9,280.2C617,1051.1,678.4,1151,738.6,1250z M724.7,1250.2
				C666.2,1158,609.1,1063.3,567,962c-27.8-64.6-43.5-133.4-60.7-201.4c-20.2-97.1-41.6-194.4-45.3-293.9
				c-1.5-42.7-6.5-85.4-5.7-128.1c0.2-1.6,3.5-7.2-3-7.6c-76.4-5-153-6.3-229.5-8c-4.4,0.4-14.4-4.8-15.6-0.2
				c0.8,8.9,1.4,17.9,2.2,26.8c12.2,117.9,20.3,236.4,43.1,352.9c11,56,27.5,110.7,42.2,165.7c9.1,35.9,18.5,70.8,33.7,104.7
				c29.4,83.7,68.5,163.6,116.7,238c13.5,19.6,28.8,38.2,40.4,58.6c6.5,12.9,19.2,16.2,32.3,13.1c63.9-8.8,128.1-14.3,192.4-19.2
				c6.4-0.7,14.3,2.4,19.6-2.6C732.7,1258.3,726.1,1254.2,724.7,1250.2z M695.5,194.4c-7-14.9-12-30.6-22.8-43.5
				c-5.2-0.4-4.6,3.9-3.2,5.7c22.2,34.7,33.4,74.8,48,113.1c0.5,1.2-0.1,3.4,2.5,2.5c2.1-0.7,3.8-1.8,2.9-4.3
				C716.5,242.4,705.4,218.7,695.5,194.4z M463.7,1599.4c-7.2,6.9-24-29.6-28.8-34.4c-14.1-20-28.4-39.9-41.5-60.5
				c-16.1-25.5-30.7-52.1-46.8-77.7c-22.6-32.5-47.9-63.6-63.8-100.3c-2.8-6.4-8.8-3.7-13.1-5.3c-64.2-32.4-70.9-125.6-95.9-186.1
				c-23-63.7-42-128.7-59.5-194.2c-12.1-40.7-15.1-84.5-35.8-122.2C54,771.9,17.9,729.7,4.5,677.8c-1.3-1.7-3.7-3.1-3.7-5.3
				c0-0.9,0.4-1.8,1-2.6c0.4-0.6,2.2-1,2.5-0.8c13.8,16.4,18.1,38.7,29.5,56.6c15.9,29.8,37.2,57.6,51.6,87.7l1.2-0.1
				c-3-22.9-6.8-45.7-9.8-68.6c-9.9-57-34.3-114.8-76.5-155.3c-2.2-1.7-3.6-4.7-0.5-6.3c1.7-1,3.7-0.4,5.6,1.2
				c20.1,16.8,34.8,36.9,46.4,60.8c28.9,51.3,39,109,44.7,166.9c7.6,66.2,30.2,129.3,45.8,193.6c11.6,50.6,32.1,98,46.8,147.6
				c0.5,2.2,4.6,3.9,7.4,5.3c25.5,12.5,45.7,30.7,62.6,53.5c13.9,18.8,24.4,39,29.4,61.7c3.4,15.4,2.9,31.3,1.8,47
				c-0.6,8.4,5.5,13.2,8.9,19.2c35.8,58.6,76.6,113.9,111.3,173.2c17.4,27.6,35,54.9,52.5,82.4
				C464,1596.7,466.4,1597.4,463.7,1599.4z M282.3,1309c-2.6-13-2.2-26.3-4.9-39.4c-11.8-43.5-41-78.8-80.3-101
				c0.5,17.6,10.1,32.1,12.6,49.1c29.2-22,49.6,32.8,47.1,52.8c-0.9,4.2-6.1,4.3-6-0.6c-2.4-13.5-10.9-49.4-28.2-48.5
				c-7.8,32.3,22.7,81.2,53.5,93.2C280,1316.2,282.9,1312.6,282.3,1309z M394.4,1591.2c-25.1-47.1-49.6-94.6-78.2-139.6
				c-0.8-1.4,0.2-5.7-3.1-4.1c-1.6,0.7-2.2,4.4-2.4,6.8c22.2,48.9,52.7,95.1,77.9,142.9c2.4,6.8,7.9,3.3,6.3-3.8
				C395,1594.1,395,1592.5,394.4,1591.2L394.4,1591.2z M260.2,33.2c0.1,18.5-3.7,37.2-2.6,55.6c11.7-4.2,11.5-58.2,8.3-72.4
				c6.6,8.6,10.1,15.6,15.7,20c16.8,13.2,10.6,32.3,12.4,48.6c1.6,14.3-3.2,29.4-5,44.1c-0.2,1.5,1,3.2,1.6,4.8
				c11.9-8.7,12.1-61.2,7.4-77.2c3,4.6,3.7,6.5,5,7.7c31.4,30.2,12.4,78.8,14.6,115.7c14.5-17.6,8.3-57,9.5-80.9
				c6.8,17.6,20.8,28.1,24.4,47.8c4.3,28.6-2.9,56.9-1.7,84.9c7.1-2.7,4.9-9.9,6.2-15.2c6.1-20.9,2.1-40.9,3.2-62.6
				c41.5,65,23.3,49.5,26.7,117.9c12.5-11.4,5.4-39,7.2-56.4c13.1,19.7,20.9,41.5,37.8,58.8c1.2,1.2,1.8,3.7,4.2,2.3s1-3.2,0-4.7
				c-15.8-23.6-27.7-45.6-40.8-71.9c21,18.3,40.5,42.3,65.6,48.6c2.1-3.5-3.8-7.9-7-9.9c-30.3-19.5-57.8-44.5-77.7-74.4
				c-7-11.4-13.2-23.8-20.6-35.7c7.7,2.6,11.7,8.8,18.4,12.8c14.1,9.8,29.8,20.1,47.7,21c-3.9-9-15.8-10.4-23.6-15
				c-16.6-7.7-30.8-19.2-45.2-30.1C334,104,326.9,81.1,310.3,60.8c18,11.4,56,41,74.2,34.4c1.3-2.4-2.1-3.4-4.1-4.3
				c-35.9-15.7-79.9-37-101.1-71.5c22.2,5.9,44,15.4,67.4,17.9c6.5,0.8,12.7,3,18.7-1.2c-10.7-8.5-26-6.3-38.5-10.7
				c-21.4-8-46.3-10.4-64.4-25.4c-1-1.1-2.7-1.2-3.8-0.2c-0.1,0-0.1,0.1-0.2,0.2c-3.3,2.7-0.8,6.6-0.5,9.9
				C258.7,17.7,260.5,25.5,260.2,33.2z M334.6,1593.2c0.2-0.7,0.4-1.4,0.7-2.1c-21-55.3-51.8-106.4-82.4-156.6
				c-16-46.5-10.9-83.9-45.2-125.8c-2-2.8-3.8-4.9-7.5-4.3c12.3,30.6,30.6,58.3,33.1,92.7c7.9,58.6,56,101.9,74.8,157.4
				c7,15.1,13.1,30.9,21,45.5c1.5,2.7,7.3,3.8,7.1,0C336,1598,334.3,1595.2,334.6,1593.2L334.6,1593.2z M248.5,1583.1
				c-17.4-46.5-38.3-91.7-57.1-137.6c-8.3-24.2-23.1-43.7-39.4-62.6c-26.1-26.5-32.4-64-35.1-99.8c-0.4-5.8-2.7-10.7-10.8-10.4
				c-50.9,0.2-76.3-131.2-100.8-172.4c-0.8-5.9-6.6-3-4.9,2.3c5.3,21.7,14.1,42.2,22.9,62.4c14,32.2,19.4,68.3,43.7,96
				c9.1,10.4,18.4,19.1,33.1,20.5c2.7,0.2,7.8-4.2,8.7,2c4.3,35.6,5.4,72.8,31.6,100.3c37.2,37.3,49.9,88.7,70.4,135.5
				c10.4,24.3,22,48.2,30.8,73.2c0.8,2.3,1.4,6.6,5,6.6C256.7,1599.3,249.6,1588.2,248.5,1583.1L248.5,1583.1z M40.3,950
				c17.4,34.8,29.9,72.6,45.7,108.3c12,34.8,22.2,70.2,32.8,105.5c7.1,20.4,38.3,183.1,55.7,176.3c5.9-1-0.5-5.5-1.4-8.5
				c-8-28-16.4-56-23.9-84.1c-16-67.9-30.9-135.9-57.9-200.5c-16.7-49-42-94.4-63.8-141c-3.1-6.6-19.2-50.2-24.8-45
				c-3.7,3.1,1.5,11.5,2.7,15.2C18.3,900.2,26.5,926.3,40.3,950z M59.5,1134.8c8.4,24.4,18.1,48.5,27.6,72.5c1.4,3.6,3,8.8,7.9,9.5
				c3.1,0.5,1.5-2.9,2.3-5.2c-24-59.2-38.5-123.2-72.8-177.7c-6.3-10.2-13.8-19.7-20.8-29.4c-1.3-2-4-2.6-6-1.3
				c-0.1,0-0.1,0.1-0.2,0.1c-2.6,2.3,1.7,4.1,2.4,6.3C26.4,1048.2,45.5,1090.3,59.5,1134.8L59.5,1134.8z"/>
		</g>
	</g>
</g>
<g>
	<g id="Layer_1_2_">
		<g transform="matrix( 1, 0, 0, 1, 0,0) ">
			<g>
				<g id="Layer0_0_FILL_1_">
					<path d="M52,1548v15l-37,37h946l-37-37v-15H52 M52,52V37.7L14.3,0H0v1600h15l37-37v-15V52 M924,52V37.7L961.7,0H14.3L52,37.7
						V52H924 M976,0h-14.3L924,37.7V52v1496v15l37,37h15V0z"/>
				</g>
			</g>
			<g>
				<path id="Layer0_0_1_STROKES_1_" class="st4" d="M961,1600h15V0h-14.3L924,37.7V52v1496v15L961,1600H15H0V0h14.3h947.4 M52,52
					V37.7L14.3,0 M15,1600l37-37v-15V52h872 M924,1548H52"/>
			</g>
		</g>
	</g>
</g>
</svg>
