<?xml version="1.0" encoding="UTF-8" standalone="no"?>
<svg
   viewBox="0 0 976 1600"
   version="1.1"
   id="svg9"
   xml:space="preserve"
   xmlns:xlink="http://www.w3.org/1999/xlink"
   xmlns="http://www.w3.org/2000/svg"
   xmlns:svg="http://www.w3.org/2000/svg"><defs
     id="defs9"><clipPath
       id="SVGID_2_-9"><use
         xlink:href="#SVGID_1_-0"
         style="overflow:visible"
         id="use1-4" /></clipPath><path
       id="SVGID_1_-0"
       d="m 960,22 v 1556 c 0,3.3 -2.7,6 -6,6 H 22 c -3.3,0 -6,-2.7 -6,-6 V 22 c 0,-3.3 2.7,-6 6,-6 h 932 c 3.3,0 6,2.7 6,6 z" /></defs><style
     type="text/css"
     id="style1">
	.st0{fill:#FFFFFF;}
	.st1{clip-path:url(#SVGID_2_);}
	.st2{fill:#333333;}
	.st3{fill:#D81E1E;}
	.st4{fill:none;stroke:#333333;stroke-width:2;stroke-linecap:square;stroke-miterlimit:3;}
</style><g
     id="Wikipedia_Cropped"
     style="display:inline"><g
       id="g5"
       style="display:inline"><defs
         id="defs1"><path
           id="SVGID_1_"
           d="m 960,22 v 1556 c 0,3.3 -2.7,6 -6,6 H 22 c -3.3,0 -6,-2.7 -6,-6 V 22 c 0,-3.3 2.7,-6 6,-6 h 932 c 3.3,0 6,2.7 6,6 z" /></defs><clipPath
         id="SVGID_2_"><use
           xlink:href="#SVGID_1_"
           style="overflow:visible"
           id="use1" /></clipPath><g
         class="st1"
         clip-path="url(#SVGID_2_)"
         id="g4"
         style="display:inline"><path
           class="st0"
           d="m 960,22 v 1556 c 0,3.3 -2.7,6 -6,6 H 22 c -3.3,0 -6,-2.7 -6,-6 V 22 c 0,-3.3 2.7,-6 6,-6 h 932 c 3.3,0 6,2.7 6,6 z"
           id="path1"
           style="display:inline;fill:#d81e1e;fill-opacity:1" /><path
           class="st2"
           d="M 507.35966,1361.9973 C 445.74476,1357.167 360.29762,1307.02 286.38119,1296.4086 164.81822,1278.9572 180.4513,1308.8474 17.994529,1285.9623 L 28.816518,332.80089 c 162.726362,-11.17354 248.709992,11.40534 379.001402,40.37992 90.42162,20.10822 138.30095,34.35323 160.72274,126.10623 30.98446,126.79259 33.98676,237.49689 33.10695,342.55207 -1.07145,127.9371 -11.7267,248.46319 -21.70568,399.06529 -2.82397,42.6192 -10.35702,66.4207 -7.46717,107.9687 0.87055,12.5161 -10.73959,22.9639 -18.1778,23.7795 -11.95543,1.311 -20.57639,-8.5888 -46.9373,-10.6553 z m 217.97871,-87.9014 c 30.28392,-185.4105 51.99509,-405.46481 47.29742,-591.74453 -4.16261,-165.06318 -30.24342,-209.02706 -21.10728,-248.18798 7.10963,-30.4745 114.88938,-63.00873 198.05675,-124.81663 -4.63151,314.7002 -0.361,682.83419 -4.99251,997.53434 -81.6385,68.8749 -155.73411,83.0533 -206.12124,75.8299 -12.53006,-1.7963 -14.74951,-15.7457 -16.38903,-32.5456 -2.27418,-23.3031 -0.44368,-53.4192 3.25589,-76.0695 z"
           id="path2"
           style="display:inline" /><path
           id="path4"
           style="display:inline;opacity:1"
           d="M 198.27539,-2.2128906 C 196.67539,-2.1508909 195.4,-1.5999952 194,0 176.3001,16.299951 158.39912,32.29966 140.69922,48.599609 95.39944,91.099383 49.698999,133.20022 5.6992188,177 1.8992373,180.7 7.000416,189.60039 12.400391,185.40039 85.000026,132.70064 154.10113,77.099353 227.30078,24.599609 213.20088,47.199543 195.69995,67.50085 181,89.800781 173.40005,100.30075 167.30073,113.10081 157.30078,120.30078 107.60103,150.70059 55.000527,177.6998 4.3007812,206.59961 -2.5991843,209.89961 1.7000315,218.79919 8,214.19922 52.899775,189.09938 97.70101,165.39942 142.80078,140.59961 101.10098,202.79933 55.200171,260.10067 11.900391,320.90039 6.700415,327.90036 3.5996219,335.40003 6.0996094,343.5 c 1.99999,6.29997 9.8011966,2.30078 14.7011716,3.80078 L 25.699219,329.5 C 154.89857,242.20047 282.40065,151.89993 413,66.900391 338.00035,131.30011 257.49921,188.89989 181.09961,251.59961 c -5.2,3.6 -15.79961,8.99964 -11.09961,16.59961 3.8,5.79997 10.40083,2.30156 16.30078,1.10156 19.88671,-4.18 31.54315,-7.24671 34.29102,-3.97266 -27.09988,17.19997 -54.16315,49.49462 -76.28711,68.82813 C 102.52804,370.66371 40.611585,433.07288 3.546875,474.2793 l 8.671875,2.99609 c 34.545832,-34.74719 84.209712,-85.561 123.14844,-123.76367 20.31588,-19.93185 72.02432,-67.18405 92.82422,-86.58399 16.3999,-13.59994 29.80947,-12.11523 50.60937,-16.61523 -26.69985,23.39994 -50.60249,49.09071 -77.90234,70.89062 C 131.36425,379.06335 36.387709,470.05287 5.734375,511.55664 l 15.242187,3.75781 c 73.684739,-15.61607 133.833808,-23.04152 149.558598,-22.89257 3.08821,0.0292 -0.90444,3.73135 -2.98828,5.32617 C 95.423106,551.21144 56.986061,585.91377 10.507812,633.01367 l 1.337891,11.4375 C 84.10541,578.40509 140.74743,534.72634 192.37891,489.74805 c 12.40316,-9.22166 10.08565,-17.46749 6.45117,-16.74219 -3.4907,0.69661 -8.78712,1.97667 -11.66602,4.31836 -47.16943,5.19104 -98.107115,10.94097 -155.91406,21.75586 4.634672,-5.87832 6.974545,-8.19355 11.410156,-13.50977 37.861816,-45.37835 71.322244,-73.79253 149.044924,-145.21093 34.69982,-28.79984 69.09551,-67.94775 106.19531,-93.34766 0,0 5.70039,-3.39883 4.40039,-7.29883 -9.79995,-7.59997 -26.59927,3.80039 -38.19922,2.90039 -30.86618,4.37273 -57.84452,17.62331 -73.40234,16.6875 1.2,-2.1 1.80117,-4.40039 3.20117,-5.40039 C 232.60019,225.60048 269.3002,194.50059 307.5,165.30078 371.1997,113.70103 435.0003,62.000531 499.5,11.300781 509.19995,5.3007999 502.90034,-3.8995964 493.40039,0.40039062 339.00119,103.59989 185.19846,209.99972 30.699219,313.69922 40.999164,298.49925 50.300065,280.70036 63.5,266.40039 75.29994,253.60042 80.6001,235.29997 101,228.5 118.6999,222.60003 134.3001,209.40036 150,198.40039 249.8995,133.5007 350.40128,69.498924 450.30078,4.6992188 c 3.2,-2.9999913 0.2,-7.7996013 -4,-5.09960942 C 440.30083,3.1995986 434.30034,6.7004012 428.40039,10.400391 317.20094,79.799981 210.19945,148.99963 98.5,218.69922 114.6999,196.49938 127.39927,178.09994 143.19922,156.5 c 7.09995,-9.79997 13.00044,-21.60081 22.40039,-28.30078 69.79965,-44.499772 145.00035,-80.098668 215.5,-123.3984388 4.99995,-2.4999925 2.90078,-8.2011628 -2.69922,-5.20117182 C 344.60054,13.899567 314.19946,35.39927 281.59961,52.199219 245.99976,69.799165 213.2998,92.00005 177.5,109 c 22.8999,-33.199802 46.69971,-65.00098 70.09961,-97.800781 2,-2.7999922 5.49961,-6.2000102 2.59961,-9.5000002 -2.5,-2.59999239 -5.89844,-0.399604 -8.39844,1.4003906 C 221.50088,18.199564 201.20029,33.300826 180.90039,48.300781 144.60059,75.3006 108.0998,102.10087 72,129.30078 L 70.5,127.5 c 44.2998,-42.599772 88.60025,-85.300232 134,-129 -2.7,-0.349999 -4.62461,-0.7753906 -6.22461,-0.7128906 z M 207.90233,907.68555 519.30078,531.40039 c 11.79995,11.19997 44.69849,44.49917 60.89844,38.19922 3,-3.7 -0.39883,-7.30039 -2.29883,-10.40039 -11.99994,-19.59984 -15.70122,-41.79928 -21.20117,-63.69922 -5.4,-21.29994 13.20083,-18.60081 22.30078,-23.80078 10.29995,-5.9 17.30044,-13.79925 24.40039,-22.69922 20.8999,-10.69997 47.59932,-18.60075 71.19922,-9.80078 4.99995,3.6 24.49956,-1.79919 19.09961,8.30078 -28.99985,38.39978 -66.89976,71.10022 -92.59961,111.5 -0.9,2.8 1.80078,6.19923 4.30078,5.19922 7.89995,-3.5 14.59927,3.40077 23.19922,0.30078 -20.93133,22.76403 -40.43316,43.0123 -59.4707,65.5918 0,0 -144.64534,181.70633 -187.89571,233.3735 -7.0102,8.37442 -11.91962,8.70347 -13.10292,8.96182 -10.12763,2.21115 -31.70228,1.67243 -44.3632,5.00413 0,0 13.47472,-63.11878 5.03757,-60.01565 -2.61945,0.96342 -16.96956,23.39302 -34.28393,46.43403 -2.58121,2.67511 -5.5768,7.71464 -8.57006,9.6466 -24.17832,15.60553 -52.24156,21.14429 -78.04833,34.18932 z M 659.73828,3.5742188 c -0.9625,-0.2249994 -1.88867,-0.3249988 -2.63867,0.125 C 632.39971,20.399168 611.49912,42.399666 588.19922,60.599609 511.09962,121.79933 435.60004,185.20106 360.40039,248.80078 c -35.6998,27.49981 -77.82534,65.59276 -104.08398,87.23633 0,0 -122.34457,97.57072 -132.68555,107.0957 -3.61366,3.32851 7.15081,7.94825 11.86133,5.75 68.9279,-8.44571 128.52341,-19.20119 194.93164,-27.79883 1.98412,-0.25688 1.66724,1.57793 0.33193,2.67302 L 4.3125,691.47266 8.625,705.13086 C 65.89909,659.19076 157.16173,576.22451 179.69727,562.81055 l 58.59754,-8.0481 c 0.47787,0.40659 0.40683,0.95331 -0.01,1.49798 -5.49346,7.18598 -33.86587,40.8686 -46.52549,62.27082 -1.25581,2.12305 0.92069,6.82634 3.59375,6.46875 41.04491,-5.49075 88.5664,-14.75 88.5664,-14.75 1.015,-0.13702 1.00531,0.5538 0.21806,1.47934 0,0 -203.704564,237.36444 -207.227374,243.62808 -4.602071,8.18259 -11.807537,14.18719 -11.58789,26.63867 0.322951,4.40612 3.728362,2.57944 10.15039,-1.82421 3.739594,-2.86567 10.590982,-19.79164 14.804688,-25.41407 L 301.89062,612.40625 c 3.99096,-4.61228 2.74364,-13.78143 -2.15624,-12.9375 -27.23695,4.69114 -55.10651,7.98627 -84.0557,11.08876 -1.13011,0.12111 -2.33984,-0.77707 -1.78882,-1.86595 10.57034,-20.88832 28.27936,-36.54943 43.43631,-54.50601 2.46672,-2.92235 -3.4422,-16.60657 -10.78125,-15.09571 l -45.56434,9.62056 c -1.01623,-0.57999 -0.49592,-1.39637 -0.0214,-2.2057 l 53.86892,-43.30939 c 10.14401,-3.89568 61.95654,-8.49803 95.22071,-10.10742 0.54967,-0.0266 0.58676,0.24787 0.30991,0.63505 L 307.6406,553.4668 c -1.74658,2.44269 2.03773,8.2662 4.3125,7.90625 l 113.56836,-17.97071 c 0.75308,-0.11916 0.90784,0.90977 0.28192,1.65251 L 104.94334,925.79688 c -3.93661,4.6713 -4.51336,12.79964 -3.59375,17.9707 0.4467,2.51184 5.44741,5.58923 7.24096,2.47963 3.87388,-6.71642 10.36384,-13.74553 15.75904,-20.45033 104.16094,-129.44432 320.58008,-381.67579 320.58008,-381.67579 4.11642,-4.90092 3.0449,-18.36352 -3.59375,-17.25 l -110.40311,20.78842 c -1.9109,0.35981 -2.3194,-1.39266 -1.5715,-2.72592 11.69265,-20.84425 27.56901,-36.83984 41.35351,-55.25976 2.77187,-3.70399 -0.3025,-9.10049 -3.41406,-8.80469 l -102.06836,9.70313 88.94922,-70.6211 c 5.51071,-4.67209 3.53418,-14.31512 -3.41406,-13.83594 -73.73536,6.64879 -198.01215,35.1213 -200.54102,29.65039 -3.28991,-3.80377 79.85433,-65.72962 118.07422,-97.0664 92.79955,-76.99956 186.10006,-152.69888 277.59961,-231.39844 38.1998,-32.999899 77.2002,-65.000979 115.5,-97.80078 1.1,-0.8999973 0.79922,-3.5007866 1.19922,-5.3007812 -0.9,-0.05 -1.89883,-0.4000009 -2.86133,-0.625 z M 865.30078,114.19922 c -4.69995,0.3 -2.20117,5.50078 -2.20117,8.30078 -0.3,22.69994 -0.29963,45.49938 -0.0996,68.19922 0.1,1.5 -1.19922,4.00078 1.80078,4.30078 5.2,0.4 5.69961,-8.09922 6.09961,-11.69922 -1.4,-11.09997 2.19961,-21.80159 0.59961,-33.10156 -1.8,-7.79997 4.60073,-34.3 -6.19922,-36 z m -135.90039,6.5 c -23.1999,56.49972 -44.2001,109.70145 -64,166.70117 -6.49995,18.59984 -25.60083,24.69886 -35.30078,39.79883 6.69995,-14.59997 3.89995,-26.09847 -9.5,-34.89844 -12.19995,-7.99997 -26.10005,-4.7 -39.5,-5.5 23.8999,-40.29978 43.69976,-82.60022 70.59961,-120.5 6.89995,-8.59997 19.40161,-12.90081 29.60156,-18.80078 15.29995,-8.79997 30.79971,-17.20081 48.09961,-26.80078 z m -96.59961,55 c -18.6999,37.79978 -44.10166,71.90139 -63.10156,109.70117 -3.3,6.19997 -11.29927,2.10039 -16.69922,1.40039 -10.69995,-1.4 -23.2,-1.40159 -26,-13.60156 0.1,-10.19997 5.90039,-16.49847 4.40039,-24.39844 -0.4,-2.2 0.0988,-5.60156 -1.20117,-6.60156 -14.59995,-10.99997 2.10039,-12.49844 5.40039,-14.39844 32.09985,-17.89994 64.00132,-36.40162 97.20117,-52.10156 z m -175.72656,32.6289 c 1.66406,-0.14677 3.47617,-0.029 5.32617,0.27149 23.7999,2.4 22.99971,33.50117 45.59961,34.20117 11.89995,0.8 15.80078,5.59925 10.30078,16.19922 -16.2999,33.19981 26.39932,42.50078 49.19922,39.80078 16.3999,1.6 32.30049,-4.20036 47.40039,4.09961 6.39995,3.5 9.20039,9.49883 7.40039,14.79883 -4.59995,24.79991 -24.70083,8.00019 -33.30078,37.5 -0.5,1.9 -0.30039,3.50117 -2.90039,3.70117 -15.59995,1.2 -28.30005,8.80042 -39,19.40039 -8.39995,8.39997 -16.69966,2.09883 -23.59961,-0.20117 C 426.8005,343.0998 490.89907,345.79978 464.69922,303 c -4.1,-5.79997 1.50078,-7.9 4.30078,-10.5 24.2999,-20.39994 12.19907,-52.19958 -20.80078,-46.59961 -10.09995,4.8 -21.99927,3.59964 -31.69922,9.59961 -8.29995,1.3 8.99971,-27.59922 25.59961,-28.19922 5.29995,-1 7.5,-2.8012 7,-8.20117 -0.675,-7.49997 2.98243,-10.33089 7.97461,-10.77149 z m 1.60547,46.42579 c 4.85152,0.3344 9.01992,1.97148 11.91992,5.64648 5.49995,10.29997 -3.00005,18.50042 -9.5,25.40039 -6.69995,12.39997 -16.09888,5.29883 -24.79883,3.79883 -13.69995,-2.5 -27.30122,0.4 -40.70117,2 -14.89995,0.6 -28.89888,5.90042 -41.79883,13.40039 17.2999,-15.99994 35.59971,-30.90042 58.59961,-37.90039 11.02495,-2.625 31.72466,-13.3488 46.2793,-12.3457 z m 502.33789,62.58984 c -71.87849,119.31829 -184.70313,241.28711 -184.70313,241.28711 -17.62969,27.82241 -71.67744,81.99689 -92.0625,109.39062 -10.39537,13.06689 7.89049,11.41374 12.52735,10.72852 13.67056,-2.0202 42.59927,-7.90039 55.69922,-7.90039 2.39997,0 -1.09964,5.29844 -2.59961,6.89844 -39.0998,41.2998 -85.82668,79.91639 -124.2793,121.75195 -3.30574,3.59657 5.4819,9.36299 11.70117,7.80078 33.73239,-8.47318 68.49976,-13.10122 101.59961,-24.20117 1.2,-0.3 3.19567,0.32865 3.84567,0.99736 -30.51284,47.41075 -71.03815,84.96698 -110.57614,129.22334 -33.09315,37.04243 -52.76861,56.64174 -77.15039,82.35938 0,0 8.1325,18.80661 21.85547,12.19921 13.72297,-6.6074 49.69825,-32.80659 76.79102,-45.08984 17.82921,-8.08336 52.35796,-25.73132 79.75781,-40.03125 -5.69998,9.19995 -11.1086,18.45786 -15.3086,25.75781 -1.89997,3.2 -6.09882,6.09925 -2.79882,10.69922 3.59997,5.09998 7.58121,3.01991 11.5,0.59961 6.07967,-3.80149 11.20278,-6.93828 17.80273,-9.73828 23.56018,-14.96394 51.65258,-30.19352 80.97266,-46.85156 -32.12118,27.07748 -93.82098,98.14429 -100.48633,104.91989 -24.34066,23.7768 -50.95975,54.1371 -76.18359,76.8965 l -30.87891,32.875 2.28711,8.8945 38.54101,-42.373 c 28.14757,-26.8859 72.16536,-73.1501 112.49805,-114.46484 l 72.54688,-78.34571 c 1.91839,-3.92029 0.18258,-5.55787 -3.30469,-6.09961 -20.61354,10.70397 -79.1613,46.75057 -94.75,56.38086 -8.74941,5.40517 -17.83257,9.86789 -17.35156,6.32618 1.38065,-10.16612 11.20525,-20.89809 16.85351,-29.93165 1.80186,-2.88229 2.34154,-5.98795 1.80664,-8.17382 -1.56004,-6.37527 -10.5931,2.35664 -18.29687,5.28906 -27.59426,13.12175 -60.94143,31.40668 -83.52735,43.37891 -25.97786,13.7702 -48.33584,24.74995 -72.20634,37.6127 -3.14742,1.696 -3.95869,-0.0535 -2.16494,-1.79055 1.31922,-1.27754 58.33446,-61.25101 91.07636,-95.21669 22.78623,-23.63787 55.92337,-62.9198 86.32617,-107.87304 2.30068,-3.19991 13.73596,-14.44177 11.52487,-19.16471 C 757.6792,767.61699 748.59289,770.2219 740.30078,773 706.70093,781.29995 674.19985,791.80083 640,797.80078 c 37.2379,-38.49203 90.38934,-81.14553 117.48438,-116.9707 l 16.29882,-17.00977 c -2.40447,-9.12112 -23.05089,-1.14735 -29.56445,-2.05859 -10.80618,-1.51176 -32.81372,5.45505 -43.01367,3.45508 17.53387,-21.27061 48.80376,-64.39417 67.74414,-84.19336 71.24239,-77.79481 148.10932,-168.14888 196.38086,-242.11524 z m -349.41797,25.05664 c 6.59995,-1.2 4.80117,6.40039 6.70117,9.90039 6.2,12.39997 17.69849,19.29847 28.39844,26.39844 22.2999,14.49994 72.90127,7.29994 88.20117,-16 5.6,-3.9 16.40039,14.10081 14.40039,21.80078 -0.8,25.59981 -42.00049,36.3 -62.40039,38 -16.1999,2.5 -31.20083,-2.49964 -45.30078,-10.09961 -22.9999,-10.09997 -64.09985,-50.20016 -30,-70 z M 586.69922,367 c 5.19995,25.69981 19.6001,45.59964 42.5,59.59961 -35.49985,-1.6 -41.50015,22.10042 -67.5,36.40039 -16.9999,8.59997 -51.49932,16.09958 -70.19922,10.09961 -14.09995,-5.79997 -26.79966,-14.10042 -33.09961,-27.40039 -4.59995,-9.49997 6.39966,-14.30003 13.59961,-18.5 15.0999,-8.79997 33.39971,-6.90003 49.09961,-14 C 548.49946,400.19925 555.49937,375.09997 586.69922,367 Z m 377.5178,25.37553 c 0,0 -42.71968,52.25845 -62.89258,76.91016 -33.39117,40.80471 -67.92258,77.58218 -103.47092,117.96431 -8.00029,9.08815 -17.87424,15.70774 -25.6282,26.28677 -1.80746,2.66877 -2.7944,6.94877 0.3652,8.95527 2.522,1.60159 10.20218,-2.04295 15.1265,-2.18054 l 102.8611,-2.874 -67.5664,79.78516 -38.81445,48.16015 c -4.60269,5.71092 3.28927,10.63226 6.46875,10.0625 l 122.46661,-23.21527 c 1.68271,-0.31899 2.2728,0.56391 1.88299,0.93207 L 785.63477,855.35742 c -5.59793,5.28703 -0.69307,10.89972 2.875,10.0625 L 917.17188,835.23047 750.19141,1030.4707 c -3.91688,7.9302 -10.16405,15.0019 -17.19141,22.0293 -24.50369,28.5268 -50.36135,55.7 -76.83789,82.2539 l -35.83203,32.9707 -0.50781,12.4531 37.35546,-33.0507 c 10.41928,-12.0529 30.20512,-28.461 42.62305,-45.627 15.01276,-19.9858 34.55424,-37.8276 50.39063,-57.2109 l 186.86435,-213.68049 -7.1875,-14.375 -126.36477,37.59792 c -0.88839,0.26433 -1.13403,-0.50828 -0.53994,-1.05957 L 929.86826,735.009 c 2.62805,-2.43873 11.6087,-8.56651 1.18057,-15.22189 -4.5569,-2.90828 -10.21675,-1.92565 -18.90821,-0.28125 L 805.75977,739.63281 912.85938,613.125 c 2.62974,-3.10629 3.08362,-9.5907 -2.15626,-9.34375 l -99.25174,4.6777 c -3.55731,-0.46387 -11.47577,-0.27483 -10.06445,-3.59375 0,0 45.65656,-48.75606 65.51706,-71.25544 31.73134,-35.9475 95.55109,-104.49453 95.55109,-104.49453 z m -211.5178,23.02486 c 6.19995,19.99984 -5.49849,39.49967 -14.89844,56.59961 -6.99995,11.59997 -18.40083,19.30003 -29.30078,30.5 4,-21.09994 10.09995,-39.19977 5,-59.09961 -3.5,-9.79997 6.69961,-7.80039 10.59961,-9.90039 8.39995,-4.4 17.70044,-7.00042 23.90039,-14.90039 1.2,-1.4 3.09922,-2.09922 4.69922,-3.19922 z M 540.67773,484.9043 c 1.80938,0.2766 2.29766,2.16992 2.22266,4.79492 -0.5,24.69991 9.30005,46.20045 23.5,69.90039 -28.49985,-20.29994 -47.20088,-42.49899 -70.30078,-67.29883 -2.3,-2.6 -0.6,-3.30117 2,-3.20117 13.59995,0.2 27.20083,0.39958 40.30078,-3.90039 0.925,-0.3 1.67422,-0.38712 2.27734,-0.29492 z M 319.125,851.1875 c -2.7767,22.53368 -9.64378,43.23186 -24.7424,69.0663 -0.9173,1.56955 -3.34782,6.08865 -3.30808,7.26397 0.73221,21.65409 -4.11906,30.67094 -12.80291,36.11867 -19.62865,12.31384 -55.71954,2.69502 -76.00412,1.99196 -1.65528,-0.0574 -5.00137,-0.0949 -5.1791,-1.8758 4.30292,-8.66928 9.02583,-16.07356 13.66161,-19.2526 19.20258,-13.16838 37.19161,-14.45417 68.47909,-45.14388 11.17143,-10.95799 17.93071,-25.55562 35.57575,-45.9337 2.08819,-2.41163 4.48425,-3.56655 4.32016,-2.23492 z m 64.65725,33.40357 c -20.71065,26.29305 -57.27523,29.99871 -74.3719,32.53007 -4.0293,0.59658 7.87183,-20.62224 13.76842,-28.39067 0.61658,-0.81231 2.45373,-1.14214 3.20622,-1.53865 5.37435,-2.83187 36.90311,-2.98448 44.15315,-6.08557 5.7033,-2.43949 13.08057,-4.82065 16.69673,-10.25311 4.34407,-6.52598 191.46408,-235.55236 191.46408,-235.55236 20.1999,-22.0999 38.2001,-46.40127 59,-68.20117 2.3,-2.5 3.70034,-4.99883 -1.09961,-8.29883 -6.89995,-4.79997 -14.59966,-2.30117 -22.09961,-4.20117 28.29985,-31.79981 54.30054,-62.99941 81.40039,-95.19922 7.49995,13.09997 0.49961,41.80003 -4.40039,56 -1.6,4.1 -4.09922,8.39961 -2.19922,13.09961 0.1,0.2 5.09961,-0.59922 6.59961,-2.19922 29.49985,-26.39991 72.09878,-58.40181 66.29883,-103.10156 -7.19995,-21.99984 9.30029,-48.0986 -10.59961,-64.89844 -8.19995,-5.89997 -13.39995,-12.50081 -3,-21.30078 20.3999,-26.59981 42.8001,-51.49977 67,-74.59961 17.9999,-17.79994 43.60049,-24.60016 60.90039,-43.5 29.19985,-30.79991 47.10054,-69.80019 74.90039,-101.5 7.69995,-8.39997 16.20044,-16.00003 24.40039,-23.999999 3.9,-3.799991 0.59963,-8.000403 0.0996,-11.900391 -15.2999,-4.299988 -62.00005,61.99964 -72.5,75.09961 C 898.30046,135.89967 899.6,114.00023 896.5,92.900391 896,88.900403 896.49956,81.3 889.59961,81.5 c -4.3,0.2 -3.19922,5.8004 -2.69922,8.900391 2.6,17.999839 3.90039,36.200449 3.90039,54.400389 2.3,9.69997 5.1,21.69964 0,30.59961 -12.49995,19.79984 -29.20088,37.30003 -49.30078,49.5 1.2,-22.89994 1.69961,-45.90045 1.09961,-68.90039 0.1,-2.7 -1.70039,-6.70039 -4.90039,-6.40039 -3,0.3 -3,4.00039 -3,6.90039 -0.6,20.29994 -0.49883,40.60084 -2.29883,60.80078 -0.8,8.89997 0.39917,20.79922 -12.80078,23.19922 -3.5,-5.89997 0.50039,-12.99922 -1.09961,-18.69922 -4.1,-10.19997 4.59956,-35.0012 -5.40039,-40.20117 -3.7,0 -4.29883,3.89961 -4.29883,7.09961 0,14.49994 -1.6,29.20042 0.5,43.40039 2.2,12.29997 -1.60044,20.70081 -11.90039,26.80078 -1.3,-14.39994 3.9e-4,-29.09964 -0.59961,-43.59961 -0.1,-3.99997 -0.10161,-9.90117 -5.60156,-9.70117 -5.1,0.2 -2.09883,5.60039 -2.29883,8.40039 -0.7,14.19997 -0.80117,28.49925 -1.20117,42.69922 -0.1,4.39997 1.30039,10.5 -1.09961,13 -25.5999,27.39991 -46.59932,58.70126 -69.69922,88.20117 -8.49995,12.49997 -37.90083,22.29919 -51.80078,17.19922 -10.69995,-3.9 -19.79966,-9.80003 -29.09961,-16 -8.19995,-5.6 -13,-12.80039 -9.5,-15.90039 C 652.59985,320.69938 678.19971,297.69981 700.09961,271 769.89926,190.10044 837.50059,102.99989 878.40039,3.9003906 876.90039,3.8003909 874.99922,2.7000024 873.69922,3.5 870.39922,6.2999916 865.8,9.2004012 865,12.900391 862.2,25.600352 854.90034,36.199252 848.90039,47.199219 801.70064,129.89888 743.90048,205.20109 681.30078,276.80078 c 31.59985,-89.59953 67.70015,-177.702031 98.5,-267.6015612 0.8,-2.2999933 4.49883,-4.0992281 1.79883,-7.1992188 -0.6,-0.5999982 -1.19883,-1.19922025 -1.79883,-1.69921875 -0.4,-0.67499799 -1.00117,-0.72493651 -1.68555,-0.3984375 -2.05308,0.97969706 -4.86445,5.34844075 -5.31445,6.39843745 -11.89995,27.7998158 -20.90161,56.9990118 -32.60156,84.7988278 -3.2,6.799982 -2.39888,15.801201 -10.79883,20.201171 -19.8999,10.49997 -39.60088,21.39886 -59.30078,32.29883 -5.2,4.39997 -6.69883,-0.40042 -4.29883,-4.90039 C 692.00068,96.699442 716.8001,53.999771 740.5,10.5 c 0.6,-1.0999964 -1.29922,-4.5996109 -2.69922,-5.0996094 -0.7,0 -1.3,1.1996106 -2,1.5996094 -7.29995,3.699988 -9.2,11.39963 -13,17.599609 C 700.20088,62.199398 678.09951,100.10022 656.09961,138 c -5,8.89997 -9.29888,18.10081 -18.79883,23.30078 -22.9999,13.39997 -46.60127,25.59925 -70.20117,38.19922 -16.1999,8.79997 -32.69927,17.10003 -48.19922,27 -9.59995,6.19997 -17.10122,6.79958 -22.70117,-3.40039 C 490.29922,212.29964 481.89995,205.09997 471,200 c -30.69985,-11.19997 -26.8001,16.70042 -45.5,22.90039 -10.09995,3.3 -17.09922,11.49925 -18.69922,22.69922 -0.5,3.8 1.39963,10.80078 0.0996,11.30078 -27.99985,13.39997 -70.99961,33.69941 -76.09961,67.19922 -0.4,2.5 1.29961,2.29961 3.59961,2.09961 11.99995,-1.3 22.29927,-7.60003 33.19922,-11.5 16.3999,-5.2 74.80044,-17.99877 84.40039,-1.29883 3.5,6.39997 1.60039,15.10003 -2.59961,22 -4.69995,7.69997 -1.30112,30.29883 6.29883,33.79883 22.5999,10.99997 44.10093,24.50117 69.80078,28.20117 -22.9999,17.59984 -60.00088,8.00009 -76.80078,35.5 -2.1,3 -2.59844,2.49883 -4.89844,0.29883 -6.99305,18.40137 18.38205,49.75174 65.41992,89.76562 0,0 -269.32261,322.77814 -302.35937,366.48828 -33.03676,43.71017 -68.10609,83.35422 -98.60156,80.30469 -11.292392,-1.12923 -17.787716,-7.25237 -21.082978,-14.02001 -5.6037,-11.50858 -2.426377,-27.2457 -1.280308,-40.61671 0.490048,-5.7173 -4.494928,-9.82449 -10.166015,-11.68945 -8.135275,-2.67532 -18.66589,-2.75578 -22.496094,-5.57617 -3.120173,-2.29756 12.225,-37.19602 17.921875,-55.92383 6.668871,-21.92314 13.185648,-43.96729 15.755859,-66.32812 0.636945,-5.54142 -1.318821,-9.32189 -5.589843,-10.92774 -2.988149,-1.12351 -3.116004,1.63603 -2.796875,5.08203 0,0 9.67e-4,19.31474 -14.484375,65.82031 -14.485346,46.50559 -23.379353,62.51644 -22.871094,66.07422 0.508256,3.55782 24.812266,5.17954 31.511719,11.43555 5.60322,5.23234 4.463372,13.54197 2.701171,20.15039 -1.992591,7.4724 -2.192599,23.81479 12.546876,39.0625 14.739462,15.24775 45.234102,11.68935 76.746092,-12.70703 14.56374,-11.27516 25.36708,-23.26174 32.53069,-33.82181 1.6501,-2.43245 48.79632,-28.09484 75.83841,-35.17429 8.67325,-2.2706 -13.37605,13.42624 -18.96134,17.45531 -30.45997,21.97294 -50.4861,28.78677 -56.5933,37.11306 -4.90515,6.68747 -14.36389,32.68474 -60.21009,78.20038 -42.814883,42.5062 -94.279296,103.7833 -97.328968,103.7625 l 2.474609,14.8477 8.132813,-2.8282 c 33.705079,1.179 96.755086,-0.9067 101.115236,3.5371 l 1.41406,-14.1425 c 0,0 -89.018459,2.966 -95.111328,-0.875 -3.62547,-2.2855 6.293423,-14.0499 9.153951,-14.3257 8.338402,-0.8037 91.555037,2.4897 91.555037,2.4897 l 6.77734,-11.332 c -52.65889,-0.5626 -76.919333,-1.3756 -84.330078,-2.9941 -3.035029,-0.6628 5.927237,-9.5817 9.023438,-12.9141 25.73711,0.435 55.57375,-0.4576 87.32813,2.1211 l 10.25195,-12.375 c -37.30621,-0.2482 -80.61159,1.1265 -83.79102,-2.8281 4.09941,-5.1558 8.06369,-10.3309 13.28711,-15.3262 3.54794,-2.7186 59.19011,0.4766 88.53516,1.1836 l 9.91797,-11.332 c -29.22721,-0.4714 -69.6337,-1.2043 -85.93164,-3.1641 4.50246,-6.1242 8.58405,-10.2305 15.73326,-17.6775 2.87474,-2.9945 55.38977,2.1808 80.96334,4.9505 l 8.30944,-11.0493 c -20.45745,-2.8291 -67.91899,-2.3575 -76.89778,-4.8602 -0.46651,-1.0655 8.62493,-10.5142 13.25697,-13.0823 3.46127,-1.919 53.44631,0.8249 80.16947,1.2373 l 11.04733,-11.13765 c -28.28385,-0.70703 -77.74871,0.92443 -84.85156,-2.12109 -0.18453,-2.22413 6.13281,-9.61868 8.60937,-14.74219 3.69136,-7.63671 82.29447,5.15869 95.52344,-3.96094 0,0 20.85736,-18.02221 19.60937,-35.74414 -0.89277,-12.67763 9.33072,-11.80605 14.14258,-12.01953 10.4233,-0.46243 46.97099,-10.69689 60.10547,-20.15234 18.04435,-12.99004 32.5088,-36.25565 46.66831,-45.25583 14.094,-8.95855 52.32553,-24.30614 52.32553,-24.30614 0,0 3.85578,1.12462 0.006,5.04361 -7.63165,7.7694 -24.58864,22.71253 -37.81632,38.51922 -10.9729,13.1123 -18.36116,36.79755 -36.29232,37.85966 l 49.11661,8.97346 c 10.4945,-19.003 200.0489,-253.51916 222.38086,-277.93164 32.14386,-35.13848 73.33698,-85.8759 102.60156,-121.80664 l 190.86524,-234.3418 -3.95313,-11.50195 C 905.76731,357.76781 808.80746,472.96519 748.00977,547.9375 700.83001,606.11687 640.69114,673.1479 592.8457,730.78711 526.75714,810.4038 454.84005,897.06855 439.59182,909.31137 c -2.72783,2.19017 -9.4915,2.37081 -9.03251,1.21211 0,0 8.17478,-17.83978 18.80648,-29.64494 12.20561,-13.55276 26.58264,-29.06889 41.26907,-43.99763 6.31555,-6.41974 13.52298,-9.38085 21.22198,-15.57596 1.98114,-1.59415 -3.39069,-4.41299 -13.71148,-1.92481 -13.15414,3.17126 -40.06635,11.07567 -60.44911,22.09884 -22.91428,11.9231 -37.65829,24.02048 -53.914,43.11209 z m 363.45798,82.57104 c -3.2227,0.78781 -4.41224,3.18399 -7.29882,5.74414 -30.67724,21.54139 -59.86595,45.48115 -89.09571,68.89645 l -44.74609,36.9766 3.04883,8.1328 c 17.93303,-13.6624 34.65877,-28.1028 53.6914,-43.6055 27.52157,-22.4169 57.26122,-44.74256 84.36524,-67.56441 7.93074,-7.66799 5.41862,-8.99575 0.0352,-8.58008 z m -702.589839,190.56059 1.3125,12.539 c 28.991971,2.9995 79.272339,-0.817 110.662109,1.4141 l -2.72656,-11.4785 c -36.4997,-0.072 -73.1841,1.5189 -109.248049,-2.4746 z m 0.780292,34.9892 -0.926777,11.8623 c 37.929185,2.2933 79.128474,2.0432 121.269534,1.0606 l -4.72947,-10.4483 c -40.26457,-2.0213 -76.696508,-1.2707 -115.613287,-2.4746 z m 123.920877,29.5225 c -42.42651,-1.0607 -79.277485,3.1975 -125.158201,2.1211 l -0.353515,11.6679 c 44.450876,-0.3771 88.960666,-0.3418 131.700106,-3.7139 z m 69.63477,212.3476 c 2.5,8.6 -1.90073,33.3 13.69922,25 6.39995,-3.6 12.10044,-8.8988 19.90039,-9.2988 6.19995,-0.4 12.60041,2.8988 18.40039,-2.2012 7.69995,-6.9 15.70005,-13.4996 24.5,-21.0996 -22.4999,-0.9 -42.90091,2.3004 -64.80078,-1.5996 -1.675,-0.525 -3.36836,-0.9011 -4.93555,-0.9961 -4.70155,-0.2859 -8.26367,1.9453 -6.76367,10.1953 z m 163.80859,-8.5976 c -12.67052,-0.083 -26.39536,1.0152 -40.69531,1.1152 74.68297,29.3267 81.5625,-1.0996 81.5625,-1.0996 -2.96673,-1.0939 -7.67339,-1.3586 -13.06641,-1.2656 -8.98834,0.1547 -19.88171,1.302 -27.80078,1.25 z m -191.57625,-64.4659 c 1.09848,13.6519 1.10367,17.651 3.6036,20.4444 4.87006,5.4418 16.38748,-2.4893 59.47851,0.9375 11.50165,0.9147 50.82422,-1.4004 50.82422,-1.4004 l 10.25,8.375 c -18.24706,0.2555 -29.96468,-0.4957 -56.17578,0.9258 -18.81714,1.0205 -37.79932,0.1 -56.69922,0.5 -4.1,0.1 -10.49961,-3.2016 -12.09961,1.8984 -1.9,6.2 3.80044,10.2008 8.90039,13.3008 2,1.2 3.89961,3 6.09961,3.5 5.99995,1.3 7.19927,10.4004 14.69922,8.9004 21.5999,-4.4 43.30049,-1.1012 64.90039,-0.2012 l 84.58203,-4.4863 29.11133,0.3594 75.11328,-1.7969 c 0,0 8.60639,-9.7519 25.58203,-9.7949 13.0269,-0.033 36.88281,14.8886 36.88281,14.8886 l 23.0586,8.9121 -0.73047,2.2188 c 22.6999,-0.1 45.4001,-1.4996 68,-4.0996 9.16103,-1.1142 11.23208,-3.8476 10.53711,-6.9336 l 4.45508,-5.873 c 0.95524,1.0466 1.76192,1.4525 2.20898,0.6054 0.9,-3.7 24.59995,-22.6 17,-22.5 -3.94568,2.5496 -15.94781,0.01 -23.07226,-0.3027 -17.77304,-0.7785 -82.82341,-1.5005 -93.72852,0.3535 -24.15648,4.1069 -133.75,-1.75 -133.75,-1.75 l 9.25,-6.5 c 0,0 100.90758,1.164 113,0.25 11.99998,-0.907 87.58724,0.8389 104.83398,-0.5371 26.70821,-2.1308 33.0214,11.1131 57.26563,-19.9121 -11.09995,-1.0005 -22.39966,-1.1245 -33.72461,-1.0625 -8.77317,0.049 -14.64536,0.7198 -23.36719,0.6738 -7.07908,-1.5389 -49.72881,1.6829 -79.44726,-0.9394 -24.04159,-2.1213 -19.09305,-2.1211 -25.81055,-2.8282 -6.71749,-0.7071 -5.82812,6.2617 -5.82812,6.2617 -10e-6,0 3.7066,7.8818 -10.78907,-0.6035 -14.49564,-8.4853 -71.38867,0.7559 -71.38867,0.7559 l 15.55664,-10.959 c 0,0 67.50041,-5.3548 82.34961,-12.0723 14.84922,-6.7173 27.40487,-30.5009 40.48633,-40.0468 13.08145,-9.546 40.72461,-13.7422 40.72461,-13.7422 C 657.43603,1275.8845 673.99816,1270.62 690,1263 c 19.2999,-10.2 32.34923,-24.5322 52.97235,-35.4723 -0.6864,-12.4081 20.29834,-32.1694 52.90417,-58.5602 1.22872,-1.3982 6.82065,-4.4632 4.2405,-4.2786 -4.10149,0.2935 -30.45206,14.9894 -33.36507,13.0533 -4.12618,-2.7424 -2.58398,-10.4785 -2.58398,-10.4785 0.14169,-3.5029 1.4543,-8.0669 -1.04868,-9.2352 -1.7939,-0.8373 -7.42091,1.5904 -9.57074,4.0155 -7.88079,8.8898 -21.95325,21.0287 -28.2048,24.0966 -16.3999,8.1 -30.33799,17.1091 -49.83789,18.6797 -8.93744,0.7199 -16.68792,6.6883 -21.81055,10.6524 0,0 -15.83027,18.8351 -26.75781,24.1718 -10.92755,5.3367 -33.54492,10.9278 -33.54492,10.9278 l 3.30469,-8.8946 c 0,0 18.2969,-3.8124 27.1914,-8.3867 8.89451,-4.5744 23.82831,-24.3395 28.2461,-27.0976 2.7765,-1.7334 4.90895,-2.6097 6.60937,-3.1524 9.49995,-6.2 22.10044,-10.1012 29.40039,-24.2012 12.14147,-26.3199 45.73444,-67.9504 61.62695,-92.4277 0,0 55.29755,-76.1381 84.74024,-112.81444 31.11373,-38.75793 97.03711,-113.20899 97.03711,-113.20899 l -0.71875,14.375 c 0,0 -64.53006,74.38262 -95.24024,112.84961 -29.09504,36.44392 -84.27539,111.66792 -84.27539,111.66792 -16.75141,30.0114 -40.73263,55.9428 -57.57031,86.959 -1.2,1.8 -1.30117,3.5008 0.29883,4.8008 4.09995,4.2 12.5,-7.4 16,-10 5.02256,-5.7219 26.63825,-5.6101 35.11295,-22.5075 3.89586,-7.7678 19.19266,-8.9117 21.49194,-13.7901 1.07773,-2.2866 6.85918,-9.0467 11.27011,-15.3118 l 151.2207,-214.78902 v 18.38476 L 776.98809,1150.2451 c -3.18587,4.5483 -8.5386,11.8889 -3.59782,17.3209 3.93323,2.6516 21.22002,-7.8551 27.84362,-12.1134 2.40203,-1.5443 6.32252,-6.4022 10.45374,-10.4734 C 826.28479,1130.5938 842.25,1114.25 842.25,1114.25 l 105.93164,-74.4043 2.12109,12.7285 c 0,0 -79.10167,52.0811 -113.08789,79.5039 -11.41484,9.2104 -28.46036,33.0783 -17.16406,30.1055 0,0 18.45222,-0.087 31.30664,-5.3574 15.33694,-6.2885 28.00637,-17.9688 43.13281,-24.7481 14.96346,-6.7062 46.66797,-15.5566 46.66797,-15.5566 l -0.70703,8.4863 c 0,0 -30.66288,11.1596 -45.2539,18.3848 -16.19284,8.0184 -27.02517,19.3823 -44.04493,25.4512 -13.24993,4.7246 -36.49456,5.3929 -42.84115,5.8365 -8.75646,0.612 -15.38551,6.1152 -19.28752,9.5785 -34.4585,30.5845 -42.09452,41.4761 -34.07889,39.3052 58.15299,-17.3986 116.74793,-29.3846 174.90092,-41.6343 l -0.53029,11.8426 c -56.64824,9.8589 -120.02559,23.1226 -172.55174,39.4015 -5.79619,1.7964 -21.83079,12.4881 -33.76367,19.4258 12.14932,1.2244 23.30716,-0.8369 34.08984,1.9063 0,0 5.23845,2.8751 3.57422,5.7265 -1.96938,3.3741 -11.66406,1.0684 -11.66406,1.0684 -11.29995,0.4 -22.50083,-0.1012 -33.80078,-0.2012 -6.39995,-0.1 -9.40005,5.8 -14.5,8 -11.69995,5 -23.59966,9.7996 -37.59961,15.5996 16.0999,-0.5 29.69966,-0.5992 43.09961,2.3008 12.89995,2.8 25.90044,2.1 38.90039,2 4,0 6.59961,2.0992 6.59961,5.6992 0,3.8 -3.8,2.5004 -6,2.4004 -15.79995,-0.7 -31.49849,1.0012 -47.39844,-3.2988 -10.89995,-3 -23.80122,1.5992 -34.70117,-1.3008 -8.23468,-2.1101 -14.3328,0.2683 -18.10938,4.877 -13.51553,6.7685 -36.08902,1.8278 -45.61523,22.623 6.36319,2.5714 31.53057,-6.4449 48.84961,-5.0059 24.50678,1.2414 48.95243,2.7256 73.47461,3.9063 2.5,0.1 3.40039,1.4988 3.40039,3.2988 0,0.9 -1.6,2.7012 -2.5,2.7012 -22.6999,-0.2 -45.39971,-0.7012 -68.09961,-0.7012 -15.30596,0.6188 -51.0607,5.5627 -60.26172,9.0196 -12.69138,4.7682 -22.94886,11.6224 -20.48828,17.5312 l 79.36914,2.184 c 15.5292,-3.406 31.15466,0.066 46.68164,0.066 39.9971,3.243 30.07599,-12.4641 51.9707,-40.8809 13.79857,-17.909 29.17379,-47.0051 41.47852,-54.8691 13.19792,-8.4349 27.36444,-12.6416 41.34375,-15.2164 22.08126,-4.0671 58.56442,-23.0903 61.87109,-24.748 5.70142,-2.8582 14.20509,0.335 10.25391,4.2421 -2.63016,2.6008 -25.78588,25.5411 -35.00195,31.4668 -18.49439,11.8914 -33.34955,17.3331 -49.12696,25.17 -18.20086,9.0407 -27.8423,38.8291 -29.58984,43.3359 -9.49999,24.5 -26.65039,62.75 -26.65039,62.75 9.9723,3.7681 27.2749,10.5121 58.15039,9.9004 20.17198,-0.3997 46.40088,-5.4504 65.30078,-9.1504 3.8,-0.7 10.1,-3.1 12,2 -1.4,21.6 -40.4001,48.1004 -60,53.9004 -66.49965,10.8 -79.10118,-29.0004 -157.30078,15.0996 6.49995,2.6 12.20083,-0.9992 18.30078,-0.1992 13.59995,1.7 51.59849,0.8 65.39844,1 4.69995,0.1 10.7,0.3996 10.5,6.0996 -0.3,6.6 -7.69961,4.1 -10.59961,3.5 -12.09995,-2.5 -48.19888,-0.8996 -60.29883,-1.5996 -41.7998,-4.7 -79.70059,16.3992 -120.90039,18.1992 -8.19995,0.1 -16.40083,-1.1004 -24.30078,-3.4004 -12.85292,-3.9235 -27.23145,-11.5762 -40.14844,-13.459 -15.72493,-2.2921 -30.01954,1.6398 -46.05078,1.8594 -6.90003,0.095 -14.40005,3.6996 -20.5,7.5996 -12.29995,7.8 -24.50044,11.0004 -37.40039,10.4004 -28.69985,-4.2 -52.39976,-15.7996 -81.09961,1.4004 2.9,2.9 16.50044,2.6996 25.90039,3.0996 135.09935,1.7 340.6007,-2.6008 476,3.1992 4.8,0.2 11.69961,-3.6992 12.59961,2.8008 0.4,2.9 -8.90122,4.3008 -14.20117,4.3008 -143.2993,-0.9 -356.59953,2.2988 -499.79883,-1.2012 -10.89995,-0.9 -23.10005,0.1996 -33.5,8.5996 -23.6999,19.3 -43.70132,1.7016 -72.70117,17.6016 54.1997,-1.2 108.70103,-0.2016 162.80078,-2.6016 32.69985,1.1 65.19976,1.3016 98.09961,-1.8984 106.89945,2.6 262.30133,-4.2012 369.30078,-0.7012 6.09995,-1.3 4.5,5.5004 0,5.4004 -143.6993,3.6 -335.4007,5.5992 -479,8.6992 -52.49975,-1 -105.99986,1.9 -158.09961,1.5 -17.0999,-3 -20.10005,12.3016 -30.5,18.6016 156.8992,-0.6 313.80002,-1.8016 470.69922,1.8984 64.6997,1.3 129.5003,-2.4988 194,2.2012 5.69995,0.5 4.39917,8.7 -1.30078,8 -248.49875,-0.5 -496.90047,1.1996 -745.19922,-1.9004 -34.19983,-0.4012 -68.300561,-0.1 -102.400391,-0.1 -4.399976,0.3 -7.499609,-1.2 -7.599609,-6.5 0,-4.7 3.6007972,-5.5 6.8007812,-5.5 53.2997348,-0.3 107.1002488,-0.6996 159.9999988,0.9004 -0.9,-1.3 -1.60078,-3.1012 -2.80078,-3.7012 -12.49995,-5.2 1.10034,-19.6988 -13.59961,-17.2988 -49.89975,0.8 -100.501026,-2.6012 -149.8007806,-6.2012 5.99997,-10.3 46.4008416,-5.0988 58.3007816,-4.2988 31.099845,3 62.399759,2.8984 93.599609,4.3984 2.8,0.2 3.59922,-0.4984 3.69922,-3.3984 0.8,-23.6 -0.3001,-25.5012 -23.5,-24.2012 -38.99981,0.3 -77.900196,3.2012 -117.000001,1.7012 C 13.899244,1500.8008 6.4999975,1502.2 6,1497 c -0.399998,-4.1 8.299234,-4.0016 11.699219,-3.8 42.599785,0.1 85.700201,-4.6984 128.500001,-0.3984 17.8999,3.1 7.10039,-13.1 4.40039,-22 -2.3,-7.8 -7.49888,-8.2008 -14.79883,-8.3008 -23.79985,-0.1 -47.600509,-1.5004 -71.400389,-2.4004 -19.799905,-0.7 -39.500881,-1.4988 -59.3007816,-2.2988 -8.399958,0.6 -3.799976,-6.4004 1,-6.9004 45.2997746,-0.1 90.2998306,2.6988 135.5996106,3.7988 6.79995,1.8 1.20078,-13.9996 5.80078,-21.5996 3,-6.7 0.60078,-6.4004 -4.69922,-6.4004 -42.2998,0.099 -84.501381,0.2 -126.701171,-0.1 -5.19997,-0.1 -14.2988278,0.8996 -14.2988278,-4.9004 10e-8,-5.8 8.6988578,-5.5 14.2988278,-5 45.099775,0.6 89.900601,1.3008 134.900391,1.8008 3.2,0 4.80039,-9.3996 3.40039,-15.0996 -1.3,-5.3 -2.79966,-7.4008 -10.59961,-7.3008 -44.89977,-0.2 -90.000224,-4.7988 -134.9999988,-3.2988 -9.09995425,1.4 -8.69995625,-7.8012 0,-8.2012 43.9997798,-0.6 88.0002238,0.9012 131.9999988,4.2012 6.2,0.4 6.99922,-2.1008 6.69922,-7.8008 -0.4,-7.2 0.99961,-14.4996 1.59961,-21.5996 -36.3998,1.1 -74.700181,-3.8 -111.500001,1 -10.899945,1.6 -21.999664,1.6988 -33.099609,2.2988 -7.599962,-2.1 -0.2003716,-7.9992 3.5996094,-7.6992 14.4999256,-1.8 29.0996796,-2.8004 43.5996096,-4.4004 31.49984,-3.3 62.900931,0.9008 94.300781,2.3008 8.29995,1.5 9.4,-6.2008 13.5,-11.3008 3.5,-3.6 6.6056,-6.9814 9.61523,-10.1543 1.59356,-1.7194 2.74733,-3.2643 3.60547,-4.6953 -74.701001,3.9429 -74.209266,-1.288 -157.371091,-0.1 -4.499976,0.8 -7.2991937,-2.0996 -2.199218,-5.0996 13.89993,-2 28.399679,-2.6008 42.599609,-3.8008 33.499834,0.4 63.59588,0.8493 97.69922,3.1992 4.08995,0.2818 14.53081,-0.7455 21.85351,-1.1289 0.50343,-2.3831 0.85455,-4.7534 2.11524,-7.5683 1.86737,-4.1696 3.78282,-10.6215 5.55078,-17.625 -25.87563,1.78 -51.72775,3.7517 -77.66797,1.873 -21.999887,-0.2 -44.601671,-0.8992 -66.601561,-1.1992 -4.09998,-0.1 -10.999225,2.2992 -12.199219,-2.3008 -1.549991,-6 19.624334,-7.525 42.386719,-7.5 38.757811,0.3277 76.928741,4.0092 115.699221,0.791 1.31613,-5.8562 8.50447,-16.5716 3.58594,-16.5312 -48.48834,0.3979 -121.95263,-3.0352 -147.160161,-1.211 l 1.060547,-10.959 c 49.653066,0.6302 100.848234,3.7278 148.406254,1.0059 l 8.98437,10.0645 c 0,0 -6.46856,8.9829 -10.0625,37.0156 -3.59393,28.0327 -17.20117,34.9238 -17.20117,34.9238 -10.39995,15.6 -21.09839,30.5008 -10.89844,50.3008 11.69995,19.7 -6.00117,38.6992 -5.20117,59.1992 0.6,10.5 5.6,19.4996 9,29.0996 5.49995,15.7 5.40078,31.7016 4.30078,48.1016 -0.5,7.5 -0.10034,18.2996 7.59961,20.5996 9.39995,2.8 16.99966,-5.6004 24.09961,-11.9004 25.09985,-25.3 47.79976,-24.3008 80.59961,-27.3008 19.8999,-3.6 33.7001,-20.1988 51.5,-28.7988 22.8999,-11.2 46.40171,-14.8004 71.10156,-5.4004 7.99995,3 16.99966,4.4996 25.09961,2.0996 149.89925,-70.3995 61.59953,23.9008 206.29883,-13.1992 42.8998,-9.2 77.0002,-42.6 122.5,-40.5 13.8999,0.2 46.90005,9.35 60.5,9.75 27.19985,0.7 54.20049,-14.7508 70.90039,-37.0508 -17.5999,0.9 -43.5352,11.6828 -61.40039,10.5508 -46.63144,-2.9547 -55.71439,-3.6215 -84,-11.4512 -4.0655,-1.9581 7.51953,-9.7864 9.63867,-14.2265 12.64887,-26.5024 28.59867,-54.8359 39.125,-82.3653 11.5043,-30.0868 51.31916,-35.8946 77.1582,-55.1797 2.20558,-1.6462 5.42722,-3.2058 0.0487,-2.1899 -11.41631,2.1565 -41.27669,11.4003 -54.6678,17.7915 -15.55633,7.4246 -19.79802,10.9594 -28.95906,22.7636 -9.54539,12.2995 -25.51195,36.64 -34.95109,51.9786 -7.65649,10.8977 -14.50891,20.8607 -21.89258,29.6289 -20.9999,22.5 -46.09932,42.0992 -65.69922,65.6992 -22.7999,7 -45.56221,10.7539 -69.16211,13.7539 -7.89995,1.3 -18.03716,-5.5531 -26.03711,-4.4531 -15.16942,1.3986 -22.61385,-25.0625 -47.72266,-26.7734 -26.39845,-1.7987 -24.73471,13.5369 -37.73437,12.623 -7.34294,-0.5161 -15.49655,-4.0896 -24.13281,0.4121 -6.41817,3.3454 -6.9504,13.7141 -11.81055,17.3379 -28.99985,19.7 -67.60132,5.7008 -96.20117,-8.1992 -13.99995,-7.5 -31.29927,-2.4 -41.19922,10.5 -19.6999,28.5 -31.49932,8.5988 -51.19922,24.2988 -18.7999,13.9 -31.3,-6.2988 -29,-24.2988 2.4,-35 -32.80117,-22.7012 -29.20117,-55.2012 1.1478,-10.8739 0.59387,-25.8751 -0.125,-32.4726 -0.97708,-8.9676 -1.89367,-17.1594 3.33789,-23.2168 9.43559,-10.9251 11.14054,-17.1005 13.72266,-34.0547 l 7.11523,8.8965 c -6.77498,24.092 -15.2931,34.4873 -14.4668,44.6152 0.38829,4.0517 16.95698,1.4392 60.41083,0.487 l 8.94867,7.7908 c -12.76931,-1.57 -66.7544,-1.1543 -68.32442,0.8735 z" /><path
           d="m 404.05929,1405.9617 c 41.4733,-18.1421 74.47522,-47.9752 108.77522,-77.6752 38.9,-32.7 85.7,-62.8 101.7,-114.1 39.6,-114.6 -40.1,-248.60002 -151.7,-285.40002 -49.5,-18.8 -107.1,-14.5 -151.5,15.2 -20.8,13.8 -34.5,35.3 -52,52.5 -17.2,16.90002 -33,35.40002 -48.4,54.00002 -19.4216,22.4095 -47.29523,46.5905 -58.7772,75.6392 -4.65768,11.7837 -4.4617,24.5481 -2.06644,38.1405 10.03421,60.0509 39.74348,109.1166 79.96467,153.8988 55.06343,61.3075 115.34011,84.3726 162.79512,88.6877 3.29164,0.2993 8.30917,0.3773 11.20863,-0.891 z m 10.27522,-16.4752 c -47.4,12.4 -90.8,-16.35 -131.6,-39.75 29.8,4 52.8,18.05 82.2,14.85 22,-1.2 52.8,-4.3 65.5,18.3 -5.3,2.2 -10.6,4.7 -16.1,6.6 z m -148,-374.8 c 83.8,-176.40002 320.6,-58.50002 344.7,99.5 21.8,104.5 -48.8,203.2 -160.2,189.9 -131.3,-12.1 -232.7,-164.6 -184.5,-289.4 z m -42.2,35 c 9.4,-12.8 20.9,-24.1 33.6,-38.4 -27.2,62.9 2.2,93.1 -31.9,72.8 -9.3,0.4 -9.2,-10.8 -12.3,-17.1 -4.7,-9.3 6.6,-11.9 10.6,-17.3 z m -27.8,30.8 c 5.9,-7.6 13.6,-12.6 13.4,-0.1 1.8,10.7 10.5,12.2 17.8,12.9 14.8,1.3 19.1,9.1 19.4,22.6 0.2,8.5 3.3,16.9 5.2,25.8 -15.1,-10.5 -26.5,-26 -45.1,-31.4 -5.3,-1.6 -11.6,2.3 -15.9,-2.9 -9,-11 -4,-19.3 5.2,-26.9 z m -18.2,22 c 3.8,10.7 8.8,16.8 23.2,16.3 19.9,-1.1 31.5,25.1 50.8,29.1 7.6,2.3 4.7,11.5 8.6,16.6 0.2,0.3 -0.1,1 0.1,1.5 1.2,3 6.2,7.2 3.4,8.6 -3.8,1.9 -9.4,0.3 -14.2,0.1 -38.8,0.5 -51.2,-44.7 -86.4,-49.3 2.5,-9.3 7.9,-16.5 14.5,-22.9 z m -16.6,54.1 c -1.7,-8.9 -4.7,-32.3 10.2,-20.2 20.3,11.2 33.2,33.6 55.3,41.8 27,10.1 38.4,-9 53.2,24.6 -74.3,1 -68.2,-36.2 -113.3,-37.3 -6.3,0.5 -4.9,-6.2 -5.4,-8.9 z m 9.6,41.2 c -3.3,-7.2 -4.9,-15.8 -6,-23.8 28.4,-2.7 49.6,34.5 82.6,35 35.8,-0.7 39.9,2.2 60.2,30.9 1.5,1.6 -6.2,-0.3 -7.7,1.3 -41.9,11.6 -67.9,-44.7 -120.5,-32.1 -7,1.7 -6.4,-7.2 -8.6,-11.3 z m 11.4,28.1 c -4.4,-14.5 7,-5.8 9.9,-8.3 41,-4.1 67.2,43 104.4,33.2 24.5,-8.5 32.4,13.3 47.6,21.5 5,3 10.2,6.3 14,10.8 -16.9,9.1 -35.1,2.4 -49.3,-8.1 -16.3,-9.1 -22.8,13.5 -37.5,-9.4 -11.7,-12.7 -25.2,-14.2 -40.6,-10.3 -18,4.5 -43,-11.4 -48.5,-29.4 z m 21.5,36.8 c 1.6,-0.3 3.5,-1.4 4.9,-1 12.1,4.1 24.6,2 36.8,1.5 14.5,-0.6 20,11.4 28.8,18.2 18.8,13.9 21.1,-8 39.3,6.5 9.2,5.4 17.9,8.6 28.9,5.9 21.9,-5.4 41.6,1.4 61.7,10.4 38.5,15 79.6,13.6 120,3.1 -14.9,11.9 -28,22.9 -41.8,33 -1.8,1.3 -7.1,-1.5 -10.5,-3.1 -36,-14.8 -71.6,-4.3 -107.1,-26.6 -7.2,-3.5 -14.6,-1.6 -21.7,-0.8 -25,3 -48.3,0.6 -68,-17 -7.2,-6.4 -15.4,-9.2 -25,-9.6 -11.1,-0.4 -22.8,0.7 -32.9,-2.7 -5.9,-1.7 -9.1,-11.5 -13.4,-17.8 z m 56.6,68.25 c -14.1,-13.6 -23.9,-24.35 -39.9,-40.35 19,7.1 37.6,-1.8 53.6,14.8 14.7,15.1 37.1,17 58.6,15 38.4,-6.9 58.2,21.8 97.8,16.6 12.1,-1 23.9,2.5 35.4,6 3.4,1 6.3,3.5 13.1,1.7 l -40.4,31.6 c -5.6,4.4 -5.5,-3 -6.4,-4.2 -9.5,-12.8 -23.9,-13.6 -37.6,-16.7 -19.2,-4.3 -38.6,1.9 -57.6,-2 -17.5,-2.6 -40.05,-13.55 -57.45,-13.75 -9.2,3.6 -13.95,-3.6 -19.15,-8.7 z m 71.6,-115.05 c 110.2,124.7 296.1,55.9 253.9,-118.6 -24.4,-90.7 -121.4,-168.80002 -217.4,-143.10002 -115.6,34.1 -108.6,186.60002 -36.5,261.70002 z m -43.1,-151.1 c 10.4,-100.50002 120.6,-132.50002 199.3,-82.10002 48.5,29.40002 84.7,80.90002 92.3,137.40002 17.6,72.4 -36.4,152.8 -114.3,149.4 -102,0.3 -189.2,-104.9 -177.3,-204.7 z m 167.9,14.5 c -18.3,42.7 19.4,82.6 58.9,93.5 -7.9,30 -24.7,52.3 -52.1,67.3 -3.2,2.3 -11.7,11.6 -3.5,12.9 33.5,11.1 66.6,-9.7 86.5,-35.7 70.1,-76.6 -43.3,-218.70002 -89.8,-138 z m 94.1,44.1 c 21.8,53 -18.9,124.5 -79.2,121.7 26,-17 51.5,-43.3 51.7,-75.3 -1.3,-9.9 -12.8,-7.8 -19.4,-11.7 -19.3,-11.4 -37.4,-22.4 -39.8,-48.2 -1.3,-14.4 0.7,-26.8 10.8,-37.2 31.4,-21 67.8,21.9 75.9,50.7 z m -138.5,-16.9 c 35.1,-1.5 47.7,-42.2 30.8,-69.5 -0.8,-1.4 -6.3,-6.1 0.5,-7.1 6.3,-0.9 13.1,-1.3 19.4,0 22,4.1 46.9,10.7 67.1,14.9 3.2,-10.9 -26.8,-34.3 -35.7,-40.1 -45.3,-33.40002 -143.9,-44.90002 -152,30.5 -0.4,12.1 4.1,23.1 9.1,33.5 9.8,20.2 31.4,40.6 60.8,37.8 z m -23.9,-115.40002 c 47.9,-11.4 91.9,11.60002 127.1,42.50002 -27.8,-7.8 -52.5,-15.8 -80.4,-9.9 -22.6,4.3 24.7,33 -3,63 -57.6,43.9 -119.7,-77.2 -43.7,-95.60002 z m -74.2,133.00002 c 14.9,51.4 59.8,127.6 123,111.2 51.8,-25.5 19.8,-94 -22.6,-112.7 -44.3,-20.4 -43.8,24.5 -53.9,16.3 -16.3,-16.4 -29.3,-35.7 -38.3,-57 -5.9,-11.6 -0.6,-25.8 -8.3,-36.3 -1.2,0.9 -3.4,1.7 -3.5,2.8 -6.3,25.5 -3.7,50.8 3.6,75.7 z m 49.2,25.8 c 4.9,2.9 7,3.3 10,-3.9 22.9,-53.6 91.8,21.3 78.2,59.5 -2.8,11.2 -16.5,21.4 -30.9,22.1 -28,1.3 -43.6,-18.2 -60.3,-35.7 -23.7,-28.2 -38.3,-63.7 -43.4,-99.9 11.7,22.5 23.5,44.6 46.4,57.9 z"
           id="path10"
           style="display:inline" /></g></g></g><g
     id="g9"
     style="display:inline;opacity:1"><g
       id="Layer_1_2_"><g
         id="g8"
         style="display:inline"><g
           id="g6"
           style="display:inline"><g
             id="Layer0_0_FILL_1_"
             style="fill:#000000;stroke:none"><path
               d="m 52,1548 v 15 l -37,37 h 946 l -37,-37 v -15 H 52 M 52,52 V 37.7 L 14.3,0 H 0 v 1600 h 15 l 37,-37 V 1548 52 m 872,0 V 37.7 L 961.7,0 H 14.3 L 52,37.7 V 52 H 924 M 976,0 H 961.7 L 924,37.7 v 14.3 1496 15 l 37,37 h 15 z"
               id="path5"
               style="fill:#000000;stroke:none" /></g></g><g
           id="g7"
           style="display:inline"><path
             id="Layer0_0_1_STROKES_1_"
             class="st4"
             d="m 961,1600 h 15 V 0 H 961.7 L 924,37.7 v 14.3 1496 15 l 37,37 H 15 0 V 0 H 14.3 961.7 M 52,52 V 37.7 L 14.3,0 M 15,1600 52,1563 V 1548 52 h 872 m 0,1496 H 52"
             style="display:inline" /></g></g></g></g></svg>
