<svg xmlns="http://www.w3.org/2000/svg" xmlns:xlink="http://www.w3.org/1999/xlink" viewBox="0 0 976 1600">
<style type="text/css">
	.st0{fill:#FFFFFF;}
	.st1{clip-path:url(#SVGID_2_);}
	.st2{fill:#5D4E8C;}
	.st3{fill:#333333;}
	.st4{fill:#FFEB5C;}
	.st5{fill:#D81E1E;}
	.st6{fill:none;stroke:#333333;stroke-width:2;stroke-linecap:square;stroke-miterlimit:3;}
</style>
<g id="Paper_Backing">
	<path class="st0" d="M960,22v1556c0,3.3-2.7,6-6,6H22c-3.3,0-6-2.7-6-6V22c0-3.3,2.7-6,6-6h932C957.3,16,960,18.7,960,22z"/>
</g>
<g id="Wikipedia_Cropped">
	<g>
		<g>
			<defs>
				<path id="SVGID_1_" d="M960,22v1556c0,3.3-2.7,6-6,6H22c-3.3,0-6-2.7-6-6V22c0-3.3,2.7-6,6-6h932C957.3,16,960,18.7,960,22z"/>
			</defs>
			<clipPath id="SVGID_2_">
				<use xlink:href="#SVGID_1_"  style="overflow:visible;"/>
			</clipPath>
			<g class="st1">
				<path class="st2" d="M294.8,1128.6c-17.6-11.9-2-46.2-1-63.8c1.7-7-6.1-7.2-10.6-8.9c-18.3-11.5-57-28.9-54-47.8
					c65.2-33,67.1,15.6,89.7-44.5c4.2-6.1,8.3-21.7,16-21c26.6,5.4,28.6,62.5,57.6,49.7c81.9-24.1,56.9,8.3,20.6,54.2
					c9.9,15.2,35,31.7,32.8,55.6c-26,11.2-54.2-9.4-78.2-15C346.9,1104.7,325.4,1118.8,294.8,1128.6z M135,1125.2
					c-26.7-6.9-54.7-64.4-17.5-72.6C137.1,1054,159.2,1121.3,135,1125.2z M194.6,1124.6c-13.6-14.5,8.4-47.9,22.5-53.7
					c11.7-7.7,36.9-10.1,34.5,10.1C242.6,1104.3,216.5,1116.4,194.6,1124.6L194.6,1124.6z M509.4,1088.5
					c-22.8,4-63.5-34.7-28.7-45.1C498.4,1043.9,558.1,1087,509.4,1088.5L509.4,1088.5z M603.7,1063.5c-24.5-9.1,8.3-42.9,23.4-45.2
					c12-4,33.4,1.1,31.3,18.7C647.2,1054.7,623.2,1059.2,603.7,1063.5L603.7,1063.5z M558,1030.5c-23.2-9.1-26.6-49.6-13.6-67.5
					C592.1,921.7,580.4,1015.1,558,1030.5L558,1030.5z M341.8,917.3c-88.6-14.3-69.5-130-15.7-56.8
					C330.5,874.8,365.6,910,341.8,917.3z M436.2,911.6c-49.4,2.8,15-47.5,32.5-44.8C536.4,887.6,478.3,915.5,436.2,911.6z
					 M382.6,865.2c-17.6-13.8-16.9-47.2-13.3-69.5c1.3-23,39-29.5,37.8-0.2C406.1,818.6,399.2,849.5,382.6,865.2z M976,832.6
					c-4.8-0.6-6.9-8-12.2-7.9c-12.7,5-26.1-0.2-38.2-4.7c-32.3-13.8-74.7-21-99.3-46c-3.4-6-8.1,0.1-12.4-2.1
					c-12.7-11.2-37.5-17.1-44-32.3c-38.5-19.3-70.5-53.2-98.6-85.7c-29-26.4-56.7-57.2-83.5-89.2c-40.7-33.3-67.6-122.2-115.2-132.1
					c-53.1-14.3,2.4-59.5-7.8-93.6c1.1-10.4,0.5-28.8-12.3-13.3c-11.6,10-27.6,16.2-41.5,23.2c-9-4,0.5-28.9,1.5-37.2
					c5-5.1-2.2-8.3-3.1-12.7c-0.3-16.3,0.4-36.9-8.1-52.5c-19.1-80.5-29.8,26.3-56.2,39.4c-10.5,2.3-13.2-39.4-22-49.8
					c0.8-8.7-15-26.9-20.7-13.8c-10,27.1-13.1,59.9-36.6,17.5c-2.3-7.5-11.7-2.9-16.6-8.2c-30.5-21.8-15.3-0.8-38.3,19.6
					c-6.4,3-3.6,15.9-9.3,19.1c-2.4,7.9-9.1,15-11.4,22.4c1.2,14.3-5.3,38.7-21.9,20.8c-9.4-5.7-23.1,1.8-32.5-7.8
					c-8.3-1.2-22.1,3-28.2,8.7c0.6,8.7,8.6,17-5.2,20.8c-9.7,4.8-16.5,13.2-26.1,17.4c-2.8,0.2-5.1,2.3-5.5,5
					c-2.5,7.9-6.9,17.7-17.1,20.9c-10.7,5.4,1.6,17.8-4.7,28.9c-7.4,9.2,2.9,13.8,0.4,25c0.1,5.1,2.4,9.4,2.2,15.1
					c1,6.5,8,11,11.2,17.9c4.9,6.2-0.2,13.3,5.9,18.8c21.4,65.8-19.1,125.4-65.8,171c-2.2,2.7-7.1,0.9-6.9-2.7
					c2.2-44.6-1.5-246.2,0-285.9c2.8-2.7-5.3-99.5,3.3-98.1c4.4-1.3,11-8,8.4-13.2c-1.7-3.2,2.1-5.3,2.7-8.2
					c0.8-11.7,20.2-4.2,15.6-16.9c-1.4-3.3,1.2-6.7,2.7-9.7c6.8-11.4,15.8-9.7,23.7-14.9c-0.3-14.7,12.6-21,25.6-24.9
					c0.8-12.7,14.9-16.5,22.9-24.8c5.3-7.1,15-0.8,18.2-8.6c6.1-9.1,20.6-14,30.8-16.8c6.1-2.5,10.4-9,18.1-9.6
					c12.8-3.8,23-11,35.3-6.4c8.4-9.6,27.2-18.1,41.3-11.9c8,6.4,9.2-6.2,15.8-7.3c4.9-0.3,10.3,0.4,14.6-2c7.1-1.1,21.7,5,23.4-5.7
					c9.7-24.1,25-47.2,41.4-67.5c14-13.1,5.6,18.4,15.2,20.4c46-39.9,46.7-46.1,39.9,22.1c2,26.7,61.8-51,76.4-54.5
					c25.9-6.8-14.6,71.5-19.9,82.8c-5.3,27.4,58.8-37.8,81.3-37.1c25.6-7.6,79-29.3,60.1,18.1c-3.1,20.8,53.7-11.1,33.6,23.8
					c-10.8,31.6-37.5,48.1,13.6,47.7c10.7,14.9,12.8,2.4,27,2.5c17-0.4,31.5,9.9,48.6,8.6c8.3,6.2,3.3,7.4,17.3,10.5
					c13.4,6.3,28.9,12.4,36.9,25.4c20.1,0.4,34.2,18.8,51.9,27.8c4.3,3.4-1.2,12.9,7.8,12.3c20.7,3.3,32.6,23.9,48.8,35.9
					c2.5,18.7,17.6,11.2,26.2,25.4c8.5,10,24.7,16.9,24.3,31c20.5,9,34,33.8,51.3,47.4C975.8,517,987.6,691.5,976,832.6z"/>
				<path class="st3" d="M794.9,1570.6c-36.4-7.7-60.6-50.3-99.8-43.3c-44.5-1.1-47-48.8-92.7-44.7c-65.4,7.2-72.2-69-120.2-93.3
					c-27.9-27.1-24.1,20.3-80.3,33.5c-37.6-2.3-75.6-16.4-113.1,3.3c-64.4,26.6-91.9-15.3-171.9,3.8c-58.1,2.9-71.7-62.4-108.6-90.7
					c-40.6-20,27.9-71.9,52-74.1c42.2-23.7,60.5-76.7,117.8-69.3c43.1,6.7,55.2-36.9,95.1-43.1s87.7,4.2,108.8,38.6
					c36.3,57.7,12.3-56.9,126-56.3c49.8-2.8,47.3,37.1,72.5,10.2c7.3-8.2,21.4-1.7,23.9-11.7c8.1-28.6,44.3-60.8,75.6-61.6
					c5.1,1.1,9.2-3,8.3-8.1c3.3-33,10.5-61.3,35.7-87.2c30.5-34.3,68.9-2.3,103.9,1.8c39.4-5.5,67.2,9.7,86.7,42.3
					c54.2,37.5,87.6,99.6,102.2,163.8c2.1,18.9-32,14.1-32,37.1c-5.9,35.6-59.7,78.4-96.4,79.7c-13.8,4.3,8.1,44,1.5,58.8
					c-2.8,37.4-22.7,69-28.1,105c-1.8,13,0.1,25.6-7.6,38.1c-11.2,18.3-29.4,27.4-40.8,45c-3.5,5.6-8.8,1.3-13.1,4.3
					C794.6,1557,804.1,1568.9,794.9,1570.6z"/>
				<path class="st4" d="M0,1604c-11.3,0.8-0.3-258-4-262c12.7-12.3,32.7,22.6,38.4,31.5c26.1,49.8,67.4,69.6,120,54.3
					c29.4-7.4,60.8,9.3,90.1,11.4c32.7-2.3,61.2-21.8,94.3-22.2c45.5,8.9,89.3,15.4,119.4-29.8c2.2-3.9,6-5.1,9.5-2.7
					c58.6,22.7,59.4,101.6,127.9,100.8c45.8-5.9,56.3,45.2,102.2,45.7c37.4-5.4,61,36,94.2,40.9c20.5-3.2,28.6-38,46.1-45.2
					c22.8-14.8,27.9-46.1,28.5-72.4c11.9-46.1,37.5-89.9,21.2-139.1c-9.4-17.3,15.2-13.5,24.6-17.3c19.1-6.3,30.7-13.2,38.6-26.9
					c4.4-6.7,26-27.3,28.8-16.5V1600C981,1611.8,3.9,1599.9,0,1604z M976,367.1c-17.2-15.9-35.2-41-50.7-59.2
					c-8.3-2.9-17.7-11.5-21.1-20.4c-5.3-9.3-21-14.3-26.1-26.2c-3.7-6.3-15.2-6.4-18.1-13.9c-4.7-3.6-5.2-10.5-11.1-11.5
					c-8.3-1.8-13.3-9.5-19.1-14c-5.2-7.2-20.7-10.2-25.5-19.2c-3.3-8-13.8-2.9-19.5-11.3c-2.6-2.1-3.6-8.2-8.3-7.7
					c-12.6,4.7-16.8-12.2-26.2-14.8c-10.4-0.1-17.6-8.3-25.8-12.1c-9.6,0-17.7-7.8-25.8-8.9c-8.6,2.8-15.6-4.5-22.9-7.2
					c-9.8,5.2-18.5,1.3-27.7-3.3c-27.1,6.4-39.8,2.6-24.2-25.8c1.5-10,18.1-28.7,5.5-34.8c-7.7-3.2-14.8,0.6-22.1,2.4
					c-18.1-2.8-0.2-25-4-34.5c-30.3-8.9-65,7-93.7,16.1c-15.1,12.4-36.2,20.1-45.9,34c-2.7,2.2-6.1,3.5-8.9,1.6
					c-2.2-2.1-1.3-5-0.4-7.8c11-22.4,23.4-48.3,24.9-70.8C477.4-24.7,391,97.9,397.5,57c7.9-69.7-3.8-51-43-16.6
					c-7.6-4.4,0.9-21.2-10.4-22.2c-15,10.2-26.5,31.1-39,44c0.5,18.3-10,38.3-30.5,29.7c-10.2-2.6-22.6,9.7-35.4,3.2
					c-12,6.1-26.3,9.1-38.8,12.3c-8.9,3.1-18.4,9.3-28,7.9c-9.4,4-19.6,15.7-31.4,13.1c-7,1.7-9.8,11.7-18.1,12
					c-4.3,2-10.5,0.8-11.7,6.4c-1,5.3-7.3,3-9.7,6.7c-4.2,6-11.2,7.1-17.9,8.1c-4.5,8.3-12.2,19.4-23,22.8c-2.8,0.2-5.2,2.3-5.6,5.1
					c-0.9,6.8-7.6,9.4-10.1,12c-1.3,3.8-7.8,10.8-10,9.6C23.3,224,7.5,242.6,5.1,260.9c1.6,5.9-7,14.8-9.1,5.5C-4,187.6-4,78.7-4,0
					c130.3-11.8,432.1,0.1,569.2-4C693.8,0,855.9-11.6,980,0c-0.1,83.7,0,175.4,0,259.1c0.5,26.7-0.3,76.8,0,104
					C980,365.3,978.2,367.1,976,367.1z"/>
				<path class="st5" d="M126.7,989.3c-50.6,2.2-95.3-15.5-130.6-24c0-22.8,0.1-63.8,0-86.9c1.3-7.2,9-3.5,11.3,1.2
					c12.3,14.8,28.7,26.9,53,39.4c33.2,17.9,63.8,28,104.7,36.2c8.4,1.8,14.5,4.2,16.6,12.6c11.1,6.3,29.4-7,38.8,1.6
					C195.8,992.8,155.5,986.6,126.7,989.3L126.7,989.3z M634,926.9c-11.8,1.8-10.1-13.5-23.5-6.1c-78.7,13.5,25.8-23.3,43.1-33.9
					c44.5-22.3,88.9-61.6,126.9-100.3c13.6-25.7,33.9-7.5,48.9,4.7c11.4,8.3,38.1,7.2,46.2,22c-14.8,22.4-44.1,36.7-66.8,53.7
					C754.1,902.2,697,917.6,634,926.9z M217.4,880.9C132,876.6,53.6,812-4,767.9V667.4c6.4-8.3,19.3-14.2,27.4-22
					c57.4,73.6,113.9,158.8,194,212.1c4,3.5-2.3,10.6,4.6,12.8C236.4,873.4,228.9,883.2,217.4,880.9L217.4,880.9z M535.2,841.6
					c-7.8-7.7-16.7-0.9-25.8-0.2c-16.6-4.1,25.3-27.7,29-33.8c44.5-32.3,78.9-75.3,112.1-118.6c6.7-7.3,9.8-20.2,19.3-23.7
					c14.4,6.7,26,27,38,35.9c11.8,5.1,19.4,19.1,30.3,26.4c11.7,10.2,5.4,16.1-3.3,20.8C676.5,796,611,833.3,535.2,841.6
					L535.2,841.6z M248.4,723.1c-20.9-14.2-20.8,0.4-38.2-10.4c-8-6.4-9.2,8.3-17.2,5.9c-19.4,1.6-31.8-14.7-44.2-24.6
					c-9.3,3.8-15-8.9-17.4-15.7c-1.5-6.3-11.3-5.3-11.7,1c-42.7,7.3-70.2-69-51.9-107C103.2,484.7,26.6,440,58,394.9
					c11.4-5.9-5.2-19.7,14.4-31.5c11.5-2.8,6.9-10.3,18.2-18.3c7.5-7.3,19.4-10.9,25.4-18.5c-5.3-14.6-8.6-15.7,11-15.5
					c107.2,17.4,27.9,16.2,103.2-80.1c5.7-8.4,14.2-3.9,18.7,1.9c53.8,45.2,32.1,35.5,58.4-16.3c19.3,6.8,25.9,82.5,39.9,69.6
					c23.1-18.5,25.3-49.3,38.5-70.9c25,27.9,24.6,89.4,21.6,126.8c14.6,30.9,90.2-85.6,41.6,62.8c-4,39.4,69,23.4,54.1,71.2
					c-4.6,15.1-16.9,23.6-15.2,41.4c9.5,86.3,14.3,97.6-66.9,47.7c-74.9-30-52.5-27.5-57.9,22.2c-1.4,12.3-17.1,22.2-18.8,34.5
					c15.6,8.6,17.9,24,7.6,42.3c-7.9,13-18.5,25-31,20.4c-5.3,0.3-7.8,8.1-13.7,5.8c-10.6,3.5-15,27.6-29,23.5
					C267.9,709.5,259,724,248.4,723.1z M295.5,89.8c-48.2,6.1-113.3,20.7-181.8,57.3c-24.6,13.1-46.2,27.2-64.8,41.1
					c-3.7-12-7.5-24.1-11.2-36.1c23-17.7,55.4-38.5,97.1-54.8c68.6-26.7,130-28.2,166.9-26.2C299.6,77.4,297.6,83.6,295.5,89.8z
					 M960.6,346.4c-43.5-51.4-85.2-88.3-117.1-113.3c-25.3-19.9-48.1-37.7-81-54.8c-58.3-30.3-112.8-40.2-149.5-43.6
					c4.6-10.8,9.1-21.6,13.7-32.4c46.8,4.4,123.6,17.8,205.5,63.5c55.8,31.1,96.2,67.3,123.3,95.9
					C957.3,289.9,958.9,318.2,960.6,346.4z"/>
				<path d="M1019.3,1178.3c-9-33.7-20.1-66.8-40.3-95.8c-12.3-18.7-24.2-37.3-43.3-50.4c-9.3-6.4-18.8-13.2-25.2-23
					c-3.4-5.2-5.7-11.3-9.8-15.9c-30.3-34.1-67.8-7.2-119.6-36.5c-54.7-20.3-96,46.7-97.5,94.5c-0.4,5.8,4.5,18.2-11.1,16.3
					c-28.2,4.1-52.1,26.9-66.8,50.7c-2.7,4.5-5.3,10.3-9.5,12.3c-4.9,2.4-10.6,2.8-15.2,7c-3.3,3.1-8.8,7.3-11.9,6.3
					c-4.5-1.4-1.7-7.9-2.1-12.2c-0.6-6.9-1.7-14-0.8-20.8c1.2-8.7-2.8-19.7,10-24.6c7.3-3.2,12.6-16.5,20.5-18.5
					c19.5-0.1,37.3-5.6,53.7-15.8c44.6-38.3-38-53.7-51.8-16.7c-6.3,15-9.5,32.1-24.5,42.3c-5.7,4.8-9.2,7.7-9.1-3
					c-0.7-8.4-1.5-16.8-1.9-25.2c-0.3-5.3-1.9-12.1,0.6-15.7c14.9-23,39.8-78.1-0.9-87.1c-33.3,3.1-35.9,50.2-23.2,72.7
					c4.1,7.8,13.8,11.3,14.5,20.9c1,13.5,1.6,26.9,2.1,40.4c0,1.1,3,5.4-1.7,4.1c-25.7-5.8-36-32.8-60.3-42.3
					c-50.4-16.8-38,48.6,12.9,49.1c10.7,1,19.8-8.8,30-4.1c7,3.3,18.9,1.3,19.9,12.3c1,10.2-0.6,20.6,1.4,30.9
					c0.5,2.8,6.5,20.6-8.6,6.7c-58.1-26.2-130.7,3.9-151.4,64.4c-9.7-17.4-31.3-27.4-27.5-50.2c2.7-19.9,2.1-38.5,2.1-59.1
					c17,12.4,35.9,16.6,55.3,18.3c21.8,1.9,25-0.2,22.2-18c-2.3-14.6-11.1-27.6-22.5-37.5c-5.6-4.8-11.9-5.7-2.9-14.5
					c11.5-13.3,28.4-33.4,29.5-51.5c-0.6-11.6-8.8-9-16.4-8.9c-14.4-1.1-28.8,0.4-42.6,4.7c-8.5,2.5-13.7,2.7-13-8
					c0.8-13.6,1.5-27.3,2.6-40.8c0.5-5.9-0.5-13.2,8.6-14.4c30.8-11.7,17.8-4.9,46.8-3.1c17.8-1.4,35.9-2.4,52.7-10
					c46.8-40.7-47.2-67.7-71-21.9c-5.4,8.6-6.8,24.3-22.8,23.1c-4.4-0.3-13.2,10.9-12.6-2c0.6-15.8-2.1-31.1,7.7-45.4
					c11.8-17.4,16.2-38.7,20.1-59.6c6-48-50.4-45.5-52.5,0.9c-2.3,17.6,1.3,33.3,6.6,49.2c3.5,10.6,11.9,19.8,11.1,31.6
					c-3.3,13.4-4.1,26.2-3.8,41.1c-19.2-11.2-23.4-25.6-31.2-44.8c-11.7-22-29.9-64-60.8-45.8c-27.2,24.3,2.6,63.1,27.8,75.8
					c10.1,5.9,20.7,11.1,32.6,9.7c6.6-0.8,29.8,11.4,29.8,18.1c-0.9,11.2,0.1,23.9-3.7,34.3c-26.5-32.9-31.9-59.4-60-7.6
					c-7.1,8.3-0.3,28.8-23.3,24.2c-14.4-2.8-29.9,0.9-44.6,5.3c-21.6,6.1-24.3,14.5-13.3,28.5c11.5,15,28.4,24.5,45,33.8
					c5,2.8,16.9,1.6,14.4,8.5c-4.7,12.6-16.7,67.2,3.7,67.6c26.1-3.9,49.8-16.9,69.8-34c3,17-4.1,33.7,0.2,51
					c1.3,5.2-2,11.9-10.7,6.5c-25.1-15.1-56.9-14.5-85.1-10.1c-44.5,7.7-52.5,68.6-78.9,22.7c-3.9-4.3-12.3-9.1-9.9-13.6
					c5.3-9.9,12.3-20.6,21.5-26.2c21.9-13.4,63.7-26.4,56.9-59c-4.1-12-15.7-11.1-26.4-9.8c-18.5,2.3-39.8,26.2-41.2,44.8
					c-0.6,7.4,2.8,15.8-2.8,22.6c-5,6-10.7,11.3-13.5,18.9c-0.3,0.7-2.9,1.3-3,1.3c-5.5-11.5-22.3-15.4-20.4-32.1
					c2.1-17.8-1.4-35.8-10-51.6c-10-24.1-37.7-23.6-43.6,2.8c-3.5,17.8,12,46.5,27.8,55.6c8.7,5,19.3,5,26.3,14.9
					c12.6,17.6,27.3,33.7,41.1,50.3c-109.1,1.9-71,42.9-144.5,75.4c-18.9,5.9-36.5,18.1-46,36.6c-6.6,12.9-16.1,31.6,0,41.8
					c14.4,7.2,23.3,20,30.9,33.5c26.7,50.4,68.9,72.3,124.2,56.2c35-8.8,66.6,16.1,101,10.1c20.4-4.8,40.2-12.1,60.4-17.9
					c13.4-3.8,27-3.6,40.9-1.4s27.3,9.6,41.7,6.8c25.9-5.1,46.8-18.7,62.5-40c0.6-0.8,1.5-3.2,3.9-1.6c10.1,6.9,20.5,13.5,30.6,20.4
					c17,11.6,23.3,31.2,34.8,46.9c20.9,32.5,47.8,32.8,82.4,36.3c9,1.6,18.9,3,25.3,10.6c32.5,38.5,42.8,27.8,84.5,36.6
					c28.6,8,62.5,61.5,89,24.3c7.5-12.6,16.2-23.9,28.5-32.9c11.8-8.6,19.7-20.7,25.2-34.8c5-13.2,2.3-26.7,4.9-40
					c12.3-45.9,37.9-93,21-141.3c-0.7-2.1-4.4-7.4,1.4-8.4c6.9-1.1,13.6-1.5,20.7-3.7c15.5-4.8,28.8-11.6,38.5-24.8
					c2.9-4,3.8-9.2,8.9-11.8c15.6-7.8,25.3-20.9,28.3-38.5C991.5,1196.4,1030.1,1207.5,1019.3,1178.3z M602.1,1045.4
					c24.6-52.9,103.1-5.7,1.5,14.1C593.7,1056,600.5,1049.1,602.1,1045.4L602.1,1045.4z M522.1,1081.9c-19.6,8.8-51.2-6.5-51.1-26.9
					c9.7-21.3,43.1,10.1,52.1,20.7C525.5,1078.6,527,1079.8,522.1,1081.9L522.1,1081.9z M422,902.6c47-66.2,100.1-6.3,56,0
					C472.8,904,414,913.8,422,902.6z M379.3,857.8c-28.3-78,23.6-100.9,24.3-57.5c-1.9,20.8-10.1,39.9-18.8,58.8
					C382.6,863.8,380.4,859.5,379.3,857.8z M345.8,911.1c-1.9,3-5,2.3-7.2,1.6c-19.9-5.9-37.4-15.7-48.7-33.8
					c-6.6-10.6-10.9-21.7-2.2-33.4c2.4-3.2,5.3-5.4,9.9-4.5c14.4,2.2,20.4,14.2,26.9,24.7c7.7,12.4,13.7,25.8,20.9,38.5
					C346.9,906.9,347.4,908.6,345.8,911.1z M195.6,1107c4.7-21.2,25.5-43.8,49-36c4.3,2,0.8,6.3,3.2,8.5
					c-8.7,22.5-32.7,32.2-53.2,41.1C194.8,1116.1,194.4,1111.3,195.6,1107z M138.4,1120.4c-6.3,3-11.6-3-14.8-6.3
					c-12.8-12.3-34.1-48.2-7.4-57.4c7.2-0.9,9.7,5.9,13.2,11.4c8,12.4,11.3,26,11.1,40.2C140.4,1112,143.1,1118.2,138.4,1120.4
					L138.4,1120.4z M558,1026.6c-19.7-11.6-21.5-44.9-10.3-61.3c10.5-15,29.3-8.6,27,9.7C574.3,993.7,565.8,1010,558,1026.6z
					 M402.3,1256c1.9,3.9-5,2.8-8,2.8c-23,0.2-46.1-1.3-68.9,0.5c-47.4,3.2-94.9,8-141.8,15.9c-29.9,6.4-59.3,15.5-89,22.6
					c-0.2-0.5-0.4-1-0.6-1.6c36.3-15.7,73.8-28.6,112-38.7c44.5-10,90.7-12,136.2-14.4c16.9-0.9,33.9-1.9,50.8-1.8
					C401.7,1241.3,399.9,1251,402.3,1256z M353.1,1094.1c-17.6,13.3-37.2,22.7-57.5,30.3c-10.7-1.1,0.8-52.2,2.8-61.1
					c2.9-11.4-8.2-8.6-13.3-11.1c-20.5-10.1-38.8-22.9-54.2-40.6c56.6-27.4,77-0.2,79.7-17.3c2.7-16,12.7-28.6,19-42.8
					c4.4-10,10.5-2.8,13.7,1.2c8.6,10.7,18.2,21.3,23.5,33.7c7.6,17.8,18.9,11.9,30.8,8.5c13.4-3.3,27-5.7,40.8-7.2
					c10.6,0,5.6,7.9,0.5,16c-8,12.7-14.7,26.3-27.2,35.9c-16.5,12.6,18.2,16.3,30.7,56.2c6.9,15.7-61.9-5.3-67-11.8
					C366.1,1078.6,359.7,1089.1,353.1,1094.1L353.1,1094.1z M2,1331.7c-4.5-5.8-0.3-12.4,1.8-18.5c9.4-27.8,34.3-35,57.9-44.4
					c18-7.1,30.3-21.6,41.7-36.2c34.6-45.5,70.9-23.1,112.7-39.8c19.5-11.8,32.6-33.9,57.4-36.1c30.1-4.1,62.2-0.7,87.3,17.4
					c12.6,9.4,19.7,24.6,30.9,35.1c8,7.5,3.8,13.8,3.8,20c-0.1,11.6-10.1,3.3-15.3,5.4c-10.5,4.2-14.7-4.2-20-11.6
					c-10-12.6-32.9-47.7-48.8-48.8c-2.3,3.2,0,5.6,2.6,8.5c14.3,16.3,28.2,33.1,42.2,49.7c1.4,1.9-0.4,2.4-1.9,2.6
					c-13,0.2-26.1-0.7-39.1,2c-5.7,1.2-6.3-4.9-8.5-7.8c-7.2-9.8-50.6-59.3-61.4-45.7c-1.5,3.5,1.5,4.9,3.6,5.9
					c11.8,6,18.8,17.8,29.3,26.4c-12.8-4.4-25.7-8.9-38.5-13.3c-4.9-1.7-11.4-8.6-14.5-1.5c-2.6,5.9,6.8,8,11.1,9.6
					c16.4,6.1,32.7,12.7,50.5,14.9c4.7,0.6,8.6,6.8,13.9,11.2c-34.5,3.6-68.4,4.5-101.5,14.8c-12.7,3.7-20.1-4.5-29.8-7.2
					c-10-1.6-57.7-17.7-59.5-4.1c-0.4,4.3,4.9,4.1,7.2,4.5c18.9,3.3,39.4,3.8,57,11.9c-46.3,18.4-95.4,34.4-137.5,63.2
					c-6.6,4.7-14.6,8-21.2,13.2c-4,3.3-9.9,2.8-13.2-1.2C2.1,1331.8,2.1,1331.8,2,1331.7z M443.8,1394.7
					c-54.6,48.6-63.5,7.7-120.6,17.8c-26.3,3.4-49.5,18.2-75.9,20.2c-14.6,1.1-28.4-4.6-42.3-8.5c-45.1-15.4-93.4,21.4-134-15.1
					c-22.1-19.3-30.9-48.5-53.7-66.1c56.4-32.7,118.8-45.6,183.4-60.6c-14.6,14.5-25.8,30.2-41,38.9c-10.3,5.9-25.7,5-38,9.8
					c-16.2,6.3-33.5,10.9-45.4,25.3c-2.2,2.6-0.8,3.5,0.5,4.6c2.2,2.1,4.4,0.2,5.9-1c19.1-15.1,42.6-20.4,65-27.9
					c-7,9.7-63.9,59.6-57.3,68.3c3.3,1.9,6.4,0.3,8.3-2.3c9.2-12.8,21-23,32.1-33.8c25.4-25.7,54.5-48.3,75.9-77.7
					c7.6-10.4,19-7.1,28.7-8.5c23-3.3,46.3-4.7,69.5-7c6.3-0.6,6.5,3.6,4.9,6.9c-5.9,11.8-4.9,25.4-10.6,37.5c-4,8.5-12,8-18.2,11.4
					c-18.1,10.2-36.4,20.4-51.3,34.9c-4.7,4.8-16.4,15.2-11.4,23.1c1.3,0.3,2.6-0.1,3.5-1c18.9-22.7,43.5-41.7,70.6-52.3
					c-8.7,28.2-30.2,51.9-49.3,74.3c-2,2.1-4.2,5.3-0.8,8.3s5.6-0.7,7.3-2.4c36.5-36.9,64.7-84.6,69.3-137.2
					c0.1-3.9,2.7-5.2,5.9-5.3c13.2-0.6,26.5,1.8,39.6-2c3.7-1.1,5.5,1.8,6,4.3c2.4,10.8,4,21.7,6.4,32.4c2.1,9.7-6,13.9-10.4,19.8
					c-10.1,13.5-19.4,27.5-25.4,43.3c-1.1,2.8-2.5,9.2,2.6,9.7c5.7,0.6,5.2-6.4,7.1-10.1c8.3-14.6,14.2-33,28.1-43.1
					c3.1,14,2.8,29.1,2.2,43.6c-0.3,3.2,3.1,9.6,3.7,9.5c11.2,0.9,3.1-65.4,2.1-74.6c-1.3-10.7-3.9-21.2-6-31.8
					c-0.4-2-0.1-2.7,2.2-3.1c31.1-7.3,55.1,16.7,55.6,47c1.7,13,2.3,26.1,4.3,39C444.3,1375.4,470.9,1378,443.8,1394.7L443.8,1394.7
					z M794.9,1566.7c-35.9-8.4-54.8-47.4-96.4-43.5c-45,2.2-47.2-49.3-97.6-44.6c-60,1.5-61.4-45-94.9-77.3
					c-11.7-9.2-24.6-16.9-36.7-25.7c-29.6-23-10.7-65-28.3-94.3c-13.4-23.2-36.7-24-34-56.2c0-56.9,58.8-90.6,110.6-85.7
					c37.1,3.6,62.5,35.3,83.8,63.4c-22.8,4.5-9,10.8-39.9,3.7c-31.4-4.5-65.8-10.4-96.4,1.1c-1.3,0.6-4,1.7-2.6,4.5
					c1.3,2.4,3,1.4,5,1.2c36.2-5.3,70.1-5.2,106.6,2.8c-39.6,28.4-73.9,63.7-101,104.2c-1.4,2-1.4,7.5-0.4,8c3.3,1.7,3.4-2.6,5-4.3
					c25.3-28.9,48.5-60,80.7-82c-3.1,28.3-14.1,54.5-28.3,78.9c-2.1,4.1-8.3,8.2-5.1,13.2c2.7,3,4.5-0.4,5.6-1.4
					c20.1-22.8,34-54.4,36.8-84.4c1.1-25.8,22.5-29.3,38.3-38.1c4.5-2.5,10.5,6.9,14.7,11.8c11.2,13.2,21.2,27.5,32.8,40.3
					c8.8,9.6-1.2,14.5-3.7,20.8c-6.7,16.9-14.9,33.2-21.5,50.3c-3.3,4.1-51.8,148.4-28.9,120c11.8-40.3,21.7-72.6,35.5-114.4
					c0,21.3,4.8,37.6,2.8,54.9c-1.6,13.7-2.3,27.6-4.4,41.3c2.5,7.8,10-2.4,9.7-6.2c4-26.2,8.2-52.8,0-78.5
					c-7.3-22.7,4.7-39.2,13.4-57.2c3.7-6.2,6.5-22.7,13.7-10c15.3,25.3,33.4,50.4,47.3,76c0.9,6.6-0.7,13.8-2.4,20.5
					c-4.1,16-4.2,32.4-6.9,48.5c-1.7,14.4-8,60,2.5,68.9c5.8-8.7,1.1-20.8,2.8-30.8c0.7-11.6,2.2-23.2,3.5-36.1
					c14.8,18.6,15,39.9,20,61.4c0.3,1.6,0,4.2,2.9,3.4c11.9-8.6-7.8-61.2-16.9-71.5c-8.8-15.6,0.5-34.2,3.3-50.3
					c18.3,30.9,34.8,64,46.2,98.1C781.2,1502.3,790.7,1534.6,794.9,1566.7L794.9,1566.7z M769.6,1438
					c-42-90.9-94.6-177.8-162.5-251.8c-8.5-9.4-17.6-18.2-26.9-26.8c-9.6-8.9,1.7-9.6,4.9-12.1c15.2-11.7,20.8,4,28.9,11.1
					c17.6,15.5,34.5,31.7,49.1,50c73.7,88.7,120.4,196.7,134.5,311.2C787.6,1492.4,781.4,1464.4,769.6,1438z M885.8,1359.7
					c-2.9,37.2-22.7,68.6-28.1,104.7c-1.8,12.3,0.2,24.9-7.1,36.6c-7.6,12.2-18.4,20.7-28.7,30.2c-5.5,4.7-8.5,12-14.3,16.6
					c1.7-66.5-21.3-130.7-42.1-192.2c10.1,1.9,19,9.8,28.6,13.7c10.9,5.5,7.5,17,10.2,25.5c2.2,8.5,26.1,66.3,35,59.4
					c2-1.8,1.3-3.1,0.2-5.4c-12.8-22.4-23.6-44.1-29.2-69.8c14.8,8.6,28.7,18.7,41.5,30c0.9,0.8,3.2,0,4.8-0.1
					c-0.8-14.4-34.5-33.3-47.2-40.6c-13.1-6.8-24.7-17.4-38.7-22.4c-22.5-7.9-22.5-30.9-33.5-46.3c-8.4-11.7-14.8-24.8-22.2-37.2
					c-1.5-2.5-0.8-3.9,2-3.1c14.7,4.1,31.3,2.1,44.1,10.5c8,5.3,12.5,15.9,18.8,24c12.3,15.7,26.5,29.3,43.4,40.1
					c7.6,4.8,14.9,10,22.2,15.3c3.2,2.4,6.4,3.5,8.5-0.3c1.7-3.2-1.8-6-3.9-7.4c-29.4-18.5-52.9-41.5-75.4-68.2
					c24.3,5,44.2,14.5,66,23.7c0.8,0.3,3.4,2.9,4.3-0.5c1.5-10-33.9-22-42.3-25c-22.1-7-43.7-16.4-67-19.3c-9-1.1-17.7-5.6-27.4-1.9
					c-1.8,0.7-6.9-4.8-9.2-8.3c-10.5-15.8-21.3-31.3-33.6-45.9c-7.8-9.2,5.9-6.8,8.9-8.4c9.1-4.6,19.8-4.9,29.3-9.3
					c9.3-4.3,15.6,4,23.1,7.6c21.7,10.2,41.8,24.3,66.4,27.3c3.3,0.2,11.4,5.4,11.7-0.9c0-3.2-1.7-4.6-4.7-5.3
					c-26.7-6.1-50-19.9-75.8-33.8c16.3-1.5,30.2-2.9,44.2-4c3-0.3,6.1,0,6.2-3.9c-0.5-13.5-89,8.1-99.9,11.7c-4.5,1.1-4.5-2-3.8-5
					c7.7-21.2,14.5-42.8,21.8-64.1c2-3.5,4.1-9.9-0.4-12.1c-2.5-1.1-3,2.5-4.2,4.4c-9.2,15-11,32.8-17.9,48.4
					c-4.5,10.2-6.8,20.4-8.2,31.3c-4.2,17.7-34-24.6-42.4-28.7c-31.2-21.5,10.5-49,28-64.4c23-18.4,58.2-12.9,75.1,11
					c12.2,17.3,28.9,27.8,50,33.9c18.5,5.4,34.8,16.7,46.4,32.1c19.1,21.8,22.4,50.7,29.3,77.7
					C860.3,1282,891.4,1314.7,885.8,1359.7L885.8,1359.7z M728.7,1085c-7.4,0-11-14.5-20.3-11.7c3.1-7.6,47.5-2.7,57-2.7
					c40.4,4.3,80.6,14.9,115.6,35.7c8.6,5.6,19.7,7.4,25.9,16.8C850.8,1099.1,790.2,1082,728.7,1085z M770.4,1117.1
					c-1,5.5-7.6,0.1-10.5-0.8c-11.2-3.5-17.7-13.7-25.9-21.4c-2-1.9,0.5-1.8,1.6-1.8C750.8,1090.3,772.5,1099.9,770.4,1117.1
					L770.4,1117.1z M999.1,1196.7c-27.8,13.7-11.8,47.7-43.1,60.9c-5.1,2.3-7.3,10.4-11.9,14.6c-15,13.7-32.8,21.7-53,24.8
					c-4.6,0.7-6.3-1.8-7.9-4.9c-13.5-23.7-25.1-48.8-29.9-75.8c-5-39.3-27.5-72-63.1-89.9c-10.5-6.9-11.4-20.8-17.3-31.4
					c15.4,0,29.8,2.9,44.1,7.3c9,2.8,18.4,4.6,27.6,6.7c5.2,1.2,5.9,5.1,6.3,9.4c0.4,16.7,36.4,145.5,52.7,139.8
					c2.2-1.9,1-3.6-0.3-6c-9.4-18-17-36.6-21-58.1c17.3,14.6,33.2,28.4,44.6,46.4c2.1,2.1,8,12.9,10.8,9.5
					c7-11.7-44.9-63.5-58.3-66.1c-3.9-1.7-5-10.7-6.4-16.6c-4.3-17.8-12.4-34.6-13-53.6c15.2,6.4,31.9,11.5,46.2,20.4
					c6.1,3.8,7.2,15.6,10.5,23.7c10.1,27.4,26.1,51.5,42.5,75.5c3.8,7.7,12.2,2,6.7-4.3c-19.9-26.9-31.8-58.4-46.7-87.5
					c15.7,8.5,31.7,16.3,45.4,27.8c3.4,2.9,8.4,5.7,11.2,2.8c1.3-1.1,1.4-3,0.3-4.3c-0.1-0.1-0.2-0.2-0.3-0.3
					c-21.2-20.5-43.8-39.3-67.8-56.3c23.6-0.9,45.8-1.3,67.8,3.8c1,0.1,2-0.1,2.2-1.8c0.3-2.6,0-5.7-2.8-6.1
					c-20.6-3.2-40.9-9.9-62.2-4.8c-14.7,3.5-27-3.9-39.5-9.8s-25.5-11.5-37.8-17c8.7-4,18.8-6.6,27.9-12.2c5-3.1,9.1,4.2,13.8,6.2
					c11,5.8,61,19.7,67.2,7c0.2-3.2-2.9-2-4.6-1.9c-21.4,0.5-42.6-4.7-61.2-15.2c11.5-3.4,22-6.5,32.5-9.7c1.9-0.6,4.8-1.3,3.3-4.3
					c-3-5.6-8.5-3.8-12.5-2.6c-18.7,5.5-37.1,11.9-55.7,17.7c-10.3,3.2-19.3,12.3-30.5,9.8c-19.6-4.5-39.1-9.2-59.4-9.7
					c-1.7,0-1.6-0.4-0.6-2c10.8-19.1,27.6-27.3,48.9-30.3c18.6-2.6,35.9-10.5,51.7-21.2c6.2-4.6-0.7-10.1-5.5-5.5
					c-17.3,10-36.2,15.5-57.4,19.3c8.2-6.4,15.3-11.5,21.9-17.2c3.5-3,11.4-5.4,8.2-10.4c-4-6.5-8.9,1.4-12.7,3.7
					c-19.4,10-34,26.7-51.6,39.2c-1-14.9-0.2-29.9-0.4-44.8c0-2.7,0.1-5.4-3.3-5.4c-3,0-4.7,2.2-4.8,5.2
					c-0.7,15.2-3.1,30.7-1.4,45.6c1.1,9.2-0.7,14.6-6.3,21c-3.6,4.1-6.9,1-10.1,1.4c-13.8,1.7-28,0.3-41.1,4.9
					c2.8-56.7,42.5-128.7,107.5-88.8c23.6,13.7,52.3,0.3,77.5,11.6c18.4,6.5,22,25.5,34.9,36.3c16,14.3,34.9,26.8,48.3,43.7
					c22.9,36.5,43.9,74.9,52.5,117.5C1014.2,1195.2,1004.3,1193.9,999.1,1196.7L999.1,1196.7z M450,494.9c-11-1-13.6,8.1-14.4,14.4
					c-1.4,10.7,13.7,24,24.4,23.7c9.4-0.3,12.9-6.7,13.4-14.8C473.9,507.1,461,495,450,494.9z M459.8,523.9c-9.3-1-13.7-8.3-16-16.2
					c-0.7-2.3,3.2-4.4,6.1-4.8C458.2,503.9,471.9,520.1,459.8,523.9L459.8,523.9z M406.7,372.9c-28.8,5-31.9,36-1.8,38.8
					C429.8,412.3,431.6,374.7,406.7,372.9L406.7,372.9z M403.9,402.9c-15.1-1.6-12.2-21.8,1.8-21.7
					C418.8,381.8,417,403.3,403.9,402.9L403.9,402.9z M390.1,434.9c-30.3-25-68.5-45.6-109.2-43c-3.3,0.3-5.9,2.3-5.6,5
					c4.1,6.9,16,2.8,22.7,5.3c11,1.9,21.7,5.2,32.7,6.9c1.4,0.2,2.7,1.7,4,2.6c-7.4,4.9-6.3,25-17.8,12.7
					c-7.3-6.2-15.1-15.8-25.5-15.4c0,1.9-0.9,4.6,0,5.6c5.1,5.4,10.6,10.5,16.4,15.2c22.9,17.5,56.8,31.4,82.7,35.2
					c7.7,0.1,25,1.3,19.6-7.2S398,441.1,390.1,434.9L390.1,434.9z M385.2,454.9c-10.2-3.1-20.5-7.3-30.6-10.6
					c1.6-6.4,10.4-8.6,8.5-17.5c13.5,9.9,25.2,16.7,34.5,29.8C393.4,456,389.1,456.1,385.2,454.9L385.2,454.9z M378.5,1051
					c-18.6-1.7-36.9-0.3-54.7,5.2c-3.8,1.2-6.7,0.4-8.3-2c-1.7-2.7,1.4-4.3,3.6-5.8c8.7-5.8-1.9-10.7-1.2-16.5
					c0.6-5.1-2.8-10.6-3.9-16c-0.3-1.4,1.4-4.6,2.4-4.7c8.4-0.2,11.8,26.3,15.1,32.8c5.3-2,14,1.5,11.1-7c-2-11.1-9.2-43.5-3.4-52
					c8.9,7.9,10.5,40.5,11.9,53.2c0.1,3.3,2.1,2.9,4,2.7c2.9-0.4,7.5,1.3,7.8-3.4c1-6.2-0.9-33.9,8.3-32.2c5,0.8,2.1,7,2.2,10.4
					c0.2,7.7-2.3,15.5-1.8,23.1c0.3,4,6.3,2.4,9.7,3.6c2.8,0.9,8,1,7.2,3.8C387.5,1049.3,382.9,1051.4,378.5,1051z M349.9,365.9
					c32.1-0.3,28.9-44.8-2.1-42.7C326.4,325.8,326.7,365.3,349.9,365.9L349.9,365.9z M341,345.3c0.7-5.9,1.4-12,9.5-12.2
					c7.6-0.2,12.1,4.4,12.2,11.3c0.1,9.6-8.5,11.7-15.4,12C342.3,356.7,340.4,350.8,341,345.3z M354,481.6
					c-18.7,9.9-35.5,21.4-53.5,32.4c-1.3,0.8-2.8,2.2-3.6,0c-1.6-8.9,25.2-22.7,32.6-27c5.3-2.7,10.3-5.9,15.3-9
					C349,475.4,350.9,478.2,354,481.6L354,481.6z M325.5,473.8c-17.3,9.9-34.5,19.8-51.6,29.9c-4.5,3.8-6.7-4-2.6-5.9
					c13.6-10.3,27.8-19.6,43.3-26.7c3-1.4,4.8-5.9,6.4-5.2c4.7,1.6,7.3-0.2,8.3,3C330.3,472.4,327.5,472.6,325.5,473.8L325.5,473.8z
					 M294.1,339.8c26-2.2,18-41.5-2.5-42.9C263.2,296.1,264.2,344.3,294.1,339.8z M284.4,307.8c6.9,1.9,18.4-0.2,16.5,12.1
					c0.3,7.5-2.2,11.2-9.2,11C279.7,332.2,274.4,310.5,284.4,307.8z M305.3,459.5c-20.2,10.3-39.9,22.2-60.4,31.6
					c-7.8-2.3-1.5-5.9,2.3-9.6C251.5,478.5,316.3,439.3,305.3,459.5z M279.9,448.9c-23.4,3.9-43.6,15-65.8,22.9l-2.9-1.7
					c2.4-8.4,75-39.1,75.4-25.3C286.8,448.4,282.3,448.6,279.9,448.9z M153.7,984.5c21.3-1.2,42.8-4.4,62.8-14
					c-35.3,3.4-71,8.6-106-0.7c-9.7-2.5-19.7-5.2-29.6-6.3C70.1,963.6-9.3,937-0.2,924.7c1.9-3.6,3.7-0.4,5.3,0.8
					c42.2,24.4,123.2,46.3,170.6,37.6c-39.7-11.4-81.1-19.3-117.2-40.6c-21.2-11-42.7-24.5-57.1-44.1c1.3-4.5,7.3-3,9.6-0.2
					c14.8,12.7,30.5,23.9,47.9,32.9c60.5,34.6,129.9,47.3,198.9,43.9c3,0.1,5-4.1,8.5-0.7c12.1,11.6-3.5,11.4-6.8,13.2
					c-45.2,26.9-98.8,31.8-150.4,33.5c-35.9,0.1-71.4-7-104.5-20.8c-6.3-1.6-4.9-10.1-4.7-15c1.7-15.5,12.6-1.7,16.7,0
					C60.8,983.9,107,987.1,153.7,984.5z M255.1,434.2c-21,2.5-40.9,8.5-60.5,15.8c-6.5,1.9-12.8,7.1-19.6,3.3
					c4-10.4,90.1-39,89.8-24C265,436,257.8,433.9,255.1,434.2z M255.1,347.2c2.3-26.4-41.2-30.6-42-2.2
					C210.8,366.7,254.7,372.7,255.1,347.2L255.1,347.2z M233.4,355c-16.3,1.1-15.4-22.8,0.4-20.8C248,335,250.1,356.3,233.4,355
					L233.4,355z M208.6,422.9c-19,0.8-37.8,3.1-55.9,8.9l-3.8-1.5c5.2-10.2,51.3-18,61.2-14C213.6,418.6,212.6,422.3,208.6,422.9
					L208.6,422.9z M0,667.4c9.4-4.2,17.8-13.5,25.8-18.9C74,730,134.5,800.9,215,860.7C134.1,827.1,60.7,766.3,9,696
					c-3-7.1-9-2.4-5.2,3.5c49.6,75.7,138.1,143.6,222.7,176.7c-79-1.2-158.1-49.5-213-103.7C4.8,763-6.4,766.5,0,779
					c45.1,66.6,170.8,121.2,250.5,110.3c3-0.4,6.6-0.2,8.1-4.8c3.2-9.6-5.6-10.6-10-13.4c-34.5-21.1-65.6-46.6-94.9-74.4
					c-29.7-24.3-50.6-56.7-75-85.9c-13.4-16.6-26.3-33.6-36.8-52.1C25.1,641,37.5,636,51,622c1.3-1.4,3.6-1.7,3.7,0.6
					c0.2,9.1,4.9,16.6,8.2,24.7c6.5,16.2,17.4,30.1,31.6,40.3c9.5,6.9,22.2,4,30.8,13.9c14.4,16.5,33.7,24.7,55.5,28.2
					c8.4,1.3,16.7-2.7,24,0.2c29.8,12.7,70.6,10.3,92.9-15c8.5-11.5,20.8-16.2,32.7-19C350.6,691,373,659.6,369,639
					c-18-45,7.8-19.6,2-76.7c35.9,6.3,67.5,25.8,98.5,44.1c7.4,4.6,17,9.3,23.5-2c17.3-31.9-4.1-66.1,2.9-99.1
					c2.7-9.7,10-17.7,11.9-29.3c39.2,66,90.7,120.9,143.6,175.4c3.5,3.4,14.1,5,7.7,14.1C614.4,735.4,554.5,793,487.8,841.8
					c-3.5,3.2-6.8,9.4,0.6,10.9c9.5-1.9,19.2-0.6,28.5-0.8c84.4-2.9,166.4-39.2,229.5-94.3c3.2-3.7,8.8-10.1,14.4-7.2
					c9,4.8,16.8,11.9,25,18.1c0.5,0.4,3.3,0.2,1.1,2.4c-8.1,8.3-15.8,16.9-24,25.1c-44.7,46-96.8,85.4-157.3,107.8
					c-21.6,8.4-43.5,16.3-66.3,21.4c-4.6,1-10.6,2.3-12.3,8.2c-0.2,0.6,3.6,3.4,5.6,3.5c33.3,3.4,66.6,1,99.9-1.8
					c8.1-0.6,16.9,0.3,24-2.7c10.6-4.6,22-4.5,32.7-6.5c20.1-3.7,40-9.1,59.3-16c46.7-19.8,92.6-45.4,132.5-77.2
					c5-4.2,9.5-13.2,16.8-10.9c16.8,4.3,65.3,22,78.4,13.1c2.4-3.2,0.8-6.2-1.8-8.2c-9.3-8.8-18.7-17.5-28.6-25.7
					c-23.3-17.6-45.2-37.8-72.5-49.1c18.5,3,36.4,8.8,53.2,17.2c14.2,6.9,27.9,15,40.8,24c1.8,1.3,4.9,0.9,7.4,1.2
					c-12.4-31.1-77.7-70.9-109.3-85.1c38.7-0.9,70.9,12.1,103.8,29.6c2,1,4.2,5,6.9,1.9s2.6-7.3,0-10.7
					c-25.4-36.4-63.7-59.4-101.4-81.2c29.4-2.5,57,2.7,84.5,11.6c5.2,0.7,12.5,7.7,16.9,2.9c3-9.3-24.9-28.2-30.9-36.7
					c-22.4-22.8-50.6-32.1-79.6-45.7c17.2,0,32.9,0.1,48.7,0c11.4-0.1,21.9,4.6,33.6,4.5c8.4-0.1,16.8,4.4,25.2,6.7
					c1.2,0.3,1.9,2.1,3.1,2.5c5.7-1.2,4.5-9.4,0-11.2c-13.6-10.5-27.4-21-41.6-30.6c-16.1-10.6-33.8-18.4-52.5-23.1
					c30-10.9,63-5.1,94.1-5c2.3-1.2-0.8-5.2-2.5-7.2c-31.6-30.3-75.9-39.6-118.4-41.6c19.3-8,40.8-10,61.4-13.6
					c17.6-2.2,34.7-8.3,52.8-3.8c1.6,0.4,3.7-1.5,5.5-2.3c-5.5-10.3-17.8-13.5-27.6-18.5c-28.4-12.4-58.9-18.7-90-16.9
					c37.3-13.2,73.8-27.7,113.9-27.9c1.4,0,3.5,1.1,3.9-1.7c-0.2-12.6-35.3-17.5-45.6-20.5c-37.6-6-69,0.1-106.8,7.2
					c19.8-12.4,107.6-68.5,121.9-39.4c7.5,10.8,17.6,19.9,26.6,29.6c1.3,1.5,3.1,2.5,4.9,2.2c4.8-1.2,2.8-4.8,0.6-6.6
					c-13.4-17.9-28.1-33.8-43-50.8c13.8-1.5,26.5-2.6,39.1-4.3c1.6-0.2,2.9-3.1,4.2-4.5c-0.5-0.4-1-1.2-1.6-1.2
					c-10.3,0-21.2-1.9-30.9,0.5c-13.2,3.3-23.4,1.4-30.8-9.7c-1.3-2-10.5-6.8-1.2-9.9c19.1-6.3,38.6-11.3,57.9-17
					c7.5-0.3,11.3-9.8,1.4-8c-16.1,4.2-32.1,8.6-48.1,13c-23.3,9.5-25.2,8.3-40.9-11c-0.8-0.8-1.2-1,0.6-1.6
					c7.8-2.7,15.5-5.6,23.1-8.9c22.4-9.7,43.7-21.7,66.9-29.6c1.5-0.5,2.5-2.4,3.6-3.6c-6.8-5.8-14.6-0.8-20.9,2.3
					c-24.8,9.9-49.4,20.3-73.5,31.8c-13.5,6.4-17.5-6.1-23.6-11.3c-3.4-2.8,7.5-4.7,10.9-8.6c18.9-10.4,37.3-23.7,56.4-34
					c17.2-9,33.4-19.6,49.9-29.7c3.2-2.6-3.1-6.4-5.9-3.8c-39.5,20.3-77,44.5-115.6,66.5c-10.4,6-13.1-7.9-20.8-9.6
					c1.2-4.6,5.5-6.1,8.6-8.9c30-18.6,58-40.8,87.1-60.8c15.5-11.1,30.8-22.7,46.3-33.9c2.8-1.9,1.9-4.6,1.1-7
					c-4.3-1.5-13.2,7.1-17.4,9.3c-38.8,28.9-78,57.3-118.4,83.8c-6.3,4.1-12.3,16.8-23.1,5.6c-1.8-3.7-14.1-6-7.6-9.8
					c15.9-12.8,31.9-25.4,47.7-38.2c39.7-31.7,78.3-64.7,117.3-97.3c1.7-1.3,2.5-3.2,0.8-4.9c-3.8-3.4-8,1.7-11.2,3.7
					c-24,19.8-47.7,39.8-71.8,59.4c-27.2,22.2-54.9,43.9-81.9,66.4c-8.4,6.9-15.4,8.4-23.5,0.4c-2.3-2.3-2.3-3.3,0-5.3
					c33.7-29.4,66.4-59.9,98.8-90.8c29.2-27,58.5-53.9,87.5-81.3c1.6-1.4,1.9-3.8,0.5-5.5c0-0.1-0.1-0.1-0.1-0.2
					c-0.9-0.8-3.9-0.3-5.3,0.5c-24.4,20-46.5,43-70.3,63.8c-42.5,35-80.1,75.9-123.7,109.6c-5.5,4-10-4.2-14.5-7.4
					c-3.1-2.1,0.9-4.3,2.3-5.7c10.4-10.5,21.1-20.8,31.5-31.2c42.1-43,85.1-85.7,126.8-129.5c2.3-2.7,0.3-3.9-0.6-5.4
					c-2.1-4.3-9.9,7.4-12.3,8.7C860.4,57.2,812.2,105.6,764,154c-10.7,14.9-15.6,12.2-30.7,4.1C779,109.3,820.8,58,866,8.9
					c1.2-1.3,4.9-3.8,1.6-6.7c-2.8-2.8-4.8-0.2-6.7,2.2C820,46.9,782,92.3,742.2,135.7c-6.4,6.4-8.9,22.6-24.6,15.2
					c-2.5-2.1-12.2-0.8-7.9-5.6C742.9,99,776.6,53,810.3,7c1.6-2.2,1.3-4.5-0.7-6.6c-1-1.1-1.7-1.7-2.9-0.1
					c-8.5,10.8-17.4,21.1-25.5,32.1c-23.6,32.4-46,65.8-70.7,97.4c-5.4,6.9-8.4,18.9-21.7,13.2c-5.2-1.3-7.2-3.9-4.4-8.8
					c25.7-40.3,49.5-81.8,73.1-123.3c1.8-3,5.9-7.2,2.1-11c-4.5-7.5-35,53.1-40.2,59.2c-13,22-25.9,43.9-38.5,66.1
					c-5.4,9.5-9.7,18.6-23.8,12.2c-4.8-2.2-2-4.6-1.7-5.5c16.2-38.6,34-76.5,49.1-115.6c1.7-4.6,10.1-11.3,2.2-15.2
					c-5-2.2-7.3,7.1-9.4,11.4c-15.4,36.4-30,73.2-46.5,109.1c-5.5,17.8-10.8,14.2-26.4,13.6c-5.5,0.4-4-2.9-3.1-5.2
					c15.7-38.5,28.5-78.1,42.3-117.4c1.5-4.1,3.6-9.9-1-10.3c-2.7,0-4.5,4.2-5.6,7.1c-6.8,18.4-13.2,37-20.3,55.3
					c-3.3,14.3-7.3,5.2-19.2,7.3c-4.9-0.6-11.1,8.1-14.1-0.5c-1.4-3.9,1-9.6,2.6-14.1c6-17.4,10.4-35.2,13.3-53.2
					c1.4-5.8-4.4-6-6.2-1.7c-2.3,7.7-3.3,16-6.5,23.3c-1.9,4.3,1.6,12.4-8.2,12.6c-10.7-0.1-21.6-0.7-32.1,3
					c-9.8,0.3,9.9-33.6,0.5-42.2c-6.5,1.8-7.1,23.7-9.8,30.7c-1.1,4.6-1.8,12.5-3.9,13c-12.3,2.8-23.7,8-35.7,11.6
					c-0.3-18.2,7.9-36.2,5.2-54.4c-2.7-2.9-7.9-0.5-7.6,3.8c-1.9,14.8-3.6,29.6-6.2,44.3c-0.9,5,0.3,11-7,14.5
					c-15.2,7.4-29.5,16.6-40.8,29.5c-0.7,0.8-2.1,0.8-3.3,1.2c9.5-24.8,24.2-47.8,25.9-75.2c1.2-11.9,1.8-15.7-2.1-15.7
					C461.8,4,447.5,22,433,33.2c-12,8.6-22,20-32.1,29.6c6.9-61.1,5.3-84.3-45.2-26.2c-1.4-9.9-1.6-20.3-6.1-29.5
					c-2.9,1.6-6.5,2.6-8.5,4.9c-10.8,13-21.2,26.2-32.6,40.6c-1.2-14.6-2.4-28.4-3.5-42.3c-0.3-4.1-1.9-8.7-5.5-8.8
					c-4.2-0.1-2.7,4.9-2.6,7.8c0.8,13.1,1.5,26.4,2.5,39.4c3.2,13.6,1.6,27-5.9,38.4c-3.5,5-10.2,1-15,1.9c-2.4,0.4-2.7-1.6-2.9-3.2
					c-5.5-27.3-5.9-56-14.9-82.3c-13.9-18.6,6.6,67.8,5.8,72.7c0.6,4.2,2.6,10.6-1.1,12.4c-6.2,2.9-14.1,5.3-20.5,4
					c-9.3-1.8-7.2-12.8-9.4-19.4c-7.3-22-12.5-44.7-19-67c-0.2-2.4-1.9-7-5.8-5.1c-3.6,1.3-2,4.1-1.6,5.8
					C215.6,36,226.7,65,232,94.2c-4.3,1.5-8.8,4.2-13.4,4.3c-4.8,0-11.7,6.7-13,2.1c-3.6-13.1-10.7-24.5-15.3-37
					C183.5,45,175,26.8,166.5,8.9C165.3,4.2,164-4,157.2,0c-3.5,2.1,1.4,5.9,1.6,8.9c12.1,31.9,26.6,63.7,38.7,95.6
					c-3.7,1.2-8.3,3.9-12.8,3.8c-4.1-0.1-7.6,9.2-13.2-0.9c-19.1-34.2-40-67.5-60.1-101.2c-1.3-2.7-2.1-5.5-5.2-3.2
					c-3.6,2.3-1.7,5.4-0.3,8c17.2,31.8,36.5,62.5,53.9,94.2c1.9,3.4,10.1,9.4-0.3,13.6c-3.2,1.3-6.3,3.5-9.5,3.8
					c-2.3,0.3-4.3,4.6-6.3,1.5c-29.9-40.3-57.6-82-88.4-121.7c-3.2-5-9.3,0.4-5.5,4.4C77,41.7,99.8,79.5,126.2,115
					c6.8,9.6,11.4,16.6-4.6,21.5c-4.6,1.4-6.7,2.9-10-1.4C76.4,92.5,42.9,48.5,8.5,5.2c-1.9-2.9-7.1-4-7.6,0.1
					c4.6,12.5,16.9,21.5,23.6,32.8C51,74,78.6,108.9,106.3,143.9c1,1.3,1.8,2.9-0.9,3c-7.3-0.3-11.4,14.2-18.7,8.4
					c-26.4-26.4-52.5-53.2-78.9-79.6c-2-2-4.6-6.4-7.8-3.8c-2.3,1.9-1.9,5.2,0,8c23.2,23.6,45.2,48.7,68.7,71.9
					c9.3,8.1,12.9,14.8,0.3,21.8c-3.9,2.2-6.3,10.1-12.8,5.4C37.9,167.2,22,150.2,2.3,141.2c-3.3,4.1,2.5,10.8,6.5,12.7
					c10.4,7.7,21,15.3,31.1,23.3c6.7,5.3,19,10.2,3.8,20.1c-2,1.3-3.4,3.6-4.5,5.7c-2.2,4.2-4.6,5.6-9.2,2.9
					c-8.2-4.8-17-8.8-25.2-13.6C2.4,190.9,1,191.8,0,193c-2,1.9-1.3,4.8,1.1,6.1c7,4.5,13.6,9.8,21,13.6c4.8,2.4,3.7,3.5,1.2,6.8
					c-12.7,15-24.9,32.3-23.3,53c0.8,2.1,2.9,3.9,7.3,4.6c11.4,2,22.6,5.3,34.7,8.2c-12.3,7.6-27.2,12.2-25,29.3
					c0.6,5.8-0.4,7.7-6.7,6.7c-2.6-0.4-5.8,2.5-8.5,4.2c-2.8,4.5,2.9,6.6,6.3,5.3c17.4-3,31.3,6.1,44.7,14.4c4.8,3,19.4,3.6,12,17
					c-6.4,11.5-12.5,17.6-26.6,7.5c-7.3-5.5-33.8-13.2-39.2-1.2c-0.7,2.2,1.2,2.3,2.7,2.4c23.7,1,53.2,5.6,43.3,35.4
					c-0.8,3-1.9,2.9-4.4,2.6c-10.9-1.6-40.7,0.4-42.8,13.7c3.7,6.3,22.1-7.5,30.5-5.9c12.1-0.4,19.7,2.6,16.7,16.8
					c-0.3,1.5,1.3,3.4,1.3,5.1c0,4,3.8,9.4-1.4,11.9c-9,3.3-48.7,30.8-43,40.3c2.7,2.5,5.9,0,7.4-1.9c8-10.5,18.5-18.1,29-25.6
					c6-4.3,12.8-15,18.3,0.7c2.5,3.1,7.5,9.2,3.6,12.4C36.3,495.1,17,518.3,1.9,544.1c-2.9,15.4,6.5,6.5,11-0.6
					c11.2-21.6,28-38.6,44.7-55.8c1-1,4.6-7.3,7.5-1.5c10.7,25,2.8,73.4-9.9,97.1c-15.5,27.3-37,50-58.3,72.7
					C-7.8,660.4-4.4,666.2,0,667.4z M126.1,652.3c-2,3.2,0.5,8.3-4.5,10.1c-8.4-57.5,66.2-68.8,103.5-44c2.8,1.4,7.2,0.8,7.5,4.6
					c-4,3.5-17,5.6-20.8,10.5C194.4,657.3,156.1,608.1,126.1,652.3z M117.4,515c0.9-5.9,6-11.7,10.9-4.4
					c11.3,11.2,17.2,25.8,19.4,40.5c2.7,18,0.2,36.3-7,53c-1.1,2.5-3.3,1.5-4.5-0.5C120.2,579.4,114.8,548.2,117.4,515z
					 M261.9,601.4c0.3,8.8,2,17.8,8.6,24.6c-23.9,1-40.9-18.1-62.6-25.3c-3-1.7-3.2-3.5-2.5-5.3c16.3-27.2,17.6-60.1-2.3-88
					c20.7,3.9,40.9,10.4,60,19.2c8.2,3.8,16.3,7.8,24.6,11.5C302.4,542.6,258.8,561.6,261.9,601.4L261.9,601.4z M207.1,542
					c3.1,19.2-2.9,36.5-10.9,53.5c-2.3,2.2-15.7,0.2-20.9-1c13.4-22.6,13.6-65.9-12.4-93.2C189.8,504.7,202.8,514.8,207.1,542z
					 M175,559.3c-3.6,13.4-0.7,39.4-20.9,39c-3.6-0.3,0.7-3.7,1.1-5.7c5.3-27.3,4-54.3-12-78.2c-1.8-3.4-8.6-6.5-6-9.1
					c5.1-5.2,12.1-1.6,16.8,2.1C170.7,520.4,173.1,539.6,175,559.3z M155.1,685.1c1.5-13.8,14.4-9.4,19.7-16.8
					c0.3-0.5-0.9-2.5-1.6-2.7c-15.7-4.8-29.7,9.5-28.9,25.3c-10.2-8.6-12-20.2-8.7-31.1c5.7-18.7,30.6-19,47.4-14.4
					c25.6,2.3-18.6,39.1,13.6,68.9C176.7,716.5,154,700.5,155.1,685.1L155.1,685.1z M255.4,716.8c-3.2,1.1-6.4,3.6-10.6,1.2
					c6.9-5.9,13.4-12,10.4-22.4c-0.6-2.1-1.4-3.6-3.3-3.3c-1.1,0.2-2.4,1.9-3,3.3c-3.7,9.9-10.4,16.3-21,17.2
					c-21.8,4.7-29.9-27.7-9.1-36.4C261.8,650.5,298.6,702.1,255.4,716.8L255.4,716.8z M283,709.8c-0.6,0.5-1.7,0.5-2.5,0.8
					c9.4-47.5-39.5-62.5-72.8-37.2c-6.6,4.2-9.4,11.5-9.5,19.3c0,2.7,1.7,5.4-0.5,8c-13.5-16.6,4-45.8,18.3-57.9
					c19.2-14.8,38.6-13.7,58.4-3.6C299.7,650.9,311.2,690.6,283,709.8L283,709.8z M311,686c-0.5,0.3-1,0.5-1.6,0.6
					c-1.1-16-3.6-30.2-16.4-44.8c12.5,5.3,21.9,1.7,31.8,0c3.3-0.6,4,7.9,3.6,11.3C327.1,666,320.5,676.9,311,686L311,686z M326,682
					c11.4-12.6,13.8-27,8.3-42.9c-1.2-3.6,2.7-1.8,3.5-3.7c0.5-1.2,3.9-1,5.1-2.3C359.7,616.4,358.4,673.2,326,682L326,682z
					 M493.7,486.3c-23.2,30.8,1.9,69.1-6,102.5c-24.9-28-47.2-61.5-84.3-75.1c-2.4-1.1-4.8-1.5-6.1,1c-1.5,2.7,1.2,3.5,3,4.4
					c31.3,18.2,57.4,42.3,76,73.5c-39.7-22.9-75-48.7-120.4-51.2c-0.6-0.5-4.2,3.5-2,6.9c22.3,32.4-11.2,82.2-46.3,80.1
					c-11.9-1-29.1-18.1-30.7-30.3c-3.9-50.5,59.1-74.6,93-99.4c3.4-2.3,12.5-2,8.5-8.6c-2.5-4.2-9.5-0.1-13.9,2.6
					c-20.3,12.2-42,22.1-59.7,38.2c-2.8,2.5-4.9,2.3-8.3,0.5c-43.4-24.1-92.6-40.6-142.6-40.3c-10.9,1-21.6,4-32.4,4.9
					c-6,0.5-2.3-5.7-2.8-8.2c-5.3-44.8-7.8-91.4-33.3-130.3c2.3-7.3,16.3-15.3,23.1-20.3c12.3-9.4,15,4.4,20.4,9.1
					c9.9,10.5,101.5,77.3,108.3,55c-45.2-19.8-89.9-45.9-122.1-85.9c41.6-6.1,78.3,22.4,77.9,9.7c-1.4-14.6,5.2-27.5,9.9-40.3
					c6.9-18.8,18.3-35.5,30.5-51.5c5.9-7.7,10.1,0.5,13,2.5c11.8,8,22.5,17.7,31.7,28.6c6.9,8.4,14-0.8,16.1-5.9
					c4.9-12,12.6-23.1,13.1-38.2c14.1,22.3,23.4,44.2,26.9,69.5c9.7,26.7,50.8-50.6,49.1-62.6c0.8-2.8,1.7-5.5,2.8-8.2
					c21.7,42.4,21.2,91.7,15.5,137.5c20.1-4.4,38.7-15.1,56-26.3c1-0.7,2.1,7.8,2.3,11.6c5.3,35.7-37.8,69.2,3.5,93.7
					c11.1,6.1,27.3,2.5,33.7,17.2C501.8,464,500.7,477,493.7,486.3z M51,278.1c14.4-29.1,63.2,7.5,75.5,24.7
					c-7.4,1.4-17.2,6.5-21.9,3.6C89,296.7,75.3,283.8,55,284.9C49.8,285.2,51.4,280.9,51,278.1z M44.8,239.5
					c13.8-1.2,27.6,0.2,40.9,3.9c4.8,1.1-1.2,9.8-1.4,13.2C72,250.1,61.3,243.5,44.8,239.5L44.8,239.5z M338.9,157.6
					c1.5-23.3,22.8-48.5,43.1-58.4c0.8,21.5-1.7,44.7-13.4,62.1c-8.3,12-23,19-30.7,31.4c-0.3-2.3-1.4-4.9-0.6-6.8
					C341.1,176.7,338.7,167.2,338.9,157.6L338.9,157.6z M432.7,126.1c-2.2,19.6-9.9,37.8-18.8,55c-5,7.5-18.6,10-27.2,15.5
					c-3-11.4-0.9-23.3-8.7-33.3c-0.9-1.1-0.8-2.7,0.3-3.6c14.6-16.2,34.2-24.7,52.1-36.2C432.7,122.3,432.9,124.5,432.7,126.1
					L432.7,126.1z M735.3,300c14.8,11.3,24.3,25.9,32.4,41.9c-0.5,1.5-1.3,2.8-3,1.3c-14.4-11.3-31.4-18.3-48.9-16.9
					c-20.5,1.7-22.9-18.2-35.9-24.9c-10-5.3-18.4-13.7-27.6-20.5C680.9,274.1,710.9,282.6,735.3,300z M711.1,274.8
					c28.3-22.7,60.9-34.3,95.3-41.4c-19.5,16.3-43.1,30.3-54.6,53.8c-3.9,8.1-7.9,7.6-13.2,3.5C730.3,284.2,721,278.8,711.1,274.8
					L711.1,274.8z M685.8,582.6c-0.9-8.9,8.2-3.8,10.6-2.8c47,13.3,94.4,56.4,77.8,109.6c-15.4-38.6-44.3-73.2-86.1-82.2
					c-3-0.9-3.3-2.4-3-4.6C686.2,596,686.4,589.2,685.8,582.6z M760,605c-38.5-41-73.3-19-77.3-50.7c-1.7-6.6,0.5-14.2-5.1-20
					c-1.9-2,0.8-1.3,2.4-1.5c46.4-1,92.5,27.5,107,72c5,11.8,4.5,27.4-2.2,38c-0.5-0.5-1.3-0.9-1.4-1.4
					C780.1,626.3,770.2,615.5,760,605z M545.8,339.6c60.8-39.8,137.5-28.8,178.6,33.2c-43-26.8-93.8-19.7-135.1,2.9
					c-5.8,2.7-7.5,1-11-1.5c-12.6-9.1-25.9-17.4-37.7-27.4C535.2,342.2,544,340.6,545.8,339.6z M517.2,336.6
					c-12.9-5.6-26.3-9.8-39.2-15.4c8.2-13.2,30.5-25.6,43.9-33.9c53.5-26,123.4-8.5,164,35.6c-40.1-22.7-82.4-20.4-122.2-1.7
					C544.4,326.9,537.1,346.7,517.2,336.6L517.2,336.6z M592.1,382.6c41-20.1,93-29.7,130.9,1.6c20.5,14.8,34,37.4,37.5,62.5
					c-35-32.2-88-37.2-131.7-21c-1.7,0.6-6.5-6-9.4-9.5c-8.5-10.4-16.4-21.5-27.7-29.3C589.5,385.3,587.4,384.7,592.1,382.6
					L592.1,382.6z M641.8,430c60.7-20.7,147.7,20.1,135.7,90.9c-27-31.5-72.7-59.3-115.6-42.6c-8,3.5-6-6.7-7.9-9.9
					c-6.5-11-13.7-21.6-20.1-32.6C627.6,425,640.9,430.1,641.8,430L641.8,430z M671.2,483.5c49.7-10.1,97.5,29.1,113.2,74.3
					c2,5.3,6,12.6-0.2,18.1c-23.5-34.4-65.8-50.1-106.6-51.7c-5.5-0.1-5.7-12.3-8.5-18.9c-2.1-5-3.8-10.3-5.5-15.5
					C661.1,482,668.9,484.1,671.2,483.5L671.2,483.5z M782.2,694.9c6.5-8.6,7.6-19.1,6.9-29.8c-0.1-1.3,0.5-3.6,1-3.7
					c26.1,10,42.1,47.7,28,73.6c-8.9-14.5-20.2-26.1-34.7-34.5C781.8,699.5,779.5,698.5,782.2,694.9L782.2,694.9z M796.8,654.3
					c-6.1-3.2-1.6-5.3-1-6.7c7.1-16.8,6.5-33.3,0-50.3c37,20.1,53.8,50.6,34.1,93.4C822.1,675.4,811.8,662.1,796.8,654.3
					L796.8,654.3z M805,593.4c-22.3-9.2,5-17.4-19.2-58.4c12.8-2,21.9,6.8,31,13.2c27.4,19.3,30.1,50.8,27.5,84.1
					C835.6,613.8,821.8,600.6,805,593.4L805,593.4z M844.7,556.5c0,1.2-1.1,2.4-1.7,3.6c-18.3-21.8-30-29.3-57.3-34.7
					c14.5-30.7-15.1-59.3-6-61C822.3,467.4,848.1,518.6,844.7,556.5L844.7,556.5z M822.4,472.8c-13.6-10.3-27-17.8-45.2-16.3
					c-10.2,0.6-6.8-11.1-7.4-16.2c-2.3-19.5-13.6-33.6-25-50C785.4,397,816.7,434,822.4,472.8L822.4,472.8z M790.2,399.6
					c-10.9-8.7-24.2-12.7-36.6-18c-17.8,4.5-17.7-11.5-23.3-20.6c-4.6-7.5-11.1-13-17.2-19.1c-20.4-17,46.3-2.6,64.3,29.1
					c6.3,9,13.5,18.5,15.2,29.6C791.8,400.4,790.9,400,790.2,399.6L790.2,399.6z M693.1,268.8c-0.6,2-1.5,2.5-3,2.1
					c-15.7-4-31.3-3.9-47,2.2c13.3-22.6,82.5-69.8,102.8-69.5C724.5,222.6,703.5,242.6,693.1,268.8z M627.7,270.3
					c-8.8-10.1-20-17-33-22.3c26.5-29.6,57.8-52.2,96.7-69.9C662.8,205.9,639,233.6,627.7,270.3z M614,269.9
					c-40.3-11.3-82.6-5.7-114.7,20.8c-8.8,7.1-18.8,12.9-25.6,22.3c-8,11.2-15.1-1.2-22.8-1s-14.3-7-22.7-6c-1,0.1-3-1.1-3.1-2
					C467.4,252.3,555.5,229.1,614,269.9L614,269.9z M450.7,322c-10.7,10.8-26.3,14.9-39.7,23.2c1.4-10.7,2.7-20.6,4.5-30.4
					c0.1-0.3,6.2,0.1,9.4,0.8C433.5,317.7,442.4,319,450.7,322z M572.2,227c-12.8-8.5-24.6-5.6-8.1-20.3
					c20.3-16.5,41.6-36.3,66.9-43.2C580,207.6,590.6,247,572.2,227z M572.4,239.3c0.2,0.1,0.2,0.6,0.7,2.4
					c-59-9.7-120.5,11.6-159.6,57.7c0.4-15-1-30-4.2-44.6c-1.2-5.9,5.7-6.5,8.8-8.7C462,215.2,527,207.1,572.4,239.3L572.4,239.3z
					 M405.4,246.5c0.7-23.1-26.7-36.3-6-45.3c40.6-18.2,99.5-30.6,131.5,8.8c-36-3.9-70.4-0.7-102.3,17.5
					C420.6,231.7,411.5,236.4,405.4,246.5L405.4,246.5z M539.7,205.6c-7.3-11.3-17.8-18.8-29.6-24.2c-5.5-2.5-2.6-4.2-0.6-5.9
					c18.8-16.2,43.5-20.1,66.6-26.7l2.7,0.9c-12.8,18.2-28.2,34.5-35.8,55.9C541.9,208,540.6,207.1,539.7,205.6L539.7,205.6z
					 M495.9,172.9c-1.7,2.2-1.9,2.1-9.1,2.1c-19.6-4.2-39.2,1.5-58.8,3.5c23.6-29.3,66.9-58.2,104.8-60.6
					C526.5,139.4,509.1,155.5,495.9,172.9L495.9,172.9z M374.9,175.7c9.3,38.4-5.9,79.2-31.7,107.1c-0.7-1.4-1.9-2.8-2-4.3
					c-1-15.7-9.1-29.1-14.3-43.4c-3.1-8.5,4.1-13.7,7.2-19.7c9-17.9,23.2-32.2,38.1-45.4C373.3,171.8,374.2,173.7,374.9,175.7
					L374.9,175.7z M321,219.5c-1.2,4.3-6.4-4.2-7.8-5.5c-2.2-3-2.6-8.6-7.7-7.6c-6.5,1.5-5.7,8.8-6.6,13.6
					c-2.1,12.7-9.9,23.4-12.3,35.9c-0.1,0.6-2.9,1.3-3,1.2c-4.5-8.8-18.8-12.4-12.7-26.9c11.3-30,30.9-57.4,58.9-73.3
					C332.7,178.7,326.1,199.9,321,219.5z M264.4,221.3c-3,17.3-10,8.1-17.5,4.7c-16.6-7.6-4.2-17.1-0.9-24.4
					c6.7-13.1,18-25,30.4-32.8C278.6,185.8,266,203,264.4,221.3L264.4,221.3z M253.9,176.8c-4.2,7.4-7,6-11.2-1.9
					c-7.5-14.2-13.2-29.6-24.3-41.8c-2-2.2-1.9-6.1-4.6-8.6c18.6,10.5,31.6,27.7,45.6,43.4C263.2,172.4,255.6,173.6,253.9,176.8
					L253.9,176.8z M239.1,192.3c-16.5,46-5.3,22.7-28.6,1.2c-3.4-3.6,0.2-5.1,1-6.9c3-7.3,9.9-6.2,15.8-5.7
					C234.1,181.4,237.5,186.2,239.1,192.3L239.1,192.3z M211.1,176.2c-6.7,8.8-9.2,2.9-13.5-2.6c-8.1-10.4-17.3-20.1-26.1-30
					l0.7-1.6l47.2,29.9C216.5,173.3,212.8,174,211.1,176.2L211.1,176.2z M221,222.6c6.1,10.5-6.5,13.1-8.2,20.4
					c-0.4,1.7-2.1,3.2-3.2,4.8c-1.5-2.1-3.6-3.9-4.4-6.2c-4.6-13.3-13.3-24.9-24.9-32.9c-6.2-5.5,10.3-10.4,13.2-12.1
					C209,199.7,214.6,211.5,221,222.6z M160.7,179.5c-6.1-4.4-11.5-9.8-17.2-14.7c0.2-0.3,0.4-0.6,0.6-0.9l41.6,23.7
					C171.5,203.8,168.2,184.9,160.7,179.5L160.7,179.5z M171,212.5c15.8,10.2,27.2,26,31.8,44.2c0.9,3.3-1.7,8.4-4.2,11.4
					c-3.7,4.4-3.7,9.9-6.9,15c-7.7-21.1-16.2-41.3-35-54.4C142.4,219.7,160.8,205.8,171,212.5L171,212.5z M182.2,315.9
					c-0.1,1-9-0.9-11-5.1c-9.9-20.8-21.2-40.6-38.1-56.6c-4.7-5.4-17.6-9.2-13.7-18.1c2.5-4.9,5.8-9.8,12.9-9.2
					c30,6.9,45.5,37.5,53.5,64.8C188.5,300.5,183.1,307.8,182.2,315.9L182.2,315.9z M144.3,216.8c-17.2-11.1-32.8-24.8-52.2-32.8
					c21.9,3.7,42.8,10.3,67.3,21C146,204,146.4,211.4,144.3,216.8L144.3,216.8z M120.5,221.2c-3,4.4-5.1,9.6-8.7,13.2
					c-2.8,2.7-4.2-2.4-6.4-3.6c-13.4-7.5-26.5-15.5-38.6-22.7c16.8,3.5,34.8,7.3,52.9,11C121.2,219.4,121.5,219.6,120.5,221.2
					L120.5,221.2z M105.4,248.9c28.2,5.1,42,37.1,55.8,58.5c-19.6,3.5-28.8-8.8-39-21.6c-6-7.5-15.4-12.9-24.1-17.6
					c-7.8-4.2-6-10.6-4.6-15.8C94.8,247.4,101.2,248.4,105.4,248.9L105.4,248.9z M638.9,614.1c-0.1,0.9-0.3,1.8-0.4,2.8
					c-36.6-41.9-74.6-81.8-104.4-129c-10.3-16.7-21.6-32.7-33.9-47.9c-6.2-7.8-17.2-8.7-26.6-11.1c-9.9-2.6-18.6-8.1-21.7-17.3
					c-1.6-4.6,3.8-11.6,6-17.6c5.5-10,3.5-28.1,17.8-16.7C567.3,416.6,643.2,511.4,638.9,614.1z M656.1,635.6
					c-6.4-5.9-9.3-11.5-6.5-21.5C657.1,509.4,566.5,397,469,365c-1.7-0.7-2.3-1.4-1.8-2.7c3.5-9.7,1.7-19.6,1.3-29.4
					c-0.1-2.6,0.6-2.5,8.8,0.2c93.6,26.6,168.9,109.1,189.8,203.8c7.1,21,9.7,43.3,7.7,65.4c-1,14.2-0.7,30-8.3,42.7
					C662.6,642.4,659.5,638.8,656.1,635.6z M509,837.4c24.8-22.1,50.8-39.6,74-62.4c30.6-32.1,59.6-66.6,84.3-103.6
					c1.5-2.2,2.6-3.2,5-0.2c4.6,8.3,33.4,23,23.9,33C645.6,755.3,578.4,815.7,509,837.4z M730.8,746.2
					c-57.8,47.6-119.5,82.2-195.7,91.4c67.9-32.7,121.3-76.7,171-131.1c2.9-3.4,4.3,0.8,5.6,1.9c8.1,7.3,15.5,15.5,24,22.4
					C747.5,740.3,733.6,744.1,730.8,746.2L730.8,746.2z M765.3,708.2c-1.6,8-0.2,17.1-5.1,24c-15.4-13.2-33.6-23.7-46.4-39.7
					c-11.5-13.3-25.7-23.4-37.3-36.3c-4.1-4.6,2.1-11.1,3.2-16.9c6.5-13.3-2.5-30.2,19.3-20.2C733.2,635,763.6,670,765.3,708.2
					L765.3,708.2z M786.5,750c-20.6-7.4-11.9-23.1-10-36.5c0.8-5.8,2-5.8,11.1,1.6c17.3,13,27,32.9,28.5,53.6
					C805.9,762.5,796.6,755.6,786.5,750z M585.1,920.3c79.8-25,148.2-75.3,203-137.3c13.3-15.9,20.9,2.4,30.7,5.6
					c14.9,4.8,1.5,10.2-1.5,12.9c-43.9,41.9-96.2,73.6-151.3,98.7c-18.3,7.2-37.8,11.2-56.8,16.7
					C601.6,919.3,594.1,922.3,585.1,920.3z M868.1,818.2c-56.4,47.3-122.1,87-196.2,97.2c-14.7,1.6-28.1,9.1-43.6,7.2
					c74-25.4,143.9-61.9,199-117.5c5.9-6.7,11.1-7.8,18.8-4s15.7,6.4,23.2,10.2C874.5,813.8,869.6,816.9,868.1,818.2z M873.3,762.4
					c29.3,14.6,53.8,36.1,79.6,55.7c1.7,1.3,5.1,0.8,5,4.7c-15.1,1.4-28.3-6.1-42-10.3c-23.3-7.1-45.2-18.4-67.9-26.8
					c-18.4-6.8-23.2-19.8-24.7-36.2C821.8,730.4,865.4,759.8,873.3,762.4z M904.3,740.4c7.5,4.1,13.8,10.3,20.7,15.6
					c-0.2,0.5-0.5,0.9-0.7,1.4c-22.3-10.5-46.1-17.6-70.5-21.2c-6.4-0.5-13.2-0.8-19.1-3.1c-7.4-2.9-0.7-9.2-1.3-14
					c-2.4-20.9,10-8.7,16.2-6C868.2,721.6,886.4,730.7,904.3,740.4L904.3,740.4z M956.4,719.5c1.5,1.6,3.2,2.9,4.8,4.3
					c-38.4-20.3-79.2-27.5-122.3-27c6.6-9.3,10-20.6,9.4-32.1c-0.5-14.9,5.3-13.3,14.6-9.2C898.1,671,929.9,691.3,956.4,719.5
					L956.4,719.5z M938.2,631.4c6.9,5.5,13.1,12,22.9,21c-37.8-14.3-67.6-14.8-104.3-13.4c-3,0.1-3.3-0.4-3-3.7
					c1.2-13.8,4.5-27.8,0.4-41.5c-2.6-8.5,2.8-5.6,5.7-4.5C888,599.6,914.7,612.6,938.2,631.4z M955.2,578.6
					c-16.6-3-28.9-7.3-41.2-6.9c-17.1,0.5-34.2-3.3-51.2,0.6c-8,1.9-10.3-0.5-9-8.8c1.3-9.1,1-18.4,1.5-27.9
					C891.8,537.5,922.5,554.7,955.2,578.6L955.2,578.6z M964.6,518.7c-39.4-8.8-73.5-2.8-111.4,5.3c-4.5,1.1-2.3-6.2-3.9-9.4
					c-4.2-8.6-5.9-18.5-14.5-25.2C880.4,483.1,922,492.3,964.6,518.7L964.6,518.7z M927.9,440.5c7.4,2.5,14.1,7.4,22.3,7.8
					c-37.5,5.9-77.8,5.1-111.5,24.7c-4.6,2.8-5.3-0.6-5.4-2.8c-0.6-10.6-4.9-19.8-9.4-29c-0.7-1.5-1-3.9-0.3-5.1
					c1.3-2.3,2.7,0.5,4.1,0.7C860.6,427.6,895.3,429.2,927.9,440.5L927.9,440.5z M862.6,380.2c10.1-3.4,22.1-1,33-2.5
					c6.8-0.9,12.8,2.1,19.3,1.4c11.6-1.3,22.5,3.5,33.9,5.2c-45.1,6.8-88.5,21.1-129.3,41c-8.4,3.3-8.1-6.9-12.2-10.4
					c-2.3-2-0.9-7.6-2.4-11.1c-7.8-17.5,8.2-12.2,14.5-14.6C833.3,384.2,848.3,385,862.6,380.2L862.6,380.2z M822.2,365
					c-7.8,4.8-16.5,8.4-22.3,16c-2.5,3.3-4-0.1-4.4-1.3c-2.1-11.8-27.7-25.5-10-32.7c22.8-11,47.1-18.5,72.1-22.5
					c13.1-2,26.2,0.4,39.2-2.7c3.9-0.9,10.7,0.2,16.4,1.9C880.2,332.6,850.5,347.4,822.2,365z M885.7,285.3c8.3-2.1,11.3,5.4,16,9.7
					c7.3,6.8,14.6,13.7,22.8,21.6c-46.8-7.7-89.8-1-132,15.9C818.4,307,851.2,293.4,885.7,285.3L885.7,285.3z M878.4,278
					c-34.1,8-71,21.6-94.2,47.8c-10.8,12.9-12.2,7.1-16.3-3.2c-2.2-8-20.9-18.8-5.8-23.7C798.3,281.3,838.2,271.1,878.4,278z
					 M854.2,250.8c7.3,5,13.4,11.8,21.3,18.9c-38.3-6.1-73.9,0.8-109.3,16.3c14.7-22,34.2-36.1,55.1-48.4
					C837.3,228.2,844.4,244.1,854.2,250.8L854.2,250.8z M773.7,195.9c6.6-3.8,11.5,4.3,16.9,7.4c9.8,5.7,19.1,12.2,29,18.6
					c-41.5,5.9-78.3,19.2-112.3,41.5c1-2.6,1.4-5.7,3.1-7.6C728.8,233.5,748.2,210.3,773.7,195.9L773.7,195.9z M731.1,168.8
					c2.5,0.8,39.8,18.9,29.9,20.1c-41.8,9.8-79.6,32.8-113.3,59.2C658,231.6,710.5,155.4,731.1,168.8L731.1,168.8z M662.5,150.4
					c8-1.4,16.7,1.5,25.1,3.1c8.1,1.5,15.2,6.8,27.9,5.2c-46.7,18.9-88.1,38.5-121.4,72.9c13.4-23,27.1-46.3,47.1-64.2
					C647.9,161,653.4,151.9,662.5,150.4L662.5,150.4z M639.6,147.5c-31.6,17-59.8,29.7-84.6,54.8c12.9-19.2,22.6-42.5,42.2-55.9
					C610.5,142.1,624.1,146.9,639.6,147.5L639.6,147.5z M618.9,81.6c14.5-0.3,3.6,11.6,2.4,15.1c-4,12.2-10.7,23.6-16.4,35.3
					c-0.8,1.9-2.6,3.1-4.7,3c-28.2,2.2-55.2,9.2-79.8,23.4c10.4-16.2,19.7-26.8,22.7-44.9c1.7-5.7,7.4-6.5,11.6-9
					C574.6,92.8,595.5,82.1,618.9,81.6z M534,57.6c17.6-6.3,36.2-10.8,55.1-11.6c3.5-0.2,2.7,6.8,2.7,10
					c-0.1,14.8-6.5,25.1-21.2,31.1c-11.6,4.6-22.2,11.3-31.4,19.7c-3.5,3.3-10.3,3.4-15.7,4.1c-35.6,3.8-63,22.9-88.2,45.8
					c4.1-10.1,3.1-20.8,5.2-31.1C464.3,95.5,497.1,70,534,57.6z M417.6,60.5c19.6-16.8,36.7-36.4,58.5-50.5
					c-4.5,38.3-24.2,70.3-39.8,104c-2.9,4.2-11.2,4.3-16.7,7c-10.1,4.8-20.6,9-28.8,17.2c-0.7,0.7-2,0.8-3,1.2
					C387,110,394.4,82,417.6,60.5z M356.1,71.5C354.2,46,373,28.5,390.9,14c8.4-1.8-0.8,36.6,0.5,43.3c-0.3,7.3-3.8,14.3-3.5,20.9
					c0.5,10.9-6.5,13.2-13.5,16.3c-10.1,4.6-18,11.6-26.4,19.8C350.9,100,353.7,85.8,356.1,71.5z M308,77.9
					c8.2-21.1,22.3-38.9,36.4-57.1c4.2,19.7,2.5,38.9,1.4,58c-0.5,9.6-10.2,7.5-14.7,12c-6.7,6.7-14.5,3.5-22.3,1.9
					C296.6,89.8,305.3,82.5,308,77.9z M288.5,97.4c0.9-0.3,2.5,0,5.5,1c3.7,2.4,14.8-1.3,19.8,3.2c-7.9,7.2-13.9,16.6-22.3,23
					c-1.5-7.9-2-16-3.6-23.9C287.6,99,287.4,97.7,288.5,97.4z M298.7,133.1c11.7-15.6,24.9-29.4,42.3-38.6
					c6.5,0.5-8.2,46.2-10.2,52.7c-1.3,3.9-5.5,2.9-8.1,4.4c-15.2,8.6-26.6,21.5-38.7,33.3C286,167,287.1,148.6,298.7,133.1
					L298.7,133.1z M261,99.2c5.3-0.6,10.8,0.9,14.6-2c4.5-0.5,5.4,0,4.9,4.1c-0.6,5.2,0.8,10.7,1.8,16c2.1,6.1-1,10.1-5.8,3.3
					c-4.5-8-11.7-13.2-18.4-19C259,100.8,259.9,99.4,261,99.2z M255.9,112c12.7,11.2,38.2,33.5,16.5,48.8c-2,1-2.8-0.5-3.1-1.9
					c-2.6-14.4-6.9-28.3-12.1-42C256.7,115.3,253.5,114.8,255.9,112z M239.7,104.7c5.1,0.4,5.6,9.7,7.7,15
					c3.9,10,6.9,20.4,11.6,34.8c-15.2-19.8-31.3-31.2-47.8-42.8C220.1,107.5,230,103.8,239.7,104.7L239.7,104.7z M192.2,116.7
					c2.9-1.2,3.6,0.2,4.5,1.5c11,15.8,23.7,30.5,31.7,49.4c-21.4-15.6-42.8-30-69.1-39.4C171.6,123.9,182.1,120.7,192.2,116.7
					L192.2,116.7z M126,145.2c7.3-3.6,14.6-7.1,22.3-10.7c13.9,11.6,25.2,26.1,38.1,38.9c0.9,1,1.1,2.7,1.6,4.1
					c-2.2-0.4-4.8-0.2-6.4-1.3c-17.3-14.3-37.7-20.8-58.5-27.6C124,147.4,124.7,145.8,126,145.2z M103.7,158.9
					c5.2-4.7,9.7-4,14.9-0.8c15.2,9.4,28.5,21.1,41.6,33.1c1.3,1.2,1.8,3.4,2.6,5.1c-25.8-9.8-50.2-21.9-79.7-21.6
					C90.7,168.9,97.6,164.4,103.7,158.9L103.7,158.9z M98.2,197.6c5.6,3.3,11.2,6.7,19.7,11.7C95.4,206,77.1,198.2,56.8,199
					C68.9,183.2,73.1,183.1,98.2,197.6L98.2,197.6z M31.9,223c8-11.1,17-13.8,30-6.4c10.3,5.8,21,10.9,33.5,18.7
					c-24.6-4.3-42.6-6.4-65.9-6.8C30.3,226.7,30.8,224.6,31.9,223z M20,243.3c9.5,1.1,18.9,3.9,28.3,5.9c-12,1.9-24,0.9-35.5,5.6
					c-0.4,0.1-1.1-0.7-1.7-1.1C15.1,250.9,13.8,242.6,20,243.3z M30,274.2c-7.4-2.4-16-2.1-22.8-6.2c1.6-1.6,3-4.4,4.8-4.6
					c14.1-1.4,28.3-4,46.3-1.3c-12,0.8-12.3,8.2-15.7,13.5C39.5,280.4,34.2,274.8,30,274.2z M26.8,322.2
					c-13.1-13.4,15.2-31,29.1-29.4c19.5,2.3,32.7,15.5,46.6,27.3c12.3,10.4-3.2,10.6-6.3,14.4c-4.1,5-12,5.7-16,11.9
					c-1.3,2-4.8,4.1-8.6,0.7C58.3,335.6,42.1,329.8,26.8,322.2L26.8,322.2z M71.5,573.7c7.8-27.7,13.8-59.7,5.3-87.8
					c-6.3-17.6-15.6-34.1-21.1-51.8c-2.8-2.9-1.5-43.1,5.3-33.6c6.9,11.6,12.2,24,15.9,37c2.2,4.6,2.1,14.9,8.6,14.8
					c7.1-7.9-13-57.5-19.3-67.2c-4.4-7.4,3.7-14.3,9.1-19.1c15.7,8.9,21.9,53.6,26,71.7c13.7,57.1-10,121.4,26.6,171.7
					c3,4-3,6.4-4.7,9.6c-2.8,5.3-7.1,9.7-8.5,15.8c-0.3,1.1-1.6,2-2.4,3c-21.9-31.5-15.8-48.8-14.9-84.5c0-2-1.6-3.7-3.6-3.8l0,0
					c-5.4-0.6-5.5,8.6-6.6,13.2c-4.7,20.6-5.9,41.6,1.8,61.8c4.7,12.5,11,24,21.3,33.7c4.3,4,3.6,13.3,5.3,20.8
					C73.1,663.9,56.4,613.3,71.5,573.7z"/>
			</g>
		</g>
	</g>
</g>
<g>
	<g id="Layer_1_2_">
		<g transform="matrix( 1, 0, 0, 1, 0,0) ">
			<g>
				<g id="Layer0_0_FILL_1_">
					<path d="M52,1548v15l-37,37h946l-37-37v-15H52 M52,52V37.7L14.3,0H0v1600h15l37-37v-15V52 M924,52V37.7L961.7,0H14.3L52,37.7
						V52H924 M976,0h-14.3L924,37.7V52v1496v15l37,37h15V0z"/>
				</g>
			</g>
			<g>
				<path id="Layer0_0_1_STROKES_1_" class="st6" d="M961,1600h15V0h-14.3L924,37.7V52v1496v15L961,1600H15H0V0h14.3h947.4 M52,52
					V37.7L14.3,0 M15,1600l37-37v-15V52h872 M924,1548H52"/>
			</g>
		</g>
	</g>
</g>
</svg>
