<svg xmlns="http://www.w3.org/2000/svg" xmlns:xlink="http://www.w3.org/1999/xlink" viewBox="0 0 976 1600">
<style type="text/css">
	.st0{fill:#FFFFFF;}
	.st1{clip-path:url(#SVGID_2_);}
	.st2{fill:#5D4E8C;}
	.st3{fill:#333333;}
	.st4{fill:none;stroke:#333333;stroke-width:2;stroke-linecap:square;stroke-miterlimit:3;}
</style>
<g id="Paper_Backing">
	<path class="st0" d="M960,22v1556c0,3.3-2.7,6-6,6H22c-3.3,0-6-2.7-6-6V22c0-3.3,2.7-6,6-6h932C957.3,16,960,18.7,960,22z"/>
</g>
<g id="Wikipedia_Cropped">
	<g>
		<defs>
			<path id="SVGID_1_" d="M960,22v1556c0,3.3-2.7,6-6,6H22c-3.3,0-6-2.7-6-6V22c0-3.3,2.7-6,6-6h932C957.3,16,960,18.7,960,22z"/>
		</defs>
		<clipPath id="SVGID_2_">
			<use xlink:href="#SVGID_1_"  style="overflow:visible;"/>
		</clipPath>
		<g class="st1">
			<path class="st2" d="M304,818.1c-19.2-11.7-42.9-16.5-29.5-43.7c-2-8.3,11.3-18.5,2.5-24.8c-16.6-10.8-67.1-50.7-36.7-62.2
				c20-15.7,69.5-2.8,70.7-26.7c38.1-126.3,41-14.8,82.8,9.7c116.9-14.2,44.5,13.1,23.6,66.4c6.3,21.6,18.9,45.7,16.2,67.9
				c-25.9,5.1-55.1-12.7-81-19.9C336.8,793,321.6,811.3,304,818.1z M509.8,695.1c-67.3,7.8-1.4-46.4-7-71.2
				c-20.5-19.6-50.4-35.8-54-60.7c20.4-13.8,54.2-17.5,80.5-14.6c11.6-2,22.8-94.2,45.2-75.5c19.1,16.1,26.5,40.7,41,57.7
				c18.2-4.8,105.3-17.6,67.8,21.7c-7.3,25.5-38,40.3-37.1,53.8c7.4,13.5,48.3,74,15,71C551.3,645.3,595,695.5,509.8,695.1
				L509.8,695.1z M142.5,666.5c-13.5,2.4-33-12.1-28.5-26.9c18.8-27.1,63.8-15.6,93.3-10.5C231.8,638.7,154.9,671,142.5,666.5
				L142.5,666.5z M854.9,647c-21.9-1.9-43.7-10.5-59.2-20.2c-4.3-14.8,30.2-19.6,39.6-20.3C862.7,600.9,898.6,641.8,854.9,647z
				 M275.7,580.8c-15.2-17.7,0.8-54.6,10.4-68.9c12.1-18.1,43.1-18.9,38.3,9.9C316.5,542.4,298.3,570.5,275.7,580.8z M762,566.1
				c-7.4-0.4-5.1-10.3-2.5-14.4C806.6,451.8,869,538.6,762,566.1z M210.5,564.7c-89.8-29.9-49.8-129.1-8.5-52.1
				C205.7,526.9,222.4,552.5,210.5,564.7L210.5,564.7z M473.6,466.3c-23,1.6-75.1-16.4-56.1-48.5c22-23.5,53.4,11.8,74.3,22.6
				C524.9,457.1,495.3,465.9,473.6,466.3L473.6,466.3z M666.8,444.8c-53.5-0.4,10.8-38.6,34.4-38c25.8-3.4,46.7,24.7,15.3,33.8
				C701.1,442.7,684.8,444,666.8,444.8L666.8,444.8z M610.3,364.6c-9.3-3.1,0-18.1,3.6-23.7C666.4,262.8,715.8,340.3,610.3,364.6
				L610.3,364.6z M465.3,359c-25.2,6.8-97.3-25.9-45.5-45.5C433.3,312.7,506.9,356.8,465.3,359z M564.8,290.9
				c-16.7-12,2.6-38.8,6.7-54.1C607.5,185.4,636.8,253.2,564.8,290.9z M470.2,242.9c-102.8-31.5-63.3-124.8-11.6-37.6
				C460.7,215.8,480.8,235.5,470.2,242.9L470.2,242.9z"/>
			<path class="st3" d="M660.6,1281.2c-23,1.8-42.6-9.2-65.2-7.7c-37.1,1.3-81.9,11.9-109.3-19.7c-32.9-36.6-49.5-31.2-89.5-49.6
				c-34.6-16.4-34.8-53.8-58.3-76.5c-16.3-10.8-26.2-30.8-42.2-40.3c-21.2,19.5-52.3,19.6-79.6,20.8c-38.7,5.4-60.5-20.6-97.6-21.7
				c-44.1,5.6-86.8-9.9-116.1-42.4c-5.5-4.8,4-16.4-6.4-17.8c-2.4-0.8-2.8-3.8-3.3-5.9c-2.8-45.9,21.3-88.1,60.2-113.5
				c29.1-22.7,32.4-67,67.8-85.1c28.2-12.5,56.9,0.5,83.7-11.5c34.9-23.3,111.7-10.6,100.6,43.7c-1.1,2.9,0.2,6.1,2.9,7.5
				c9.1,3.3,9,12.9,15.2,17.3c20.5-5.7,41.4-29,68-26.3c14.4-1.7,27.6,7.3,40.8,8c10.4-19.7,37.1-18.4,56.3-19.6
				c6.8-18.9,19.5-36.8,42.9-44.3c4.9-1.5,4.1-6.6,3.5-10.6c-1-6.5,6.4-8.3,4.4-14.3c-1.7-7.8,3-13.4,7.1-18.5
				c0.5-20.7-6.4-40.9,12.1-61.5c49.3-55,67,8.8,170.2-24.9c53.7-3.4,60.6,57.7,95.1,84.3c37.4,27,39.4,89.8,81,110.7
				c31.8,21.1,17.7,78.9-23.8,77.1c-26.8-0.5-52.5,28.8-78.2,23.9c-61.7-16.3,1.9,43.6-6,74.2c-5.2,19.8-16.1,37.6-11.7,58.8
				c10.6,35.6-16.4,59.9-34.8,87.3C726.8,1224.9,720.6,1290.7,660.6,1281.2z"/>
			<path d="M905,854c-41.6-25.5-36.3-78.9-76.7-107.1c-11.6-10.3-23.4-21.1-28.9-35.6c-15.4-47.2-70-63.9-112-41
				c14-36.5,46.8-29.3,78.2-38.9c41.7-10.9,45.6,23.7,96.5,19.1c7.2-0.6,15.6-4.9,18.7-12.8c5.2-35.7-49.8-41.2-71.7-29.8
				c-11.4,5-20.8,14-35,13.5c-19.6,0.7-39.1,7.3-58.8,9.6c10.4-14.4,19.9-28.6,30.7-41.8c5.1-6.2,7.3-15,15.9-18.2
				c9.9-3.7,19.7-7.9,29.6-11.6s16.6-11.8,24.7-18c26.9-21.3,10.8-49-20.7-39.3c-17.4,7.6-27.9,22-36.2,37.8
				c-4.6,8.7-3.3,21.2-9.1,28.3c-26,30.1-47.8,64.2-72.2,95c-5.1-17.9-10.6-35.8-21-51.3c-4.8-7.3-5.7-10.7,2.1-16.7
				c18.5-15.4,32.7-38.5,39.6-61.4c0.9-8.7-6.3-10.5-14-12.3c-18.9-4.6-37.4-0.8-56,0.9c-4.5,0.4-9.8,6.5-13.6,0.6
				c-8.1-12.5-15.3-25.8-22.9-38.6c-1.6-2.6-2.5-4.5,0.9-6.8c14.4-9.7,29.2-20.4,43-30.7c0.7-0.4,1.6-0.6,2.5-0.4
				c12,4.2,24.1,4.5,36.4,4.8c16.5,0.4,33.3,0.7,48.4-6.4c48.8-26.5-15.8-64.7-57.2-32.7c-13.2,7.7-21.4,21-34.5,28.1
				c-15.5,10.4-31.3,20.5-46.5,31.5c-1.9,1.4-2.7,0.7-4.5-0.5c-11.3-7.4-11.6-19.9-15.5-30.9c-3.7-10.4-6.5-19.9,4-28.4
				c4.4-3.6,6.5-9.9,10.9-13.4c10.8-8.6,13.9-26.1,30.7-27.5c22.1-2.2,39-17,57.4-28c10.1-6.2,14.9-15.5,12.8-26.7
				c-19-35.8-59.4-2.1-71.9,22.7c-4.8,7.6-4.5,17.1-11,24.2c-13.5,14.9-26,30.7-39,46.1c-1.4,1.8-3.2,1.5-3.7-0.9
				c-6-16.6-12.6-33-17.8-49.9c-2.5-8.3-12.5-16.9-4-25.9c9.9-10.6,13.6-25.5,29.1-32.8c27.3-11.9,75.8-56.4,45.8-85.1
				c-35.9-14.7-52.4,35.4-55,62.9c-0.6,7.1-0.7,14.5-4.4,20.3c-6.7,10.7-15.8,19.7-23,30.1c-8.7-8.1-9.6-21.2-14.7-31.6
				c-8.8-21.9-27.4-38.5-33.3-62.2c-2.5-10-7.5-19.4-12.2-28.9c-8-16.1-15.6-31.6-32.8-39.8c-15.8-9-40.7,1.9-35.5,21.8
				c23.3,59.2,74.1,46.8,83.7,75.7c4.8,13.7,15.4,25.2,21.5,38.6c8.8,19.2,15.8,39.2,23.6,58.8c0.7,1.8,2,5-1.3,4
				c-45.9-6.5-58-47.6-101-57.2c-28-5.8-38,33.5-13.2,45.4c21.3,11.8,44.4,12.8,67.9,8.2c11.2-2.2,19.8,4.9,28.5,8.7
				c24.6,6.7,25.9,4.8,34.3,31.6c6.5,19.1,13.1,38.2,19.3,57.3c0.8,2.5-0.7,1.2-2.1,0.7c-9-3-18.1-6-27.3-8.5
				c-7.3-2-16.3-1.1-21.9-5.2c-22-16-43.2-32.6-69.5-41.5c-43.3-7.8-40.7,45.6-7.6,59c20.9,7.4,45.1,11.6,66.2,3.6
				c19.6-12.8,26.6-9.4,47.2-1.4c4.3,1.6,13.4,2.9,12.2,4.7c-12.6,22.3-24.5,45-29.1,70.3c-0.2,0.9-1.2,2.4-1.4,2.3
				c-24.6-4.4-50.8,2.7-74,10.7c-9.3,3.8-18.8,7.9-8.6,20.2c5.4,6.6,10,14,16.1,20c11.7,11.4,24,22.1,36.3,32.9
				c3.6,3.2,3.9,2.9,2.5,4.6c-11.4,14.3-19.9,30.4-24.1,48c-1.5,6.3-7.2,13.1-1.2,20.3c2.8,3.4,5.6,0.1,8.3,0.3
				c21.3,3.1,42.5,1,63.8-0.9c-3.5,12.5-9.5,24.2-6.1,38.1c0.7,3.1,2.3,6.5,1.1,10.7c-3.1,10.5-10.2,19.3-11.4,30.9
				c-0.4,4.3,2.2,11.3-3.9,14.5c-15.2,7.7-27.6,19.8-35.9,34.8c-2,3.6,1.7,13.5-6.9,10.8c-16.9-5.4-40,1.1-51,16
				c-0.8,1-1.6,3.3-4.3,1.8c-31.3-19.5-69.6,4.6-67.3-6.8c0.6-18.7-6.4-38.2-0.2-56.2c23.1,7.8,45,19.8,70.2,17.3
				c3-0.2,7.8,3.4,8.1-3.3c-0.6-24.1-6.7-49.1-18.1-70c-0.6-2.3-0.3-4.7,2.1-7c14.8-14.2,25.5-31.4,37.3-47.7
				c3.4-4.8,7.1-14.4-0.6-17.1c-44.3-16.2-72,11.2-76.6-9.2c-1.6-9.4-37.9-75.8-47.9-59.7c-17.8,17.7-21.9,41.9-31.2,64.2
				c-2.4-3.9-7.9-4.2-9.6-9.2c-0.8-2.5-3.7-4.5-6-6.2c-17.3-13.2-21.5-34.8-12.6-53.6c3.6-7.8,11.8-8.3,17.1-13.3
				c18-20.3,50.8-48.8,34-78.2c-7.5-12.1-24.5-11.9-39.6,1.8c-14.6,13.2-19.3,31.8-22.1,50.6c-2.4,15.8,5.8,32.3-0.1,48
				c-1.4,2-2.8,11.3-5.6,9.6c-3.9-4.4-8.8-8.3-11.3-13.4c-7.5-15.2-26.9-21.6-27.2-43.1c-1.2-25.2-19.2-81.4-51.8-76.3
				c-13,2.5-19.9,12.8-20,26.4c-0.7,42.1,42.6,53.8,70.1,73.4c13.2,12.5,22.9,28.8,34.3,43.3c1.4,1.7,2.1,2.1-0.6,2.4
				c-18.3,2-36.5,4.3-54.7-1.9c-21.7-7.8-92.1-9.9-92.6,22.1c-0.8,10.8,5.3,20.9,15.3,25.1c56.7,21.8,81.4-37,121.8-34
				c7.6,0.9,17.3-5,22.8,1.1c10.2,11.3,19.7,23,32.3,33.1c-18.2,2-82.4,8.7-73.8,34.5c12.1,19,26.6,35.8,45,49.1
				c1.6,1.2,5.9,0.4,4.5,5.6c-2.8,10.3-8.2,20.3-6.3,31.5c2.6,15.6-20.9-7.8-56.5,13c-43.2,21-87.7-12.5-121.4,39.1
				C80.5,855.4,73,870.4,64,884.4c-16.5,26-53.5,36.2-60.2,68.5c-29.5,72.2-20.8,99.7,51,133.5c35.6,16.7,66.1-5.6,114.4,19.8
				c29.9,12.5,100.1,11.8,124.4-11.2c2.1-2,2.9-1.4,4.7,0.4c16.1,17.8,35.2,32.2,49.1,52c7.3,18.2,12.8,31.2,27.1,45.6
				c13.1,15.7,30.6,22.4,49.2,28.2c11.9,3.8,25.1,4.2,34.8,14.1c31.3,36,63,54.9,111.8,45.1c41.4-8.3,84,17.6,123.6,3.2
				c45.5-19.9,40.5-85.2,75-116.8c38.4-36.6,10.5-72.1,27.9-112.1c13.2-28-4.4-55.3-13.9-81.2c-9.9-22.6,18.7,15.4,74.2-21.2
				c8-5.2,15.5-7.8,24.9-7.5C932.1,941,942.8,882.7,905,854z M862.9,617.7c7.1,3.7,11.5,12,7.4,18.2c-13.3,17.9-56.8-3.5-72.5-12.5
				C818,609.6,839.8,605.7,862.9,617.7z M761.4,556.9c26.3-75.2,93-46.5,33.7-10.1c-10,6.1-20.9,10.8-31.8,15
				C759.4,563.3,761.6,558.7,761.4,556.9z M650.4,434.7c15.1-12,30.9-22.7,51-23.9c7.7-1.1,29,4.6,27.4,14.2
				c-2.2,6-7.2,10.8-13,11.6S639.9,446.2,650.4,434.7z M613.5,348.7c32.7-63.3,79.4-30.3,43.6-10.6c-12.6,5.1-21.4,16.8-35.4,19.1
				c-3.9,0.6-7.6,2.2-11.4,3.4C611.3,356.6,611.3,352,613.5,348.7L613.5,348.7z M563.4,270.2c3.1-10.9,7.5-21.4,11.8-32
				c5.4-13.4,21.9-20.1,28.2-11.5c6.2,10.1,0.6,23-5.5,30.2c-6.5,5.3-27.2,31.9-33.9,29.5C562.4,281.3,562,275.2,563.4,270.2z
				 M408.5,186.9c-3.6-11.9,10.9-14.6,18.9-10.8c25.6,10.6,30.2,40.5,42.8,62.8C443.2,227.9,419,215.5,408.5,186.9z M474.5,353.5
				c-14.2,3.8-42.6,0.5-58.3-8.8c-21.1-12.1-4.1-36.5,15.7-23.6c13.7,7.6,27.9,14.5,38.5,26.6C472,349.5,476.1,350.5,474.5,353.5z
				 M498.8,457.1c-26.4,10.5-73.2,5.7-81.7-26c-1.7-6.6,7.2-18.1,15.3-18.1c24.7,5.4,46.3,23.9,67.3,37.8
				C505.3,454,504.8,456.3,498.8,457.1L498.8,457.1z M289.3,514.3c8.6-13.1,34.7-19.1,31.2,6.4c-3.6,11.5-11.8,24.9-23,36.6
				c-7.4,9.5-10.5,13.8-21.8,19.5C271,555.3,277,532.2,289.3,514.3z M210.5,560.7c-18.4-7.7-36.5-20.2-46.6-38
				c-7.2-14.7-7-23.2,4.2-34.4c19.9,1.9,26.2,14.2,30.1,25.6C204,528.8,210.8,544.1,210.5,560.7L210.5,560.7z M143.7,662.5
				c-6.8,0.1-14.9-0.3-20.8-6.7c-28.8-39.6,69-28.5,86.8-22C189.4,648.8,169.1,662.2,143.7,662.5z M543,688.7
				c-19,3.4-38.3,2.3-57.5,2.2c-7.3-11.7,17.7-50.2,25.5-61.9c2.5-3.4-3-5.9-5.8-8.1c-17.7-13.9-34.2-29-48.7-46.3
				c-11.9-14.1,4.1-13.7,9.2-14.9c17.7-4.2,35.4-9.5,56.8-8.4c20.9,7.4,15.9-14.5,20-24.4c6.9-16.7,13.5-33.5,21.7-49.6
				c1.5-2.9,4.5-4,7.4-1.1c16.2,15.6,27,35,37,54.6c6.3,12.2,12.9,1.3,18.2,0.9c16.8,0,86.5-12.2,52.9,18.7
				c-8,16.4-18.1,32.2-33.1,43.4c-12.7,9.5-2,15.7,1.7,23.1c8.6,17.3,18.8,34.2,21.7,53.3c1.1,7.3-8.8,2.3-13.3,2.7
				c-15,1.3-27.7-8.5-42.5-10.5c-22.9-3-40.5,4.5-56.5,19.8C554.2,685.7,548.3,687.8,543,688.7z M554.3,753.1
				c88.7-2.4,177.6,26.2,251.6,74c-53-27.1-104.2-42-161.8-51.6c-33-3.4-66.2-4.7-99.4-4C538.3,769.1,550.1,752.8,554.3,753.1
				L554.3,753.1z M736.7,810.7c0.2,24.3,11.7,44.8,14,68.6c-36.1-30.4-55-83.9-110.3-78.5c-10.9,0.5-10.1-11-14.9-16.7
				c-0.6-0.7,4.5-1.2,6.7-0.9c34,3.7,67.6,11.1,100,22.1C734.2,806,736.7,808.8,736.7,810.7L736.7,810.7z M549.7,780.4
				c20.4-2,42.7-1.9,62.8,1.5c5.3,1.3,8.7,12.2,11.8,19.2c-23.2,7.2-43.6,4.9-64-9.5c-3.8-2.4-9.5-1.8-14.7-2.7
				c-1.5-2-6.6,4.7-6.7-2.7C539,777.6,546.2,781.2,549.7,780.4L549.7,780.4z M453.1,849.8c16.8-8.1,41.8-6.4,54.3,14.6
				c6.3,10.7,14.7,20.3,22.8,30c12.1,14.5,20.3,32.2,29.9,48.7c29.4,45.4,49.8,95.3,73.4,143.7c8.1,16.2,12.1,33.7,19.3,50.2
				c0.2,0.4-0.2,1.2-0.6,2.5c-20-36.2-38.9-71-62.2-104.8c-31.2-44.5-68.9-83.9-104.7-124.7c-11.6-12.4-22.8-25.4-34.3-37.9
				C432.8,859.8,438.5,853.7,453.1,849.8L453.1,849.8z M278.4,774.2c0.4-14.2,16.2-22.2-4.5-30.8c-16.2-11.9-30.1-25.9-39.6-43.5
				c-3.7-6.8,6.6-8,10-9.6c9.1-4.5,19.4-7,29.4-9c11.1-2.2,22.8-2.1,33.8-4.6c6.4-1.5,5.5-9.5,7.2-14.6
				c6.2-18.6,11.1-37.7,22.2-54.3c8.3-10.3,35.5,44,38.2,51.5c10.5,30.9,41.6,1.9,80.6,14.3c-57,84.6-48.1,25.1-24.9,123.3
				c0.3,1.9,0.1,3.8-0.5,5.6c-4.2,0-8.7,0.4-12.7-0.7c-19.3-6.2-39.7-9.9-57.9-18.8c-13.7-7.2-18.4,6.8-26.8,11.8
				c-9.9,5.8-18.6,13.5-28.5,19.3c-1.6,0.9-6.7-3.9-10-6.3c-4.1-2.9-8.5-5.4-13.1-7.5C267.1,794.5,278.5,783.6,278.4,774.2z
				 M311.1,856.8c8.2-24.8-9-29.8,1-35.1c11.5-6.6,22.5-14,31.5-23.9c2.9-3.1,4.9-1.2,5.1,1.4c1,19.3,2.7,38.7,1.3,57.8
				c-0.3,4.4-12.5,7.4-18.5,12c-5.7,4.3-7.6,1.4-10.6-3C318.2,862.2,313.9,859.4,311.1,856.8L311.1,856.8z M304.7,888.7
				c-58.1,15-117.7,28.5-171,57c-40.6,20-70.3,44.5-111.8,66.9c47.1-44,96.8-76.1,154.7-101.7c40.3-18.2,81-39.3,125-46.9
				C315.1,865.5,323.9,882.8,304.7,888.7L304.7,888.7z M0,1021.2c-0.6,0.6-1.5,1-2.2,1.5c-6.3-19.6,3.6-36.7,10.3-54.1
				c6.4-26.7,26.4-43.4,47.6-58.3c29.4-22.3,32.8-66.8,67.3-84.8c27-11.6,55.9,0.7,83.2-11.3c14.8-5.2,28.9-14.7,46.1-11.3
				c19,3.8,38.2,7.1,47.6,27.4c3.9,8.3,4.9,17.4,0.5,25.3c-1.4,2.6-8.3,2.2-12.6,3.1c-8.3,1.8-16.5,4.7-24.8,5.1
				c-3.2,0.2-6.6-5.4-10.1-8.2c-7-5.4-41.8-34.6-48.5-24.7c-0.6,3.1,2,4.8,4.6,5.8c15,6.2,27.9,15.9,40.5,25.8
				c1.4,1.1,9.9,4-0.4,6.7c-11.7,3.2-23.1,7.8-33.8,13.6c-10.2,5.4-16.8-2.5-24.7-4.7c-15.2-4.3-30.6-7-46.1-9.7
				c-6.6-1-30.1-4.8-31.5,3.5c0.3,2.6,2.3,2.8,4.5,2.8c12.7-0.1,25.1,1.7,38.8,4.6c-18.3,8.9-36.3,11.6-55.1,11.3
				c-1.7,0-4.1-0.9-4.2,2.5c-0.1,2.9,1.1,3.3,3.7,3.8c21.3,4.3,41.2,1.3,59.1-11.3c12.4-8.8,23.4-1.5,34.8,2.1
				c1,0.3,2.7,1.7-0.5,3.1c-23.7,9.7-45.4,24.6-69,34.1c-24.7,2.6-51.8-7.4-76.8,1.5c-1.9,0.6-4.4,1-2.8,3.2c3,4.1,8.5,4.4,12.2,2.7
				s7.3-0.8,12.7-2.1c-10.8,11.2-21,20.1-33.3,26.6c-3.8,2.6-17.1,9.8-17.3,13.8c2.4,0,3.9,3.2,6.9,1.6c19-9.6,36.2-21.5,50.6-37.3
				c4.4-4.6,25.6-1.2,35.1-2.2C70.2,959.1,31.8,984.5,0,1021.2z M273.4,1097.3c-18.8,5.4-38,6.2-57,7c-37.1,6.1-67-25.2-104-21.4
				c-18.1,1.6-36.3,1.6-52.9-6.3c-19.3-9.1-40.2-17.1-53.4-34.8c-5.3-7,6.4-9.5,10.4-12.4c38.8-26.7,79.5-55,121.8-74
				c0.6,0.9,0.8,2.1,0.4,3.2c-4.6,13.5-7.7,27.8-14.8,39.8c-3.4,5.8-14.4,7.2-22,10.4c-14.2,6.1-48.4,22.9-48.3,39.9
				c1.9-0.2,4.6,0.3,5.5-0.7c15.6-17.7,36-27.8,59.2-37.8c-4.1,9.9-7.1,18.3-10.9,26.2c-2.3,7.3-11.9,14.7-10,22.2
				c12-1,16-18.8,21.4-27.5c11.2-23.4,25.6-47,29.1-73c1.3-19.2,19.6-16.5,30.4-22.8c9.7-5.7,21.2-8.4,31.9-12.3
				c10-3.7,4.9,6.7,4.9,7.2c-1.3,14.3,0.6,29-4.3,42.9c-3.2,9-12.3,11.1-18.6,16.4c-21,17.6-38.1,37.8-45.3,64.9
				c-0.5,1.9-1.6,5.4,1.3,6.1c3,0.7,4.9-2.4,5.9-4.9c11.3-27.8,27.6-50.8,53.9-67.6c-7.1,24.4-15.5,44.8-24.9,67.6
				c-0.4,1,0.3,3.5,1.1,3.8c3.1,1.3,5.4-1.5,6.3-3.4c17.8-35.3,31.3-73.7,34-113.3c0.4-5.9,2-12.5-1.1-19c-3-6.3,4.6-5.9,7.7-6.9
				c20.3-5.7,40.4-13.7,61.3-16.6c0.3,0,3.5-0.2,1.2,2.9c-11.1,15.3-18.9,32.1-18.9,51.4c-1.8,34.8-34.1,56.5-39.6,90.5
				c-0.3,1.6-0.6,5.8,2.2,5.5c5.2-0.6,6.2-6,7.5-9.9c6.9-17.9,17.4-34,27.8-49.9c0.8-1.2-1-4.3,1.9-3.3c1.2,0.4,1.6,3.3,2.4,5
				c7.1,16.5,2.5,33.5,2.1,50.3c-0.3,13,0.5,25.8,9.4,36.8C293.2,1085.7,283.4,1094.4,273.4,1097.3z M688.8,1276.4
				c-15.2,0.7-30.6,1.4-45.7,0.2c-10.9-0.8-21.4-6-32.3-6.7c-28.3-2.9-55.9,5.2-84.4,1.8c-36.4-6-50.7-44.2-83.4-55.7
				c-37.3-6-72.8-27.1-84.2-65.3c-3.2-10.2-8.7-19.3-18-26.2c-11.4-8.5-20.3-19.8-30.2-30c-18.9-17-26.6-43.1-20-67.7
				c2.3-33.5-17.1-62-0.1-96.5C315.7,876,393.2,829,444.1,877.3c9.2,9.2,17.1,19.7,25.5,29.7c3.9,4.7-2.2,5.1-3.6,7.5
				c-6.6,10.8-16.2,13.3-28.6,12.8c-25.6-1.1-51.3,0.9-76.5,6c-12.7,2.5-24.9,7.8-37.2,12.2c-6,2.8-4.8,9.6,2.2,7.5
				c39.7-14.4,79.8-16.9,122-18c-38.5,35.2-81.1,85.8-96.3,135.7c-0.7,2.5,1.5,4.3,2.2,4.1c1.9-0.5,4.5-1.7,5.2-3.3
				c12.2-31.2,30.4-59.7,53.5-83.9c-2.1,39.4-10.6,79.8-26.3,116.3c-1.4,3.2-3,7.4,0.6,9c4.1,1.7,4.8-2.5,6.7-5.8
				c15.6-28.7,21.9-60.9,25-92.9c1.3-11.5,4.4-23.1,2.1-35.1c-0.4-2.3,3.5-5.6,5.7-8.2c14.7-17.5,31.6-32.9,45.7-51.1
				c7.7-10,12,3.4,15.6,7.1c13.2,13.7,25.2,28.6,37.4,43.3c3.1,3.8-1.6,7.1-3,9.9c-25.2,51.8-40,107.1-49.2,163.7
				c-2.7,14.9-2.7,30.3-3.7,45.4c-0.1,1.9-1,5.1,2.6,4.5c2.5-0.4,5.5-0.4,5.5-4.8c1.2-36,8.5-70.1,18.8-104.7
				c9.7,42.1,15.5,81.6,21,123.8c0.5,3.2,2.2,6.9,5.4,6.6c9.3-9.1-4.1-71.6-6.9-86.8c-4-19.2-10.7-37.3-15.7-56.1
				c-1.7-6.3,3.4-14.5,6-21.7c8.3-23,17-45.9,25.5-68.8c0.5-0.8,1.2-1.5,2.1-1.9c0.2-0.1,1.1,1,1.5,1.5c22.9,31.3,52.2,60,69.1,95.1
				c2.5,6.8-2.3,16.4-3.9,24.8c-4,21.1-6.3,42.6-10.1,63.6c-3,5-3.2,95.3,7.1,69.8c-1.3-26.2-2.4-50.9,2.5-77.4
				c11.3,19.3,20.5,39.7,27.5,61c2.2,4,4.4,15.3,10.5,13.2c0.8-0.4,1.6-2.3,1.5-3.5c-4-25.3-16.1-50.2-30.3-71
				c-14.9-18.3-1.2-34.8,0.2-52c0.5-5.8,1.5-11.5,2.5-19.4c28.2,51.4,55.4,98.5,73.6,153.6C686.6,1248.3,706.1,1274.4,688.8,1276.4
				L688.8,1276.4z M792.9,1037.2c-0.2,7.8-5.2,13.9-7.9,20.8c-13,29,9.2,61.7-11.7,88.1c-24.5,25.6-39.1,57.9-50.8,90.9
				c-3.3,9.5-10.2,17.9-15.6,26.7c-0.6,0.9-2,1.3-3.1,1.9c-22.2-62.7-37.1-128.4-64.6-189.5c-1.2-3.4,0.2-6.7,4.2-4.9
				c12.5,5.7,26.3,10.1,36.2,18.9c4.6,4.1,4.9,15.9,9.3,23.2c8.2,13.4,17.2,26.3,25.8,39.3c4.6,2.5,6.3,13.9,12.7,8.1
				c3.9-3.7-3.9-9.1-7-13.4c-12.1-16.7-22.8-34.2-32.1-52.5c19.1,10.4,35.3,22.3,50.7,35.5c0.7,0.6,2.3,0.1,3.4,0.1
				c3.3-12.9-38-36.7-48.8-43.7c-18.4-12.7-38.7-21.1-59.9-27.9c-6.2-2.6-7.3-9.6-9.9-14.9c-15.6-31.1-28-63.9-49.2-92.4
				c15.5,1.1,30.9,3.7,45.8,8c14.6,4,29.3,7.5,43.2,13.6c6.1,2.7,7.8,9.3,11,14.1c9.3,12.7,41.7,67.4,57.3,62.6
				c4.8-5.1-2.9-7.5-6.3-10.8c-19.4-19.1-31.2-37.9-47.3-60.8c29.3,18.4,51.7,30.6,73.8,54.8c1.5,1.7,4,3.7,6.8,0.9
				c6.8-11.6-62.6-57.8-74.9-62.2c-31.7-16.4-67.8-24.8-103.4-29c-17.7-0.2-18.6-16-25.8-26.1c-9.6-15.1-22.8-28.4-30.2-44.6
				c34.1-7.4,69.9,0.3,103.7,5.9c9.3,2.2,16.7,12.6,25.1,19.2c8.5,6.2,37.9,26.2,46.9,19.3c0.9-3-3.1-4.2-5.4-5.3
				c-17.1-8.2-34.3-16.4-48.8-30c14.5-1,28.4,2.5,42.3,4.2c5,0.6,13.5,3.9,13.7-0.2c0.3-6.5-9.1-6.9-14.4-8
				c-55.3-9.7-112.7-23.9-168.6-12.7c-5.1,0.8-5.8-6.9-9.4-10.1c-4.9-4.3-8.4-10.3-13-15c-5-5.2,1.4-7.4,2.6-10.7
				c14.6-28.5,48.2-39.7,74.6-19.7c44.7,19.3,86.8-26.7,128.2,31.7c18.3,30.6,59.3,47,61.3,86.3c2.4,19.7,5.8,39.3,14.1,58
				C784.7,1001.5,793.4,1018.2,792.9,1037.2z M913.1,917.6c-17.7,28.7-37.9,8.1-58.3,24.7c-22.9,14.9-81.8,34.6-81.6-10.1
				c-0.8-14.2-4.5-27.5-9.7-40.7c-0.5-1.3-0.3-2.8-0.6-6.5c14.3,15.3,27,28.7,39.6,42.4c1.9,2.1,3.8,1.8,5.7,1
				c2.9-4.6-21.5-29.7-25.6-35.1c-6.6-7.1-11.1-16.5-22.5-19.6c-3.3-0.9-3.3-13.2-5-20.3c-3.2-13.4-6.6-26.8-9.9-40.2
				c-0.6-2.5,1.5-2.6,2.8-2.1c13.1,5.7,26.6,10.8,39.1,17.6c5.6,3,4.1,11.4,5.6,17.2c8.3,31,19.1,60.6,41.1,84.9
				c1.4,1.5,2.4,3.1,5.2,1s1.7-2.9,0.5-5c-7.8-13.8-19.9-25.7-24-41.4c17.3,3.4,33.2,11.9,47.9,21.4c2.6,1.8,6.1,8.2,9.2,3
				s-3.9-7.3-7.3-10.4c-14.7-13.6-33.2-19.2-51.7-24.9c-7.2-2.3-5.9-10.4-8.3-15.9c-2.7-7.4-6.1-15.3-5.8-23.4
				c39.8,22,80.1,44.1,116.2,72C919.4,910.2,915,914.5,913.1,917.6z M772.1,795.8c26.6-16.4,34.8,13.6,66.9,13.3
				c2.1,0.2,5.3,1.5,5.6-1.8c0.1-1.3-3-3.6-5-4.2c-12.1-3.5-25-6.4-34.4-15.5c5.1-5.7,28.5-1.4,26.4-8.4c-0.2-10.6-61.8,7.1-71,8.9
				c-6.8,2-16.4-4.3-24.3-7.8c-16.8-7.4-33.8-14.3-51.5-19.3c-2.7-0.8-2.3-2.4-1.3-3.6c26-31.3,63.9-0.7,98.3-24.4
				c1.3-0.7,2.4-3.7,1.9-5c-1.9-3.3-8.7,1-11.8,1.1c-15.5,5.2-31,8.5-47.4,4.2c-2.6-0.7-5.9,1.2-8.8,1.9l-1-1.7
				c12.3-7.4,24.5-15.1,37-22.1c3.1-1.7,6.6-3,5-6.7c-7.1-9.6-45.9,22-55.2,26.6c-10.3,6.5-18.8,14.9-27.4,23.3
				c-5.3,5.1-14,1.6-18.1-0.5c-11-5.6-23-5.9-33.9-6.4c-18.6-0.8-5.7-7.2-3.2-11.6c9.5-19.7,49.4,1.3,88.3-35.7
				c4.3-3.8,1.4-10.9-3.4-5.6c-20.2,17-44.2,20.7-69.7,26.4c4.4-4.8,29.9-20.1,24.9-24.2c-2.2-2.5-5.8-0.6-8.2,1.3
				c-9.3,7.2-18.6,14.5-27.9,21.7c-1.5,1.2-2.7,1.5-4-0.4c-6-8.6-12-17.2-18.2-25.6c-0.8-1.1-1.8-4.2-3.8-2.3
				c-11.1,6.3,12.9,27.7,16.5,34.5c2.5,3.8-1.1,3.1-1.7,4.5c-9.5,25.2-34.7,8.7-53.7,14c-13.1,3-7.8-9.4-8.5-13.7
				c-4.1-23.9,21.4-54.1,44.9-58.3c18.5-3.3,33.7,5.4,50.3,8.8c47.6,11,86.7-33.1,128.2,7.3c11.3,10.5,14.4,26.1,23,38.4
				c23.4,30.2,54,46.4,64,86.7c10.8,42,57,46.4,58.8,81.3C873.2,857.4,824.1,824.2,772.1,795.8L772.1,795.8z M560.9,620
				c-9.9,3.7-20.3,6-29.8,10.9c-2.7,0.4-4.5-2.9-3-5.4c2.6-5.8,8.4-7.7,13.5-9.8c4.8-2,2.8-3.4,1.2-6.1c-7.5-12.5-15-25.1-15.8-40.2
				c-1.4-7.4,7-6,8,0c3.4,14.5,10.5,27.4,19,39.1c4.8,6.7,12.1-1.1,17.2-3c5.7-2.2-0.4-8.7-1-13.2c-2.2-18.1-5.8-36-5.1-54.3
				c0.2-6.8,8-6.1,8.1,0.9c3,21,3.5,42.3,9.7,62.7c0.3,1.1,1.3,3.1,1.5,3c3.5-1,9.5-1.5,10.1-3.5c3.5-12.3,5.8-24.9,8.4-37.5
				c0.9-4.5,1.3-11.4,5.7-11.5c5.9-0.2,4.8,6.5,4.2,10.7c-2.1,13.2-4.6,26.3-7,40c2,0,4.1-0.4,6,0.1c3.5,0.8,9.8-2.7,9.8,3
				c0,6.3-7.2,5.4-11.7,5.9C593.4,613.8,576.8,614.1,560.9,620z M302.6,752.1c-4.2-5.6,9.2-9.5,13.2-9.5c2.9-0.1,3.5,0.8,1.9-2.7
				c-5.9-13-11.3-26.3-7.3-41c1.5-4.6,6.1-4.9,6.7,0.5c2.4,11.4,3,23.3,8.3,33.9c1,1.9-0.1,7.4,4.3,4.8c29.5-0.6,1.7-13.3,9.3-61.4
				c4-4.9,8,3.1,7.9,6.7c2.2,14.9,4.1,29.8,6.1,44.7c0.6,4,2.3,7.1,7.2,6c4-0.9,7.9-0.8,8.9-7c1.9-12.3,5.1-24.5,7.9-36.7
				c1.8-2.4,7.4-2.1,6.7,2c-1.1,10.1-2.1,20.3-4.2,30.2c-0.7,3.3,1.6,7.5-2.8,9.7c4.8,2.2,13.5-2.1,13.2,4.2
				c-0.3,5.2-9,4.3-14.6,4.8c-21,2.1-41.9,5.1-62.2,11.3C310.1,753.4,305.9,755.3,302.6,752.1z"/>
		</g>
	</g>
</g>
<g>
	<g id="Layer_1_2_">
		<g transform="matrix( 1, 0, 0, 1, 0,0) ">
			<g>
				<g id="Layer0_0_FILL_1_">
					<path d="M52,1548v15l-37,37h946l-37-37v-15H52 M52,52V37.7L14.3,0H0v1600h15l37-37v-15V52 M924,52V37.7L961.7,0H14.3L52,37.7
						V52H924 M976,0h-14.3L924,37.7V52v1496v15l37,37h15V0z"/>
				</g>
			</g>
			<g>
				<path id="Layer0_0_1_STROKES_1_" class="st4" d="M961,1600h15V0h-14.3L924,37.7V52v1496v15L961,1600H15H0V0h14.3h947.4 M52,52
					V37.7L14.3,0 M15,1600l37-37v-15V52h872 M924,1548H52"/>
			</g>
		</g>
	</g>
</g>
</svg>
