<svg xmlns="http://www.w3.org/2000/svg" xmlns:xlink="http://www.w3.org/1999/xlink" viewBox="0 0 976 1600">
<style type="text/css">
	.st0{fill:#FFFFFF;}
	.st1{clip-path:url(#SVGID_2_);}
	.st2{fill:#5D4E8C;}
	.st3{fill:#333333;}
	.st4{fill:#FFEB5C;}
	.st5{fill:none;stroke:#333333;stroke-width:2;stroke-linecap:square;stroke-miterlimit:3;}
</style>
<g id="Paper_Backing">
	<path class="st0" d="M960,22v1556c0,3.3-2.7,6-6,6H22c-3.3,0-6-2.7-6-6V22c0-3.3,2.7-6,6-6h932C957.3,16,960,18.7,960,22z"/>
</g>
<g id="Wikipedia_Cropped">
	<g>
		<defs>
			<path id="SVGID_1_" d="M960,22v1556c0,3.3-2.7,6-6,6H22c-3.3,0-6-2.7-6-6V22c0-3.3,2.7-6,6-6h932C957.3,16,960,18.7,960,22z"/>
		</defs>
		<clipPath id="SVGID_2_">
			<use xlink:href="#SVGID_1_"  style="overflow:visible;"/>
		</clipPath>
		<g class="st1">
			<path class="st2" d="M172.4,823c-4.5,0-6.5-4.6-4.9-8.8c24.6-49.8-17.2-24.9-52.3-54.8c-19.6-9.2,31.4-32.3,38-41
				c12.1-8.3,33.6-7.2,35.4-28.2c7.6-24.6,20.8-47.3,33.7-68.4c17.5-15.6,46.6,50.9,58.1,60.4c23.2-9.9,46.8-24.2,72.8-28.5
				c20.2-0.5-3.7,47.7-9.6,61.2c-2.9,11.8-24.7,21.9-20.1,34.4c12.6,16.1,32.5,41.3,32.8,63c-23.7-10.9-43.3-33.9-64.5-34.3
				C243.2,764.2,214.3,810.5,172.4,823z M489.3,811c-28.3,3.3-80.6-33.5-59.2-63.4C450.1,722.4,533.3,813.1,489.3,811L489.3,811z
				 M475.7,720.3c-18.8-8.2,2-52.7,3.9-71.3c-18.8-10.2-51.2-19.1-59.8-47.6c17.6-11.8,43.1-19.7,64.6-22.7
				c5.2-0.1,12.6,3.7,14.6-3.3c22.8-93,31.4-91,80.5-11.2c28.9-12.6,69.8-31.2,96-11c-1.8,28.3-24.3,52.4-46.6,71.6
				c-2.6,2.1-3,5.8-1,8.4c0.3,0.3,0.6,0.7,0.9,0.9c19.5,15.4,32.4,38.9,36.9,63.4c10.8,41.8-94.6-18.1-108.3-28.8
				C538.2,690.9,510.6,712.3,475.7,720.3L475.7,720.3z M282.8,615c-7,0.8-9.1-4.8-5.3-10.2C355,483.8,399.2,601.3,282.8,615z
				 M175.3,611.1c-70.7-5.8-94.7-110.5-30.2-66.2C155.2,550.6,189.2,608.7,175.3,611.1L175.3,611.1z M229.1,546.7
				c-28.9-15.5-48.4-89.8-10.7-97.4C246.9,454.4,244.6,533.2,229.1,546.7L229.1,546.7z M635.6,494.3c-84-3.2,34.3-71.4,53.8-30.6
				C698.3,494.5,655.3,492.1,635.6,494.3L635.6,494.3z M514.4,473.7c-48.9,5.5-105.1-49.3-56.9-62.8
				C474.5,406.4,552.2,469.3,514.4,473.7L514.4,473.7z M663.9,400.7c-72.9,1.3-5-49.6,28.5-45.4
				C737.5,366.9,691.3,406.2,663.9,400.7L663.9,400.7z M522.3,377.1C427.8,364.2,418,255.8,494,317.3
				C501.8,329.1,542.8,367.9,522.3,377.1z M621.8,315.2c-23-14,31-54.3,46.4-50.6C737.4,267.9,647.6,318.5,621.8,315.2L621.8,315.2z
				 M557.2,300.7c-32.2-18.2-54.6-89.9-11.8-106.7C569.4,204.8,573,285.3,557.2,300.7L557.2,300.7z"/>
			<path class="st3" d="M546.9,1287.6c-14.2-15.4-7.4-1.9-22.8-8.8c-23.6-17.6-54.5-2.4-79.4-18.7c-21.9-13.5-38.5-37.3-69.1-41
				c-53.5-2.2-55-73.3-92-99.9c-51.8,20.5-85.1-16.8-134.2-24.5c-53.4,11.2-100.9-11.1-138-49.9c-68.1-43.4,19.9-123.1,53-163.8
				c41.5-41.4,89.9-41.8,136.3-67.3c21.5-15.1,41.5-35.3,70.1-34.1c41.4,1,89.1,29.5,103.7,72c3.7,14.3,29.2-0.8,38.7,2.8
				c16.5-0.5,34.3,4,44.4,17.4c2.1,2.6,5.8,3,8.4,1c0.1-0.1,0.3-0.2,0.4-0.3c7.3-6.4,13.8-8.4,22.3-9.4c9.1-4.9,20.3,6.7,26.5-1.2
				c18.2-28.3,51.9-30.3,81.3-32.6c-4.5-62.7,34-132.7,112.2-107.2c28.6,12,62.5-5.9,90.6,12.9c21.7,11.4,30.7,31.1,43.3,49.3
				c27.4,35.7,77.5,40.5,76.8,99.2c0.3,31.9,10.4,66.1,12.4,94.6c9.2,9.5,22.5,17.8,27.3,29.8c-1.3,6.6-9,6.2-14.3,4.4
				c-13.1,9.4-29.5-2.4-44.8-1.1c-51.5,9.8-98.1,48.3-154.4,38.8c-90.5-22-14,18-51.9,67.4c-9.9,15.8-22.2,28.6-37.7,43
				c-16.1,19.3-13,50.3-38.1,62.1C589.5,1239.8,567.5,1262.1,546.9,1287.6z"/>
			<path class="st4" d="M0,1604c-4.7-1.1-13.8-575.9,3.5-565.3c44.5,52.3,91.3,65,157.2,59.8c33.5,8.8,64.7,36.5,100.8,27.1
				c30.2-17.6,48.4,28.3,59,53.8c19.1,48.6,82.3,37.7,110.9,73.8c19.1,24.4,57,12.2,83.9,24.2c18.3,14.6,38.6,12.7,50.5-8.7
				c21.4-31.9,67.3-39.2,79-76.7c16.5-58.4,84.5-67.7,56.7-144.3c0.3-5.6,7.3-4.1,11.3-3.3c50.7,18.9,110.7,3.7,156.2-22.3
				c29.7-26.1,84.8,22.4,94.9-16c-0.2-5.8,8.8-3.6,12.2-4c11.7-0.9,0,594.1,4,598.1C981,1611.8,4,1599.9,0,1604z"/>
			<path d="M960.5,991.5c-52.6-44.8-9.2-134.4-66.6-174.1c-74.3-45.1-56-110.9-162.2-96.8c-15.6-0.3-29.2-10.7-45.3-9.7
				c-4.1,0.2-11,0.1-11.9-1.9c-3.5-8-5.3-16.8-7.4-25.3c-4.1-16.6-13.8-29.7-24.1-42.9c-2.8-3.6-16.3-4.8-6.5-14.2
				c14-10.8,62.1-67.7,38.3-82.1c-31.7-8.8-67.9-2.8-95.3,16.1c-2.1-16.4-16.2-27.8-13-46.1c2.2-11.8,23.2-30.3,34.1-24.8
				c22.6,11.6,64.3,13.4,85.2-0.6c16.9-16.1,11-31.6,0.3-37.8c-44.2-25-74.2,26.9-113.3,37.5c-3,0.7-4.2,1.8-3.9-2.3
				c0.8-11.2-0.1-22.8,2.7-33.4c2-7.6-3.1-17,5.3-23c15.1-9.1,30.4-27.1,47.8-29.9c5.7,0.3,11.1,3.8,16.8,4.9
				c27.7,5,80.1,2.4,75.2-38c-9.7-34.7-63-14-79.7,5c-5.2,5-8.2,13-14,16.6c-16.4,9-33,17.6-47.6,29.6c-1.1-15.4,0.3-31.1,0.2-46.6
				c-1.7-24.9-1.4-24.5,19.8-39.4c15-14.2,20.4-13.3,39.9-12.6c19.2-0.2,65.1-23.7,64.6-44.4c0.1-7.9-6-13.2-12.6-15.3
				c-26.2-9.4-51.5,8.3-67.5,28.6c-5.6,8.2-6.1,19.2-15.1,25.3c-9.5,6.4-18.7,13.2-28,19.8c-1.3,0.9-3,2.9-3.6,0
				c-9.8-26.6-2.8-51.3-0.5-78.4c2.4-23.5-12.8-92.5-44.1-59.2c-21.5,30.4-8.9,72.7,14,98.2c8.8,10.6,20.4,18.1,20,35.8
				c-0.4,19.4,2.6,39,2.2,58.6c0,1.6,0.5,4.7-2.7,2.4c-14.7-10.8-29.8-20.9-37.3-39c-10.5-26.8-51-78-82.1-53.2
				c-9.8,9.6-8,22-1.9,33.1c15.8,28.9,43.6,39.4,73.2,47.6c6.6,1.8,13.2-2.8,19.4,2.2c8.2,6.5,16.7,12.6,25.5,18.2
				c11.1,5.2,2.8,9.7,3.7,18.5c-1.3,20.1-2.7,40.2-4,60.3c-0.1,1.1,0.3,3.3-1.9,1.6c-11.4-8.8-24.6-14.7-32.8-28.4
				c-11.1-18.6-27.7-33.3-47.6-41.9c-60.3-26.8-59.4,59.3,22.1,67.5c14.1,2.6,27.9-6.2,42.5,3.1c13.3,8.5,19.3,15.6,15.2,31.5
				c-0.7,2.8-1.3,4.1-4.4,1.2c-5.1-5.2-11-9.4-17.5-12.6c-4-2.6-8.4-5.9-13,0.9c-12.5,18.8-21.2,39.8-25.9,61.9
				c-1.1,5.1-2,9.8-9.8,10c-4.1,0.2-8.3-1.1-12.6,0.3c-14.5,4.8-29.8,7.7-43.8,13.7c-7.9,3.4-22,8.3-15.2,20.5
				c11.4,20.5,30.3,33.6,52.6,41.4c2.4,0.8,7,2.3,5.3,6.2c-6.2,13.3-21.3,63.8-1.7,68c28.8,0.7,54.5-14.5,75.5-32.7
				c-4.3,39.2-8.4,78-11.2,117.3c-0.1,1.2-0.5,3.8-1.7,2.6c-7.5-7.8-20.8-2.7-27.3-16.6c-9.7-29.1-69.2-90.5-88.1-38.2
				c0.5,32,34.9,58.5,63.9,59.4c12.8,0.4,25.3-9.5,38.1-0.4c5.7,4,15.1,2.3,13.8,15.3s-13.7,14.2-18.3,22.9
				c-7.8,17-23.3-7.7-50.1,16.6c-1.6,1.5-3.1,1.9-4,0.3c-14.4-23.5-36.5-24.8-60.5-21.3c-6.4,0.9-16.5,3.7-18.6,0.9
				c-6.7-9-13.8-19.6-16.3-29.9c-6.8-27-16.7-51.6-36.1-71.9c-1.3-1.4-2.5-3.1-0.3-5.5c16.9-17.8,31.6-40.1,34.8-64.7
				c0.9-8,7.7-17.6-1.1-26c-6.6-6.3-12.8-1.8-19.5-0.8c-20.4,2.9-39.8,10.8-56.4,23.1c-5,3.7-8.3,2.7-9.5-2.4
				c-2.3-9.6-9.4-16.1-13.7-24.4c-2.1-4-7.2-10.2-6.1-11.4c5-6,10.8-13.6,18.6-14.2c31.3-2.4,59.5-10.8,79.7-36.8
				c8.1-10.5,11.7-23,1.9-33.4c-16.7-16.9-42.3,0.2-56,13.4c-14.8,11.5-24,27-30.8,43.7c-4.1,10.1-14.4,12.5-20,20.3
				c-9.7-6.6-21.8-16.3-18.8-31.6c3.2-16.2-0.2-33.6,6.6-49.5c4.9-11.6,5.9-23.6,6.2-36c-0.2-23.8,2-64.6-27.8-70.1
				c-27.7-0.1-26,40.2-21.8,60.2c4.5,18,12.1,32.8,24.8,45.5c3.9,3.9,7.7,6.8,6.5,13.7c-2.6,15.1-5,30.4-5.6,45.7
				c-0.3,6.2-0.7,10.8-4.4,16c-6.4,9-9.6-0.5-13.6-2c-5.8-2.1-13.7-5.3-15.6-10.1c-49.1-157.3-143.1-58.2-43-3.5
				c18,7.2,38.6,8.7,53.3,22.7c2.4,2.3,11.2,2,6.9,10.1c-9.4,17.8-19.4,35.4-24.4,55.2c-0.9,3.6-0.7,9.2-7.2,10.1
				c-20.3,5.2-39.6,18.8-55.8,31.4c-15.4,14-20,15.7-1.2,30.6c5.2,4.1,12.2,5.7,17.2,9c8.7,8.4,42.7,8.5,35.1,16.2
				c-17.6,40.9,7.8,25.5-41.7,42.3c-43.2,15.9-81,45.7-103.3,86.1c-14,30.9-46,47.7-41,86.3c-3.4,20.5,4.2,20,17.3,33.9
				c32.7,33.4,75.3,70.3,126.4,61.4c11.3-1.3,22.4-2.4,33.4,0.1c34.2,9.3,65.7,37,103,27c5.3-1.9,13.1-6.8,15.7-4.9
				c18.9,14.2,30.9,33.9,38.1,56.1c28.3,58.7,70,30.7,111.9,75.4c14.5,14.5,31.2,18.7,50.5,19.3c44.4-5.9,56.1,42.6,89.9-4.1
				c21.2-31.3,70.2-41.2,79.8-78.5c2.7-15.5,9.8-27.7,21.4-37.3c28.3-24.3,54.1-63.6,35.5-101c-0.9-1.8-0.1-4.5-0.2-6.8
				c9.3-0.3,17.4,6.3,26.4,7.2c48,5.6,98-4.6,138.9-29.3c21.8-11.7,43.2-8.6,63.7-1C956.4,1034.8,979.5,1007.5,960.5,991.5z
				 M617.9,471.5c8-5.1,16.7-9.1,25.1-13.6c15.1-7.5,42-3.3,44.3,12.2c-1.8,10.6-8.9,16-17.9,16.6c-20.4,2.2-43,7.9-62.2-3.7
				C610.7,479,613.6,474.2,617.9,471.5L617.9,471.5z M635,387.6c10.5-17.8,60-43.9,71.6-18.4c0.5,16.3-10.2,20-20.3,23.6
				c-16.4,5.9-32.9,4.3-49.4-0.4C633.7,391.6,632.3,391,635,387.6z M623.5,299.2c12.8-23.2,38.6-35.5,61-29.3
				c9.1,5.6,2.5,12.9-1.6,16c-16.1,11.7-32.3,23.8-54,23.3c-3.2-0.1-7.7,4.1-9.3,0.6C618.5,307.4,621.6,302.5,623.5,299.2
				L623.5,299.2z M558.8,294.4c-4.1,10-20.4-21.5-23.2-25c-8.8-13.1-9.4-28-8.3-42.8c0.8-11.2,3.3-22.5,15.5-27.9
				c4.4-1.9,5.9-0.1,10.5,10.5C566.9,237.8,561.5,267.8,558.8,294.4L558.8,294.4z M520.8,372.9c-25.1-4.7-93-37.3-68.7-68.6
				c2.5-1.2,5.7-1.1,4.5-0.9c29.2-1,41.3,25.8,55.9,44.3C514.2,351.4,532.9,375.5,520.8,372.9L520.8,372.9z M514.5,469.7
				c-26.8,1.2-82.5-15.8-67.2-51.7c1.9-3.5,5.8-3.2,9.5-3.1c16,2.6,29.9,9.6,41.1,21.5C501.6,442.2,535.1,470.5,514.5,469.7
				L514.5,469.7z M491.5,806.9c-56,4.4-85.9-71.7-40.5-57.2c23.4,10.9,35,32.3,48.7,51.9C501.3,803.9,497.7,806.3,491.5,806.9z
				 M280.9,606.8c45.5-80.7,101.9-51.6,51.1-14.1c-15.5,10.8-33.8,17-52.7,17.9C279.8,609.3,280.3,608,280.9,606.8z M173.9,606.8
				c-23.4-7.4-46.9-14.8-57.9-39.9c-3.7-8.5-8.4-17-1.3-26.3c2.1-2.8,4.1-3.9,6.9-3.5c29.7,4.6,42.3,42.6,53.5,67.2
				C175.9,605.9,177,607.8,173.9,606.8L173.9,606.8z M707,725.4c11.8,5.5,25.2,6.4,38.8,4.3c44.6-7.7,73.8,20.5,93.6,56.6
				c6.9,10.1,15.9,18.6,26.5,24.8c67.8,33.7,41.9,91.4,61.5,151.5c3.2,3.8,0.7,5.8-3.3,2.2c-32.1-32.8-72-58.4-108.6-85.2
				c19.8-2.4,27.6-3.3,43.9,12.4c3,5,39.5,23.3,41.6,15.5c4.4-7-31.2-12.3-43-28.8c7.7-0.9,36.5,5.9,37.8-1.6
				c0.2-5.3-4.9-6.1-9.7-6.3c-21.3-0.9-43.1-5.6-63.6-2.2c-27.4,4.5-44.5-13.4-65.9-22.2c-8.6-3.5-17-7.7-25.4-11.6
				c-1.8-0.6-2.2-2.4-0.5-3.3c28.7-14,33.2-15.9,61.6,0.3c17.8,7.6,36.6,4.7,55.1,5c1.2,0,2.5-2.1,3.8-3.2c-9-7.1-30.9-4.9-42.9-6.6
				c-10.4-0.5-18.3-6.8-27.5-10.1c-0.5-0.2-0.8-1.1-1.1-1.6c15.1-2.8,31.7-1.5,47.3-2c5.4,0.1,10.9,4.3,16.3-0.3
				c3.7-3.2,1.2-5-1.8-5.9c-41.6-9.8-85-1-121.7,20.2c-7.7,4.3-14-3.1-21-4.7c-11.2-2.6-21.8-7.8-32.8-11.4c-3-1-3.1-1.9-1.5-3.9
				c6.7-8.2,13.6-16.3,20.2-24.7c2.7-3.4,5.5-1.8,8.6-1.6c24,1.8,45.6-6.7,67.3-15.1c10.8-3.7,1.7-10.2-5.7-6.1
				c-19.1,6.4-38.5,13.4-59,12.9c7.9-7.4,15.5-14.5,23.1-21.7c1.8-1.7,4.5-3.7,1.8-6.1c-6-6.1-48.8,37.8-54.8,44.5
				c-19.2,35.6-36.8,7-63.3,15.2C599.7,748.7,653.3,705.2,707,725.4z M489.5,711c-4.5,0.4-11,5.7-14.1,5.3s-3.2-4.5-2.2-10.5
				c1-19.2,2.3-38.6,13.5-55.8c2-3.1,0-6.4-4.7-7.1c-24.8-3.7-42.5-18.3-57.4-37.3c-3.1-4,1.5-3.7,2.5-4.2
				c19.4-8.3,40.4-19,61.8-18.1c15.6,3.8,14-8.9,16.1-17c2-7.3,19.6-72.3,29.3-56.5c13,11.1,23.1,24.6,31.2,39.6
				c4.5,5.4,3.5,18.2,9.4,21.2c2.2,0.7,5-0.5,7.4-2.2c24.8-15.1,58.3-24.2,86.5-16.5c7,2.7,1.4,11.6-0.9,16.9
				c-9.7,25.3-29.6,42.4-48.9,59.8c-0.4,1.6,0.3,3.3,2.6,5c24.3,16.8,36.9,43.3,41.9,71.7c0.8,3-2.1,2.4-4.3,2.2
				c-36.6-3.4-70.8-20-98.5-43.6c-2.7-2.9-7.3-2.1-9.3,1.6C537.5,690.1,515.4,703.1,489.5,711z M550.5,757.3
				c3.8-27.4,3.7-55.5,7.4-82.7c20.1,11.4,37.5,28,60.4,34c8.8,2.6,17.2,7.8,27.3,6.7c-9,6.1-19.1,9.6-25.5,17.9
				c-11.6,14.8-24.4,30-26.4,49c-1.4,12.7-5.3,26.2-0.7,39.3c5.1,8.1-29.4-1.5-48.1,9.9C545.4,806.6,547.3,781.8,550.5,757.3
				L550.5,757.3z M225.3,540.3c-18.4-21.5-26.7-45.6-20.6-74.2c1.8-8.4,4.4-13.9,13.2-12.8c10.8,1.3,12.4,11.8,14.6,19.4
				c5.1,16.8,3.9,56.6-3.4,70C227.8,541.9,226.2,541.3,225.3,540.3L225.3,540.3z M117,755.8c-1.1-0.6-2.2-1-3.4-1.3
				c12.4-13,28.2-21.8,42.1-33c4.6-3.7,11-5.6,16.9-6.8c14.1-2.9,16.7-13.7,20.5-25.3c1.3-6.7,31.5-75,37.2-66
				c18.4,17.7,33.6,38.5,44.8,61.5c3.7,6.2,6.6,4.1,12,0.3c9.4-6.6,20.1-11.4,30.6-16.4c11.9-5.6,24.6-7.1,36.7-11.2
				c4.5-1.5,2.5,3.6,2.2,5c-4.5,28.6-15.8,56.7-37.3,76.8c-3.8,3.8-3.7,7.7,0,11.4c15.5,15.9,24.1,35.7,34.5,58.2
				c-32.1-30.6-69.4-45.8-111.3-31c-20,7.2-32.9,24-51.1,33.1c-3.4,0.9-23.4,13.4-20.3,4.4C194.2,752.4,182.7,799.4,117,755.8z
				 M268.9,1119c-45.3,14-79.1-28-122.7-28.2c-78.3,11.4-96.9-20.6-152.3-66c-3.9-3.3-2.9-8.2-3.3-13.1c-2-24.9,8.7-43.4,23.5-61.6
				c17.7-21.9,31.1-47.3,52.9-66c19.1-16.5,39.6-30.4,63.6-39.4s50.3-13,72.2-27.7c11.4-7.7,21.9-16.9,33.6-24
				c49.3-27.5,112.6,10.7,134,57.2c0.5,6-7.1,5-10.7,6.3c-26.9,8.2-44.3,28.5-63.9,46.3c-0.2-1.1-0.9-2.2-0.6-3.2
				c2.8-11.5,6.1-22.9,8.6-34.4c3.2-14.7,5.8-29.5,8.4-44.3c0.2-1.1-1.8-2.5-2.7-3.8c-8.4,4.7-7.3,19.8-10.4,28.4
				c-3,13.6-6,27.2-9.1,40.7c-0.4,0.5-0.9,0.7-1.5,0.7c-13-26.9-30.2-50.1-55.6-66.6c-2.1-1.4-4.7-2.4-6.2-0.1
				c-1.3,2,0.2,4.3,2.3,5.7c16.9,11.7,26.4,29.8,41.2,46L220.5,856c-5.5-0.4-21.1-10-23.5-3.3c-5,6.8,63.1,26.8,70.5,28
				c16.4,3.3,14,19.2,21.4,28.4c-15.2,8.3-34,7.8-50.8,11.8c-7.8,1.3-11.4-6.2-17.1-9.4c-19.2-11-38-22.7-57.3-33.5
				c-8.1-4.5-17-7.7-25.9-10.6c-2.9-1-8.6-2.6-9.4,2c-0.9,5,5,6.1,8.7,7.7c12.6,5.5,25.7,10,40.4,22c-25.1,0-45.9,0-66.7,0
				c-1.8,0-4-0.5-4,2.4c-0.9,8.7,60.9,7.3,67.5,3.2c14.3-4.3,22.1,3.5,32.1,8.9c3,1.6,5.8,3.7,8.9,5.1s7.2,1.6,7.4,5.7
				c0,0.8-5.5,2-8.6,2.8c-17,3.9-33.2,10.1-49.3,16.5c-10.8,4.3-22.8,11.5-32.9,9.7c-29-3-56.6-17.3-86.3-14.7c-1.9,0-5.3,3-5.4,4.9
				c-0.3,3.2,3.2,1.4,5.1,1.8c8.5,2.3,18.6,1.3,26.2,5.7c-9.5,7.4-21.6,11.6-33.4,14.7c-3.3,0.7-10.5,2.7-8.1,7.6
				c2.5,5.2,8.5,0,12.5-0.7c15-2.8,28.3-10.5,41.6-17.7c7.2-3.9,13.5,0.4,19.7,1.7c4.5,1,13.8,0.8,13,1.9c-4,6.4-12.2,7.5-18.7,10.8
				c-21.3,13.3-83.3,36-78.3,65.8c1.5,1.4,5.3,0.3,12.5-4.3c39.1-21.7,79.8-37.8,122.6-51.2c-7.2,12.7-14,25.1-21.4,37.3
				c-6,10-18,10-27.2,13.9c-15.2,6.4-26.3,17-36.9,28.8c-1,13.2,43.3-27.4,53.1-25.8c-6.6,10.6-14.6,20.3-21.5,30.6
				c-0.8,1.2-4.1,3.2-0.9,4.7c10.9,4.8,31.8-34.2,38.8-42.4c45.4-68.7,4.4-42.8,90.5-66.4c-5.9,16.4-9.3,36-18.9,50.5
				c-5.2,6.3-13.9,9.6-20.8,14.5c-13.3,9.4-25,20.8-34.7,33.8c-0.7,0.9-0.2,2.6-0.3,3.9c1.4,0,3.3,0.5,4.1-0.3
				c14.9-12.4,28.6-27.5,45.5-37.1c-6.4,14.3-14.2,28-20.9,42.3c-1.1,2.3-1.4,5.4,1.7,7c8.6,7.6,55.6-101.2,53.7-111.6
				c1.4-7.8,7.6-4,10.8-5.1c7.9-2.5,16.3-3.3,24.5-2.4c6.8,0.7,2,7.5,1.5,10.2c-4,19.4-10.6,37.9-17.5,56.5
				c-11.6,29.8-9.5,69.2,13.5,93.4C272.7,1117.1,271,1118.4,268.9,1119z M284.9,922.7c-0.7,16.3-7.5,22.5-23.1,24.3
				c-27.5,3.2-54.8,8.4-81.7,15.4c-52.4,13.7-103.1,33.4-150.9,58.8c-0.5-2.6,1.4-3.3,3.2-4.3C85,982.7,142.1,958.1,202,939.7
				c24.4-7.9,50.4-11.6,75.4-18.2C279.9,921,283.4,919.4,284.9,922.7z M529.4,1276.6c-3.3-1.7-7.3-2.2-10-4.4
				c-21.8-15-50.6,0.2-72.5-15.4c-10.9-7.3-21.2-15.4-31-24.1c-22-21.8-59.3-12.7-78.4-37.3c-8.9-11.2-13.9-25-19.5-38.4
				c-30.3-59.5-80.4-49.8-45.2-142.3c18.6-36.5,8-82.8,39.7-113.3c16.5-15.7,33.8-30.7,56.4-36.5c34-8.1,86-18.3,94.1,30.8
				c1.1,7.3,8.3,17.5-3.9,16.7c-10.7,0.7-18.5,7.8-28,11c-6.2,2.1-11.6-2.1-17.3-2.2c-16.5,1.8-82.8-7.1-86.7,9.1
				c15.5,3.9,31.3-1,47-1.1c12.2-0.5,24.5-0.2,36.7,0c1.4,0,3.8-1.3,3.9,1.4c0,1.1-1.5,2.7-2.7,3.3c-36.4,21.8-72.6,46.6-97.8,81.1
				c-2.4,4.1-8.2,4.1-9.9,9.4c-0.8,2.4-2.1,4.4-1.2,7c2.5-1,5.6-1.3,7.4-3.1c14.5-12.6,25-28.5,41.8-38.2
				c-7,16.6-13.4,32.3-20.1,47.9c-1.1,2.6-2.7,5.4,0,6.8c11.4,2,26.9-53,33.1-63.4c4.6-10.3,16.2-15,24.8-21.8
				c22.9-17.3,49.9-29.1,76.2-40.6c2.9-1.3,1.4,1.4,1.6,2.1c4.4,23.8,7.9,47.9,13.3,71.5c3.4,14.7-9.9,13.4-15.5,17.2
				c-33.8,21.1-68,44-92.1,76.2c-6.8,8.5-13.8,17.8-16.3,29.2c-2.2,4.7,4.9,6,7,2.5c14.4-23.2,33-43.8,53.4-61.8
				c-3.6,30-16.9,58.3-28.5,86.1c-0.6,1.4-1.6,4.4,1.2,5.1c14.8,3.7,41-84.8,39.1-98.5c0.2-4.6,3.8-6.1,7-8.2
				c15.9-10.4,31.7-20.9,48.7-32.1c5.4,28.8,9.8,56.7,16.1,84.2c1.8,7.9-2.7,9.4-6.1,13.2c-27.2,28.5-55,57.4-70.4,94.6
				c-1.5,3.5-4.1,8.7-0.6,10.5c5.1,2.6,6.7-4,8.6-7.1c9.5-15.3,18.5-30.9,29.9-50c-3.6,22.6-0.9,41.3-5.6,59.5
				c-0.6,2.3-2.2,7.9,2.1,7.8c6.2-0.2,6.8-7.3,7.4-11.4c2.2-14.7,6.8-30.5,3.4-44.1c-4.6-18.7,8.5-25.8,16.5-36.6
				c5.1-7,11.5-13,17.5-19.5c11.1,53.4,17,106.4,26.8,159.7C532.5,1278.2,532.4,1278.1,529.4,1276.6z M536.8,1234.8
				c-11.6-47.5-15.3-96.8-25.8-144.7c-14.6-70.5-26.6-141.8-44.1-211.5c3.9-9.3,23.7-13.8,33.9-12.5c22.5,3,24.7,138.1,24.5,161.3
				c-0.2,7.7,4.3,15.8,3.2,23.2c-1.5,9.6-0.2,18.6,0.6,27.8c3.9,47.8,10.3,95.6,8.1,143.6C539.1,1226.4,540.8,1230.7,536.8,1234.8
				L536.8,1234.8z M695.7,1029.3c-2.2,12-1.1,24.4,3.1,35.9c12.4,36.9-21,68.6-45.3,92c-9.1,8.4-12,19.8-14.2,31
				c-9,31.5-45,41.4-66.4,62.7c-9.5,8.6-16.3,20.2-26,32.7c3-61.5-0.2-119.9-5.4-179c10.3,6.3,20.6,11.9,30,18.7
				c7.3,5.3,4.4,15,7.4,22.4c6.1,14.9,11,30.5,22.3,42.6c3.9,7,9.3-0.1,4.9-5.1c-10.8-14.9-16.6-32.5-21.4-49.8
				c13.3,8.4,25.4,18.9,37.9,28.5c3,2.4,4.3,0.5,5.6-0.8c6.6-3.9-20.3-22.3-23.7-26.5c-18.7-15.8-39.3-29.4-61.3-40.2
				c-8.7-4.3-3.8-14.8-4.6-22.1c-2.4-26.5-3.6-52.5-3.6-79.2c20.9,8.6,39.6,19.8,57.5,32c7.3,5,6.7,15.1,10,22.7
				c9.2,21.5,21.7,41.5,37,59.1c2.3,2.6,4,8.6,8,5.2c3.7-3.2-0.9-7.4-3.2-10.7c-15.8-19.9-27-42.2-36.9-65.6
				c21.6,12.1,39.9,30,58,46.9c0.9,0.9,3.4,0.2,5.2,0.2c3.5-20-110.2-94.8-131.8-98.1c-4.5-1-5.5-5.2-5.8-9.7
				c-1.4-19.8-1.5-39.7-5.8-59.2c-0.8-3.6-1.8-6.6,5.4-5.2c10.2,2,20.8,2.9,31.1,3.8c13.5,1.1,16.6,10.4,21,18.7
				c5.4,10.3,43.8,38.7,54.2,37.8c-15-19.3-41.5-27.4-51.6-51.3c18.3,2,36.6,10.2,54.1,16.9c2.2,1,5.8,3.6,7.4-0.4
				c1.4-3.4-0.6-5.7-4.3-7.3c-29.2-13.8-59.5-20.4-91-26.8c16.3-7.7,32.4-15.3,48.5-22.9c2.8-1.3,8.1-1.3,6.6-5.7
				c-1.5-4.6-7.5-3.4-10.1-2.1c-19.3,9.5-39.5,16.7-57.8,28.4c-6.6,4.9-18.8,2.2-18.8-9.5c-0.7-10.2-9.3-21.1-0.4-30.6
				c22.9-26.1,68.1-34.6,97.2-13.8c7.5,5.3,9.3,14.3,10.9,23.3c8.5,47.8,68.4,56.6,76,105.6C710.1,995.2,699,1011.2,695.7,1029.3
				L695.7,1029.3z M685.9,913.4c-0.1,3.7,1.8,7.4,2.8,11.6c-19.5-16.6-44.7-28.2-49.3-55.5c-1.7-6.4-2.3-13-5.3-19.1
				c-0.9-1.9-2-4.1,1.3-3.2c14.3,3.8,29.2,6.5,42.5,12.5c6.6,3,3.7,14,3.5,20.8C680.9,892,686.2,902.2,685.9,913.4L685.9,913.4z
				 M904.5,1007.1c-24.6-1.8-44.4,12-64.9,22.4c-26.7,11.8-56,16.8-85,16.8c-12.6-1-25.8-0.2-37.2-7.2c-14.5,2.3-13-6.1-9.7-15
				c12-24.4,13.5-53.6-1.7-77.3c-1.8-2.6-2-6.3-3.3-10.5c14.4,13.3,27.3,26,36.2,42.3c1.5,2.7,3.8,4.1,6.4,2.9
				c3.7-1.6,0.5-3.6-0.3-5.5c-5.9-15.9-18.1-26.9-28.5-39.6c-5.8-7.2-17.2-7-19.3-15.7c-3.1-14.2-5.3-28.6-6.3-43
				c-1-4.7-4.5-12.4-0.9-13.6c4.4-1.5,11,2.2,16.2,4.5c17.1,7.4,34,15.1,50.9,22.8c1.2,0.7,2.1,1.9,2.2,3.3
				c-1.8,20.6,7.4,39,12.2,58.1c4.7,18.6,11.2,36.7,17.5,54.9c2,4.2,7.7,18.2,12.9,17.1c4.4-6.1-12-37.3-14.6-48.2
				c14.9,7.3,23.7,18,31.8,29.6c0.6,0.9,1.2,4,3.9,2.3c2.3-1.4,3-4.4,1.7-6.7c-9.3-15.2-18.5-30.3-37.8-35.2
				c-2.5-0.6-3.8-7.1-4.9-11.1c-4.6-20.1-12.1-40-14.7-60.2c15.6,8.8,31.6,16.3,45.7,26.4c5.5,3.9,7.4,13.5,9.7,20.9
				c5.5,18.2,15.5,34.2,26.1,49.5c0.7,5.3,6,6.9,8.5,5.7c4.9-2.4,0-6.1-1.4-8.3c-11.5-18.5-20.9-38.3-28-59
				c39,22.9,75,50.9,108.6,82.4C925.7,1010.7,915.2,1007.9,904.5,1007.1L904.5,1007.1z M954.3,1008.4c-3.7,7.5-49.4-38.1-58.6-42.6
				c-16.3-12.3-33.8-23-50.2-35.3c-67-45.2-142.3-79.8-222.1-94.6c-8-1.5-23.4-4-22.3-19.8c-0.4-2.8-0.2-4.5,3.5-4.2
				c55.8,3.7,108.4,25,157.9,50.1c61.3,31.2,114.8,74.7,167.1,119C932.9,984.3,959.2,1007.2,954.3,1008.4L954.3,1008.4z
				 M553.8,634.3c-14.4,3.3-28.4,6.3-41.5,13.2c-1.7,0.9-3.8,0.2-4.7-1.6c-0.1-0.2-0.2-0.4-0.2-0.6c-1.2-3.8,1.9-6.2,4.4-7.9
				c3.1-2.1,7.8-2.3,10.3-4.8c5.8-5.7-2.8-8.1-4.5-11.5c-3.8-7.4-7.2-15.1-10.3-22.9c-3.8-7.5,5.1-10.6,7.9-2.5
				c3.7,10.1,9.2,19.2,15.5,27.9c3,4.2,6.8,4,10.3,2.9c5-1.6,0-4.2-0.3-6.1c-0.1-10.1-18.2-71.2-9.5-71.4c6.4-1.4,5,5.3,6,9.7
				c4.6,19.7,11.4,39,12,59.5c0.3,3,2.8,7.4,3.7,6.5c3.5-3.7,11.9,2.7,12-6.1c1-4.3-3.6-40.4,8.3-37.3c4.3,2.5,2.5,7.9,1.4,11.1
				c-3.1,8.9-0.7,17.8-1.5,26.6c-0.3,2.7,2.1,1.9,3.6,2c6.9,2,31.4-1.5,31.2,7.4c-0.3,2.1-3.2,4.1-7.4,4.1
				C585,632.1,569.7,630.7,553.8,634.3z M195.3,769.7c0.1-9,21.9-2.5,10.5-21.1c-5.3-8.4-7.3-18.5-8.7-28.5
				c-1.4-5.7,7.1-7.3,8.2-1.4c4.5,12.2,9.4,24.3,14.2,36.3c0.3,0.8,2.6,1.8,3,1.5c4.4-3.4,15.4-2.8,13.7-8c-3-9.4-3.4-19.3-6.6-28.7
				c-3.3-9.8-3.2-20.7-4.6-31.1c-0.5-3.8,2.3-6.4,4.7-7.3c2.1-0.8,3.2,2.6,3.7,5c4.9,19.5,6.6,41.1,14.4,59.5
				c2.6,4.4,9.1-0.4,13.6-1.5c3.5-0.9,1.8-5.4,1.1-8.1c-2.5-9.7-1-19.5-1.3-29.3c0-1.5,2.5-4.5,3.6-4.4c5.6,0.7,5.2,6.3,6.1,9.9
				c1.4,5.2,1.1,10.8,1.8,16.2c0.9,6.8-2.8,16.4,11.2,14.6c3.8-0.5,5.8,6.2-1.6,7.8c-25.5,4.4-50.2,10.8-73.9,21.2
				C205.3,772.8,197,775.8,195.3,769.7z"/>
		</g>
	</g>
</g>
<g>
	<g id="Layer_1_2_">
		<g transform="matrix( 1, 0, 0, 1, 0,0) ">
			<g>
				<g id="Layer0_0_FILL_1_">
					<path d="M52,1548v15l-37,37h946l-37-37v-15H52 M52,52V37.7L14.3,0H0v1600h15l37-37v-15V52 M924,52V37.7L961.7,0H14.3L52,37.7
						V52H924 M976,0h-14.3L924,37.7V52v1496v15l37,37h15V0z"/>
				</g>
			</g>
			<g>
				<path id="Layer0_0_1_STROKES_1_" class="st5" d="M961,1600h15V0h-14.3L924,37.7V52v1496v15L961,1600H15H0V0h14.3h947.4 M52,52
					V37.7L14.3,0 M15,1600l37-37v-15V52h872 M924,1548H52"/>
			</g>
		</g>
	</g>
</g>
</svg>
