<svg xmlns="http://www.w3.org/2000/svg" xmlns:xlink="http://www.w3.org/1999/xlink" viewBox="0 0 976 1600">
<style type="text/css">
	.st0{fill:#FFFFFF;}
	.st1{clip-path:url(#SVGID_2_);}
	.st2{fill:#FFEB5C;}
	.st3{fill:#333333;}
	.st4{fill:#D81E1E;}
	.st5{fill:none;stroke:#333333;stroke-width:2;stroke-linecap:square;stroke-miterlimit:3;}
</style>
<g id="Paper_Backing">
	<path class="st0" d="M960,22v1556c0,3.3-2.7,6-6,6H22c-3.3,0-6-2.7-6-6V22c0-3.3,2.7-6,6-6h932C957.3,16,960,18.7,960,22z"/>
</g>
<g id="Wikipedia_Cropped">
	<g>
		<defs>
			<path id="SVGID_1_" d="M960,22v1556c0,3.3-2.7,6-6,6H22c-3.3,0-6-2.7-6-6V22c0-3.3,2.7-6,6-6h932C957.3,16,960,18.7,960,22z"/>
		</defs>
		<clipPath id="SVGID_2_">
			<use xlink:href="#SVGID_1_"  style="overflow:visible;"/>
		</clipPath>
		<g class="st1">
			<path class="st2" d="M226.5,1109.3c-11-1.3-15.3-10-25.9-7.1c-14.1-3.8-25.5-0.3-39,4c-17.5-1.5-4.2-25.7-0.9-36.4
				c7.2-22.5,30.8-33.3,51-40.5c29.5-8.6,66,5.6,76.6,34.5c-0.6,9.5-17.9,3.6-22.9,8.9c-4.8,8.3-16.4,5.3-20.3,12.9
				C237.6,1105.2,242.6,1097.8,226.5,1109.3z M727.2,806.2c-6.7-0.2-9.3-8.5-15.6-9c-9.2,0.9-19.2,2.2-27.7-0.4
				c-14,6.4-10.8,10.2-27.3,3.4c-4.8-6.5-10.7-13.5-10-21.6c-1.9-8.1-17.8-10.4-19.3-19.3c-6.1-7.7-32.3-2.7-27-19.1
				c20.4-21.7,59-29,88.2-18c19.3,8,43.4,19.6,47.6,42.3C739.3,776.8,747.2,801.9,727.2,806.2z M431.6,321.1
				c-16.4-1.1-30.8-1.7-46.9-3.3c-13.7-1.7-28.4,2-41-2.2c-8.3-3.2-18.9,2.4-27.6-1.8c-9.2,3-21,2.5-28.8-4.5
				c5.6-28,46.7-50.9,76.1-51.2c15.4,0.1,30.8,2.4,44.7,9.1C425,275.1,470.9,318.8,431.6,321.1z"/>
			<path class="st3" d="M309.3,1604c-28.5,0.9-188.9-0.7-221,0c-17.2-2.9,47.8-44.6,51.2-54.7c21.9-17.1,37.1-44.9,63.4-54.6
				c22.4,4.7,48.1-11.5,56.9-33.4c-0.5-31.7,28.9-47.4,47.4-71.5c28.1-23.9-2.7-54.5-26.7-71.4c-16.3-2-31.4-6.7-15-25.6
				c12.3-6.6,1.8-41.5,13.3-38.3c46.5,27.8,95.8,65.7,145.4,22.6c12.5-6.4,25-36.3,39.3-27.3c12.3,13.5,21.2,41.7,42.8,39
				c20.6-5.4,43-6.1,63.1-4.3c18-10.9,40-6.2,59.8-9.4c12,4.8-9.7,18.6-11.9,24.5c-56,71.8-129.3,131.9-179.7,205.9
				c-22,35.3-56.6,66.8-78.8,98.7L309.3,1604z M183.9,1234.1c-12.1-6.3-62.9-76.8-40.3-82.8h-0.1c64.6,22.2,29.5,22.9,74.9,58.6
				c5.6,8.4-12.5,11.1-18.1,12.7C192.6,1222.8,191.5,1233.8,183.9,1234.1z M711.8,1205.1c-16.9-10.3-22.1-36.4-34.7-52.6
				c-14.9-21.2-24.4-43.1-38.3-65.9c-31-33,21.1-55.3-11.3-83.3c-12-13-28.7-19.8-42.1-31.5c-25.9-36.9-39.8-87.3-48.6-131.3
				c21.8-3.6,43.6,33.8,63.3,5.1c14.1-0.3,30.6-2.8,43.7-7.9c16.8-1.9,9.7,37.6,7.9,49.7c3.9,33,70.7,85.6,105.2,88.2
				c42.1,11.3,90.6-29.2,125.3,8.8c35.7,48.9,21.8,52.5-17.6,86.6c-19.4,12.1-41.1,51.4-64.4,45.4c-17.6,11.2-24.4,34.9-41.5,46.8
				c-6.7-3.3-10.3,2.3-12.3,7.9C729.8,1175,730.8,1202.2,711.8,1205.1L711.8,1205.1z M224.1,633.7c-23.8-17.7-41.8-41.2-60.4-54.4
				c-13.6-14.5-36.1-25.7-40.9-44.7c-10.1-5.7-19.2-6.7-25.5-22.7c-20.3-45.5,43.9-70.5,30.7-112.2c-20.5-49.8,13.2-75.1,42.5-110.9
				c11.9-5.3,14.1,18.7,25.7,19.9c7.9,3.1,7.5,7,7.4,9.1c-3,50.3,6.6,99.8,8.9,149.7c1.8,39.3,9,79,11.4,117.8
				C222.4,596.8,235.7,624.6,224.1,633.7z M479.5,566.1c-9.1-15.8-3.1-44.7-9.8-64.7c-3.7-26.3,10.9-40,23.5-57.5
				c26.6-33.7,48.3-72.3,77.4-104c4-4.2-1.5-7.6-1.8-11.7c8.3-20.8,22.1-40,33.4-59.9c14.5-16.4,12.4-54.7,36.1-66.5
				c16.5-4.3,20.3,18.1,16.3,30.7c-10.5,33-30.3,59.8-45.2,90.3c-26.4,43.9-30.5,95.3-63.7,134.8c-3.3,5.6-11.6,1.7-13.7,8.1
				C518,500.5,502.4,537.6,479.5,566.1L479.5,566.1z M281.9,238.5c-13.8-10.8-29.8-13.6-42.8-21.6c-7,1.4-14,4.1-20.3-1.3
				c8.3-37.9,47.1-69.6,61.4-108C291.6,66,330.3,29.8,330.4,0c-2.7-9.2,77.6-1.6,80.3-4c5.6-0.1,5.5,11.4,1.3,13.1
				c-33.4,43-46.3,93.3-78.1,140.3c-26.5,50.9-45.1,12-48,85.1C285.9,236.7,284.1,238.5,281.9,238.5
				C281.9,238.5,281.9,238.5,281.9,238.5z"/>
			<path class="st4" d="M216.6,1493.3c-76.3,6.2-87.1-97.9-11-108.2C272.2,1386.7,284.2,1480.2,216.6,1493.3z M220.5,1313
				c-37.8,0.6-58.8-50.9-33-77.6c1.6-21.3,60.7-9.4,38.8-31.1c-14.8-13.1-5.7-30.3-8-45.1c-16.1-2.8-34.1,8-51,0.7
				c-42.4-6.7-6.5-33.2-57.9-21.1c-85.6-0.8-90.6-81.1-22.1-115.6c-1.7-75.1,11.2-80.6,73.6-109.7c-14.7-15.3-37-18.3-36-50.1
				c0.7-40.5,51.1-56.5,78.8-27.4c39.3,53.1-41,71.8-16.5,81.4c18.9,1.8,33.3,8.8,41.5,20.7c5.8,10.2,13.6,3.8,21.6-1.2
				c13.4-15.1,55.8,0,54.3-15.3c-17.9-59.3-34.4-123.9-49.5-182c-32-130.9-36.8-266.6-52.5-399.3l0.1,0.8c0.5-46.7-3.7-18.2-22-48.9
				c-36.9-64.3,53-92.8,96.1-55.3c16.7,6.1,5.1-48.6,47.1-63.7c51.9-23.4,106.4,1.4,129,47.8c40-22.7,115.9,9.6,105.5,59.8
				c-8.1,46.2-57.5,65.2-99,68.9c-4.7,36,3.8,76,3.6,113.5c2.8,75,17,151,31.2,224.2c8.9,19.7,22.8-31.8,43.3-32.9
				c24.2-12.3,46.8-1.3,70.7,3.2c12.1-65,114.8-97.1,151-37.5c8.2,14.8,17.5,34.8,15.7,58.2c-0.6,3.3,1.7,6.5,5,7
				c0.2,0,0.4,0.1,0.5,0.1c18.8,0.4,38.9,11,51.7,22.6c65.3,57.9,18.4,153.7-65.1,136.3c-23.6-6.6-16.4,11.6-29.6,24.4
				c-26.5,26.9-81.5,5.8-86.3-28.4c-7.1-14.1-19.1,8.3-33.4,5c-34.7,4.7-76.9-42.3-67.7-72.9c1.4-3,0.1-6.6-2.9-8
				c-0.8-0.4-1.6-0.6-2.5-0.6c-26.6-9.8-47.4-53.2-32.9,8.4c15,52.6,25.8,108.2,46.9,157.7c29.2,79.3,70.1,153.6,113.5,225.9
				c3.5,17.7,81.6,109.3,51.3,107c-73.3,3.2-145.1,13.4-217.5,20.7c-34.1-2.4-50.3-69.8-77.9-87.6c-12.2,2.4-1.3,16.9-3.2,25.8
				c-1.1,42.8-60.4,66.9-88.6,32.8c-34.3-27.2-11-89,36-87.6c5.1-1.4,8.1,2.9,12.5,3.6c5.8-2.4,11.7-0.1,15.8,4.1
				c10.1,11.8,26.9,11.5,14.9-6.4c-20.1-33.9-41.5-72.3-56-106.5c-7.6-11.6-22.3,15-30.4,19.7c17.8,30-12.8,49.9-42.7,57.1
				c-14.5,8.6,17.9,24.1,11,44.3c-0.9,18.1-20.1,36-38.8,36.1c-11.1,1.6-3.7,12.4,2,16.3c1.3,1.3,2.8,2.9,2.6,5.3
				c0.4,6.6,7.8,7.4,7.5,15.6c3.8,21.4-5.1,46.4-32.6,55.1C230.9,1306.3,227.3,1311.5,220.5,1313L220.5,1313z M187.9,1102
				c13.5-5.9,45.3,22.6,49.6,6.9c-1.4-42.1,76.4-23.4,26.6-64.3c-31.5-21.2-78.6-6.9-95.9,26.3
				C156.9,1099.4,154.4,1108.8,187.9,1102L187.9,1102z M633.1,727.6c-67.3,32,18,22.8,21.9,76.9c5.4,14.7,21.5-9.7,29.2-6.1
				c18.5-2.7,33.3,10.7,46.9,7C746.3,747.3,684.1,714.3,633.1,727.6z M342.1,269c-13.6,3-63.1,37.2-42.4,48
				c47.3,0.5,89.9,4,135.8,4.8c15-4.6-2.5-19.5-7.7-29.6C407.4,267.8,372.4,261.5,342.1,269z M115.7,686.7
				c-62.4,0.3-60.8-98.9,3.9-97.7C182.7,595.4,179.9,685.1,115.7,686.7z M120.9,227.9c-67.5-2.9-67.5-100.2-0.3-103.2
				c36.3-1.2,74.9,51.6,38.7,84.2C149.2,220.6,137.1,229.7,120.9,227.9L120.9,227.9z"/>
			<path d="M948.7,257c7.3-1.5,8.2,3.3,8.5,9.6c0.4,9.2-6.6,12.7-12.8,13.9C928.5,282.7,932.3,253.9,948.7,257z M942.3,1444.4
				c-16.3-0.1-16.6,30.5,1.2,27.4c8.8-0.7,12-6.8,11.6-16.2C956.9,1446.3,949.4,1444,942.3,1444.4L942.3,1444.4z M932.8,1365.7
				c7.4,1,16.5-0.4,14.3-12c2-8.2-1.2-13.3-8.8-14.6C920.5,1333.7,916.2,1363.3,932.8,1365.7L932.8,1365.7z M933.8,1555.2
				c-15.8-4.4-14.5,26.4,5.1,23.6C951.2,1576.8,948.9,1550.6,933.8,1555.2L933.8,1555.2z M924.1,178.9c-1.1,15.2,22.8,18.1,21.6-0.5
				C945.5,166.1,922.9,166,924.1,178.9z M945.2,1200.3c-1.1-6.5-0.7-14.8-11.4-15.3c-13.4-0.6-14,9.5-14.8,18.6
				c-0.9,10.4,7.6,13,14.8,13.1C943,1216.8,945,1209,945.2,1200.3z M934.8,924.5c-0.2-15.4-26.7-14.3-25.5,1.1
				c0.9,6.4,2.2,14.9,12.8,13.5C932.7,940.1,934.9,932.3,934.8,924.5z M915.2,79.1c25.2,4.4,23.5-26.9,6.6-24.8
				C909.5,55,905.1,74.2,915.2,79.1z M902.6,1103.3c4,3.6,0.9,13.2,9.2,13.4c8.9,0.2,17.7-3.6,18.5-14c0.7-9.6-6.2-15.2-15.2-15.5
				C905.8,1086.9,905,1095.4,902.6,1103.3z M913.5,574.5c7.3-0.8,13.1-5,11.4-13.9c1.5-11.4-6.2-12.4-14-11.5
				c-10,1.2-8,9.6-7.9,16.2S908.5,575.1,913.5,574.5L913.5,574.5z M902.5,1261.5c-9-0.5-12.6,6.7-11.5,15.4
				c-1.2,8.5,1.8,13.6,10.8,14.2c13,0.8,13-9.6,14.1-17.6C917,1264.3,907.9,1261.8,902.5,1261.5L902.5,1261.5z M559.2,1374
				c-34.9,39.2-74.3,74.2-104.8,117.2c-27.5,37.6-55.3,75.8-90.7,106.6c-5.3,6.1-10.3-1.9-4.3-6.3c46.3-39.9,75.4-94.3,114.5-140.4
				c52.4-57.3,106.9-110.9,155.3-172.2c-18.4,2.7-37.2-0.3-53.8,6.5c-9.1,4-13.4,15.3-18.6,23.2c-12.5,19.7-23.4,40.8-40.2,57.1
				c-35.5,31.6-73.9,60-98,102.1c-14.9,24.7-21.2,53.9-42,75.8c-19.2,22.1-45.4,34.3-65.8,54.6c-2.5,2.6-6,7.9-9,1.7
				c-1.9-4,3.9-5.6,5.5-8.5c8.5-15.3,24.8-21.7,37.3-32.5c9.9-8.7,18.7-18.2,27.7-27.8c9.8-10.5,15-23.3,20.5-35.9
				c10.3-23.5,23.7-45.6,39.9-65.5c21.8-27,48.9-47.5,74.8-69.9c12.6-10.9,20.2-26.5,29.6-40.4c7.1-11,15.8-20.8,22.8-31.9
				c-62.8-4.5-56.9,30-99.6-35.6c-1.5-2.1-3.4-1.2-5.1,0.4c-18.5,16.7-34,40.7-61.1,43c-6.7,0.4-11.3,7.1-18.4,7.9
				c-11.5,1.4-20.8-4.3-30.2-8.8c-24.7-9.4-45.9-23-68.8-36.7c2.3,13.4-0.1,27.3-8.2,37.4c-17.7,22.2,7.9,15.5,13.2,19.2
				c25.5,20.1,59.5,46,28.4,77.9c-12.3,14.5-25.6,28.2-38.9,41.8c-8,8.2-4.2,19.1-7.8,28.6c-8,20.8-34.6,40.1-57.1,36.3
				c-14.7-2.5-17.5,10.4-25.2,16.8c-33.6,27-59.6,63.5-96.7,86.2c-2.5,2.1-4.6,8.5-8.2,3.5c-1.2-1.7-0.9-3.6,0.1-5.4
				c35.9-29.6,66-65.6,101.6-95.7c2.7-2,4.2-5.5,5.9-7.8c-72.9-45.2-17.3-148,56.9-106.2c6.9,4.4,8.3-3.8,12.6-5.3
				c4.5-1.5,8.1-5.5,12.3-8.3c0.8-0.6,1.5-3.4,3.3-0.8c1.1,1.6,2.5,2.9,0.5,5c-3.3,3.5-5.6,8.1-9.4,10.8c-16.2,11.9,6.7,19,5.2,33.3
				c13.1-12.8,42-39.3,45.5-56c1.7-28.8-36.2-45.6-57-56.9c-1.8-1.2-2.9-1.1-4.3,0.3c-4.2,4.3-15.2,2.1-11.8,14
				c2.1,7.3,4.5,30.8-6.4,31.1c-2.6-0.1-2.4-2.4-2.6-4.5c-0.5-9.8-0.3-19.7-2.3-29.2c-1.3-6-9-4.1-13.6-4.7
				c-19.1-2.4-39.6-25.9-42.6-44.6c-2.1-12.9,3.6-22.5,6-33.6c2-9.5-7.8-15.4-13.1-22.1c-19.6-22-28.6-48.7-33.1-77.4
				c-0.9-3.3-3.6-1.6-5.7-0.7c-54.2,18-119.6-34.2-78.1-90.2c10.8-13.3,23.1-24.3,39.8-29.4c3.1-0.9,1.7-1.6,1-3.3
				c-20.6-49.3,16.9-96.5,66-105.9c-47.4-17.9-41.1-89.4,9.2-96.2c6.4-0.2,12.7-0.5,19.3,0.7c12.6,2.3,8.1-11.3,13.3-16.4
				c3.2-3.2,4.4-8.4,6.8-12.5c3-2.2,4.8,2.3,4.3,4.5c-2.8,8.4-5.2,17.1-9.1,25c-4.7,9.6,5.3,9.8,8.4,12.8
				c24.4,24.3,14.9,66.8-14.6,80.5c42,2,39.3,37.8,62.4,20.2c24.1-17.8,49.1,4.1,41.7-18.5c-11.1-41.5-27.8-82.4-35.1-124.6
				c-2.9-23-18.9-32.4-34.4-44c-24.8-19.5-43.5-45.7-69.4-64.2c-4.6-3.7-7.7,2.8-10.6,4.9c-55.3,32-109.3-45.8-61.9-87
				c40.5-36.3,107.1,10.8,83.5,61.7c-10.3,11.6,0.4,17.3,6.8,22.3c26.8,20.5,45.2,51.9,75,67.9c-5-34.1-17.2-67.1-20-101.8
				c-0.2-2.5-4.8-4.5-7.1-7c-29.6-27.4-59.9-53.7-88.5-82.2c-36.6-27.4-65.5-62.2-30.5-102.5c21.7-28.4,16-62.2,14.3-95
				c-1.9-41.2,55.7-54.5,50-96.3c0.1-10.3,1.9-19.8,9.2-27.6c2.4-2.6-1.6-3.8-8.4-10.2c-12.8-11.9-19.8,2.8-29.1,4.8
				c-23.2,4.8-43.3,1.1-59.2-17.1c-46.6-62.3,38-132.1,88.2-71.5c15.7,19.2,14.9,46.3-0.3,67.7c-1.8,3.1,1.9,4.4,3.7,6.3
				c9.1,10,17.5,7.1,28.9,1.9s13.1-15.6,18.9-23.5c28.1-39.7,53-81.6,72.3-126.2c10.5-19.8,22.6-38.8,36.1-56.7
				c1.7-2.3,6.8-5.2,7.4-5.2c3.8,4.3-0.1,8.5-2.2,11.5c-31.3,40.3-43.2,91.3-72.6,132.3c-12.9,19.5-25.1,39.4-37.6,59.1
				c-0.4,0.7-0.6,2.1-0.2,2.5c26.7,13.1,37.1-39.9,47.9-56.1c0.6-1.2,1-3.5,3-2c1.7,21.6-12.2,42.9-23.3,61.1
				c-0.4,0.6-3.3,2.4,0.1,3.1c12.1,2.9,23.6,7.1,32.5,15.6c1.7-43,21.8-83.7,35.3-124c11.6-29.3,26.6-57.2,35.9-87.4
				c0.8-2,0.4-7,4.7-5.8c4.6,1.2,3.8,5.9,2.9,8.9c-17,52.2-41.6,100.1-58.8,152.9c15.3-6.7,20.9-20.3,28.6-31.8
				c31-44.3,45.2-101.6,80.1-141.9c7.7,1.8,3.5,4.8,0.7,8.3c-27.3,49-47.7,101.8-77.9,148.9c41.9-12,95.9-2,115.4,40.8
				c6.1,12.9,14.4,9.7,25.1,7.3c30.9-8.4,65.6,8.9,84.3,34.2c9,13.1,7.8,42.2,0.4,56.6c-16.6,30.6-50,50.6-84,51.1
				c-14-0.8-12,7.5-11.2,14.8c5.1,32.3,3.7,63.9,8.3,96.4c23-35.6,51.2-65.9,71.8-102.7c26.7-49.9,56.8-98,79.6-149.9
				c14.7-32.1,41.5-9.6,37.5,18.4c-4.8,22.8-17.8,41.8-27.7,62.1c-17.1,30.8-33.9,61.8-46,95c-8.8,26-17.1,52.3-36,73.7
				c-27.2,34.2-48.7,74.2-66.9,113.8c-3.3,8.7,1.4,20.5,3.2,30.8c4.8,25.3,8.2,51.1,14.7,76c18-36.8,66.1-47.2,100.6-27.7
				c3.2,1.5,4.3,1.8,6.3-7.8c5.9-27.7,25.2-43.2,49.1-53.8c42.8-20.4,97.5-6.8,113.6,41.1c16.6,38.2-3.7,54.8,21.9,51.7
				c116.4,30.3,88.8,195.1-35.7,161.4c-2.1-0.7-4-2.2-4.4,1.8c-6.6,44.8-61,45-91.1,21.7c-17.2,38.8,29.9,58.3,51.3,82.8
				c8.6,9,17.9,15.7,32.7,15.8s29.6,3.3,44.7,3c32.9-4.3,34.8-16,72.3-5c28,5.8,32.4,33.8,45.9,53.9c6.3,14.6-4.3,22.8-13.1,30.9
				c-38.5,35.3-78.3,69.2-117,104.2c-20.3,18.4-40.2,37.4-60.2,56.1c-1.7,1.6-1.6,2.4-0.3,4.4c7.2,12.2,13.8,24.7,20.9,36.9
				c5.9,10.2-1.9,15.3-8.5,16.3c-18,2.7-36.6,2.2-54.6,4.9c-10.7,1.6-23.1-1.9-31.8,5.7c-20.8,18.4-35.5,42.5-55,62.2
				C578.6,1351.5,568.6,1362.5,559.2,1374z M124.8,185.1c18.2,2.6-7.1-16.1,0.8-49.5c1.6-9.8-3.5-5.8-10.5-7.4
				c-22.1,3.5-47.3,31.6-41.6,55.5c0.6,2.3,0.2,8.8,3.9,7.1C92.7,183.8,108.6,184,124.8,185.1z M139.1,199.6
				c-9.9-3.2-20.4-6.2-29.7-4.6c-10.6,0.3-20-1.8-27.9,4.9c9.2,19.5,31,27.1,51.3,22.8C149.4,219.4,157.7,210.7,139.1,199.6z
				 M160.9,202.9c20.2-26.1,0.7-62.1-23-71.3c-2.2-0.7-2.6,0.4-2.8,2.2c-2.3,26,3.6,49.4,21.1,69.4
				C158,205.2,159.2,205.8,160.9,202.9L160.9,202.9z M74.9,633.9c70.7,10.5,31.1,32.3,59.6-26.7c10.1-11.7-7.7-11.8-14.9-14.1
				c-19.6,1.4-35.2,8.8-43.8,29.6C74.5,625.5,69.7,633.1,74.9,633.9L74.9,633.9z M148.1,670.7c-6.7,1.9-9.5-2.5-13-4.8
				c-17.8-11.6-37.6-18.1-58.1-22.6c-1.2-0.3-4.2-1.3-3.8,1.4C77.4,681,119.8,694.3,148.1,670.7L148.1,670.7z M152.2,609.9
				c-1.8-1.3-4.3-9.5-7.2-4.1c-6.6,12.2-11.7,25.4-14.1,37c-0.7,15.3,12.6,13.8,18.2,20.1c2.3,2.5,3.8,1.5,5.9-0.8
				C164.8,650.9,163.7,618.7,152.2,609.9L152.2,609.9z M206.4,1462c-3.6-16.9-13.8-31-23.4-45.1c-3-4.4-9.4-11.6-11.1-10.8
				c-14,8.4-15.3,29.5-13.4,44.9c2.9,19.8,27,41.2,46.1,36.8C205.6,1479.2,208.1,1470.1,206.4,1462z M234,1405.3
				c10.1-12-17.8-14.1-24.7-16c-10.7-1.3-20.6,3.5-29.2,8.8c-1.8,1.1,8.9,7.7,11.9,13.4c7.9,11.2,14.1,23,20.1,36.3
				C215,1430.3,224.1,1417.5,234,1405.3z M245.3,1407.8c-17.8,21.2-29.3,47.2-30.5,75.3c-0.3,4.5-1.4,7.4,4.4,5.8
				C253.4,1482.1,273.7,1433,245.3,1407.8L245.3,1407.8z M647.6,887.2c10.2-75.7-4.6-31.5-44.5-38.9c-24.1,28.8-42.6-1.2-63.4-5
				c8.4,30.5,17.3,61,29.7,90.2c5.1,12.3,7.9,26.1,18.6,35.4c13.3,11.6,29.9,18.3,42.4,31.8c37,34.6-19.4,43.5,11.7,83.8
				c8,11.8,13.2,25.4,20.5,37.7c12.4-16.3,34.6-57.2,31.4-77.2c-5-20.9-13.1-41-23.9-59.6c-18.6-29.4-41.8-57.6-46.8-93.2
				c0.5-5.1,7.3-7.2,7.9,0.1c2.6,26.3,20.7,47.2,35.3,68.1c17.9,26.4,36.4,59.5,37.7,91.6c-2.8,19.7-11.8,38.2-20.8,56.3
				c-5.3,10.6-20.3,19.3-9.3,34.4c13.4,16.3,21.9,36.2,33,54.2c3.1,5.4,4.8,5.9,10.7,1.2c14.5-11.9,15.8-28.3,16.8-44.2
				c1.1-16.9-8.4-31.9-13-47.7c-6.5-14.2,4.9-36.9,7.4-22.5c-2.6,35.4,21,42.3,13.6,86c56.5-128.4-9.3-112.6,16.6-160.8
				c3.4-9.6,14.8-9.7,9.7-1.2c-22.7,36.7,27.2,44.8,0.6,116.1c-2.8,11.2-6.8,22.2-11,35.8c34.9-40.4,59.1-84.7,97-122.1
				c4.4-4.2,5.8-10.7,0.1-16c-10.6-9.9-23-16.4-37.6-16.7c-2.3-0.1-7.1-1.4-8.6,2.8c-0.4,1.6,0,3.2,1,4.4c8,6.4,14.6,14.8,25.3,17.5
				c2.2,0.9,4.6,5.1,2,7.1c-4-1.4-8.3,1.6-12.6-1.4c-9.5-7.8-29.9-14.5-26.7-29.3c6.7-28.3,73.6-2.1,70.7,22.5
				c0.2,11.1-6.3,18.4-14.2,25c-14.6,12.1-26.1,27.2-36.6,42.5c-3.9,5.7-11.7,10.4-11.1,19.9c29.1-21.2,53-47,80-70.6
				c5.7-5.2,15.7-10.4,13.1-17.7c-5.1-14.3-13-27.8-21.5-40.5c-9.5-14-26.5-12.4-40.8-15.4c-11.4-2.4-21.3,5.8-32,7.3
				c-32.4,5.2-71.2,3.6-97.6-18.7C688.9,939.1,647.9,918.1,647.6,887.2z M628.7,1013.5c-10.8-10.1-21-23.5-36-27.2
				c8.1,22.7,21.2,43.2,31.7,66.1c1.4-3.8,3.6-6.9,3.5-9.9C627.8,1032.9,638.7,1023.5,628.7,1013.5z M544.2,773.1
				c0.7-2.8,0.4-4.9-1.9-5.6c-9.8-3-16.8-10.1-24.8-16.3c0.4,15.4,6,30.7,10.3,45.4c4.5,12.7,0.5,28.6,16.6,37.1
				c13,5.9,32.3,20,46.3,12.6c0-0.9-0.3-1.7-0.9-2.3C560.5,826.9,538.7,808.7,544.2,773.1z M561.1,806.1
				c12,22.3,30.7,35.2,56.9,35.1c30-2.4,43.7-31.2,23.8-58.6c-12.9-21.9-55.1-40.2-76.5-22.8C548.7,775.3,548,781.9,561.1,806.1
				L561.1,806.1z M744.8,842.5c3.6-36.9-81.6-63-90.3-8.5C653.6,880.2,741.8,896.1,744.8,842.5L744.8,842.5z M507.1,704
				c1.2,24.1,13.9,41.4,33,54.8c2.2,1.6,4.2,1.6,7.2-0.7c5.9-4.5,13.3-7.2,19.5-11.4c2.8-1.9,10.1-0.2,7.9-6.1
				c-4.6-12.5-3.3-26.3-9.3-38.4c-0.9-1.8-2.2-5.9,1.5-7.3c4-1.6,3.8,2.5,5,4.5c6.2,10.9,6.8,23.4,9.1,35.3c1.5,7.9,5.8,8.9,12,8.6
				c2-0.1,1.5,0,2.2-8c1.5-15.5,2.5-30.8-1.8-46c-0.4-1.5,2-4.9,3.9-5.8c9.3-0.2,9.5,48.6,6.1,56.2c-2.5,9.5,11.1,10.1,17,12.3
				c4.6-17.6,6.9-35.7,6.9-53.8c0-3.8-2.7-10,3.5-10.8c5.1-0.7,2.5,4.3,3.1,7.3c3.4,15.7,2.5,32.1-2.7,47.3
				c-4.3,12.3-0.1,18.6,8.4,25.2c3.9,3,5.1,0.4,5.4-2.3c0.7-6.3,3.3-12.3,5-18.1c5.6-18.6,7-37.7,9.1-56.9c0.3-2.8-0.4-6.8,3.2-6.6
				c12.2-1.5-1.6,66.7-5.1,74.3c-6.7,15.3-10.6,26.1,2.8,40.3c11-23.2,20.2-47.3,27.3-72c4.1-14.4,6.7-29.1,7.8-44
				c0-2.4,1.7-4.4,4.1-4.7c2.8-0.4,1.6,2.5,2.2,4c4,42.3-16.2,80.4-31.6,119.3c22.1-14.2,34.1-38.1,45-60.6
				c5.4-11.9,10-24.3,14.5-36.7c0.6-1.6,2.3-2.8,3.4-4.2c7,3.8,2.9,10.4,0.7,15.7c-8.5,30.3-20.6,55.6-43,80.3
				c8.9-4.4,15.6,2.3,19.7-2.6c7.8-9.5,15.4-19.3,22.4-29.4c7.3-10.5,13.8-21.6,19.4-33.2c1.1-2.2,1.7-7.6,6.1-6.9
				c8.7,6.5-17.4,43.7-22.3,51.5c-4.4,6.3-8.9,12.5-13.4,18.7c-1,1.4-5.1,3.1-1.7,4.4c3.2,1.2,5,8,10.6,2.8
				c16.6-15.6,30.6-33.5,44.8-51.1c2.3-4.5,8.7-1.3,5.4,3.1c-10.5,17-22.5,34.6-37.2,47.8c-8.2,6.7-6.3,9.8-1,15.3
				c1,1,0.7,1.1,7.4-2.2c19.9-9.9,36.5-23.9,51-40.7c0.8-1,1-4.6,3.3-2.6c0.9,0.8,3.2,3,1.1,6.3c-11.9,19-28.3,32.5-47.7,43.1
				c-3.6,2-7.6,3-6.4,10.6c2.3,14.4,13.6,9.3,20.3,10.5c29.6,5,63.9-6.1,79-33.4c28.5-50.5-20.5-118.5-75.7-118c-1.5-0.1-3,2.4-5,0
				c-1.7-2.1-1.7-4.1-0.6-6.4c7.6-50.3-32.3-103-89.3-87.7c-33.1,6.1-67.5,32.2-65.6,69.1c0,0.9-0.3,2.5-0.6,2.6
				c-1.6,0.3-3.8,0.7-4.7-0.1C573.1,639,507.4,654.6,507.1,704z M473.7,500.9c2.9,20.1,7.2,40.5,5.9,61.2
				c19.8-35.8,42.2-70,51.9-110.2c2.8-14.6,8.7-28.7,13.7-42.9c1.6-8.3,16.3-9.7,9.7-2c-7.4,15.7-8.5,33.2-15.2,50.6
				c20.4-17.4,26.9-42.9,35.7-66.9c8.5-23.8,19.5-46.8,30.6-69.6c7.2-20.5,73.3-109.3,34-115.6c-11.4,4.5-15,17.8-18.3,28.3
				c-9.6,35.1-35.1,62.3-48.7,94.9c0.7-0.3,1.7-0.4,2-0.9c7-11.7,17.8-20.2,25.2-32c11.1-17.7,17.7-37.8,30.7-54.2
				c1.6-3.8,4.3-3.9,4.2,1c-2.2,15.8-13.5,27.6-18.9,42.2c-18.9,39.3-55.5,66.5-78.4,103.6C523.4,411,507,432.2,491,453.6
				C480.4,467.7,470.6,479.9,473.7,500.9z M181.7,285.4c12,29.5,26.3,17.6,51.7,21c13.4,1.6,26.9,2,40.3,2.4
				c2.9,0.1,9.5,1.5,8.6-1.5c-3.7-12.3-9.3-24-14-36c-1.7-4.3-6-8.7-1.9-13.3c2.5-2.8,4,1.4,5.1,2.9c7.2,10.3,11.7,21.9,15.8,33.8
				c1.9,5.8,0.6,15.7,9.6,15.2c5.4-0.2,18,8.4,15.8-7.6c-2.1-15.3-5.3-30.4-10.9-44.8c-1.4-3.6,1.2-5.6,2.2-8.3
				c1.6,0.9,4.2,1.6,4.6,2.8c2.6,8.6,5.8,17,8.3,25.6c2.8,9.5,4.8,19.1,4.2,29.3c-0.1,1.5-0.5,5.7,1.2,4.5
				c4.6-3.2,14.1,5.6,14.4-5.1c0.2-13.8-0.4-27.7-1.9-41.4c0.1-11.3-8.3-32.6-4.7-41.6c2.1-1.1,6-0.4,6.6,2.9
				c2.7,13.8,5.8,27.5,7.2,41.4s0.4,28.2,1.3,42.2c0.5,6.8,7.3,1.7,10.7,3.9c1.6,1,2.8,0,3-2.4c2-27.7,7-55.1,4-83
				c-0.2-5.2-1.3-11.1,2.7-15.2c7.6,5.1,7,14.9,6.9,22.4c1.2,24.1,0.9,48.2-5.1,71.9c-0.4,1.4-4.7,4.8-0.2,5.7
				c5.7,1.1,11.7,0.6,17.6,0.8c-0.6-11.6,6.9-20.9,9.4-31.7c3.3-14.1,7.5-28,11.5-41.9c1.4-7,7.2-1.2,6.6,2.4
				c-5.7,7.1-2.7,15.9-4.9,23.8c-3.9,13.9-6.1,28.2-13.2,41c-1.2,2.2-1.5,4.9-2.2,7.3c5.5-4.9,13.3,9.4,19.7-4.5
				c8.2-17.5,16.4-35.1,24.6-52.6c1.2-2.6,1.2-6.7,5.1-4.6s1.1,9.8-0.4,13.1c-3.4,8.2-5.8,16.9-9.3,25.1
				c-3.5,8.8-10.3,15.8-12.2,25.5c8.6-0.8,18.4,3,25.1-5.1c8.3-13.1,15.9-26.8,24.6-39.7c1.5-2.3,3.4-6.8,7.4-4.7
				c8.1,3.1-21.4,43.1-24.2,49.4c2.6-1.1,4,3.2,7.6,0.5c12.7-9.2,23.7-20.2,35.2-30.6c1.5-1.4,4.8-0.7,7.2-1c0,1.8,0.7,4.3-0.1,5.1
				c-8.5,8.4-16.7,17.1-26.1,24.4c-8.6,6.6-16.2,12.3-11.9,25c0.9,2.6,0.3,5.8,3.7,4.7c14.2-4.7,29.4-4.9,43.2-11.9
				c45.6-19.8,64.7-84.9,7.8-108c-19.6-8.2-39-12.2-58.6-1.5c-5.5,3-10.2,6.8-13.4-0.6c-15-35.2-43.4-55.7-84.7-53.9
				c-38.9-1.6-73.5,26.9-71.8,65c3.1,8.3-2.2,20.8-10.8,10.6c-14.5-13.5-33-17.5-51.1-20.9C196.4,216.3,162.3,255.3,181.7,285.4
				L181.7,285.4z M129.8,396c6.6-33.2,30.5-56.2,48.2-82.8c2.4-3.6,6.6-7,4.6-11.4c-1.9-4-5.8-7.1-8.8-10.6
				C140.8,336.9,118,332.3,129.8,396z M224.9,626.5c-2.6-14.8-1.8-31.2-6.6-45.2c-14.4-11.9-26-26.3-37.3-40.9
				c-21-29.1-27.9-65.4-39.8-98.7c-1.2-2.9-5.6-7.2-0.2-8.8c5.8-2,6.3,4.6,7.9,7.8c6.8,13.5,12.8,27.4,15.1,43.1
				c2.4-10.6,4.7-20.6,7-30.5c1.1-4.7,4.8-10.8,3.1-13.7c-7.4-12.1-9.3-26.9-18.3-38.2c-2.5-4.6,1.1-9.3,5.7-4.6
				c8.7,7.5,11.4,18.3,16.7,29.4c3.2-16.4,3.9-31.3-2.6-45.8c-2-5.7,1.6-10.8,5.8-4c19.6,30.8-1.6,67-5.9,99.1
				c-7,41.2,17.9,67.4,44.8,97.4c-7.5-45.3-9.9-82.2-13.2-126.3c-2.2-43.1-10.5-85.7-7.2-129c0.4-5-6.6-4.4-9.3-7.6
				C181,320.5,175.1,334,166,345c-21.9,25.4-28.6,57.6-39.1,88.3c-8.3,26.6-41,45.9-26,76.9c7.6,16.2,16.2,21,33.8,16.9
				c14.7,0.7-3.3,10.4-7.2,13.2c31.4,30.4,65.5,58.7,96.6,89.4C224.4,628.7,225,627.6,224.9,626.5L224.9,626.5z M181.3,889
				c0.4,3-3.7,15.8,2.4,13.2c28.9-10.4,36.5-54.6,8.4-69.9C186.1,850.6,182.5,869.7,181.3,889z M137,842.7
				c16.5,5.6,26.3,18.4,35.5,31.9c4.2-15.5,5.5-32,12.2-47c-17.6-5.2-33.6-3.9-46.3,11.1C137.4,839.8,134.7,841.9,137,842.7z
				 M169.3,904.9c0.8,0,2.4,1.3,2.5-1.7c0.5-19.9-11.7-32.7-24.8-45c-4.1-3.9-9-9.6-14.2-7.7c-5,1.8-4,9-3.8,13
				C129.1,887.9,147.2,906,169.3,904.9L169.3,904.9z M87.8,1088.1c7.4-10.6,45.1,19.3,53.2,25.5c4.5,3.9,7-2.4,10.3-4.2
				c0.7-0.4,1.4-0.6,1.2-1.4c-14.4-16.7-30.9-31.8-47.5-46.3c-1.8-1.6-5.6-3.3-3.4-5.8c2.1-2.3,6.4-2.1,9.1,0.3
				c14.9,12.9,32.1,23.8,42.9,40.5c4.9,9.2,12.3,3.9,19.4,2c0.2-0.7,0.2-1.4,0-2.1c-11.6-16.9-23.7-33.3-38.1-48
				c-2.6-2.7-8.6-4.9-5.3-8.6c9-6,28.5,22.8,34.9,29c6.3,7.8,11.9,16.1,16.8,24.8c4.2,7.5,14.8,0.3,21.3,5
				c-0.3-6.6-3.3-10.4-7.7-14.9c-11.5-20.9-24.7-40.4-42.6-56.4c-3-2.7-0.3-3.6,0.4-5.2c1-2.2,2.2-1.5,3.9-0.5
				c21.4,14.6,40.3,41.6,51.3,64.5c3.9,10.3,7.2,17.5,18.3,18.8c-5.3-23.5-13.1-47.3-24.1-68.8c-5.2-10.4-11.5-20.2-19.9-28.9
				c-1.9-2-1.8-3.2-0.5-5c4.6-6.8,16.1,9.7,19.7,13c18.3,24.7,25.4,53,34.4,83.3c1-8.6,7.5-13.2,5-21.1
				c-6.3-25.2-5.6-51.9-17.6-75.6c-1.5-3.2-5.9-8.1-0.5-12.1c2.8-2,4.1,1.6,5,3.2c17.2,25.4,17.6,55.1,23,84
				c4-2.6,10.3-3.1,11.7-8.3c5-24.1-0.8-48.1-4.7-72.1c-0.4-3.6-5-9.2,0.1-11.2c3.5-1.4,5.7,3.6,7.1,7.6c7.6,21.4,9,43.5,8.1,65.9
				c-0.1,2.4-3.3,8,3,7.7c5,0.2,9.1-2.6,8.9-8c0.4-9.7,2.3-19.4,4-29c2.4-13.7,3.1-27.3,0.2-41.1c-0.3-1.4,2.1-4,3.9-5.1
				c11.5-2.5,5.3,74.2-2,81.9l0,0c0,0.1-0.1,0.2-0.1,0.2c2.8-2.7,6-1.2,8.2-1.5c4.5-0.7,9.6,5.8,13.9-1.7
				c5.3-9.5,9.1-19.8,11.1-30.5c1.7-8.6,7.5-17.8,3.3-26.3c-8.5-17.6-12.9-36.7-21-54.3c-2.8-6-1.3-16.3-7.6-17.8
				c-15.9-3.8-32.6-1.4-46.7,6.7c-8.4,4.8-17.1,13.9-26.8,0c-21.2-26.9-61-21.4-89.7-11.1c-69.5,31.4-30.4,82.7-48.2,100.1
				c-30.4,10.7-57.5,54-37.6,82c15.5,19.1,75.2,37.8,88.3,9.9c-14.4-9.2-28.8-18.6-43.3-27.6C92.1,1092,85.4,1093.1,87.8,1088.1z
				 M214.5,1165.2c0.6-1.6-0.4-2.4-1.9-1.8c-6.8,2.8-14.2,4.1-21.5,3.7c-3.8-0.2-3.1,1.4-1.7,3.2c8.6,11.7,15.6,24.9,29.3,32.4
				C214.4,1190.3,210.2,1178.2,214.5,1165.2z M233.1,1132.9c-0.4-7.3-2.7-13.5-9.5-17.2c-23.8-16.4-79-12.9-79.7,21.5
				C146.2,1168.3,233.9,1163,233.1,1132.9z M257.5,1214.8c50.5-3.5,44.3-74.7-3.5-71.9C209.1,1148.4,211,1213.3,257.5,1214.8
				L257.5,1214.8z M285.5,1134.4c15.2-4,28.3-10.2,39.7-21c8-7.6,6.1-15,1.9-23c-7.6-14.7-22-14.1-32.4-15.4
				C228.9,1074.6,222.6,1141.6,285.5,1134.4z M347.2,1054.8c-3.5-6.3-8.7-27.2-13.4-28.6c-2.2,10.8-3.1,21.6-8.2,31.8
				c-1.9,3.9-7.1,7.9-4.1,12.7c1.4,2.3,7.8,4.3,9.2,3.2C337.3,1068.4,344.1,1062.7,347.2,1054.8L347.2,1054.8z M179.5,1225.7
				c2.6,3.6,3.8,7.3,8.6,1.2c2.6-3.4,5.8-7.8,11.9-8.3c5.1-0.4,10-3.5,15.8-5.7c-12.1-7.7-19.7-18.4-28.3-29.3
				c-4.6-5.3-3.8-14.9-12.5-16.5c-12.1-1.6-22.8-6.1-33.3-12.2C143.3,1182.3,164.3,1204.1,179.5,1225.7z M222.8,1304.2
				c-7.2-20-18.1-38.5-32.3-54.4c-9.1-17-11.6,18.3-9.8,24.3c1,15.9,21.6,34.9,36.3,34.8C219.9,1308.6,225.2,1310.7,222.8,1304.2
				L222.8,1304.2z M257.9,1241.7c2.3-1.9,0.1-3-1-4.3c-15.6-19.3-51.6-21.5-65.6-0.5c-1.1,2.8,2.1,4.1,4,5.7
				c14.1,11.3,23.3,26.2,31.3,43.4C231,1266.4,243.9,1253.7,257.9,1241.7L257.9,1241.7z M266.9,1258.9c-1.3-9.8-4-13.5-10.5-4.2
				c-10.1,9.3-16.1,21.1-22.2,33.3c-3.9,7.7-2.5,12.6,1.2,17.6c3.2,4.3,6-1.3,9.2-2.4C266.1,1295.1,267.5,1273.8,266.9,1258.9
				L266.9,1258.9z M452.3,1240.8c-7-11.5-16.9-21.1-22.7-33.7c5.6,31.3-16.7,67-49.4,69.6c-34.6,2.3-55.1-12.8-64.5-49.2
				c-11.9-42.2,49.4-89.8,93.1-54c-15.9-31.1-34.9-60.8-49.3-92.6c-6.3-14-10.1-17.3-20.1-3.8c-2.5,3.4-3.5,4.3-1.6,9
				c16.8,31.2-24.7,56.6-53.5,57.4c14.3,6.3,20.3,29.9,18.1,42.2c-3.5,24.9-21.3,33.4-43.1,40.8c11.9,5.5,10.7,21.3,24.6,27.3
				c20.4,8.9,39.5,21.3,60.1,30.1c14.5,6.2,28.4,15.4,44.9,3.3c5.7-4.2,15.6-2.8,21.2-7.1c14.4-11,27.5-23.7,41-35.8
				C451.9,1243.5,453.5,1242.9,452.3,1240.8L452.3,1240.8z M340.4,1254.9c14,10.2,29.1,15.2,46.5,9.4c-11.3-13-12.6-29.5-16.5-46.2
				c-6.7,10.2-13.3,18.9-22.5,25.4C342.2,1247.6,339,1253.9,340.4,1254.9z M350.8,1228.9c12.6-12.9,21-29.3,24-47.1
				c1.6-9.1,3.7-10.5,1.8-10.6c-29.5-3.2-56.2,22.6-52.9,52.7C331,1253.4,331.8,1248.4,350.8,1228.9L350.8,1228.9z M394.8,1259.6
				c0.5,0.6,1.3,0.8,2.1,0.6c15.2-9.2,22.6-23,23.8-38.7c-0.6-18.2-6.7-32.4-20.5-41.8c-14.7-14.9-18.3,1-19,15.2
				C379.6,1216.8,382.5,1240.8,394.8,1259.6L394.8,1259.6z M649.3,1264c24.1-1.9,48.3-3.3,72.4-5.2c2.4-0.2,9.3,1.7,5.5-4.7
				c-23.6-38.1-47.6-75.9-69.5-115c-45.3-73.4-82.9-151.3-112.3-232.3c-16.4-43.2-24.3-89.4-37.6-133.6
				c-16.6-76.9-31.5-154.3-42.4-232.2c-6.5-68.6-10.9-137.9-11.9-206.8c0.1-1.3,3.3-6.9-2.9-7.2c-8.7-0.5-17.4-1.7-26.2-1.9
				c-68.2-1.3-136.6-5.8-204.8-6.7c-4,1.1-13-4.3-13.7,0.9c10.6,123.5,21.4,247.8,42.1,370.2c16.6,75.8,37.8,150.9,58.9,225.4
				c34.1,102,77.2,201.6,136.4,291.9c13.6,19.7,29.1,38.4,40.7,59c8.9,15.7,19.7,14.2,32.5,12.8
				C560.7,1273.9,604.9,1267.6,649.3,1264z M895,369.9c-6.7-1.4-7.7,3.4-8,8.8c-4.4,20.1,22.4,20,22.5,2
				C909.3,372.5,903.1,369.9,895,369.9z M895.7,1411c-16.5-1.7-9.9,12.1-11.6,19.7c-1.1,4.9,1.8,10.5,8,10.2
				c12.8-0.6,17-9.9,17.2-20.9C909.3,1412.1,903,1410.6,895.7,1411z M886.5,123c0.4,5.5-1.5,14,8.8,12.2c9.4,1.5,11.7-4.5,12.3-11.3
				C909.3,109.3,884.3,107.9,886.5,123z M898.7,457.3c11.3,1.7,11.2-23.2-0.7-22c-7.5,0.4-13.7,4.2-13.1,13.2
				C883.9,460.1,893.9,456.3,898.7,457.3L898.7,457.3z M894.3,692.8c-9.7,0-8.7,8.1-9.6,13.9c-1.2,7.5,4,11.8,10.5,12.1
				C910.7,718.7,910.8,692,894.3,692.8z M891.7,860.7c14.8,1.4,19.9-24,2.6-23.7C881.9,834.5,880.7,861.2,891.7,860.7z M892.5,247.1
				c16.9,0.2,14-24.5-2.4-22.1c-8.4,0.1-7.8,7.4-8,12.3C882,242.8,885.5,247.4,892.5,247.1L892.5,247.1z M890.1,1499.5
				c-8.3,0.4-16.3,5-12.8,16.4c-4.2,13.3,7.2,14,14,14.5C906.1,1531.2,905.8,1497.8,890.1,1499.5L890.1,1499.5z M886,322.5
				c15.9,0.9,20.7-24.6,2-23.4c-7.9,0-6.9,7.6-9.4,11.7C879.7,316.3,881.7,322.7,886,322.5z M884.3,27c8.8,1.1,12.2-4.5,12.5-11.3
				c0.7-15.2-26.3-16.4-22.6,0.4C874.7,21.9,875.9,28.3,884.3,27z M879.3,633.1c8,0.7,10-4.5,10.3-10.6c0.4-8.3-1.5-15.3-12-15.6
				C861.5,606.1,864.1,634.3,879.3,633.1L879.3,633.1z M850.8,190.7c-1.4,18.7,26.5,14.7,26.5-1.8
				C878.8,170,849.9,173.6,850.8,190.7z M871.9,494.7c1.3-17.4-22.5-17.2-22.6-0.7c0.4,7.2,5.5,11.5,14.2,11.1
				C871.8,507.1,871.9,500.3,871.9,494.7z M847.5,1189.8c-11.5,0.1-14,27.5,7.1,24.5c6.7-0.3,6.9-5.5,6.3-11.3
				C863.2,1192.5,855,1189.7,847.5,1189.8z M851.7,1452.4c-22.4-4-23.9,25.3-9.8,27.9c9.5-0.8,17.2-6.5,17.2-18.8
				C860.2,1456.3,856.1,1452.8,851.7,1452.4z M846.5,87c9.2,0.2,11.4-6.9,12.4-13.8c1.2-8.1-4-10-11.1-10.4
				c-7.9-0.4-11.9,2.5-11.9,11.4C836.3,80.4,837.6,86.8,846.5,87z M813.1,896.2c0.1,6,0.9,13.2,9,12.7s16.5-2.3,17.5-13.5
				c-1.8-6.2-1.4-14-10.9-14.5C818.2,880.5,813,886.1,813.1,896.2z M837,1396.6c0.1-16.4-25.6-13.5-25.5-1.6
				C807.7,1421.3,840.1,1416.2,837,1396.6z M834.8,360.1c0.9-16.4-24.4-20.6-21.8-0.7c-2.2,10,6.3,10.9,13,11.4
				C831.8,371.1,834.8,365.2,834.8,360.1z M813,269.5c0.6,6.6,1.1,13.4,10.1,13.7c9.7,0.8,9.3-7.1,9.6-12.5
				C835.5,255,811.3,255.3,813,269.5z M812.7,149.7c8-0.6,8.5-9.1,9.1-14.8c0.8-8.4-7.4-9.3-12.9-9.5
				C787.5,125.6,797.7,153.5,812.7,149.7L812.7,149.7z M821.3,419.2c-0.3-13.9-21.1-13.8-18.3,1.1
				C799,431.8,823.9,431.4,821.3,419.2L821.3,419.2z M809.9,548.7c15.5,0.2,14-26.7-2.6-24.6C793,525,796.8,549,809.9,548.7z
				 M804.2,1534.8c-17-1.5-17.1,28.8-2.4,28.9C820.7,1565.5,821.2,1534.7,804.2,1534.8L804.2,1534.8z M787.2,479.1
				c17,2.3,18.9-23.1,2.2-22.4c-7.8-0.5-11.8,3.6-11.9,10C777.3,472.9,777.8,481.1,787.2,479.1z M781.9,1471
				c-13.1-0.5-10.6,10.5-12.8,16.3c-1,11.3,7.4,11.5,12.7,11.4C798.1,1498.6,799.8,1470.7,781.9,1471z M785.1,47
				c17.5-0.9,14.7-26.9-1-25.9C769.8,20,770.2,49,785.1,47L785.1,47z M765.9,319.1c-7.6-0.8-8.6,5.4-8.8,10.8
				c-0.3,9.5,6.6,11.3,13.9,11.2c7.9-0.1,6.9-7,7.8-9.8C780.3,318.3,771.9,319.7,765.9,319.1z M759.5,198.9
				c-9.7-0.9-9.8,7.3-10.1,12.9c-0.3,4.8,0.2,11.5,8.7,11.4C773.5,224.6,774.7,198,759.5,198.9L759.5,198.9z M750.3,104.9
				c10.3,0.7,14.6-5.4,13.4-15c-0.5-4.4,0.4-11.5-8.2-9.3c-9-0.9-14.3,2.7-13.3,12.2C742.7,97.8,743.3,104.4,750.3,104.9
				L750.3,104.9z M737,464.7c9.9,0.1,9.3-8.5,9-15.3c-0.3-7.8-6.3-10.4-12.7-10.3c-7.7,0.1-9.5,6.3-10.3,12.4
				C720.6,463.7,729.8,464.7,737,464.7z M731.8,1515.8c-9.9,0.2-13,8.7-12.1,14.3c1.1,6.9-0.2,19.2,13.8,18
				C752.1,1549.1,748.6,1514.2,731.8,1515.8L731.8,1515.8z M709.8,276.4c6.4,0.1,16.3-0.8,15.2-12.5c-0.3-5.4-2.1-12.4-7.2-12.3
				c-6,0.1-15.3,0.3-15,11.2C703,268.8,704.4,276.3,709.8,276.4L709.8,276.4z M707,1433c-8.4,0.3-14,4.1-12.9,13.2
				c0.9,7.5,0.8,17,13.5,14.7c12.9,3.3,12-7.3,12.1-14.3S716.2,1432.6,707,1433z M708,403c13.4,0.9,12.4-19.3,0.5-19.4
				C698.1,382.7,694.4,403.6,708,403L708,403z M687.2,122c-11.3,0.3-11.8,22.3-0.2,22.9c6.9,0.5,14.3,0.1,14.1-12.1
				C702.6,123.8,696.3,120.9,687.2,122z M687.2,73c5.3-0.9,11.5-1.6,10.7-9.5c-0.7-6.6-1.7-13-7.8-12.7c-9.6,0.8-14.8,5.3-14,10.5
				C677,67.7,678.2,74.6,687.2,73L687.2,73z M664.8,1499c-18.4-1-17,26.7-0.3,27.1C680.3,1527.7,681.6,1499.8,664.8,1499z
				 M656.7,1435.9c1.2-9.9-8.7-10.6-14.7-10.5c-9,0.1-12.8,7.9-12.8,16c0,8.6,6.6,11.5,16.9,11.9
				C656.8,1454.2,655.8,1443.2,656.7,1435.9L656.7,1435.9z M640.2,23.9c16,2,19.1-22.9,4-22.9c-7,0.2-12.7,1.9-11.2,10.4
				C632.9,17.5,632.6,23.9,640.2,23.9L640.2,23.9z M641.3,1166.6c-2.2-1.9-3.5,0-4.7,0.9c-30.5,27-81.5,49.8-115.5,16.4
				c-31.2-36.2-21.7-89.5-52.9-126.5c-20.9-27.4,13.1-44.3-1.6-62.7c49.3-29.6,34-106.1-23.1-74c4.2-16.1,11.1-31.4,20.4-45.3
				c1.4-2,1.5-5.8,0.5-8.2c-0.9-2.2-4.2-1-6.6-1.2c-12-0.6-18.8,9-28,13.7c-11.6,5.9-21.1,16.2-35.7,15.1c-21-3,0,29.5,34.4,4
				c1.6-0.7,3.2-1.3,4.9-1.8c0.1,1.9,1,4.4,0.1,5.7c-10.6,15.7-13,34.5-20.1,51.5c-2.2,5.3-3,12.8,2.6,16.2
				c5.4,3.3,10.9-1.9,12.5-6.3c6.1-16.4,25.7-40.8,45-34.6c12.1,6.6,8.6,27.8,1,36.3c-8.3,9.9-16.7,21.2-32.9,15.1
				c-8.2-2.9-16.5,10.5-7,14.9c3.6,1.6,7.9,2.6,10.6,5.3c3.4,3.4,16-1,8.6,12.6c-23.4,38.7,21.7,64.1,26.9,103
				c7.8,57.3,36.9,114.8,104.5,94.1c23.4-6.5,43.6-17.7,56.1-39.7C642.1,1169.8,643.4,1168.4,641.3,1166.6L641.3,1166.6z
				 M628.2,116.8c7.6,0,13.1-3.6,11.8-12.7c0.7-5.9-1.1-11.2-7.9-10.9C616.8,91.6,611.7,115.7,628.2,116.8z M612.3,1558.7
				c-14.9-1.4-10.1,25.8,4.2,24.3C632.5,1582.4,630.5,1557,612.3,1558.7z M583.8,1466.8c-7.8-0.4-9.5,5.7-8.7,11.8
				c0.8,6.7,0.1,15.6,9.8,16.2c7.6,0.5,13.4-3.2,12.3-11.4C597.5,1473,593,1467.3,583.8,1466.8L583.8,1466.8z M584.5,63
				c7.1,0.6,12-2.9,12.6-10.2c0.5-6.4,0.8-13.5-7.3-12.1c-8.4,0.3-14.7,0.7-14.8,9.3C575,56.4,576.7,62.3,584.5,63z M545.9,99.1
				c13.7-0.3,13.8-23.5-2.2-22C530.1,76.5,532.5,101.1,545.9,99.1L545.9,99.1z M537,1521c-18.2-0.6-19,28.5,1.3,26
				c10.7,2.4,8.7-6.8,9.3-12.9C548.3,1526.8,546.2,1520.5,537,1521z M513.7,179.4c11.2,0.4,12.2-8.8,13.1-16.4
				c0.9-7.3-4.5-10.6-11.1-9.8C502.3,153.2,500.8,179.5,513.7,179.4z M478.6,108.1c-0.1,4.6-0.1,10.2,9.4,8.6
				c2.7-1.7,11.6,2,10.9-7.6c-0.4-5.7,1.4-14.2-8.7-14C482,95.2,478.6,100.8,478.6,108.1z M466.1,1559.5
				c-15.8,2.4-8.9,26.5,6.1,26.8c7.6,0.8,13-4.4,12.9-15.5C483.5,1562.5,472.3,1564.2,466.1,1559.5z M471.4,63.1
				c15.3,0.2,15.9-28.4,0.7-23.9C455.6,35,454.6,65.7,471.4,63.1z M351.3,1493.3c15.6-13.7,28.3-29.9,40.8-46.4
				c23.1-30.6,53.5-54.9,75-86.9c2.4-3.6,7.3-6.8,3.2-10.8c-4.8-4.7-5.1,2.5-6.9,4.3c-42.5,39.5-76.3,86.8-115.5,129.2
				c-43.6,34.5-59.5,55.7-80.2,107.2c-2.6,3.8-3,12.1,3.7,14.6C290.9,1555.4,306.8,1524.3,351.3,1493.3z M361.9,865
				c-6.1,0.3-12-1.8-14.6-7c-14-27,18.6-47.5,39.7-57.4c6.5-2.9,4.9-8.9,3.4-12.7c-8.4-21.7-15.7-43.9-29-63.4
				c-1.7-2.5-2.8-6.9,0.5-9.5c3.9-5.1,14.4,12.5,15.4,15.5c6.2,18.7,16.1-3.8,47.5-1.6c6.9,1.5-0.1,9.6-4.1,10.1
				c-9.2,2.8-18.5,5.2-27.7,8c-11.2,1.1,13,33,10.5,44.3c0.1,4.3,6.6,1.7,9.8,0.5c17.9-5.3,39.6,3.5,38.4,22.7
				c-3,16.9-14,30.8-24.2,45.2c-5.6,6.8-16.8,29.5-27.2,24.3c-5.3-15.4,44.5-60.9,35.5-74.8c-4.1-4.7-10.6-3.8-16.8-3.8
				c-19.6,0.3-14.5,16.6-17.6,26.8C396.3,849.3,379.6,864.3,361.9,865z M390.9,819c-0.7-1.1,1.3-5.5-3-2.9
				c-10.5,6.2-19.9,13.9-28.1,22.9c-2,2.2-3.1,5.8-0.7,8.9C369.6,858.6,392.5,831.7,390.9,819L390.9,819z M286.4,1489.8
				c22-37.9,55.7-65,88.4-92.9c27.7-30.5,54.8-64.4,72.6-101.6c-0.9-2.7,1-5.7-2.3-6.2c-2.5-0.4-3.3,1.9-4.5,3.8
				c-7.8,11.9-15.4,24-23.8,35.6c-21.1,28.5-43.1,56.8-70.5,79.6c-1.2,1-3.2,0.8-4.9,1.2c14.8-32.9,23.1-69.8-5.4-98.4
				c-5.7-9.4-10.5-0.4-5.8,6.4c28.4,35.6,10.9,81.5-13,113.7c-11,16.1-25.2,30-35.7,46.3c-11,17-23.3,31.8-40.5,42.7
				c-34.1,21.7-67.7,44.2-98.4,70.5c-2.4,1.9-3.2,4.6-1.7,7.2c1.8,3.1,4.5,0.8,6-0.2c6.3-3.8,13.1-7.3,18.1-12.4
				C202.4,1548.8,257.4,1534.8,286.4,1489.8z M410,99.5c-0.1,18.6,23.4,14.2,22.5-1.8C432.4,86.8,408.9,83.9,410,99.5z M347.5,700.9
				c-11.7,17.2-27.1,5.8-28.4-10.3c-19-71.1,114.9-94.5,103.8-25.8c-5.4,41.9-48.9,62.1-36.4,38.6c6.5-9.5,14.5-18.4,19-28.8
				c6.6-13.8,0.6-38.2-19.2-33.4c-15.6-3.2-11.5,11.1-14.9,17.9C364.1,673.5,357.6,687.8,347.5,700.9z M364.3,646.6
				c0.3-0.9,0.4-1.9,0.4-2.9c-22.3,3.6-40.3,27.4-28.6,49.1C349.1,684.4,356.7,660.4,364.3,646.6z M319.9,530.8
				c-14,23.6-49.7,22-40.7-11.7c5.9-16.9,10.8-34.1,25.1-46.7c1.9-1.7,1.3-7.5,0.3-10.9c-2.2-7.5-2.3-15-1.4-22.4
				c1.1-10-4.9-8.2-9.9-6.5c-10.5,3.4-25.8-2.9-30.3-13.2c-3.7-6.7,5.2-9.2,8.9-6c7.2,5.4,15.1,4,22.9,3.4c4.6-0.4,8.3-2.6,8.5-8.8
				c0.3-9.5,2-18.9,2.6-28.3c1.8-12-9.9-2.2-12.5-9.7c-0.6-3-0.3-6.1,1-8.9c1.8-3.8,4.9-0.5,7.5-0.5c9.1,0,18.1,0.5,19,11.8
				c0.7,8.3,2.2,17-1.3,25.4c-1,2.4-0.1,5.5-0.1,7.9c19.2-5.6,37.7-18.4,58.3-13.2c5.1,1.6,10.7,2.7,9.2,8.7s-9,5.1-13.4,5.2
				c-15.6,0.7-29.7,6.7-43.9,11.9c-13.6,2.6-12.4,12.7-10.6,22c1.3,6.8-2.1,19.8,2.4,19.1c12.5-1.9,26.2-6.8,27.8-23.7
				c0.2-2.6,0.7-5.6,2.2-7.4c2.1-2.6,3.1-8,7.9-6.3s4.6,5.6,2.6,10.2c-18.1,35.4,61.9,7.3,37.1,74.9c-2.5,18.1-61.6,70.2-30.3,77.5
				c13.5,1.5,12.1,12.1-0.6,12.1c-22.9,1.3-30.9-14.1-20.1-36.7c8.3-20,54.1-62.3,35.6-83.4c-8-8.3-19.2-9.5-29.5-9.1
				c-6.1,0.3-6.1,9.7-8.7,15c-4,8.1-7.2,16.5-10.9,24.7c-3.7,8.2,6,12.3,6.2,19.4c0.1,3.2,5.5,6.7,0.7,9.5
				C329.9,541.6,330.2,516.5,319.9,530.8z M325.4,493.1c2.6-8,8.4-13.9,6.7-19.9C319.4,475,324.5,483.6,325.4,493.1z M314.9,501.5
				c-1.6-6.3-3.1-18.4-8.8-7.9c-6.6,11-12,22.7-12.8,35.9C293.9,543.4,318.8,512.4,314.9,501.5z M235.8,77.1
				c-5.8,0.9-14.1,0.5-13.7,9.8c0.3,6.4,1.5,13.7,11.5,12.2C247.2,102.2,249.6,75.2,235.8,77.1z M229.6,38
				c14.9-0.9,14.4-23.5,0-22.6c-8.1,0.7-10.9,7.1-10.6,14.6C219.3,37.1,225.9,36.2,229.6,38z M175.3,67.8
				c11.2,0.2,13.9-24.1,0.8-23.7C161.6,43.9,159.9,68.9,175.3,67.8z M129.1,760.7c-11.3,0.6-11.3,10.6-11.7,17.6
				c-0.6,10.2,8.5,10,15.5,9.2c12.1-1.4,8.3-12.8,9.4-19.3S135.3,760.8,129.1,760.7L129.1,760.7z M127.9,1337.9
				c17.8,1.5,16.5-27-0.2-24.9c-11.1,0.8-11.1,9.1-10.5,16.9C117.7,1335.8,122.6,1337.8,127.9,1337.9L127.9,1337.9z M124.1,42.5
				c9.5-0.3,15.3-8,14.5-17.5c-0.7-7.9-8.8-7.6-14.7-7.9C110.1,16.4,113.9,43.8,124.1,42.5z M108.9,1439.1
				c-9.1-1.5-14.1,3.6-13.6,11.6c0.4,5.2-2.3,14.5,8.7,14.4c12.9-0.1,17.5-5.9,15.4-18.8C118.3,1438.9,114.5,1438.4,108.9,1439.1z
				 M99.8,294.9c24.5,1.3,20.9-31.6,0.7-29.7C82.2,265.3,87,292.4,99.8,294.9z M72.4,409.3c1.3,15.2,24.8,12.7,24.7-4.6
				c0.8-7.1-0.5-13.9-9.9-11.8C75.5,392.3,72.6,395.3,72.4,409.3z M83.2,1170.9c-6.2-0.1-7.9,4.4-8.1,9c-0.2,7.1-2.6,16.7,7.1,18.7
				c9.3,2,16.2-2.3,14.8-13.3C98.9,1174,92.5,1171.1,83.2,1170.9z M81.6,96.3C95.9,94.1,97,73.2,81,73
				C67.4,73.2,67.8,94.9,81.6,96.3z M87.4,1267.8c1.7-17.9-21.2-22.3-21-7.6c1.1,6.2-3.1,17.4,10.4,14.7
				C82.4,1275.4,87.4,1275.6,87.4,1267.8z M67.7,841.5c13-0.8,15.1-7.4,15.6-15.5c0.6-10.7-8.8-10.8-14.3-10.6
				C56.5,815.7,56.6,841.3,67.7,841.5z M59.7,706.2c-9.8,0.8-9.4,10.2-10.5,16.8c-1,6.2,3.7,8.8,7.9,8.2
				C77.3,733.6,78.5,704.4,59.7,706.2z M71.8,527.3c0.1-17-22.2-14.8-22.7-0.2C47.5,546.6,72.2,541.6,71.8,527.3z M51.6,928.5
				c15.9,1.2,20-32.7,1.8-30.5c-10,0.5-10.8,9.2-12.4,16.4C39.2,922.8,45.5,928.5,51.6,928.5z M46.1,1347.2
				c-6.3,0.5-13.1,2.2-13,10.8c0.1,6.4-2.3,15.1,7.8,15.9C60.8,1378,66.8,1345.9,46.1,1347.2z M47.7,316.1c-9,1.2-9.5,8.5-9.2,15
				s6,7.6,9.6,8c12.3,0.5,14.2-7.8,14.2-14.8C62.3,315.3,54.6,315.2,47.7,316.1z M45.7,56c12.6-2,8.5-24.9-4.3-23.9
				C32.3,32,29.3,37.8,29,45.7C28.4,59,37,57.2,45.7,56z M36.6,440.9c-14.3-0.8-19.3,24.9-4.6,25.8c5.4-0.1,14.4-0.7,13.4-8.6
				C44.7,452.3,50.7,440.7,36.6,440.9z M34.3,263.1c8.2-0.2,10.4-5.9,10.6-12.5c0.3-8-5.4-9.4-13.6-9.8
				C17.6,239.6,20.3,264.9,34.3,263.1z M19.6,1240.3c-7.9,0.4-8.2,7.5-8.4,12.9c-0.2,6.4,3.7,10.1,10.5,9.8
				C39.3,1260.7,34.9,1237.3,19.6,1240.3z"/>
		</g>
	</g>
</g>
<g>
	<g id="Layer_1_2_">
		<g transform="matrix( 1, 0, 0, 1, 0,0) ">
			<g>
				<g id="Layer0_0_FILL_1_">
					<path d="M52,1548v15l-37,37h946l-37-37v-15H52 M52,52V37.7L14.3,0H0v1600h15l37-37v-15V52 M924,52V37.7L961.7,0H14.3L52,37.7
						V52H924 M976,0h-14.3L924,37.7V52v1496v15l37,37h15V0z"/>
				</g>
			</g>
			<g>
				<path id="Layer0_0_1_STROKES_1_" class="st5" d="M961,1600h15V0h-14.3L924,37.7V52v1496v15L961,1600H15H0V0h14.3h947.4 M52,52
					V37.7L14.3,0 M15,1600l37-37v-15V52h872 M924,1548H52"/>
			</g>
		</g>
	</g>
</g>
</svg>
