<svg xmlns="http://www.w3.org/2000/svg" xmlns:xlink="http://www.w3.org/1999/xlink" viewBox="0 0 976 1600">
<style type="text/css">
	.st0{fill:#FFFFFF;}
	.st1{clip-path:url(#SVGID_2_);}
	.st2{fill:#50B271;}
	.st3{fill:#FFEB5C;}
	.st4{fill:#333333;}
	.st5{fill:#D81E1E;}
	.st6{fill:none;stroke:#333333;stroke-width:2;stroke-linecap:square;stroke-miterlimit:3;}
</style>
<g id="Paper_Backing">
	<path class="st0" d="M960,25v1556c0,3.3-2.7,6-6,6H22c-3.3,0-6-2.7-6-6V25c0-3.3,2.7-6,6-6h932C957.3,19,960,21.7,960,25z"/>
</g>
<g id="Wikipedia_Cropped">
	<g>
		<g>
			<g>
				<defs>
					<path id="SVGID_1_" d="M960,22v1556c0,3.3-2.7,6-6,6H22c-3.3,0-6-2.7-6-6V22c0-3.3,2.7-6,6-6h932C957.3,16,960,18.7,960,22z"/>
				</defs>
				<clipPath id="SVGID_2_">
					<use xlink:href="#SVGID_1_"  style="overflow:visible;"/>
				</clipPath>
				<g class="st1">
					<path class="st2" d="M868.3,1066.3c-44.5-7.4-90.5-28.7-126.2-57.6c-45.3-48.5-28-32.2-84.7-18.5c-30.8,6.5-30.3-0.5-45.4-24.8
						c-1.6-4.5,4.6-11.8-3.5-13.7c-28.6-4.8-57.5-16.9-75.8-37.5c-4.3-7.3-12.4,1.7-18.5-1.8c-75.8-19-151.4-97.2-149.6-178.9
						c-1.4-7.5,6.3-26.3,8.9-38.7c-1.2-3.9-7.6-3.7-6-8.5c23.4-49,32.5-129.4-9.5-165.2c21.9-4.7,47.9,19.5,64.1,33.6
						c44.8,29.3,40.7,98.6,72.7,112.6c49.3,25.9,90.3,66.2,132.2,102.8c45.3,44.2,79.7,94.5,112.8,147.3
						c11.3,28.8,16.2,9.8,36.1,21.3c22.7,8.4,47.7,12.3,71.6,15c25.9-6,63.4-3.5,31.4,27.2c7.9,15,24,17.1,4.1,34.8
						c1.5,7.7,9.8,18.8-1.9,23.8C869.3,1048.2,898.3,1067.1,868.3,1066.3L868.3,1066.3z"/>
					<path class="st3" d="M359.7,1539.8c-14,0.4-20.2-5-31.3-12c-6.8,0.6-17.4,3.8-22.1-3c-13.5-18.3,11.7-47.4,31.5-52.4
						c27.8-10.6,61.9,2.6,76.5,27.4c3.1,10.8-13.9,9.1-20.2,8.3c-7.8,5.2-20.7,5.5-24.3,14.1
						C368.6,1527.9,365.7,1537.4,359.7,1539.8z M786.2,1214.4c-4.8-0.6-4.8-8.7-11.1-6.9c-5.6-0.8-2-9.7-8.4-10.2
						c-4.7-0.4-6-5.2-10.4-5.2c-9.6,4.9-16.6-6.9-25,1.4c-21.4,12.7-15.9-18.5-5.2-26.9c21.8-23.9,60.1-28.3,89.8-16.2
						c14.6,5.6,41.8,42.1,16.5,47.3c-13.2-5.5-20.5,5.5-32.5,1.9C791.8,1199.5,793.7,1212.8,786.2,1214.4z M501.7,1010.6
						c-72.4-18.9-140.2-90.6-176.8-151.1c-37.6-75.8-38.3-153.2-68.3-232.7c-21.1-77.1-94.9-81.2-44.4-95.3c21-8.6,43-10.6,65-7.2
						c60.3-27,123.9-5.3,119.2,74.7c2.6,56.5-33.3,88-37.1,140.2c1.6,77.2,73.8,153.4,145,174.2c16.9,5,36.4,2.4,48,18.8
						c13,10.9,29.2,17.9,50.9,22.1c3.3,0.5,4.5,5.3,1.6,7.2c-9.6,10.3-34.2,13.8-40.5,28.6C537,1003.2,514.2,1008.6,501.7,1010.6z
						 M333.6,540.9c-27.9,1.4-38.9,45.8-1.4,42.4C361.1,580.9,360,541.6,333.6,540.9z M814.2,655.6c-8-1.2-5.6-15-13.9-15.1
						c-5.3-0.4-12.4-0.9-16.8-4.1c-3.8-4.9-11-1.1-16.2-1.4c-15.7-5.3,0-30.6,8.7-35.6c22.3-22.6,61.9-18.3,87.3-3
						c12.9,8.7,33.6,48,12.1,56.2c-7.4-1.3-11.8-9.3-19.8-6.3c-5.6,0.5-10.9-6.3-15.5-1.1C833.2,652.6,820.9,647.7,814.2,655.6z"/>
					<path class="st4" d="M750,1604c-114.9,2.8-23.1-2.2-118.7-47c-33.7-17.9-69.8-35.1-104.1-48.6c-8.2-6.3,14.6-19.2,14-32
						c-0.2-8.8,6.2-13.9,15-9.5c30.8,4,15.4,44.2,42.4,52.2c43.5,15,38-25.3,68.8-30.7c62.8-16.3-26-84.6-43.5-110.3
						c-26.8-5.5-49.9-29.1-78.4-38.9c-67.4-31.4-131.6-55.3-201.3-79.3c-29.8-13.8-68.7-18.7-89.3-47c-1.7-2.8-5.4-3.8-8.2-2.1
						c-0.2,0.1-0.3,0.2-0.5,0.3c-38.2,0.6-20-60.8-3.6-76.1c25.7-36.9,64.3-57.7,109.5-73.2c19.3,12.6,22.8-0.8,38.9-10.9
						c33.1-23.6,49.8,10,64.6,0.7c5.4-11.2,9.4-23.4,26.4-23.7c20.7-7.2,123.8-8.8,98.4-44.3c-1.8-5.5,5.7-7.5,9.6-9.7
						c20.2-23.7,43.8,13.2,22.2,25.1c-18.8,10.7-32.2,30.6-51.3,40.8c-8.6,7-30.9,6.4-30.7,19.2c-20.3,31.2-68.3,46.3-87.9,77.9
						c64.9,24.2,130.1,43.3,191,78.4c22.3,12.1,37.6,20.1,61.3,32.8c4.9,3.1-2,11.7,5.9,13.2c16.2,3.2,30.1,10.8,45,14.6
						c9.9-8.4,25.1-45.8,47.1-31.9c15,15.2-7.8,47.6,0.7,52.9c41.6,26.3,111.1,61,139,115.4c14.8,7.9,24,12.9,38.2,20.4
						c22.5-5.8,4.5,153.8,9.7,165.1C985.6,1614.8,753.8,1598.6,750,1604z M255.4,1383.3c-72.3-37.6,0.4-52-52.1-78.6
						c-21.3-7.2-24.8,16.8-35.6-11.1c-9.9-10.5-10-36.5-25.8-30.4c-47-60-97.8-122.5-124.9-196.7c14-49.3,41.5,19.3,52.1,35.6
						c27.7,39.3,51.9,81.7,91.3,113.6c16.5-5.1-15.1-70.1-13.6-88.8c-14.9-92.3-51.3-182.4-50.9-276.3c40.9-5,31.4,72.4,41.2,101
						c18.6,89.2,44.8,179.1,69.5,267C247,1370,326.4,1320.6,255.4,1383.3z M737,902.6c-19.3-17.7-30.3-50.3-50.3-71.3
						c-2.3-2.4-1.9-8,2.8-8.7c67.3-40,145.1-80.2,194.2-135.2c12.1-17.8,23.6,6.2,25.7,17.8c7.8,1.6,15.5,10.5,12.9,19.9
						c13.3,49.7-45.8,73.1-76.8,99.3C808.7,849,775.1,880.8,737,902.6z M679.2,565.3c-5.9-3-15-8.9-13.8-17.3
						c5.9-25.4-17.7-48.5-41.7-40.8c-20.9-5.9-36.8-31.5-47-48.2c-1-7.7,7.2-11.5,7.8-18.1c-0.3-5-3.9-14.2,2.7-16.8
						c21.4,16.1,40.2,39.5,60.7,58.3C711.9,548.6,738.1,515.3,679.2,565.3z M545.9,418.6c-46.5-32.2-53.2-142.3,1.9-37.4
						C536.5,394.8,567.8,412,545.9,418.6z"/>
					<path class="st5" d="M309.5,1588.6c-31.7,0.4-24.8-21.4-56-16c-81.4-1-103.2-123-10.2-123.8c5.6-0.4,6.5-6.3,4.6-10.7
						c-8.3-43.1,36-95.3,77-94.6c51.3,2.8,62.5,32.7,82.8,64.5c61.6-35.4,175.5,14.8,119.9,90.1c-20.9,18.6-49.3,30.6-78.4,36.4
						c-1.1,25.1-25.1,34.3-47,33.3c-14.6,0.7-27.5-5.4-39.5-12.2c-3,0-5.5,2.2-5.9,5.1C351.1,1582.3,326.3,1586.9,309.5,1588.6z
						 M321.2,1527.6c15.5-5,32.3,29.8,41.4,14.6c0.1-41.5,67.4-23.2,31.1-54.4C330,1442.9,284.3,1537.3,321.2,1527.6z M616.6,1520.9
						c-31.5-4.3-48-23.8-34.5-57.3l0,0C626.2,1405.7,691.7,1504.7,616.6,1520.9z M119.8,1501.3c-56.4,7.9-69.9-81.5-5.4-83
						C165.9,1422.6,168.1,1490.7,119.8,1501.3z M607.6,1425c-27.4,1.7-44.9-48.3-17.5-57.3c16.5,2.4,21,17.6,26.2,29.5
						C653,1399.1,629.6,1425.4,607.6,1425z M193,1363c-37.5,1.7-35.2-60.9,1.9-57.5c21.1,0.3,26.3,17.1,27.8,33.2
						C220.4,1352.6,208.5,1361.7,193,1363z M906,1315.2c-48.1,0.5-39.8-78.9,7.5-70c5.1,1.3,7,7,13,4.6c10.7,3,17,20.4,18.5,30.4
						C944.3,1299.9,925.8,1316.3,906,1315.2z M833.4,1257.7c-18.5,1.5-35.6-11.3-48-23.3c-19,19.7-50.1,27.5-73,12.2
						c-5.1,0.8-7.5,6.9-13.3,2.7c-30.2-26.8-100.6-34.1-107.5-86.2c-6.9-51.4,56.8-77.7,96.1-52.4c17.5-32.3,44.3-69.1,88.9-65.8
						c38.8-0.6,77.7,25.9,82.8,66.7c0.2,3.4,2.7,6.5,6.2,6.4c65.8-13.9,111.3,87.4,31,105.5C856,1221.7,890.3,1254.9,833.4,1257.7
						L833.4,1257.7z M744.2,1192.6c18.5-2.1,31.1,10.7,42.9,21.2c26.8-28.5,67.7-1.1,37.8-47.7
						C766.3,1116.3,684.4,1204.6,744.2,1192.6L744.2,1192.6z M548.6,1171.4c-11.8-5.1-62.4-16.4-61.7-28.7
						c0.4-20.4,19.6-35.3,38.5-39.6c20.3,3,39.3,13.4,43.2,35C571.2,1156,566,1171.3,548.6,1171.4L548.6,1171.4z M906.6,906.9
						c-44.6-1-44.7-69.4-3.4-70.8c32.2,1.3,52.9,38.7,26.1,62.3c-1.4,1.7-6,2.2-8.6,1.3C915,900.3,913.5,908.5,906.6,906.9
						L906.6,906.9z M708.5,740.5c-23.9,2.4-32.1-43.4-3.3-44.1C736.6,692,740.2,741.8,708.5,740.5z M778,700.9
						c-14.8,0.5-39.9-16.8-40-29.3c-1.9-9.4,7.2-19.1-1.4-24.3c-57.6-5.9-83.8-95.8-14.4-108.2c9.7-4.1,21.6-0.6,31.4-0.6
						c12.9-35.4,36.4-61.8,78.7-60.1c37.9-3.3,58.8,29.8,75.6,56.7c92.3,14.3,83.8,144.4-18,130.6c-1.5,43.3-49.7,36.7-72.5,12.5
						C805.7,686.6,797.8,702.8,778,700.9z M773.6,635.1c24.7-4.9,38.5,32.6,48.2,21.7c6.2-9.5,18.3-11.9,28.8-11.7
						c8.2-3.1,23.4,11.7,25.8-1.8c1.2-19.2-7.3-37.8-25.5-44.8c-21.5-9.6-55.5-11.5-71.7,7.7C772.6,614.8,758.9,632.5,773.6,635.1
						L773.6,635.1z M323.3,581.2c-32.2-8.5,1.1-52.5,24-31.2C359.9,568.9,338.7,584.3,323.3,581.2z M631.9,572.2
						c-44.3,0.1-42.1-67.9,1.9-65.2C676.7,511.7,672.9,568.9,631.9,572.2L631.9,572.2z M544.7,570c-28.3,1.5-27.7-44.3-0.5-42.8
						C573.7,526.9,570.1,570.9,544.7,570z M67.3,554.8c-26.2,3.1-45-11-64.5-10.1c-2.3,2.4-7,0.6-6.8-2.9c3.8-4-7.4-546.7,4-545.9
						h202.8c8.6,1-0.6,15.6,8.8,16.9C272,21,335.5,60.2,362,111.5c51.2,80.9-56.6,155.7-131.3,126.7c-20.6,5.7,41.8,47.2-27.3,87.2
						c-25.1,15.9,102.3,17.1,60.4,94.2c-22.5,38.2-68.1,31.3-102.8,29C197.7,508.9,131.5,558.2,67.3,554.8L67.3,554.8z M679.7,497.6
						c-50.4-9.3-45.3-71.6,2.3-78.1C734.5,425.2,734.4,499.2,679.7,497.6L679.7,497.6z M562.3,460.2c-31.8-0.8-29.7-35.8-8-48.4
						c-30.5-34.5,23.8-66.9,35.3-24.6c1.4,9.5,10.3,3.6,16.3,3.1c48,1.5,16.7,63.9-17.4,33.2C574.1,429,594.4,459.9,562.3,460.2z
						 M923.1,430.8c-20.1,1.2-40.9-24.3-59.3-22c-33,5.6-71.5,20.6-100-6.4c-26.1-32.5-5.5-70.1,22.6-89.2
						c-24.3-37.2-2.1-66.5-26.2-58.8c-90.1,15.8-198.5-59.2-173-157.6c11-62.2,84.6-77.8,140.2-88.6c4-0.4,5.8-4.7,5-8.2
						c2.9-7.6,244.7-7.5,247.6,0c-3.8,4,7.5,396.9-4,396.1C950.4,389.9,963.2,431.1,923.1,430.8L923.1,430.8z"/>
					<path d="M976,588.2c-8-25.4-30-52.1-58.4-55.7c-3-0.3-8.8,1.5-10.6-4.7c-17.5-69.2-119.3-72.9-148.5-11.3
						c-2.4,6.6,0.1,21.7-15.7,16.4c-7.3-2.5-15.7,3.5-21.1-0.6c-12.5-9.2-27.1-16-37.3-28.8c28.8,0.4,47.4-28.5,41.4-55.7
						c-1-5.4-11.5-10.2-2.8-16.9c4.5-3.6,9.3-6.8,14.4-9.6c2.6-1.4,1.2-3.5,2.3-4.9c-5.6-4.6-11.4,1.1-16.5,2.6
						c-5.3,1.1-7.5,10.7-14.4,5.6c-31.9-23.4-74.3,4-67.9,42.7L609,437.8c44.1-7.4,27.3-63.3-8.7-50.6c-5.5,2.1-6,0-7-4.1
						c-3.9-15.3-18.3-22.5-33.8-18.7c-4.5,1.1-8.1,7.8-10.1,5.4c-8.9-10.4-16.7-21.8-24.4-33.1c-3.8-5.6-8.3-9.7-15.2-7.5
						c-5.4,1.7-8.9,5.5-9,12.3c-0.8,38.7,39.7,60.4,34.7,99.9c-2.8,14.5,15.9,27,30.7,23.1c1.4-0.4,1.7-0.6,2.9,0.9
						c8.5,10.9,16.7,21.9,27.2,31.2c5.6,4.9,18.1,10.6,4.9,22.2c-8.6,7.5-2.2,29.4-23.8,25.3c-1-0.2-2.2,0.7-3.3,0.9
						c-8.9,1.3-4.1-23.3-30.6-23.2c-24.4,0.8-17.4,23.6-27.7,22.5c-8.3-0.7-16.7-5.9-24.7-2c0.8,1.5,1.2,4,2.4,4.3
						c7.1,2.3,14.2,4.9,21.5,5.7c4,0.4,5.9,0.4,6,4.8c0.1,11.2,19.6,20.5,30.2,17.4c14.7-4.3,17.3-27.4,37-22.3
						c1.5,0.4,3.5-0.7,5.2-0.9s2.8,0.1,3.8,2.5c10.5,27.1,42.1,30.5,60.4,14.3c2.4-2.1,5.2-7.8,6.8-5.9c4,4.6,12,6.5,10.7,15.4
						c-5.3,36.6,19.9,61.6,49.7,69.9c4.6,1.3,12.9,0.2,8.5,10.7c-3,7.2-1.6,16.4,2.4,22.6c13.2,20.2,41,32.1,64,19.2
						c2.4-1.3,5.9-7,10.5-2.4c29.7,30.2-27.9,56.2-47.2,74c-5.9,5-8.9,1.9-12.9-2.9c-6-7.3-10.4-16-18.2-22.1
						c-13.9-8.4,12.2-12.2,0.8-39.9c-12.2-25.7-49.8-17.1-51.9,11.9c-0.6,13.5,11.4,25.9,24.8,28.3c5.6,1,11.3-5.6,16.2,0.8
						c36.1,50,37.5,23-26.3,68.1c-2.6,1.9-7.3,11.5-12,4.7c-40-53.1-91.1-95.5-143.7-135.5c-12.6-9.6-25.7-18.4-40.4-24.9
						c-4.8-2.1-12.3,1.5-14.2-5.1c-15.9-76.3-74.6-151.5-158.3-151.8c-12.6-0.4-24.3,2.4-36,6.6c-6.3,2.3-10.9,9-18.6,7.2
						c-18.7-7.3-85.3,6.1-87.6,25.7c-0.4,2,0.3,5.7,1.5,6.2c36.7,16.6,54.1,56.2,66.3,92.1c46.6,162,29.1,231.8,178.5,345.8
						c-18.8,1.5-39.1,8.7-45.7,28.4c-0.9,2.8-1.9,6.3-4,7.6c-8.4,5.2-15.1,12-21.1,19.6c-5.3,6.7-6.7,13.6-19,16.3
						c-22.6,4.8-43.1,18-62.1,32.1c-32.8,23.6-66.4,59.7-62.4,103.2c9.9,23.7,37.6,35.4,60.3,45.3c100.2,43.6,206.7,72.7,303,125.2
						c10.3,4.8-19.6,15.7-2.8,48.1c13.3,25.4,51.5,23,63.6-2.4c1.2-2.3,1.1-2.6,2.8-0.8c14.1,17,48,45.6,34.2,69.5
						c-5.1,6.8-13.8,3.9-20.9,3.6c-1.7-34.3-40.9-54.7-67.9-32c-8.7,6.8-14.9,19.5-28.9,10.5c-4.1-2.7-11.5,0.3-12.8-6
						c-2-9.8-4.1-19.3-9.6-28c-27.3-40.9-87.7-42.9-128-21.8c-1.2,0.6-2.5,2-2.6-0.6c-4.6-41.3-54-73.9-95.1-65.5
						c-7.5,1.9-15.3,10.3-23.6,4c-35.5-27.3-58.4-68.1-72-110.2c-19.5-61.4-33.4-124.7-50.1-186.8c-9.4-32.2-18.5-64.1-23.9-97.2
						c-3.2-18.4-9.3-36.5-10.8-55c-1.6-21.1-5.9-39.2-26.4-49.2C83,829.5,91.5,865,91.1,877c0.4,34.1,14.3,66.8,18.7,100.5
						c8.7,52.3,17.6,104.4,33.2,155.1c5.2,28.4,12.1,54.8,19.9,83c-29.1-33.6-57-66.3-79.5-104.7c-13.3-20.2-26.9-40.2-39.4-60.9
						c-3.5-5.8-8.5-7.9-12.4-6.3c-6.8,2.8-15,6.1-16.4,14.9c-3.1,33,32.8,78.9,48.9,107.9c30.3,48,66,92.2,101.5,136.4
						c6.9,8.6-3.1,12.2-4.5,18.3c-0.4,1.6-1.1,2.1-2.8,1.6c-17.1-4.8-34-9.9-50.2-17.4c-1.6-0.8-4.3,0.6-6.4,1.2
						c-0.2,0.1-0.3,2.1,0,2.3c11.4,6.3,23,12.3,35.5,16.3c10.4,3.3,22.7,3,24.2,19.6c2.2,21.7,35.6,33,51.6,17.9
						c2.4-2.4,4.8-3.3,8.1-0.4c9.5,8.4,19.4,16.4,29.1,24.6c1.8,1.5,2.4,2,1,5.1c-16.8,34.5-0.9,52.2-12.5,51.4
						c-41.8,5-73.8,33.6-61.6,78.7c-6.9-7.6-12.5-14-18.3-20.2c-5-5.3-7.7-9.5-3.5-17.9c30.9-53.8-48-106.3-84.2-47.9
						c-27.7,41,26.6,95.9,69.8,64c2.2-1.6,3.6-0.9,5,0.7c28.1,32.8,55.7,66.3,83.4,99.3c20,5.6-9.2-27.3-12.3-32.2
						c14.8,3.7,28.7,12.9,44.9,6.8c3.8-0.8,8.6-1.2,9.6,0.3c18.4,30.1,78.3,21.4,89.8-11.4c0.4-0.9,1.1-3.7,3.9-1.3
						c22.5,19.2,86.7,14.1,87.7-22.8c0.2-2.6,1.5-2.4,3.3-2.5c15.3-0.7,29-6.6,42.6-12.9c7.7-3.6,13.7-12.7,22.8-10.9
						c20.7,4,38.9,15.2,58.4,23c19.6,7.8,37.3,19.2,55.1,30.5c15.1,9.6,31.4,17.2,43.6,30.9c2,2.6,5.7,3.8,8.9,1.8
						c6.6-3-7.1-15.3-9.5-18c-45.4-33-98.1-54.7-149.6-76.7c23-19.9,11.5-39.3,23.8-34.7c13,4,24.2,7,20.8,24.4
						c5.9,14.1,12.5,24,24,28.5c15.2,5.8,41.3,3.1,50.2-15c4.9-8,9.3-16.2,22-15.3c13.1,0.9,25.3-12.2,23.4-25.3
						c-4.4-36.5-37.3-57.3-59.3-83c-24.9-33.1-46.1-69.1-72.8-100.9c-7.8-8.1-15.7-24.8-26.3-27.7c-0.3,1.5-1.5,3.6-0.9,4.5
						c4.2,6.5,8.7,12.8,13.1,19.2c23.8,30.7,48.7,59.7,67.9,93.5c-38.1-25.8-81.3-43.3-123.5-62c-12.3-5.8-26.2-7.8-36.4-18.5
						c-10.6-11.2-19.1-24.2-25.1-38.4c-6-13.8-10.1-28.4-22.5-38.3c-1.1-0.9-1.9-4.3-4.6-1.8c-5.4,4.9,9.7,15.7,10.5,21.9
						c7.2,18.3,14,36.8,29.4,56.1c-13.6-7.4-26-6.9-32.8-17.5c-10.5-23.6-31.6-40-43.4-63.1c-13.2-25.6-28.5-50.2-24.9-80.9
						c0.4-6.7-7.7-6.4-8.3,0.1c-8.2,56.6,37.8,105.3,70.5,146.9c-119.1-46.8-224.1-53-78.3-175.3c3.6-3.1,11.7-5.7,9.1-9.9
						c-3.8-6.2-8.6,1.7-13.1,3c-1.2,0.5-2.3,1.1-3.2,2c-33,28.3-78.4,59.9-73.8,109c0.1,0.6-0.2,1.8-0.5,1.9c-1.4,0.3-3.6,0.9-4,0.3
						c-24-18-8.2-52,6.2-70.9c23-32.2,57.1-54.8,94.8-66.1c5-1.6,9.5-8.1,15.1-4.1c6.5,4.6,12,8.1,19.2,1.5
						c18-19.1,47.2-30.9,68.3-12.3c2.2,1.8,4.9,2.9,7.8,3c14.4-2.1,8.8-29.3,32.7-27.4c27-5.4,54.8-9.3,81.6-16.7
						c10.9-3.5,20.2-8.4,24.9-19.5c2.7-6.5-4.2-9.4-6.2-13.8c2.4-1.5,4.7-3.4,7.3-4.3c7.6-2.7,15.2-17.8,23.1,1
						c1.6,3.9,2.7,6.8,2.5,9.3c-0.2,2.8-2.1,5-6.7,7.5c-7.5,4.1-13.8,10.2-20.5,15.7c-10.2,8.4-19.1,19.5-30.7,25.1
						c-33.8,17.1-71.6,23.4-107.8,34.7c-19,4.9-38.1,9.2-57.1,14.3c-3.4,0.9-6,4.2-9,6.4c3.9,4.3,12.2,1.3,17.4,1
						c41.6-9.6,83.3-18.2,123.7-32.3c-24.5,21.4-50.5,39.4-75.4,60c-4.9,3.8-10.9,10.6-15.2,9.8c-6.4-0.7-34.5-7.3-36.1-0.3
						c0,2.4,4.1,7,6.2,6.9c102.6,17,196.4,65.3,286.8,115c-38.1-4.6-75.6-10.3-112-22.4c-1.9-0.6-4.8,1.4-7.2,2.2
						c10.7,25.4,190.5,29.4,164.1,58.2c-16.2,20.7-8.5,39.5,1.3,61c-24.5-26.5-51.5-50.1-85.7-63c-2.5-1-5.6-1.6-7.3,0.8
						c-2.3,3.2,1.2,4.4,3,5.6c5.6,3.8,11.1,8.2,17.3,10.8c17.9,7.4,31.2,20.9,44.8,33.6c14.8,13.8,28.5,28.8,43.2,42.8
						c2.1,2,6.9,1.3,10.4,1.8c0.1-1.4,0.7-3.1,0.2-4.2c-8.7-17.7-19.6-34.4-27.1-52.7c-2-6.2-2.5-12.4,0.5-18.1
						c11.6-21.6,14.9-49.3,41.1-62c19.3-9,15.6,28.2,9.5,38.5c-6,8.1-6.3,17.3-5.3,26.6c0.3,2.8,4.3,7.6,5.3,7.3
						c6-2.4,1.2-13.4,2.6-18c49.8,26.3,93.2,61.2,135.2,101.4c-14.4-7.3-26.9-11.9-41.4-18.1c-2.7-1.1-6-2.3-7.9,0.7
						c-2.4,3.7,1.4,5.3,3.7,6.5c30.6,14.1,59.9,30.7,89.7,46.3c4.5,1.7,8.5-1.2,5.7-6.3c-37.2-43.1-85.7-75.3-130.6-109.9
						c-10.6-7.5-22.2-13.6-33.3-20.3c-0.6-0.5-0.9-1.2-0.9-1.9c16-8.3,36-10.5,53.8-14.3c3.9-0.6,3.8,0.9,3.9,3.5
						c1,23.7,37.3,42.4,57.6,29.8c37.1-17.7,26.8-74.4-12.5-78.8c-16.7-2.1-30.3,5.3-39.6,18.2c-4.6,6.2-3,18.5-12.5,20.4
						c-19.8-0.4-40.1,6.5-58.2,15c-1.9,1-7.5,2-6.5-3.5c1.7-9.8,5.3-19.3,4-29.7c0.4-7.8,12,1.8,16.3,1.9
						c19.1,5.7,51.1-0.1,60.4-21.7c1.4-3.4-1.3-9.9,5-10.1c48,3.2,83.3-48.3,51.5-88.3c-17.4-19.8-42.4-33.9-68.8-27.6
						c-0.8-15.5-7.3-29.4-17.1-42.5c7.1,1.3,13.8,4.4,19.4,3c8-2,20.8-3.7,18.4-15.4c-1.8-8.9-9.3-14.7,2.1-23.8
						c6.3-5-2.6-13.1-9-18c17.4,0.7,24.3-20.9,8.1-29c-6.1-2.8-5-5.8,0.7-9.5c6.3-4.1,10.9-9.1,7.3-18.7
						c-9-23.8-42.7-12.4-62.5-16.7c-28.4-3.1-55.2-11.5-81.8-20.8c-5.2-1.8-6.8-8.3-8.4-13.6c-0.9-3.1,2.7-3.2,4.3-4.4
						c18.5-14.1,36.6-28.8,55.8-41.8c20.5-19.6,19.7-13.4,46-11c10.1,0.4,20.2,10.2,17.9,18.4c-2.5,24.6,19.5,43.1,44.2,41.5
						c45.7-9.3,51.6-65.4,0.5-79.3c-13.8-5.1-27,3.5-36.5,15.3c-1.2,1.4-3.8,3.5-4.7,3.1c-11.5-5.5-23.3-9.4-36.5-10.2
						c14.8-9,26.6-21,41.5-29.1c25.1-15.7,64.9-50.7,57.2-83.4c-7.5-28.8-14.8-37.2-37.6-56.2C944.7,674.9,992.2,642,976,588.2z
						 M543.2,565.9c-20.3,0-22.1-33.3-0.5-34.7C571.1,530.2,562.7,569.8,543.2,565.9z M708.9,736.5c-18.9,2.5-28-34.9-3.5-36.1
						C730.7,696.6,735.7,736.5,708.9,736.5z M77.3,1444.4c7.3-11.3,15.8-21.2,37.3-22.1c12.7,2.3-6.4,13.3-2.5,19.2
						c0.2,0.2-0.9,1.1-0.9,1.7c1.5,22.8-12.6,9.3-20.6,8.4C87,1451.2,73.2,1450.4,77.3,1444.4z M123,1496.8
						c-24.4,3.8-44.8-8.7-48.7-34.8c-0.4-2.1-0.1-4,2.5-3.5c22.4,4.6,45.8,12.4,60.1,31.3C132.3,1492.2,127.8,1494.8,123,1496.8z
						 M144.7,1480.7c-1.4,2.8-3.1-0.3-4.3-1.5c-4.1-4.2-7.8-9-13.5-11.2c-17.1-6.5-4.3-18.5-5-27.9c-0.2-2.7,2.2-5.6,3-8.5
						c2.5-9.7,8.6-4.6,11.6-1.8C151.9,1442.1,155.4,1464.1,144.7,1480.7z M192.9,1359c-17.3,3-34.3-29.7-17.1-24.8
						c11.7,3.8,18.1,13.7,24.6,23.2C201.3,1358.7,200.9,1358.9,192.9,1359z M217,1327c-3.9,8.5-34.3-1.9-43.1-2
						c-1.8-0.3-3.8-0.4-2.5-2.7C180.9,1303.8,213.4,1305.4,217,1327z M211.5,1351.8c-5,4.6-10.5-9.2-14.3-12.2
						c7.5-0.9,14.2-3.2,21.6-1.9C217.6,1343.1,216.1,1348.3,211.5,1351.8z M250.1,1375.1c-8.4-6.3-17.8-11.8-24.8-19.5
						c-4.3-4.7,1.1-12.3,2.5-18c5.3-26.3-27.5-48.8-49.5-33.6c-11.4-10.9-52.7-119.9-66-110.5c-5.4,3.8,2.2,7.8,4.1,11.3
						c9.6,17.5,19.1,35.1,25.4,54.4c-18-28.3-40.6-52.9-58.8-80.9c-25.5-32.7-44.3-70.1-61.3-107.8c-2.1-5.8-0.7-12.6,5.9-16
						c8.3-4.2,11.3,3.9,13.9,7.9c8.7,13.5,15.6,28.2,24.1,41.8c32.6,52.6,73.3,98.9,115.8,143.7c2.3,2.3,6,3.6,8,6.8
						c0.9-0.1,1.7-0.4,2.4-0.9c3-2.6,0.7-5.6-0.9-6.9c-15.9-12.8-19.5-30.5-22.7-49.5c-9.5-28.2-14.9-58.7-21.2-88
						c-8-50.5-25.2-99.1-32.7-149.5c-5.1-36.5-19.7-71-14.6-108.5c6.2,5.7,15.9,8.5,18.8,16.4c7.7,27.4,8.8,56.7,14.6,84.6
						c6.3,42.2,20.2,82.6,31,123.5c6.9,33.9,16.4,67,25.8,100.3c10.9,34.7,18.2,70.6,35.3,103c13.7,27.5,33,50.2,56.1,69.9
						c3.8,3-7.3,8.2-9.3,10.8c-0.3,0.2-2-0.9-2.7-1.7c-7.3-8.8-14.5-17.7-21.8-26.6c-1.1-1.3-2.1-2.5-3.2-3.8
						c-2.2-1.5-6.2,1.6-5.8,4.1c0,1.2,0.5,2.4,1.3,3.2c7.2,8.2,12.4,18.1,21.1,25c8.8,6.9-0.4,11.7-2.9,16.6
						C255.2,1382.5,252.6,1377,250.1,1375.1z M338.2,1576.5c-17.9,13.5-73.3,10.8-58.1-22.1c8.3-15.8,23.5-21.1,39.5-22.7
						C348.5,1533.7,367.3,1564,338.2,1576.5z M430,1558.9c-19.3,6.3-38.3,7.4-57-1.9c-14.2-7.4-3.5-30.7,6.8-37.5
						c13.6-8.6,28.5-9.4,43.1-1.5c6.6,3.6,14.2,5.7,18.1,13.4C446.4,1541.9,441.4,1555.2,430,1558.9z M525,1495.2
						c-11.4,10.9-65.5,43.4-77.5,29.9c-7-6.7-9.8-13-5.7-22.7c5.2-17,9-34.6,17.8-50.5c1.1-2.5-0.4-3.8-2-4.9
						c-6.5-3.6-24.6,51.8-24.5,59c-0.4,2.3-1.5,5.6-3,4.6c-3.8-2.4-11.6-1.9-11.3-6.3c2.1-24.1,8.7-47.6,19.4-69.3
						c1.7-3.4,1.8-7.4-1.5-9.1c-2.9-1.5-3.4,2.6-4.5,4.6c-11.3,20.3-20.3,42.2-20.3,65.2c0,14.3-7.8,5.6-13.7,9.3
						c-3.5-23.7,1.6-48.9,8.4-72c3.7-8.3-4.9-10.8-7.4-2.4c-8.2,22.5-11.8,46.4-10.5,70.3c0.5,10.6-9.6,7.1-13.7,11.6
						c-1.3,1.4-1.2-5.5-2-8.5c-3.6-13.5-2-27.3-1.8-41c0.3-16.1,2.4-32.2,3.8-48.3c0.2-2.4,2-6.7-1.1-6.4c-2.5,0.2-6.4,4.6-6.7,7.4
						c-2.2,18.9-4,37.9-4.5,56.9c-0.3,9.9-0.3,19.8,0.2,29.7c2.1,14.6,6.3,19-3.2,33.5c-11-32.2-15-61.4-14.8-94.4
						c-0.5-10-1.4-19.9-1.9-29.9c-0.1-2.6-1.6-2.4-3.3-2.5c-3.9,0-4.8,3.6-4.7,5.7c2,39.8,0.2,81.1,15.4,118.9
						c0.5,1.2,0.4,2.8-1.3,1.9c-20.4-6.3-20.6-29.7-26.3-47.1c-5.2-19.2-8.6-38.9-10-58.8c-0.1-1.1-2.2-2-3.3-3
						c-8.5,18,1.9,48.6,6.2,67.7c2.7,9.6,3.9,19.6,8.9,28.4c0.2,0.4-0.6,1.5-0.9,2.2c-4.5-2.5-10.9,2.7-14.1-2.3
						c-14.9-21.2-21.4-46.2-30.6-70.1c-0.8-2.2-1.7-1.1-3-0.6c-3.4,1.3-3.9,3.7-2.8,6.7c7.2,20.4,11.5,42.3,24,60.3
						c8.2,11.7-5,9.3-6.9,14c-13-17.2-24.6-35.3-41.6-48.9c-1.8-1.6-4.7-4.7-7.8-1.8c-3.4,3.2,0.8,5,2.2,6.5
						c4.9,6.1,45.4,47.9,37.2,52.2c-9.7,7-8.2,28.6-18.8,28.2c-77.9,3.6-112.8-104.7-24.1-115.8c10.2-0.6,19.2,0.8,14.3-16.1
						c-8.1-39,35.1-90.5,72.8-89.5c31.5,3.2,57.4,15.6,70.2,47.1c2.9,7.1,4.3,23.1,15.4,17.3c36.3-17.7,86.9-16,115.9,15.2
						C540,1442.3,543.1,1479,525,1495.2z M606.7,1505.5c1.1,15.1-8.6,7.4-15.3,1.7c-7.4-6.9-13.2-14.9-9.4-27.4
						C611,1484.9,617.7,1474.7,606.7,1505.5L606.7,1505.5z M586.2,1470.8c-4.2-0.7-1.1-4.4-0.5-5.4c8.2-14.5,32-19.6,46.2-10.4
						c2.9,1.9,4.1,3.4,0.8,5.5c-7.2,4.6-10.3,16.7-18.4,13.5C602.2,1472.7,594.1,1472.1,586.2,1470.8L586.2,1470.8z M618,1516.7
						c-4.9,1.3-3.1-3.6-2.8-5.4c3.7-17.3,11.2-35.7,26-46.2C656.7,1485.5,640,1513.1,618,1516.7z M614.2,1403.1c6,0.6,16-2.2,17.8,3
						c0.9,3.8-5.4,9.2-10.8,11.6c-12.3,6.4-26.2,3.1-34.5-8C594.6,1405.3,606,1401.5,614.2,1403.1L614.2,1403.1z M590.4,1371.7
						c9.9,0.9,15.6,12.6,20.2,20.7c-8.3,1.7-17.1,1.4-24.6,6.4c-1,0.7-4,0.5-4.5-0.3C576.6,1392.1,582.8,1372.1,590.4,1371.7
						L590.4,1371.7z M919.5,1264.7c7.1-21,10.6-6.5,16.2,0c4.2,4.9,3.7,10.9,5.4,16.3c1.3,5.8-2.9,10-5.3,14.1
						c-2.7,4.8-4.3-1.4-6.3-2.3C913.6,1285.6,913.9,1281.3,919.5,1264.7L919.5,1264.7z M878.1,1270.1c4.5-14.2,20-23.7,34.7-21
						c4,0.7,2.5,4.1,1.7,5.3c-5.5,8-5.6,17.5-7.9,25.4c-8.1-1.6-16.2-3.7-24.5-4.6C878,1274.7,876.8,1274.4,878.1,1270.1
						L878.1,1270.1z M888.4,1284.7c13.9,3,27.1,7.9,38.3,17.3c6.6,5.1-15.2,9.7-18.6,9c-15.7,0.9-26-8.1-30.4-21.3
						C874.5,1280.5,885.1,1284,888.4,1284.7L888.4,1284.7z M925.3,847.3c11.9,7.6,10.8,17.2,12.6,29c-2,5.4-9.4,26.8-17,17
						c-14.5-14.4-4.2-28.3,0.4-42.2C921.9,849.6,924.9,847.1,925.3,847.3L925.3,847.3z M881.4,853.3c5.2-8.7,14.2-14.6,21-13.2
						c25.5,1.8,4.7,11.6,7.8,16.8c0.5,0.8-1.3,2.7-1.7,4.2c-4.6,22.6-11.9,0.9-17.3,0.2C888.6,860.8,878.4,858.4,881.4,853.3
						L881.4,853.3z M882.8,867.1c11.4,8.4,23.1,16.6,28.5,30.6c2.4,6.3-2.6,4.5-4.6,5.2C876.8,902.7,866.2,856.4,882.8,867.1
						L882.8,867.1z M711.1,439.8c14.6,16.7,2.8,49.1-18,52.7c-3.8,0.7-5-0.3-3.8-3.4C694.6,456.5,684.8,465.2,711.1,439.8z
						 M681.1,423.5c6.2,1.4,13,2.3,18.2,5.6c13.8,8.9-5.8,9.2-4.4,15.2c-3.6,0.6-5,3.8-6.8,6.1c-4-6.5-4.2-14.8-10.5-20
						c-1.2-1-1.6-3.1-2.3-4.7C677.2,424.9,679.4,423.1,681.1,423.5z M665.3,430c2.8-0.2,7.2,6.9,9.1,11.3
						c8.8,17.7,7.5,34.8,5.2,52.3c-15.3-1.2-26.6-14.3-31.8-28.2C644.5,455.7,654.8,430.9,665.3,430z M606.2,394.2
						c24.8-3.3,27.8,32.9,3,33.3C587.2,429.1,584.6,396.2,606.2,394.2L606.2,394.2z M567.6,371.6c26,0.1,23.4,37.9-4.9,35.3
						C542.8,403.1,544.8,370.3,567.6,371.6L567.6,371.6z M512.9,359.9c-2-4.6-3.6-23.3,4.9-18.5c9.2,12.6,17.9,25.7,26.4,38
						c-5.9,12.8-0.8,21.4,6,29.7c1.8,2.2-1.1,2.7-2.1,4c-1.8,2.4-3.4,1.4-4.5-0.3C532.4,395.8,519,380,512.9,359.9z M565.3,456
						c-28.8,4.1-32.3-36.6-5.4-37.6C583.6,416.1,586.6,453.8,565.3,456z M603.6,541.4c-4.5-14.8,13-31,27.7-30.4
						c6.6,0,12.5-0.6,6.2,9.1c-5.3,5.2-0.8,30.2-13.2,23.3c-1.8-1-4.6-0.1-6.8-0.5C612.7,542.1,605.7,545.6,603.6,541.4z
						 M642.8,565.4c-16,8-29.5-1.5-38.6-14.7c14.6,1.7,28.2,1.9,39.1,11.7C645.3,564.3,644.6,564.3,642.8,565.4L642.8,565.4z
						 M656.5,554.4c-1.1,1.8-3.2,2.8-4.9,4.2c-2.7-4.9-10.2-6.2-10.5-12.7c-0.4-10.7,3.8-20.5,6.6-30.5
						C661.6,525.9,665,540.5,656.5,554.4L656.5,554.4z M679,561.3c-3.2-4.3-10.8-6.2-9.7-12.6c5.8-24.5-15.7-52.2-41.6-46
						c-17,4.3-29.6-25.5-41.1-34.5c-8.8-7.7-7-13.1-0.2-20.7c5.1-5.6-1-13.3,1.5-19.5c37.6,38.8,75.2,78.3,121.6,107.8
						c-11.5,6.9-22.9,12.7-28.8,24.9C680.3,561.1,679.6,561.3,679,561.3z M776.5,696.9c-13.2-0.5-34.5-16.2-34.4-25.2
						c0.2-23.7,8.9-32.7,31.7-32.6C819.1,640.3,824.8,696.6,776.5,696.9L776.5,696.9z M439.6,993.8c6.6-0.8,14.4,6.6,21.4,10.9
						c2.4,1.4,0.2,2.1-1.5,2.2c-21.6,0.6-43.2,3.1-64.4,7.6C406,998.8,423.3,995.8,439.6,993.8z M591.1,943.6
						c-21-4.5-37.5-16.1-53.2-29.2c-4.1-3.4-3.6-12.2-5.2-18.6c43.1,22.8,89.4,45,139.3,45.1c10.3,0.3,20.3-4.7,31.1-0.2
						c6,2.5,13.2,2.1,21.9,3.3C674.6,956.9,640.2,958,591.1,943.6z M535.9,869.6c-0.3-1,4.9,1.1,7.6,3c10.6,7.4,22.9,10.9,35.1,14.4
						c10.5,3.1,22.9,3.2,31.5,9c21.1,14.4,39.3,25.3,64,35.4c-50.4-4.5-96.3-21-139.3-46.2C528.4,881.1,537.4,875.3,535.9,869.6z
						 M539.9,852.8c5.3-2.8,2.5-9.6,6.1-13.5c11.5,14.2,24.2,27.6,40.2,40.1c-15.9-4.6-31.3-11.1-45.7-19.3
						C537.1,858,533.5,856.2,539.9,852.8L539.9,852.8z M546.5,1167.1c-18-6.8-36-13.5-53.9-20.4c-2.9-1.1-1.1-4.2-2.1-8
						c1.8-4,3.5-9.6,6.9-14c21.1,4.3,42.1,22.6,51.2,42.6C547.9,1167.3,547.2,1167.2,546.5,1167.1L546.5,1167.1z M504.4,1116
						c6.5-3.8,14.7-6.2,21-8.9c23.8,6.5,26.9,1,13.4,24.7c-0.7,1.2-1.4,4.4-3.8,2.2C526.2,1125.3,514.7,1121.8,504.4,1116z
						 M546.2,1145.5c-5.1-5.9,5.1-19.5,8.9-24.9c12.7,11.2,14,33,2.8,45.7C554.9,1159.1,551.9,1151.7,546.2,1145.5L546.2,1145.5z
						 M565.5,1174.5c-2.6-1.4,1.6-6.2,3.2-9.1c29.1-66.4-71.2-94.3-86.3-25.3c-2.5,7.5-9.9,0.1-14.7-0.6s-9.1-4.3-14.4-4.8
						c-1.1-0.1-2.1-1.5-3.1-2.2c58.1-44.7,116.6-88.6,172.4-136.1c6.7-6.1,6.4,11.2,15,7.2c3.6-2-0.3-5.8-1.5-7.9
						c-6.5-11-13.9-22-20.7-32.5c19.9-5.3,21.8,14.1,31.2,23.5c4,4,7.1,8.9,10.8,13.2c1,1.2,2.5,4.3,4.5,1.5
						c4.2-7.8-14.2-25.5-16.6-34.5c1.5-0.6,3.1-1.9,4.5-1.7c10.8,0.5,15.9,9.5,21.9,17.5c2.6,1.9,8.9,11.9,11.7,9
						c6.8-4.8-9.6-20.4-12.1-26.3c10.9-2.1,22.5-5.5,27.6,6.4c19.3,27.5,43.9,51.7,74.4,66.8c-38.5,2.1-76.9,26.5-82.3,66.8
						c-0.1,2.5-1.4,3.6-3.4,1.5c-16.5-14-36.6-14.1-55.8-11.4c-37.9,7.1-58.3,60.5-36,91.6C584.8,1182.6,574.7,1179.4,565.5,1174.5
						L565.5,1174.5z M769,1242.6c-21.5,14.9-57,10-62.3-16.1c0-28.7,38.3-36,60-25.2C784.5,1209.4,785.6,1232.8,769,1242.6z
						 M870.6,1232.4c-9.6,32-74.7,26.3-80-6.6C796.1,1187.3,872.2,1196,870.6,1232.4L870.6,1232.4z M852.9,1101.7
						c6.8,20.6-2.8,23.7,21.5,19.2c30.7-2.6,66.8,29.2,61.8,61.7c-5.1,20.9-20.3,30.6-40.9,37.1c-21,6.6-22.5-15.4-35.6-19
						c3.4-6.2,37.7-41.7,27.7-46.1c-6.1-1.1-7.2,6.5-10.3,10.4c-8.2,10.4-16.1,21-24.5,31.2c-1,1.2-4-2.9-10,1.3
						c7.6-9.5,31.9-55.1,22.3-58.9c-2.9-0.8-3.8,3-4.5,5.2c-5,16.1-13.8,30.5-21.3,45.4c-2.3,6.5-9.4,4.3-14.1,3.2
						c-2.5-0.4,1.6-2.9,2.2-4.7c5.9-17.5,12-34.9,17.7-52.5c0.6-1.8-1.6-6.4-2.4-6.4c-6.4,0.2-5.6,6.8-7.1,10.4
						c-3.2,7.7-6.2,15.4-9.1,23.2c-3.9,10.3-7.7,20.7-11.8,30.9c-0.9,2.2-6.7,3.8-9.8,3.3c-3.3-0.6-0.4-3.7,0.1-5.8
						c2.8-12.3,6.8-24.3,9.6-36.7c1.9-8.1,2.9-16.4,2.9-24.7c0.4-5.3,5.2-17.1-0.9-19.6c-4.1-0.5-4.6,6.2-4.9,9.1
						c-5.3,31.5-10.2,62.7-25.2,91.6c0.8-35.6,2.9-69.3-1.3-104.2c-0.5-3.9-4.1-10.8-4.9-10.6c-5.5,1.3-3.5,6.2-3,10.1
						c3.2,25.7,2,51.5,1.8,77.3c0,5.2-1.6,10.5-3.3,20.6c0.4-8.5-3.2-9.8-5.2-9.9c-10.9-0.3-6.7-7.7-7.5-13.6
						c-1.4-9.9-0.9-20-1.4-30c-0.4-7.4-1.3-14.8-3.9-22c-3.4-5.3,1-19.9-6.4-20.9c-2.5,0.1-2.2,2.5-2.1,4.3c1,24.2,5,48.2,4.3,72.5
						c1.5,7.6-8.2,6.9-10.1,1.3c-5.5-17.7-7.2-36.5-16-53.2c-3.8-4.8-5.9-19.3-13.5-17.1c-1.3,0.4-2.3,1.9-1.3,4
						c4.7,10.8,10,21.4,13.2,32.7c3.3,11.7,4,24,7.8,35.6c0.2,0.7-6.3,4.3-10,5.5c-3.4,1.1-1.7-2.5-2.4-4
						c-7.9-18.9-14.9-38.3-29.2-53.8c-1.7-1.8-3.8-5.9-6.5-3.2c-4.1,4.1,0.8,8.1,2.7,11c8.3,12.2,14.7,25.6,19,39.7
						c2.4,5.1,10.4,12.6,3.3,18.2c-2.3,1.6-3.7-0.8-4.9-2c-9.3-9.5-39.4-42-52.3-38.7c-0.2,1.9-1,3.9,1.3,5.8
						c13.4,10.3,26.8,20.7,38.4,33.1c21,16.8-11.2,14.5,11.3,48c-26.9-14.3-53-31.2-81-43.9c-17-8.3-25.3-22.8-27.8-40.3
						c-6.4-45.1,50.2-72.9,86.9-49.2c10.5,5,13.4-0.4,15-6.6C714.5,1034.1,832.2,1028.3,852.9,1101.7L852.9,1101.7z M752.9,940.5
						c13.1-8.3,20.9,4.5,31.5,5.7c23.1,3.7,45.8,12.5,69.6,10.8c7.4-1,14.8-2.6,22.2-2.8c5.6-0.1,11.1,2.4,10.6,9.3
						c-0.4,6-4.3,9-10.7,9.5c-14.5,1.1-28.7,2.8-43.3,0.4c-19-3.1-37.5-7.6-55.4-14.7c-4.4-1.1-20.1-7.1-21.9-1.6
						c-0.2,0.8,2.1,3,3.6,3.7c20,9.3,39.5,19.1,62.5,20.9c14.2,1.1,28.4,4.3,42.6,2.9c7.3-0.7,22.6,7.6,23.9,15
						c2.6,21.6-63,2.9-74.7-0.3c-17.6-5-33.4-13.6-49.6-21.6c-6.3-4.7-10.8,0.9-3.6,4.8c31.8,25.1,73.6,33.4,113,37.2
						c6.7,0.6,11.6,5.1,9.7,12.4c-1.2,4.8-6.9,4.5-12.6,5.3c-35.7-7.3-72.1-19.8-103.5-39.2c-15.6,0.7,36.1,28.5,39.9,29
						c18,7,36.6,12.6,55.5,16.5c5.8,1.2,12.6,4.1,15.8,11.7c2.7,6.3-1.4,6.5-4.5,6.7c-26.2,1.7-48.7-14-72.6-22.2
						c-40.1-15.3-69.5-46.3-98.3-77.1c-2.6-2.7,1.7-2.5,2.6-2.7C722.7,957.5,738.3,949.8,752.9,940.5L752.9,940.5z M740,933
						c-57.3,4.7-105.3-34.4-149.8-65.2c-37.5-29.2-65.2-69.1-79.5-114.3c-1.1-2.7,1-8.6-3.8-7c-13.5,7.7,17.3,60.6,21.8,71.4
						c-29.1-15.3-57.2-32.3-81.8-54.4c-12.8-9.9-20.7-23.9-30.7-36.3c-1.5-1.9-3.6-5.7-7.4-3.1c-4,2.7-1.2,5.9,0.4,8.2
						c27.4,39.3,66,70.3,108.6,91.7c5.2,2.7,9.8,6.3,13.8,10.6c2.5,2.5,5.5,8.8,4.6,9.6c-3.9,3.8-9.8,4.6-14.5,2
						c-20.1-11-40.5-21.7-59.8-34.1c-18.3-11.8-35.3-25.7-47.3-44.6c-1.4-2.2-2.5-5.7-6.3-5.5c11.7,50.7,70.9,67.4,109.5,93.6
						c4.9,3.1,12.3,8.5,7.9,16.8c-6,11.4-13.3,2-19-0.4c-31.9-12.8-56.1-36.6-82.1-58.1c-1.8-1.4-3.4-4.7-6.1-2
						c-8.5,4.9,48.3,52.1,55.8,54.3c12.8,6.9,25.7,13.7,38.5,20.6c5,2.6,16,16.5,10.6,21c-18.7,4.8-57.4-19.6-73.4-30.5
						c-45.3-33.4-82.1-85.1-81.4-143.3c0.6-40.6,27.9-58.7,64.9-47.3c9.4,3.5,14.7-2.9,4.7-7.3c-45.6-21.5-85.5,9.2-82.9,59.9
						c1,49.5,28.4,92.5,62.4,126.9c32.3,30.2,71.2,52.7,115.7,56.7c5.9,0.8,11,8,16.3,12.4c15.3,12.8,33.2,19.2,52.7,23
						c-10.4,7.4-21.2,14.3-33.3,18.6c-8.3,2.5-10.1,12.3-0.3,12.8c4.2,1.6,12.4,1.5,11.4,5.9c-1.4,6.1-8.1,10.2-15.2,11.6
						c-21.3,4.3-42.6,8.6-63.9,13.3c-9.8,2-19.2,5.2-29.2,7c-8.4,1.5-13.7,8-15,16.8c-0.4,3.1-2.5,5.7-5.5,6.7s-3.8-1.9-5-4.3
						c-17.6-23.6-58.9-3.2-74.9,15.2c-6.2,5.6-13.1-2.6-7.9-8.3c30.1-48.9,95.1-27.5,139.1-45.6c-1.2-0.8-2.4-2.5-3.8-2.7
						c-25-4.1-46.2-16.4-65.2-32.3c-39.7-33.6-81.1-68.4-105.6-115.1c-36.4-72.5-39.2-156.8-68-232.1c-10.8-29.3-27.3-58.4-52.9-77
						c-3.1-2.6-11.1-4.5-9.7-6c19.7-11.3,47-19.1,69.7-14.9c3.3,0.8,6.8,1,10.2,0.6c11.6-1.3,21.1-8.7,32.6-9.9
						c17.2-1.9,34.7-0.4,51.3,4.4c56.7,16.7,97.8,71.3,110.2,126.9c4.9,21.2,22,18.8,33.2,27c42.4,28.5,81.5,61.8,119.2,96.3
						c37.6,35.2,66.4,78.2,95.8,120.1c8.1,11.8,15,24.3,22.4,36.5C743.9,932.1,742.7,932.7,740,933z M899.1,689.7
						c7.5,6.9,4.9,23-3.2,28.6c-20,16.8-40.8,32.6-63.1,46.3c-37.8,22.9-71.8,51-107.3,77c-7.6,7.8,0.8,13.4,7.4,6.3
						C782.4,808.2,834.8,773.3,886,736c9.3-7.4,19.6-13.2,26.6-23.2c0.4-0.5,1.3-3.2,2.2-1c1.8,4.2,6.2,8.2,3.2,13.2
						c-5.9,10-14.7,17.3-24,23.9c-23.7,16.6-47.3,33.3-71.3,49.5c-6.4,5.3-34.1,18.3-31.4,26.9c1.8,3.2,3.2,1,4.9-0.2
						c41.5-30.3,89.8-52.3,124.8-90.6c1.6,50.2-88.7,86.7-122.1,119.4c-19.2,15.5-39.8,29.3-59.8,43.8c-3.3,2.4-4.2-1.3-5-2.6
						c-13.6-22.9-27.5-45.6-44.2-66.4c-2-2.5,1.3-2.3,2-2.7c23.2-13.8,47.1-26.6,69.7-41.3c38.5-23.3,75.2-49.4,111.7-75.9
						c1.5-1.1,4.7-2.1,2.9-4.7c-1.7-2.3-3.8-0.9-5.8,0.4c-18.1,12.1-36.5,23.9-54.7,35.8c7.9-5.6,9.9-14.2,11.6-23.1
						c2-10.8-4.3-17.8-11.2-24.2c-6.1-5.3,2.3-13.1,6-5.9c14.8,17.9,40.3,19.4,58.8,9.4C888.8,691.5,888.9,678.3,899.1,689.7z
						 M884.1,676.3c-5.2,25.1-45.4,20.5-58,2.8c-8.7-10-2-25.5,10.1-27.9c5.1-0.8,9.9-3.8,15-1.9c11.5-2.1,18.8,6.3,27,11
						C882.1,662.4,884.7,671.1,884.1,676.3L884.1,676.3z M969.1,612.2c-2,33-42.4,55.9-73,48.3c5.6-8.5,45.1-32.4,37.9-42.8
						c-2.6-2.2-3.8,1.7-5.5,3.1c-13.7,11.6-27.4,23.1-41,34.8c-1.4,1.2-1.9,1.6-2.8-0.1c-0.9-0.9-2-1.4-0.7-2.6
						c14.6-16.1,22.7-36.4,34.6-54.3c1.6-2.5,2-7.1-1.6-8.9c-3-1.5-2.9,2.3-4.1,4.1c-11.4,17.8-22.9,35.6-34.9,53
						c-3.5,5-6.3-2.5-10.1-2.3c-3-1.4,9.6-16.3,10.3-20.2c3.5-6.8,24.3-57.6,13.7-58.9c-1.4-0.1-3.9,4.1-4.8,6.8
						c-6.9,20.9-12.4,42.5-25.3,60.7c-2.3,3.2-0.4,10.7-8.1,9c-10.6-2.2-3-9.3-2-12.2c6.2-18.3,11.7-36.8,15.1-55.8
						c0.5-5.7,3.2-28.3-3.7-29.5c-2.2-0.2-1.9,2.4-2.2,4.2c-2.8,21-5.7,41.9-13.3,61.7c-6.4,11.4-3.5,37-21.3,35.8
						c-2.9-0.1-0.1-5.3,0.7-8.3c5.3-21.2,20.4-89.9,1.7-104.2c-0.8,1.7-2.5,3.5-2.3,5.1c1.8,16.4,1.8,32.9-0.1,49.2
						c-2.5,21.5-7.6,41.6-12,63.5c-11.6-14.9-2.1-30.5-3.8-45.3c-1.6-10.1-2.2-53.9-11-57.3c-5.2-2.1-0.8,29.2-0.2,32.4
						c3.7,16.4,0.5,33.2,1.5,49.7c0.1,1.8-1.9,3.7-3,5.6c-3.1-4.3-12.9,1.6-12.3-6.9c2.2-16.5,0.2-32.7-3.1-48.8
						c-1.2-4.8-3.3-21.3-10.7-17.7c-5.8,3.9-0.7,9.3,0.5,13.3c5.2,17.4,4.3,35.3,5.1,53.1c0,0.2-6.1,0.7-9.4,1.1
						c-2.8,0.3-2.7-1.5-2.8-3.4c-0.9-15.7-5.3-30.9-10.5-45.7c-1-2.8-2.7-9.4-7.3-6.6c-5.4,3.3-0.4,8.9,0.5,13.3
						c3.1,14.4,7,28.7,9.8,43.1c0.2,1.2-4.5,4-7.3,4.9c-2.1,0.7-2.6-1.9-3.3-3.9c-0.7-6.3-22.1-43.1-28.6-36.6
						c-2.2,2.5-1.8,5.1,0.5,7.5c10.5,11.5,20.1,25.6,22.1,41.2c-24.5-7.9-52.8-19.2-56-48.4c-2.6-32,7.3-45.4,38.2-53.3
						c7.8-2,16-3.4,24.6-0.4c12.1,4.2,12.3-6.6,14.9-13.8c17.3-57.5,105-62.6,130.9-9.4c7.6,9.8,0.9,21.4,12.6,19.7
						C943,539,969.5,577.4,969.1,612.2L969.1,612.2z M976.1,1593.3c0.6,0.8,1,1.6,1.5,2.5c-0.5,1.2-0.9,3.1-1.3,3.1
						c-1.6,0.1-3.2-0.3-4.7-1c-26.7-16.3-49.2-37.5-71.9-59c-37.3-35.4-60.7-81.3-99.2-115.2c-2.3-2.4-7.6-5.7-4.1-9.3
						c4.5-4.6,7.8,2.1,10.6,4.1c44.4,32.9,65.2,87.7,107.7,121.9c-25.5-53.6-40.7-112.6-74.3-162.5c-4.8-6,1.3-11.9,5.6-4.3
						C901.1,1440.3,901.2,1541.5,976.1,1593.3L976.1,1593.3z M652.6,244.3c35.2,16.6,75,24.8,113.8,17.7c-1.1,16.4-1.2,32.8,9.8,47
						c0.9,1.2,3.2,2.7-0.6,4.5c-24.6,12.7-38,40.7-30.9,67.9c5.3,45,62.6,54,98.2,41.4c38.8-16.9,57,28.7,92.6,16
						c27-9.1,40.5-34.5,33.3-61.4c-4.5-32.1-44-63.9-71.2-33.8c-9.5,9.6-15.8,21.3-12.2,35.3c1.1,4.2,2.2,12.2,8.2,11.6
						c3.3-0.4,1.5-7.7,0.9-11.9c-2.4-18.8,16.9-34.4,29-33.8c57.1,12.2,36.7,111.3-24.3,73.9c-34.3-29.9-66.5,2.5-104.3-5.7
						c-30.6-4.6-40.8-25.4-38-54c0.3-18.3,15.6-26.8,26.9-37.7c22.5,9.3,44.3,15.5,68.5,4.8c21.7-16.1,12.9,5.8,33.3,0
						c9.5-3.4,16.2-11.5,29.3-9.8c58.3,1.1,40.1-103.5-13.3-63.1c-11.1,10.8-24.3,14.6-39.3,11c-22.9-5.4-43,10.3-39.4,31
						c0.1,5.1,11.8,12.3,11.6,4.1c-5.2-4.3-3.8-9.2-1.5-14.3c3.6-8.1,10.7-10.6,18.6-11c15.4-2,23.8,18.8,13.3,29.7
						c-17.1,17.7-48.2,21.4-69.1,8.7c-14.7-11.3-19.1-28.5-19.6-45.8c0.4-5,2.8-9.5,10.7-11.7c6.4-1.8,12.1-6.1,18.4-8.5
						c13.4-5.2,18.1-23,36-22.4c15.9-0.4,26.5-18.7,44-16.2c28.5-11.2,42.2-57.4,14.7-76.3c-6.2-3.7-3.4-5.3-1.3-9
						c34.1-44.3-2.7-109.3-58-105.2c-26,1-49.5,11.5-71.6,25c-22.8,14-40.3,34.9-64,47.7c-9.6,5.9-30.9,4.5-27.5-10.3
						c4.3-13.6,9.3-26.9,22.7-34.7c5-1.9,2.1-9.9-3.1-7c-20,5.6-40.1,42.4-26.3,59.6c17.1,19.8,44.1,4.3,59.4-9.3
						c28.6-22,55.6-45.9,92.6-54c67.4-16.7,100.3,54.5,49.8,96.9c-24.6,20.1-71.7,43.2-93.8,9c-15.5-25.4,8.9-48.9,34.2-55
						c7.7-2.1,15.5,0.3,18.8,7.4c3.3,7.2-3.4,13.2-7,19.1c-4.5,5.8-1,9.5,5.2,6.1c9.7-6.3,18-22.2,11.3-32.8
						c-5.2-8.3-13.1-13.9-23-13c-32.6,0.5-70.3,36.3-53.5,69.6c4.3,7.5,9.3,12.5-5.6,14.1c-37.5,8.9-6.4,60.9,31.8,45.5
						c5.1-0.1,3.4-8-1.4-6.6c-8,2-16.4,1.3-24-1.9c-8.3-3.4-14.4-9.8-12.2-19.5c1.6-7.1,8.6-7.3,15.1-8.5c10.1-1.9,18.7,2.8,28,4.1
						c19.1,2.6,33.8,27.6,24.8,44.4c-27.8,45.8-91.6,45.7-136.8,29.7C606,224,557.7,129.7,608.6,61.4
						c28.1-33.5,94.2-46.3,136.6-50.5c3.4,0,8.7-0.9,8.9-5.7c-8.2-12.3-51,0.8-64.3,2.7c-32.6,5.8-66.7,21.3-89.8,46
						C549.3,115.2,582.6,213.2,652.6,244.3z M911.7,257.3c10.7-4.2,24.1-2.3,26.6,8c2.3,7.6,6.3,16-0.6,23.9
						c-6.5,7.4-10.8,17.7-23.5,16c-2-0.3-3.5,0.1-2-3.3C925.5,273.3,895.8,266.5,911.7,257.3z M874.7,310.6
						c6.7-8.2,7.9-19.1,4.8-29.1c-0.7-2-5.3-6.1-0.3-8.3c41.2-15.2,26.6,50.8-5.9,40.8C873.8,312.8,874,311.5,874.7,310.6
						L874.7,310.6z M868.1,152.3c6.5-3.8,11.8-9.6,17.8-14.3c4-3.1,6.8,0.8,9.2,2.9c6.7,6,7.6,14.8,9.8,21.9
						c0,13.6-19.3,37.6-30.6,37.2c-3.7-0.1,0.7-5.1,1.1-7.8C885.2,156,855.7,162.5,868.1,152.3L868.1,152.3z M823.5,169.4
						c10.9,0,19.8-8.6,30-7.9c26.6,4.1,7.6,56.6-14.9,50.9c-2.1-1.6-1.6-6.8-1.9-8.7c1.6-13.8-4-22.9-12.4-30.7
						C823.2,172,820.9,169.4,823.5,169.4L823.5,169.4z M779.4,1511.9c0.6,19-3.1,38-10.7,55.4c-4.9,11.5-12.1,22-18.7,32.7
						c-0.8,3.5-7.6,4.2-8,0c18.1-28.7,31.2-62.5,28.7-97.3c-1.3-21.3-2-43.3-16.2-61.4c-5.1-6.1,2.2-8,6-3.7
						C779.3,1459.3,778.1,1484.8,779.4,1511.9L779.4,1511.9z M745.1,1485.8c-1.3,36.5-26.2,60.7-54.5,65.2c-2,0.3-4.8,0.7-5.4-2.1
						s1.8-3.2,3.8-4.1c40.6-14.2,58.5-61.5,33.3-97.9c-33.8-56.3-84-100.2-126.2-149.9c-1.4-1.6-5.3-3.5-1.7-6.7
						c3.8-8.3,44.9,43,51.5,47.8C684.6,1381.4,739.9,1424.1,745.1,1485.8L745.1,1485.8z M442.3,1193.1c-1,0.2-2.1,0.5-3.1,0.9
						c18.5,14,36,29.3,48.3,49.3c4.7,8.2,29.5,37.2,22.2,45c-2.2,2.2-3-0.4-3.6-1.4c-24.5-38.8-51.5-77.2-92.2-100.3
						c-8.6-5.2-19.4-6.2-27.5-13.3c-24.4-19.5-13.9-56,11.4-68.6c10,3.3-19.4,20.5-14.7,41.7c1.9,15.4,12.2,22.6,25.6,26.6
						c41.4,12.8,87.7,18.2,122.8,45.6c3.9,3.3,10.1,9.3,7.6,12c-4.8,4.9-9.1-2.9-12.6-5.6c-14-10.7-29.9-17.5-46.6-21.3
						C467,1200.5,456.4,1190.4,442.3,1193.1z M333.6,536.9c-31.9,2.3-45.4,49.3-5.2,50.1C365.2,589.4,367.5,538,333.6,536.9z
						 M346.9,561.2c-0.8,12.1-8.5,16.2-20.5,15.7c-10.1,1.7-12-4.7-11.3-13.5C314.1,545.9,348.6,542.9,346.9,561.2L346.9,561.2z
						 M264,544.1c2.8,2.8,1.1,5.7-3.2,5.1c-6.6-1.2-24.1,2.8-25.3-5.7c0.5-3.3,3.4-5,7-5.3C251.2,535.3,259.2,538.2,264,544.1z
						 M97.8,559.3c44.6-5.5,99-49,77.9-98.2c-3.6-6.2,6.9-3.5,10.2-3.9c34.3,4.4,72.6-11.1,89.3-41.8c17.1-44.7-23.9-79.9-65.4-85.1
						c10.4-4.6,16-12.5,22.4-19.5c14-16.3,13.6-38.7,7.3-57.6c31.3,2.4,59.7,4.6,87.8-12c41.4-21.8,71.6-70.8,51.9-116.5
						C356,68,300.9,29.6,243.2,13.9C227,8.5,210,5,192.9,6.9c-5.2-1.4-5.2,5.1-0.7,6.1c39.5,7,80.1,16.2,112.5,41.1
						c66.7,48.9,101.9,125.8,13.5,175c-40.6,18.9-101.8,15.6-124.4-27.9c-4.6-8.6-6.1-19.6,1.3-28.6c15.9-24.2,64.8-13.5,59.8,17.7
						c-0.9,3.7-0.1,4.8,3.6,4.8c7.3,0,13.1-11.3,11.1-18.8c-2.7-9.6-10.4-14.6-16.5-21.1c-19.8-18.5-60.7-11.8-72.9,12.3
						c-0.6,1.4-1.7,1.6-3.4,0.1c-15.8-10.3-34.7-13.8-53.1-16.9c-30.7-4.1-62.1-3.3-87.2,16.3c-23.1,17.8-22.5,39-2.9,56.9
						c30.8,28.7,77.1,22.3,110.7,46c31,27-12.2,54.3-39.9,53.3c-17.9-0.1-34.7-7.2-52.5-6.3c5.8,17,50.4,17.4,66.7,21
						c-13,9.4-29.3,14.2-30.3,36c-0.9,20.6,22.7,42.4,39.7,43.2c16.6,0.5,11.6,4.4,14.1,15.6c-104.6-30.1-96.6,75.8-30,72.4
						c49.5-1.4,18.6-64.1-16.7-45.5c-4.8,2.2-6.6,9,0.6,9c7.3-3.4,14.6-2.8,21.3,0.6c11.7,5,16.4,21.7,0.1,24
						c-41.6,12.3-62.1-52.8-17.5-52.4c12.5,0.9,25-0.7,37.2,4c41.3,15.6,39.1,54,9,81.2c-37.6,30.4-92.7,31.5-136,13.3
						c-3.8-2.8-12.4-0.5-10,6.1c13.7,6.4,29.2,13,43.9,14.8C61.6,561.8,79.8,562.5,97.8,559.3z M145,173c6.8-0.2,27.8,4.2,29.9,10.6
						c-0.5,7.1,0.9,14.3,4,20.7c5.9,11.9-4,12.4-10.9,14.5c-10.3,3.2-41.3-6.9-48.1-15.3C110.1,190.3,128.8,170.2,145,173z
						 M169,296.8c4.3-45.9-47.8-53.9-81.3-62.3c-19.8-3.5-68.4-22.2-49.8-49c20.2-26.3,53.5-25.4,83.3-24.3c2.1,0,5.7,1,6,2.3
						c0.7,2.8-2.5,0.9-3.8,1.8c-25.7,14.6-29.1,46.9,1.6,57.3c15.7,6.6,37.4,14.6,52.6,2.8c8.6-6,14-0.9,18.6,4.3
						c6.7,7.7,16.5,10.8,23.6,17.8c14.4,14.1,16.9,29,9.1,46.7c-14.7,33.4-60.2,42.5-90.5,33.8C152.4,325.2,167.4,309.4,169,296.8z
						 M99.3,370.3c1.7-11.8,12.9-15.5,21.5-21.1c13.7-9,29-6.1,45.3-5.9c-19.4,14.8-21.4,31.9-12.2,52.3
						C143.6,428.1,93,397.2,99.3,370.3z M153.5,428.8c-8.1-8.6,2.8-30.9,15.5-21.7c16.9,11.7,60,1.8,53.4-24.3
						c-3.6-7.9-8.7-16.7-20.3-15.9c-6.9-0.4-14.3-0.3-18,7c1.7,0.3,3.4,1.2,5,0.9c10.1-2.1,20.2-0.5,23.1,9.6
						c2.5,8.9-6.6,13.2-14.4,16.4c-16.8,6.8-41.1-10.3-38.5-28c2.5-16.8,16.3-24.2,30.2-29.4c29.6-9.6,70.7,14,77.9,44
						c2.5,10.4-0.3,20.4-6.9,30.1c-16.3,24.4-38,30.2-68.7,30C177.4,449,164.7,442.7,153.5,428.8z"/>
				</g>
			</g>
		</g>
	</g>
</g>
<g>
	<g id="Layer_1_2_">
		<g transform="matrix( 1, 0, 0, 1, 0,0) ">
			<g>
				<g id="Layer0_0_FILL_1_">
					<path d="M52,1548v15l-37,37h946l-37-37v-15H52 M52,52V37.7L14.3,0H0v1600h15l37-37v-15V52 M924,52V37.7L961.7,0H14.3L52,37.7
						V52H924 M976,0h-14.3L924,37.7V52v1496v15l37,37h15V0z"/>
				</g>
			</g>
			<g>
				<path id="Layer0_0_1_STROKES_1_" class="st6" d="M961,1600h15V0h-14.3L924,37.7V52v1496v15L961,1600H15H0V0h14.3h947.4 M52,52
					V37.7L14.3,0 M15,1600l37-37v-15V52h872 M924,1548H52"/>
			</g>
		</g>
	</g>
</g>
</svg>
