<svg xmlns="http://www.w3.org/2000/svg" xmlns:xlink="http://www.w3.org/1999/xlink" viewBox="0 0 976 1600">
<style type="text/css">
	.st0{fill:#FFFFFF;}
	.st1{clip-path:url(#SVGID_2_);}
	.st2{fill:#FFEB5C;}
	.st3{fill:#333333;}
	.st4{fill:#D81E1E;}
	.st5{fill:none;stroke:#333333;stroke-width:2;stroke-linecap:square;stroke-miterlimit:3;}
</style>
<g id="Paper_Backing">
	<path class="st0" d="M960,22v1556c0,3.3-2.7,6-6,6H22c-3.3,0-6-2.7-6-6V22c0-3.3,2.7-6,6-6h932C957.3,16,960,18.7,960,22z"/>
</g>
<g id="Wikipedia_Cropped">
	<g>
		<defs>
			<path id="SVGID_1_" d="M960,22v1556c0,3.3-2.7,6-6,6H22c-3.3,0-6-2.7-6-6V22c0-3.3,2.7-6,6-6h932C957.3,16,960,18.7,960,22z"/>
		</defs>
		<clipPath id="SVGID_2_">
			<use xlink:href="#SVGID_1_"  style="overflow:visible;"/>
		</clipPath>
		<g class="st1">
			<path class="st2" d="M610.8,1312.7c-6.4-0.6-10.7-7.8-16.8-9c-8.9,2.9-17.5-1.6-26.3,1.7c-21.2-1.2-7.8-26.4-4-37.4
				c5.5-11.3,17.4-15.2,26.4-21.7c18-7.3,38.5-8.3,57.1-4.2c14.5,1.6,58.5,43.8,23.2,42.8c-11.6-7.2-18,9.8-30.2,5.1
				c-7.4,0.8-8.6,12.7-16.1,14C617,1301.7,617,1312.8,610.8,1312.7z M224.9,1307.5c-84.3-1.8-86.1-127.2-1.8-130.1
				C309.7,1175.9,311.7,1305.5,224.9,1307.5L224.9,1307.5z M226.9,981.4c-10.5-1.2-8.5-15.8-17.1-17.9c-11.1-1-19-6-24.7-15.8
				c10.6-57.3,107.5-60.4,129.1-9.6c11.8,52.7-13.5,21.4-36,29.2c-5.5-0.1-9.3,5.3-15,2.2c-6.6,1.4-10.3,9.2-16.8,11.2
				C240.1,980.5,233.5,978.6,226.9,981.4L226.9,981.4z"/>
			<path class="st3" d="M775.8,1604c-80-0.3-213.3,0.2-292,0c-18.5-21.5-37.3-46.6-60.8-66.4c-154.7-151.1-155.8-11.3-195.2-179.2
				c8.2-23.4,28.9,50.5,87.7,30.1c56.9-49.2,45.5,20.4,90.4-14.1c16.8-25,19.7-61.8,43.4-81c21.4,31.2,21.2,27.4,55.3,43.1
				c-5.2,20-21.4,38-22.4,59.6c-0.9,17.4,8.3,30,23.2,34.1c9.5,0.8,22.9,14.9,30.7,6.3c46.3-37.3,31.5-65.7,59.2-68.8
				c21-10,23-26,46-12c56.7,13-9.1,87.4-25.3,113c-4.2,16.4,28.4,12.2,38.1,21.7c19.1,9.9,39.9,18.7,67.5,28.7
				c49.3,17.8,66.2,53.6,110.2,76.3C853.5,1610.9,777.4,1601.7,775.8,1604z M653.5,1124.6c-43.4-50.3-108.6,17.2-45.9-61.4
				c60.5-62.2,3.8-164.9,54.2-143.1c24.5-5.1,39.4-24.2,36.1,15.1c1.9,10.5-3.2,49.6,12.9,42c64.7-59.2,29.4-157.3,38.5-234.5
				c-3.5-17.5,14.8-43.7,4.4-55.5c-7.5-55.1,9.7-117.4,10.7-174.9c0.6-39.5,9.7-171.5,52.3-70.6c1.7,33.8-0.2,68.5-0.9,102.5
				c-0.5,36.9-4.2,73.5-3.8,110c-3.3,10.3-11.6,10.8-18.2,15.3c-30.8,22.9-27.8,76.5,3.8,94.8c24.5,23.8,7,58.4,13.6,88.3
				c3,27.8-13.3,30.8-29.7,40.3c-32.2,77.6,23.8,73.8,11.9,100c-15,17.7-27.8,36-42.4,53.4c-10.9-0.1-7.7,14.1-13,20.2
				c-5.3,9.2-13.9,15.1-24.8,17.1C691,1087.3,672.7,1113.2,653.5,1124.6z M165.9,1076.5c-8,1.2-9.4-43.4-9.3-51.7
				c11.1-3.7,21.6,12.2,35.3,9c21.1,0.3,31.6-6,41.2-28.4c10.5,7,14.3,22,29.8,26.7c4.1,1.1,5.1,14,2.8,18.5
				C232,1047.4,191.9,1049,165.9,1076.5L165.9,1076.5z M181.8,856.4c-10-7.3-31.7-0.3-29.8-15.5c2.8-29.2-0.8-67.9-2.3-99.2
				c-2.6-57.2-5.3-113.7-10.4-170.7c-5-47.8,7.6-96.3-4-142.8c-7.1-29.6-7.7-61.3,2.9-89.3c1.6-3.9,2.4-9.1-2.3-11
				c-6.6-18.3-0.2-43.4-2.5-62.9c4-27.6-42.7-187.1,18.6-162.8c32.8,14.6,19.1,74.8,25.6,105.8c7.4,68,25.4,137.2,19.5,205.1
				c-11.8,26.2,6.4,53.6,7.7,83.2c1.1,32.3,16.5,67.9-6.6,94c-7.7,23.4,0.1,49.7,22,62.7c5.4,3.9,5.1,14.6,4.1,18.5
				c-5.4,34.2,12.9,67,5.8,102.4c-0.5,7.1-12.8,11.6-18.1,16.7c-14,8.7-12.1,34.4-27.2,41.7C179.5,840.3,195.6,854.8,181.8,856.4
				L181.8,856.4z M681.4,803.4c-3.7,0.8-11.1-4.3-16.5-3.8c-4.8-0.8-21.8,0.5-20.8-4.9c-0.6-55.7,7.4-113.3,1.3-168.2
				c-1.8-56.4,43.5-38.8,42.8,3.9c-1.3,29.9,3.9,60.9,0.5,91c3.3,8.5-7.4,9.6-6.4,16.9C683.4,755.3,703.3,794.6,681.4,803.4
				L681.4,803.4z"/>
			<path class="st4" d="M826.2,1474c-51.9-2.3-25-47.9-41.8-53.7c-21.4,9.1-46.7,7-63.9-9.7c-31.5-31.1,3.5-64.1-14.2-66
				c-15,8.8-33.3,19.4-53.7,13c-11.3,3-25.4-18.4-34.5-9.3c-21.5,34.7-80.5,31.5-83.8-13.9c-42.6,8.7-89.5-22.7-85.9-69.5
				c-7.5-18.6-22,14.6-34.9,15.4c-23.4,16.8-59.5-6.1-50.4,30.3c7.1,49.7-48.5,97.3-95.6,72.3c-12.9-0.9-29.4-39.5-39.4-26.2
				c-35,91.6-195.3,46.9-136-52.3c2.8-19.6-45.5,3.9-63.3-58.4C13.3,1200,47,1153.2,94.7,1155c11.4-5.9,48.7,21.3,50.2,2.9
				c-16.3-61,47.6-122.6,110.6-105.1c28,3.4,40.3,25.8,57.5,42.7c10.2-6.5,22.3-14.2,35.4-13.2c31.8-0.7,51.9,33,37.4,60.2
				c15.5,10.9,37.1,14.8,49.9,32.7c11.3,12.7,16.9,25.8,17.2,40.1c5.2,20.8,27.4-31.2,77.8-10c5.1,0.1,7.4-5.9,4.9-9.9
				c-19.5-44.9,31.6-95.8,72-90.5c32.1-0.2,55.4,30,55.3,61.3c3.3,12.4,16.3-1.5,23.3-1.9c31.3-13.2,72.3,0.1,90.8,28.5
				c33,48.3,4.7,113.4-59,114.5c-7.3,0.2-6.2,7.8-4.4,12.5c-3,38.7,25.7-5.1,45.3,0.9c12.1-2.4,20.5,8.1,30.8,9.4
				c16.6-0.3-1-43.3,42.7-45.2c44.2,1.4,45.1,70.9-1.7,69c-7.2-0.1-25.6-10.7-20.7,5.9c9,44-24.2,38.7,31.4,43.3
				c5.5,1.3,3.4,8.8,9.5,9c5.2,0.5,7.4,5.4,9,12.5C864.6,1447.4,853.4,1474.4,826.2,1474z M579.1,1304.8c15.6-5.2,34.2,20,42.7,8.8
				c10-40.2,85.7-8,40.4-55.2c-22.3-15.7-56.1-14.6-77.9,0.1C568.4,1265.7,546.8,1313,579.1,1304.8z M226.3,1299.5
				c76.7-3.2,72.4-116.4-4.9-115.3C148.1,1191,152.1,1300.8,226.3,1299.5L226.3,1299.5z M912,1229.9c-80.7,3.7-83.4-104.8-9.4-109.2
				C968.6,1122.9,976.5,1215.8,912,1229.9z M532,1089.1c-34.5,3.4-50.2-25.3-58.3-52.4c-12.7,1.9-22.1,16.4-38.5,14.6
				c-50.1-11.4-20.1-53.9-35.7-57.9c-13.7,5.8-27.3,12.5-42,12.8c-10.5,3.8-27.1-9.5-34,0.6c-13.1,34.8-70.6,35.5-84.4,1.3
				c-11.8-16.2-16.6,29-43.4,24.2c-26.5,0.4-60.5-22.5-56.9-47.1c0.9-4.1-3-7.1-6.7-7.2c-95.6-26.5-50.8-156.4,58.1-121.1
				C190,808,221,765.2,275.1,766c44.8-0.6,94,42.5,80,92.1c-4.1,15.4,10.5,9.1,19.3,8.3c21.9,0.1,39.4,14.1,54.7,25.5
				c7.6-4.3,14.8-9,23.3-6.8c41.5,5.8,34.3,73.4-10.2,59.3c-48.4,59.3,28.8,8.2,34.5,65c5.7,18.9,26.6-24.5,52.5-18.6
				C590.3,993.6,593.2,1081.9,532,1089.1L532,1089.1z M232.9,910.8c-18.1,3.9-35.4,20.1-40.6,36.3c-9.5,9.9,4.8,12.6,11.9,16.1
				c14.9,0.5,22.6,48.1,34.2,30.7c12.8-27.8,44.6-28.5,68.2-24.9C323.8,926.4,268.6,903.5,232.9,910.8z M827.2,993.3
				c-77.4-8.6-67.5-118.5,5.3-118.5C916.5,880.3,904.6,995.1,827.2,993.3z M661,916.5c-87-2.1-70.9-134,13.7-112.5
				C739.1,825.7,724,912,661,916.5z M74.4,849.3C-4,850.6,16.2,733.9,88.2,758C136.7,780.2,124.6,841.7,74.4,849.3z M831.4,773.6
				c-72.1,2.7-80-110-4.5-115C906.5,653.6,909.8,772.9,831.4,773.6L831.4,773.6z M250.8,657c-68.9,6.8-74.2-97.2-6.5-97.9
				C305,561.7,312.5,645.6,250.8,657z M77.8,504.9C16.9,496.1,25,398.6,88.1,403c28.9,1.5,41.2,17,45.2,36.4
				C150.6,476.1,114,507.7,77.8,504.9L77.8,504.9z"/>
			<path d="M936.9,1126.2c-23.6-16.5-58.4-12.8-77.1,9.1c-4.9,5.7-8.7,4.2-13.9,1.6c-12.7-5.4-29.3-15.2-42.7-7.2
				c5,6.7,16.1,4.4,21.6,9.8c7.4,6.3,26.7-1.3,22.3,19.1c-2.8,13.3-9.9,20.5-23.6,22.6c-12.6,1.9-25,4.7-37.3,8.2
				c-3.3,0.9-4.7,1.8-6.7-1.5c-12.6-21.3-32.7-30.5-56.2-32.7c-18.7-1.8-36.7,1.1-52.2,12.9c-1.6,1.2-2,0.8-2.1-1.2
				c-3.7-41.2-21.8-33.6,2.3-51.4c17.9-16.3,40.3-25,61.7-35.3c12.1-6.6,18.4-18.2,24-30.1c8.2-17.3,22.7-30.1,32.9-46
				c3.8-8.4,5.9-17,19.8-9.9c44.9,22.6,95.3-24.4,87.2-71.5c-0.1-3.7,0.7-5.9,4.4-7.6c8.7-3,37.8-23.9,30.8-33.5
				c-2.6-2-4.2,1.1-5.8,3c-8,9.5-17.1,18.2-28.8,22.2c-10.3,3.5-10.4-8.7-13.9-13.6c-11-15.3-42.9-28-60.7-22.5
				c-3.6,1.1-9.2,3.4-8.4-5.6c1.1-13.4,1.7-27.2-0.2-40.4c-2.2-14.9,0.3-29.6-1.4-44.3c-0.1-1-1.4-3.5,2.3-2.3
				c43.2,13.9,86.7-26.4,79.8-70.7c-2.4-23.3-23.2-48.3-46.4-52.7c-5.5-1-3.7-4-3.5-6.6c0-6.7,5.5-18.3-3.7-20.4
				c-2.9-0.4-2.3,3.9-3.5,5.6c-4,5.8,5.2,16.5-7.6,19c-16.3,4.2-16.2-7-13.5-19.6c-1.3-52.9,4.4-105.5,4.1-158.4
				c0-21.4,2.5-43.2-13.8-61c-48-66.2-44.9,109.2-50.6,131.7c-3.8,40.3-7.2,80.6-11.5,120.9c-0.3,52.7-1.1,105.2-1.3,158
				c0.9,15.7,0.6,31.4-0.8,47.1c0,46.9-0.2,76.2-41,107.8c0-18.2-0.5-36.4,0.3-54c0.3-7.2-4.2-13.7,3.6-22.3
				c20.8-23.3,23-51.5,5.8-78.7c-6.5-10.2-16.1-17.8-17-31.7c-2-29.1-2.2-58.1-1.8-87.2c-0.7-26.1-3.9-52-0.2-78.1
				c2.5-14.5-10.2-34.1-24.9-38.8c-6.8-2.2-18.4-5.2-20.4,6.2c-3,17.7-7.5,35.2-5.9,53.8c1.7,19.2,4.7,38.5,1.7,58.1
				c-1.8,11.8,0.5,24.2-0.6,36.2c-1.3,13.6-3.4,27.1-3.9,40.8c3.3,27.8-16.5,13-30.1,38.6c-1.7,3-3.1,9-9.1,8.1
				c-14.3-1.4-30.7-11.8-44.5-3.8c4.8,6.9,22.2,6.2,30.5,9.7c4.5,1.3,13.5,1.6,12.2,6.5c-11.3,70.3,42.2,62.9,37.4,91.2
				c-3,25.4,1.4,52.7-3.9,77.6c-5.1,16.2-14.4,31-24.4,44.9c-11.9,16.6-21.9,35-36.2,49.2c-10,10.1-24.3,15.7-31.9,29.3
				c-11.1,19.7-17.6,39.6-6.3,61.4c0.4,1.8,2.4,5.8-0.8,5.5c-23.4-8.6-56.5-8.7-72,13.9c-2.1-2.1-2.5-4.5-2.6-7
				c-2.6-31.4-30.2-52.1-57.5-63.4c-1.8-0.7-8.1,0.4-6.2-4c6-13.5,4.3-25.9-1.7-38.9c-10.4-22.3-47.2-31.9-67.3-18
				c-3,2.1-8.4,13.7-14.3,2c-7-14-19.5-22.1-31.8-30.5c-5.2-3.5-3.5-9.3-5.2-13.9c-0.8-2.2,1.4-2.1,2.9-2.1
				c20.2-0.1,46.5-6.6,53.5-28.9c0.5-1.8,1.7-3.3,3.5-3.3c22.8,7.6,44.6,1.7,65.6-7.4c0,1.5,0.5,3.1,0,4.4
				c-4.6,10.7-1.7,21.2,4.3,29.4c19.8,27.1,40,29.3,66.1,8.5c2.3-1.8,3.4-1.7,4,0.2c9.6,75.5,109.7,66.2,109.8-5.3
				c-5.9-52.3-71.4-69.9-101.1-24.7c-2.4-24.2-15.3-39.7-40.6-41.7c-1.4-0.1-12.3,5.8-7.5-3.9c3.2-6.5,3.4-16.7,19-14.6
				c19.7,2.6,38.5-13.7,34-39.6c-1-6,1.4-7.7,4.8-10c12-8.3,18-20.8,23-33.8c0.4-1.1,3.1-6-1.1-7.3c-3.6-1.2-5.2,1.2-6.6,4.5
				c-4.9,12-13.9,21-22.9,30c-1.9,1.9-2.6,0.6-3.9-0.6c-17.7-17.2-27.6-18.5-49.4-6.8c-20.3-18.6-43.9-30.9-71.1-22.5
				c20.1-71.3-59-126.9-124.1-97.4c1.8-16.6-0.1-32.9-2.3-49.3c-1.7-13.3-8.9-25.9-4.7-40c1.3-4.2,0.5-9,0.1-13.5
				c-0.1-1.3-2.8-2.6-0.9-4c1.1-0.8,3.3-0.7,4.8-0.2c10.5,3.2,20.7,2.3,30.8-1.8c1.5-0.6,5.2,0,5.3,0.4c1.8,10.6,6.5,21,3.1,32.2
				c-4.3,8.5,4,19.1,6.5,8.9c5.1-14.1,2.9-28.2-0.6-42.2c-0.6-2.6-1.7-4.4,1.2-7.1c53.8-42.7-3.1-125.3-61.8-90.5
				c-3.5-21-3.3-42.3-6.3-63c-5.2-21.6-9.1-43.4-9.6-65.6c9-75.9-11.1-149.9-19.6-224.8c-2.1-24.5-4.3-49-6.1-73.5
				c-1.2-16.7-4.5-29.4-22.2-36.5c-29.2-11.7-37.6,13.6-35,37.4c-0.1,15.6-0.3,31.2-0.5,46.8c-0.2,14.9,5.2,28.9,7.6,43.4
				c3.3,39.3,5.2,77.4,0.2,116.8c-2.1,18.2-1.8,36.9-0.2,55.2c2,14.8,0.1,14.8-12.4,6C41.5,368.1-5.6,477.9,68.5,506.9
				c8.1,3.3,19.7,2.3,10.7,16.5c-4,9.8,5.2,13.4,8.2,0.8c2.1-5.1,0.8-14,7.1-14.7c17.3-1.9,29.1-11.6,40.1-23.6
				c-4.8,52.8-0.3,106.7,6.3,159.5c3.2,65.4,4.2,130.9,6.2,196.4c0.1,4-1.1,5.4-5.1,5.1c-11.7-0.7-21.8,5.3-32.7,8
				c-1.6,0.4-2.2,4.6-3.9,1.7c-10.9-15.1,5.9-13.5,15.2-37.6c4.4-10.2,0.2-39.8-6.6-48.6c-15.7-21.9-48.2-29.9-71.1-14.6
				c-4.4,2.9-8,9.7-13.8,7.5c-9.5-4.2-18-10.6-29-11.6c-0.9-0.3-1.8-0.3-2.6,1.4c-1.5,3.2,0.7,4.6,2.9,5.7c6,3,12.4,5.1,18,8.7
				c2.2,1.5,8.5,1.9,6.1,6.5c-25.5,40.6,16.6,94.7,62.1,78.5c2.2-0.7,5-2.8,6.1-0.7c2,4,5,10.4,3.4,12.7
				c-35,39.8-21.1,110.2,35.9,116.2c1.4,0.8,2.3,2.2,1.8,4.9c-3.6,19.1,14.7,26.5,18.3,43.8c0.9,7.8,0.9,16,1.9,23.8
				c1.4,11.1,6.3,22.8-0.5,34.3c-12.4,20.7-17.6,42.9-12.4,66.9c0.1,2.4,0.9,7.3-3,6.1c-37.8-21.5-96.5-10.8-112.8,32.8
				c-17,45.4,9.9,107.6,63.7,106.3c-17.5,27.7-21.8,53.3-2.3,81.5c33.4,50.5,102.7,36.4,136.1-4.3c0.9-1,0.4-6.9,3.6-1.7
				c17.6,28.7,7.6,73.3,48.8,84.1c31.8,1.3,51.9,14.2,78.5,29.6c34.1,21.4,62.9,50.1,91.1,78.5c10.8,10.4,19.6,23.3,31.4,32.5
				c6.5,2.6,11.6,1.7,3.8-7.1c-42.7-52.5-122.4-132.7-191.2-142c-50,0.6-33.9-57-59-84.9c-0.9-1.1,1.9-5.3,3.1-7.9
				c0.2-0.4,1.3-0.3,2-0.5c0.5,5.3,5.3,7.6,8.2,11.1c9.7,11.6,21.1,20.6,36.3,24.8c10.8,3,21.8-0.1,32.5,3.4
				c8.7,2.9,12.3,10.8,18.8,15.5c17.2,12,34.8,23.5,53.7,32.7c53.8,17.9,88,65.8,112.7,114.2c5.4,6.6,21.7,48.9,30.1,42.8
				c2.1-1.9,2.1-3,0.6-5.6c-27.8-57.7-57.6-120.9-117.7-151.2c-15.4-7.4-31.2-13.9-47.6-24.5c43,5.5,90-29.4,90.8-73.3
				c-0.6-4.5-6.5-6.7-6.2-0.8c-3.6,9.4-6.5,19.3-11.3,28c-20.7,41.2-86.5,53.6-116.3,15.7c6.1-3.4,13-6.1,18.4-10.5
				c5.7-4.8,11.4-9.1,13.5-7.8c9.8,6,18.5,13.9,30.1,16.8c5.8,1.4,24.9-6.8,28-12c14.6-24.5,20.8-53,37.3-76.7c3.4-4.8,3.6-2,4.4,0
				c7.4,22.4,29.4,31.3,50,37.8c-14.9,28.1-41.8,77.3-0.1,94.9c10.9,3.9,21.9,7.7,32.1,13.2c20.9,11.1,41.8,21.7,64.2,29.9
				c18.3,6.6,38.1,9.3,55.3,18.2c22,11.4,44.8,20.5,68,28.9c43.9,14.6,69.2,55.7,109.6,76c1.8,1.4,4.9,3.2,6.3,0c2-3.5-1-5-2.8-6.3
				c-23.1-16.9-43.4-37-65.4-55.2c-20.7-19.1-48-25.7-73.7-34.7c-23-11.1-45.8-22.6-70.5-29.6c-3.3-0.9-3.3-1.4-1.4-4
				c19.2-28,48.1-54.6,44-91.7c-6.5-20.6,12-6.1,35-24c0.7-0.5,1.9-0.2,2.8-0.2c-5.1,22.7-3.7,45,15.5,61.4
				c17.7,18.4,40.8,19.9,64.5,12.6c-7.6,83.8,115.8,54.6,73.8-15.9c-2.1-2.8-1.4-3.2,0.2-4.2c8.5-5.4,14.6-13,20.3-21
				c1.3-1.9-0.2-5.9-0.5-9c-8.5,1.1-13.6,12.9-20.7,17.8c-11.6,13.7-18.2-2.7-44.2,2.2c9.7-23.6-2.6-44.6,5.5-40
				c43.3,15,72.6-42.9,37.1-69.6c-26.6-17.8-64.2-0.6-63,34c0.1,1.6,1.4,3.9-2.8,1.9c-19.2-9.3-38.9-12.9-58.2-0.5
				c-10.6,6.8-13.6,4-13.2-7.8c0.1-2.4-1-4,0.7-4.3c10.6,1.3,21.3,0.2,31-4.1c58.1-22.8,31.8-63.8,61.5-69.8
				c14.9-2.9,28.3-9.3,40.7-18c3.4-2.4,5.2-4.2,9.5-0.2C925,1275.2,1004.6,1176.4,936.9,1126.2z M563.4,1013.2
				c17.8,17.9,9,46.8-5.9,61.4c-2.7,2.8-5.8,5.9-9.2-1.5c-3.2-7-11.8-11.5-15.1-18.5c-2.4-17,11.9-35.3,23-47.3
				C561,1002.1,561.7,1011.2,563.4,1013.2L563.4,1013.2z M488.7,1018c10.1-19,35.8-29.8,58.5-19c8.8,1.2-22.1,20.5-22.5,45
				c-0.2,1.6-1.3,3.8-4.1,1.3C505.7,1029.3,468.1,1038.7,488.7,1018L488.7,1018z M491.5,1041.7c22.3,5.5,40.7,21.3,52.3,40.6
				c-28.2,11.4-60.9-10.9-62.2-39.3C481,1035.9,489,1041.1,491.5,1041.7L491.5,1041.7z M331.2,1089.5c27.7-12.8,66.5,13.4,52.9,44.4
				c-1.2,2.5-11.6,1-17.7,0.9c-14.8-0.3-29.1,1.9-43,9.4C333.9,1120,303.9,1097.4,331.2,1089.5L331.2,1089.5z M295.5,1026.8
				c-24.3,11.6-73.5-16.5-45.5-42C292.2,943.7,356.7,1003,295.5,1026.8L295.5,1026.8z M262.9,1047.8c-24.1-4.2-47.3-4.7-69.7,5.9
				c-10.2,4.2-19.7,9-26.5,18.3c-1.2,1.7-2.6-1.4-2.6-2.8c-0.2-13.7-1.8-27.4-4.7-40.8c0-2,2.2-0.8,3.1-0.3
				c21.9,16,66.6,14.4,71.3-18.8c6.4,13.3,15.8,20.9,27.5,26.4C263.2,1036.7,262.4,1043.6,262.9,1047.8L262.9,1047.8z M438.6,981
				c48.6,0.5,42.9,66.1-2.6,66.1C396.8,1042.4,398.3,979.7,438.6,981L438.6,981z M476.9,921.4c-1.5,15.9-18.7,24.2-32.9,19
				c-0.9-0.2-0.8-3.8-1.2-5.8c-1.9-12.9,9.9-5.4,14.1-9.3c5.5-4.7,13.8-6.1,19.4-11C476.5,916.7,477.1,919.2,476.9,921.4
				L476.9,921.4z M452.1,889c7.2,0.5,21,10,20.8,14.5c-4.9,7.7-13.8,9.3-21,13.5c-11.2,6.5-10.6-2.5-12.7-8.5
				C434.5,896.3,432.4,886.9,452.1,889L452.1,889z M254.3,652.8c-33.7,7-67.7-30.4-51.6-60.1c26.7,5.5,45.3,30.5,59,52.4
				C264.8,650,263.6,651.5,254.3,652.8z M278.6,578c7.1,8.8,11.3,19.6,11.8,30.8c0.9,8.9-16.9,50.2-24.5,27.5
				c-0.9-11.8-20.6-22.3-16.6-30c5.7-10.1,11.6-20.2,17.8-30C271.7,569,276.5,575.4,278.6,578z M259,565.1c3.5,0.9,2.3,3.7,1.2,5
				c-34.9,48.7,1.2,34-54.6,14C219.1,566,236.9,559.5,259,565.1z M61.1,494.4c-26-14.6-29.3-59.2-5.6-77.2c5.6-4.2,7,2,8.5,4.1
				C76.9,435.6,106.2,524.8,61.1,494.4z M83.5,436.2c-3.3-9.8-10.9-16.9-16.3-25.3c21.5-10.3,46.8-0.8,59.1,15.9
				c1.6,1.9,2,3.5-1.5,4.7C85.9,443.1,92.5,459.6,83.5,436.2z M133.7,456.2c-1,23.3-18,40.4-39.7,44.6c-0.4-1.6-0.8-3.3-1.1-4.5
				c2.9-12,0.1-23-1.6-34.3c-2.4-8,24.3-17.6,30.6-20.8C130.5,437.8,134.1,444.3,133.7,456.2L133.7,456.2z M143.3,570.8
				c-1-39.3-1-78.7,1-118.1c1-8.6-2.6-18.2-5.6-26.9c-3.6-10.3-1.8-21-3.9-31.1c-5.8-34.7,13.5-65,20.6-97.5
				c10.9-38.9,9.5-80,1.8-119.6c-1.4-8-2.9-16-3.9-24.1c-0.4-2.9-1.7-2.5-3.6-2.5c-2.9-0.1-2.8,1.9-2.6,3.7
				c2.2,22.6,5.5,45.2,6.2,67.8c0.8,35.3-3.8,68-15.8,101.7c-0.2-40,1.9-72.1-5.5-109.7c-3.2-17.9-9.9-35.4-5.4-54.7
				c5.3-16.1-8-38.9,3.8-52.8c6.1-5.6,13.9-2.7,20.6-0.9c14,3.7,15,15.3,16.1,27.2c3.9,25.1,5.4,50.1,6.5,75.2
				c7.4,70.1,26.8,140.6,18.6,211.4c-9.4-23.5-19-48.8-17.2-74.9c1.9-8.6-4.6-5.5-5.9,0.8c-5.8,40,16.4,70.4,23.6,108.5
				c9.2,32.1,8.2,66.4,14.8,98.7c5.6,26.8-31.5,32.4-10,82.2c7,17.7,27.2,17,22.8,35.4c-6,34.5,12.8,68.1,5.7,102.8
				c-0.8,5.5-11.6,9.1-16.9,14.4c-10.6,10.6-16.7,23.7-20.1,38.4c3.1-69.2-8.3-137.5-15.3-206c-3.2-34.8,2-70.1-2.8-104.8
				c-0.1-1.2-1.9-2.2-2.9-3.3c-0.8,1.1-2.1,2.2-2.2,3.3c-0.6,20.9-1.2,41.8-1.5,62.7c-1.3,69.6,14.5,137.7,15,207.2
				c1,19.1-3.1,39.6,1.8,58.1c7.9,16-6,6.4-7.2,5.4c-5.5-4.8-19.4,3.8-18-7.3c1.9-15.7,1.5-31.4,0.2-46.4
				C153,720.3,149.7,645.3,143.3,570.8L143.3,570.8z M44.9,767c13.1-8.6,26.9-10.4,42-5.2c-8.7,9.7-16.8,19.5-22.6,31.3
				C57,779.8,32.8,773,44.9,767z M76.7,844.8c-67.9,4.8-52.6-88.8-33-60c14.6,15,30.2,29.2,41.8,47.2
				C94.7,846.2,81.3,842,76.7,844.8L76.7,844.8z M93.4,830.5c-7.3-24.1-32.5-25.2-16-42.6c4.7-6.8,11-12.5,16.4-18.9
				c2.2-2.5,4.1-1.7,5.6,0.1c7.6,9,16.8,17.2,15.6,28.7C117.1,807,101.3,850.1,93.4,830.5L93.4,830.5z M134.7,974.2
				c-51.1-5.3-64.3-69-30.9-102.9c20.4-19.8,57.8-18.9,82.9-8.5c5.8,2.5,11.6,0.9,10.4-8.3c-12-75,85.2-110.9,134.6-61
				c18.4,16.4,25,38.7,19.4,63.8c-0.6,4.3-2.9,24.3,6,19.8c12-10.7,26-6.1,39.2-1.4c49.3,16.3,49.2,85.3,6.8,109.5
				c-21.1,14.9-48.2,22-73,13c-3-1.1-3.7-9.3-5-14.4c-0.8-3,2.5-2.5,4-3.4c10.1-4.3,60.5-45.3,53.4-55c-4.7-3.3-7.6,2.2-9.4,4.8
				c-3.5,7.6-54.2,57-57.7,40.9c17.6-18.4,32-39.6,42.7-62.7c0.9-2.1,6.6-7.6,1.3-9.6s-6.7,4.2-9.1,8.3c-10.8,18.7-23.3,36.4-36,54
				c-4,6.5-11.3,5.7-15.6,3.2c-6.5-2.8-0.2-8.5,1.5-10.5c3.8-4.5,7.3-9.3,10.3-14.4l0,0c4.9-7.2,30.3-58.7,20.1-62.3
				c-3.8-0.7-4.9,3.4-5.5,5.7c-4.9,16.2-11.5,31.9-19.8,46.7c-6.1,10.9-12.9,21.3-20.5,31.2c-3.5,4.6-10,0.2-16.6,6
				c15.4-22,22.6-42.9,30.1-66.5c3.4-10.7,6.1-22.3,4.9-34.2c-0.2-2.2,1.8-4.6,1.6-6.8c-0.3-3.2,2.5-8.5-3-9
				c-4.8-0.5-4.4,5.5-4.6,7.9c-2.8,30.9-24.3,104.2-52.5,119c18.2-38.7,29.1-80.9,26.3-123.8c0-3.9-0.1-9.7-3.6-9.7
				c-4.5,0-5.2,6.1-5,10c2.9,43.6-8.2,83.4-27.4,122.8c-1.4-20.8,5.3-104.3-11.3-111.3c-3.4,13.6,3.1,27.8,3,41.6
				c0.9,23.6-0.2,47,0.2,70.7c-10.9-6.5-7.7-17.9-9.5-26.9c-2.2-11.1-4.9-21.9-8.2-32.7c-1.4-4.7-2.9-9.3-4.6-14
				c-3-8.5-9.8-14.5-11.8-23.3c-0.8-3.3-4.4-1.7-6.5-1.4c-2.6,0.3-1.8,3.4-1.1,4.5c12.1,23.5,20.4,50.2,25,75.8
				c-31.9-3.3-18.1-37.9-61-69.7c-4.2-2-6,4.7-3.1,7c16.7,15.4,26.2,35.6,35.8,55.5c-18.3,6.8-19.6-23.8-48.9-38.8
				c-4.8-2.7-8.2,4.8-3.6,7.4c8.3,8,16.8,15.8,24.4,24.3c4,4.4,11.7,10.3-0.7,15.2C145.7,963.2,143.2,975.5,134.7,974.2L134.7,974.2
				z M151.5,1008.2c-29.5-33.4,22.4-58.6,50.8-41.5c30.7,18,29.8,62.8-9.6,61.2C176.6,1026.1,162.3,1020.3,151.5,1008.2
				L151.5,1008.2z M432.9,1304.9c-11.3,17.3-18.1,36.9-26,55.9c-7.2,17.3-22.9,19.6-39.6,11.7c-29.1-13.2,12.3-27.3-3-76.8
				c-1.5-5,1.2-2.5,2.2-2.4c26.8,2.3,57.6-6.7,75.2-27.5C449,1281,441,1292.5,432.9,1304.9L432.9,1304.9z M445.7,1235.6
				c-10.6,40.5-54.7,55.8-92.3,47.4c-2-0.4-5-2-6.1,1s1.9,5.1,3.9,6c9.3,4.4,7.4,14.2,8,20.8c5,48.6-42.9,90.8-89.7,68.4
				c-25.1-10.2-38.1-56-42.9-29.7c-18.2,59.8-116.1,77.6-139.5,12.7c-12.1-29.5,4.8-45.9,15.7-69.3c-3.5-3.9-10.5-1.4-15.3-2
				c-45.8,3.3-72.3-63.5-50.4-99.9c20.8-40.6,74-36.6,108.7-18c4.3,0,6.6-5.8,5-9.1c-33.6-127,169.2-154.9,164.3-20.1
				c-1.2,9.2-1.1,17.7,13,9.6C378.9,1127.9,465.1,1172.6,445.7,1235.6L445.7,1235.6z M874.5,1133c20.7-12.3,40.8-10.7,59.5,2.7
				c-10.4,10.5-18.9,22.7-25,36.2c-2.8,6.3-2.8,12.4-10.4,2.3C889,1157.4,846.3,1147.5,874.5,1133z M834.4,979
				c-2.6,18.4-13.7,6.8-20.8,5.8c-21.8-2.9-38-30.3-36.7-46.1c-1-9.9,6.6-46.1,17.1-38C820.2,919.9,832.8,946.6,834.4,979z
				 M885.2,922.1c4-0.5-0.2,7.8,1.7,10.6c5.4,37.2-47.3,64.1-45.6,50.8c8.9-15.8-11.2-35.4,7.2-45
				C859.6,930.9,871.8,923.9,885.2,922.1L885.2,922.1z M865.3,890c5.6,4.4,10.5,9.6,14.7,15.4c9.4,13-5.8,9.5-9.3,11.1
				c-12.9,5.6-24.8,12.1-34.9,22.8c-7.5-19-20.6-35.2-37.5-46.6c-3-2,0.3-3.6,1.6-4.4C818.3,876.7,845.2,874.2,865.3,890z
				 M843,665.1c0.3-1.7,0.5-2.2,2.4-1.5c36.7,10.8,48.6,47.8,33,80.5c-0.6,3-4.8,1.2-6.7-0.2C845.3,723.9,837.5,697,843,665.1z
				 M838,716.1c5.4,17.7,18.7,27.5,32.4,36.6c-16.8,20.3-46.3,20.6-69.2,9.3C818.5,750.9,831,736.4,838,716.1L838,716.1z
				 M825.6,662.7c12.5-0.6,9,7.3,6.9,11.5c-3,6-0.5,11.2-0.2,16.5c1.3,26-12.4,44.2-30.7,59.8c-13.2,12.7-21.4-11.6-23.8-25.1
				C769.9,695.5,796.9,664,825.6,662.7L825.6,662.7z M712.8,853.6c-0.4,20.2-5.9,33.8-17.7,44.5c-3.9,3.6-5.8,2.6-9-1.9
				c-14.8-27.6-37.8-22.1-24.7-47.2c5.2-11,11.9-21.2,18.2-31.7c2.7-4.6,6.2-5.2,10.7-1.6C703.8,826.5,711.8,840.3,712.8,853.6z
				 M647.4,769.3c1.1-28.9,6.6-58.4,5.3-87.2c-3.2-28.8-6.5-57.6,2.6-85.6c0.3-1.4,1.5-2.4,3.8-2c17.5,3.1,27.2,17.6,25.1,35.6
				c-1.5,13.2-0.1,26.4,1.1,39.8c2.4,19-1.2,37.8-0.6,57.6c-14.8-26-4.2-88.4-16-91c-2.6,0.9-4.2,3.5-3.9,6.2
				c0.7,12.9,1.7,25.7,2,38.6c1.3,36.1,18.2,69,19.9,105.1c2.3,22.2-10.1,9.2-23.7,9.3c-5.2-0.8-14.9-0.2-15.1-1.5
				C646.6,786,646.9,777.5,647.4,769.3z M615.7,827.3c12-17.3,36.1-25.9,58-19.4c-7.5,14.7-19.2,27.3-22.8,44.2
				c-1.6,6.3-1.9,6.2-13.9-1.8c-6.5-4.3-12.7-9.2-19.6-12.5C610.6,834.5,612.3,831.5,615.7,827.3L615.7,827.3z M607.8,873.7
				c-3.7-9.8-2.5-19.5-0.7-28.9c0.5-2.9,2-1.1,3.2-0.5c26.7,15,50.4,33.7,70.2,57.1c6.4,7.6-3.1,8.3-5.7,9.1
				C647.5,918.6,615.7,900.9,607.8,873.7L607.8,873.7z M604.9,1075.1c20.1-13,27.8,3.7,43.4,1.5c2.9-5.7-6.9-7.7-10.4-9.8
				c-8.5-4.6-17.3-5.3-26.9-1.4c39.2-49.5,31.4-83.8,32.6-142.1c-0.1-4.4,9.8-0.6,12.9-0.9c0.3,0,0.8,2.3,0.4,3.2
				c-4.1,12-0.9,24.2-1.7,36.3c-0.3,4.2-0.3,8.4,0,12.6c0.1,2.9-1.4,8,2.4,8c10,1,4.5-42.6,5.5-50.8c-0.2-6.7,3.4-10.1,8.8-10.4
				c8-0.3,13.6-5.3,20.5-7.9c4.2,12.8-0.2,26.3,2.5,39.5c1.8,9,2.9,18.7,1.5,27.9c-1.2,7.9-10.6,11.4-15.5,17.7
				c-3.5,4.5-12.1,6.8-8.8,13.6c0.9,1.9,8.5-5.2,12.7-8.4c33.1-24,67.5-54.7,66.4-99.1c7.8-68.6-6.9-139.6,10-206.8
				c12.5-52.8,35.5-103,36.8-158.4c0.6-15.1,0.1-29.5-2.7-44.1c-0.2-0.9-1.2-1.6-1.9-2.4c-0.8,0.9-2.4,1.9-2.4,2.8
				c0.2,7.8-1.6,15.2-0.6,23.4c1.5,12.7-2.6,25.9-2.7,39c-2.6,43.6-22.1,83.3-32.4,125.2c1.4-48.5,6.5-96.5,11.8-144.8
				c5-42.1-0.1-86.6,16.4-126.4c2.2-4.1,5.9-7.3,10-1.4c7,10,19.2,17.3,19.5,31c1.1,65.6-0.3,131.6-5.7,196.6
				c-1.2,4.8,3,9.1,1.3,14.7c-2.7,8.7-11.4,9-16.9,13.3c-32.6,25-30.6,80.2,4.1,101.3c14.7,9.4,8.7,21.4,9.8,32.3
				c1.8,17.5,0.5,35.4,1.9,53c1.3,15.7-3.8,26.6-17.4,31.8c-4.2-0.1,1.2-7.4,0.3-9.9c0-16.1,4-32.1,2-48.3c-1.2-9.5-2.3-19-3.3-28.6
				c-0.3-2.6-0.6-4.8-3.6-5c-3.8-0.2-2.5,2.9-2.5,4.7c0.4,15.1,1.3,30.3,1.1,45.2c-0.2,12.7-2.2,26-4,39
				c-2.6,18.4-13.2,34.6-11.6,54.1c-1,19.3-25,29.1-34.4,44.6c-3.1,4.5,1.4,9.5,4.9,3.7c54.7-44.5,13.8-38.3,51.2-3.3
				c4.3,3.6,2.6,6.8,0.2,9.9c-13.9,17.1-28,34.5-40.7,52c-1.2-5.3-10.8-34.6-16.5-33.1c-3.7,3.3-2.5,7.5-1.5,11.4
				c15.2,18.8,10,53.1-18.9,58.7c-13.5,2.5-25.9,12.3-37.1,21.5c-7,5.8-13.7,12.1-20.3,18.3c-2.9,2.7-3.5-0.6-4.2-1.6
				c-14.4-18.7-46-21.1-66.6-17.1C591.5,1091.7,596.5,1081,604.9,1075.1L604.9,1075.1z M503,1422.5c-13.2-3.2-14.2-13.7-17.2-26.2
				c6.4-15.5,14.3-32,20-49.2c4.5-13.7,15.4-7.5,24.7-10.8c3.7,22.8,13.5,40,39.4,39.4c8.4,0,2.3,7.2,0.7,9.7
				c-7.6,13.5-18.1,24.8-28,36.8C527.7,1440.1,516.2,1425.7,503,1422.5z M606.3,1356.6c-13,11.5-43.1,16-57.5,2.7
				c-6.3-5.8-7.1-13.4-7.8-19.5c0-21.7,14.2-27.1,30.1-30.3C599.5,1302.7,635.7,1330.5,606.3,1356.6L606.3,1356.6z M626.3,1447
				c-4.6,5.4-8.6,11.2-12.1,17.4c-3.2,6.1-7.5,4.9-12.4,3.6c-20.3-5.2-2-14.2,0.1-16.2c13.7-13.1,46-58.3,28.5-74.8
				c-1.1,1-3.2,2.1-3.2,3.2c-1.1,28.4-20.3,47.3-34.6,69.2c-14.2,22.2-33.7-3.4-49.8-8c-5-2-3-3.3-0.9-5.2
				c14.4-13.2,27.9-27.1,36.3-45.1c3.2-15.2,2.8-16,18.5-19.5c22.8-7,15.4-26.4,43.2-12.1c4.7,2.1,9.6,3.6,14.7,4.3
				c3.2,0.4,4.6,1.3,4.3,4.6C659.6,1398.1,646.9,1423.4,626.3,1447L626.3,1447z M706.2,1336.6c-17,21.3-56.8,26.9-77.9,4.5
				c-12.1-17.4,0.2-41.9,20.6-46.5c13.3-3,25.9-5.6,37.9,0.5C710,1306.7,714.3,1326.9,706.2,1336.6L706.2,1336.6z M724,1408.2
				c-2-1.8-15-10.3,1.8-13.8c8.7-2.1,16.7-11.2,24.6-16.4c17,3.2,32.2,9,45.4,19.1c7.8,6-0.8,10.5-3.5,12.7
				C772.6,1425.8,743.8,1426.4,724,1408.2z M851.8,1456.1c-13.4,22-50.5,17.6-56.8-8.3c-0.9-3.2,6-5.9,14.8-5.6
				c14.1-0.1,27.9,2.2,41.4,5.8C858.6,1450,853.2,1453.6,851.8,1456.1L851.8,1456.1z M847.5,1416.8c7.1-2.9,7.7,7.2,9.2,12.1
				c2.8,9-0.8,14.3-10.5,9.7c-7.3-3.4-14.5-4-26.2-3.2C832.8,1429.6,838.8,1420.3,847.5,1416.8L847.5,1416.8z M840,1407.1
				c7.9,5.9-37.3,28.7-43.7,27.9c-0.2-0.1-2.9-0.7-2.9-1C794.8,1411,819.6,1399,840,1407.1L840,1407.1z M832.7,1289.1
				c40.7,4.2,38.8,61.3-2.2,61C791.2,1344.4,792.5,1291.5,832.7,1289.1L832.7,1289.1z M794.3,1339.9c12.8,9.2,17.2,38.7,9.9,52.8
				c-11.8-11.2-26.6-16.6-41.5-21.7c-1.8-0.6-3.8-0.3-1.2-2.6C786.7,1347.6,781.8,1322.9,794.3,1339.9L794.3,1339.9z M763.5,1325.1
				c10.8,0.6,20.1,4.4,10.4,13.8c-15.1,21.4-34.3,38.5-57.9,50.3c-6.6,3.3-5-3.3-5.4-5.7C708.9,1350.7,730.9,1321.8,763.5,1325.1
				L763.5,1325.1z M751.6,1295.1c-10.9,4.4-22.1,6.6-33.5,8.3c-8,0-10.5-7.9-16-11.4c11.7-14,23-28.8,30.7-45.7
				c1.1-2.1,5.2-5.8,1-8.1c-4-2.2-6.3,2.4-8,5c-8.7,13.3-17,26.7-29,37.5c-2.9,2.6-3.7,9-9.1,3.5c6.3-7,28.4-65.4,19.9-69.6
				c-2-0.3-3.7,0.2-4.8,3.6c-6.4,20.1-12.4,41.1-22.2,59.9c-1.8,2.4-4.3,3.8-9.2,2.8c-10-2-1.6-8.2-1.3-10c0.6-2.6,1.1-5.3,1.7-7.9
				c1.5-8.9,12.1-53.6,1.6-56c-2.8,0.2-4.2,2.2-4.3,5.3c-1.1,23.1-6.8,45.3-13,67.5c-2,7-9.1,6.6-13.3,6.3c-3.7-0.3-0.5-6.1,0.1-9.2
				c1.9-10.3,3-20.7,3.3-31.2c-0.1-11.3,0-50-7.4-56.7c-1.8,3.4-5.6,7.2-5.1,10.1c3,14.6,4,29.6,3,44.5c-1.2,15-3.8,30-5.6,44.9
				c1,5.2-3.9,7.6-6.8,11.2c-4.5-15.2-6.5-112.7-22.9-108.3c-3.6,0.8-1.5,4.3-0.6,7.3c4.5,15.2,5.8,30.8,6.5,46.7
				c-0.7,12.4,11.1,56.2,3.5,63c-6.6-3.3-13.1-5.8-12.8-15.8c0.6-18.8-4.8-36.8-9.3-54.9c-2-8.1-3.4-16.6-8.7-23.5
				c-2.9-6.5-9-3-6.9,3.2c7.3,26.1,12.5,52.7,15.6,79.6c0,1.1,3.9,2.9,0.1,3.4c-2.5,0.3-5.9,1.8-7.7-2.3c-4.2-9.7-8.9-19.1-14-28.3
				c-6-10.9-13.4-21-21.9-30.1c-4.1-3-4.9-14.9-11.7-11c-2.5,1.7-1.6,3.8-0.5,5.5c13.4,21.9,28,42.9,39.8,65.8
				c-13.7,4.9-13-8.8-19.7-14.7c-14.2-11.2-27-24.1-40.5-36.1c-1.3-1.2-3.6-1.2-5.4-1.8c-0.5,2.5-1.9,5,0.5,7.3
				c5.5,7.5,51.1,45.6,45.6,49.9c-3.7,5.4-9.5,5.5-14.7,0.2c-10.4-10.6-24-16.4-36.6-23.8c-4.1-2.2-8.3,6.3-0.4,9.1
				c12.2,6.4,23.8,13.4,33.3,23.5c0.9,0.9,2.5,1.1,3.1,1.4c-4.2,18.8-18.5,16.5-32,14.5c-45-3.3-64.2-55.2-47.6-93.8
				c10-26.5,32.9-35.5,59.9-29.4c7.1,1.6,14.1,4.6,22.2,2.8c15.3-1.2-22.3-23.8,5.4-69c14-22.1,34-29.3,57.4-31.3
				c39.5-3.4,59.8,38.3,55.5,72.9c-0.7,6.5,6.7,5.1,8.4,0.8c9-19,43.6-21.1,62.4-18.3C786,1178,813.7,1264.8,751.6,1295.1
				L751.6,1295.1z M844.8,1214c-9.1,6.5-21.2,7-29.5,14.2c-6.6-3.3-15.9,8.2-19.6,0.7c-1.2-10.5-4.5-20.3-8-30.2
				c-0.1-0.2,5.2-3,8.1-3.6c15.5-3.2,32-2,45.9-11.7c2.6-1.8,2.4,2,2.8,3.3c2.7,6.9,4.2,14.1,7.7,20.8
				C854.5,1212.2,847.5,1212.2,844.8,1214L844.8,1214z M905.3,1225.1c-28.6,0.9-52.6-20.3-51.9-49c-0.8-8.6-1.5-17.2,3.7-19.9
				c4.5-2.3,9.6,5.3,14.6,8.3c21,12.6,34.7,31,43.8,53C920.4,1229.3,908.7,1225.1,905.3,1225.1L905.3,1225.1z M926.3,1220.3
				c-1.9,4.5-6.2-18-9.7-21c-10.3-12.6,0.3-22.1,5-31.8c4-8.1,10.3-15,15.9-22.3c2-2.7,3.5-3.1,6.3,0.7
				C961.8,1171.1,952.7,1205.9,926.3,1220.3L926.3,1220.3z M776.7,1598.9c-4.4,7.4-24.3-10-33.8-11.6c-16.7-5.9-31.3-14.3-42.7-28.1
				c-9-10.9-16.2-23.2-27.1-32.6c-8.6-5.9-6.4-3.3-10-13.1c32.8,12.2,44.5,54.6,80.6,63.8c10.8,3.5,20.5,10.2,30.5,15.8
				C775.8,1594.1,778.1,1596,776.7,1598.9z M640.8,1591.5c0.7,1,0.9,2.4,1.5,4.1c-2.6,8.4-8.5,0.9-10.5-3
				c-15.2-21.5-30.2-43.1-44.9-65c-8.3-12.2-16.7-24.3-27.3-34.6c-2-1.9-3.9-4.3-2.2-7.2C579.6,1488.1,624.4,1569.8,640.8,1591.5
				L640.8,1591.5z M610.1,1592.5c1.3,1.1,3.5,1.3,5.5,2.1c-4.3,6.5-6.8,6.9-11.8,3.2c-13.2-10-26.2-20.2-39.3-30.4
				c-38.9-31.3-66.4-73.7-98.3-111.5c-1.7-2.1-1.4-3.9,0.1-5.8c2.1-2.8,3.2,0.3,4.1,1c34.2,26.7,53.4,67.4,86,95.8
				C573.7,1562.7,592,1577.4,610.1,1592.5L610.1,1592.5z M325.1,1211c-24.2,4.3-44.3,8.5-68.9,15.1c13.6-9.8,25.3-17.9,37.9-27.6
				c3.2-2.5,9.9-5.6,6.5-10.5c-3.1-4.4-7.1,1.2-10.2,3.2c-13.4,8.9-26.1,17.8-39.6,27.1c10.5-23,25.2-42.8,37.6-64.7
				c0.7-1.1,0-3,0-4.6c-8.1-0.7-25.6,33-31.5,40.8c-4.8,7.8-9.4,15.8-13.7,23.9c-0.8,1.6-0.5,3.9-3.1,2.9c-0.5-0.2-0.6-2.5-0.3-3.7
				c5-18.3,10.1-36.5,15-54.7c2.6-6.1-4.3-9.2-7.2-3.2c-7,20-11.5,40.4-17.7,61c-2.2-12.4-3.5-23-4.9-35.1c-2.4-9.1-1-37.8-9.2-41.1
				c-3.7,0.6-3.2,4.6-2.9,7.6c2.4,23.9,4.7,47,7.2,71.4c-8.6-17.9-16.4-33.8-24.5-51c-19.9-17.5,11.2,44.5,13.3,48.3
				c0.6,1.2,3.3,2.1,1.2,3.7c-0.6,0.4-2.9-1-4.1-2c-7.7-6.7-15.5-13.4-23.2-20.2c-4.2-2.2-24.5-25-26.5-19.6
				c-5,7.9,16.6,19.4,21.2,25.3c7.8,8.9,16.8,16.7,26.6,23.3c-1.6,1.8-3.1,2.6-6.8,0.5c-13.5-7.8-27.5-14.9-41.3-22.2
				c-1.5-0.8-3-4.3-5.3-0.1c-2,3.8,0,6,2.2,7.3c13.1,7.4,26.4,14.5,39.6,21.7c-0.1,0.5-0.1,1-0.2,1.5c-22.3-4.8-44.6-9.7-67-13.9
				c-3.2-0.1-8.6,6.3-2.3,7.7c22.8,6.5,47.6,9.7,69.6,17c-17.9,7-36.8,11.3-55,17.4c-19.4,18.3,53.7-7.8,59.6-9
				c-18.2,14.6-36,28.3-53.5,42.9c-4.2,3.5-12.3,8-10.1,12.8c2.5,5.5,7.4-1.8,11.3-3.3c10.4-8.8,21.6-17.4,32.4-25.9
				c8.5-5.7,15.5-14.3,25-18.1c-0.2,1.3,0.1,2.9-0.6,3.9c-5.2,7.7-10.2,15.5-14.8,23.6c-1.8,4.8-17.8,28-11.6,30.1
				c3.2,1.3,4.5-1.3,5.8-3.6c10.5-17.2,20-32.7,31-50.7c-4.8,14.2-5.3,21.2-7.5,33.9c-3.3,16.1-8.5,31.8-13.3,47.4
				c-0.7,3.6-1.9,8.6,4,7.1c4.1-1,4.4-6.6,5.6-10.6c8.5-23.7,12.2-48.7,19.1-72.8c0.9,1.1,2.4,2.1,2.6,3.3
				c2.1,17.3,4.1,34.7,6.1,52.1c0.2,1.8-0.9,4.2,2.4,4.5c9.9,0.2,3.9-13.4,4.6-19.4c-1-14.7-1.9-28-3-43.7
				c13.5,23.8,18.1,46.5,29.8,70.1c4.3,8.2,12.4,2.1,6.1-4c-11-23.1-15.4-44.6-26.8-69.5c12.1,16.8,26.6,27.4,40.3,41.4
				c3.4,3.8,9.5-2.1,5.1-5.4c-13.5-14.1-27.2-28.1-40.3-42.6c6-2.8,8.7,3.3,13,5c6.7,1.7,13.3,3.9,19.6,6.8
				c7.8,1.9,42.9,25,45.7,20.5c3.8-9.4-35-23.5-42.5-28.2c-8.2-3.8-16.5-7.5-24.8-11.2c-2-0.9-5.5-1.1-4.9-4.3c0.6-3,4-1.8,5.6-1.3
				c15.5,4.4,31.6,2.4,47.4,3.6c2.1,0.2,4.4-2.1,6.6-3.2c-4.3-8.6-41.6-3.3-54-9.2c21.3-10.2,45.3-10.2,66.8-19.2
				C330.8,1216.6,330,1209.4,325.1,1211z M241.5,1241.8c-0.9,10-6,17.7-18.1,19.7c-7.4-3.4-16.6-6.8-16.9-16.7
				c-0.3-10.5,6-18.9,17.3-19.4C233.9,1224.9,242.5,1229.7,241.5,1241.8L241.5,1241.8z"/>
		</g>
	</g>
</g>
<g>
	<g id="Layer_1_2_">
		<g transform="matrix( 1, 0, 0, 1, 0,0) ">
			<g>
				<g id="Layer0_0_FILL_1_">
					<path d="M52,1548v15l-37,37h946l-37-37v-15H52 M52,52V37.7L14.3,0H0v1600h15l37-37v-15V52 M924,52V37.7L961.7,0H14.3L52,37.7
						V52H924 M976,0h-14.3L924,37.7V52v1496v15l37,37h15V0z"/>
				</g>
			</g>
			<g>
				<path id="Layer0_0_1_STROKES_1_" class="st5" d="M961,1600h15V0h-14.3L924,37.7V52v1496v15L961,1600H15H0V0h14.3h947.4 M52,52
					V37.7L14.3,0 M15,1600l37-37v-15V52h872 M924,1548H52"/>
			</g>
		</g>
	</g>
</g>
</svg>
