<svg xmlns="http://www.w3.org/2000/svg" xmlns:xlink="http://www.w3.org/1999/xlink" viewBox="0 0 976 1600">
<style type="text/css">
	.st0{fill:#FFFFFF;}
	.st1{clip-path:url(#SVGID_2_);}
	.st2{fill:#FFEB5C;}
	.st3{fill:#333333;}
	.st4{fill:#D81E1E;}
	.st5{fill:none;stroke:#333333;stroke-width:2;stroke-linecap:square;stroke-miterlimit:3;}
</style>
<g id="Paper_Backing">
	<path class="st0" d="M960,22v1556c0,3.3-2.7,6-6,6H22c-3.3,0-6-2.7-6-6V22c0-3.3,2.7-6,6-6h932C957.3,16,960,18.7,960,22z"/>
</g>
<g id="Wikipedia_Cropped">
	<g>
		<defs>
			<path id="SVGID_1_" d="M960,22v1556c0,3.3-2.7,6-6,6H22c-3.3,0-6-2.7-6-6V22c0-3.3,2.7-6,6-6h932C957.3,16,960,18.7,960,22z"/>
		</defs>
		<clipPath id="SVGID_2_">
			<use xlink:href="#SVGID_1_"  style="overflow:visible;"/>
		</clipPath>
		<g class="st1">
			<path class="st2" d="M492.5,1252.3c-18-9.6-4.2-18.6-29.7-26.5c-16.5-28.1,24.9-58.4,51.6-46.1c30.1-2.9,55.5,46.6,22.7,60.5
				c-19.6-2.7-15.1,3.9-30.5,8.1C500,1244.9,497.6,1249.8,492.5,1252.3z M293.3,1237.9c-3.6-0.5-5.5-5.2-9.8-3.6
				c-6.7-3.1-11.1-11.1-14.8-16.1c-1.3-2.9-4.5-3.8-7.5-3.2c-8.4-0.4-18.5-14-28.9-8.3c-28.4-5.8-5.2-32.7,5.8-43.2
				c16.2-12.2,37-13.6,56.5-13.3c31.9,0.6,65.7,29,63.5,60.9c-8.9,17.4-19.8,0.9-40.8,12.9C305.9,1223.3,305.1,1236.7,293.3,1237.9
				L293.3,1237.9z M594.7,1132.7c-8.5-1-4.3-11.3-7.6-15.9c-4.8-3.7-4.3-12.4-8.7-16.2c-7.9-7.7-15.1-15.8-24-21.3
				c-5.1,0.5-8.7-6.4-13.6-6.8c-8.2,2.7-18.2-5.8-11.8-14.6C590.5,975.1,702.9,1124.5,594.7,1132.7z"/>
			<path class="st3" d="M55.2,1604c-7-2.5-56.2,5.3-59.2-4c6.7-12.9-13.3-113.4,13.2-113.1c44.6-26.3,88.5-59.9,110.2-108
				c14.1-37.5,60.9-35.8,82.7-59.5c14.7-14.3,27.5-30.5,47.6-38.7c14.3-5.9,26.6-11.9,32-26.4c0.8-2.2,3.3-3.5,6.5-3.5
				c3-0.2,6,2.5,6.6,5.4c1.8,10.1,12.9,15.1,18.8,22.8c14.2,6.4,36.6,11.6,52.5,6.2c64.1-35.7-22.7-54.5,38.8-67.2
				c16.3-7.1,10.1,11.5,10.1,20.7c5,33.4,40.3,53.3,70.9,40.7c2.7-2.5,7.6-2,9.7,0.9c9.4,7.7,42.5,34.2,57.7,21
				c0.8-3.3,4.9-3.5,7.6-4.4c17.6,0.7,18.4-19.4,30-23.1c40.1,24.5,86.8,58.9,136.7,55c24.9-3.7,36.8,25,57.7,26.5
				c62.6-10.3,95.2-73.3,150.9-94.6c32.9,4.8,11.7,27.5-3.5,41.2c-39.4,41.9-76.5,86.5-129,113.7c-119.5,51.5-317.4-209-403.8-46.8
				c-33.6,74.4-90.9,63.1-134,110.7c-38.1,35.4-58.3,73-88,109.7c-3.7,3.4-0.2,7.4,0.7,11C179.5,1610.8,59.1,1600.6,55.2,1604z
				 M217.9,1043.4c-15.8-11.9-22.6-37.8-37.2-52.7c-13.4-17.1-22.7-33-22.1-57.8c3.2-19.1-8.9-45.5-1.3-65.7
				c10.2-27.7-10.2-40.9-8.1-65.6c-3.2-36.6,6.3-72.4-10.4-109.1c-4.6-30.1,16.1-61,18.4-91.4c5.4-11.7-8.7-10.5-9.1-19.2
				c-0.7-43.1-3.5-86-2.1-129c3.8-30.1-5.5-61.8,6.5-90.7c16.9-26.8,48.8,6.7,42.2,27.3c8.3,176.3-4.7,353.2,22.3,528.2
				c-2.9,40.7,42.8,61.9,57.1,96.5c-0.9,2.3-3.6,4-7.3,4.6C245.8,1020.5,232.9,1033.5,217.9,1043.4L217.9,1043.4z M596.9,942.5
				c-11.8-6.1,4-23.1,2-31.9c-17.1-33,6.2-78.1,2.3-115.6c0.1-29.9,9.4-59.8,3.5-88.9c-8-23.4,6.4-47.4,8.4-70.8
				c2.1-17.4,5.7-36.1,5.7-53.3c0.6-29.7,44.3-27.5,24-79.9c-2.9-7.6-7.9-14.1-14.4-19c-14.1-21.1-0.8-60.2-0.9-88.1
				c5.4-48.6-1.6-97.6,7.5-145.9c1-38.6,48.6-5.2,41.9,21.3c-1.5,35.8-4.8,71.9-2.8,107.8c-4,26.6,12.3,54,6.2,79.1
				c-0.1,9.1-10.2,8.1-10.9,15.6c2,19.8,0.2,39.1,1.7,58.8c3,18-7.7,33.9-7.6,50.4c1.6,3.4,7.6,2.4,7.1,7.1
				c-11.4,89.3-15.4,159.8-13,247.1C654.5,991,687.8,920.8,596.9,942.5L596.9,942.5z"/>
			<path class="st4" d="M457.5,1411.2c-9.4,0.6-7.8-8.1-15.4-6.7c-16.7,0.3-28.9-25.9-28.6-40.8c4.2-31.6,26.8-48,58.7-47
				c14.5-2.4,27.7,8.1,32.2,20.3C531.2,1364.9,491.4,1408.4,457.5,1411.2z M76.5,1349.4c-58.9-3.8-63.7-86.9,0-91.8
				C135.2,1260.1,139,1347.1,76.5,1349.4z M548.4,1296.9c-47.4,5.1-51.9-32.4-63-22.5c-19.8,17.8-56.3-5-66.6-23.7
				c-9.7-10.4,4.4-21.7,0.2-31.1c-1.9-3.4-5.2-6.7-9.3-4.6c-6.7,5.6-23.4,4.9-29.5,13.9c34.3,43.9-24.6,73.9-62.9,51.1
				c-20.1-4.1-25.4-43.7-35.3-26.5c-22.6,48.3-104.3,37.2-108.6-18.5c-81.3-10.2-91.3-131.3-1.4-130.4c76.3,15.6,4.3-21.6,54.5-65.3
				c42.3-41.3,119.4-14.3,121.1,44.9c6.9,13.4,33-12.7,48.5-7.3c11.6-3.1,35.6,9.4,51.9,23.7c5.6-5.5,27.3-20.3,21.5-28.2
				c-58.1-66.6,19-178.1,86.4-96.8c24.7-28.5,61.5-51,100.1-31.9c15.3,2.4,3.2-13.2,4.5-20.6c-2.6-8.7,2.8-15.3,0.8-22.7
				c4.1-25.1,34.6-37.8,56.5-30.7c38,10.6,43.9,61.9,11.3,83c-23.9,16.3-57.9-10-31.5,32.6c10.3,12.4,18.9-15.4,34-11.9
				c15.6-1.7,29.7,13.6,29.3,29c0,14.7-13.4,28.6-27.5,28.6c-20.4-0.1-30.4-31.9-37.6,5.9c-11.3,17.7,49.6,10.5,58.3,40.7
				c16.5,31.2-28,63.2-10.9,67.8c12.2,0.8,22.2,9.9,27.2,20.6c23.6,27.6-16.4,69.1-46.8,57c-13,3-23.6-36.8-34.3-20.6
				c-15,55.1-63.3,56.3-108.4,52.8C587.4,1280,579.6,1298.6,548.4,1296.9z M488.4,1186.9c-11.7,5-44.6,30.8-22.7,41.1
				c16.8,3,20.1,40.2,33.1,30.1c11.9-17.5,38.9-11.5,48.3-23c4.6-6.2,1.3-9.6-2-14.9C545.7,1190.3,512.5,1180.6,488.4,1186.9
				L488.4,1186.9z M264.6,1158.9c-20,6.3-38.2,20.8-40.8,42.5c12.7,8.7,32.3,6.3,45.9,20c10.4,3.3,10.5,18.8,18.6,23.9
				c32.9-34.8,70.5-18.5,63.5-34.9C347.8,1166,303.6,1152.1,264.6,1158.9L264.6,1158.9z M532.2,1059.9c-28.4,11.7,51,18.7,55.6,66
				c3.4,8.3,32.1,2.6,38.8-1.1c-0.7-11.9,7.7-24.7,4.5-36.3c-7.4-28.8-37.2-54-67.9-46.7C551.6,1041.8,543.9,1058.7,532.2,1059.9
				L532.2,1059.9z M308.4,988c-59-0.2-58.7-90.8,0.1-91.3C369,896.4,369.6,987.9,308.4,988z M112.7,898.2
				c-53.4-3.1-65.9-73.9-12.8-92.8C169.2,789.9,182.9,896.6,112.7,898.2z M532.5,897.7c-19.1-11.6-17-1.7-31.1-10.7
				c-44.5-29.6-25.6-103.8,28.4-104.3C608.5,779.7,610.3,894.7,532.5,897.7z M274.5,820.9c-70.3-3.6-51.8-107.5,13.5-86.2
				C333.5,745,326.1,819.4,274.5,820.9L274.5,820.9z M744.8,721c-77.3-1.3-77.7-112.2-1.2-114.3C815.9,611,819,713.6,744.8,721z
				 M595.8,572.8c-6.3,0.7-8.2-4.3-13.3-4.9c-3.3,0.8-6.7,1.9-9.6-0.8c-17.9-9.5-32-32.3-27.3-54.4c2.1-6,2-11.2,8.1-14.4
				c7-6.6,1.7-14.2,15.7-17.8C643.2,441.2,680.7,563.3,595.8,572.8z"/>
			<path d="M956.9,1266.4c-6.4-8.7-18.5-13.7-26.4-9.6c-41,14.4-126.8,118.2-162,81.6c-10.8-9.7-24-19.8-37-16.5
				c-19.5,4.8-36.3-0.8-51.1-8.5c-21.6-11.3-46.4-16.1-65.6-32.4c-9.5-8.2-21.5-13.3-30.5-24.2c45.4,13.9,98.1-5.4,109.6-54.8
				c25.3,51.3,102.6,22.9,85-31.4c-1.8-5.7-2.6-9.7,2.8-13.7c6.4-6.7,22.4-13.9,18.7-24.8c-0.6-1.2-2.1-1.7-3.3-1.1
				c-0.4,0.2-0.7,0.5-1,0.8c-4.5,8.4-13.6,11.8-19.5,18.6c-3.6,4.1-7.7,5.4-11.8,0.1c-4.5-5.9-11.1-8.2-18.1-9.6
				c-1.5-0.5-2.7-1.5-3.6-2.8c38.5-44.4,12.5-97.4-47.2-90.8c0.4-1.6,0.4-3.6,1.4-4.8c3.5-4,4-9.1,6.1-13.5c0.7-1.4,0.2-7.2,3.7-4.7
				c14.9,15,40.2,15.4,52.3-2.6c25-35.5-29.5-75.2-54.4-36.5c-1.5,2.3-3.3,1.1-3.8-0.7c0.8-8.8-7.4-13.3-8.8-21
				c26.2,5.5,51.1-8.3,60.3-34.2c16.4-52.5-53.1-93.6-89.8-43.9c1.3-66.2-3.1-130.2,2-195.9c1.5-12,2.6-24.2,4.1-36.2
				c0.7-5.2,4.2-4.8,8.2-3.8c18.5,4.6-10.9,20.7,20.7,57.1c32.3,40.2,105.3,13,107-36.7c5.2-44.4-43-81.7-84.3-63.5
				c-15.8,5.8-26.8,17-34.3,32.1c-2.9,5.8-7.5,0-11.3,0.4c-2.5,0.2-2-1.6-2.1-3c-0.7-19.8,4.2-39.2,2.5-59.1
				c-1.3-15.1,0.8-30.5,1.4-45.8c0.8-17.1-1.8-34.2,1.9-51.2c2.9-13.5,10.4-26,8.1-40.5c-12.3-52.7-5.1-106.1-5.9-159.5
				c0.3-17.5,2.3-35.4-15.8-46.5c-10.7-7.5-21.8-14.8-30.6,0.3c-6.6,13.7-4.6,29.7-7.5,44.4c-3.8,63.1-6.3,126.4-10.3,189.6
				c-0.1,2.7-0.4,4.4-3.6,2.9c-35.7-14.2-76,17.4-72.6,55.6c1.7,50.3,44.6,41.3,38.1,59.7c-4.7,15.6-9.4,31.1-18.3,45
				c-1.9,3-6.5,6.9-2.5,9.9c3.6,2.7,6.8-1.8,9.2-5c12-16,18.3-34.1,22.5-53.7c1.7-8,14.4,1,20.7-4.6c0.2-0.2,1.6,0.7,2.2,1.4
				c-1.3,26.9-6.1,53.8-11.2,80.3c-13.3,32.9,3.3,56.6-2,89.5c-3.9,20.9-4.3,42.5-6.5,63.7c-0.2,2.2,3,4.7-0.5,6.7
				c-28.8-71.4-133.6-42.6-119.8,33.7c3.4,17.2,11.8,30.4,26.5,39.3c7.3,4.4,11.7,6.8,4.6,16.1c-5.6,7.3-11.3,13.8-18.5,19.3
				c-0.9,0.7-1.2,2.3-1.7,3.5c1.7,0.6,3.7,2.4,5.1,1.9c7.4-4.6,15.6-8.1,20.7-16c5-7.6,7.8-17.9,21.1-15.3
				c24,3.5,47.8-11.1,57.9-33.6c1.1,24.8-6,46.8-3.6,71.3c0.2,2.5-1.2,6.4-3.2,7.7c-10.6,6.9-19.3,16.4-25.2,27.7
				c-20.3-37.9-72.2-44.6-97.4-6.5c-23.1,31.6-18.7,81.1,11.6,106.3c-6.9,6-14.2,11.9-18.2,20.7c-1.8,4.1-3.1,2.9-5.9,0.4
				c-20.7-25.4-64.1-29.3-89.1-11.7c-2.9,2.1-3.7,1.7-4.6-1.3c-5.5-32.1-21.1-58.8-54.9-66.2c-5.9-1.5-12.7-0.8-17.1-6.7
				c-15.6-24.2-38.4-42.9-53-67.6c-12.1-23.8,10.1-22.1,24.2-18c3.8,1.2,10.2,0.5,8.8,8.7c-3.3,19.2,2.1,41.1,20.6,52.3
				c38.2,25.1,90-12.7,76.1-56.5c-4.4-16.3-27-39.1-43.4-37.2c-15.8,1.9-32.5,2.9-42.6,19.1c-1.2,1.9-4.1,8.2-8.3,6.1
				c-7.5-3.7-15.3-3.2-23.1-3.6c-6.4-0.4-15.9,0.3-18.3-3.3c-4.4-6.8-6.3-16.2-6.4-24.6c-0.2-19.5-0.4-39.1-3.9-58.1
				c-2.5-13.6,1.3-20.5,14.2-24c2.8-0.8,4.7-2.3,6.8,0.9c16.3,26.4,50.5,29,72.6,11.7c24.6-19.2,26.5-65.1-5.2-81.8
				c-17.1-7-3.5-16.2-10.8-29.9c-2.1-7.5-10.6-5.8-8.9,1.8c1.6,38.4,1.6,10.3-25.9,24.2c-21.3,7.3-35.4,37.5-28.7,59.3
				c1.2,4-1,4.7-2.7,5.2c-4.1,1.3-7.4,5.5-12.1,4c-1.1-0.3-1.6-3.8-1.6-5.8c-0.2-9.5,0.2-18.9-0.3-28.3
				c-6.4-79.8-3.2-159.7-7.6-239.6c-5.4-36.8,12.4-157.3-18.8-173c-25.9-16.8-44.8,15.2-41.6,38.1c3.4,45.8-1.4,91.3,1.1,137.1
				c2.1,16.6,0.3,33.6,1,50.4c1,25.6,3.9,51.8-4.7,76.2c-7.7,21.9-5.9,42.3,1,63.1c8.6,26.2,0,52.8,3.3,79.1c1.3,4,0,8.8-0.2,13.2
				c-46.3-31.8-101.1,23.8-72.7,71.1c1.6,3,1.4,4-2,5.3c-6.5,3.6-24.3,7.5-24.7,15.1c1.4,3.8,11.9-0.7,15.5-0.5
				c7.9-1.3,15.1-10.5,22.4-6.6c22.8,12.2,44.3,15.8,65.1-3.4c1.9-1.7,2.7-0.5,2.9,1.8c1.2,11.8,3.8,23.7,3.5,35.5
				c-4.2,41.3,28.9,69.8,46.5,103.3c25.6,35.1-8.1,25.9,7.5,74.6c-43.7-12.6-96.2-1.7-103.7,50.6c-3,35.5,20.8,69.2,55.8,78
				c2.6,0.6,6-1.1,8.8-0.9c7.9,1.7,5.9,18.5,10.1,24.5c2.1,4.5,0.4,3.9-2.5,3.8c-13.4-0.5-26.1,3.8-39.2,5.5
				c-7.7,0.9-16.4,9.4-23.2,2c-61-56.4-129.3,50.7-54.2,83.5c34.4,12.8,78.9-18.2,67.9-55.2c-7.5-19.3,2.1-21.5,16.8-23
				c56.1-13.3,34.2,4.9,85.2,14.5c-10,2.1-15.9,10.4-21.1,17c-14,18.3-33.9,26.6-53.6,35.6c-9.1,4.2-18.9,6.3-25.7,14.8
				c-9.8,12.1-15.8,26.6-24.4,39.3C79,1434.6,39.4,1461.3,0,1485.4c-9.1,2.9-9.3,16,2,10.8c30.2-19.7,62.8-36.8,86.6-64.8
				c12.7-16.2,26.8-31.5,34.6-51c8-19.8,25.5-29.1,43.2-35.6c36.5-9.3,52.1-45.8,84.9-60.4c14.7-6,28.2-12.6,34.2-28.7
				c0.9-1.2,5.2-1.3,5.5,1.3c1.6,8,7.4,13,12.9,18.1c2.1,2,6.4,4.9,6.1,5.6c-16.8,35.2-39.8,67.2-72.7,89.6
				c-24.5,13.8-118.7,103.6-117.8,128.3c3.4,2.5,5.7-1.4,7.7-4.2c60-95.6,127.9-48.1,205.7-100.7c4.8-3,2.8-9.2-2.5-6.8
				c-26.5,12.2-52.5,24.7-82.3,26.1c-7.6,0.5-15.1,1.7-22.4,3.6c-11.7,3.2-24,3-35.5,7.8c25.6-22.3,47.4-50.6,84-56.5
				c52.9-9.3,86.9-8.5,131.9-42.8c6.4-3.9,2.5-10.2-4-7.8c-17.8,9.6-34.9,20.3-54.5,26.1c-25.1,5.8-50.7,9.9-75.9,14.7
				c13.8-19.3,31.7-36.8,39.8-59.5c1.6-10,6.9-13.6,12.4-12.2c9.8,2.3,19.8,5.5,29.7,5.3c30.4-0.8,55-35.2,32.5-58.7
				c-4.4-5,0.9-5.4,2.8-5.7c8.5-0.6,15.2-6.1,23.5-6.8c-3.7,22,1,37.8,18,52.2c7.8,7.2,14.8,16,29.6,13.6c9-1.5,19.4,2.5,28.2-3.6
				c2.3-1.6,3-1.2,4.6,0.4c15.7,15.6,36,23,56.7,27.5c59.9,14,112.3,47.1,170.3,66.8c54.9,23.3,98.8,23.8,133-29.7
				c-8.3,0.3-13.8,7.6-19.8,12.4c-10,8.5-19.8,17.6-33,20.8c-44.1,7.2-83.8-18.3-124.5-31.2c-14.1-4.7-27.2-13-40.6-19.8
				c-24.3-14.2-53.9-16-77.7-27.8c11.2-3.6,24-4.5,28.2-18.1c2-6.4,5.2-8.4,10.9-3.8c24.2,23.5,56.8,33.5,87.3,46.3
				c27.7,16.2,53-5.4,76.3,19.7c45,47.6,127.4-60.6,170.5-80c6.7-4,13.8,0,19.1,4.7c4.3,3.9-0.7,7.2-2.8,9.8
				c-5.3,6.4-11.1,12.3-16.8,18.3c-50.4,49.7-116.9,146.2-197.6,113c-59.1-21.2-114.5-51-171.1-77.8c-46.2-22.8-118.7-41.4-151.9,11
				c-13.5,19.7-21,42.4-39.5,59.8c-19.3,18.1-38.5,34.4-64.3,39.9c-19.5,4.2-29.6,19.6-42.1,31.6c-35.8,32.3-59.3,74.9-90,111.6
				c-4,3.3-3.8,10.3,1.5,11.8c2,0,3-3.3,4.7-4.4c10.6-7,13.4-19.8,22-28.9c13.9-14.7,23.8-33.2,37.8-47.7
				c22.3-23,38.4-52.9,72.6-63.3c39.2-11.6,73.3-43.1,91.7-79.8c1.1-2.9,4.3-4.9,6.5-7.3c2.6,14.2,8.7,27.5,17.8,38.8
				c2.8,3.8,9.4,4.8,9,10.6c0.4,10.6-7.6,22.3-1.8,32.1c4.6,3.1,7.2-6.7,7.9-9.8c0.6-2.7-0.7-6,0.3-8.4c2.2-4.8,0-14,6.5-14.1
				c47.1,1.2,91.6-53.4,54.3-94.7c18.3,6.2,35.6,9.1,49.5,17.5c54.7,30.2,111.5,55.6,169.1,79.7c45.2,21.6,95.4,4.9,129.8-27.9
				c37.4-31.3,69.3-68.9,101.7-105.3C959.8,1280.5,961.8,1273.2,956.9,1266.4z M732,977.3c31.9-1,32.7,47.9,1.5,49.6
				C698.7,1022.6,699.7,980.4,732,977.3z M789.5,645.6c4.8-2.2,4.7,3.7,5.1,5.8c4,26.5-5.9,50.1-30.8,60.8c-4.1,2.1-3.6-3.5-4.6-5.5
				c-3.9-7.7-7-15.9-11.2-23.4C743.9,676.5,782,647.3,789.5,645.6L789.5,645.6z M696.1,637.1c18.7-30.8,68.6-36.6,89.8-4
				c1.9,3.1,1.9,3.4-9.8,9.6c-13.9,7.4-25.1,17.8-34.5,30.2c-0.9,1.2-0.8,2.6-2.9,0.6c-12.3-11.8-26.6-21.2-42.3-27.7
				C689.2,643,694.9,638.9,696.1,637.1L696.1,637.1z M689.7,662.9c1.7-15.3,9.5-3.3,12.9-1.6c22.2,11.1,41.1,25.7,48.4,51
				c1.1,3.9-1.1,4.9-9.5,4.5C715.8,716.5,686.7,690.8,689.7,662.9z M510.5,790.7c14.5-8.2,48.4-3.1,59.6,9.3c1.9,2.1,0,2.8-1,3.9
				c-12.2,12.1-24.8,24-31.4,40.5c-1.4,3.5-2.7,3.8-5.8,0.7c-13.8-14-31.9-17.9-50.2-20.8C486.2,808.7,496.7,798.5,510.5,790.7z
				 M519.2,879.5c-2.9,9.8-7.9,10-15.4,4.3c-15.2-11.4-24.3-25.6-22.8-45.3c0.3-3.5,0.3-3.5,5.9-3.5c15.5,2.9,31.5,7.3,40.6,22.4
				C529.5,862.3,521.6,873.4,519.2,879.5z M557.2,887.5c-7.6,3.9-15.9,3.7-24.7,6.3c-15.9-4.2-1.7-13.4-0.4-16.3
				c12.6-23.2,21.4-51.6,44.1-67c3.4-2.3,5.3,3.8,6.2,6.2C591.7,842.1,586,872.6,557.2,887.5z M348,925.1
				c8.4,22.9,1.4,40.3-18.7,53.9c0.1-7.1-4.4-11.4-8.1-16.1C309.3,948.4,334,953.1,348,925.1z M314.3,901.1
				c11.5,1.5,22.8,6.9,28.2,17.5c-8.9,11-18.5,21.8-31.4,27.8c-2.5,1.2-9.3-7.3-14.3-11c-7.5-5.4-15.3-10.5-22.9-15.8
				C283.7,906.4,296.8,898.9,314.3,901.1L314.3,901.1z M268.8,931c2.8-7.4,54.7,42.8,52.8,50.8C291.2,992.6,258,961.7,268.8,931z
				 M299.1,807.7c-18.4,15.3-47.1,10-59.3-9.4c-3.6-5.6,3.1-4.6,5.2-6.2c4.2-3.3,9.8-9.2,13.3-8.2
				C262.6,783.5,308.3,804,299.1,807.7L299.1,807.7z M285.8,743.5c2.9-9,8.1-3.8,10.4-1.9c14.8,11.1,25.3,33.3,13.4,54.5
				c-1.8,4.5-3.2,2.6-5.9,1c-9-5.5-17.9-11.4-27.4-15.9c-7-3.3-12.4-6.2-5-13.3C278.5,760.9,283,752.4,285.8,743.5z M232.8,776.3
				c-1.3-21.2,18.5-41.2,43.2-41.2c7.9,0.8-1.1,8.1-1.5,9.2c-7.8,18.8-20.3,34-39.3,41.9C231.6,787.7,233,779.5,232.8,776.3
				L232.8,776.3z M76.7,1261.6c6.4-1.2,41.1,9.9,22.5,18.3c-10.7,4.7-19.1,16.5-32.5,12.6c-9.6-2.8-20,1.6-28.6-6.4
				C44.7,1270.3,59.2,1262.8,76.7,1261.6z M33.6,1308c-1.3-8.7,0.8-14.2,10.3-9.6c8.4,2.4,17.7,2.6,26.5,3.5c-2.2,3-3.7,6.8-6.6,8.7
				c-8.4,5.8-9.4,16.1-15.8,23C41.7,1326,34.7,1318.8,33.6,1308z M60.7,1342.7c-16.4-6.3,38.3-57,49-58.7c5.1-2.6,6,2.9,6.9,5.1
				C127.8,1323.3,95.1,1355.4,60.7,1342.7z M729.2,1215.7c-5.4,13.7-30-17.2-28.2-27.7c0.2-5,7.3-2.3,11-2.6
				c6.7-0.4,13.4,0.3,19.9,2C745.8,1190.2,730,1199.6,729.2,1215.7L729.2,1215.7z M767.3,1170c1.6-2.1,2.8,1.4,3.4,2.4
				c10.8,21.7-11.9,49.1-34.9,48.6c4-8.2,8.2-15.3,11-23C751,1186.6,760.2,1179.1,767.3,1170L767.3,1170z M761.6,1158.2
				c2.5,2.1,2,3.1,0,5.2c-5.8,6.2-10.7,13.2-17.1,18.6c-1.7,1.5-7.7-1.7-11.5-3.2c-10.3-3.3-21.6-2.1-31.9-0.8
				C703.3,1151.6,741.5,1138.7,761.6,1158.2L761.6,1158.2z M720.3,874.3c19.3,8.3,30.9,29.6,25.6,50c-3.6,1.9-4.5-3.5-7.3-4.8
				c-18.5-8.6-21.2-25.1-21.5-42.8C717,874.6,716,872.3,720.3,874.3z M665.4,897.4c6.6-13.7,17.2-22.2,32-25.9
				c10.1-2.5,14,0.9,11.8,8.4c-1.7,10.9,2.3,17,2.9,24.9c-15-2.6-29.7-7.8-45.2-4.4C664.7,901,665.1,898.6,665.4,897.4L665.4,897.4z
				 M677.7,908.8c21.7-1,40,7.8,57.8,18.3c8,4.7,4,15.1-8.2,21.9c-24.8,15.5-63.3,0.3-62.7-30.7
				C660.8,906.1,669.5,909.2,677.7,908.8L677.7,908.8z M575.2,563.8c-18.5-7.9-36.8-43.3-19.8-61.8c14.4,15.7,21.3,36.7,23.6,57.6
				C579.4,565.3,578.5,566,575.2,563.8z M581.5,524.6c-4.8-10.9-11.5-20.4-18.6-29.9c-5.2-7.1,5.4-8.2,8.9-11
				c16.4-12.1,40.3-7.2,55.1,5.2c4.3,3,1.2,3.4-1.4,4.7c-15.3,7.3-27.7,18.5-38.9,31C584.5,526.9,582.6,527.1,581.5,524.6z
				 M603.4,567.7c-22.4,5.3-13.4-10.6-14.6-18.3c-4.3-29.8,22.7-34.3,39.7-45.9c13.4-9.1,8.5,7.3,11.9,11.7
				C647.7,537.1,625.3,562.7,603.4,567.7z M640.7,767.1c-0.4-1.5-2-2.7-3.1-4.1c-0.9,1.4-2.4,2.7-2.7,4.2c-2.1,13.9-4.3,27.8-6,41.8
				c-5,34.5-19.5,60.6-31.9,94.5c-1.6-26.2,3-46.2,5.8-71c2.1-37.7,5-75.4,8.1-113.1c0.7-9.5-5.1-17.8-5.3-26.9
				c1.7-19,8.6-37.8,11.2-56.8c2.1-18.1,6-36.7,5.6-54.8c-2.9-13.1,10.2-14.9,15.6-21.6c15.1-18.6,16.2-37.6,8.2-58.9
				c-8.8-24.5-25.3-14.5-18.9-43.6c0.9-41.3,5.8-82.1,7-123.3c2.2-18-3.3-36.8-0.2-54.9c1.1-8.1,2.8-16.1,4.4-24.1
				c1.1-5.4-1.9-11,2.3-16.2c3.7-4.6,7.5-4.2,11.9-2.1c14.3,6.8,20.4,18.7,19.9,33.9c-1.6,57.3-10.2,115.8,5.8,171.8
				c2.3,6.4-2.3,12.8-4.4,20.5c-6.3-38.6-22.5-73.8-18.8-112.2c2.6-21.5,3.5-43.4,9.4-64.5c0.5-4.7,1.8-11.3-2.4-14.6
				c-23.1,50.7-22,112.5-2.4,164.9c9,30.2,4.9,64.7,7,96c1.1,14.5-2.7,27.9-7.1,41.5c-9.3,30.7-18.7,61.5-27.8,92.2
				c-3.6,14.5-6.3,29.3-8.7,44c-0.6,3.3,3.2,5.6,6.3,7.2c10-44.5,23-83.3,36.9-128.1c-4.3,58.9-16.1,111.4-13.3,169.5
				c-0.2,19.5,0.4,39,0.9,58.5c0.4,17.4-2.8,34.7,0.2,52.2c1.5,23-0.8,46.5,2.6,69.5c-20-6.7-39.7-8.9-60,0
				c-0.1-12.7,6.7-23.1,11-33.8C624.6,861.2,649.8,814.9,640.7,767.1L640.7,767.1z M469.8,1065c-50.7-64,23.4-162.6,79-88.2
				c10.8,21,18.8-21.5,51.6-31.3c53.2-21.3,117.7,33,91.8,89.9c-2.7,5.9-7.1,11.7-3.8,18.4c1,2.6,2.3,0.2,3.7-0.4
				c1.8-0.7,3.7-1.1,5.6-1.2c17.3-1.5,47.9,12.8,52.9,26.7c7.6,21.3-1.7,50.9-26.4,62.1c-13.9,5.5-31.2,20-43.2,3.2
				c-10.8-13.1-26.3-17.1-43.1-20c7.4-5.3,53.5-32.8,48.5-40.2c-3.3-3-6.8,0.4-9.3,2.4c-14.5,11.8-30.1,22.2-46.7,31.1
				c-10.8,6.5-23,10.4-35.6,11.4c-0.4,0.1-1.7-1.5-1.6-2.2c0.2-1.2-2.5-2,0.5-3.8c23.7-12.6,45.8-27.1,63.8-47.3
				c4.7-4.6,11.8-7,12.3-14.5c-2.1,0.1-4.8-0.7-6.1,0.4c-18.2,15.6-36.3,31.3-56.5,44.2c-5.3,3.3-10.9,6.2-16.8,8.6
				c-0.5,0.2-3.2-4.3-4.5-6.9c-1.8-3.6,2.2-5,3.6-5.8c14.9-8.3,26.8-19.7,38-31.9c8.8-10.6,20-19.2,25-32.4c2.5-4.7-2.8-9.3-5.1-3.7
				c-14.2,18.9-30.7,36.1-49,51.2c-5.1,4.2-10.1,8.7-15.7,12.2c-2.9,1.8-4-2.7-6.1-3.8s-0.9-1.5,0.2-2.5
				c14.1-11.1,23.3-25.9,32.7-40.7c8.5-12.8,16.5-25.8,21.1-40.6c1.7-5.3-4.1-8-6.8-4.1c-6.1,13.9-12.6,27.3-21.8,39.3
				c-9.5,13.1-17.6,26.9-28.6,38.9c-3,3.9-5.5,1.5-8.3-0.3c-3.2-2.1-2.6-3.8-0.4-6.5c13.2-16.5,37.8-53.2,38.5-73.9
				c-0.3-1.4,0.7-4-1.9-3.8c-1.5,0.1-3.8,1.3-4.2,2.6c-7.1,22.7-20.4,42.3-32.9,62.2c-2.4,3.9-3.8,16.7-15,9.1
				c-1.4-0.9-0.4-5.9,2.1-9.5c10-14.5,15.6-30.8,19.8-47.7c1.1-4.4,4.8-8,4-13c-0.5-3.1,1.3-8.1-2.7-8.6c-4.7-0.6-4.4,5.2-5.2,8.1
				c-5.9,21.1-14.4,41.5-25.2,60.5c-2,3.4-3,8.9-8.8,4.6c-5.1-3.8-0.2-7,0.8-10.7c2.3-9.1,3.8-18.3,4.4-27.7c0-7.3,6.3-35.7-2-38.1
				c-1.4,0.5-3.2,2.3-3.3,3.6c-2.2,19.1-3.9,38.2-6.3,57.2c-0.9,4.7-2.8,9.1-5.6,13c-1,0-4.3-1.3-6.3-1.8c-2.3-0.5-1.2-1.7-1.1-3.2
				c-0.7-17.4,1.5-35-2.4-52.2c-0.8-6.9-11.5-6.5-8.2,0.3c4.2,16.4,0.8,33,2.1,49.5c0.4,5.6-1.7,5-5.7,5.7
				c-7.7,1.5-15.7,2.2-22.8,6.9C472.9,1072.8,471,1067,469.8,1065z M455,1215.3c-0.3,1,0.7,3-2,2.1c-14.7-6.5-31.5,2.9-31.8-1.9
				c-0.8-3,2.2-2.1,3.4-3c13.7-10.9,26.6-22.5,31.7-40.5C455.9,1186.6,459.6,1201.1,455,1215.3z M71.2,864.2
				c-6.7-14.2,1.9-35.1,13.1-45.6c1.6-1.4,1.4-1.7,2.9,0.6c7.8,11.9,16.8,22.8,28.1,31.6c1.8,1.4,2,2.2,0.6,3.2
				c-8.6,6.4-17.7,12.1-25.8,19C76.6,884.8,75.9,870.2,71.2,864.2z M145,881c-17.9,14.6-37.1,18.2-57.3,5.2
				c11.5-8.3,24.5-14.4,34-26c4-4.9,9.3,3.4,14.6,3.9c5.5,0.8,10.9,3.6,16,6C149.9,873.8,148.2,878.3,145,881z M154.8,861.5
				c-24.6-7.7-44.3-24.9-59.3-45.1c-3.4-6.2,2.9-6.6,5.9-7.1C132.6,801.8,163.6,829.6,154.8,861.5L154.8,861.5z M174.2,974.8
				c-19.1-27.2-7.3-63.1-16.3-93.9c4.5-19.9,12-39.3-2.3-58.3c-9.2-43.4,6.6-89.3-13.2-131.7c-3.4-7.7,1.1-19,3.4-28.5
				c14.8-42.6,17.6-87.5,25.7-131.5c4.9-21.6,6.8-43.4,4.9-65c-0.9-10,1.5-20.8-3.1-30.5c3.6-6.5,1-7.4-1.3-13.2
				c-0.2-0.6-2.7-1.5-3.4-1c-3.3,2-1.4,5.4-1.4,8.1c-0.8,33.5,3,67.2-5.5,100c-3.2,17.4-5.4,34.9-6.7,52.5c-1,4-3.5,3.2-2.8-0.5
				c-2.2-58.4-3.2-116.8-1.2-175.2c-1.3-17.3-1.9-59.9,26-47c17.7,8.9,12.6,25.8,14,40.3c1.4,46.8,1.5,93.6,3.5,140.6
				c2.8,80.5-3,161.3,4.6,241.6c6.7,51.9,3.5,99.9,17.1,151.8c-35.6-38.3-28.6-87.5-29.4-134.6c1.3-44.9-7.5-89.2-9.8-133.8
				c0-1.1-2-3.3-2.3-3.2c-10.1,4.8-4.7,30.9-4.1,40.7c6.9,46.2,4.9,93.2,7.3,139.7c0.8,22.9,1.9,45.8,11.1,67.2
				c21.8,37.4,55.1,67.2,80.9,102c1.7,2.1-2,3.3-3.8,3.6c-18.2,2.8-33.9,10.2-46.7,23.8c-2.7,2.8-5.1-2.5-6-4.2
				C202.8,1012.9,187.9,994.3,174.2,974.8L174.2,974.8z M254.4,1274.7c-16.7,7.8-35.2,5.3-51.4-0.6c-12.1-4-20.8-19.8-23.9-32.7
				c0-13.3,12.9-26.6,26.9-30.1C249,1197.9,316.9,1244.5,254.4,1274.7L254.4,1274.7z M387,1254.5c-0.1,16.3-21.1,32-38.1,29.4
				c-21.1-2.8-49.4-9.3-51.7-34.8c-0.1-11.1,10-14.2,17.7-18.3c21.1-11.2,42-9.6,61.5,4.4C382.6,1239.7,387.3,1246,387,1254.5z
				 M372.3,1223.6c8.1-10.9,48.8-57.4,35.1-66.1c-3.5-1.3-3.6,3.2-4.2,5c-6.6,18.1-19.6,32.1-30.3,47.6c-2.7,3.9-5.9,8.7-12.3,6.7
				c11.1-19.7,20.5-39.9,22.7-62.7c0.5-3.6,4.4-9.3-1.5-9.4c-7-0.1-5.1,8.6-6.4,13c-4.9,17.7-12.7,34-20.3,50.6
				c-2.8,7.5-9.3,9.4-14.2,7c-4.9-2.8-0.5-9.1,0.6-12.8c6.7-20.8,9.9-42.6,9.4-64.4c-0.1-2.8,2-7.7-2.5-7.8s-5.7,4.6-5.6,8.9
				c0.3,11.6-0.9,23.2-3.4,34.6c-2.2,11.6-6.6,22.9-7.5,34.8c-0.8,11.4-11.6,8.3-17.3,12.4c2-23.2,7.9-45.9,6.3-69.4
				c-1.5-6.6,1.2-34.4-7.4-33.2c-4,0.2-2.5,4.5-2.5,7.3c-0.6,29.3,1.4,58.5-5.5,87.3c-1.5,8.8-0.6,18.6-12.2,21
				c2.1-41.9,6.8-86.6-8.3-126.6c-1.4-3.2-2-9.1-6.8-7.3c-4.5,1.8-1.9,7.5-0.7,10.6c5.2,14.1,6.9,28.5,7.6,43
				c1.3,22.5,0.6,45.2,1.7,67.8c0.2,3,0.6,6.5-2,8.3c-2.8,2-2.3-2.2-3.6-3.3c-6.2-5-11.5-10.6-10.3-20c2.3-17.2-1.2-34.2-3.5-51.2
				c-0.8-12.9-6-24.8-10.5-37c-0.3-0.8-2.7-1.3-4.1-1.3c-2.4-0.2-1.6,1.9-1.8,3.3c-1.9,13.2,7.8,24.3,6.5,37.6
				c0.2,8.9,1.5,17.7,3.9,26.2c2.5,8.8-3.3,17.4,1.3,25.7c-1.4,4.3-17.4-6.9-17.4-9.1c0.4-23.8-7-45.7-16.5-67.1
				c-2.2-7.2-10.7-2.8-6.8,3.6c7,16.7,10.4,35.3,13,53c-0.6,4.4,5,11.2,0.1,12.2c-7.6,1.5-10.8-4-12.6-10.1
				c-3.3-18.3-13-33.7-23.1-48.6c-1.2-1.8-3-4-6.1-1.5s-0.9,4.1,0.2,6.1c8.8,16.7,18.5,34.1,21.7,52.7c-0.2,1.5-0.8,2.6-1.9,1.7
				c-5-4.4-9.7,10.8-14.3-1.3c-0.3-6.6-29.1-52.2-35-42.1c-1.6,2.1-1.4,4.3,0.8,6.4c11.9,11.1,19.4,25.1,27.1,39.1
				c3.5,6.4-3.2,8.1-4.9,8.8c-8.2,4-10.8,18.7-22.2,15.2c-52.6-12-77.6-88.4-21.6-114.3c36.3-18.9,83.1,16.3,71.9-9.3
				c-27.1-72.3,79.9-112.1,118.7-52.8c12.9,16,5.8,53.5,20.6,42.7C462.6,1030.6,497.5,1204.8,372.3,1223.6L372.3,1223.6z
				 M481.8,1272.5c-14,13.9-52.8-7.8-59.6-23.8c-7.8-13.6,0.3-26,20.7-25.3C460,1225.7,495.6,1248.3,481.8,1272.5L481.8,1272.5z
				 M575.3,1284.7c-11.7,12.9-54.3,10.8-70.9-3.3c-21.6-23.2,24.5-39.6,42.8-36.7C565.1,1245.3,590.3,1266.7,575.3,1284.7
				L575.3,1284.7z M574.7,1246.5c-6.4-0.7-3-6.1-1-8.6c12.8-18.2,30.1-45.1,28.5-67.6c-4.4,0.6-4.2,4.6-5.3,7.5
				c-8.6,21.3-20.4,40.9-32.4,60.2c-2.5,4-7.8,0.3-11.6-0.9c-3.9-1-0.7-3,0.5-4c4.4-8.6,28.2-72.6,19.5-75.7
				c-5.3,0.4-4.4,6.6-5.6,10.1c-5.9,17.6-10.1,35.8-18.2,52.6c-2.3,4.8-4.9,9.4-7.9,13.8c-3.4,5.1-8.8-0.8-12.2,2.8
				c5.4-23.3,16.5-44.8,18.1-69.1c-0.3-4.1,4.9-28.3-0.1-27.4c-1.4,0.1-3.6,2.7-3.8,4.4c-3.2,27.3-10.3,53.5-19.7,79.3
				c-3.6,9.8-6.1,18.6-17.3,20.2c8.3-37.7,20.8-83.2,7.8-120.2c-0.9,1.4-2.6,2.8-2.7,4.2c-0.5,15-0.2,30-2,45
				c-2.4,25.6-9,50.7-16.6,75c-16.4-11.8-4.6-26.5-4.1-40.2c-1.1-20.3,4-40.6,0.7-60.6c-0.3-4.5-0.9-11.4-4.4-11.1
				c-4.9,0.5-3.8,8-3.2,11.6c3.2,18-0.4,35.5-2.5,53.2c-0.8,6.5-1.4,13-2.3,19.5c-0.3,2.3,1.2,6.4-1.8,6.3c-3.5-0.2-7-2.8-10.2-4.7
				c-2.2-1.3-1.7-3.4-1.4-5.8c2.7-17.2,2.7-34.7,0-51.8c-3.5-17.7-2.3-36.4-8.2-53.5c-3.6-13,7.5-19,14.8-26
				c21.2-20.4,58-12.2,77.5-2.5c42.1,19.7,30.7,58.2,44.8,52c33.3-6.3,82.8-5.7,92.5,35.1c10,36.8-15.4,73.8-51.7,81.4
				C612.9,1257.1,594.1,1248.6,574.7,1246.5L574.7,1246.5z M426.5,1339.5c10.9-18.1,49.5-25.6,68.3-12c3.8,2,3,5.2,0,6.8
				c-12.6,6.8-21.8,17.1-30.3,28.2c-0.6,0.8-1.2,3.8-4,1.2c-9.5-8.9-20.7-15.9-32.9-20.5C424.5,1342,425,1341.6,426.5,1339.5
				L426.5,1339.5z M444.9,1396c-1.1,2.2-1.3,5.4-6.6,4.8c-6.1-5-13.8-10.6-17.1-19.8c-5.8-17.8-7.6-39,14.7-23.3
				C467.1,1374.4,455,1368.6,444.9,1396z M508.9,1353.6c2.2,24.7-22.6,47.7-47.6,53.3c-7.1,1.3-12.5-0.6-8-8.9
				C457.9,1386.2,504,1312.6,508.9,1353.6L508.9,1353.6z M70.4,1523.8c-12.5,15.3-25.7,30.9-41.7,43.5c-7.9,4.4-16.1,23.6-23.5,23.8
				c-4.2-0.5-1.4-3.7-2.5-5.4c0.3-4.3,2.3-8.3,5.7-10.9c20.3-17.5,38.9-37,55.4-58.1c16.8-21.3,29.1-46.3,47.2-66.9
				c43.3-51.9,102.4-87.8,147.8-137.6c3.4-6,8.9,0.4,5.1,5.1c-40,52.7-100.3,85.1-142.4,136.3C102.1,1475,88.7,1501.4,70.4,1523.8z
				 M190.9,1510.2c-37,15.1-76.3,26.9-105.2,56.4c-13.3,10.7-20.6,28-35.5,36.1c-0.5-0.9-1.2-2.4-1.9-3.6
				c28.4-44.4,72.2-79,124.2-90.9c25.1-9.3,47.7-27.9,66.9-46.5C261.4,1460.8,197.3,1510.1,190.9,1510.2z"/>
		</g>
	</g>
</g>
<g>
	<g id="Layer_1_2_">
		<g transform="matrix( 1, 0, 0, 1, 0,0) ">
			<g>
				<g id="Layer0_0_FILL_1_">
					<path d="M52,1548v15l-37,37h946l-37-37v-15H52 M52,52V37.7L14.3,0H0v1600h15l37-37v-15V52 M924,52V37.7L961.7,0H14.3L52,37.7
						V52H924 M976,0h-14.3L924,37.7V52v1496v15l37,37h15V0z"/>
				</g>
			</g>
			<g>
				<path id="Layer0_0_1_STROKES_1_" class="st5" d="M961,1600h15V0h-14.3L924,37.7V52v1496v15L961,1600H15H0V0h14.3h947.4 M52,52
					V37.7L14.3,0 M15,1600l37-37v-15V52h872 M924,1548H52"/>
			</g>
		</g>
	</g>
</g>
</svg>
