<svg xmlns="http://www.w3.org/2000/svg" xmlns:xlink="http://www.w3.org/1999/xlink" viewBox="0 0 976 1600">
<style type="text/css">
	.st0{fill:#FFFFFF;}
	.st1{clip-path:url(#SVGID_2_);}
	.st2{fill:#5D4E8C;}
	.st3{fill:#333333;}
	.st4{fill:#FFB85A;}
	.st5{fill:#FF8DB6;}
	.st6{fill:#D81E1E;}
	.st7{fill:none;stroke:#333333;stroke-width:2;stroke-linecap:square;stroke-miterlimit:3;}
</style>
<g id="Paper_Backing">
	<path class="st0" d="M960,22v1556c0,3.3-2.7,6-6,6H22c-3.3,0-6-2.7-6-6V22c0-3.3,2.7-6,6-6h932C957.3,16,960,18.7,960,22z"/>
</g>
<g id="Wikipedia_Cropped">
	<g>
		<defs>
			<path id="SVGID_1_" d="M960,22v1556c0,3.3-2.7,6-6,6H22c-3.3,0-6-2.7-6-6V22c0-3.3,2.7-6,6-6h932C957.3,16,960,18.7,960,22z"/>
		</defs>
		<clipPath id="SVGID_2_">
			<use xlink:href="#SVGID_1_"  style="overflow:visible;"/>
		</clipPath>
		<g class="st1">
			<path class="st2" d="M842.3,1279.2C555.2,1274.6,260.4,1219,5,1089.3c-23.4,14-2-273.4-9-275.8c3.3-12.3,20.5,9.2,27.4,10.6
				c43.3,33.4,72.7,12.3,62.5,79c-2.2,25.7,35.5,31.2,54.1,38c16.8-8.8,0.5-39,8.8-53.8c7.1-5,14.9,5.3,23.3,5.6
				c27.8,12.6,61.3,16.9,87.1,31.1c12.6,55.8-20.3,58.2,50.4,73.2c35.6,13.9,0.7-50.9,21.3-56.6c18.8,9.1,110.1,14.7,108.3,33.2
				c3.1,13.9-3.3,41.3,9,49c20.3,1,58.5,21.3,58.8-4c4.3-12.5-12.1-37.2,6.6-39.3c31.3,5.3,63.6,13.6,97.1,13.8
				c25.6-1.9,14.8,29.5,17.5,46.5c11.9,14.1,45.5,14.2,62.2,10.7c3.9-14.2-3.1-31.2,1.9-45.4c35.7-4.4,76.4,6.1,114.1,1.2
				c14.2,3,3.8,38.6,6.3,50.7c10.3,16.4,43.3,10,62.6,12.4c16.3-10.6-2.3-44.2,8.7-59.3c28-8.2,62.2-5.7,92.1-9.1
				c9.3,2.5,4.2,268.3,1.9,273.8c-43.9,3.5-92.1,3.4-135.6,4.5L842.3,1279.2z"/>
			<path class="st3" d="M0,1604c-11.3,0.7-0.3-231.2-4-235.3c-0.2-5,8.8-5.6,10.3-1.4c80.3,61.3,186.2,90.5,282.2,119.8
				c210.2,54.9,426.4,91.1,644.2,75.7c13.3-0.8,28.4-1.5,41.6-7c2.5-0.4,5.9,0.9,5.7,4v40.3C981,1611.8,3.9,1599.9,0,1604z
				 M490.1,836.5c-65.9-1,33.5-66.6,51.9-40.2C557,822.6,512.5,835.9,490.1,836.5L490.1,836.5z M251.3,773
				c-76.8-3-6.3-54.7,29.6-35.2C303.3,757,270.9,774.3,251.3,773z M168.1,746.2c-19.8-13.6-26.1-64.3-2-77
				C195.8,675,191.2,735.2,168.1,746.2z M907.6,641.2c-8-2.3-22.4,3.9-27.3-3.7c-0.1-2.8-2.3-5.2-5.1-5.7
				c-8.4-27.1,59.2-42.2,80.7-37.1C1009.5,604.9,926.6,647.5,907.6,641.2L907.6,641.2z M37.7,576.7c-98.9,0,48.7-69.2,46-22.9
				C77.6,570.6,55,576.2,37.7,576.7z M786.8,574.7c-23.4-15.1-37.3-67.9-13.7-85.4C799.4,501,814.5,559.2,786.8,574.7L786.8,574.7z
				 M894.5,470.6c-28.3-6-52.3-21.8-62.4-50.3l0,0C835.5,364.2,918.4,452,894.5,470.6z M80.3,439.4c-37.9,0,19.7-72.8,43.1-52.3
				c2.9-0.8,6.8-0.1,6.8,3.6C131,418.6,107.6,439.7,80.3,439.4z M92.4,372.9c-21.3-1.5-45.9-12.8-48.8-27.4
				c18.3-16,50.4-13.1,70.3,1.5c2.6,4.4,1.3,9.4,6.3,12.9C118.1,370.3,101.3,372.2,92.4,372.9z M415.4,264.5
				c-26-14-49.9-61.1-27.3-86.1C424.2,184.9,443.2,243.3,415.4,264.5z M483.2,252.3c-4.5-0.1-4.3-7.2-9.4-6.6
				c-3,0.2-4.7-2.8-4.2-5.5c4.5-27.5,48.8-57.1,76.4-41.9C551.6,230.4,508.3,248.3,483.2,252.3z M886.5,248.7
				c-26.2-32.3,32.4-70.8,62.9-67.6c34.4,3.1-9.2,51.2-25.6,56.9C912.9,243.5,899,245.5,886.5,248.7z M91.7,188.9
				C74.1,192,24.5,161.2,53,151.4c20.4-0.4,39.4-1.8,55.9,22.5c3.1,5.2-5.2,5.9-5.2,10.5C102.5,189.6,95.9,188.4,91.7,188.9z
				 M569.5,174.9c-25.6,0-50.6-20.3-57.1-38.5c2.5-19.7,37.9-13.8,53.3-8.8C597.4,136,612.9,174,569.5,174.9L569.5,174.9z
				 M788.8,134.4c-33.2-19.1,1.8-73.5,27.4-83C841.4,69.4,817.2,127.1,788.8,134.4L788.8,134.4z"/>
			<path class="st4" d="M870.9,1064.4c-34.8-1.1-65.2,1.9-57.9-43.5c1.6-18.1-5.9-42-0.3-58.2c20.8-10.7,48.9-4,71.7-3.9
				c8.6,2.7-5.4,10.2-2.1,24.4c1.5,14.6-3.2,25.3-1.4,39C880,1036.3,885.5,1056.7,870.9,1064.4z M677.2,1047.5
				c-34.5-3.3-50.7,4.8-49.7-36.3c-3-6.6,4.4-10.8,1.9-16.7c-3.9-13.3-6.1-31.5-2.5-45.4c16.1-5.2,35.8,3.8,53.3,2.2
				c6.8-0.9,15.8,0.9,11.3,9.2c-4,13,4.1,29.4-2.8,40.7c-1.5,2.3-1.2,5.4,0.7,7.4c4,5.5,2.5,23.5-1,30.6
				C683.5,1040.8,681.6,1045.8,677.2,1047.5z M495.6,1024.8c-39.9-5.7-57.4,2.4-56.3-46c4.6-17.8-5.5-37.2-0.2-56.5
				c4.5-13.9,29.9,2.2,41.2,0.9c10.7,2.7,34.9,1.3,27.5,18.5c-0.6,16.4-2.7,33.1-0.9,49.2C507.3,1005.4,513.1,1020.3,495.6,1024.8z
				 M310.9,990.8c-16.8-5.2-43.8-3.2-49.8-22.2c1.3-25.8-0.9-58.6,1-84.6c8.8-17.7,36.6,2.3,51.8,2.3c17.1,1.9,9.6,19.9,11,31.4
				c4,14.1-4.7,22.8-0.5,35.8C324.6,969.2,330.2,986.7,310.9,990.8z M132.3,934.2c-13-3.3-23.1-10.3-36.5-16.2
				c-7.8-3.7-1.1-9.1-6.8-13.2c-5.4-14.3-0.4-32.3-0.9-47.7c-4-7.4-0.3-15-0.9-22.8c0.2-7.3-3.5-16.2,1.9-21.9
				c17.4-0.8,35.4,14.1,53.1,18.8c12.2,7.9,4.8,37.6,5.6,48.7c-1.1,15.6,0.3,32-0.2,48.5C146.3,934.9,137.1,931.3,132.3,934.2z"/>
			<path class="st5" d="M701.7,884.9c-15-4.8-27.9-14.6-38-27.6c-16.6-8.5-37.8,30.7-57,15.1c0-81.5-69.8,5.7-31.5-78.5
				c4.6-9.3-49.1-34.3-21.8-48.8c29-16.8,0.4-21.8-0.2-41c15.9-30.5,64.4-8.4,67.1-19.8c3.4-12.1,8.4-33.9,23.2-37.8
				c67,35.8,39.4-39.5,72.5-8.5c16.5,12.1,14.5,37.9,29.1,47.8c20-7.9,77.2,15.6,54.1,38.8c-17.2,12.9-2.7,32.5,14.4,34.3
				c1.1,0.1,5.3,1.5,5.3,4.9c-3.7,23.8-29,24.6-44,34.6c7.9,19.2,0.5,73.7-24.3,66.5C716.4,837.9,721.5,877.4,701.7,884.9z
				 M679.3,738.9c-27.1,1.1-31.8,37.8-5.5,43.9c11.2-0.8,25.2-7.7,23.8-20.5C704.7,751.6,688.1,741.7,679.3,738.9z M214.5,669.3
				c-18.4-3.3-27.8-19.3-41.6-31.3c-14.9,6.8-28.8,13.3-46.5,6.5c-15-4.1-0.4-20.9-7.8-29.1c-5.5-9-22.1-4.3-26.6-15.1
				c-10.6-18.5,18.5-36.8,14.1-53.3c-10.5-13.1-14.9-29.7-8.4-43.9c4.6-6.3,18.1-1.9,22.3-9.9c9.1-9.6-5.2-24.5,6.8-29.8
				c62-21.1,34.6,34.9,85.7-16.5c7.8-4.6,10.5-3,14.1,8.4c11,38.5,58.9-13.6,48.4,47.6c-1.1,15.4,29.8,3.3,40.2,25.9
				c9.1,8.8-20.3,25.7-3.9,35.8c20.4,18.4-14.6,33.9-30.4,32.9c-4.7-1.1-9.7,2.9-7.9,7.9c6.5,13.2-1.1,58.5-24.3,44.4
				C232.9,642.7,226.7,666.3,214.5,669.3L214.5,669.3z M196.7,536.1c-11.1,3.7-22.6,17.5-16.4,29.6c-0.1,4.2,1.1,7.7,5.4,9.2
				c4.9,3.8,9.1,8.1,16.1,6.2c6,1.3,9.5-1.5,13.6-5.5c6.4-3,6.3-9.2,7.5-15.2C225,545.3,209.4,538.5,196.7,536.1z M454.5,525.2
				c-13.5-5.1-27.1-13.2-37.1-25.9c-10.4-6.9-27.6,20.7-52.7,15.9c-6.3,0.4-15.9-0.2-13.6-9c-1.1-27.5-53.5-12.2-36.8-45.9
				c16.3-25-38.3-30.9-28.2-67.8c34-11.7,14.8-24,28.6-44.7c9.4-9.1,22.6-2.4,35,0.6c13.8-9.2,7.2-45.3,36.1-54.9
				c25.9,25.5,21,12.9,47,0.5c25.8,1.4,17.6,42,32.8,51.2c16.1-5.6,44.3-0.7,56.4,8.1c9.1,8.2,1.9,12.3,0.1,17.2
				c-9.9,36.7,61.4,29.3-12.7,65.5c-10.5,18,29.9,55.4-16.2,58.7C462.8,495.7,470.2,524.8,454.5,525.2z M406.8,386.9
				c-10.1,2.1-22,8.2-19.8,20.1c0.9,11.5,4.1,20.3,17.1,20.9C431.4,430.6,433.4,390,406.8,386.9L406.8,386.9z M818.8,309.5
				c-16.3-19.3-51.3-4.3-39.3-28.9c11.7-77.3-28.1-28.2-44-45.6c-11.2-22.3-8-17.6-31.8-16.1c-7.6,2.6-12,11.3-21.1,13.3
				c-6.5,2.8-6,12.6-12,16.7c-5.7,12.5-26.9-21.8-42.8-15.8c-19.8,3-34.7-7.8-27.1-32.2c6.1-3.6,19.9,0.4,23.1-6.4
				c7.3-10-11.3-34.4,11.1-32.7c15.4-3.1,29.9,1,41.9,12.6c12.8,5.5,17.6-34.1,52.1-35.4c4.5,0,6.8,2.8,7.4,8.7
				c13.4,37.4,39.4-12.2,48.4,21.8c5.7,10-4.4,31.9,7.7,36.1c14.7-2.7,35,0.3,42.8,16.4c-14.6,20.5-5.6,27.8,13.2,36.7
				c1.9,16.6-24,22.6-25.8,36.5C822.9,300,824.9,308.6,818.8,309.5L818.8,309.5z M188.4,212.4c-28.8-26.5-74,10.2-56.2-15.6
				c3.6-3.8,7-6.8,4.1-11.5c-12.5-8.2-26.7-48.4-0.9-51.3c16.4,1.4,18.8-20.3,20.5-31.5c23.4-20.5,41.2,17.9,58,13.1
				c9.5-15.7,25.4-23.7,43.4-26.5c20-4.8,13.8,16.4,20.4,27.2c10.4,13.9,41.8-5.4,37.6,20.7c-0.1,11.2-5.7,27.4-15.3,31.7
				c-5.8,0.4-11.8-13.2-18.5-13.1c-8.8,2.7-14.2,13.9-25.2,13c-21.5-1.9-20.4-33.5-44.9-3.2c-1.2,4.3-12.9,7.1-11.9,13.4
				C195.1,188.3,196.8,206.6,188.4,212.4z"/>
			<path class="st3" d="M835.7,951.6c-14.6-0.1-23.5-0.2-35.1-5.4c-15.9,8.6-34.3,1.4-51.7,3c-14-4.3-25-1.6-39.7-2.6
				c-24.5-0.9-47.3-6-71.1-6.4c-85-10.5-165-24-248.6-44.1c-68.6-17.1-138.9-30-206-57.7c-24.5-12.8-64.1-13-83-37
				c-19.5-1.3-38.7-12.1-57.4-22c-11.7-2.3-19-17.9-30.3-18C6.3,757-1.1,770.9-4,760.5c-0.1-16.9,0.1-46.9,0-64
				c0.2-3.5,3.5-4.4,6.6-4c4.7-0.1,3.3,5.8,7,7.3c17.9,6.1,29.8,20.3,43.2,31c26.6-0.3,52.9,20.6,75.9,32.7
				c37.5,5.8,74.1,27.1,111.6,36.9c33,11.1,69.6,18.8,102.6,26.6c24.5,4,49.8,14.1,72.5,18.8c44.1,7,91.2,14,133.2,27.3
				c21-2.2,45.7,2.5,65.6,8.1c8.3-4.2,15.8,1.1,24.3,1.5c14.7,4.3,30.5-2,43.3,7c33.4-6.2,73.5,4.3,109.5,1.4
				c33.3,3.8,67.8-5.5,99.9,4c25-9.9,56.8-6.4,84.2-10c9.7,0.3,2.4,20.5,4.7,25.9v32.5c0,1.3-0.7,2.6-1.8,3.3
				C930.5,948.3,883.6,950.3,835.7,951.6z"/>
			<path class="st6" d="M853.7,1565.2c-193.1,1.2-384.8-31.5-571.3-80.9c-95.7-23.6-197.9-70-282.4-111.6c-7.6-2.9-7.5-288,0-290.9
				c19.4,6,35.4,23.4,54.8,31.4c284.8,130.3,605.6,184,917.7,160c17.2-6.3,8.1,288.3,3.5,290.5
				C935.9,1558.9,895.4,1566.1,853.7,1565.2z M865.1,858.6c-22.7-0.6-22.5-39,0.5-37.5C892.5,819.4,892.8,860.8,865.1,858.6
				L865.1,858.6z M810.3,818.6c-11.9-2.6-23.8-6.1-32.5-16.9c-4.7-10.1,37.1-7.3,42.3-33.8c1.6-11.6-17.7-9.7-23.3-18.2
				c-15-14.8,8.8-23.9,11.3-37.3c-3.8-4.5-11.8-18.6-16.6-19.5c-15.8-4.6-29.9-15.9-47.5-6.4c-17.4-17.4-11.8-50.6,10.5-63.6
				c9.8-8.2,14,8,23.3,8c30.6-5.4,30.1-29.1,43,23.8c5.6,9.7,28.6,5.1,37.7,17.4c13.6,8.2-5.9,19.1-3.7,28.1c0.1,8,12,9.7,15.3,17.8
				c0.1,14.2-16.8,18.9-24.6,28.6c5.4,12.3,19,56.4-10.2,47.7C819.3,790.8,820.1,820.3,810.3,818.6L810.3,818.6z M449.8,794.8
				c-16.5-1.3-31.1-8.6-41.1-21.7c-7.8-9.2-34,29.7-58.4,13c3.4-26.5-2.2-35.8-29.2-27.8c-24.8-6.4-5.1-35.7-0.1-50
				c-11.5-9.5-33.5-16.3-31.4-36.4c5.7-5.5,21.2-9.3,20.7-15.6l0,0c3.3-5-18.5-21.9-8.1-27.5c13.1-13.8,35.8-8.5,53.6-5.5
				c7-18.9,8.3-44.8,30.5-53.7c9.4,3.4,14.5,19.4,25.2,17.4c10.7,1.8,15.5-12.8,25-17.4c26.3,6.7,11.8,55.2,39.6,44.6
				c34.3,9.3,5.9-29.6,33.2-50.9c5.8-11.1-27.3-19.9-23.9-49.5c-2.3-25.4,32.9-15.1,30.9-36.5c-1.6-10.5,9.3-11.1,17.2-11.6
				c11.4-2.8,22.7,19.4,30.9,7.2c5.9-16.4,23.4-35.9,42.1-36.8c12.4,0.3,7.8,20,23.2,21c31.1-17.8,41.6,5.6,40.2,34.8
				c8.8,13,40.2,9.6,45.1,30.6c-3.3,7.9-19.2,15.7-16.8,24.4c-4.8,7.8,23.5,18.6,14.6,29.1c-8.3,16.2-24,15.5-36.9,21.7
				c-2.4,3.6,0.8,7.4,1.9,10.7c5.2,14.7-7.4,54.5-28.5,40.5c-26.9-15.8-26.2,58.3-68.3-14c-5-11.2-27,14.3-42.6,9.6
				c-9.8,3.1-35-12.5-29.5,7.1c2,8.3,18.9,7.3,21.4,16.8c-1,22.1-26.1,25.8-39.5,40.6c6.6,17.9,13.2,36.5,3.3,53.8
				c-1.2,2.8-6.1,2.9-10.1,1.3C449.8,754.7,468.6,793.8,449.8,794.8z M678.5,780.7c-29.6,3.5-24.3-42.8-2.8-39.6
				C703.1,738.6,702.9,781.5,678.5,780.7z M105.9,707.8c-28,2.8-30.3-42.6-2.3-42C130.6,664.1,133.5,708.8,105.9,707.8z
				 M197.2,580.4c-29.3-0.8-19.7-47.4,4.1-41.4C231.6,543.6,226,583.6,197.2,580.4z M860.7,570.6c-26.3,1.8-26.9-43.2-1.1-41.6
				C888.9,527,889.9,572,860.7,570.6z M743.3,456.6c-1.5,0-7-1.7-7.7-5.4c-24-45-40.2,46.9-64.5-27.5c-5.9-10.9-19.1,4.5-28.9,1.5
				c-6.6-1.1-31.7-1.1-27.6-11.8c10.6-10.8-1.2-33-22-28.4c-31-4.8,1.5-43.9,12.5-56.1c-9.7-13.3-18.4-27.4-16.7-44.4
				c-0.2-6.5,2.9-10.6,9.3-10.6c13.9,4.1,25-15.6,19.1-26.9c-5.6-10.5,7.2-11.5,13.9-11.8c12.6,0,22,7.6,30.4,15.3
				c12.3,6,21.7-30.5,53.8-31.2c19.2-9.6,12.9,25.5,32.8,23.5c6.7,1.3,13.7-6.9,19.6-6.7c16.2,4.3,16.3,37.2,9.7,50.5
				c-4.6,12.4,41.7,11.1,46.4,35.9c-1.8,15.1-26.8,15.4-7.6,38.9c5.8,3.6,10.9,11.2,7.8,13.2c-7.8,18.9-25,24.2-42.9,24.6
				c-7.7,1.4-4.1,10.4-5.2,15.8C771.3,434.2,758,447.9,743.3,456.6L743.3,456.6z M406.5,426.6c-24,2.1-26.1-36.6-3.6-38
				C429.1,384.9,432.9,427,406.5,426.6L406.5,426.6z M198.3,383c-14.4-5.3-6.7-29.5-25.2-30.1c-7.4,0.4-14.9,14.6-21.8,4.1
				c-14.4-21.3-2.4-40.5-1.2-60.3c-15-7.4-38.4-13.1-38.2-35.6c28.8-19.9,13.9-18.4,10.3-43.8c29.5-33.3,68.8,5.5,70.8-11.4
				c1.5-24.7,15.4-44.4,40.1-52.7c6.1,0.6,9,14.8,16.5,16.5c15.6,9.4,29.3-25.7,41.9-4.5c11.3,9.6,11.7,25,17.5,37.5
				c17-0.9,40.2-3,49.5,18.1c-15.6,21.9-4.9,27.5,11.5,41.4c-1.8,16.7-20.6,27.7-35.8,30.4c-3.3,0.5-5.5,3.6-4.9,6.9
				c0.2,1,0.5,1.8,1.1,2.6c45.4,65.6-28.5,14.9-25.6,68.9c-0.1,8.3-5,10.1-9.1,10.1c-27.4,5.5-46.2-20.4-56.4-15
				C228.9,376.7,215.1,382.3,198.3,383z M884.2,342.7c-24.1,0.5-24.6-37.8-0.1-37.2C906.7,303.6,911.1,344.4,884.2,342.7
				L884.2,342.7z M531.6,313.4c-29,0.4-25.5-45.6,4.2-40.3C556.5,273.3,555.5,316.1,531.6,313.4z M867.1,152.1
				c-31.2,2.2-25.9-45.1,0-41.3C892.1,110.9,893.4,152.7,867.1,152.1z M406.3,130.7c-29.9,1.8-27.8-42.8,2.5-39.9
				C431.5,88.1,432.4,133.4,406.3,130.7z M636.2,122.9c-17.7,4.9-27-37.5-2-38.5C663,79.1,665.1,124.8,636.2,122.9z M89,111.3
				c-26.8,1.4-27.7-45.3-0.2-45.9C122.2,60.8,123.3,115.2,89,111.3z M333.4,82.8c-24.2,1.1-22.9-39.9,1.4-35.8
				C358,45.6,359.8,85,333.4,82.8z"/>
			<path d="M976.8,1273.4c0,2.5-0.4,3.6-3,3.8c-40.2,2.3-80.2,7.4-120.5,6c-125.3,3.4-252.8-10.3-375-34.3
				c-147.1-29.5-291-64.6-425.4-132c-16.5-8.3-31.8-19.2-47.5-29c-0.7-0.4-2.3-1-2.3-2c0.2-1.8,3.7-3.1,5-2.5
				c15.7,8.9,31,18.6,47.1,26.8c173.1,82.4,362.8,121.4,551.2,150.5c89.2,11.3,179.7,14.6,269.5,13.9c32.4-1.4,64.8-0.7,97.1-3.6
				C974.8,1270.6,977.1,1270.6,976.8,1273.4z M963.8,889.3c-0.6,0.1-1.2,0.3-1.7,0.6c3.1,6.4,9.6,10.7,13.9,16.4
				c1.7,1.4,2.7,4.1,0,4.8c-8.6,0.4-13.7-11.9-19.3-17.4c-3.4-4.5-8-2.7-11.9-2.4c-16.5,1.1-32.9,2.7-45.7,3.8
				c13.5,14.4,28.5,30.6,43.7,46.7c8.8,7.4,22-1.5,32.4,1.6c4.1,0.5,1.2,5.9,1.9,9.1c0.6,2.5-1.4,2.6-3.1,2.7
				c-20.2,1.4-40.6,1.9-60.6,4.7c-9.9,1.4-20.2-1.4-29.7,2.9c5.4,8.4-4.6,40.5,6.2,38.3c27.8-0.6,55.6,0.8,83.2-2.1
				c2.5-0.2,4.2,0,4.2,3.3s-1.7,2.8-3.9,2.9c-25.5,0.7-51.5,4.5-76.7,5.6c-11.1-1.1-12.5,3.6-11.9,13c0.8,13.6,0.2,27.3,0.2,41
				c0,5.5-1.5,8.4-8.2,8.6c-21,0.8-41.9-1.4-62.3-6.4c-9.3-2.3-5.2-10.6-5.4-16.4c-0.5-12.7-0.2-25.4-0.3-38.1
				c0-1.6-0.7-2.2-2.5-2.1c-19.1,0.3-38.3,1.9-57.3,0.4c-16.2-1.3-32.5-2.5-48.8-3.6c-4.2-0.3-6.4-0.7-5.6,5.6
				c1.3,10-1.1,20.6,0.8,30.4c1.5,7.8-1.3,13-7,13.4c-19.6,0.8-39.2-1.7-57.9-7.3c-6.7-1.7-6.5-6.5-6.4-12.3
				c0.1-12.3-0.5-24.6-1.9-36.8c-0.2-1.3-7.6-2.6-11.7-2.6c-31.2-0.5-61.7-6.5-91.8-13.1c-15.4-3.3-9.5,6.8-9,10.4
				c2,12,0.8,23.9,1.1,35.8c-0.2,12.2-54.6-2.3-63.7-3.6c-7.9-1.9-9.1-8.9-9.5-16c-0.7-12.3-2.2-24.5-2.5-36.8
				c-0.3-10.2-8.9-7.5-13.5-8.3c-29.1-7-58.7-12.9-87.6-20.4c-6-1.7-6,0.4-5.4,6.1c1.1,11,0.3,22.2,0.4,33.4
				c4.5,17.1-7,21.9-20.6,16.5c-14.5-4.1-28.9-8.2-43.5-12c-2.9-0.9-5-3.5-5.3-6.5c-0.5-10.9-4.2-21.4-1.9-32.8
				c1.6-7.7,1.8-17.7-2.1-23.7c-3-4.7-13.1-4.8-20-7.1c-21.8-7.3-43.6-14.4-65.1-22.4c-4.2-1.6-9.3-2.1-12.2-4.2
				c-9.6-6.8-6.9,0.3-7.4,5.3c-1.3,14,2.5,28.3-1.9,41.9c-4.4,17.2-47.6-10.1-57.3-14.4c-11.5-5.7-10-15.1-9.7-24.8
				c0.4-12.9,1.7-26,0.5-38.8c-0.5-5.6-9-6.2-14-8.2c-23.5-10.8-47.6-24.1-67.2-40c0.6-3.2,3.7-3.3,6.5-1.7
				c24.8,13.1,48,29.2,74.7,38.7c-0.4-21,9.3-40.8-17-48.8c-18.9-6.8-36-17.9-52.4-29.7c-10.1-5.2-14.6-6.7-11.3-19.4
				c3.6,1.8,7.2,3.3,11,4.7c0-5.7-18-27-12.7-28.2c1.6,0.1,3.4-2.6,5.2,0.6c4.7,8.6,10.6,16.5,14.8,25.3
				c6.4,13.4,19.3,17.6,30.9,23.7c13.1,5.8,25.7,15,39.6,17.8c-14.7-25.8-33.8-50-52-73.6c-6-10.9-39.1-18-35.6-28.2
				c23.7,8.4,43.1,26.3,67.1,34.7c19.2,7.3,36.5,18.5,56.5,24.2c11.8,3.3,22.1,12.1,34,14.7c15.1,3.3,28.6,10.1,43.2,14.6
				c45.6,16.4,92.9,26.8,139.9,38.2c44.1,13.2,89,21.8,134.2,30.3c39.7,9.1,79.8,14.8,120.2,19.8c1.5,0.2,2.6,1.1,3-1.4
				c3.2-18.1-12.9-38.5-31.4-28.5c-10,3.2-10.1-4.6-10.5-10.1c-0.9-13.1,3.2-25,11.3-35.3c-27.4-0.4-14.4,31.5-54.5,41
				c-15.4,5.7-32.1,6.9-47.1,0.1c-13.2-5.9-4.4-15.2-0.4-21.4c9.3-14.5,24.2-21.5,40.3-26.8c22.4-9.1,37.3,8.1,57-0.7
				c-12.7-9.1-22.9-19.3-26.7-35c-2.4-13.6,35-13.5,17.1-31.8c-4.7-4.8-13.2-9.8-10.2-16c9.1-21.3,39.7-27,60.8-22.6
				c11.4,2.1,9.1-4.9,5.9-11c-0.8-1.5-4.3-1.5-6.6-2.2c-18-5.6-24.7-20.3-30.2-35.9c-14.7,16-33.4,19.3-54.5,13.9
				c-2.5-0.7-5.5,0.6-8.3,0.9c3.8,8.6,14.3,9.7,21.4,14.2c7.1,5.4,1.8,11.7-0.7,16.5c-7.7,15.1-22,22.9-36.5,29.9
				c-2.5,1.2-2.7,2.2-1.6,3.9c11.4,17.5,10.3,35.6,3.7,54.6c-4.3,12.4-10,2.3-14.1,1.2c-44.4-9.7-1.3,38-36.7,31.3
				c-39.7-0.8-36.4-35.4-55.7-15.8c-13.3,11.9-29.3,13.7-45.4,8.5c-7.3-2.4-2.8-11.5-1.7-16.2c5.5-15.9-7.9-20.3-20.6-16.6
				c-7.3,1.5-15.9,11-19.2-5c-0.7-3.2-8.7-3.7-10.9,0c-13,20.9-32.8,25.3-54.9,22c-8.9-0.6-33-8.3-30.2-20.3
				c17-28.9,62.5-37.4,85.3-11.8c11.9,3,8.8-7.6,9.3-12.7c0.6-10,7.6-15.3,12.1-22.9c-16.7-4.8-33.9-19.3-33.7-37.6
				c0-4.9,2-6.8,6.8-6.5c15.2,0.4,21-12.4,8.5-21.8c-9.6-9.3-7.1-15.9,4.6-22.6c17.2-9.8,33.4-10.6,50.4-1.2c1.7,1,2.3,0.1,2.1-2.6
				c-1.5-17.1,13.3-43.9,28.4-52.3c12.8-6.6,13.6,19.6,28.5,16.3c7.9-1.2,12.6-6.8,17.2-13.8c9.1-13.9,15.6,0.6,20.3,4.8
				c9.6,8.7,13.9,21.1,14.9,34.2c0.3,13,4.7,3.3,12.5,4.9c24,4.1-0.7-27.8,28-48.5c1.2-1,1.8-2.7,2.6-4.1
				c-13.6-2.6-28.8-26.5-26.8-39.6c0.8-4.3-3.7-8.3,0-12.5c-7.3,0.2-8.9,7.3-11.6,12.7c-1.5,3.7,2.6,9.9-2.7,11.6
				c-19,3.5-42.2-12.7-52-28.8c-1.1-2-2.8,0-4,1.1c-15.9,15.8-35.7,19.4-57,18c-3.7-0.3-6.7-2.7-6.8-7.5
				c-0.2-15.5-11.1-24.9-25.7-21c-21.2,6.4-15.1-32.8-8.8-42.5c1.4-2.7,1.4-4.5-1.4-6c-19-10-30.4-25.7-31.3-47
				c-0.6-14.6-13-12.5-20.3-17.8c-17.4-13.3-15.9-8.8-30.1,1.3c-12.4,6.2-25,11.2-39,8.4c-6-1.2-2.5-7.2-3.4-11
				c-5.1-38.3-32.5-6.7-49.7,3.8c-0.9,0.6-2.1,1.9-1.9,2.6c7.6,35.4-34.2,69-66.9,58.3c-5.3-2.4-5.6-11.4-4.7-15.9
				c4.5-21.5,19.2-35.9,38.6-44.5c8.6-3.8,19-3.9,28.7-5.2c5.8-0.8,5.4-9.1,11.8-9.4c-5.9-1.5-11.7-3.3-17.7-4.5
				c-5.2-1.1-6.3,5-9.6,7.2c-23.5,23.2-109.1-19-59.1-37.2c25.9-5.3,49.5-3.2,67.2,20.7c3.1,4.2,12.4,3.8,19.3,5.6
				c-7.8-21.8-7.2-42.2,3.6-61.9c-21.7-2.3-35-14.8-41.3-35c-2.8-9,7-8.6,11.3-11.1c7.3-4.3,11.4-16.1,4.4-20.8
				c-16.6-9.6,2.2-29.5,8.8-38.3c-12.4-6.6-24.3,0.9-36.8,1.9c-21.1,1.8-50-15.4-53.3-38.2c-0.4-7.8,8.8-7.8,13.4-8.6
				c24-4.2,51.2,1.8,62,29c1.8,4.5,7.5,3.4,10.5,6.5c2.2-2.3-0.5-4.2-1.2-5.5c-6.5-12.1-8.3-24.5-6.4-38.3
				c0.7-5.1-5.3-10.9-7.7-16.6c-3.1-7.4-6.8-8.8-14.9-5.9c-11.7,4.2-29.7-10.1-30.4-22.5c-4.3-53.2,75.8-39.5,49.3,12.7
				c-3.7,6.6,5.4,13.1,7.8,20c3.3,9,24.8,3.1,25.2-7.1c3-21.5,0.5-29.2,24.9-28.6c13.3-1.1,22.4,8.4,32,15.9
				c3.7,2.9,5.3,9.5,10.6,0.1c10.8-16.4,39.8-29.7,58.9-21.9c5.3,2.2,5.4,9.3,5.4,15c0,13.6,13.1,20.5,26,15.9
				c10.1-3.6,8.3-13.3,13.5-19c7.9-8.7,0.3-15.2-4.2-21.8c-12.1-17.7,8.1-39.3,26.7-34c8,1.6,14.5,6.2,16.2,16.4
				c3.1,18.9-3.3,28-22.1,31.8c-6.6,1.3-6,10.7-10,15.7c-7.8,9.5-5.6,20.5-3.9,31.4c0.3,1.9,0.2,2,5.5,0.4
				c17.5-5.3,35-10.8,52.5-15.9c2.5-0.8,2.7-1.5,2.2-3.7c-9.3-29,34.8-44.7,46.1-19.1c15.2,24-17.4,52-38.4,31.8
				c-7.6-6.9-16,1.7-23.7,3.8c-14.2,3.8-27.6,10.4-41.6,15c-7.4,2.8-7.4,10.4-11.3,15.4c-14.6,10.8,0.3,22.6-1.4,33.8
				c1.9,0.3,3.9,1.1,5.7,0.7c19.6-4.4,37,3.6,48.1,19.6c0.5,1.4,0.3,3-0.5,4.3c-12,17.3-11,22.7,7.9,32.2c9.6,4.8,3.4,11.5,1.3,15.4
				c-7.8,14.4-20.2,23.3-36.5,26.9c-4.4,1-0.8,5.5,0.4,6.6c6.9,6.1,9.1,14.8,13.5,22.1c2.6,17.1,21.6-67.1,49.1-27.2
				c5,6.9,11.5,3.1,16.2-0.3c5.7-4.1,7.8-9,6.3-17.7c-2.1-12.7-12.5-12.7-19.4-18.2c-24.2-19.1-35.3-56.4-21.9-84.5
				c2.7-6.5,10.1-3.8,14.9-2c33.3,12.2,43.8,55.5,31.5,86.2c-2.1,4.4,2.2,11.9,3.6,17.9c11.1-7.3,20.5-18,30.1-27.3
				c4.6-4.9,2.9-12.8,4.8-19.3c5.8-19.4,20.3-29,36.5-36.2c15.1-9,60.1-15.6,47.1,14.8c-8.2,28.5-40.1,40.7-65.7,44.7
				c-18.8-3.4-30.3,19-44.5,28c-2.1,1.7-0.4,1.7,0.3,2.2c31,21.1,19.2,69,32.4,52.6c13.2-6.2,44,2.1,55.5,10.3s4.1,12.5,0.7,18.6
				c-14.1,27.7,25.2,20.2,22.1,36.4c-2.4,19.2-19.7,28.6-36.5,34.2c-7.8,5.3,1.7,9.8,1.4,15.1c0,16.1,24.7-5.5,44.6,20.8
				c4.8-22.5,26.5-41.4,47.8-44.6c7.9-1.7,10.8,2.8,11,10.1c1.1,8.8,11.4,13.1,20.7,8.7c26.9-15.2,36.8,18,34.9,38.3
				c-1.4,11.9,9.5,7,14.3,8.8c8.5,2.2,44.9,21.7,29,30.9c-17.3,8.6-18.5,23.9-2.9,35c13.9,9.9,2.2,17.2-2.8,24.1
				c-5.2,7.2-13.5,12.8-22.5,12.3c-10.3-0.6-11.4,3-8.6,11.2c5.4,15.1-1.2,27.8-8.5,40.5c25.5,1.1,13.4-42.7,41.3-22.6
				c7.3,4.3,12.9,10.9,16.1,18.8c5.5-11.5,28.7-47.9,41-25.6c6.3,11.3,27.2,1.2,29.1-7.2c-0.6-7.7-7.3-15-7.8-22.7
				c-0.8-13.4-15.5-11.6-19.9-21.4c-5.7-12.9-11.8-25.1-13.9-39.4c-3-14.9,2.2-60.2,24.7-40c24.1,21.8,27.9,58.1,14.6,86.5
				c-1.9,3.9,2.4,10.8,3.8,16.3c9.8-5.3,18.2-12.3,26.9-19.1c6.7-5.1,14.1-7.9,9.1-20.3c-4.6-11.3,2.2-22.2,14.1-27.1
				c26.7-11.6,48.6,24.6,26.5,42.6c-8.8,7.1-18.8,8.8-29.3,2.7c-6.3-3.6-7.8,4-11.2,6.1c-59.3,39.4-19.4,22.3-12.8,69.1
				c0.7,3.2,0.4,3.7,3.7,2c11.7-5.7,25-9.3,35-17.1c4.3-3.3,5.9-12.9,11.4-18c13.1-12.3,29.5-20.4,47.3-23.3
				c14-4,73.3-2.5,53.7,22.1c-22.4,31.7-67.6,38.8-103.3,28.7c-8.7-2.7-16.9,5.5-25.3,8.8c-14,1.4-1.7,9.7,5.5,12.2
				c6.6,1.5,11,6,15.4,10.6c7.1,7.5-1.5,11.4-4.5,15.7c-15.9,24.3,31.8,16.1,7.4,43.2c-4.9,6.2-10.4,11.8-18.4,14.1
				c-12.3,2.4,17.6,22.7-1.7,53.2c-2.1,3.6-6,2-8.8,0.9c-10.6-3.8-19.7,2.5-19.3,13.3c0.2,5.5,5.3,4.6,8.1,6.3
				c26.9,20.4,23.7-17.5,51.7,2c8.7,5.7,9.6,15.4,7.9,24.2c-6.1,25.3-48.7,22.9-46.2-6.8c0-6.3-8.5-5-12.6-8.2
				c-13.7-10.8-33.3-5.9-47.2-17c-2.4-1.9-1.8,2.7-1.8,3.8c1.1,19.3-4.8,35.8-17.8,50.3c-13.5,15.2-19.9-12.4-33.9-6.5
				c-8.4,3.6-15.1,9-16.1,19.1c-0.3,3.4,2.3,2,3.8,2.1c84.6,5.9,169.7,4.6,254.3,0.1c2.4-0.2,4.8-0.7,4.7,3.2
				C978.5,891.8,967.2,888.1,963.8,889.3L963.8,889.3z M851.9,839.9c0.1,18.8,27.3,19.4,30.2,2.9
				C885.2,822.5,851.8,816.7,851.9,839.9z M875.9,627.9c19.7-6.2,39.8-12.6,60-18.7c3.7-1.1,9.3-1.3,10.6,2.6
				c0.9,2.9-4.4,4.3-7.6,5.3c-18.3,6-36.5,12.1-54.8,18.2c0.1,0.5,0.2,1.1,0.3,1.7c28.5,1.9,56.2-1.8,78.7-20.2
				c3.4-2.5,10.2-7.7,6.3-13.4c-2.3-3.3-8.6-4-13.8-4.7C928.1,595,891.1,604.1,875.9,627.9L875.9,627.9z M844.4,549.9
				c-0.8,22.7,34.8,22.3,34.7-1.3C876.3,528.5,843,526.7,844.4,549.9L844.4,549.9z M780.6,499.6c-9-11.9-11.3-4.9-13.5,6.3
				c-5.1,19.5,3.7,52,19.7,64.9c-3.3-3.7-1.8-8.4-2.8-12.5c-3.3-13.9-5.5-28-8.1-42.1c-0.4-2.2,1-4.4,3.2-4.8c0.1,0,0.1,0,0.2,0
				c2.5-0.5,1.4,1.9,1.8,3.2c4.5,16.7,8.9,33.4,13.2,49.3C801.4,545.5,795.1,513.8,780.6,499.6z M473.6,241.7
				c18.1-10.2,33.6-24.7,52.9-33.1c1.6-0.7,2.7-5,5-0.9c1.8,3.2,0.7,5.5-2.2,7.4c-15.7,10.5-32.1,20-46.1,33
				c21.5-2.6,64.2-22.3,59.2-48.4c-1.7-4.2-7.7-1.9-12.5-1.3C504,201.9,479.5,214.3,473.6,241.7L473.6,241.7z M406.4,126.7
				c21.7,1.1,20-33.3,2.5-31.9C382.5,92.9,382.1,128.3,406.4,126.7L406.4,126.7z M334.4,78.7c19.5,1.3,19.5-28.9-0.5-27.8
				C314.2,48.6,315.2,80.8,334.4,78.7L334.4,78.7z M110.7,87c-0.7-24.4-39.7-22.8-38.5,1.2C69.4,114,113.1,114.2,110.7,87z
				 M66.9,164.5c1.6-2.7,3.8-1.3,6.2-0.4c10.3,4.1,20.7,7.8,32.4,12.1c-12.8-20.1-31.3-21.9-50.5-20.7c-1.3,0.1-9.1-1-6.6,4.6
				c7.2,16.3,32.8,28.1,51.2,23.9c-10.5-4.8-20.2-9.2-29.9-13.8C67.6,169.1,65.2,167.4,66.9,164.5L66.9,164.5z M116.2,361.1
				c-8.6-1.7-50.7,1.3-48.8-7.4c0.1-4.7,5.5-2.3,8.6-2.9c11.5-2.1,23.3,4.7,35.5-0.5c-18.6-13.2-37.9-14.3-57.9-6.6
				c-1.3,0.5-10.8,1-3.5,7.2C65.8,364.1,92.7,378,116.2,361.1z M126.2,390.8c-13.1,9-22.3,21.5-32.9,32.5c-2.7,2.8-5.8,4.8-9.3,3.6
				c-3.9-6.4,26.2-33,31.7-39.4c-19.1-0.8-39.6,24-43.7,42C64.5,444.4,129.3,434.2,126.2,390.8L126.2,390.8z M284.8,754
				c-12.9,0-26.5,1-39.1,4.8c-1.8,0.7-5.2,1.9-6.6-1.1c-4.9-10.8,36.8-12.5,43.7-12.8c-0.9-1.1-1.6-2.8-2.7-3
				c-6.4-1.2-11.9-5.8-18.9-4.9c-13.9,2.3-27.2,5.5-37.9,16c-3.8,3.8-6.7,6.9-0.7,9.4C242.7,771,270.1,774,284.8,754z M542.5,805.5
				c-1.8,0-3.8-0.5-5.3,0.2c-14,5.8-27.8,11.8-41.7,17.8c-2.2,1-4.8,3.8-6.4,0.1c-1.4-3.2,1-5.1,4-6.5c15-6.9,29.9-14,44.9-21
				c-24.8-5.1-55.3,10.2-67.4,31c-1.1,1.9,0.4,1.7,1.4,2.1C492.9,837.8,535,828.7,542.5,805.5L542.5,805.5z M693.1,891
				c9.4,10.3,19.2,25,30.2,34.5c8.7,6.2,11,20.2,25.4,19.6c14.5-1.4,30.1,3.4,44.3,0.2c4.4-2.6,0-3.1-1.4-4.5
				c-9.1-9.7-17.6-19.9-27.2-29.1c-5.5-5.3-7.8-14.5-15.5-16.4C729.8,890.8,710.1,891.7,693.1,891z M737.5,657.9
				c0.8,8.3,4.3,16.4,6.6,24.5c15.4-9.1,26,2.6,25.7-4.8c1.7-7.3-2.1-30.9,5.5-32.5c2.1-0.6,3.9,0.9,3.8,3.4
				c-0.2,9.6-0.6,19.2-0.8,28.9c0,2.1-1.8,4.3,1.1,6.2c8.3,5.3,16.2,9.6,22.5-2.7c2.2-4.2,6.5-9.5,10.9-5.9c3.4,2.7-4,6.5-4.4,10
				c-0.5,5.5-10.9,5.9-6.2,13.7c10.4,17.2,23.5-0.8,36.7,3c-5.5,13.5-25.9,9.7-33,22.3c6.8,5.2,22.3,9.5,25,17.7
				c-7,3.5-13-3.8-19.8-5.4c-4.2-1.6-8.9-6.6-12.9-2.9c-7.9,10.1,6.9,18.2,15.1,21.5c5.2,2.6,14.5,1.3,11.6,11.4
				c-5.3,18.5-22.8,31.7-43.8,33c6.2,8.3,14.8,10.7,23.3,13.8c7,2.6,9.9,2.6,11-6.3c1.4-11.8,14.6-19.2,26-15.7
				c2.6,0.8,4.5,1.8,5.4-1.2c4.8-14.5,3.5-28.9-6.6-40c-5.3-5.9-1.3-7.2,1.6-8.5c6.6-1.8,33.8-20.3,20.7-26.6
				c-13.8-8.1-15.3-19.4-4.9-30.8c3.5-3.8,1.8-6.6-1.3-8.8c-24.1-20.4-37.9-3.9-39.2-14.9c0.6-10-3.1-19.1-6.6-27.9
				c-1.6-3.9-5.5-13.1-13.7-4.2c-8.1,8.7-21.8,9.2-30.5,1.1c-0.8-0.8-1.6-1.6-2.3-2.6c-2.6-3.4-5.1-2.2-6.6-0.9
				C747.4,633.9,736.2,644.1,737.5,657.9L737.5,657.9z M424.9,239.8c-0.8-22.3-12-55.2-37.8-56.9c-10,29.2,3.6,60.2,28.3,77.7
				c-6.5-17.7-12.4-34.6-19-51.1c-1.4-3.6-2.4-6.4,0.2-9.4c6.2-4,20.3,44.3,25.6,50.8C425.8,247.8,425.3,243.6,424.9,239.8z
				 M134.9,177.8c13.5,11.8,4,16.1-2.9,26.3c21.2-11.7,39.1-7.6,56.4,4.4c1.5-7.3,2.8-14.7,4.7-21.9c0.8-3,4.5-6,1.3-9.1
				c-8.5-8.3-17.2-16.4-26.1-24.4c-2.5-2.2-1.6-4.8-1.1-6.8c0.8-3,2.6-0.1,3.8,0.3c18.3,4.5,24.7,34.8,37.3,16.5
				c6.3-8.3,16.2-17.3,28.7-13.6c4.6,1.4,6.5,10.6,11.3,13.1c17.7,9.9,28.5-16.1,33.9-12.9c5.2,3.9,10.8,7.8,14.7,12.8
				c3.2,4.2,5,1.8,5.9-0.4c3-7.3,8.9-13.5,8.6-21.9c-0.1-4.9,1.1-10.4-2.7-14.2c-1.2-1.2-4.8-0.9-6.9-0.1
				c-10.9,3.9-32.8-2.4-31.3-19.9c0.6-7.2-1.2-15.1-12.2-12.9c-46,5.3-34.6,44.1-61.4,21c-8-6.2-16-13.5-27.1-12.8
				c-4.4,0.3-12.2,1.8-11.2,6.3c2.3,10.3-6.6,26.8-16.7,29.9c-4.9,1.5-12.7-1.3-14.2,3.9C123.9,154.4,125.4,169.4,134.9,177.8
				L134.9,177.8z M288.4,377.5c4.6-2.2,12.4,3.4,12.6-6.5c1.7-64.5,69.9-1.8,25.4-67.8c-2.4-3-4.7-6.9-3-10.7c0.8-1.9,4.5-3.1,7-3.4
				c15.6-1.6,27.1-9,35.2-22.5c2.1-3.5,0.2-4.4-1.9-5.4c-11-5.2-23-20.3-13.7-34c1.4-2,7.4-5.3,3.2-9.2c-29.2-29.1-50.5,4.7-50.5-14
				c0.1-12.4-3.4-24.2-12-33.6c-14.4-23.7-20.6,14.6-42.8,2.9c-5.7-2.9-10.2-7.8-12.7-13.8c-1.1-2.4-1.4-2.8-3.6-1.7
				c-21.6,9.9-33.5,26.4-34.5,50.5c-4,27.1-25.3-15.4-58.2,3.4c-35.9,8.5,19.3,26.7-19.4,47.8c-3.5,1.6-5.2,3-2.9,7.9
				c5.6,11.6,13.9,19,26.5,21.8c8.1,1.7,15.1,3,10.7,15.4c-5.8,16.4-9.2,33.8,0.9,50.4c1.4,2.3,2,2.3,4.4,1.1
				c18.5-16.6,32.6,0.6,35.8,19.6c0.6,3,1.5,3.5,4,3.3c33.3-0.2,42.1-27.1,47.2-21.1C257.3,372,272.2,375.9,288.4,377.5z
				 M493.1,490.7c42.5-2.2-0.6-49.6,8.4-55.5c13.4-7,34.7-11.2,37.4-28.7c0-2-1-2.8-2.9-3.4c-15.9-5.4-22.1-18.5-17.5-34.6
				c1-3.5,7.7-6.7,1-12c-9.2-7.4-38.5-12.2-49.3-8.3c-3.4,1.2-10.6,6.6-13.2-2.3c-3.2-12.8-11.1-62.2-31.8-43.5
				c-11.9,15.7-30.5,10.4-38-3.1c-1.2-2.2-1.3-2.2-3.2-0.9c-12.3,8.4-20.5,21.6-22.7,36.3c-2.9,18.6-4.7,20.8-18.6,15.9
				c-17.7-6.2-30.4-6.4-30,18.7c0.6,29.8-27.5,15.5-23.6,31.4c6.4,40.8,44.8,28.1,28.8,61.4c-6,11.9-0.3,20.8,12.6,20.9
				c12.5,0,24.1,11.3,24.6,23.8c0.1,1.5-1.2,3.9,2,4.2c18.6,1.3,36-1.6,49.4-15.8c7-7.4,10.6-2.9,14.7,2.5c9,11.6,21.5,18,33.4,23.6
				c10.7-0.4,4-8.3,6.8-11.3C469.8,500.2,478.4,491.3,493.1,490.7z M506.5,635.4c16.9-11.8-25.8-17.8-32.4-17.2
				c-4.8,0.8-11.7,6.1-14.8,0.9c-7.8-16.3-5.1-34.1-22.6-45.6c-1,0.5-1.8,1.2-2.5,2.1c-12.1,19.8-31.9,20.6-44.3,1.1
				c-3.6-5.6-4.8-2.5-7.4-0.4c-21.5,18-16.4,33.5-22.4,56.5c-12.9-3.5-12.2-9.8-29.3-9.8c-9.3-0.5-33,6.4-26.3,14.5
				c15,16,12.9,25.3-7.1,34c-1.6,0.7-5.5,0.8-4.3,4.2c4.8,13.5,13.8,22.3,28.2,25.5c3.2,0.7,7.8-2.4,9.5,2.2
				c0.6,1.8-0.6,5.1-2.1,6.6c-6.9,6.9-12.6,14.1-14.9,24c-2.6,11.6,0.9,25.3,15.4,18.7c8.9-3.5,16.6-1.3,22.2,5.2
				c5.4,6.3,4.9,14.7,2.4,22.4c-1.2,3.6-0.4,4.5,3,4.8c19,1.6,34-4.8,44.3-21.4c1.6-2.7,3.4-4.7,6.2,0.2c8,14,20.3,23.2,36.2,26.1
				c5,0.9,13.9,3.8,11.9-9.2c-2-12.7,11.7-23.7,24.3-21.8c3.8,0.6,10.4,2.9,10.8,2.1c16.9-35.5-16.2-51.7-2-57.7
				c12.1-6.1,23.2-13,32.5-23C543.1,657.1,491.2,670.7,506.5,635.4z M616.4,662.5c7,1.4,10.7-28.7,32.9-18.5
				c18.2,14.7,28.9-21.6,24.9-34.5c-2.7-7.6-11.3-18.2,7.3-19c11.8-0.5,21.4-6.5,28.1-16.9c2-3.1,2.1-4.6-0.6-6.2
				c-20.2-12.6-18.7-30.1,0-42.5c2.6-1.8,3.2-3.5,0.6-5.9c-10.2-9.7-22.5-15.9-36.2-17.5c-13.9-0.2-2.6-24.9-10.5-34.6
				c-4.2-7-5.8-18.8-20-10.1c-13.8,8.5-24,4.2-30.4-11c-2.4-5.8-3.5-6.4-9.9-5c-16.5,3.6-31.6,23.3-35,36.8
				c-2.1,8.3-5.6,6.6-10.4,3.9c-9.3-5.2-17-14.6-28.3-10.9c-5.8-0.4-8.7,1.3-8.1,6.3c1.2,9.8-3.3,15.1-12.4,18.6
				c-8.5,3.2-18.4,4.2-18.5,18.4c-0.1,14.3,7.9,32.1,21.1,37.2c21.4,6.2-10.2,18.7-10.6,36.8c-1,9.7-7.3,21.9,7.9,28.4
				c5.5,2.3,16,5.8,12.4,13.5c-6.7,14.1,5.5,7.7,9.2,10.2c1.5,1,3.8,0.9,5.8,0.8c13.5-1,27.3-1.1,35.8-14.6c1.5-2.3,4.7-4.1,7.5-4.9
				c3.3-1,3.4,3.4,3.7,4.6C586.5,641.9,598.6,660.9,616.4,662.5z M609.4,861.1c-4.6,15.6,12.1,11,20,5.8c8.8-6.4,21.2-8.1,26.4-19.6
				c0.8-1.7,5.6-7.6,6.8-2.6c3.9,15.9,16.5,23.3,28.3,30.7c4.2,2.7,14.1,12.8,18.8-3.8c6-21.4,27.6-25.1,43.7-9.2
				c0.8,0.8,3,1.3,3.6,0.8c37.8-40.6,0.8-65.4,16.8-70.3c16.3-5.2,36.2-9.1,41.1-28.7c-13.1-3.1-24-9.3-27.4-22.6
				c-2.6-9.1,5.3-15.6,11.2-21.9c1.6-1.8,4-5.2,3.4-6.4c-9.2-16.1-37.1-29-54-23.7c-18.9,7.5-13.5-40.7-45.8-56.4
				c-20.3,56.8-55.5,6.8-63.7,20c-18.2,21.6-12.6,48.4-19.4,43.3c-17.1-9.8-34.6-8.5-51.3-0.2c-6.5,3.3-17.5,6.5-5.6,19.3
				c17.8,17.3,3.9,25-12.4,36.9c3.3,14.9,13.3,24,26.5,30.8c1.8,0.9,9.3-0.5,5.4,6.7c-5.6,12.5-15.9,27.1-13.2,41
				c1.3,3.3,6.4-1.9,9.9-2C599.3,826.1,608.9,841.5,609.4,861.1L609.4,861.1z M662.2,863.7c-2.2-3-3.7-5.5-8.2-1.6
				c-5.4,5.6-14.9,7-19.5,13.3c14.6,4.2,31.2,2.3,46.7,4.3C673.3,876.4,667.2,870.6,662.2,863.7L662.2,863.7z M486.2,862.7
				c34.3,45.3,31.9,64.9,95.1,66c2.6,0.4,1.7-2.1,0.4-3.7c-4.3-5.4-7.8-11.8-13-16.3c-14.7-12.8-17.2-38.6-43.5-39.4
				C512.6,868.9,500,865.1,486.2,862.7L486.2,862.7z M132.8,766.5c9.1,13.2,18.4,27.9,29,41.5c7.3,9.3,11.8,21.8,23.2,26.6
				c18.1,7.6,36.9,13.4,56,20.1c-11.8-15.5-22.8-31.1-35.1-45.5c-5.9-7-9.2-18-16-21.4C171.4,778.8,151.1,773.1,132.8,766.5z
				 M102.3,900.4c2.5-1.6,10.6-0.7,7-7.2c-4.9-9.1-11.1-17.5-18.3-28.5c0,11,0.9,19.5-0.2,27.7C89.4,903.8,93.4,906.1,102.3,900.4z
				 M132.7,924.7c0.9-2.5-2.9-1.6-4.2-4c-3.7-6.7-7.1-14-14-18.2c-5.9,3-10.8,6.5-16.3,8.1c-4.8,1.4-1.9,3.3-0.6,3.9
				c11.5,4.8,23.7,13.2,35.7,15.6C137.9,929.1,131.9,927,132.7,924.7z M142.7,889.2c-4.2,1.7-8.6,3.4-12.1,6.1c-2.1,1.6-7.8,2-6,5.2
				c5.4,9.5,12.1,18.3,18.8,28c0-13.3-0.1-25.3,0.2-37.4C143.7,889.7,144.2,888.7,142.7,889.2L142.7,889.2z M143.5,847.4
				c-0.5-3.9,4.2-9.6-2.9-12.4c-15.2-6.1-30.3-12.5-45.5-18.7c-9.2-5.3-2.9,17.8-3.6,23.1c-5.9,16,6.7,25.8,15.7,36.2
				c5,5.8,4.5,23.2,20,13.2c5.5-3.5,15.3-2.2,16.4-9.5C145.4,868.9,144.8,857.9,143.5,847.4L143.5,847.4z M161.1,827.7
				c1.7,0.6,3.6,0.6,5.5,0.9c-9.1-17.7-23.2-33-34.5-49.5c-5.4-7.2-9.2-15.8-17.8-20.6c-18.9-8.6-35.9-18.9-56.4-25.2
				c-1.4,0.8,1.4,4.3,2,5.5c11.9,16.5,23.9,32.9,35.9,49.3c7.4,10.1,13.7,20.9,27.2,25C135.9,817.1,148.4,822.9,161.1,827.7
				L161.1,827.7z M256.7,882.8c-0.4-2.6,1.5-6.4-3.1-7.9c-15.6-5.2-31.1-10.6-46.6-15.9c-12.6-4.3-25.8-7.5-37.7-13.3
				c-5.8-2.8-12.7-1.7-17.5-6.5c-1.4,4.7-0.9,9.3,0.2,14c-5.1,19-1.8,27,15.3,31.9c23.6,7.7,47.1,16.1,70.2,25.3
				c18.2,7.3,19.5,7.1,19.5-12.2C256.9,893.2,257.4,887.9,256.7,882.8L256.7,882.8z M309.1,874.2c-8.2-11-14.3-21.4-22.6-29.8
				c-11.8-12-17.2-30.1-34.8-36.3c-17.8-5.4-33.2-11-52-17.5c19.2,20.6,31,44.7,50.7,63.8C266,868.3,289.3,864.9,309.1,874.2
				L309.1,874.2z M268.8,970.2c6.6-4.1,13.2-8.2,19.6-12.2c-7.6-7.8-14.3-17.5-22.9-24.5c-0.7,12.6-1.4,25.9,0.3,38.3
				C266.9,971.2,267.9,970.8,268.8,970.2L268.8,970.2z M312.8,985.8c0.5-2-18-20.7-20.9-20.7c-5.8,3.3-12.3,6.7-18.4,10.6
				c-1.1,0.7-0.9,2.8,1.7,3.3c11.9,2.5,23.6,5.2,35.5,7.8C311.3,987,312.7,986.3,312.8,985.8L312.8,985.8z M320.9,967
				c-0.2-6.2-0.5-12.4-0.8-18.6c-5.7,3.3-11.4,6.6-17,10.1c-0.6,0.4-3.3,0.4-1.3,2.5c6.1,6.5,12.2,13.2,19.1,20.6
				C320.9,976.2,321,971.6,320.9,967z M321,920.5c-0.2-6.4-0.1-13,0-19.5c0.3-5.8,0.1-9.7-7.7-10.7c-9.5-1.2-18.6-5.2-28-7.2
				c-20.2-4.4-20.2-4.2-20.2,17.4c0.7,6.7-1.7,14.6,1.6,20.7c8.3,9.4,16.6,18.7,25.1,27.9c2.2,2.5,5.3,5.7,8.4,3.3
				C310.9,944.5,326.8,939.5,321,920.5z M369.3,886.9c1.8,0.4,3.7,0.7,5.5,1.1c-9.7-12.8-19.7-25.3-29.6-37.8
				c-6.2-7.8-11.1-19.2-19.2-22.4c-17.2-6.9-36.1-9.6-55.2-14.3c9.7,11.9,19.3,23.4,28.5,35.1c7.6,9.6,13.1,22.7,24.1,27.4
				C337.7,882.1,353.9,883.5,369.3,886.9L369.3,886.9z M435,922.3c0.2-3.3-1.9-4.6-4.2-5.1c-30.2-5.4-59.5-14.5-89.4-21.3
				c-23.5-8-6.4,19.5-13.7,33.5c-0.4,1.1,1.1,4,2.3,4.3c14.8,3.9,29.6,7.6,44.4,11.1c12.7,3,26,4.5,38.1,9.1
				c7.3,2.8,15,0.6,21.6,4.7c0.3-6.7,0.9-13.4,0.9-20h0C434.9,933.3,434.7,927.8,435,922.3z M443.6,904.2c1,0.1,2.1,0.2,3.1,0.2
				c-4.5-8.6-11.5-16.3-18-23.5c-11.7-11.5-14.1-31.1-32.2-36.8c-19.1-5.4-37.1-9-57.1-13.9c7.8,14.4,23.8,29.9,34.7,44.4
				c5.3,6.3,9.9,15.5,16.7,17.7C407.8,898,425.9,900.4,443.6,904.2L443.6,904.2z M459.6,1000.7c2.3-1.8,11.9-1.2,5.2-8.3
				c-6.5-6.3-13.3-13-21-17.9c-0.3,1.1-1,2.3-0.7,3.2c2.9,10.1,1.6,20.5,2,30.7C450.3,1005.7,455.5,1003.9,459.6,1000.7
				L459.6,1000.7z M495.6,1020.8c-17.4-22.6-21.5-20.8-44.7-6.9C465.9,1018.8,480.7,1017.9,495.6,1020.8L495.6,1020.8z
				 M503.9,1007.4c-0.4-7.3-0.9-14.7-1.4-22c-3,2.8-20.7,9.7-18.5,13.3c8.5,3.9,12.9,12.5,19.9,17.7
				C503.9,1013.5,504,1010.4,503.9,1007.4L503.9,1007.4z M501.4,931.1c-18.4-3.6-37-6.6-55.4-10.5c-3.8-0.8-2.7,0.8-2.9,2.5
				c-1.1,10.8-2.8,21.6-0.2,32.7c1.5,11.6,12.2,16.2,19.8,22.6c14.9,19.1,16.3,10.3,33.8,1c12.4-2.9,3.6-28.3,7.4-38.9
				C504.2,939,507.4,932.3,501.4,931.1L501.4,931.1z M517.7,918.3c-10.9-14.2-20.7-26.9-30.3-39.8c-4.7-6.3-8-17.5-13.4-18.5
				c-19.5-2.6-39.2-10.6-58.7-10.2c9.1,16.3,22.9,30.2,34.6,44.7c4.4,4.9,6.8,12.7,14.1,14.2C481.4,912.2,498.9,915,517.7,918.3
				L517.7,918.3z M623,951.5c0.7-2.4-1.5-2.6-4.6-2.5c-34.5-1-68.5-9.6-102.4-15.6c-13.9-4.5-1.6,15.7-6.5,25.4
				c-1.7,5.5-2.2,13.7,6.5,15.4c34.4,8,69.4,11.2,104.2,16.5c3,0.4,2.9-1,2.9-3C622.9,976.2,622.9,964.6,623,951.5L623,951.5z
				 M655.2,938c-11.6-13.6-21.6-26.2-32.5-38c-7.6-8.3-11.2-20.9-27.4-19.6c-13.8,1.9-28.1-6.3-42-4.6c7.4,14,20.2,25,29.5,37.8
				c4.6,5.7,8.1,15.4,13.6,16.6C615.3,934.3,634.9,935.6,655.2,938z M638.3,1030.4c2-3.7,5.7-4.4,8.6-6.4c2.2-1.5,5.9-3,0.8-6.2
				c-5.7-3.6-10.7-8.2-16.7-12.9c0.7,7.7,1.6,14.6,1.8,21.5c0,1.3-2.4,3.4-0.4,4.4C634,1031.6,637.8,1031.4,638.3,1030.4
				L638.3,1030.4z M677.2,1043.5c-11.9-17.4-25.3-19-39.3-3C650.5,1041.5,663.9,1042.5,677.2,1043.5L677.2,1043.5z M688.3,1016.6
				c-1-2.3-0.6-6.5-3.3-5.3c-6.3,2.9-11.9,7.1-17.8,10.8l18,14.8C689.7,1030.6,684.5,1022.9,688.3,1016.6L688.3,1016.6z
				 M685.3,955.2c-63.1,1.1-57.1-20.9-54.8,25c-0.8,13.3,7.2,18.8,15.8,25.1c7.8,5.7,14.7,16.1,25,3.6c10.6-4.1,18.8-10,15.9-23.8
				c-1.6-7.5-0.2-15.7-0.3-23.6C686.9,959.3,691.9,954.9,685.3,955.2L685.3,955.2z M726.5,943.5c0.9-1.4,1.9-2.7,2.8-4.1
				c-10.8-9.5-21.7-19-32.5-28.4c-10.1-8.9-15.3-23.8-33.4-22.4c-12,1-24.2-2.2-36.4-3.6c-2.5-0.3-4.6-3.4-7.8-1.3
				C671.2,940.7,645.6,940.1,726.5,943.5L726.5,943.5z M809,996c-0.3-11.5-0.1-23.1-0.1-35.3c-35.9,2.6-73.3-2-110.7-3.7
				c-3.5-0.2-4.3,1.4-4.2,4.4c0.4,10.7,0.7,21.5,1,32.2c0.1,2,0.1,3.2,2.8,3.4c16.1,1.2,32.2,3.2,48.4,3.8c19.3,0.7,38.6,0,58,0.3
				C808.2,1001.1,809.1,999.9,809,996z M811.2,946c18.8,2.9,38.2,0.9,61.3,0.9c-17.2-16.4-32-30.6-47-44.7c-2.5-2.4-3-7.1-7.5-7.2
				c-18.8-0.1-37.5,0-57.1,0c10.2,11,19.5,21.3,29.2,31.3C796.9,933.5,803.3,944.8,811.2,946L811.2,946z M825.2,1045
				c19.4-18.4,19.4-5.5-8.1-32.8c0.1,13.3-0.4,24.1,0.4,36.3C820,1047.4,823,1046.8,825.2,1045L825.2,1045z M870.9,1060.4
				c-5.3-2-7.4-7.3-11.7-10.1c-7.1-4.7-12.4-17.8-22.9-3.9c-2.9,3.9-7.3,6.7-10.9,9.9C840.1,1061.4,855.6,1058.1,870.9,1060.4
				L870.9,1060.4z M876.9,1015.3c-7.4,5.2-15.1,10.5-22.8,15.9c-1.8,1.2-0.9,2.3-0.2,4c3.8,8.5,14.1,9.4,19,16.5
				c0.7,0.9,2.1,1.3,3.1,1.9C878.1,1041.1,876.4,1027.9,876.9,1015.3L876.9,1015.3z M883.7,962.7c-17.1-3.4-34.4,0.4-51.5-1
				c-12.5-1-21.2,0.5-16.6,16.6c2.9,10.1-6.8,22.7,6.8,30.8c4.9,2.8,9.3,6.5,13,10.8c12.9,16.4,20.7-1.1,31.1-8.5
				c5.9-4.1,14.5-5.3,12.2-16.5c-1.6-7.5,0.8-15.8-0.5-23.5C877.2,965.6,877,962.6,883.7,962.7L883.7,962.7z M871.3,894.7
				c-12.9,2.7-27.1-1.9-39.7,1.8c3.5,7.5,9.2,13.1,15.7,17.4c43.1,47.4,28.3,27.6,88,31c-12.6-11.2-25-21.3-35.6-33.5
				C892.4,903.1,886,892.7,871.3,894.7L871.3,894.7z M969,1557.7c-198,11-398.1-6.3-591-54.4c-56.8-13.4-114.1-24.9-168.8-45.9
				c-69.4-23.9-139.3-47.9-200.8-89.2c-1.5-0.9-3.4-4-5.3-1.3c-7.4,3.7,37.3,29.5,41,31.8c140.5,72.1,295.7,109.8,450.1,138.5
				c85.1,16.3,171.1,28,257.7,31.4c73.2-0.3,144.9,5.9,217.7-6.8c0.5,0.9,5,3.1,4.7-2C974.3,1556.2,971.1,1558.3,969,1557.7
				L969,1557.7z M513.1,146.6c-21-38.6,46.3-30.3,64.3-19.1c11.2,6.1,22.1,14.1,26.7,28.2c0.8,2.6,10.9,7,17.9,4.9
				c4.1-1.2,7.8-4.7,11.8-4.7c18.9,0,6.8-11.4,6.6-17.8c-0.3-8.3-5.5-11.2-13.7-13.7c-21.3-7.6-15.8-43.1,7-45.4
				c21.7-5.7,40.4,27.3,22.8,40.4c-19.4,13-0.4,24.6-0.9,36.6c-0.1,1.5,6.6,3.3,10.2,4.9c1.9,0.8,4.5,0.9,5.6,2.3
				c13,15.9,13.4-2.3,17.6-7c12.2-13.8,26.3-22.8,45.2-23.2c3.4-0.1,5,2.3,4.7,5c-1.5,11.4,5.3,16.9,14.7,18.8
				c12.2,2.4,17.8-5.7,21.3-16c3.1-9-3.8-16-4.4-24.4c-0.5-26.3,16.7-54.1,40.1-66.1c7-3.1,15.5,3.4,18.5,13.2
				c9.3,33.8-14.9,66.1-43.5,77.5c-3,1.5-6.9,5.1-3.7,12.6c7.8,18.1,16.6,6.4,24.9,2.6c10.8-5,20.9-11.5,31.6-16.7
				c2.6-1.3,2.6-2.4,2.5-4.3c-2.7-37.7,50.9-41,51.2-2.9c2.3,24.8-35.4,37.3-47.2,14.6c-0.6-1.1-6,1.2-10.2,3.7
				c-13.3,7.7-26.8,15.2-40.2,22.8c-2.1,1.2-3.4,1.8-2.3,5.4c1.4,4.9,0.9,10.6,0.5,15.9c-0.1,2-3.2,4.7-0.9,6
				c15,2.4,12.8-7.4,34.1,5.1c5,2.7,9.2,6.8,14.2,9.4c6.9,3.7,2.9,7.2,0,9.9c-15.6,12.3-1.9,30.5,11.4,29
				c10.4-3.9,21.8-9.1,23.7-23.6c0.8-43,89.2-71.5,92-40.5c-3.6,22.5-21.3,46-43.5,54c-13,4.6-26.8,10.7-41.4,3.7
				c-13.1,6-26.7,13.6-34.6,27.4c-3.3,6.2-11.6,9.9-18,14.3c-4.9,3.9-1.6,9.3-2.5,14.1c-3.3,12.6,0.4,17.3,14.3,16.5
				c5.1-0.3,11.3-2.8,17.5,0.7c3,1.7,3.7-5,5.2-7.7c5.6-10.5,15-12.6,25.3-11.5c21.2,1.5,26.3,33.8,8.6,43.6
				c-13,7.5-27.1,5.2-33.2-7.6c-7.7-16.2-19.7-5.7-29.6-6.4c-11.2-0.8-20.1,2.6-20.7,16.4c-0.2,16,26.1,17.8,12.7,35.4
				c-6.2,8.5,3.7,13.5,9,13.9c41.9-5.2,99.5,87.8,46.1,76.4c-26.9-7.6-55.5-31.3-53.5-61.7c2.6-8.9-5.4-12.8-10.5-16.9
				c-1.6-1.3-9,3-12.6,6c-9.2,9.4-27.6-2.9-27,14.2c-1.5,23.8-17.4,37.9-36.8,48c-6.3,3.3-6.8-6.1-9.5-9.8
				c-8.5-11.7-20.1-11.6-28.7,0.4c-2.5,3.5-0.5,11.1-6.6,10.6c-9.7-1-16.1-9.6-22.2-16.5c-4.1-5.9-5-13.4-8.5-19.4
				c-4.3-7.5-9.2,1.4-14.2,1.6c-14.8,0.5-29.5,0.1-42.7-6.7c-5.8-2.9-1.9-7.6-0.3-10.9c6.3-12.6,0.1-22-14.5-22.9
				c-6.5-0.4-16.1,4.9-18.9-5.9c-2.6-10-1.2-20.3,2.3-30.1c2.6-10.6,30-23.8,6.6-27.1c-11.5-3.2-21.3-9.9-32.2-14
				c-6.2-2.3-10.5,3.6-16.2,4.6c-17,3.8-32.3-9.8-29.2-27.4c3.8-32.2,54.1-24.8,49.2,6.1c-3.3,8.8,0.9,10.6,7.5,12.9
				c9.5,3.4,18.1,9.2,28.4,10.9c-7.7-14.2-14.4-28-7.7-44.4c1.8-4.4,4.8-3.4,7.7-3.3c7.1,0.2,15.7,0.5,17.9-7
				c2.6-9.2,5.8-19.9-5-27.8c-10.5-7.1-22.1-49.9,2.4-41.1c11,2,12.4-5.6,13-12.8S617,172,610,168.4c-11-5.6-14.1,4.4-20.8,6.7
				C561.6,186,528.5,170.7,513.1,146.6z M547,292.9c-0.2-26-35.2-15.9-31.6,0.3C514.8,314.7,547.9,315,547,292.9z M836,419.3
				c9.4,26.6,31.8,41.2,58.5,47.3c0.5-28.4-25.4-55.3-54-61.8c4.2,9.4,48.2,42.8,40.2,49.5c-2.6,3.3-5.1-0.8-6.8-2.6
				c-11.5-11.3-22.8-22.8-34.1-34.3c-1.1-1.1-1.8-2-3.5-0.6C835,417.9,835.5,417.9,836,419.3z M869.4,323.6
				c-1.1,17.6,28.1,20.6,29.6,3.8C900.8,304.3,870.3,304.1,869.4,323.6L869.4,323.6z M882.4,235.3c16.1-11.4,29.9-20.6,46.2-30.6
				c1.3-0.8,4,0.9,6.1,1.4c-0.6,1.4-0.9,3.2-2,4c-14.3,10.9-28.7,21.5-46.3,34.6c14.1-3.9,25.7-5.3,35.5-10.3
				c14.4-7.3,25.9-19.2,32.7-33.8c6.6-13.8,6-16.1-8.7-15.5C916.3,186.9,888.6,204.7,882.4,235.3L882.4,235.3z M867.1,148.1
				c20.6,0.4,20.7-32,0.1-33.3C841.7,114.2,844.3,150.2,867.1,148.1L867.1,148.1z M819.4,323.2c-2.8-11.6-28-26.6-40-24.1
				c-2.8,0.6-6.2,5-8,1.1c-4.8-14.7,12.8-24.3,2.9-49.1c-1.7-4.5-2.2-16.8-13.9-8.5c-14.7,10.2-33.5-1.1-35.6-18.1
				c-0.3-1.9-0.8-3.9-3.3-3.3c-21.4,4.2-40.7,12.9-49.9,33c-7.9,18.6-20-22.8-49-14.1c-2.4,0.6-4.7,0.8-2.5,4.8
				c6.2,11.4-1.6,27.1-12.8,32.8c-5,2.5-15.3-4.6-15.1,6.5c0.3,16.6,2.8,32.7,20.3,41.2c1.2,0.6,4.7,3.2,1.2,5.4
				c-13.8,8.3-25.6,18.5-28.3,35.2c-0.9,5.7-5.2,15.8,9,14.8c20-3.4,36.8,18,22.9,35.3c43.1,16.7,51.4-15.4,55.7-0.4
				c3.1,12.4,6.6,24.5,16.8,33.3c2.6,2.2,4.7,3.5,7-0.1c8.9-16.8,37.9-20.3,42.5,1.5c0.2,1,3.6,2.5,4,2.1
				c12.4-10.5,24.7-20.6,27.9-38.4c1.2-6.4-3.5-17.4,8.9-19.1c16.8-0.1,33.1-5.6,39.6-22.3c1.8-4-4.7-5.7-7.1-8.9
				c-8.8-11.5-11.8-22.4,0-34C815,327.7,820.6,328.1,819.4,323.2L819.4,323.2z M781.7,124.8c7.2-15.8,14.2-31.4,21.5-46.8
				c0.9-1.8,3.9-2.6,5.9-3.8c5.5,7.3-16.4,46.5-20.4,56.1c22.2-9.2,39.3-42.4,32-65.3c-3.5-10.4-3.7-10.6-6.7-8.8
				C792.8,69.8,773.1,98.8,781.7,124.8L781.7,124.8z M653.1,104.3c2.3-21.5-31.5-21.2-30.8-1.9C620.4,123.3,651.7,125.2,653.1,104.3
				z M605.4,203.2c-2.9-0.2-2.3,1.6-2.4,3.1c-1,19.1,3.8,23.7,22.4,22.8c16.9-0.8,29.7,7.5,40.6,19.7c1.1-1.8,1.7-3.7,3-4.8
				c13.3-10.2-6.4-12.9-14.9-22.9c-1.8-1.5-3.5-3.2-1.7-6.2c2-3.4,4-1.5,5.7-0.3c5.5,3.6,11.3,7,16.4,11.2c7.9,6.7,12.3-1.5,18-3.7
				c2.1-0.8,3.2-3.1,2.4-5.2c-0.1-0.3-0.3-0.7-0.5-1c-4.2-5.1-5.2-11.3-7.3-17.1c-0.9-2.6-4.1-6.3,0.6-7.2c2.8-0.6,5.2,3.2,7.7,5.9
				c5,5.7,0.9,20.5,14.5,17.1c5.6-1.4,14.2,1.7,17.1-7.4c1.8-5.4,4-10.7,6.5-15.7c2.7-3.6,6.8-1.6,6.5,2.5c-0.8,4.5-2.2,8.9-4,13.1
				c-4.3,9.1-4.5,17.6,2.4,25.3c5.5,6,11.7,1.6,17.9,1.4s10.9-8.1,16.1-4.1c14.8,11.2,17.1,36.6,10.8,52.5
				c-9.7,20.3,14.2,0.4,35.5,23.4c-0.3-4.5,1.3-8-1.5-11.6c-1-1.3-0.4-6,0.5-6.3c11.5-5.8,21.5-15.3,27-26.8c-0.4-0.7-1-1.3-1.8-1.6
				c-14.5-1.5-24.2-15.9-16.4-32c1.2-2.4,6.8-4.2,3.3-7.2c-23.6-24.3-50.7,3.4-47.4-23.3c0.8-12.7,0.8-27.5-8.7-37.4
				c-0.2-0.3-2.9,0.9-4.1,1.9c-13.5,10.9-30.7,5.6-37.2-10.8c-0.9-2.3,0.6-8.7-5.4-7.2c-43.2,7.6-33.2,51.8-55.5,32.2
				c-9.6-8.7-21.1-12.6-33.7-9.9c-3.7,0.8-14-1.9-10.8,8C634.1,194.3,626.8,204.8,605.4,203.2L605.4,203.2z M516.2,135
				c6.5,21.7,50.9,50.1,74.8,28.3c0-3.9-4.8-1.4-7.3-2.3c-8.5-5.1-54.3-11.2-51.8-21.1c0.7-4.9,6.6,1.4,10.4,1.1
				c17.5,2.5,34.8,6.7,51.5,12.4c-15.8-21.8-43.6-31.4-69.5-23.9C521.6,130.4,514.5,130.3,516.2,135z M758.7,343.5
				c0,4.3-9.4,2.9-12.6,3.4c-9.1-0.4-18.2-1.6-27.3-1.5c-10.2-0.6,26,25,27.8,28.2c2.3,2.1,6.9,4.2,3.5,8.2s-6.7-0.3-9-2
				c-8.5-6.5-16.3-13.7-24.7-20.2c-1.7-1.3-3.5-4.9-6.9-2.1c-4.8,3.9-0.3,7.9,0.4,11.3c1.7,9,4.8,17.6,7.2,26.4
				c1.5,12-11,13.8-9.6-1.8c-1.7-10.3-7-19.6-6.6-30.4c0.1-3-3-1.7-4.8-1.9c-3.4-0.5-4,2.4-4.8,4.6c-3.5,9.5-6.7,19.1-10.2,28.6
				c-0.9,2.4-1.7,6.2-5.6,4.4c-8.8-3.7,7.6-28.8,9.1-36c2.5-6.1-7.4-5.8-5.9-10.7c-13.9,4.5-23.2,16.3-36.6,21.4
				c-1.6,0.6-3.1,3.1-4.5,0.9c-5.3-5.5,27.5-25.5,33-27.3c1.7-0.7,3-2.2,4.5-3.3c-11.5-5.4-25.4-2.7-37.9-4.5
				c-2.3-0.1-4.9-1-4.7-3.4s1.6-5.2,5.2-4.8c11.2,1.3,22.3,2.6,33.5,3.7c4.5,0.5,5.6-2.4,1.6-4.4c-8.3-7.7-16.6-15.5-24.8-23.4
				c-1.4-1.2-1.5-3.2-0.3-4.6c0.2-0.2,0.5-0.4,0.7-0.6c5.2-5,25,18.3,30.6,22.1c1.3,1.2,1.7,1.1,2.5-0.1c1-1.5,3.1-3.5,2.7-4.3
				c-2.3-4.8-14.5-34.6-9.1-36.3c2.3-0.7,5-0.7,5.9,2c3.6,10,7,20.1,10.2,30.2c0.8,2.6,2.6,1.3,4,1.7c10.9,5.5,16.4-42.5,27-35.7
				c5.4,1.1-12,30.3-13.3,35.7c-2,4.5,3.1,4.6,4.5,7.1c1.3,2.3,2.5-0.1,3.8-0.9c8.8-5.4,17.6-10.9,26.7-15.8c2.4-1.3,5,3.5,4.8,3.7
				c-7.6,10.4-20.2,15-30.5,22.1c-0.3,0.5-0.4,1.1-0.2,1.7C730.3,341.6,747.9,333.3,758.7,343.5z M696.8,325.7
				c-18.5-0.8-20.7,25.6-1.1,26.5C713.3,352.7,714,325.1,696.8,325.7L696.8,325.7z M650.9,770.7c-13.9,3.6-27.8,7-41.8,10.3
				c-2.8,0.7-5.9,0.4-6.2-3.7c-0.5-6,5.4-5.4,8.2-6.1c13.2-3.3,26.7-5.7,40-8.3c3.3-0.7,1.5-3.1,1.9-4.8s-0.2-2.6-2.4-3.3
				c-17-4.6-34-9.4-50.9-14.4c-12.3-7.3,1.9-10.7,8.9-7c15.4,4.7,30.6,10.2,45.9,15.2c0.9,0.1,1.8-0.3,2.4-1
				c9.6-9.8-30.3-39.6-20.9-46.5c2.5-1.9,5.5,0.3,7,2.7c6.9,10.6,13.5,21.4,20.3,32c0.7,1.1,2.9,2.5,3.5,2.2
				c4.1-2.3,11.6,0.4,11.2-8.8c-0.5-12.1,0.4-24.3,1.2-36.5c0.2-3.1,3.4-4.5,6.3-3.8c7,1.9-0.2,5,1.6,14.4
				c-0.4,9.2-0.7,18.4-1.3,27.6c-0.2,2.9-1.4,6.1,2,7.5c2.9,1.2,5.4,3,8.8-1.6c7.8-10.3,17.2-19.5,26-29.1c2-2.2,4.2-5,7.4-1.8
				s0.3,5.7-1.6,7.7c-9.2,9.7-18.6,19.1-27.9,28.7c-1.2,1.3-3.6,2.1-1.8,5.1c1.6,2.6,3,1.8,5.2,1.5c16-2.2,32-4.2,47.9-6.2
				c2.6-0.3,4.9-0.1,5.6,3.3c0.8,4.4-3.2,3-4.6,3.4c-15.1,3.3-30.2,8-45.4,8.4c-7.1,0.2-2.7,5.9-6.2,6c12.8,6.1,27,10.5,40.1,16.7
				c2.3,1,2.1,2.9,1.2,4.6c-3,6.8-25.2-8.1-32.2-8.8c-7.2-2.3-13.6-3-17.2,3c-1.5,2.5,2.8,8.8,5.1,13.1
				c5.6,10.9,11.5,21.7,17.3,32.5c1.1,2.1,1.6,4.5-0.9,5.6c-2.8,1.3-3.7-1.8-4.7-3.4c-8.5-13.3-17.6-26.4-23.2-41.5
				c-0.3-0.8-2.6-0.9-2.1-0.7c-8.7-0.5-11.3,3-11.7,9.3c-1.4,6.8,1.1,32.5-9.7,30.3c-6.7-1.8-0.8-6.9-0.5-10
				c0.8-9.8-0.6-20,3.8-29.6c0.7-4.8-8.2-3.1-9.5,0.7c-7.7,12.2-18,21.9-27.9,32.2c-1.8,1.8-4.5,4.8-5.5,3.4
				c-1.8-2.7-1.5-6.2,0.7-8.6c10.3-11.8,20.5-23.7,30.5-35.7c0.9-1.1,0.3-3.9-0.2-5.7S652.5,770.2,650.9,770.7L650.9,770.7z
				 M660.9,759.4c-0.9,24,33.4,22.3,31.8,1c0.3-9.8-6.6-14.6-15.8-15.1C665.9,744.5,662.7,752.4,660.9,759.4L660.9,759.4z
				 M617.1,605.4c-11.4-24.9-13.9-54.9-26.9-8.3l1.4,0.7c-2.2,3.4-4,7.3-6.8,10.1c-2,2-5.1-3.7-3.7-7.6c2.4-9.2,6-18,9.3-26.8
				c0.6-1.5,0.4-2.3-1.3-2.3c-2.7,0-3.2-5.8-7.3-2.2c-8.6,7.6-17.5,14.8-26.3,22.2c-2.2,1.9-4.2,3.6-7,0.4c-3.2-3.7,0.5-4.1,2.2-5.6
				c4.8-5.7,31.8-21.9,27.7-28c-0.9-2.2-3.2-1.1-5.1-1c-12.2,0.8-24.5,1.4-36.7,2.1c-8.9,0-10.6-9.4-0.5-8.2
				c12.5-0.6,25.1-1.3,37.6-1.9c1.5-0.1,3.2,0.1,2.9-2.2c-0.2-1.4,0.5-2.6-1.7-3.9c-11.8-7-23.3-14.4-34.8-21.9
				c-1.9-1.2-4.8-3.5-2.5-6.2c3.5-4.3,6.5,0.1,9.1,1.6c11.1,6.5,22,13.4,33,20.1c0.7,0.4,1.8,0,2.7,0c-2.3-11.6-9.3-22.2-14.1-33
				c-1.8-3.4-0.2-5.4,1.6-6.6c2.3-1.7,3.9,0.8,4.8,2.7c3.5,7,6.6,14.4,10.6,21.2c1.7,3,1.3,8.3,6.8,8.2c7.2-0.1,11.5-2.4,13-10.9
				c2-11.1,6.5-21.7,10.1-32.5c0.3-0.9,2.3-1.3,3.5-1.9c0.6,2.6,4.5,3.2,3.1,7.4c-4.4,12.7-8.1,25.6-12,38.5c-0.1,0.3,1,1.5,1.3,1.5
				c2.8-0.7,2.2,6.1,6.2,2.6c9-7.8,18.1-15.5,27.2-23.3c2.5-2.1,5.2-2.2,7.4,0c7.9,5.3-33.8,26.1-32.4,33.2c0.4,1.7,1.8,1.9,4.1,1.8
				c13.7-1.1,27.5-1.6,41.2-2.3c2.9-0.1,5.6,1.3,5.8,4.1c0.2,3.2-3,1.8-4.6,1.9c-13.6,1.4-27.2,2.7-40.9,4.1
				c-1.5,0.2-3.8-1.3-4.3,1.8c-2.1,6,24.2,15.7,29.4,20.3c3.7,2.2,10,5.7,7,9.4c-3.5,4.4-9.7-0.2-14-2.6
				c-8.1-4.5-15.8-9.8-23.6-14.7c-3.4-2.1-6-0.5-8.5,1.8s0.5,3.8,1.1,5.3c4.5,10.5,9.3,20.8,14.2,31.2c1.4,3-0.9,4.6-2.5,5
				C620.2,611.6,618.3,608.1,617.1,605.4L617.1,605.4z M612.5,551.3c-0.1-17.3-22.8-19.1-27.4-3.8
				C581.9,568.7,612.6,569.2,612.5,551.3L612.5,551.3z M470.8,662.4c0.4,9.4-30.3,11.3-38.4,14.8c-2.9,0.7-1.3,3-1.3,4.5
				c-1.8,10,23.7,9.7,31.1,13.4c7.8,1.4,5.2,9.4-2.7,6.9c-9.9-1.2-19.4-3.7-28.9-6.5c-1.1-0.3-3.9,3.3-5.2,5.6s1.6,1.2,2.1,1.9
				c7.2,10.7,14.4,21.5,21.2,32.5c0.5,0.8-2.1,3.6-3.3,5.4c-11.7-7.6-16.3-22.1-25.1-32.6c-2.8-3.8-7.4,0.6-10.9-1
				c-2,11.8-0.7,23.6-0.5,35.5c0,1.1-2.3,3.2-3,3c-2.2-0.6-5-1.1-5-4.5c0.2-10.8,0.1-21.6,0.8-32.3c0.2-3.4-2.6-2.6-3.6-3.2
				c-10-8.1-21.3,30.3-30.8,22.4c-3.9-3.3,1.1-6.9,3.2-9.5c5.5-6.9,11.5-13.2,17.3-19.8c0.3-0.4,0.5-1.5,0.2-1.7
				c-1.7-1.6-3.7-4.5-5.2-4.3c-10,1.4-19.9,3-29.1,7.8c-2.1,1.1-7.6,2.6-8.6-1.3c-1.9-7,5.3-7,9.1-8.2c9.5-3.5,20.4-3.3,29.5-7.5
				c-2.1-6.7-44.5-9.8-42.6-16.8c0.3-2.6,2.6-4.4,5.1-4.1c0.4,0,0.7,0.1,1.1,0.2c10.7,2.9,21.4,6,32.1,9.2c6.6,3.4,11.5-2.6,6.1-8.2
				c-4.6-6.6-18.1-17.1-16.1-24.9c2.5,0.3,5.3-1.8,7.5,0.8c5.4,6.6,10.7,13.2,15.9,20c0.9,1.2,1.4,4.4,2.6,2.8
				c2.6-3.3,9.5,0.7,9.5-5.9c0.1-5.5,0-11,0-17.7c2.5-5.1-3.9-12.6,2.8-18.4c3.8-3.3,4.1-0.2,4.3,2.4c0.5,8.3,0.8,16.5,1.1,24.8
				c0.2,5.5-1.9,13.3,5.6,14.2c8.8-0.6,15.1-16.1,20.5-22.6c4.6-6.7,13.8-0.1,6.8,5.3c-5.4,7.5-11.4,14.7-17.4,21.8
				c-0.9,1.1-2.9,1.7-1.3,3.1C432.4,674.1,467.6,657.5,470.8,662.4z M423.2,683.3c-0.5-21-33.3-19.3-32.1,1.3
				c-0.4,13.1,9.8,15,18.8,14.7C418.4,699.1,422.6,692,423.2,683.3z M429.3,410.6c0.9,5.8,7.4,4.8,11.5,6.1
				c8.3,2.6,16.9,4.1,25.2,6.4c6.6,2.4,1.4,10.2-4.3,7.6c-9-2.6-18-5.2-27-7.8c-3-0.9-6.9-5-8.9-1.3c-3.9,3,22,28.7,25.3,34
				c4.5,3.4-2.9,7.9-5.4,4.5c-8.4-9-16.5-18.3-24.7-27.5c-1.3-1.5-2.1-4.6-4.5-3.4s-6,1.2-5.5,5.9c0.9,7.6,0.8,15.4,1.4,23.1
				c0.4,4.9,3,11.9-3.9,12.3c-8.2,0.5-0.6-7.5-4-10.3c2.4-8-3.5-15.2-1.1-23.1c0.3-0.9,1.9-5.4-2.6-6.2s-8-2.4-11.3,3.4
				c-4.5,7.7-10.7,14.4-16.3,21.3c-1.6,2-3.9,4-6.6,1.4s0.5-4.4,1.5-5.9c4.4-8.4,19-21.2,18.7-29.7c-12.8,4-25.1,9.5-37.8,13.8
				c-1.5,0.5-5.3-0.6-5.3-0.8c-1-9.9,28.7-15.4,36.8-19.4c5.6-0.4,4.6-8.6-1-8.1c-6.3-0.1-48.1-2.6-46.7-9.5c0.3-3.8,3.3-3,5.2-2.8
				c12.9,1.2,25.7,2.6,38.6,4.3c4.3,0.6,9,0.7,9.4-4c-3-10.6-14.8-19.2-21.7-27.9c-2.3-2.5-0.6-4,0.9-5.3c1.5-1.5,3.9-1.4,5.4,0.1
				c0.1,0.1,0.2,0.2,0.3,0.4c6.4,7.4,12.7,14.9,19,22.4c2.1,2.5,4.5,3.4,7.2,1.4c2.3-1.7,7,0.2,5.3-7.1c-2.6-11-1.1-23-1.1-34.5
				c0-0.9,2.9-2.8,3.5-2.5c1.7,0.9,4,2.6,4.1,4.1c1,10.7,1.7,21.4,2,32.2c0.1,2.7-0.6,4.9,2.2,6.8c3.4,2.2,5.7,2.1,8.3-1.3
				c5.9-7.6,12.2-15,18.3-22.5c1.9-2.3,4.7-3.6,6.7-1.7c7.5,7.6-13.9,21.2-18,27.8c-2,2.1-4.1,3.9-2.4,7.9
				c4.5,10.5,10.4,1.5,14.9,0.9c5.9,0.9,28.7-11.8,29.9-5.4c0.3,2.5-0.7,5.6-4.3,6.5c-9.3,2.2-18.5,4.3-27.6,7.1
				C435.2,405.3,428.2,403.6,429.3,410.6z M420.8,407.2c-0.4-19.1-30.1-20-29.9-0.2C389.5,427.8,422.6,427.6,420.8,407.2
				L420.8,407.2z M0,568.8c7.4-24.6,37.3-37.1,61.9-33.5c8.8,1.3,19.6-0.4,25.6,10.4c1.2,2.2,8.5,1.1,13.8,1.6
				c-10.8-14.3-11.7-29.6-9.4-45.6c0.8-5.5,3.9-6.9,9-6.9c14.3,0.1,20.9-7.7,15.8-20.6c-4.9-12.3,3.4-14.3,11-17.1
				c16.3-6.3,32.1-4.7,47.3,3.8c8.7,12.5,13,1.7,18.5-3.5c8.8-8.4,16.7-18.4,30.5-18.6c3.2,0,4.9,1.2,5.1,4.6
				c1.4,18.6,16.6,29.6,32.7,20.8c16.7-9.2,17.3,1.5,19.1,11.7c1.4,8,4.3,16.2,0.5,24.7c-4.1,15.6,17.3-9.2,43.9,31.7
				c2.5,3.1-2.6,5.8-4.9,8c-12.8,13.2-12.8,16.3,0.9,28.2c13.8,19.3-24.7,37.8-42.1,34.5c-2.8-0.5-2.4,1.9-2,3.4
				c5.5,19.4,1,36.6-11.3,52.2c-2.9,3.7-6.6,0.7-8.1-0.1c-14.6-7.6-25.3-4.3-31.8,10.8c-5.3,12.4-13.6,4.1-19.9,2.5
				c-13.5-3.4-22.4-13.6-30.1-24.1c-6.9,13.3,5.9,20.5,10,30.7c12.9,21.6-3.6,103.3-32.9,57.5c-23.4-63,17.1-59.6,13.3-86.4
				c-11.6,7-21.7,16.7-34.6,22c-2.9,1.3-6.2,3.7-3.1,9.2c6.6,11.6-1.2,20.9-8.7,27.7C110.5,717,93,713.9,85,704
				c-14.1-17.2,0.8-43.7,22.5-42.8c2.5,0,5.1,1.8,7.4,3.1c16.2,9.8,20.5-10,32-12.3c-66.9,0.2-6.8-31.2-43.4-38.7
				c-7.3-1.9-18,3.4-18.6-10.1c-3.5-18.1,7-34.3,15.3-49.1c-14.3-4.2-17.9,10.5-26.8,16.3c-14.7,9.5-30.4,10-46.7,8.3
				C19.3,576.6,2.2,576.9,0,568.8z M121.5,686.3c0-21.8-35.4-21.8-34,0.5C86.7,709.4,124.1,709.9,121.5,686.3z M173.1,681.6
				c-1.4,8,4,45.1-4.8,45c-3.8,0.2-3.4-4.3-3.4-7.4c0-14.6,0-29.1,0-46.2c-16.6,20.3-10.6,46,0.6,66.8c1.5,2.5,2.6,3.3,5.2,0.8
				C191.7,719.8,177.5,660.8,173.1,681.6z M112.5,554.3c-8,8.5-11.3,19.4-16.4,29.3c-5.3,10.2-0.3,20.5,10.3,21.3
				c14,1.1,21.7,12.2,17.7,25.5c-1.3,4.3-2.3,8.6,3.5,10.2c34.4,11.7,42.5-18,51.1-4.8c7.1,11.1,15.9,20.3,27.6,25.9
				c19.4,14.5,12.4-22.9,44.3-15.7c2.7,0.6,8.5,6.6,12.7-0.3c7.8-12.9,11-26.8,5.5-40.7c-6.2-15.9,6.5-11.5,12.2-11.5
				c10.2,0.2,20.1-3.4,27.9-9.9c17.3-14.3-17.2-16.3-3-39.7c2.2-3.9,10.6-6.7,6.2-12.7c-9.2-12.4-21.2-19-37.4-14.4
				c-3.3,0.9-8.3-2.5-7.2-3.6c4.9-5.1,2.7-11.5,4.6-17c2.8-7.7-0.8-14.9-4.4-21.2c-4.1-9-30.9,17.7-44.8-18.4
				c-3.2-9.4-3.1-9.2-8.3-6.2c-11,4-25.8,33.3-36.3,23.1c-13-11.9-33.4-13.6-50-6.3c-1.9,0.7-3.5,1.8-2.2,5.2
				c3.9,10.7,0.3,30-16.5,30.5c-10.8,0.3-11.1,6.2-10.3,13.7C99.5,543,117.3,546.4,112.5,554.3z M7.1,568.6
				c25.8,5.6,50.9,9,72.9-13.3c-13.1-0.9-24,2.8-35.2,5.2c-2.2,0.2-14.4,2.1-13.3-1.4c1.5-1.7,2.3-3.7,5.2-4.2
				c14-2.4,27.5-7.6,43.7-8C59.6,539,26,539.7,7.1,568.6z M258.6,292.6c-1.8,1.9-1.8,3,0.2,5.2c8.5,9.8,16.7,19.8,24.8,29.9
				c1.3,1.6,3.8,3.6,1.4,6.3c-2.7,3-4.4,0.2-6.2-1.1c-11.4-8.3-18.2-20.7-27.4-30.9c-1-1.1-1.4-3.5-3.6-1.8c-1.8,1.3-5,0.2-4.9,4.6
				c-1,10.1,2.2,28.2-4.2,35.8c-4.7-0.1-6-7-5.6-11.1c0.9-8.8,1.6-17.6,1.6-26.5c0-1.3-3.9-3.3-6.2-3.7c-4.8-1-5.8,4.5-6.8,6.6
				c-4.5,10.6-14.1,17.3-19.5,27c-2.6,5.3-13.1,0.9-7.4-4.8c8.1-10.9,16-22,23.7-33.2c5.4-2.8-0.4-7.3-4.7-5
				c-6.4,2-33.3,14.9-36.4,6.8c2-11.2,39.4-8.7,37.6-19.5c-0.6-3-2.9-3.4-5.3-4.1c-11.9-3.4-23.9-6.7-35.6-10.6
				c-1.6-0.5-6.5-1.4-4.6-5c3.8-9.9,40.1,9.1,48.5,10.6c12.3-18.3-16-23-16.7-38.1c0.2-1.1,3.2-2.9,3.5-2.7
				c10.2,6.4,15.3,18,23.7,26c1.9,1.6,10.1,2.6,11.5-3.9c2.3-11,3.5-22.2,5-33.3c0.5-3.8,0.4-8.5,5-8.7c6.3-0.3,3,5.3,3,7.8
				c-0.2,12.6-2.1,25.1-5.4,37.3c-0.2,0.8,0.2,2.4,0.5,2.5c2.3,0.4,4.3,0.4,6.3-1.6c9.3-9.6,19-18.8,28.2-28.5
				c3.2-3.4,4.5,0.4,5.8,1.1c2.4,1.2,0,2.9-1.1,4.2c-8.8,10.2-17.3,20.6-26.4,30.6c-2.8,3.1,2,3.9,0.7,6c11.9,1.7,35-14.8,45.5-10.1
				c-1.5,2-2.5,5.2-4.5,5.9c-11.1,3.9-22.4,7.2-33.6,10.8c-1.8,0.6-5-2-5.3,1.8c-0.4,4.7,1.8,7.4,6.9,7.6c11.5,1.1,30.8,0.7,38.5,10
				c-9.3,5.8-33.1-0.6-44-3.1C261.3,288.4,260.4,290.7,258.6,292.6L258.6,292.6z M237.9,260.7c-20.2-0.3-20.3,33.1,0.9,32.2
				C261.8,295.2,259.5,258.5,237.9,260.7L237.9,260.7z M136.2,554c-0.3-3.2,2.9-3.1,5.5-3c11.1,0.2,22.1,0.3,33.2,0.5
				c3.6,0,1.7-4.1,4-5.1c-6.2-10-18-15-26.7-22.7c-2.8-2.1,0-4.6-0.5-6.9c11.8,0.6,34.3,27.2,37.3,19.1c4.2-11.4-5.6-23.3-3.9-35.2
				c0.1-1.5-0.9-3.6,2-3.6c2,0,3.5,0.3,4.1,2.6c2.6,9.8,6,19.4,7.7,29.3c0.8,4.9,4.1,5.1,6.7,5.8c3.4,1,2.6-3,3.4-4.8
				c4.1-9.9,8-19.9,12.3-29.8c0.5-1.1,3-1.3,4.6-2c4.7,8.8-6.3,22.9-8.6,32.5c-0.9,2.5-4.6,5.1-2,8c6,8.6,22.9-11,29.9-14.4
				c6.1-4.8,13.2,1.3,5.6,5.9c-3.9,4.4-27.8,17.2-25.4,21.6c6.9,4.7,44.8-4.3,44.4,6.1c0.2,4.1-3.7,3.2-6.3,3.2
				c-11.2,0.1-22.3-0.1-33.5,0.1c-1.5,0-3.5-0.9-3.8,2.3c-0.2,2.7-1.7,5.3,1.4,7.1c7,4.2,13.9,8.4,21.1,12.3
				c6.1,3.2,3.4,11.1-2.9,6.3c-7-4.3-14.4-8-21.4-12.2c-4.2-2.5-5.8,1.8-8.4,3.1s0.2,2.4,0.8,3.6c0.9,4.5,14.4,25.5,9.2,26.5
				c-10.1-0.3-13-14.7-17-22.2c-1.9-4.2-5.7-2.8-9-3.1s-2.3,2.1-2.8,3.9c-3,6.2-3.2,25.8-12.2,24.1c-3.1-0.5-1.9-3-1.7-4.3
				c1.1-6.6,1.2-13.9,4.3-19.6c3.7-6.8-0.4-8.8-4.4-11.2c-4.3-2.6-6.8,1.4-9.6,3.5c-5.1,3.7-10,7.8-15.2,11.2
				c-1.7,1.1-4,0.9-5.9-1.7c-5.7-5,22.7-17.2,24.3-23.9c-3.6-1.1,1.6-8-5.8-7.4c-9.5,0.8-19.2-0.3-28.8-0.6
				C139,559.1,136.5,556.9,136.2,554z M199,576.3c8.2-1.2,19.8-3.3,18.4-12.5c-0.9-14.9-6.4-19.8-16.5-20.8
				C176.8,540.8,176.3,577.9,199,576.3z"/>
		</g>
	</g>
</g>
<g>
	<g id="Layer_1_2_">
		<g transform="matrix( 1, 0, 0, 1, 0,0) ">
			<g>
				<g id="Layer0_0_FILL_1_">
					<path d="M52,1548v15l-37,37h946l-37-37v-15H52 M52,52V37.7L14.3,0H0v1600h15l37-37v-15V52 M924,52V37.7L961.7,0H14.3L52,37.7
						V52H924 M976,0h-14.3L924,37.7V52v1496v15l37,37h15V0z"/>
				</g>
			</g>
			<g>
				<path id="Layer0_0_1_STROKES_1_" class="st7" d="M961,1600h15V0h-14.3L924,37.7V52v1496v15L961,1600H15H0V0h14.3h947.4 M52,52
					V37.7L14.3,0 M15,1600l37-37v-15V52h872 M924,1548H52"/>
			</g>
		</g>
	</g>
</g>
</svg>
