<?xml version="1.0" encoding="utf-8"?>
<svg version="1.1" id="Layer_1" xmlns="http://www.w3.org/2000/svg" xmlns:xlink="http://www.w3.org/1999/xlink" x="0px" y="0px"
	 viewBox="0 0 976 1600" style="enable-background:new 0 0 976 1600;" xml:space="preserve">
<style type="text/css">
	.st0{fill:#FFFFFF;}
	.st1{clip-path:url(#SVGID_2_);}
	.st2{fill:#333333;}
	.st3{fill:#FF8DB6;}
	.st4{fill:#D81E1E;}
	.st5{fill:none;stroke:#333333;stroke-width:2;stroke-linecap:square;stroke-miterlimit:3;}
</style>
<g id="Paper_Backing">
	<path class="st0" d="M960,22v1556c0,3.3-2.7,6-6,6H22c-3.3,0-6-2.7-6-6V22c0-3.3,2.7-6,6-6h932C957.3,16,960,18.7,960,22z"/>
</g>
<g id="Wikipedia_Cropped">
	<g>
		<defs>
			<path id="SVGID_1_" d="M960,22v1556c0,3.3-2.7,6-6,6H22c-3.3,0-6-2.7-6-6V22c0-3.3,2.7-6,6-6h932C957.3,16,960,18.7,960,22z"/>
		</defs>
		<clipPath id="SVGID_2_">
			<use xlink:href="#SVGID_1_"  style="overflow:visible;"/>
		</clipPath>
		<g class="st1">
			<path class="st2" d="M484.5,1477.1c-20.6-22-3.9-88.5,37.2-88.7C545.4,1415.4,510.7,1466.4,484.5,1477.1z M701.4,1399.2
				c-22.9-3.3-51.5-45.8-33.3-64.9c3.2-0.3,4.7,3.9,8,3.5c2.4,0,4.8-2.4,7.1-0.6C703.2,1350.1,715.8,1385.2,701.4,1399.2z
				 M138.9,1191.6c-36-6.8,24.6-63.8,45.1-48.2c4.7,7.3,13.7-6.8,16.4,2.5C199.3,1176.7,164.5,1189.2,138.9,1191.6L138.9,1191.6z
				 M629.4,1106.4c-32-17.8,5.2-66.3,25.8-77.3C691.3,1026.8,649.9,1104.6,629.4,1106.4z M287.5,726.5c-28.2-17,3.2-60.2,25.4-72.2
				C341.5,664.9,308.1,721.5,287.5,726.5z M813.5,542.9c-4-3.3-10.4-0.7-13.2-4.9c-2.8-31.2,26.3-55.9,51.7-67.6
				C904.2,455,847.1,544.5,813.5,542.9L813.5,542.9z M199.7,275.1c-94-1.8-4.2-53.3,37.2-37.8c4.1-0.4,10.3-1,9.7,4.9
				C268.8,265.6,213.8,276.7,199.7,275.1z M336.8,150.6c-23.9,3.6-77.3-86.4-27.5-67.7C329.8,89.2,372.2,135.6,336.8,150.6z"/>
			<path class="st3" d="M588.4,1372.5c-25,2.3-35.5-22-53.5-28.9c-12.8,7.9-27.3,18.1-43.4,17c-7.7,0.3-12.2-1.7-12.8-12.3
				c-4.3-30.7-42-4.3-41.2-26.3c-4.7-38.6,27.2-54.4,43-80.4c20.9-33.3,42-66.5,62.4-102.2c25.4-5.9,26.3,34.4,37,50.7
				c20.4-3.3,37-7.3,58.6,4.3c17.5,9.5-16.7,34.4,13.7,42.6c27.2,9.7-9.4,34.5-19.8,42.2c-0.7,16.1,10.7,32.2,2,52
				c-2.8,7.1-6.4,6.3-10.9,4.5C588.9,1328.1,610.7,1371.2,588.4,1372.5L588.4,1372.5z M543.9,1241c-29.6,5.5-27,40.5,2.5,40.7
				C572.2,1278.5,568.1,1242.3,543.9,1241z M217.9,938.8c-46.5-15.2-36.9,20.7-45.8-29c-5.3-13.6-32.7-1.9-26.6-18.9
				c2.8-18.3,23.5-26.3,20.6-40.3c-13.3-12.4-16.1-67.4,9.5-55.3c31.9,2.8,22.3-33.5,37.1-33.9c16.2,3.8,31.6,11.7,42.6,23.8
				c7.8,11.6,24-20.9,56.7-20.5c3.1,0,8.4,1.4,8.9,10.7c3.1,40.8,42.9,5,42,26.7c0.6,11.3,0.3,24.6-7.7,37.2
				c-5.3,10.4,29.6,17,34.6,36.5c4.5,7.1-1.2,13.3-3.6,19c-5.9,14.4-8.8,41.9-28.2,31.7c-36.2,10.6-20.4-43.1-47.5-49.7
				c-9.7,10-14.3,13.8-29.3,15.4c-14.5-2.3,11.4-25,0.5-33c-9.1-12.6-18.3-10.6-30.1-3.3c-5,2.3-9.4,11.7-8.3,17
				c-0.5,5.1,4.2,9.7,1.9,14.1c-21.5,16.5-14.8,49.8-27.3,51.9L217.9,938.8z M711.5,783.1c-17.6-3.1-33.3-32.4-23.9-46.4
				c5.7-15.6,0.4-22.4,12.2-37.7c3.4-3.7-0.6-6.9-1.1-10.5c-1.4-11.5,6.6-18.1,5.3-27.3c0.7-7.3-1.7-18.5,4.8-24.2
				c5.4-9.6-1.7-24.6,4-36c5-28.2-5-42,22.1-61.7c24.6,5.4,24,36.6,39,53.6c9.8-0.3,19.3-7.4,29.7-6c48.1,1.6-10.7,23.3,50.2,41.5
				c2.8,12.5-12.5,29.3-18.7,37.6c-2.2,2.3-2.2,6,0,8.3c13.9,13.3,24.9,46.8,8.7,63.1c-43.2-9.2-16.1,33.1-37.7,31.5
				c-16.7,0.4-28.6-8.2-41.2-16.7c-4.9-3.2-8.4,1.5-10.8,5.3C743.6,768.5,727.8,780.2,711.5,783.1z M741.6,687.2
				c12.2,4.6,29.9-11.4,26.3-23.8c-4-3.5-0.4-10.3-5.4-12.9c-5.8-5.3-9.6-7.1-17.2-6.8c-5.6-1.5-8.8,1.6-14,3.6
				c-7.4,1.8-2.8,10.3-7.7,15C719.3,670.4,731.5,689.7,741.6,687.2L741.6,687.2z M741.3,408.2c-23-2-1.6-60-4.3-75.5
				c-5.3-22.2,2.9-29.3-25.6-25.1c-12.3-1-0.8-15-3.7-21.5c-2.2-9.5-3.7-14.1-13.3-18.3c-3.1-3-6.3-3.2-10.3-3.3
				c-6-1.5-5.3-9.6-11.5-9.5c-11,2.2-18.2-16.7-28.3-11.1c-1.6,1.6-6.4,0.8-8.4,1c-14.1-4.5-33.5,12.7-39.6,0
				c3.7-14-9.6-24.9-10.1-37.6c12.1-10.4,31.8,3.2,31.1-21.7c30.7-73.3,37.8,21.4,68.8-26.4c2.3-6.8,8.8-5.8,12.8-0.6
				c11.2,10.9,5.8,33,18.3,39.3c15.3-6.1,77-23.3,61.7,12.6c-2,21.2,23.4,15.3,33,22.4c10.8,25.1-37.9,54.2-26.8,61.6
				c16.8,10,39.2,59.8,13.9,70.1c-9.2-1-22.8-7.1-29.7,2.9C756.6,385.3,777.5,407.4,741.3,408.2L741.3,408.2z M425.1,357.2
				c-44.3-22.2-86.2,10.4-71.3-20c3.2-4.4,6.3-9,2.2-13.1c-74.5-33.8,5-34.8-35.2-66.3c-4.7-4.5-15.8-13.2-11.6-19.8
				c13.2-16.8,37.6-17,53.8-21.2c4.1-13.9,3.9-46.1,21.7-51c14.7,9.2,37.1,20.3,45.8-2.3c0.4-6.5,4.7-10.2,6.4-9.3
				c19.5,3.2,24.3,28.9,38.6,37.4c14.7-17.4,96.9-18.7,75.3,11.9c-8.8,15.5-28,12.3-41.9,4.6c-10.7,6.4-11.4,21.9-23,30.7
				c-5.1,5,3.9,10.4-0.1,15.8c-3.3,6.5,2.2,15.7-3.9,21.8c-34.9,19.5-6-32.9-45.8-24.3c-7.2,1.3-10.9,8.8-13.2,14.9
				c-9.9,14.7,22,20.1,11,32.8c-12.5,12.9,4.3,15.7,9.9,25.8C457.1,338.2,439.5,357.9,425.1,357.2L425.1,357.2z"/>
			<path class="st4" d="M237.6,1503.2c-22.6,0-20.4-40.8,3.9-38.1C268.5,1464.4,265.9,1506.1,237.6,1503.2z M266.1,1429
				c-25.8-11.6-4.8-34.7-49.8-9.5c-26.6-9.4-16.3-43-16.9-61.9c-17.7-5.7-37-10.4-49.1-25.1c-9-22.7,34.6-11.3-0.5-54.7
				c9.1-20.8,36.4-14,54.6-17.9c9.3-26.9,31-53.1,46.1-79.7c4.8-13.5,69.7-91.4,26.7-81c-10.7,12.4-26.3,19.4-42.7,19.3
				c-14.7-0.7-3.4-30.2-27.3-29.3c-8-2.1-17.5,14.6-23.2,3c-21.9-26,7.5-46.3-3.3-59c-11.1-5.9-27.1-17.2-27-31.2
				c13.1-10.9,29.8-17.8,12.5-35.1c-15.8-33.8,36.8-29.4,55.9-28.2c6.8-12.9,4.2-29.8,15.9-42.1c4.1-5.1,12.5-10.6,5.9-17.5
				c-4.2-15.3,9.3-27,23.6-27c30.2,2.1-0.8,41.5,17.2,43c10.5,1.6,16.8-12.7,27-14.6c15.6,5.9,17.3,28.7,23,42.3
				c3,6.8,11.5,2.5,17.1,2.8c9.4-0.6,16,5.7,24.4,6.4c65.5-167,90.4-346.4,102-528.1c0.5-10.1,5-24-9.4-21.8
				c-13.4-3.9-47.4-16.6-29.7-30.1c35.1-20.9-24-34.8-0.2-53.2c6.9-8.2-6.8-10.5-10.6-14.8c-8.9-12-0.6-34.2,14.8-31.7
				c13.4-0.1,19.9,10.2,18.5,23.4c-1,10.6,22.8,7.4,23.1-1.5c-0.7-21.5,5.8-41.6,20.1-61.3c7.9-10.1,13.4,6.7,24.1,3.9
				c18.9,3,21.1-19.9,34.2-21.7c24.5,6.1,28.3,34.5,36.7,53.9c23.9-1.7,58.8-9.6,73.1,16.2c1.7,6.2,8.3,3.3,12.8,3.7
				c22.1,1.2,23,23.7,19.9,39.2c7.1,8.3,21.3-1.8,29.6,4.7c3.7,19.7-4.1,44.2-4.1,62.7c-12.2,111.9-16.2,229.5-43.5,338.3
				c-0.8,16.5-10.8,33.5-8.5,49c22.2,2.7,16.8,53.9,41.9,36.9c61.8-19,14.8,28.7,57.6,29.3c26.3-2,8.3,40.4-2.3,49.6
				c-3.1,3.3-1.5,7,1.2,10c29.3,61.3-8.2,28.1-18.5,41.9c-15.9,11.5,7.7,35.4-9.9,37.5c-13.9,2.2-25.9,2.5-38.1-8
				c-2.5-2.1-6.3-1.8-8.4,0.8c-0.2,0.2-0.3,0.4-0.5,0.6c-7.8,13.5-44.7,37.9-52.9,16.2c0.6-16.7-4-23.1-18.4-27.1
				c-18.4-5.4-29.1,66.5-40.1,81.6c-16.2,37.3-123.4,279.4-166.7,250.9c-9.9-0.6-35.5-13.4-33.9,5.5c-3.7,7.7-23,13.2-15,22.9
				c70.5,60.1-20.9,28.1,3.8,73.3c2.7,2.8,2.6,7.3-0.2,10c-1,1-2.3,1.6-3.7,1.9c-17.6,8-35.9,2.4-52.6-9.3
				C308.7,1383.9,298.1,1427.2,266.1,1429z M761.9,1377.2c-28.3,1.6-28-42.2-1-41.3C786.4,1334.5,787.9,1377.3,761.9,1377.2
				L761.9,1377.2z M547.1,1279.2c-26.2,3.9-28.8-36.7-4-36.3C566.8,1240.7,570.6,1278.6,547.1,1279.2L547.1,1279.2z M713.2,1124.2
				c-21.9,0-28.3-40.1-0.3-39.5C741.2,1080.6,740.5,1125.6,713.2,1124.2z M204.4,697.7c-25.9,0.2-22.6-40.9,3.3-38.9
				C233.1,659.3,233,700.6,204.4,697.7z M747.7,686.9c-33.7-0.5-28.3-40.6-2.4-43.4C772.4,643.3,773,687.1,747.7,686.9z
				 M243.4,573.5c-6.3-0.3-8.4-7.6-5.7-13.2c6.6-50.6-69.8,4.1-39.9-68.1c2.3-5.9-4.2-8.2-8.4-9.3c-20.1-9.3-34.4-24.6-43.6-46.8
				c-2-11.8,26-12.6,30.9-27.6c4.8-15.2-27.4-38,5.8-41.3c13-8.5,49.9,1.4,47.1-13.7c2.4-16.5,12.2-36.1,26.3-45.7
				c8.7,1.5,22.3,19.1,31,17.2c13,1.6,27.9-35.4,41.4-13.1c9.2,11.5,13,24.8,17.1,37.9c11.1,9.3,46-10.8,71.4,7.5
				c6,3.4,5.8,7.7,1,11.5c-45.3,51.5,62.7,36-15.9,85.9c-10,9.6,12.7,29.3,7,49c-3.6,16.9-28.1-1.5-37.4,15.1
				c-16.5,9.8,3.8,37.1-14.6,40.5c-17.3-2-34.2-4.7-46.2-18.7C299.1,533.5,286.2,573.2,243.4,573.5z M221.3,193.2
				c-32.3,0.1-29.2-47.8,0.3-48.1C252.8,144.9,253.3,194.5,221.3,193.2z M817,154.8c-33.9,0.3-35.1-52.8-0.4-51.7
				C850.5,102.9,850.2,153.5,817,154.8z"/>
			<path d="M976,195.8c6.6,24.1-19.6,25.2-19.2,7.6C956.3,191.9,971.4,183.1,976,195.8z M953.3,127.1c0.1,24.1,28.9,18,22.8-2.7
				C973.2,115.5,951.4,115.2,953.3,127.1z M961.1,760.1c-17.3-3.3-23.9,24.6-5,24.8C969.9,787.5,975.3,761,961.1,760.1L961.1,760.1z
				 M952.8,45c10.9,0.4,16.1-4.5,16.3-15c0.3-12.1-10-9.9-16.2-10.8c-9.8-1.4-10.7,6.5-10.4,13.9C942.8,40.2,944,46.3,952.8,45
				L952.8,45z M946,324.4c7.9-0.9,16-4.8,15.1-15.9c-0.8-10.3-9.5-8-15.2-7.9C934.5,301.1,936.1,324.5,946,324.4z M940.3,823.5
				c-9.2,1-8.7,10.4-9.8,19.7c-1.4,4.9,4.7,7.7,8.4,7.3C956.4,850.4,958.7,822.6,940.3,823.5L940.3,823.5z M939.7,931
				c-8.1,0-8.3,6-9,11.4c0.5,7.1,1.3,13.6,10.5,12.6c8.2-0.8,11.2-6.9,11.7-13.9C953.6,931.8,946.7,931,939.7,931z M941.8,691.6
				c16-1.5,20-29.6,1.4-28.4c-10,0.2-9.5,10.5-11.4,16.5C930.3,684.2,934.8,692.5,941.8,691.6L941.8,691.6z M924.8,102.6
				c6.7-0.8,11-6.8,10.1-17c-0.3-2.1,1.5-8.4-5.6-8.6C911.8,74.4,904.7,106.4,924.8,102.6L924.8,102.6z M917,428.8
				c-10.8,1.2-10.5,23.9,1.6,24.1C935.3,453.8,935.3,427.4,917,428.8z M913.7,1455.2c-7.4-1.3-7.5,6.1-7.4,10.2
				c0.1,5.6-0.5,13.9,9.6,11.4c6.4,1.4,10.5-2.1,10.8-7.2C927.2,1461.3,921.1,1456.4,913.7,1455.2L913.7,1455.2z M888.8,244.6
				c-1.1,18.6,25.8,14.5,25.8-1.2C918,225.6,889.1,230.2,888.8,244.6z M916.8,751.4c1.5-15.3-21.9-12.8-21.8-0.3
				C893.3,768.3,918,765.8,916.8,751.4L916.8,751.4z M912.3,1113.4c-0.6-16.4-22-16.2-19.4,0.7c-0.5,5.1,0.7,10.9,6.4,10.5
				C905.1,1124.2,913,1123.4,912.3,1113.4L912.3,1113.4z M903.9,1386.5c-8.9-0.2-19.1-0.8-16.9,13.8c0.3,7.2,4,11.2,11.9,10.4
				C909.9,1410.4,916.5,1388.3,903.9,1386.5L903.9,1386.5z M886.2,162.1c0.1,8,4.7,12.8,13.1,13c10.2,0.5,10.5-7.9,10.5-13.7
				c-0.1-8.7-8.6-9.6-14.9-10.2C887.8,150.4,886.1,156.9,886.2,162.1z M897.6,1204.7c11.8,0.3,14.3-25.7-0.1-23.9
				C878.9,1180.4,879.2,1207,897.6,1204.7z M893.6,1527.4c-7.6-0.3-13.1,4.9-10.5,13.6c-0.7,6.7-0.8,13.4,7.2,13.8
				c7,0.3,13.3-2.7,12.7-11.7C902.5,1536.2,902.2,1527.7,893.6,1527.4L893.6,1527.4z M890,30.6c15-0.4,21.7-28.6,1.5-27.4
				C875.2,4,871.5,33.4,890,30.6z M890.8,917.2c9.4-0.8,9.4-8.4,9.7-14.2c0.3-6.8-2.7-12.7-11.8-12.2c-8.8,0.5-12.6,4.7-11.8,12.9
				C876.5,913.9,881,918,890.8,917.2L890.8,917.2z M890.9,1007.1c8.2-0.9,8.2-7.6,8.1-13.8c-0.1-9.8-7.8-11.3-14.4-10.8
				c-6.5,0.5-8.2,6.6-7.7,13.3C875.8,1006,882.6,1008,890.9,1007.1L890.9,1007.1z M894.4,1304.8c1-9-6.4-11.3-12.8-10.6
				c-12.6,0.7-15.9,27.1,0.1,24.8C892,1320.2,893.5,1312.1,894.4,1304.8L894.4,1304.8z M874.7,388.9c15.4,1.8,19.4-29.3,6.6-28.2
				C861.6,359.2,855.8,387.3,874.7,388.9z M884.2,811.3c-0.1-8.3-5.1-11.6-12.3-11.2c-7.7,0.4-9,6.4-9,13.8
				C860.7,830.4,885.6,826.9,884.2,811.3L884.2,811.3z M710.2,790.8c2.9,18.9,5.8-6.5,46.3,2.4c4,0.7,7.4,3.6,5,9.6
				c-4.2,10.3,4.8,21,17.1,20.8c33.5,0.3,16.8,43.8,1.3,58.4c-3.7,4.1,4.6,9.9,7.1,15c5.7,11.1,7,23.8,3.7,35.8
				c-1.7,6.5-6.1,0.4-8.5-0.3c-7.3-2-14.9-4.4-19.7,2.9s-6.7,15.8-1.6,24.2c7.4,12.2-5.4,11.8-9.8,12.8c-15.1,3.2-30.6,4.3-42.6-9.1
				c-1.1-1.2-2-1.7-3.7,0.9c-9.1,19.3-58.7,44.6-61.7,10.1c-0.6-5,0.2-11-4.5-13.6c-16.2-8.6-14.6,8.2-16.9,14.4
				c-20.3,53.1-42.1,105.7-69.3,155.6c-1.8,3.4,2.6,4.5,4.3,5.2c13,5.2,19.7,28.8,23.5,41.4c11-21.3,23.1-41.5,31.5-63.2
				c2.8-7.3-0.7-18.5-0.5-27.9c-2.8-17.2,42-80,57.7-58.2c15.1,36.9-15.7,70-45,88c-8.4,5.7-11.9,19.3-16.5,29.9
				c-2.5,5.6-8.1,9.7-7.8,17c25-23.4,54.9-41.7,87.7-50.7c3.9-0.4,1.5-5.7,1.6-8.7c-0.2-24.4,33-35.1,46.9-14.8
				c10.6,14,4,32.8-13.1,39.3c-19.1,7.9-22-9.7-35.5-9.1c-34.4,15.1-67.6,35.4-94.1,62.4c21-1.8,40.6,1,57.5,14
				c8.4,7.7-25,28.7,9.2,38.4c15.8,4,10.6,10.5,6.7,19.1c-5.8,12.7-15.7,21.5-27.2,28c12,8,25.6,11.2,37.2,19.3
				c18.9,12.8,42.8,18.5,59.7,34.7c4.3,3.9,7.1,3.5,11.3,0.3c12.5-9.6,32-3.2,36.8,11.9c17.1,46.9-60.2,46.5-47.8,1.4
				c3.5-13.2-70.5-40.1-80.7-50.2c2.1,9.8,11.8,20.5,26.3,30.3c20.7,13.9,30.9,33.3,28.7,58.2c-0.5,5.6-0.5,14.4-7.1,15.5
				c-34.3-1.9-51.9-43.1-41.7-74c1.1-4.2-6.8-10.3-9.2-16.2c-2.2-5.4-7.9-6.7-10.4-11.5c-0.6,81.5-25.1,11-37,52.5
				c-0.6,2.2-0.3,4.8-1.3,6.7c-2.6,4.7,3.2,12.3-4.7,14.7c-24,9.2-42.5-7.9-59.1-22.9c-3.9,8.7-8,18-12.2,27.3
				c-2.8,6.1,2.5,10.3,3.9,15.2c11.5,38.2-16.6,73.6-49.2,89.9c-2.2,1.2-8.8,0.1-8.9-6.9c-0.4-14.5-3.9-29.2-2-43.3
				c2.3-16.4,11.6-30.3,24.8-41.6c19.9-14,26.7-13,33.2-40.2c-13,8.9-54.5,27.4-54.8,0.2c0.2-10.6-13.7-19.6-23.8-15.8
				c-22.8,6.6-22.3-28.3-16.5-42.4c2.3-5.1-4.4-4.9-6.9-5c-8.7-0.3-17.1-2.8-25.5-3.7c-7.1-0.7-9,9.2-15.1,12.5
				c-26.5,14.3,19,18.4,22,52.5c2.4,16.2-46.2-6.8-24.1,36c7.5,14.1-7.4,13.9-12.4,15.6c-20.2,6.9-38-1.3-54.8-12.9
				c-15.6,44.2-48,31.2-65.1,69.5c-0.9,1.7-1,2.8,2.9,5.5c31.9,24.9-18,69.3-38.5,27c-3.1-12.6,3.8-29.3,14.2-30.2
				c16.5-1.4,19.8-15.4,24.9-25.9c2.4-4.8-3.5-15.4-9.7-19.4c-19.5-9.4-30.5,25.5-47.2-3.2c-8.1-12.2-10.4-26.8-5.6-39.4
				c7.4-19.5-7.9-16.1-16.1-17.8c-9.3-2-50.3-25.7-32.8-36.5c6.9-3.3,14.9-7.3,13.6-15.8c-0.9-6.1-3.5-13.3-10.3-17.1
				c-3.6-2-5.9-6.3-4.9-9.9c9.5-18,33.2-22.1,51.9-21.7c5.6,0,4.7-9,7.9-13.4c15.3-20.9,25.7-44.8,40.3-66.2
				c14.4-21.2,25.9-44.5,38.4-67c0.8-1.5-1-4.4-1.6-6.6c-2.2,0.8-4,2.4-5,4.4c-5.6,10.5-17,13.2-26.9,15
				c-16.3,3.1-29.4,11.2-42.4,20.4c-4.9,3.5-0.3,8.7-1.8,13.5c-7.1,22.9-24.6,32.8-44.8,36.5c-7.8,1.4-16,4.5-23.4,3.2
				c-11.8-2.1-13.4-18.4-5.8-29.4c16.5-23.7,39.6-29.9,66.8-30.7c9.5-0.3,19.4-8.2,27.8-14.4c4.9-3.6-6.7-23.2-13.8-24.8
				c-6.4-1.4-11.5,0.2-16.8,3.8c-26,12.8-28.8-47-13.7-60c1.9-2.4-2.3-2-3.4-3.3s-3.4-1.3-4.9-2.4c-9.9-6.4-36.1-27.3-18.3-38
				c17.3-7.8,19.2-19.2,3.7-30.1c-19.9-14.2,19.4-20.6,14-40.3c-1.5-10.9-6.5-17.5-17-19.5c-30.4-3.2-3.4-37.4,8.2-48.9
				c5.2-5.5-3-9.8-5-14.2c-8.4-17.7-4.5-34.9,0.3-52.2c0.9-3.4,4.7-6.7,8.9-2.5c6.9,6.7,15.1,4.3,21.5,0.9
				c6.6-3.6,10.7-10.5,10.8-18c2.4-31.9,46.2-3.6,58.4,10c-1.4-10.6-31.9-90.3-42-77.2c-12,4.2-22.4,0-29.4-8.6
				c-7.9-9.7-7.3-21.4-0.5-32.4c21-23.3,58.5,1.9,42.4,30.4c-1.3,2.8,4.1,9.6,7.6,13.5c14.3,15.7,19.2,35.6,26.3,54.8
				c3.8-13,14.1-24.8,9.4-38.5c-4.3-32.5,16.1-63.6,47.3-73.1c7.2-2.2,7.9,8,8.6,13c4.4,31.3-10.2,54.5-36.1,68.9
				c-19.1,11.8-17.8,30.6-25.9,47.5c17-11.3,34.7-21.1,55.2-19.2c11.4,1.9-3.3,41.7,33.1,28.9c15.6-5.1,14.8,4.8,15.7,13.2
				c1.5,13.7,0.2,27.2-8.1,39.1c-1.3,1.8-1.3,3.5,1.3,4.1c42.1,15.2,20,49.3,43.9-33c19.1-68.4,32.2-138.6,44.7-208.7
				c12.8-71.3,15.3-144,21.6-216c0.3-3.1-1.6-1.7-2.6-2c-15.5-4.5-32.8-5.2-41.4-22.5c-50,57.6,39.1,40.5,3.8,74.1
				c-8.9,8.7-17.1,18.3-29.8,22.9c-4.7,1.7,1.9,6.1,3.3,8.5c8.3,14.7,9.3,29.9,5.2,45.6c-1.3,4.9-6.6,4.1-10.2,2.8
				c-21.6-9-35,13.6-28.6,32.5c4.7,12.4-5.1,13.7-12.4,13.7c-13.9,0-28.1,1.6-40-10c-3.8-3.6-10.3-5.2-13.5-10.7
				c-13.7,21.7-33.5,33.3-59.3,35.1c-9.7,0.7-13.2-4.1-13.9-12.8c-1.2-58.5-46.3,2.4-45.5-35c-1.5-13.2-2.4-27,6.9-38.6
				c0.8-1,0.4-1-8.5-5.2c-16.4-4.1-69.4-56.4-33.3-63.2c17.8-3.9,21.3-17.6,12.5-33.1c-9.3-16.5-12.3-14.6,14-26
				c13.3-6,30.5-2.5,43.7-7c3.8-1.8,4.5-10.6,6.2-16.4c3.6-12.5,10.8-22.7,18.7-32.9c16-20.3,28.9,29.6,49.3,5.3
				c9.2-10.3,18.4-20.6,27.3-31.1c9.4-11-4.5-14.4-8.1-19.6c-13.3-18.8-34.4-11.6-52.6-11.8c-4.3,0-8.5,8.4-13,12.7
				c-24,22-59.1,19.4-87.8,10.4c-10.6-6-9.4-18.3,0.9-25.7c45-36,86.9-2.5,135.3-6.5c-18-16.2-36.5-33.2-55.7-49.5
				c-1.4-1.2-7.1,2.4-10.7,3.9c-15.9,6.4-30.6-0.6-37-17.4c-8.3-20.9,21.5-48.1,41.2-33.2c11.4,8.8,18,19.8,11.5,35.4
				c-1.9,4.6,5,6.3,7.8,8.5c15.1,12.1,29.7,24.4,41.8,39.6c12,15.6,18.6-15.3,56.5-12.9c14.2,0.6-0.3-14,10.2-32.7
				c2.8-6.3-4.6-8.7-6.5-13.3c-4.9-12.2-17.3-10.3-26.4-13.9c-26.3-10.2-43.6-36.2-46.7-63.5c1.1-39.6,61.3,3.6,64.6,24.7
				c14,30.4-3.1,30.7,20.1,53.1c7.8-9.2,9.7-12.9,21.7-7.1c20.2,9.6,29.6,16,37.4-8.9c11.5-23,40.4,20.7,46.1,31.8
				c1.3,2.5,2.2,1.9,3.6,0.5c18.7-16.6,54-20.4,73.6-4.1c8.9,8,20.8,9.9,29.5,18c2.8,2.6,11.7-2.8,17.4-1.9
				c10.3,1.6,12.7-2.9,13.7-8.4c0.8-17.3,13-30.9,26.2-40.4c3.7-2.5,7.3,1.4,10,4.3c17.3,19.1,18.9,19.1,34.8-0.1
				c17.6-24.4,29.3,20.7,32.1,34.4c19.9-14.9,38.9-33.1,62.5-42.8c9.9-3.3,7.8-11.4,8.8-18.8c2-16.2,14.3-28.8,29.9-28.7
				c40.9-0.3,41.5,63.1-1.5,62.5c-10.3-0.5-15.5-6.6-22.2-11.5c-6-4.5-8.9,1.9-12,3.5c-18.1,9.3-34.1,22-52.9,36.6
				c19.9-7.6,36.4-5,53.5-1.9c9.4,1.7,8.5,7.1,6.8,11.7c-15.2,46.5,39.3,7.4,28.8,46.4c-1.9,15.2-8.5,28-20.3,36.4
				c-11.1,7.9-8.7,10.6-0.4,19.4c17.3,18.3,23,41.1,13.3,65.5c-4.4,11.1-13.7,1.6-20.6,2.3c-43.8-0.5,0.7,38.7-31.5,42.8
				c-6.2,2-25.5-1.3-24.7,7.3c-1.7,42.7-7.6,85.7-11.2,127.7c7.2-2.3,7.4-16.2,13.7-14.5c7.3,2.7,14.3,8.7,19.1,15.1
				c8.2,11,14.9,23.2,18.4,36.8c2.7,8,15.2-24.2,18.9-26.5c4.9-6.5,2.3-13.3,2.6-19.8c1.1-38.9,32.6-64.9,68.2-72.1
				c12-0.3,16.3,7.2,13.1,21.3c-7.1,30.6-27.1,49.3-55.9,58.6c-19.3,6.2-24.2,23.4-32.8,38.1c-0.1,0.2,1.5,1.9,1.8,1.8
				c12-5.3,23.9-1.3,35.7,0.4c17.8,4.1-11.2,28.2,20.2,33.8c29.1,5.4,4.7,37.2-6.5,49.6c-1,1.2-1.7,1.9-0.4,3.2
				c14.8,10,29.7,64.2,8,70.4c-2.5,0.8-3.7-0.6-5.4-1c-8.9-2-18.6,5.7-19.6,15c-0.6,5.7,3.6,13.3-2.6,16.6
				c-19.5,8.9-41.5-4.8-56.9-16.3c-2.1-1.5-2.1-0.6-3,0.6c-11.4,15.5-26.2,26-45.1,30.4C712,787.6,708.1,788.5,710.2,790.8
				L710.2,790.8z M804,536.6c9.2-11.5,37.2-54.6,52.2-51.4c2.4,2.1-0.7,4.5-2,5.6c-16.4,13.5-28.5,30.7-40.7,48.1
				c29-8.4,57.6-34.8,54-67.5c-4.5,0.8-9.7,0.3-13.4,2.5C828,486.9,803.8,505.4,804,536.6z M794.3,130c2.8,27.2,41.8,27.1,44.7-0.6
				C838.7,100.2,793.4,99.7,794.3,130z M347,133.4c-5.9-20-16.2-36.9-36.2-45c-4.8-2-13.9-11.4-17.9-0.2
				c1.7,23.2,20.2,50.2,39.9,56.8c3,2.2,9.1,2.5,4.8-2.1c-9-10.2-18-20.3-26.8-30.7c-1.1-1.3-5.1-1.8-2.3-5.5
				c4.4-8.6,28.5,20.7,31,25.6C341.7,135.6,349.2,143,347,133.4z M221.5,149.1c-24.5,1-27.7,39.5,0,40.1
				C248.8,189.3,247.5,149.3,221.5,149.1z M249.6,251.8c-6.6-1.3-13.8,3.2-20.6,2.8c-13.2,0.6-25.3,5.8-38.2,7.3
				c-1.7,0.2-3.8-2.2-5.7-3.4c1.6-1.1,3-2.9,4.8-3.3c17.5-4.4,35-8.6,52.6-12.9c0-0.4-0.1-0.8-0.1-1.2c-27.7-3.5-53.3-3.8-76.2,14.4
				c-2.4,1.7-3.6,5.3-4.9,8.3c-0.2,0.4,3,3.3,4.2,3.1c7.3-1.7,13,3.5,20.1,3.9C208.1,271.5,235.5,272.4,249.6,251.8L249.6,251.8z
				 M280,715.8c11.4-9.6,12-28.5,26.3-35.4c2.4,11.4-15.6,30.1-18.8,42.2c18.9-9.8,41.2-43.8,27.7-64.9
				C293.9,669.6,280.5,691.4,280,715.8L280,715.8z M222.7,679c-0.3-22.1-32.8-20.7-32.3,0C188.4,699.1,223.7,698.3,222.7,679z
				 M196.4,1146.5c-14.8,10.1-29.1,20.1-43.7,29.6c-2.6,1.7-6.8,6.1-9.6,1.6c-4.5-8,33.5-24,37.7-31.7c-16.7-4.1-40.1,12.4-45.4,28
				c-1.2,3.7-6.6,7.1-3.6,10.7c3.9,4.6,10.3,2.8,15.4,1.7c8.8-2,17.3-5,26-7.3C182.3,1176.6,197.7,1156,196.4,1146.5z M241.4,1469.2
				c-19.8-2.1-21.8,31.4-2,29.9C261.1,1500.3,262.5,1468.1,241.4,1469.2L241.4,1469.2z M521.7,1392.4c-5.6,10.2-21,65.9-29.5,62.1
				c-7.8-2.6,18.3-51.2,18.3-61.3c-29.5,15.9-33.3,48.5-27.5,77.9c0.5,2.5,1.9,2,3.2,1.2C509.7,1455.8,533.9,1427.5,521.7,1392.4
				L521.7,1392.4z M699.2,1394.6c1.3,0.4,3.6,1.5,3.6-1.4c0-20.2-1.9-39.6-21.8-52.7c1.6,6.8,16.2,32.3,10.9,34.4
				c-2.2,1.1-4.4,0.4-5.8-2.6c-5.9-11.2-10-24-17.7-34C660.8,1358.7,679.8,1388.3,699.2,1394.6L699.2,1394.6z M744.5,1358.8
				c0.5,18,32.5,19.9,32.3-1.1C778.7,1332.8,741.2,1335,744.5,1358.8L744.5,1358.8z M698.3,1102.2c-0.7,23.6,32.6,23.7,32.1,0.2
				C729.7,1082.7,697.1,1084.4,698.3,1102.2L698.3,1102.2z M619.3,1092c0.6,1.4,3.7,5,3.7,0.6c6.1-10.4,12.1-20.9,18.3-31.3
				c1.3-2.1,3.2-4.9,6.4-2.3c2.9,2.4,0.6,4.4-0.5,6.8c-5.3,11.4-10.5,22.8-17.9,33.2c-0.5,0.7,0,2.2,0.1,3.4
				c15.4-6.5,35.9-38.9,35.2-56.9c0.3-12.8-3.3-15.3-7.4-13c-18.8,10.9-29,28.2-35.8,48.1C620.2,1084.3,622.8,1088.7,619.3,1092z
				 M589.8,210.8c5.8,10.4,12.1,20.5,10.2,33.2c0.4,1,1.1,1.9,2,2.6c12.2-6.3,25.5-5.7,39.5-5.7c-5.8-6.9-18.6-14.7-19.9-21.7
				c2.1,1.2,2.8-3.5,5.6-1.1c14.5,11,26.8,25.4,43.4,33.1c2.3-8.4-12.5-52.2-2.5-52.5c0.9-0.1,2.6,0.4,2.7,0.9
				c4.2,18.8,6.8,37.9,10.7,56.8c1.1,3.9,6.1,7.3,5.8,0.9c4.7-11.6,9.3-23.2,13.8-34.9c1.1-2.9,3.2-4.1,6.3-3.4
				c2.8,0.6,2.2,3.1,1.7,4.4c-4.1,11.9-8.2,23.8-12.7,35.6c-0.8,2-2,4.6-0.4,5.2c3.2,1.1,5.7,5.8,9.6,3.3
				c15-9.7,29.7-19.6,44.6-29.5c4-3.8,10.4,2.5,5,5.7c-13.2,9.1-26.4,18.2-39.2,27.8c-2.3,1.7-7.7,2.5-6.2,6.4
				c0.8,2.1-0.5,7.3,4.3,6.9c9.3-0.7,18.7,1.5,28.1-1.5c4.1-1.3,10.1,0,12.9,4.3c4.6,6.9-33.4,4.8-37.6,5.2c-7-0.3-7.8,4.3-7.8,8.2
				c0,4.9,4.6,1.5,6.9,1.7c5.4,0.6,10.8,0.6,16.1,0.1c6.9-0.6,6.5,3.1,6.5,8.3c-5.2,31.3,19.4,24.9,12.6,36
				c-5.3,5.8-6.9-5.3-11.9-5.6c-1.3,15.1-2.8,30.3-3.8,45.5c-0.5,8.5-5.5,20.8,12.3,15.9c5.2-1.4,13.8-4.4,13.4-6.3
				c-1.9-11-3.4-21.9,4.3-31.7s19-7.7,27.5-5.3c11.9,3.4,11.2-3.3,11.5-9.9c1-23.6-7.1-42.8-27.8-55.8c-3.9-2.5-3.2-6.4,0.5-8.9
				c13.8-9,24.3-20.8,28.8-36.8c1.8-6.4,8.5-17.4-8.9-15.1c-13,1.7-26.7-15.2-22.3-25.3c2.8-6.4,6.5-12.1-5-14.2
				c-16.9-3.1-32.6,1-48,6.6c-12.3,9.4-12.9,9.1-15.3-6.9c-3.4-12.1-4.5-28.1-15.9-35.5c-13.6,25.6-31.6,24.9-47.6,2.2
				c-2.2-2.4-2.2-1.6-3.8-0.4c-27.6,22.4-14.1,44.9-29.9,46.2C605.8,207.4,588,205,589.8,210.8z M703.8,295.5
				c-2.4-14.5-6.7-21.9-18.3-22.3s-17.7,6.4-17,17C667.4,309.2,702.3,311.1,703.8,295.5L703.8,295.5z M414.9,360.9
				c-18.4-9.4-37.3-9.5-57.1-5c-4.4,1-10.6,13-14.8,0.3c-34-106.3-30.4,6.5-77.5-37.9c-3-2.8-9.2-7-9.9-6.4
				c-9.7,9.5-15.3,21.6-21,33.9c-3.5,7.5,4.2,24.6-17,20.1c-10.6-2.3-23,3-34.5,5.3c-30.5,2.9,7.3,24.6-3.3,39.6
				c-6.9,10-16.5,17.6-28.6,21.1c-1.4,0.4-2.6,0.9-1.9,2.7c22.1,53.4,60.7,40.2,53.2,56.3c-5.9,12.9-15.3,47.1,9.4,39.9
				c18-5.4,36.4,15.2,29.4,31.2c-1.9,4.3-0.1,8,2.5,7.5c21.4-3.8,41.8-9.3,54-30.2c3.4-5.8,8.7-7.4,15.4-1.6
				c9.1,7.9,19.1,17.4,31.9,15.1c4.4-0.8,18.9,10.1,15.7-7.8c-8-22.5,18.3-44.6,38.2-37.6c13.2,4.4,2.2-36-2.9-40.5
				c-10.8-16.9,18.6-16.7,31.5-41.6c6.3-7.6-16.1-7.1-22.4-23.2C393.6,376.3,424.5,364.1,414.9,360.9z M439.2,347
				c4.5-3.9,8.1-9.9,3.6-16c-3.8-5.2-7.8-14.3-14.7-10.9c-12.7,5.7-8.8,21-16.9,18.7c-2.1-0.6-3-2-1.7-4.1
				c6.9-11.9,13.9-23.8,20.6-35.9c1-1.8,4.7-4,1.5-6.6c-1.5-1.2-2.7-4.6-6-2.4c-12.9,8.8-25.8,17.5-38.7,26.2
				c-2.1,1.5-4.3,1.8-6.2,0c-5.3-8.1,36.6-27.1,39.9-34.8c0.3-0.5-1.8-3.8-2.8-3.8c-15.9-0.4-31.7-0.6-47.6-0.5
				c-3.4,0-6.3-0.2-8.8-2.4c-9.9-11.1,48.4-3,54.2-5.4c4.5-0.1,3-4.3,5-5.9c0.8-0.6,0.7-3.7,0.6-3.7c-10.7-2.4-18.6-10.2-28.3-14.5
				c-2.5-1.1-5.8-1.6-6.2-5.2c-3.5-14.8,30.9,10.3,35.1,12.8c0.8,0.5,3.3,3.3,5.4,0.6c1-1.3,3.4-3.1,3.1-3.7
				c-5.3-12.4-7-25.8-10.6-38.7c-0.9-3.3-2.6-7.1,0.8-8.6c7.4-4,11.5,30.6,14.2,36.1c0.8,2.9,1.3,5.9,2,8.9
				c0.9,3.8,12.4,0.6,13.7-3.8s8.9-31.2,14.1-28.8c3.9,1.3,2.9,4.7,2,7.1c-1.3,7-14.6,27.2-8.4,31.7c1.1,0.7,3.1,1.8,3.6,1.3
				c14.8-11.6,29.2-23.5,36.7-41.4c2.4-5.6,6.5-9.4,11.2-12.7c0.5-0.3,3.2,1.3,3.7,2.5c3.4,7.6,10.4,7,16.7,8
				c10.5,1.2,14.8-7.1,20.3-13.3c0.2-0.2,2.7-2.8,0-4.8c-20.4-15.8-54.3-14-73,4.2c-2.8,2.7-6.9,3.2-7.8,0.4
				c-7-15.1-16.5-31.9-32.1-39c-3.8-1.5-2.1,6.7-4.9,9.7c-2,2.2-3.4,5-5.5,7.1c-8,8.4-23.6,7.8-35.1-0.2c-3.6-2.5-7.8-10.3-13.6,0.2
				c-7.6,13.8-11.1,27.8-9.7,43.2c0.2,2.3,0.6,4.9-3.2,4.5c-19.9-1.3-40.2,3.3-54.1,18.2c3.7,4.5,6.6,10.3,11.2,13.3
				c16.9,10.8,18.8,27.4,3.7,40.3c-2.8,2.4-3.1,3-1.4,4.1c6.6,4.3,11,10.9,18.6,14.5c10.4,5,26.6,8.7,13.1,26.2
				c-2.1,2.8-3.1,6.4-1.3,8.5c1,1.1,5.6-0.5,8.4-1.4C402,332.7,420,365.5,439.2,347z M482.8,252.5c2.9-10.3-18.3,9.5-18.8,13
				c2.4,4.5-0.2,11.3,6.4,11.3C489,276.6,476.8,259.7,482.8,252.5L482.8,252.5z M440.9,256.6c-9.6,0.8-11.9,7.3-12,16.7
				c-0.9,9.2,6.8,12.5,14.1,12.7C463.4,287.5,462.6,253.5,440.9,256.6L440.9,256.6z M472.8,377c6.8-71.1-17.8-62,52.4-61.9
				c6.3,0.3,2.2-6.2,5.7-7.3c-1.9-7.4-30.3-10.3-29.7-19.2c0.5-3.8,4.1-1.6,6.2-1.6c10,0,17.3,7.1,26.1,10.4
				c4.7,1.8,6.7-3.5,10.6-3.1c-2.9-15.3-4.8-30.8-7-46.2c-0.2-1.5,1.8-3.4,2.7-5c6.5,6.2,8.7,35.2,11,45.6c1,7.8,8.1,2.2,10.6,6.3
				c1.2,1.9,2.7,0.6,4-1.4c5.5-8.3,9.7-17.5,17.6-24c1.5-1.3,2-5.3,5-3c2.8,2.1,2.2,6.5,0.3,8c-7.5,6.1-10.4,15.5-16.6,22.6
				c-2.7,3.1-0.6,7,1.3,10.4c1,1.8,1.3,0.1,2-0.1c14.6-5.6,29.2-11.3,44-16.4c2.9-1,6.6,0.5,9.9,0.8c-1.7,2.3-2.9,5.8-5.1,6.7
				c-10.4,4-21,7.1-32.3,10.9c22.5,2.5,47.8-2.5,71.3-2.6c2.6-0.1,1.9-0.5,0.7-2.4c-6-9.4-8.1-18.7-1.2-29.3
				c1.8-2.8,12.2-5.1,3.2-13.2c-17.1-15.4-36.3-12.2-55.9-9.5c-29.2,12.7-4.4-17.6-37.1-47.9c-5.2-4.9-12.3-9.7-17.7,2.1
				c-6.8,14.8-31.6,19.2-43,8.3c-2.4-2.3-2.8-0.9-3.9,0.5c-13.6,18.7-20.9,39.3-19.1,62.8c0.1,1.4,3.3,4.9-3.4,5.6
				c-16.5,1.6-32.6,5.8-44.7,18.9c-3.9,4.2-5.7,8-3,10.3c5.8,5.2,13.7,8.9,15.3,17.7c2,11.3-0.9,20.5-12.4,25
				C426.5,360.9,469.6,383.4,472.8,377z M544.1,302.8c-5.2,1.1-6,5.5-6.6,8.4c-0.6,3.2,3.8,1.5,5.8,1.5c7.7,0.3,15.5,0.1,23.4,0.1
				C561.3,304,554.2,300.6,544.1,302.8L544.1,302.8z M175.2,907.3c6.8,8.4,2.5,18.4,4.1,26.4c9.2-4.5,18.6-3.9,27.5-1.2
				c27.3,9.8,1-11.5,35.3-48.1c-12.8,5.8-23.9,11-35.2,15.8c-3.3,1.4-7.3,3.2-10.1-1c-1.1-1.6-0.4-3.3,1.7-4.2c13-5.9,26-12,39-17.9
				c4-0.9,2.1-3.7-1.1-4c-11.7-1.4-23.4-2.7-35.1-4.1c-3.1-0.4-4.9-2.6-5.5-5.5c-3.4-5.9,36,1,40.4,0.5c2.8,0.3,4.8,0.7,6.1-2.5
				c1.4-3.3-0.7-4.6-2.7-6.5c-8.6-7.8-16.9-15.9-25.4-23.8c-2.6-2.4-1.3-5.2-0.8-7.7c0-0.3,4.5-0.7,5.1,0.2
				c6.1,8.5,15,13.8,22.4,20.6c3.7,3.4,5.4,10.6,12.6,6.4c8.2-4.3,2.5-28.2,3.5-36.8c0.5-4.2,6.6-11,7.9-2.2c0.5,9.5,1,19.1,2,28.6
				c0.2,2.1-2.3,5.6,2.6,6.7c4.4,1,7.4-1.3,9.2-3.9c7.8-10.5,16.7-19.9,26-29c2.2-2.1,4.9-0.2,4.2,2.4c-5.8,14.2-20.2,23.1-27,36.3
				c1.8,11.7,39.1-8.4,49.3-2.8c-2.6,7.2-16.1,8.6-22.9,10.6c-7.4,1.5-17.7,0.1-20.8,6.9c-2.7,6-2.1,13.9-7.7,20.7
				c10.1-3.4,21.3-0.1,23.6-14.4c0.2-1.3,2-6,4.6-6.3c11.9,6,19.1,18.7,25.2,30.8c4.3,9.4-1.6,29.9,21,23.5c0.5-0.1,1.4,1,1.7,0.8
				c4.9-2.4,10.8,6.3,14.2,0.3c5.1-9.3,9.1-19.1,11.9-29.2c1.5-5.2,7.6-9.8,4-15.9c-15.5-32.3-46.4-21.8-35.2-39.7
				c7.5-11.1,8.4-23.2,7.7-35.8c-0.2-2.9,1.4-6.4-4.9-3.7c-18.5,8.2-36.2-3.1-37-23c-0.2-4.6-1.4-7.8-7-6.6
				c-45.6,5.5-40.4,34.4-54,22.3c-8.9-8.4-17.6-18.2-30.2-21c-35.3-18.4,0.6,23.7-49,29.3c-4.2-0.1-11.8-6.2-13.2,1.1
				c-12.9,47.7,18.5,49.1,9,57.8c-12.1,9.6-20.6,23.1-24.2,38.1C158.8,896.6,168.5,898.3,175.2,907.3z M275.7,861.3
				c-3.4-7.1-10.5-5.1-15.3-3.8c-8.2,2-15.5,10.8-12.6,20.7c1.1-0.3,2.7-0.3,3.4-1.1c9.1-9.6,13.8-2.6,18.7,4.7
				c1.1,1.6,3.2,5.3,4.6,3C279,877.7,279.5,868.8,275.7,861.3L275.7,861.3z M286.5,1093.1c0.6,0.9,1.3,1.8,1.9,2.6
				c7.8-13,15.2-26.3,22.4-39.7c2.8-5.3,7.8-12.2,6.3-16.3c-2.4-6.3-9.6-10.8-14.5-16.3c-3.7-4.2-7.2,0.3-10.8-0.1
				c-5-2.1-3.4,39.6-4.7,45.2c-0.1,2.6-1.5,4.1-3.9,4.3c-3,0.2-1.9-2.4-2.3-4c-3.3-13-0.9-26.1-0.1-39.1c0.1-2.1,2.2-5.5-1.7-6.7
				c-3.7-1.2-5.6,1.7-7,4c-7.4,12.3-16.5,23.3-26,34c-1.4,1.6-2.5,5.5-5.6,3.1c-2.6-2-2.4-5.1-0.4-8c9.6-13.4,19.3-26.8,30.4-42.5
				c-16.8,5.2-30.1,11.4-46.3,17c-2.2,0.8-5.9,1.4-7-1.9c-1-2.9,2-3.3,4.1-4.2c12.7-5.3,25.4-10.6,38-16.1c5.3-1.7,4.3-8.6-1.5-7.5
				c-16.7-1.4-33.4-2.6-50-4.3c-2.9-0.3-6.9-1.8-6.7-5.3c0.2-4,4.4-2.8,6.9-2.6c16.9,1.2,33.8,2.6,50.7,3.9c6.5,2.1,8.5-5.7,3.8-9.5
				c-8.4-7.6-16.6-15.3-24.9-23c-2-1.9-7.2-3.1-3.9-6.8s7.6-1,10.7,1.8c8.4,7.5,17.1,14.7,24.9,22.8c4.5,4.7,6.4,0.4,9.4-1.1
				s2.5-3.7,2.4-6.5c-0.9-16.4-1.5-32.8-2.3-49.3c-0.9-5.5,7.7-5.3,7.9-0.7c1.6,17.1,3.4,34.2,3.8,51.3c0.1,3.9,2.5,3.2,3.7,4.6
				c1.7,2,3.2-0.7,3.8-1.6c7.1-11.6,13.9-23.4,21.2-35c3.2-9.4,11.6-4,6.7,3.8c-6.9,12-14,23.9-20.9,35.9c-5,3.8,2,7.2,5.8,4.2
				c5.2-3.7,10.9-6.8,16-10.5c17.1-10.5,36-17.5,41-39.5c-6-1.7-11.4-4.5-18.5-3.8c-27,7-17.5-21.8-30.9-37.7
				c-3.3-4.4-4.7-12.8-13.7-3.1c-13.6,14.6-29.6,12.8-42.8-1.9c-0.9-1-2.9-2.3-3.9-2c-19.4,8.2-27.4,29.4-29.7,48.9
				c-0.6,3.8-0.5,11.7-7.1,10.5c-15-2.9-29.5-6.2-44.7,0.2c-8.6,3.7-13.3,13.1-7.7,19.4c13,14.4,11,25.3-5.7,35.4
				c-2,1.2-7.5,2.3-5.9,6c4,9.3,12.2,15.1,19.8,21.5c34.7,11.2-15.8,22.2,9.7,62.2c1,1.4,1,4.9,4.4,2c13.4-11.3,29.8-6.6,37.9,9.3
				c2.4,4.8-2.6,13.9,5.2,13.9c17.1-0.2,31.7-7.5,42.4-21.3C280.6,1088.4,283.3,1088.3,286.5,1093.1L286.5,1093.1z M343.1,991.6
				c2.7-8.2,6.8-16,10.7-25.2c-14.1,8.8-27.3,16.8-40.4,25.1c-1.3,0.9-2.1,2.4-2.2,3.9c0.1,2.7,2.5,1.3,3.9,1.4
				C325.1,995.8,338.3,1005.8,343.1,991.6z M332.5,1007.1c-7.6,0.5-19.5-5.7-23.2,1.4c-6.2,13.1,10.4,14.8,12,24
				C322.9,1029.4,338.8,1006.9,332.5,1007.1L332.5,1007.1z M288,983.8c-19-1.7-21,28.7-4.1,31.1C308.3,1017.9,308.2,985.1,288,983.8
				z M387,1285.8c-12-1.8-27-6.8-37.8-3.4c-15.8,6.9-29.9,17.4-45,26.1c-2.4,1.4-2.6,1.8-1.6,4.2c1.2,2.9,2.2,1.2,3.9,0.9
				c10.6-1.8,21.3-3.3,32-4.5c1.4-0.2,3,1.9,4.5,2.9c-6.7,5.4-23.8,8.1-32.8,8.2c-4.4-0.2-5.3,2.8-5.6,6.6s3.1,3.1,4.4,3.7
				c10.9,4.5,22.1,8.2,33,12.8c2.2,0.9,3.3,4.5,4.9,6.9c-9,2.2-30.2-9.5-40.7-12.2c-2.7-1-4.8-3.6-7.5,0.6
				c-7.1,8.8,7.1,19.5,9.9,28.6c3.1,6.2-1.4,11.6-5.9,3.7c-8.6-7.3-6.6-27.2-26.1-21.7c-3,0.9-5.6,0-6.8,4.1
				c-3.5,8.5-6.4,29.4-14.4,33.2c-8.3-1.8,6-28,7.2-33.9c1.7-5.2-1.7-11.1-5.1-10.2c-9.7,0.7-36.4,17.9-41.9,11.2
				c-1.2-1.3-1.6-3.6,0.8-4.6c10.8-4.1,21.6-8.1,32.3-12.2c1.4-0.5,5.5,0.3,3.9-1.3c-3.8-3.8,2.1-11-4.6-12.2
				c-6.7-2.6-40.8-1.5-39.1-9.3c0-3.9,3.3-5,5.6-4.8c10,1,20,2.6,29.9,4.7c3,0.7,6.4,2.3,7.9-0.1c1.3-2.1,3.5-5.5-1.5-8.8
				c-4.2-3.2-36.3-24.9-24.8-28.4c9.7,4.2,16.8,14,25.7,19.9c3.3,2.5,5.9,8.2,11.8,4.4c3.3-1.3-2.5-5.6-2.4-8.3
				c-5.9-32.8-34.2-20.7-58.9-26.8c-16.5-2-32.7-2.5-46.4,9.2c-2.5,2.1-3,3.2,0.2,6.1c32,35.2-11.9,40-2.6,48.7
				c12.2,12.2,28,21.3,45.9,21.5c15.5,0.1-8.3,37.3,8.1,55.9c3.6,5.3,7.2,13,16.4,4.3c11.5-11,28.3-9,33.9,4.2
				c6.9,26.9,48.2-14.6,51.5-26.7c1.5-6,3.8-12.1,11.6-7.4c15.3,10.8,33.5,19.9,52.3,11.4c2.7-1.2,5.3-1.3,2.3-6
				c-10.7-16.4-4.3-30.7,14.6-36.4c2.7-0.8,10.2,0.4,8.5-4.1c-5.5-14.8-17.4-25-29.5-34.6c-1.9-1.5-5.7-1.7-5-4.8
				c0.7-2.7,2.5-4.9,4.9-6.3C376.2,1297.4,381.5,1291.7,387,1285.8L387,1285.8z M278,1305.1c-25.3-0.2-24.8,38.1,3,36
				C301.7,1340.9,300.1,1304.3,278,1305.1L278,1305.1z M291.2,1299.9c2.1,1.9,4.7,4.6,7.3,2.6c11.8-9.3,25.9-14.6,38.8-22.8
				c-8.1-0.9-15.5-2.2-22.9-2.6c-7.3-0.4-16.7-7.9-20.7,5.1c-1.3,4.3-1.3,9.1-3.2,13.1C289.3,1297.8,289.5,1298.5,291.2,1299.9
				L291.2,1299.9z M288.9,1275.5c-7.5-5.8-17.2,0.8-24.1-4.8c-11.4-0.8,7.1,29.8,13.8,25.8C287.7,1293.4,283.7,1281.8,288.9,1275.5
				L288.9,1275.5z M545.9,1142c-14.4,19.6-22.1,43.9-37.7,62.9c-2.1,2.8-6.4,6.8-3.5,9.9c8.2,8.8,17.6,16.6,26.3,25.1
				c3.1,3.1,4-1.2,6.2-0.9s2-1.3,1.8-2.7c-1.9-14.9-4-29.9-5.7-44.8c-0.8-2.8-1.5-7,2.9-6.6c4.1-0.1,4.7,3,5,6.3
				c1.7,15.1,3.4,30.1,5.3,45.2c0.1,1,2.3,2.1,3.8,2.6c3.1,2.3,11.9-24.8,15-28.8c0.5-1,2.7-1.5,4.2-1.6c7.2,12.2-16.9,27.8-6.1,40
				c0.7,0.5,1.6,0.7,2.4,0.4c12.4-5.7,24.8-11.6,37.2-17.3c2.4-1.1,4.9-1.7,6.8,1.4c1,1.7,0.9,3-0.7,3.7
				c-12,5.5-24.2,10.8-36.1,16.5c-2,1-6.3,0.5-5.6,4.4c-0.1,7.7,30.8,8.5,38,13.6c16.3,14.6-36.5-4.2-40,1.1c-1.3,1.7-3,5.3-2.3,6.1
				c9.7,11.1,19.8,22,29.8,32.8c1.4,1.5,3.8,3.6,1.4,5.2c-1.6,1-5.6,0.9-6.8-0.4c-9.7-10.1-19.3-20.4-28.3-31c-3.9-4.6-6.7,1-10,0
				c-3.6,0.6-0.9,16.2-1.7,20h-0.2c0,3.7,0.2,7.3-0.1,11c-0.1,1.8,1.6,4.9-2.2,4.8c-2.8-0.1-3.5-2.2-4-4.8c-1.9-9.4-2.2-19.1-1-28.6
				c0.5-3.9-5.4-3.2-7.7-5.7c-1-1.1-2.1-1-3.3,0.4c-8.5,9.3-17.3,18.3-25.4,28c-1.9,2.2-2.9,6.2-5.9,4.1
				c-8.2-7.1,27.2-31.3,25.2-40.6c-0.5-3.2-2.9-0.8-3.9-0.6c-10.3,1.7-38.1,14.2-45.5,10.7c-2.7-8.8,33.9-15.3,40.7-18.9
				c3.1-1.1,5.1-2.4,4.9-6.1c-0.2-2.1-0.5-3.5-3-3.7c-8.9-0.4-17.7-2-26.1-4.9c-7.2-2.6-13.2-1.3-17.5,6.8
				c-11.8,20.6-36.7,35.8-31.1,62.8c0.5,2.8-0.4,9.8,4.9,8c12.4-4.3,29.2,1.9,35.1,13.3c2.7,5.1-0.5,14.7,6.4,15.2
				c13.7,0.9,27.2-3.4,37.9-12c21.4-18.9,25.4,22.8,59.9,23.9c12.5,3.1,9.8-12.3,11.5-20.6c1.3-11.7,18-21.2,28.3-15.8
				c10.6,6.2,8.8-35.7,4.7-40.8c-1.2-3.1-5.8-4.5-3.9-9.6c3.5-9.2,13.1-10.4,19-16.5s11.4-12.4,13.1-20.8c0.2-1-7.4-3.4-11.4-5.2
				c-10.6-4.5-14.4-15.9-10.9-26.4c1.4-4.2,9.5-10.9,1-14.8c-16.1-7.4-33.1-11.3-50.7-3.8c-7.5,3.2-11.6,0.4-13.3-7.6
				C569.6,1173.4,561.4,1142,545.9,1142z M521,1248.3c1.6,0.3,2.8,1.5,4.2-0.7s-0.4-2.5-1.3-3.5c-7.4-7.1-14.9-14.1-22.1-21.4
				c-1.7-1.7-2.7-2.5-4.1-0.2c-4,6.8-11.7,11.1-13.1,19.1C496.5,1243.8,508.7,1246,521,1248.3z M544.6,1275
				c19,2.6,19.4-27.6,0.3-28.1C525,1244.7,523.9,1276,544.6,1275z M632.7,906.3c23-79.6,44.5-159.4,62-240.3
				c9.7-54.1,13.8-109,20.1-163.5c6.2-61.1,11.1-122.3,17.7-183.3c0.3-2.7-0.1-4.5-3.7-4.2c-78,3.8-157.3,8.8-235.3,7.2
				c-5.6,0-9,0.4-8.8,4.9c-1.6,87.6-7.1,175.7-19.6,262.4c-19.6,114.9-41.9,230.6-81.2,340.5c-42.6,110.6-104.9,212.4-167.5,312.5
				c-6.6,9.3-12.4,16.8,6,14.3c66.6,2.8,132.8,11.7,199,19.2c8.7,1.6,20.4,7.3,27.7-4.9c16-27.1,37-51,53.4-77.8
				C558.3,1103.8,600.3,1006.5,632.7,906.3L632.7,906.3z M722.5,651.5c-0.5-5.7-8.9-12.5-10.7-11.6c-6.5,3.3-0.7,11.7-4.2,17.7
				c-1.7,3,3.5,3.3,7.3,3.4C722.1,662.6,722.8,655.2,722.5,651.5L722.5,651.5z M717.3,669.4c-3.8-0.1-9.3-2.6-11.3,1.9
				c-2.3,5.3-3.2,11.5-3.3,17.4c0,1,3.4-2.6,5.5-3.7c4.9-2.5,10-4.8,13.7-10.1C720.1,672.6,718.7,669.4,717.3,669.4L717.3,669.4z
				 M672.3,860.1c0.4-0.8-6-7.8-9.4-7.9c-4.5-0.1-2.5,7.1-6.5,10.9C662.4,860.9,668.6,866.2,672.3,860.1L672.3,860.1z M662,870.7
				c-12.5,0.6-7.2,11-10.7,16.4c-0.8,1.2-4.4,3.6-1.2,5.6c7.6-0.4,14.6-9.2,21.1-13C668.5,875.7,669.7,870.3,662,870.7z
				 M709.5,808.4c-4.1,0-7.7-2.6-10.1-10.4c-3.7-10.3-8.9-20-15.6-28.8c-9.2,21.6-12.1,46.1-18.6,68.8c-1.7,7,5.9,8.6,9.1,12.7
				c2.5,3.1,8.1,2.5,9.3-0.1c0.2-10.1-5.4-22.2-6.4-32.8c-1.8-6.8,6.6-10.3,7.6-2.4c3,6.6,4.8,32.2,10.8,33.5
				c4.5,1.1,3.8-3.1,4.5-4.9c3.5-4.9,5.5-27.3,12.4-24.8c7.2,0.5-4.8,25.3-5.4,30.8c-0.6,1.8-1,2.3,1.2,3.3c1.6,0.7,1.9,1.3,3.7-0.1
				c7-5.4,14.1-10.7,21.5-15.6c7.4-4.4,14.5,2.1,4.5,6.5c-3.3,3.8-25.5,16-22.3,19.9c1.3,2.4,2.1,5.1,6.2,5.1
				c6.7-0.4,13.5,0.7,20.2,2c8.4,1,10.3,11-0.2,7.7c-6.8,0.1-13.7-1-20.3-2c-4.4,0-5.4,3.3-7,7.5s2.1,4.5,3.3,5.8
				c6.9,8.6,16.8,14.9,22.3,24.5c-15.3,2.9-21-20.7-35.3-21.5c-1.2,0-3.5,2.4-3.4,3.4c1.3,9.9,2.9,19.8,4.8,29.6
				c0.5,2.5,2.7,5.3-0.6,6.6c-13.7,3.8-3.9-38-19.1-36.8c-1.7,0-4.3,4.5-4.8,7.3c-1.5,8.3-6.5,14.8-10.4,21.8
				c-1.7,3.1-4,3.2-6.5,2.6c-6.4-0.4,9.5-25.2,10.2-29.8c1-2.3,4.7-3.9,2.6-7.3c-3.2-5.2-6.7-1.1-8.8,0.6
				c-7.6,6.1-19.3,7.5-23.5,17.1c-4.5,10.3-6.9,21.5-10,32.3c-10,15.8,19.2-2.1,17.9,37c0,2.1,0.4,3.7,2.7,3.9
				c17,1.7,39.1-11.3,45.4-27.2c3-7.7,6.3-2.7,8.7-0.4c8,7.6,16.7,12.8,27.1,10.9c3.8,0,7.1,1,9-0.3c2-1.3,9.3,1.7,5.5-6
				c-9.6-18.9,7-45,28.7-33.8c1.8,0.9,2.8-0.1,3-2.4c1.1-9.2-1.5-17.4-5.2-25.8c-22.4-26.9,11.3-14.2,9.2-60.1
				c0.8-10-27.7,7.3-35-23.7c-1.1-4.5,4.3-10.5-0.2-11.1C727.1,796,729,803.4,709.5,808.4L709.5,808.4z M694,888.5
				c22.4,0.1,17.5-35.5-3.8-31.9C672.8,859,674.3,888.6,694,888.5z M719.1,777c11.8-5.7,23-12,32-22c3.2-3.6,5.2-12.5,11.4-8.8
				c13.2,8.2,26.4,19.5,43,18.8c12,0.3,4.2-8.4,5.1-12.3c3.7-15.9,17-24.7,32.1-19.5c2.1,0.7,1.8-0.5,2.1-1.5
				c4.9-20.4,2.6-39.1-12.8-54.8c-2.8-2.8-7.8-6.3-2.8-10.8c7.4-6.7,12.5-15.1,16.7-23.6c2-4,12.2-15.1-5.4-15.8
				c-15.9-0.6-25-16.2-19.9-30.9c0.7-2,0-2.3-1.9-2.8c-13.8-3.5-26.8-2.5-39.7,4c-7.9,4-8.2,3.5-10.5-1.7
				c-9.5-18.1-12.9-41.8-32.3-52.2c-3.2,9.8-18.4,10.2-17.4,24c1,11.6,0.3,23.3-2.1,34.7c-3.5,15.9-7.3,30.6,10.5,40.7
				c4.3,2.4,5.7-1.7,8.6-1.8c0.3-0.5,0.4-1.1,0.4-1.6c-1.6-10.6-9.8-43-2.3-50.1c1,1,2.8,1.9,2.9,3c1.3,8.5,6.2,16.5,3.7,26.1
				c0.8,6.3,1.7,12.9,2.5,19.6c0.5,4.2,4.9-0.7,5.8,2.5c6.1-3,9.4-31.8,17.4-26.4c4.4,2.5,0,7.7-0.8,11.9c-2,7.5-13.2,14.4-1.3,21
				c6.6,3.8,10.6-4.1,15.9-6.2c6.2-2.5,11.5-7.3,17.3-10.9c4.7-3.5,11.5,2.7,4.6,5.3c-10.1,6.9-20.4,13.5-30.6,20.2
				c-0.9,0.6-2.2,2.3-1.9,2.8c0.9,1.8,2.8,4.8,3.5,4.6c9-2.6,17.8,1.4,26.8,0.5c4.3-0.4,6.8,3.2,6.9,6.3c0.1,3.6-4,1.6-6,1.7
				c-8.7,0.3-17.3,0.1-26,0.1c-5.8,0-3.5,6.8-7.2,8.6c-0.1,0.9,0.1,1.8,0.7,2.5c10.4,7,18.9,16,27.8,24.6c7.2,5.8,1.5,12.3-4.3,5.7
				c-9.4-8.2-18.8-16.4-27.5-25.2c-4.8-4.8-4.9,4.3-8.4,2.1c-0.1-0.1-2.3,2-2.1,2.8c1.6,8,3.9,15.9,5.1,24c0.6,7.2-6.7,12-7.8,2.2
				c-1.8-6-1.2-26.5-8.1-27.1c-1.7-0.3-4.8,0.2-5.2,1.2c-4.4,10.1-8,20.6-12.6,30.6c-1.5,3.3-2.4,9.8-8.4,7.8
				c-9.1-4.3,14.4-35.6,13.3-43.7c-8.2-12-31.2,17.8-32.8,24.9c-0.5,4.5-2.9,9-2.8,13.5c0.2,12.7-13.2,24.9,0.5,38.5
				C702,771.1,704.3,784.2,719.1,777z M727.4,666c0.8,18,32.8,26.5,35.3,1c0.3-10.5-5.8-17.8-16.5-19.4
				C739,646.5,725.8,659.5,727.4,666z M854,1481.7c-5.1,0-13-1.2-13.3,8.3c-0.3,9.7,3.4,15.6,13.8,14.9c7.3-0.5,6-6.7,6-7
				C861.6,1487.7,860.6,1481.7,854,1481.7z M858.7,1358.3c0.3-15.6-21.9-14.4-21.8,0.4c-0.2,10.6,7.4,10.9,13.3,11.2
				C857.2,1370.2,858.7,1363.1,858.7,1358.3L858.7,1358.3z M856.4,1169.9c1.4-18.3-21.6-17.4-22.9-0.7c-0.3,5.5-0.2,14.5,7.6,14.1
				C852.7,1183.2,856.3,1176.3,856.4,1169.9L856.4,1169.9z M843,1233c-10.8-1.6-10,6.8-11,13.2c-1.9,16.5,22.1,11.2,20.9-2.6
				C852.7,1238.1,851.6,1231.7,843,1233z M829.5,60.6c18.7,1.5,16.7-24.2,2.7-25.4c-7.5-0.4-11.4,5.2-13.6,12.2
				C820.3,53.6,822.1,60.7,829.5,60.6z M825.5,1416.9c-13.8-2.3-14.7,21.8-0.8,20.2c9,0.5,11.2-6.7,11.9-12.5
				C837.5,1418,831.3,1416.6,825.5,1416.9L825.5,1416.9z M811.7,1538.4c-7,0.8-3.4,23.2,8.6,22.4
				C833.1,1560.2,833.6,1537.8,811.7,1538.4L811.7,1538.4z M765.3,1457.5c-12.1,0-11.3,24.4,1.3,23.2
				C781.1,1480.3,779.1,1456.5,765.3,1457.5L765.3,1457.5z M762.6,56.2c12.3-1.5,5.9-25.9-4.8-23.2
				C743.5,34.2,744.3,59.7,762.6,56.2z M737.9,1520.9c-11.9-0.5-11.4,18.2,0,17.5C748.1,1538.9,749.2,1519.6,737.9,1520.9z
				 M718,1570.3c-2.3,1.1-4.9,5.3-4.8,10.1c0.3,12.2,10.3,8.2,16.5,8.2c5.9,0,4.9-7.8,4.8-10.7C734,1570.3,727.4,1568.6,718,1570.3z
				 M675,35.4c1.1,15.9,27.5,11,27.2-8.1c0.6-8.1-4.3-14.8-14.4-14.5C671.8,13.6,675.2,25.7,675,35.4z M667.3,1487.4
				c-12.5-0.9-11.3,23.9,3,21.7c7.7,1.3,8-6,8.5-11C679.4,1490.9,672.8,1488.1,667.3,1487.4L667.3,1487.4z M657.8,123.4
				c20.7,0.9,23.1-28.6,4.7-26.1c-11,1.7-10,11.9-10.1,20.1C652.4,123.1,656.9,123.6,657.8,123.4L657.8,123.4z M652.2,520.8
				c-9.3-7.1-18.3-14.5-27.2-22c-4.3-3.6-7.1-3.3-10.3,1.7c-18.5,27.2-38,60.1-71.3,70.3c-6.6,1.4-9.1-3.8-3.6-7.8
				c25.9-19.3,47.6-43.6,63.9-71.4c3.3-5.8-3.2-4.5-5.9-5.6c-24.5-9.5-23.3-11.2-34.5,10.4c-6.7,7.1-11,16.4-16.4,24.6
				c-3.1,4.7-7.7,2.1-11.7,1.8c-3-0.2-3.6-2.6-4.5-5.3c-5.1-16-14.2-29.8-25-42.4C493.1,455.9,526,458,533.4,457
				c11-0.2,21.9,0.8,32.7,2.8c7.3,1.2,9.3-8,13.2-12.8c6.9-9.4,14.9-18.6,19.4-29.5c-16.6,1.8-30.5,11.3-47.8,3.4
				c-7.3-2.9-13.2-8.6-13.6-16.9c-0.2-4.5,3.7-8.1,8.6-4.3c27.9,22.2,51.5-11.3,71.1-0.7c4.7,3.3,3.6,8.3,1.5,11.4
				c-11.4,16.7-17.9,36.5-32.6,51c-4.6,4.6,22.6,9.6,25.9,12.9c7.1,3.8,16-26.9,28.4-31.8c3.2-2,6.8-5.2,10.9-3
				c5,2.6,5.3,8.3,5.7,12.9c2.1,21.3,3.7,42.7,8.2,63.7C666.2,525,657.4,525.5,652.2,520.8L652.2,520.8z M551.2,473.8
				c-8.2-0.9-16.8-1.7-25.9,0.8c1.6,9,11.1,12.8,12.8,22.1c1.2,5.4,3.8,4.3,6.3,0.4C546.4,491.4,566.8,473.4,551.2,473.8
				L551.2,473.8z M644.8,473.2c-0.3-4.7-1.4-9.3-2.1-14c-2.5,3.6-5.9,6.9-7.4,11c-1.7,4.4-9.5,7.4-5.4,12.6c3.6,4.4,9.9,6.6,15,9.8
				C644.9,486.2,645.2,479.7,644.8,473.2L644.8,473.2z M625.8,78.8c16.6-0.7,18.6-26.3,1.3-25.4C612.7,52.8,608.1,80.9,625.8,78.8
				L625.8,78.8z M607.3,1535.2c-7.2-0.4-7.6,6.3-8.2,11.5c-1.1,9.7,6.8,12.9,13.3,13.8C627.4,1560.2,621.5,1533.6,607.3,1535.2z
				 M608.4,1437.1c4.5-0.3,10.6,2,9.5-6c-0.8-6,0.4-13.2-10-12.4c-7.5,0.6-10.6,3.8-10.9,10.8
				C596.5,1438.9,603.4,1436.7,608.4,1437.1L608.4,1437.1z M588,26.9c7.5-0.6,10.8-5.8,11.1-13.2c0.4-10.5-7.8-9.9-14-10.4
				c-7.1-0.6-8.6,4.9-8.1,11.5C575.9,22.5,579.3,27.6,588,26.9z M577,652c11.4,11,19.3,36-4,36.5c-9.8-0.3-12.6,5.6-14.7,12.4
				c-3.3,10.3-2.6,19.6,8.5,25.8c9,3.8,25.7,28.3,15.4,35.7c-4.5,3.7-18.2-18.6-22.4-22.1c-1.9-2.2-2-0.8-2.8,1.2
				c-2.8,12-5,44.8-23.6,26.7c-7.7-7-14.3-15.2-22.1-22.1c-6.6-11.3-23.7,62.8-26.2,68.7c-4.5,15.8-10.3,31.3-14.7,47.2
				c-8.2,23.9-10.6,43.8,19.3,50.8c16.1,5.8,31.9,2.3,47.5-2.6c13.7-4.1,26.5-10.7,37.9-19.3c1.5-1.1,4.1-3.7,5.5-1.2
				c2.8,5-2.2,8-4.6,11.3c-24.3,32.9-103.1,44.9-123.6,2.6C440.2,878,474.8,803.2,481,770.7c4-13.4,9.4-26.4,16.3-38.6
				c1.4-2.4,0.6-3.3-0.5-4.5c-12.7-14.4-5-33.3,7-43.1c6-4.9,11.8-9.7,19.2-12.5c1.6-0.6,4-3.7,3.6-4.5c-2.5-8.5-19.4-6-17.2-14.2
				c1-3.7,3.5-4.8,7.5-4.2c10.2,1.6,20.8,3.5,24.1,14.6c4.6,15.5-8.7,20.7-18.5,27.3c-9.1,5-23.8,16.2-12,26.5
				c2.1,2.9,3.1-1.2,4.7-1.8c15.8-8.5,27.9,5.8,27.8-9.5c0.8-17.4,11.1-29,27.8-31.3c8-0.3-3.1-15.1-3.6-19.5
				C564.2,648.3,574.1,648.8,577,652z M529.8,729.1c-19.6-0.9,3.1,14.8,7.5,20.7c1.9,2.1,3.5,3.5,5.2-0.2
				C548.5,736.7,544,729.1,529.8,729.1L529.8,729.1z M544,1567.1c-11.1-1.9-13,21.6-2.1,21.6C556.4,1590,556.8,1567.5,544,1567.1
				L544,1567.1z M542.1,1505c13.7,2.8,14-19.9,2.3-19.5C531,1484.9,530.6,1507.7,542.1,1505z M511.5,38.6
				c7.5-0.7,14.4-5.2,13.5-15.6c1.8-8.2-5.5-10-10.6-9.6C501.8,12.4,497.7,38.6,511.5,38.6z M511.2,1049.9
				c24.7,56.9-37.4,101.8-87,110.8c-0.9,0.3-3.4-2.2-3.8-3.7c-3.7-6,37.1-20.8,43.4-26.1c20.6-11.7,44.7-33.8,37.6-64.6
				c-4.3-18.7-21.9-34.4-41.5-33c-14.7,3.9,20.3,24.8-21.1,44.1c-21.5,10.7-43.4,22.2-56.4,43.5c-3.4,3.4-6.8,8.7-12.3,5.9
				c-24.8-12.3,3.3-65.2,18.7-78.9C419.3,1012.4,487,1004.2,511.2,1049.9z M444.4,1050c-1.5-5.5-0.6-10.4-1.2-15.6
				c-34.2,4.4-65.9,35.4-67.9,70c16.5-17,35.7-31.1,56.8-41.8C437,1059.8,446.8,1058.7,444.4,1050L444.4,1050z M483.6,106.9
				c19.9,2.7,25.5-24.7,7.8-28.4c-11.3-1.1-13,8.2-14.8,17.2C478.3,99.6,476.5,106.6,483.6,106.9L483.6,106.9z M479,1556.9
				c-9.4-0.3-14.6,3.4-15,12c-0.4,7.2,5.4,7.8,10.5,8.1C487.6,1579.6,493.8,1554.3,479,1556.9L479,1556.9z M428,58.8
				c9.8,0.2,13.8-6.8,15.3-15.5c0.9-10.1-6.5-10.1-12.7-10.2C414.8,31.4,411.6,58.4,428,58.8z M413.3,1509.4
				c-5.8,0.6-9.8,5.6-8.4,12.8c-0.5,7.1,2,11.4,10.3,10.9C431.4,1531.2,429.1,1507.2,413.3,1509.4z M417.2,1456.1
				c1.6-15.9-23-10.2-21.3,3.5C396.1,1473.7,419.3,1472.1,417.2,1456.1z M365.6,38.8c7.5,0.2,11.6-5.1,11.6-14.2
				c0.5-8.1-5.8-10.9-13.4-11.5c-6.8-0.5-9.5,4-8.8,10.1C355.9,30,356.3,38.5,365.6,38.8z M370.3,444.4c-1.9,5.3-8.4,3.2-13,2.3
				c-12.7-2.4-25.3-5.3-38-7.3c-1.5-0.2-3.8,3.6-5.4,5.8c-0.3,0.5,0.8,2.3,1.6,3.2c9.6,10.3,19.3,20.6,29.1,30.9
				c2,1.7,2.1,4.8,0.4,6.7c-0.1,0.1-0.2,0.3-0.4,0.4c-5.2,3.8-26.2-22.6-30.4-27.1c-1.8-2-3.4-6.2-7.3-5c-8.8,2.6-9,8.8-7.3,16.7
				c2.2,9.6,4,19.4,4,29.2c0,7.3-4.2,4.6-6.6,0.6c-4.3-11.8-3.3-25.3-6.3-37.5c-1.3-6.2-6.8-3.2-10.8-3.2c2.3,2.3-0.2,4-1,5.5
				c-5.1,9.1-10.5,18.1-16,27c-0.7,1.2-2.1,4-4.6,1.5c-6.3-4.4,11.9-27,14.5-33.3c2.4-3.8,1.2-6.6-0.9-9.6c-2.9-4.1-6.1-0.8-8.4,0.4
				c-9.6,5.1-18.9,10.6-28.1,16.3c-4.1,3.5-9.4-2.8-4.9-5.8c9-7.1,19-12.8,29.6-17c6-2.4,4.7-7.3,4.6-11.7c-0.1-3.9-3.2-4-6.4-4.3
				c-10.2-1.1-20.5-2.4-30.6-4.2c-6.7-2.7-4.7-7.4,0-7.8c12.7,1.6,22.1,2.4,31.4,4c6.1,1.1,9.6-2.2,11-6.7
				c-2.7-10-20.2-22.3-27.3-31.2c-2.1-2.2-3.5-5,0-7c7.4-5.2,24.9,23.5,30.8,28.7c0.8,1,3,2.1,3.5,1.8c3.4-2.4,9.1-5.2,9.1-7.9
				c0-11.7-1.7-23.4-2.8-35.1c-0.3-3-2.3-6.2,0.6-8.7c6.7-4.7,7.6,0.1,6.7,5.9c1.5,11.9,2.3,23.9,4.3,35.7c0.8,4.7,6.3,4,9.9,4.9
				c4,1,4.1-3.7,5.6-5.9c5.3-7.4,9.9-15.3,15-22.8c1.8-2.6,4.2-4.4,7.7-1.9c4.1,3-0.2,5.1-1,6.4c-5.9,9.4-12.4,18.4-18.5,27.7
				c-3,4.6,2.4,7.1,3.5,10.8c0.8,2.9,2.7-0.7,3.9-1.1c12.8-3.9,25.5-8.4,38.3-12.5c2-0.6,4.8-0.2,5.4,2.7c1.6,7.1-37.9,16-44.7,18.5
				c-0.9,0.2-1.5,4.4-0.9,6.3C320.5,436.7,374.6,435.5,370.3,444.4z M310.7,426.5c-2.8-27.9-38.1-19.7-37.6,7.9
				c-1.4,10.7,6.8,14.9,16,16.3C299.1,452.1,311.7,438,310.7,426.5L310.7,426.5z M355.9,1552.9c-10.4-2.2-9.7,19.3,0.3,18
				C369.1,1572.2,370,1552.2,355.9,1552.9L355.9,1552.9z M340.1,1473.9c-5.8-0.1-10.2,3.2-9.7,9c0.4,4.5-2.4,12.3,7.8,12.2
				C350.3,1495.9,353.5,1474.6,340.1,1473.9L340.1,1473.9z M314.4,1518.9c-6.4,0.4-13,0-13.5,8.9c-0.4,6.7,1.1,12,9.1,11.4
				C323.3,1541.8,328.2,1518.7,314.4,1518.9L314.4,1518.9z M288.2,32.7c5.7-0.4,11.9-3.3,10.9-11.5c0.3-5.2-1-10-7.1-10
				C277.6,9.1,273.3,32.4,288.2,32.7z M271.1,1563.3c-6.5-0.9-6,5.3-6.4,11.8c-1.4,8.2,7.4,9,12.7,9.1c5.7,0.1,7.3-7.3,7.3-12.1
				C284.7,1563.7,276.4,1564.1,271.1,1563.3z M213,53c17,1.1,16.6-25.4-0.2-23.9C199.1,28.9,199.8,53.1,213,53z M210.4,110.9
				c13.9,1.2,12.2-22.8-0.6-21.4C194.6,88.3,195.3,111.2,210.4,110.9L210.4,110.9z M199.7,1554.9c-12.4-2-12.2,22.5,2.6,21.7
				C215.6,1576.7,214.6,1552.7,199.7,1554.9L199.7,1554.9z M158.6,74c8.2-0.2,10.7-5.1,10.5-12.4c-0.3-6-0.9-12.1-8.9-11.5
				c-5.3,0.4-13.9-2.1-13.8,6.7C146.5,64.1,146.1,74.3,158.6,74z M130.5,1527c-14.1-2.6-15.6,20.7-1.8,20c5.7-0.3,12.1-0.9,12.2-8.3
				C140.9,1532.4,139.5,1525.6,130.5,1527z M121.2,26.5c16.4,2.1,17.6-26.4,0.7-25.2C107.1,0.1,108.5,25.4,121.2,26.5z M121,156.6
				c-10.2-0.1-12.5,9.3-13.6,16.3c-1.3,8.8,7.5,11.8,14,11.7C138,185.8,138,155.9,121,156.6z M124.8,1456.8
				c3.3-12.2-7.4-10.3-13.5-10.7c-10.2,1.5-7.2,22.9,5,21.1C123.2,1467,126.2,1464.3,124.8,1456.8L124.8,1456.8z M105.2,338.9
				c9.5-1.2,7.9-10.1,9.4-14c1.5-9.6-4.9-11.8-8.7-11.5C89.1,312.9,86.2,341.3,105.2,338.9z M102.1,114.9c12.8,2.2,11.5-7.5,11.8-15
				c0.3-8.2-7.2-7.4-11.8-7.4c-7,0-10.3,5.6-9.7,12C92.8,109.8,93,117,102.1,114.9L102.1,114.9z M109,1098.4
				c3.9-13.7-17.7-18.9-18.7-4.8C88,1112,111.3,1112.7,109,1098.4z M97.3,863.6c11.2-0.8,10.3-22.4-2.5-21.1
				c-8.6,0-9.2,6.8-9.7,12.5C84.4,863.6,92,863.7,97.3,863.6z M72.2,744c-0.9,8.3,5.3,11.6,12.1,10.6c11.4-0.6,12.9-24.3-1.8-21.6
				C73.7,731.1,72.9,738.4,72.2,744z M72.6,1140.5c-13.7-0.6-13.4,24.5,1.4,24.6c9.8,0.4,11.6-6.4,11.9-13.3
				C86.2,1143.4,81.2,1139.9,72.6,1140.5L72.6,1140.5z M69.1,231c-8.8,0.5-9.8,7.1-10.8,18.1c-0.2,1.1,2,5.9,7.2,5.4
				c6-0.6,15.2,0.2,15.2-9.2C80.6,238.8,79.3,230.4,69.1,231z M68.6,57.1c8.6,1.2,8.5-5.7,9-11.1c0.7-7-1.5-13.2-9.9-12.9
				C52,32,52,58.1,68.6,57.1z M59.1,1477.4c-10.1,0.7-9.4,20.6,1.3,22.1c4.1-3,11.9-2,12.5-9.4C73.7,1480.6,66.3,1477.6,59.1,1477.4
				z M57.1,1560.6c-10.3,1-10.8,20.1,0.5,18.7C74.2,1581.4,72.4,1557.5,57.1,1560.6z M50.3,1400.2c0.2,6.3,2.5,11.2,10.7,11
				c12.4,1.1,8.2-22.8-2.3-21.9C52.7,1389.2,50.1,1394.5,50.3,1400.2L50.3,1400.2z M53.9,1028.6c10.7-0.2,8-10.2,8.9-16.6
				c0.8-5.5-2.7-11.3-8.3-10.7C37.8,1001.8,40.4,1029.6,53.9,1028.6L53.9,1028.6z M44.8,418.6c18.3-0.3,18.7-27.1,2.1-25.6
				C32,391.7,30.8,418.5,44.8,418.6L44.8,418.6z M58.7,1265.8c0.1-10.1-20.5-13.6-19.1,1.8c0.1,3.7,1.1,11.1,8.6,9.4
				C56.9,1277.8,58.5,1271.2,58.7,1265.8L58.7,1265.8z M48.8,165.2c15.9,1.3,10.6-25.3-2.1-25.8C35.8,137.2,30.5,166.3,48.8,165.2z
				 M45.8,799.4c6.9,0.1,9.8-3.8,9.3-11.3c2-8.5-4.1-12-11.2-11.8C32.3,777,30.6,801,45.8,799.4L45.8,799.4z M38.6,327.9
				c11.7-2.1,8.7-24.9-4.2-23.1C19.1,304.1,18.5,330.8,38.6,327.9z M30.4,1070c-15-1.4-15.5,25.5,0.3,25c9.5,0.1,9.6-7.4,10.2-13.6
				C41.6,1074.3,37.2,1070.3,30.4,1070z M17.1,1291.3c-13.8-2.9-21.3,21.8-2.8,25c6.1,0.5,11.5-3.8,11.3-10.3
				C25.5,1300.3,25.7,1291.7,17.1,1291.3z M10.5,1521.5c-14.1,0.4-12.2,27.4,2.6,25.7C31.9,1546.3,26.7,1519.7,10.5,1521.5
				L10.5,1521.5z M10.3,1461.2c4.6-0.2,13.2,3.4,12.8-8.6c-0.6-5.5-1.6-13.1-10.5-13.4c-6.5-0.3-10.8,4.1-10.5,11.2
				C2.3,1455.8,4.1,1461.6,10.3,1461.2L10.3,1461.2z"/>
		</g>
	</g>
</g>
<g>
	<g id="Layer_1_2_">
		<g transform="matrix( 1, 0, 0, 1, 0,0) ">
			<g>
				<g id="Layer0_0_FILL_1_">
					<path d="M52,1548v15l-37,37h946l-37-37v-15H52 M52,52V37.7L14.3,0H0v1600h15l37-37v-15V52 M924,52V37.7L961.7,0H14.3L52,37.7
						V52H924 M976,0h-14.3L924,37.7V52v1496v15l37,37h15V0z"/>
				</g>
			</g>
			<g>
				<path id="Layer0_0_1_STROKES_1_" class="st5" d="M961,1600h15V0h-14.3L924,37.7V52v1496v15L961,1600H15H0V0h14.3h947.4 M52,52
					V37.7L14.3,0 M15,1600l37-37v-15V52h872 M924,1548H52"/>
			</g>
		</g>
	</g>
</g>
</svg>
