<svg xmlns="http://www.w3.org/2000/svg" xmlns:xlink="http://www.w3.org/1999/xlink" viewBox="0 0 976 1600">
<style type="text/css">
	.st0{fill:#FFFFFF;}
	.st1{clip-path:url(#SVGID_2_);}
	.st2{fill:#333333;}
	.st3{fill:#FF8DB6;}
	.st4{fill:#D81E1E;}
	.st5{fill:none;stroke:#333333;stroke-width:2;stroke-linecap:square;stroke-miterlimit:3;}
</style>
<g id="Paper_Backing">
	<path class="st0" d="M960,22v1556c0,3.3-2.7,6-6,6H22c-3.3,0-6-2.7-6-6V22c0-3.3,2.7-6,6-6h932C957.3,16,960,18.7,960,22z"/>
</g>
<g id="Wikipedia_Cropped">
	<g>
		<defs>
			<path id="SVGID_1_" d="M960,22v1556c0,3.3-2.7,6-6,6H22c-3.3,0-6-2.7-6-6V22c0-3.3,2.7-6,6-6h932C957.3,16,960,18.7,960,22z"/>
		</defs>
		<clipPath id="SVGID_2_">
			<use xlink:href="#SVGID_1_"  style="overflow:visible;"/>
		</clipPath>
		<g class="st1">
			<path class="st2" d="M475.3,1490.1c-26.6-14.5,6-98.4,36.8-89.2c7.7-3.9,13.7-3,13.3,6.8C531.8,1439.8,506.1,1476.3,475.3,1490.1
				z M185.5,1442.8c-66.4-1.8,26.1-70.9,50.6-61.9c17.9-3.1,28.2,16.1,18.3,30.2C236.2,1432.1,213.1,1442.8,185.5,1442.8
				L185.5,1442.8z M424.1,1022.7c-48-19.2,65.6-78.7,81.1-52.3C501.6,1008.1,456.7,1025.7,424.1,1022.7L424.1,1022.7z M345.1,1003.7
				c-23.3-2.7-67.9-62.3-42.4-79.3C333.9,928.5,371.2,979,345.1,1003.7L345.1,1003.7z M106.6,965.7c-16.8-0.6-10-20-9.9-30.1
				c-0.8-27.6,18.5-70.3,51-67C186.4,877.5,145.3,964.4,106.6,965.7L106.6,965.7z M76.6,643.2c-26.1-0.1-61.9-18.1-74.4-48.3
				c-2-13.6,26.2-15.3,35.9-16.7C67.9,572.6,140.5,644.8,76.6,643.2L76.6,643.2z M198.8,598.8c-34.2-15.9-39-75.3-15.9-100.9
				C229.3,515.5,232.3,567.7,198.8,598.8L198.8,598.8z M277.5,502.9c-38.3-6-65.2-26.9-77.8-61.9c7.8-16.3,41.4-3.7,57,0.1
				C275.6,452.4,310.8,493,277.5,502.9L277.5,502.9z M409.5,462.3c-31-26.3,14.4-84.5,49.6-86.4C489.6,402,444.5,456.3,409.5,462.3
				L409.5,462.3z M759.5,221.5c-27.3-25.9,4.5-71.1,35-83.5c6.3-2.7,9,1.9,10.3,12.6C810.8,179.1,785.3,207.3,759.5,221.5
				L759.5,221.5z"/>
			<path class="st2" d="M837.6,1604c-7.7-1.5-1.2-15.6-3.3-21.7c0.1-23.4,7.5-45.6-1.8-66.9c-4.4-106.3-147.2-116.3-205.2-194.6
				c-5.4-10.5,46.8-7.8,20.9-34c-31.9-45.5,71,6,84.4,10.2c20.7,1.4-12.9-50.5-14.3-62c-5.1-23.3-18.1-41.9-26.7-67.4
				c-10.4-28.3-21.8-57.7-24.7-89.4c-3.4-11.4,4.8-15-1.5-28.4c-3.3-6.3,8.3-25.2-1.4-31.9c-3.3-37.2-34.9-68.5-29.3-108.4
				c-2.4-13.2-14.3-19.1-8.3-36.3c-0.9-25.5,23.4-36.5,47.4-35.1c4.2-1.7,4.9-11.8,10.5-10.5c31.4,20,41.4,61.2,75.8,74.9
				c18-9.4,6.9-35.6,12.2-52.8c-1.3-9.9,8.2-15.7,5.7-23.6c-3.7-5.2,0.8-13.5,1-20.1c-4.2-12.5,12.1-24.8,4.3-33.9
				c-2.1-21.3,2.2-46.7,0-69.5c-2.4-10.6,10.1-20,2.3-27.3c-8.1-11.1-3.4-30.1-7.2-43.8c-4-5.8,3.6-15.8-0.8-21.5
				c-12.1-43.9-19.1-86.2-37-125.6c-8.6-14.8,14.3-10.3,19.3-20.8c0.3-9-8.1-21.7-2.5-28.8c12.1-13.6,39.5,1.4,33.4-28.6
				c2.6-8.4-5.9-9.2,4.1-17.4c12.1-9.9,26.8-18.9,35.4-31.4c4.4-14.6,21.3-14,21.9-27.7c28-33.7,54-66.1,74.3-104.3
				c11.2-12.2,12.4-30.7,25.2-43c8.2-12.5,11.7-33,24.2-42.4c11,29.4,0.5,135.3,4,171.3c-16.2,12.7-19.2,36.8-34.3,51.8
				c-5.5,1.7-4,7-5.5,11.4c-3.6,10.5-11.5,16.7-16.9,26c-16.1,15.5-23.9,34.2-39,51.6c-16.8,16.3-22.2,37.7-15.2,61.9
				c-2.8,32.4,0.9,66.1,2.7,100.7c2.6,7.8,0.1,11.5-3.3,17.4c6.9,14.4,5.6,31.3,6.4,47c0.3,18.8,1.9,37.5-4.4,53.4
				c9.5,22.2,1.3,51.7,5.5,73.6c8.5,43.4,20.5,89.5,8,132.1c-0.7,23.8-7.1,53.4-15.6,75.5c7.3,9.9-7.5,22-1.5,30.9
				c12.5,56,38.2,109.8,66.5,160.5c11.3,18.8,25.8,38.7,30.7,59.4c-1.7,6.6,6.9,9.2,12,8.9c11.3-0.9,0.3,322.4,4,326.4
				C980.8,1610.9,841.6,1600.5,837.6,1604z"/>
			<path class="st3" d="M369,1413.1c-3,0-6.6-1-8.2-8.9c-10.6-24.1-23.3-14.9-41.3-10.1c-21.9-1.3-4.8-46.3-19.1-52.2
				c-21.5-2-37.5-16.6-46.4-36.7c-4.2-6.4,19.1-16.3,18.8-22.3c3.3-6.4-8.1-15.9-10.2-22.1c6-19,31.1-19.1,47.1-24.1
				c3.9-18.5,3.9-45.1,25.9-52.9c29.8,17.1,24.5,15.9,47.9-6.6c55.7,41,3.6,42.3,77.2,22.2c37.1,2.4,10,17.1,23.2,34.2
				c4.5,6.8,22.3,5.7,20.5,12.8c3.8,20.4-13.1,35.4-28.8,44.4c-2.6,2.1-2.9,6-0.8,8.5c0.1,0.2,0.3,0.3,0.4,0.5
				c7.3,5.7,31.4,42.2,9.2,49.5c-38.6-3.3-6.8,36.3-27.6,39.7c-15,0.8-28.1-2.1-40.6-14C404.2,1367.4,395.4,1414.2,369,1413.1z
				 M379.3,1313.1c13.5,4.1,24.5-12.4,25.5-24c-0.6-8.4-2.2-14.8-8.5-20.7c-3.5-6.5-10-0.4-15.5-4.1c-6.1-2.9-21,10.8-20,17.1
				C353.6,1294,363.1,1315.5,379.3,1313.1L379.3,1313.1z M513.8,885.3c-13.8,0.1-10.8-12.9-12.2-21.4c-26.5-36.2-54,23.7-36.1-66.4
				c-15.3-8.4-52.6-39.7-28.1-55.3c7.1-4.5,12.8-11.3,22.5-6.8c12.6-6,10.4-33,32.4-20.5c31.4,9.4,13.4-58.5,51.7-68
				c10.2,2.6,18.3,18.3,29.9,16.2c28.5-7.2,32.5-30.6,45.1,13.9c7.7,10.8,20.9-5.9,34.7-2.4c16.9,1,36.3,3.5,41.6,16.8
				c-32.3,50.5,53.9,32.8-23.8,79c-3.1,1.2-4.6,4.7-3.3,7.8c0.1,0.3,0.3,0.6,0.4,0.8c9.4,14.7,20.6,57.6-2.6,58.3
				c-46.2-7-32.2,32.6-45.1,40.1c-15.8-3.7-26.6-12.8-38.8-26.3C570.7,842.4,559.9,884.7,513.8,885.3z M564.5,793.2
				c6.4,4.3,11.7,0.5,17.4-2.2c6.9-2.1,11.1-6.9,11.4-14.3c4.1-6.1,1.4-11.1,2-18.3c-0.3-6.6-9.7-13.9-15.6-15.7
				c-8.1-3.4-12-6.7-19.6,0.7c-7,2.8-9.7,5.6-13.5,12.2C538.1,769.7,548.6,790.8,564.5,793.2L564.5,793.2z M190.6,856.4
				c-15.2,0.8-16-32.8-29.5-31.2c-35.1,20.6-39.1-17.9-30-45.2c0-12.8-29.4-11.7-36.9-33.8c-6.2-8.8,16-18,13.1-26.7
				c0.8-7-20.3-16.8-8-25c13-21.4,54.7-8.5,61.3-22.9c0-18.6,6.3-35.6,18.7-50.4c9.1-4,20.1,16,26.6,12.5
				c9.8,1.8,28.4-30.5,35.3-6.2c7.7,8.5,11.2,37.1,25.1,31.4c16.5-14.8,36.4-23.8,54.5-12.1c5,10.8-10.2,33,2.3,41.3
				c7.2,3.6,24.8-4.1,21.5,10.3c-1.5,13.5-16.3,20.2-24.4,31.6c9.4,14.5,25.6,38.7,19.7,55.1c-2.3,7.8-9.5,9.1-16,9.7
				c-34.1,0.4,6.9,40.5-34.1,36.3c-18,1.1-31.6-8.3-46.1-16.4C228.1,830.8,217.5,856.3,190.6,856.4z M210.3,752.2
				c11.8,3.3,15.7,6.5,23.3-6c10.1-10.5,6.9-31-7.3-36.1c-7.6-1.8-13.8-5.1-20.1,0.8c-7.9,2.1-8.4,8.4-11.8,14.7
				C190.9,734,199.6,753.6,210.3,752.2L210.3,752.2z M506,312.7c-19.4-2.5-45.8-9.6-54.4-30c3.2-6.8,14.1-24.3,11.7-27.6
				c-1.5-5.6-5.7-7.2-17.4-15.2c-14.8-21.5,27.6-40.9,47.2-43c7-1.8,4.7-8.7,2.1-13.7c-12.5-24.1,6-73.8,35-45
				c27.4,3.8,7.8-31.7,28.4-34.5c31.4,5.8,31.8,35,49.7,49c12.5-7,25.3-15.1,40.3-15.5c40.4,4,19,13,23.4,36.4
				c7.3,13.2,30.3-1.1,37.4,11.2c5.7,15.3,0.3,36.4-14.7,44.2c-18.9,21.7-20.5-16.3-39.1,12.4c-3.9,6.6-9.4,13-14.4,12.4
				c-17.9-3.1-9.5-27.7-29.5-23.1c-7.1-0.3-2.9-8.9-8.3-11.2c-4.7-1.5-6.2-9-11.6-9c-16.4,2.1-23.3-8.1-32.9,13.9
				c1.1,5.4-3.7,13.8,2,17.6c5.1,4.9,6.2,10.8,14.4,9.2c9.7,2.3,6.9,11.8,7.3,19.5c-0.7,6.7,3.7,16.6-0.5,21.2
				c-8.5,9.7-21.5,3.3-32.3,5.2C534.7,296.8,521.7,311.2,506,312.7L506,312.7z"/>
			<path class="st4" d="M341.5,1489c-23.2,0.3-16.8-41,5.5-40C368.8,1451.2,362.6,1490.9,341.5,1489z M633.7,1461.7
				c-26.8,3.1-31.6-38.6-3.9-38.1C653,1421.3,663,1463,633.7,1461.7L633.7,1461.7z M159.1,1379.3c-18.8-9.4-6.9-33.8-38.4-5
				c-24.2,15.7-43.5-36.6-38.1-56c0.6-3.3-1.6-6.4-4.9-6.9c-0.4-0.1-0.7-0.1-1.1-0.1c-22.5-1-38.3-14.9-42.1-30.6
				c13.5-13.3,27-22.3,4.8-37c-24-24.5,28.4-27.1,39.5-38.1c-5.1-20,1.7-49.4,17.3-61.6c9.7-8.6,19.1,13.3,26.1,11
				c3.8,0.5,11.2-7.1,14.4-15.5c11.9-24,37.3,13.3,44,25.3c7.7,21.6,19.7,4.8,34.4,3.9c3.1,0,5.7-2.3,6-5.4
				c0.9-11.5,19.4-10.9,21.9-20.1c-5.1-23.6-27.8-26.7,7.5-39.7c14.5-8.7,31.1-5.6,46.8-7.4c6.6-15,5.4-41.1,23.1-48.5
				c9.5,1.4,17.1,14.9,25.8,15.2c15.9,0.8,15.5-31.6,31-26.3c22,9.7,20.4,37,36.3,48.2c27.8-11.5,59.1-21.6,79.3,1.6
				c1.6,9.1-12.4,18.2-3.9,25.8c64.3,14-17.4,49.9,16.4,69.9c3.3,2.7,8.5,0.8,9.5-3.2c7.7-17.1,32.9-38.4,55.9-31.2
				c4.8,7,0.3,18,2.9,25.4c12.1,16.6,49.5-32.6,32.2,38.9c-0.9,7,6.9,6.8,11.5,6.4c16.6,2.9,61.8,28.5,35.3,46
				c-38.9,15.9,33.7,30-19.6,48.3c-47.8-2.3-4,37-62.2,59.2c-6.9,0.1-9.8-6.6-12.9-11.4c-19.2-20.3-21,37.6-51.6,2.3
				c-15.8-12.7-9.7-28.7-15.9-43.9c-41.2-47.5,15.1-17.9,12.4-49.7c12.9-35,6-22.1-18.5-38.1c-4.5-7.7,9.3-17.6,4.8-25.8
				c-21.9-13.6-46.1-2.9-68.2,6.4c-16.8-3.4-30.5-66.7-46.7-26.7c-21.9,23.3-30.6-12-44.9-4.7c-4.6,2.8-13.7,4.5-10.9,11.7
				c0.5,10.3-8,21-6.8,32.3c-4,23.7-36.3,8.7-47.9,29.4c-9.5,8,11.9,20,7.4,28.7c-2.7,11.4-27,13.1-17,26.9
				c-3.8,17.8-33.7,20.9-52,21C186.9,1343.5,187.9,1373.8,159.1,1379.3L159.1,1379.3z M380,1312.9c-27.5-0.2-22.7-47.6,3.3-46.9
				C412.1,1265.9,405.8,1312.7,380,1312.9z M570,792.7c-32.3,0.7-33.5-51.5,0.3-49.3C604.1,741,598.8,792.6,570,792.7z M218.3,751.1
				c-28.6,5.8-29.9-41.7-1.9-40C243.2,709,243.7,751.6,218.3,751.1z M457.7,734.3c-19.5-2.3-28.9-24.8-40.6-33
				c-18,9.9-50,36.7-65.4,14.6l0,0v-0.1l0,0c-2.3-57.1-50.6,3.5-26.7-67.8c2.8-4.7,4.7-12.8-2.8-13.7c-16.8-4.5-56.1-28.2-33-44.2
				c23-23.4-15-37.9,36.2-43.4c8.3-1.3,23,7.5,26.5-3.3c5.1-20.6,16-47.2,34.7-58.2c23.6,18.2,19.8,28.1,48.3,9.6
				c24.9-15.4,23.6,29.4,28.5,44.7c9.7,11.2,46.5-13.1,74.7,6.9c20.9,8.5-13.8,32.5-7.1,41.1c0.2,5.5,20.4,10.6,21.7,21.4
				c-4.9,19.2-27.5,26.8-44.3,36.3c-8.4,10.3,8.9,26.6,5,41.3c-6.1,53.5-20.5,16.5-41.4,25.3C467.9,716.9,466.2,737.2,457.7,734.3
				L457.7,734.3z M642.2,605.2c-20-2.3-10-40.3,7.4-36.1C680.3,569.9,662.8,610.7,642.2,605.2z M102.4,559.4
				c-29.8,1.4-28.2-45.7,1-44.2C129.4,516.1,128.7,559,102.4,559.4z M625.3,497.2c-16.8-0.6-6.6-32.8-24.3-34.8
				c-17.6,7.8-29.5,27.2-39.7-3.5c-10.1-13.5,7.5-44.4-4.1-52.3c-21.1-3.6-45.4-27.1-45.2-52.5c4.6-7.6,22.7-3.5,24.4-14.4
				c-2-8.3-12.5-14.8-14.5-22.7c-2-21.8,36.3-19.3,52.3-18.2c11.3,1.6,16.1,1.2,17-13.3c26.5-69.3-23.7-7.2-31.3-54.2
				c0-26.3,46.4-26.7,46.6,0.7c0,3.5-0.8,7.7,2.9,9.6c6.6,2.5,14.4-7.9,19.2,1.9c30.9,46.7,27.7-65.7,68.7,23.3
				c1.1,4.8,6.2,8.8,10.7,5.1c14.3-13.4,34-20.8,54.5-21.2c23,1.6-3.4,44.4,29.6,41.7c25.1,10.1-9.1,53.2-21.2,63
				c-2.5,2-2.9,5.7-1,8.3c12.5,15.1,32.9,55.7,11,63.2c-7.7-1-20-0.2-22.6,3.5c-8.5,19,16.2,40.3-21.6,41.8
				c-18.7,5.7-33.1-1.1-47-19.7C678.2,439.9,668.9,494.9,625.3,497.2z M276.6,380.4c-22.1-2.5-17.6-44,5.6-40.4
				C305.9,340,300.8,382.6,276.6,380.4z"/>
			<path d="M976,1269.7c-2.7-1.1-3.8-2.3-4.8-5.4c-20.2-42.1-45.7-81.4-64.4-124.2c-16.2-42.4-44.5-87.7-29.2-134
				c16-54.3,24-113.4,10.8-169c-13.5-60.3-4.7-122.3-8.7-183.5c-4.1-54.1-4.3-108.7-8.1-162.6c4.4-25,22.3-42.6,36.8-61.5
				c28.2-33.6,48.6-71.7,67.3-111.1c1.2-2.1,1.5-4.7,0.7-7c-2.4,1.2-6,1.7-7.1,3.6c-9.2,14.3-14.4,32.3-25.7,44.9
				c-1.3,0.7-2.2-2.2-3-4c-9-18.6-22.3-32.6-42.7-38.7c-5.1-2.2-9.2,6.2-3.3,8.1c12.3,6.5,24.5,13.1,32.2,25.3
				c16.5,18.8,9.9,26.2-4.2,43.5c-5.1,7-10.6,23.6-15.2-0.9c-6.3-15.4-18.2-24.6-33.6-29.7c-4.5-2-14.5-5.7-15.1,2.6
				c2.6,8.8,29.5,8.3,37.2,27c4,8.2,11.5,18.2,7.7,24.9c-8.9,16-21.7,29.8-32.3,43.8c-12.5-17.4-28.8-35.3-52.4-35.9
				c-3.7-0.1-7.6-8.6-11.5-2.3c-2.4,3.9,4.6,5.9,7.4,8.7c1.5,1.5,4.1,2.3,6.3,2.8c20.1,5.4,51.9,26.3,41.8,51.1
				c-3.5,8.7-0.7,19.1,1.9,29.2c-16.8-10.9-45-13.3-63.6-7.4c-15.4,4.8-20.6,2.8-34.7-3.3c-2.9,2.3-2.4,5-0.2,7.5
				c10.1,11.9,23.6,8,35.2,6c20.8-3.6,41.4-6.6,59.7,5.7c5.4,3.6,3.6,14,3.2,21.6c-19-13.4-37.2-17.1-59.1-7
				c-4.1,1.7-6.8,3.6-5.9,6.8c1,3.8,5.5,2.3,8.3,1.4c8.9-2.6,18.1-3.9,27.3-3.7c10.2,0,29.3,11.1,29.6,17.6
				c0.9,18.3,1.4,36.6,2.9,54.8c0.6,6.9,5.2,13.6-7.9,8.1c-17.5-7.4-34.6,4-52.2,4.2c-1.8,0.7-5.2,7.9,0,7.7
				c10.1,0.6,20.3-0.7,29.8-3.9c9.7-3.2,30.5,3.9,31.3,12.2c2.5,25.5,2.3,53,2.1,78.1c-12.4-18.9-31.5-26.3-53.7-16.5
				c-3.8,1.6-8.2,4.5-6.9,8.7c2,8.8,19.2-9.6,34.5-1.5c19.2,8.6,25.8,25.1,26.1,45c-1.1,14.8,9,50.3-18,38.9
				c-11.4-4.3-21.5-13.6-35.1-11c-3.8,0.7-9.1,1.9-8.5,6.2c1.2,6.8,11-2,18.1,2.9c13.8,5.3,26.2,15.8,42.6,10
				c2.2-0.8,1.6,1.3,1.9,2.5c4,20.7,8.2,41.3,11.9,62.1c1.2,6.6,4,14.5-0.1,20.1c-9.3,12.6-23.4,13.2-36.5,8.7
				c-71.8-27.5-53,66.5-110.2,69.3c-31.5-0.2-51.5,27.4-69.2,49.9c-0.8-2.1-2.5-4.3-2.1-6c1.8-7-7.2-13.8,1.3-21.4
				c19.1-20.3,31.9-60.4,67.1-51.9c3.8,0.9,8.4,3.1,9.3-1.5c0.7-3.6-5.1-4.8-8.2-6.9c-25.6-5.3-60.2,19.5-68.6,43.8
				c-1.3,4.2-5.6,7.4-8.5,11.1c-6.3-20.8-25.4-51.3-19.6-73c7.7-22,18.7-37.4,44.4-35.7c4.5,0.3,7.7-1.8,10.7-4.5
				c-26.5-10.3-50.8,3.3-59.3,27.8c-8.5-9.7-3.9-21-3-31.4c1.3-14.4,14.7-23.5,29.4-24.3c7.8-0.4,18.7,2.8,21.3-10
				c0.1-0.5,2.3-1.3,2.5-1c16.1,12,24.4,30.8,39.5,44c2.7,2.1,4.4,5.4,6.6,8.2c-24.4,2.8-42.7,14.5-58.3,32.8
				c-2.7,2.9-1.2,6.4-1.7,9.6c6.6,1,12.9-8.9,18.3-12.6c13.8-12.7,28.7-22.4,48.8-18.7c7.7,1.4,24.1,12.8,20.9,20.3
				c-2.8,6.7-1.3,13.4-1.8,20c-0.2,2.7-1,6.5,2.4,7.2c15-11.1,0.9-39.7,17.4-54.1c7.3-7.4,32.6-16.1,41.3-11.3
				c5.4,2.9,13.2,5.9,18.8,2.8c0.2-1.3-0.1-3.6-1-4c-19.2-14.3-44.7-10-61.8,4.9c1.9-12.8-0.5-35.8,7.2-45.2
				c15.8-8.4,33-6.6,49.7-1.8c18.7,4.6,25.2-4.3,3-8c-12.7-1.9-25.1-8.7-38.1-2.8c-22.4,9.8-12.4-6.6-12.7-19.3
				c-1.2-30.5,33.8-49.2,58.9-33.3c3.4,1.8,7.8,5.3,10.3,1c2-3.6-3.2-6.5-6.1-8.4c-19.1-12.6-37.9-10.7-60.7,5.6
				c10.7-29.5-18.2-100.5,33.7-94.2c11.5,2.4,24,8.8,35.7,2.6c-3.1-8-13.3-6.5-20.1-9.5c-51.1-15.9-46.4,35.7-51.3-28.9
				c0.7-7.2-5.1-14.3-0.1-21.2c16.1-25,60.6,0.2,61.5-17.8c-0.3-5.2-5.3-2-8.1-2.7c-16.8-4.6-45.2-3-56.3,10.1
				c-9.5-44-20.8-88-37.7-129.9c6.3,0.8,10.3-4,15.3-6.3c19.5-8.9,34,5.7,50.4,10.6c3.8,0.8,17.5,3.9,17.3-1.6
				c-2.2-5.3-8-3.8-11.8-6.2c-15.8-5.8-30.3-16.3-48.3-14.9c-0.7,0.1-2.1-1.1-2.3-1.9c-5.4-17-7.1-24.2,16.9-26
				c9.3-1.2,18-4,14.7-15.9c-1.8-6.4,3-12.4-0.8-18.9c-0.6-1,6.9-7.3,11.2-10.4c2.3-1.7,4.1,1.6,5.1,3.1c14.8,21,43.4,21.3,58.6,42
				c1.6,2,3.4,0.8,4.9-0.1c7.9-8.7-26.8-29.7-34-31.6c-10.5-4.4-17.2-13-26.3-18.8c6.4-6.4,12-18.8,20.8-7.1
				c6.1,11.9,17.4,15.5,28.5,19.5c2,0.7,5.7,0.8,5.8-1.9c-1.1-8.9-19.8-8-24-18c-3.1-5.3-13.6-7.4-10.5-13.8
				c8.4-17.8,23.5-21.3,41.8-13.4c11.5,5,18.5,15.2,28.5,21.8c22.6,8.2-22-40.3-49-35.3c14.4-18.1,29-35.8,43.4-53.8
				c2.9-3.7,3.6-11.6,8.3-10.8c20.3,5.2,33.8,24.2,52.8,32.3c3.9,2.7,7.2-2.7,3.5-5.3c-15.9-11.7-28.3-28.3-48.3-34.3
				c-3-0.9-3.3-3.1-1.5-6c5.6-8.9,11-18,16.4-27.1c1.3-2.1,1.8-2.3,3.8-0.3c9.4,9.3,18.6,18.7,23.6,31.4c0.9,5.5,11.6,7.3,9.1-0.8
				c-5.1-16.1-15.5-28.5-27.6-39.7c-1.3-1.2-2.6-2.1-1.2-4.4c3.3-5.7,5.4-12.5,9.6-17.4c3.4-3.9,4.3-17,14.8-6.7
				c4.1,4,9,13.3,13.8,8.3c1.9-2,1.5-4.3,0-6.6c-3.9-4.4-8.8-10.4-14.6-12.1c-3.4-0.6-2.7-2.8-1.8-4.4c5.4-10.3,10.6-20.6,16.5-30.6
				c2.3-3.5,5.3-9.6,2-12.1c-2.9-2.5-5.6,1.9-6.8,4c-50.2,85.7-99.8,173.7-173,242.3c-2.8,2.6-9.6,8.4-10.4,5.5
				c-2.8-10.4-10.6-16.5-16.8-24.6c16.5,0.5,53.3-70.4,23.5-70.5c-38.4-5,10.1-53.9-49.4-42.4c10.8-28.3,7.9-13.5,29.8-29.2
				c24-16.7,39.4-38.1,33.7-69.3c-1.2-6.5-1.8-17.8-11.3-15.1c-29.3,7.7-52.5,37.1-54.8,67.8c0,10.1,3.5,20.9-1.9,30.5
				c-3.9,7-2.7,17.6-10.2,21.1c-9.8,4.5-18,11-26.3,16.5c-5.4-7.7-5.9-17.4-12.7-24.1c-2.1-2-4.1-5.6-0.1-7
				c19.2-7.1,33-34.6,25.1-53.5c-5.9-11.9-18.4-7.9-28.1-8.9c-11.4-1.1-12.9-6.2-10.4-15.8c8.2-19.1-1.2-25.2-20.4-26.4
				c-17.6-1.7-33.2,3.8-46.8,15c-1.5,1.2-3.8,2.6-3.6-0.4c-7.2-25.4-25.5-47.8-53.8-50.4c-2.1-0.2-6,0.5-6.2,1.5
				c-2.5,9.7-4.4,19.6-6.7,29.4c-0.7,3.2-2.5,6.2-6.5,4.7c-7.7-2.9-15.3-6.2-23-9.2c-4.9-1.9-9-2.8-12.5,3.5
				c-12,16.1-16.7,37.9-7.6,56.4c2.5,5.1,2.5,8-2.7,9c-14.1,2.7-26.4,8.9-38.3,16.8c-12.8,8.4-17.7,29.3-6.7,34.8
				c15.8,7.9,16.3,16.9,6.4,29.7c-4.8,6.3-5.9,16-0.1,20.1c11.1,8.1,22.7,16.1,36.9,19.4c13.4,3.2,31.8-4.4,38.2,15.7
				c1.6,5.1,12.6,11.2-2.5,14.6c-8.2,1.8-20.7,6.4-16.7,17.4c20.1,56.3,56.9,41.2,50.8,55.4c-5.4,15.6-6.3,31.2,0.6,46.1
				c9.4,23.6,15.1,19.2,31.3,12.5c6.1-2.5,11.8-13.8,18.1-0.7c5,12,5.4,34.3,24.2,28.3c25.1-7.7,44.7-22.3,53.2-49.1
				c7.8,14.5,20.5,20.9,34.7,26.2c5.7,2.1,13.4-3.5,16,2.5c24.6,64.2,38.8,131.8,42.1,200.5c4.5,71.1-7.3,143.4-15.6,213.4
				c-9.6-9-19.5-18.4-29.5-27.6c-13.4-12.3-21.3-29.2-35.7-40.9c-4.1-3.3-12-3.7-12.2-12.5c-0.3-12.4-2.4-24.8-10.4-35.1
				c-2.8-3.7-0.4-5.3,2.7-6.7c14.7-6.8,26.6-17.1,36-30.2c13.1-15.3-30.8-9.3-13.7-45.3c1.6-3.9,5.7-8.3,1.1-13.6
				c-14-16.1-51.7-18.6-69.2-10.3c-3.1,1.5-7.6,5.7-7.4-3.3c0.1-4.6-4.3-9.2-4.9-14c-0.7-6.3-12.8-8-6.5-16.5
				c5.3-7.2,10.3-14.6,16.3-21c3.5-3.8,6.3-8.7,13.9-7.8c10.1,1.2,20.3,0.4,27.1-10.5c14.7-23.8,1.7-35.2-17.8-39.4
				c-15.4-2.8-32.7,23.8-22.9,37.3c2.4,3.5,1.2,4.6-0.8,7.1c-8.3,10.5-17.1,20.7-24.1,32c-39.3,51-53.8-33-86.8,30.6l-8.6-19.2
				c16.1-2.7,29.9-14.6,42.5-24.6c15.2-13.2,14.1-16-0.7-29c-5.2-4.6-21.5-7.3-9.4-20.9c2.5-2.9,5.3-6.2,6.2-9.8
				c1.8-6.6,8.3-14.7-1.1-19.8c-25.3-13.8-51.4-14.9-78.2-2.2c1.8-17-3.3-32.7-10.1-47.8c-2.4-4.8-2.5-14.3-11.2-11.5
				c-8.2,2.6-15.5,7.8-23.1,12.1c-11.5,8-20.6-1.9-26.8-11.3c-1-2.2-5.5-0.4-4-3.3c2.7-5.2,3.9-13.9,9.8-14.4
				c44.6-3.4,85.7-46.8,67.3-92.4c-0.7-2.2-2.5-6-6.1-4.9c-14.6,4.8-30.7,6-41.8,19.1s-24.7,24.5-26.3,43.9
				c-0.7,8.8,2.5,18.9-0.5,25.6c-5.7,12.6-11.9,26.1-24.7,34.6c-10.8-38-34-71.6-55.3-104.3c-4-6.4-16.1-8.7-11.1-21.1
				c5.5-13.7,0.8-26.4-12.1-33c-21.3-10.9-44,20.7-29.3,39.8c7.5,11.4,18.7,13.6,31.2,7.6c1.6-0.8,2.8-0.9,3.9,0.6
				c26.7,34.1,49.8,71.2,66.6,111.1c4,16.7-11.5,30.2-14.2,46.7c-0.5,2.2-1.8,3.7-4.7,0.6c-8.9-9.5-18.4-18.5-27.7-27.7
				c-6.4-6.3-17.8-12-18.4-18.7c-2.3-23.9-17-38.3-33.4-52.1c-17.7-14.9-39.4-13.5-60.6-12.8c-2.2,0.1-8.6-1.8-8.9,2.6
				c1.7,44,53.8,85.5,97.1,73.3c0.9-0.3,1.8-0.2,2.6,0.3c12.8,12,25.5,24.1,38.3,36.3c-8.5,1-17,0.5-24.1,3.3
				c-7.4,2.9-21.3,2.3-17.7,15.8c8.8,28.6-25.6,30.1-11.6,48.1c9.2,12.6,21.2,21,35.3,26.8c-1,1.1-2.7,1.3-4,0.7
				c-15.4-4.2-33.5,5.6-45.1,16.4c-1.6,1.6-3.8,3-4.2-0.1c-1.4-10.5-9.2-17.8-12.9-27.1c-14.4-35-34.1,5.4-38.1-2.8
				c-1-7-4.5-15.3-2-21c8-18.2,17.6-35.4,16.6-56.4c-1-21.7-15.1-43.5-35.7-50.4c-2.8-0.9-7.4-5.9-10.4-0.5
				c-9,16.3-17.8,32.5-15.6,52.3c4,57.2,41.4,44.8,36.8,77.3c-2.5-1.5-5.5-2.4-7.3-4.5c-20.9-21.7-23.5,15.7-28.2,3.9
				c-11.1-19.3-26-35.9-39.4-53.5c-17.1-16.8,18.1-20.4-0.5-48.6c-16.6-22.7-42-12.9-49.8,9.3c-3.3,9.2,6.7,34.2,19.8,34.2
				c7.2,0,15.3-3.1,21,6c7.1,11.2,17.9,20.3,23.5,32.1c6.9,14.5,28.2,23.9,18.5,44.1c-0.7,1.5,2.1,8.9,1.7,13.3
				c0.6,8.7-15.4-2.6-20.3-7.6c-9.6-10.4-26.4-12.1-32-28c-8.3-21.9-27.9-37.2-47.9-48.1c-13.4-7.5-27.7-5.1-41,0.1
				c-33.1,6.6-21.1,27.6-2.2,43.7c21.9,20.4,46.8,32.4,78.1,24.6c3.9-1,7.8-5.2,11.6-3.2c15.6,6.4,27.7,19.1,42.1,28
				c-19.4,3.3-38.7,3.7-53,18c-6.1,6.1-13.3,13-0.8,21.5c20.6,16.3-13.4,23.5-8.7,35.7c18.5,38.9,48.3,20.3,37.9,43.7
				c-4.4,10.4-2.6,22.4,1,34.3c10.7,37.1,32.2-6.4,41.6,13.3c5.3,9.2-3.1,10.3-6.4,14.1s-4.6,9.4-11.8,10.3
				c-17.6,2.1-33.4,11-42.3,25.4c-12.9,20.9-17.6,45-12.3,69.8c1.2,5.8,1.1,15.5,11,14.8c43.9-6.5,74.9-61.3,57.6-102.7
				c-3.5-7.1,5.8-11.2,9.5-16.2c1.7-2.3,2.9,2.9,4.4,4.6c18.5,19.1,52-10.2,62-27.4c1.1-5.3,1-14.4,10.7-5.2
				c9.7,14.7,78.1,23.5,67.1-5.1c-10.7-26.4,25.2-11.9,29.5-30.6c3.8-16.9-1.2-31.7-10.7-45.7c-2.7-4-10.3-7.4-7.2-12.4
				c4.5-7.3,14.7-9.4,19.7-19.1c-0.4,15.3,8.4,16.3,19.5,15.5c18.4-0.5,34.9-6.6,47.2-22.8c1.3-1.7,2.5-1.2,3.4,0.5
				c5.4,10.5,12.5,19.5,22.1,26.4c2,1.5,2.8,1.9-0.5,4.2c-5.7,3.9-15.9,5.3-15.2,14.2c1.8,23.4,14.6,39.2,36.5,47.7
				c0.8,0.3,1.8,3,1.4,3.3c-9.1,9.3-6.4,21-6.1,31.9c0.8,25.7-0.7,25.3,23.5,24.6c12.7-0.3,19.8,9,19.3,21.8
				c-2.1,22,34,9.3,45.7,4.5c14.2-6.7,24.2-17,32.4-29.2c8.6,6.9,17.9,14.2,27.1,21.6c5.2,4.1,14.3,2.2,16.9,10
				c7.4,27,8.6,55.5,20.2,81.4c8.5,21.5,18.5,42.5,18.6,66.2c-2.1,49.8,9.5,97.9,29.6,143.4c16.8,36.8,29,75.4,44.4,112.6
				c-20.8-7.4-40.6-18.8-63-22.8c-5.2-1.1-11.4-2.6-3.9-9.5c1.1-1,1.5-4,0.9-5.4c-9.2-20.2-23.1-33.6-47.6-36.8
				c-13.8,0.6-0.3-9.5-2.1-24.2c1.8-46.1-34.1-10.6-38-21.9c-1-5.8-1.7-11.7-2-17.6c-1.7-29.7-57.6,1.4-61.9,18.7
				c-4.7,9.3-9,7.8-15.1,2.9c-1.1-0.9-3.1-2.4-1.2-3.6c8.8-5.9,14-14.4,17.1-23.9c6.4-19.2,9.6-29.7-12.7-33.8
				c-21.9-3.4-2.8-15.2-5.7-26.5c-5.3-13.7-18.3-16.8-30.4-17.7c-32.2-3.9-52.4,18.4-54.2,9.2c-5.4-14.4-13.9-27-22.7-39.3
				c-1.2-1.7-6.2-3.2-3.9-4.6c7.1-4.3,14.6-12,23-9.2c39,11.6,87.7-2.9,100.2-44.4c2.4-6.7,2.8-15.5-5.5-20
				c-31.6-8.3-65,12.2-87,33.4c-11.5,13.2-19.9,30.1-40,32.6c-2.8-12.2-19.8-16.3-16.6-32.7c2.8-14.2-4.7-26.9-11.5-39.2
				c-9.9-18-23.1-31.4-44.8-32.8c-4.4-0.3-12.2-1.7-13.1,4.4c-2.5,17.4,1.1,35.1,10.3,50.1c10.2,17,21.9,34,46,32
				c3.2,0,28.5,21.1,21.7,24.7c-10.2,8.1-16.8,34.6-32.6,19.3c-6.1-4.4-19.2-13.3-25.7-4.7c-11.5,13.3-14.5,29.7-16.3,46
				c-19-4.7-37.5,0.7-54.5,8.9c-18.1,8.5-21.2,15.6-9.5,29.4c7.6,8.9,6.2,13.4-3.4,16.7c-10.3,3.5-9.6,20-23.6,18.8
				c-5.5-0.5-11.9,9.7-16.5-2.1c-5.2-13.2-14.3-23.3-25.7-31.8c-16.3-12.1-20.5-13-27.5,1.2c-7.3,14.8-13.1,20.5-25.5,4.4
				c-3.4-4.4-12.8-5.8-17.1,0.6c-12.4,18.3-23.4,37.4-16.4,61.1c0.4,1.4,0.6,2.8-1.9,3.6c-16.2,7.4-44,9-46.4,30.4
				c-1.6,14.4,34.6,15.7,12.2,35.7c-27.9,17.5,13.5,48.3,34.6,46.2c3.9,0.1,4,1.2,3.7,3.9c-5,32.2,24.4,88.8,55.5,51.1
				c7-7.1,10.1-3.3,14.7,2.7c3.8,4.8,2.4,16.8,12.5,13.4c13.9-4.6,23.4-15.4,32-27.5c6-8.4,1.4-26.4,22.3-23.3
				c14.6,2.2,29.4-4,41.2-14.2c0.2-0.2,1.6,0.5,2,1.1c17,24.4,50.3,16.3,44.2,42.3c-1.5,7.5-0.8,13.7-10.6,13.6
				c-10.5,0-19.8,8.3-31.4,2.9c-38.5-17.8-81.6,6.4-99.4,42c-14.6,21.9,13.8,24.1,29.3,24.4c9.1,0.5,18.6-3.8,27.8-6
				c18.3-4.5,31.2-16.1,42.2-30.9c4.7-6.3,0.9-18,12.8-19.7c7.3-1,14.9-1.7,21.6-4.4c20.2-8.7,11.6,18.3,22.3,16
				c4.2-2.5,9.1-2.9,13.5-4.9c5.6-2.4,13.5-7.2,19.2,0.1c8,10.3,19,20.3,10.1,35.4c-2.6,4.4-2,14.1-7.1,12.7
				c-23.3-8.5-39,25.3-26.6,41.3c5.5,6.8,13.4,10.3,22.5,6.7c10.4-4.1,18.6-10.7,17.3-23c-1.4-12.5-8.1-24.7,2-36.8
				c3.2-3.9,2.6-13.3,5.9-14.5c19-7,29.9-21.3,38-38.6c2.1-8.4,14.1,12.7,36.7,13.8c44.9,2.1,6.9-30.5,28.8-39.7
				c5.2-1.2,14.3-1.8,15.8,0.8c5.5,9.5,13.8,15.1,22.3,20.8c2.1,1.4,6.3,1.8,4.9,5.5c-1.7,4.2-3.1,8.9-8.6,10.3
				c-32.4,9.1-51.5,42.8-49.6,76c2.2,57.4,52.4,3.1,63.1-20.8c23.7-32.7-15.5-52.3,15.9-75.2c0.6-0.4,0.5-2.2,1.1-2.4
				c4.8-1.7,3.5-13.4,11.1-8.3c6.6,4.4,12.3,11.3,16.3,18.3c10.5,18.6,28.7,36.8,39.4,53.9c-10.1,31.1,37,45.7,48.7,19.1
				c8.5-20.3-19.3-44.7-38-31c-3.3,2.2-5.9,2.3-8.5-1.5c-9.9-14-20.1-27.7-30.1-41.6c-1.3-1.8-1.6-3.1,1.1-4.5
				c18.7-9.9,29.3-25.7,31.6-46.4c0.7-6.3,2-7.8,8-7.7c4.8,0,4.2,4,6.2,5.9c17.8,17.6,36,34.6,56.1,49.8
				c107.3,67.8,156.5,70.3,144.3,215.4c-0.1,4,0.3,9.3,4.1,12.1c2,1.5,3.4,0.2,4.2-0.9c5.1-5.8,2.1-13.6,2.6-20.5
				c0.8-15,2.5-30,2.4-45c0-6.4,2.8-4.6,5.8-4c24.6,6.5,51.4,5.7,75-4.7c2.4-1.2,7.7-1.9,5.3-6.3c-6.2-6.4-17.6,4.6-24.9,4.2
				c-15.9,0.7-32,3.6-47.7-0.1c-31,0.1-6.6-22.5-35.9-69.3c37,7.5,66.9,7.8,101.3-10.5c3.5-1.8,8.7-4.1,8-8.9
				c-0.3-2-4.8-0.7-7.8,0.5c-27.3,13.3-58.1,17.6-88.1,12.4c-11.6-1.7-23.1-4.3-32.2-12.6c-17.6-16.1-37.9-28.1-58.8-39.4
				c-41-21.1-78.8-45.8-110.1-80.3c6.1,2.7,9.1-2.1,13.3-3.6c17.4-6.4,20.1-17.9,7.2-30.9c-2.3-2.6-7.9-6-5.7-9.8
				c5.1-10.3,66.6,18.8,76.9,23.5c6.3,3.3,14.7,2.6,18.9,10.1c6.3,11.3,12.7,22.7,23.3,30.8c1.3,1,2.4,3.8,4.4,1.7
				c1.6-1.5,1.9-3.9,0.7-5.7c-8-13.7-18-26.3-23.6-41.5c-6.9-18.9-15.5-37.3-22.1-56.3c-1.4-4-7.2-9.8-3.2-12.9
				c5-3.9,12.3-5.4,18.9-6.4c16.8-2.6,33.7-6.2,50.5-6c26.4,0.3,47.4-10.9,67.6-25.6c2.5-1.8,7.6-2.3,4.6-6.5c-2.1-3-6.6-1-9.3,0.9
				c-36.1,28.7-81.5,17.3-122.7,30.2c-4.5,1.4-10.8,9.7-15.1,1.4c-7.5-14.8-14.1-30-19.8-45.6c-2.2-5.9-8.7-13.2-2.4-19.4
				c28.6-25.3,70.7-22.2,102.7-41.8c9.3-2.9,2.1-8.9-4.6-5.3c-31.4,14.8-67.3,13.6-96.3,34.2c8.6-18.2,5.1-37.2,1.7-55.8
				c-0.5-3-1.3-9.5-6.9-9.1c-3.5,0.2-3.3,4.1-2.5,6.5c6.5,21.2,5.3,42.3-1.6,64.2c-7.3-19.3-12.1-38.4-13.8-58.6
				c-0.3-4.9-6.5-13.1,3.9-16.1c44.4-11.6,42.6-53.4,95.4-61.7c11.5-2.3,23.9,0.2,34.1-7.7c12.3-9.5,24.5-19,41.6-16.8
				c3.6,1,10.1-7.2,3.4-8.1c-10.1-4-34,2.6-41.2,10.9c-3.9,4.5-9,7.8-14.7,9.5c-12.8,4-26.5,0.5-39.3,7.4
				c-12.5,6.7-27.2,10-36.9,20.9c-10.8,12.1-20.2,25.6-35.6,32c-3.3,1.4-12.1,12.2-13-1.8c-0.7-11.3,0.6-23,10.9-31.3
				c4.1-3.4,7.6-7.4,10.4-11.9c25.1-45.4,82.9-19.2,98.7-71.7c22.8-66.2,64-2.4,95-35.9c2.2,9.4-1.5,18-1.3,26.8s-1.2,15-12,7.7
				c-22.2-5.4-48.7-4.5-67,12.7c-6.6,4.1-0.8,12.4,5.2,7.8c3.2-2.5,6.4-5.2,10-6.7c10.8-5.8,68.8-14.8,59.9,9.4
				c-16.4,84.6-5.1,23.4-72.7,66.4c-15.8,9.7-29.4,23.2-49.5,24.8c-2.3,0.2-9.9-2.4-9.8,4.2c0.4,13.1,39.5-2.6,44.8-7.4
				c16.2-12.2,33.2-22.2,52.4-28.6c6.6-2.2,15.8-6.5,19.6-1.2s1.7,17.1-3.4,20.9c-45.2,40.3-86.2,29.5-138.7,45.6
				c-6.1,0.3-17.9,14.9-4.9,11.8c57.3-19.2,93.6-3.9,145.3-47.4c0.8,1.6,2.3,3.3,2.2,4.8c-0.8,6,3.7,11.1,3.2,16.5
				c-0.9,10.7,16.3,19.8,1.3,31.8c-40,36.1-96,24.9-140.1,50.2c-3.3,2.2-2.8,7.9,1.4,6.3c46.2-18.2,101.5-12.8,140.1-48.1
				c1.8-1.7,6-9.3,9.9-3.1c4.5,7,6.8,15.3,10,23.1c0.6,1.4,1.3,2.7-0.8,4.1c-36.9,25.8-82,35.6-125.8,42.3
				c-9.2,1.5-19,4.2-25.3,12.6c-0.9,1.2-2.4,2.2-0.5,3.7c0.8,0.6,2.2,1.3,2.8,1c26.1-13.2,56.2-8.8,83.2-19
				c18.5-7.1,37.6-12.2,54.9-22.4c5.8-3.4,13.3-21.1,21.3,0.2c6.1,16.3,15.9,31.3,24.2,46.8c1.6,3-0.9,3.9-2.1,4.5
				c-12.6,6.6-25.2,13.4-38.2,19.2c-42,21.7-44.4,8.9-81,16.3c3.6,10.8,39.7,7.3,49.4,5c26.7-6.2,50.7-18.6,73.2-33.9
				c1.6-1.1,2.9-1.4,4.4,0.6c11.7,15.7,18.7,34,28.7,50.6c2.4,4,2.3,8.2-3.8,8.2c-18.4,0.1-33.5,10-49.4,16.9
				c-24.8,10.8-49.6,20-77.3,17.5c-1.3-0.1-3.3-0.7-3.4,1.7c-0.1,1.8-0.4,3.8,2.2,4.3c6.3,1.3,12.6,4.1,18.8,3.8
				c43.3,1.5,92.4-44.1,123.9-34C975.6,1280.2,983.4,1274.6,976,1269.7z M769.6,160.9c7-9.3,17-14.3,26.7-19.2
				c3.4-1.8,3.9,6.1,4.5,9.6c4.5,31.6-17.6,48.9-41.3,66.3c9-19.7,19.7-34.1,29.4-49.1c5.7-5.8-0.4-10.9-5.5-5.7
				c-11.3,12.8-19.6,27.8-28.7,42.2c-1.5,1.2-2.7-1-2.8-2.2C752.2,186.4,760.1,173.5,769.6,160.9z M516.3,305.8
				c-15.7,8.9-45.9-6-57.7-17.9c-7.4-7,0.8-8.6,2.4-12.4c23.5-41.9-30.6-28.2-10.2-52.8c10.2-12.1,24.3-18.7,39.4-21.3
				c32.1-2.9-10.4-25.5,11.6-60.7c11-20.1,18.5,1.3,27.5,1.5c12.6,0.2,21.2-3.2,21.8-16.9c-0.1-14.8,3.8-23,17.8-13
				c13.6,5.4,19.3,18.5,26,30.4c19.5,38.8,6,5.1,49.9-1.1c6.3-1.4,13.6,1.1,20.2,2.9c5.9,1.6,7.2,5,4.4,11.5
				c-10.2,18.7,5.8,31.3,24.4,27.5c4-0.5,11.4,0.6,11.8,2.2c7.1,25-3.3,32.8-21.2,46.9c-0.5,0.5-2.8,0.2-3.5-0.5
				c-14.4-15.5-22.4-0.2-30,9.5c-7.2,11.4-12.7,11.1-19.3-1.2c-3.4-5.8,6.3-0.2,13.1-7c5.5-10.8-41.4-1.6-32.5-9.9
				c6.6-6.2,42.7-22.5,37-31.1c-2.7-4.5-6.2,1-8.7,2.6c-10.9,6.8-21.5,14.1-32.2,21.2c-2.8,1.9-10-5.4-8.6-8.6
				c3.2-9.4,7.4-18.8,7.3-29c0.9-6.8-7.7-7.6-7.9-1.2c-0.4,8.9-7,16.1-6.5,25.3c0.2,3.2-2.9,4.7-6.4,4.3c-6.3-0.8-12.6,1.2-15.7-8.5
				c-3.7-11.5-11-21.8-17-32.5c-0.9-1.5-3.9-3.2-5.4-0.9c-4.8,7.5,13.1,34.3,16,44.1c0.2,1-0.2,2-0.9,2.6c-1.8,1-2.7,4.2-5.5,3
				c-9.7-4.3-19.5-8.5-29-13.1c-3.2-1.5-4.5,0.4-5.6,2.1c-0.9,1.6-1.1,4,1.3,5.1c8.9,4.1,17.8,8.6,26.9,12.2
				c7.1,2.8,2.4,8.1,3.3,12.1c0.6,3.1-3,1.3-4.8,1.8c-13.5,3.4-27,6.8-40.4,10.5c-1.8,0.5-4,3.6-2,5.7c3.7,3.8,8.7,2,13.1,1.2
				c12-2.2,23.9-4.9,35.8-7.4c3.5-0.7,4.6,2.5,5.8,4.4c0.6,0.9-1,4.1-2.4,5.4c-6.3,5.8-11.5,12.8-15.3,20.4c-0.9,1.8-2.9,3.7-0.3,5
				c2.1,1.1,4.8,3.7,7.1,1c6.7-7.6,13.4-15.2,19.5-23.3c1.2-1.6,1.4-3.4,3.8-2.8c7.7,2,3,14.7,4.2,22.7
				C588.3,307.2,549.4,280.4,516.3,305.8z M584.2,246.9c-28.1,3.4-25.9-33.7,0.7-31.5C606.9,215.4,609.7,250.4,584.2,246.9
				L584.2,246.9z M691.9,449c-10-14.1-13.5-3.6-16.5,4.1c-8.6,22-25.4,33.7-47.1,39.7c-5.7,1.6-9.1-1.3-9.1-7.1
				c0-7.8-3.9-14.4-7.5-20.5c-12-19.3-26.3,7.3-36.9,7.4c-16.2-15.4-14.4-39.7-8.2-59.7c3.5-11.6-9.7-9.2-15.5-11.7
				c-18.3-7.9-28.4-23.1-35.3-39.9c-4-9.9,8.9-7.2,14-10c24.5-11.6,1.3-21.1-4.2-35.9c-2.6-5.8,3.9-6.9,7.1-8.3
				c13.1-5.7,27.1-6.1,41-4.3c16,2.1,19.8-1.1,21.5-16.9c1.9-17.3,9.9-31.6,23.9-42.1c4-3,5.6,1.7,7.6,3.6
				c3.7,3.4,6.5,7.9,10.5,10.9c8.7,6.6,13.8,1.1,17.9-6.4c15.2-38.1,31.8,1.6,40.2,20.2c9,22.2,21-15.9,61.6-17.1
				c28.9-5.3-7.8,38.6,34.5,41.4c5.8,0.9,6.4,3.7,5.4,8c-4.8,21.9-15.8,39.8-34.6,52.5c-1.8,1.2-1.5,2.5,0,4
				c15,16.1,25.3,36.7,23.3,58.7c-0.1,5-6.9,2.9-10.4,2.9c-19.5-1.7-29.2,10.8-20.2,29.4c4,17.5-11.4,14-19.4,16.5
				C715.8,474.8,702.3,463.8,691.9,449z M635.3,589c0.9-8.1,3.4-16.3,14.1-15.9c21.5,0,15.1,29.5-6.9,28.1
				C637.4,601.5,634.5,596,635.3,589z M434.7,389c7.4-6.4,16.6-7,25.4-9.3c2.1-0.5,2.5,1.2,2.9,3c7.1,38.5-22.7,69.3-55.7,74.8
				c13.3-17.1,27.3-34.9,40.6-52.4c1.9-1.9,2-5,0.1-6.9c0,0-0.1-0.1-0.1-0.1c-2.5-2.8-3.8,0.7-4.8,1.9
				c-13.2,15.3-26.2,30.7-39.9,46.9C402,420.9,417.1,404.3,434.7,389z M277.2,376.4c-16.4-1.4-14.5-34.7,4.8-32.3
				C299.9,343.9,296.9,376.7,277.2,376.4z M288.5,489.7c-18.8-16.3-39.6-32-61.8-43.1c-6.9,0.6-4,7.6,0.6,9.9
				c17.1,12.5,34.3,24.8,51.3,37.2c1.1,0.8,1.5,2.7,2.2,4c-34.6,0.9-66-25.2-77.4-58.3c8.4-3,15.8-1.8,24.1-0.5
				c9.3,1,18.6,1.5,27.4,5.8C267.6,450.8,290.5,480.6,288.5,489.7z M102.5,555.4c-26.6-0.9-22.2-36.4,0.7-36.2
				C124.3,520.3,123.8,554.3,102.5,555.4L102.5,555.4z M41.7,609.7c19.3,6.8,37.7,15.6,55.2,26.3c-36.8,10.8-75.5-9.5-91.1-42.8
				c-1.8-4,2-2.2,2.9-2.7c37.7-23.1,71.2,4.4,91.5,37.3c-10-5.5-58.8-31.8-63.7-23.4C35.1,607.7,39.1,608.9,41.7,609.7z
				 M118.2,957.1c-18.6,12.8-21.2-2.6-18.1-13c1-11.8,0.7-24,4.8-35.6c6.7-17.3,21.2-35.1,39.8-37.3c-6.7,12.4-39.2,59.5-27,70.2
				c1.1,0,2.9-0.7,3.2-1.5c8.5-23.1,19.6-45.4,33.8-65.5C166.7,899.4,147.5,945.6,118.2,957.1z M195.4,525.2
				c-3.8-8.5-11.6-2.8-8.1,4c7.2,19.1,5.9,39.7,11.4,59c0.6,2.2-2.1,4.2,0.1,6.6c-30.9-20.5-32.7-63.7-14.8-93
				c34.8,21,40.4,39.6,23.8,84C202.7,565.1,202.5,544.5,195.4,525.2z M340.8,697.4c-4.2,23.9-41.6,29-25.1,37.8
				c12.2,6.3,24.4,35.4,20.4,48.8c-5.9,14.9-41.4-2.6-29.5,33.2c1.9,5.2-1.6,8.6-6.2,9.3c-21.2,2.9-39.9-2.6-55.4-18
				c-3.4-3.4-6.6-1.8-8,2.1c-7.3,20.9-21.3,37.8-44.9,41.7c-20.1,0.1-9.1-47.8-48.3-25c-5.4,3.1-7.3-0.5-8.3-2.9
				c-15.3-33.3,13-54.8-2.9-55.5c-16.3-1.8-27.2-11.5-35-24.8c-2.7-4.5,3.8-6.2,6.1-8.8c10.6-12.4,10.2-20.1-2.3-30.7
				c-1.2-1-2.6-3.9-2.2-4.3c18-25.7,63-12.5,65.4-23.3c-1.4-19.4,4.9-38.6,17.6-53.3c36.5,40.2,46.4-24.1,56.3,8.3
				c7.1,11.3,12.7,23.6,19.1,35.4c1.1,2,3.3,2.5,5.4,0.3c12.5-14.2,36-29.8,54.8-18.1c1.5,1.6-1.9,7.3-1.9,11.1
				c-2.5,18.5-5.5,36.1,21.2,32.3C340.9,692.9,341.6,694.6,340.8,697.4z M421,695.4c-1-1.7-3-2.9-4.5-4.4c-9.8,16-36.3,32-57.9,27.8
				c-8.6-7.1-3.1-21.4-10.2-30.3c-13.7-14-30.5,11.4-24.7-24.8c1.5-8.5,6.5-16.2,8.8-24.3c3.3-11.5-9.5-7.7-14.2-9.8
				c-13.6-6.3-24.9-14.6-32.6-27.1c-4.5-7.3,22.3-13.5,15.1-34.7c-5.2-15.1,7.8-11.5,14-14.7c10.7-5.5,21.8,0.5,32.8-0.6
				c9-0.9,7.6-8.2,8.7-12.2c5.2-18.1,14.4-34.9,27-49c11.3-10.3,12.5,34.9,47.6,10.2c9.7-6.3,20.1-9.6,22.1,6.2
				c2,13.7,5.1,27.3,8.1,40.9c0.6,2.6,2.8,2.8,5.9,1.4c23-10.3,46.1-11.2,69.1,0.1c10.8,5.3,1,11.7-0.9,14.8
				c-31.6,41.1,34.5,30.7,5.4,55.7c-11.1,9.4-23.7,17-37.1,22.5c-5,2.1-7.2,5.2-2.7,11.2c6.9,9.2,7.9,20.5,8.4,33.8
				c1.9,5.6-2.7,11.9-4.8,18.6c-3.5,11.2-11.7,3.7-16.1,1.9c-14.5-5.8-22-2.3-24.5,13.3c-2.3,14.3-11.2,7-16.8,3.6
				C435.3,718.4,427.8,707.1,421,695.4z M622.6,862.4c-0.6,3.8-0.1,7.4-0.7,11.3c-28.8-4.7-40.3-42-50.8-26.5
				c-11.6,20.8-30.4,29.6-53.1,33.7c-16.7,3.1-9.9-11.7-12.3-18c-4-10.5-21.8-20.9-32.2-15.4c-6.5,3.4-7.7-0.3-8.2-4.8
				c-1.6-14.2-2-27.7,5.2-41.5c4.6-9-8-10.5-13.2-13.7c-13.8-8.5-21.6-20.4-23.6-35.8c-0.6-4.7,6.6-5.3,9.9-8.2
				c11-14,20.1,7.5,27.8-14.8c8.2-29.9,28,8.7,43-19.6c1.9-3.9,2.9-8.2,2.9-12.5c0.2-17.9,9.5-31.3,22-42.8c3.1-2.9,6-4.4,10.1,0.6
				c12.8,15.3,31.5,17.9,46.8,3.1c10.4-10.1,11.8,2.8,14.7,7.9c3.2,5.5,3.9,12.4,6.5,18.4c1.7,4,6.2,5.3,9.5,2.6
				c14.9-12,49.5-8.4,62.9,2.7c4.7,3.9-0.8,7-1.7,9c-19.7,34.9,28.5,35.2,9.4,49c-10,6.6-17.3,16.9-29.5,20.8
				c-3.9,1.2-7.1,5.9-3,12.4c9.5,15.4,13.2,32.4,8.5,50.6c-1,3.7-3.2,3.7-6,2.9C646.3,828.1,626.2,841.1,622.6,862.4L622.6,862.4z
				 M478.4,969c19.9-4.1,30.8,0.7,17,17.1c-9.9,23.8-51.2,38.9-73.7,30.6c16.8-8.2,36-11.5,49.9-25.5c6.4-2.8,0.4-8.7-4.1-5.9
				c-17.6,9.9-34.1,19.6-54.1,24.4C432.1,988.1,452.5,974.1,478.4,969z M350.5,990.8c-9.4-8-27.7-45.8-38.6-43.9
				c-2.6,2.2,0.1,3.8,1.2,5.4c10.3,15.3,20.6,30.6,32,47.6c-29.5-11.6-41.5-36.6-46.1-64.7c-1.2-8.2,4.4-7,8.4-5.6
				C333.5,938.3,349.5,963.8,350.5,990.8L350.5,990.8z M251.3,1408.5c-19.6,23.5-57,38.8-85.2,26.2c-2.6-7.2,4.8-13.1,9.1-18.3
				c18.3-22.3,46.8-38.8,76.2-28.3c-24.3,10.9-49.3,18.7-70.4,34.6c-1.5,1.7-5.5,2.7-3.5,5.5c2.1,3.1,6,1.5,8.4-0.1
				c15.6-10.1,32.6-16.9,49.7-23.8c6.3-1.7,12.7-7.3,19.2-6.2C253.7,1401.5,253.5,1405.9,251.3,1408.5z M356.1,1466
				c-0.4,8.4-1.4,19-14.6,19c-7.9,0-10.6-4.4-10.5-12.9c1.9-7.7,2.2-17.7,14.7-19C355.4,1452.1,356.3,1461.8,356.1,1466z
				 M628.7,1427.6c22.1-1.9,27.8,33.5,3.2,30C612,1458.7,608,1428.2,628.7,1427.6L628.7,1427.6z M234.9,1155.2
				c25.8-12.1,3.6-25.7-0.7-37.6c5.9-6.9,15.2-9.1,23.6-12.7c24.4-11.8,49,5.2,45.3-6.4c-0.1-15.8,4.7-31.3,13.8-44.3
				c6.7-10.2,21.3,21.4,36.5,10.6c8.7-5,11.8-15.4,17.5-23.3c1.6-2.1,1.6-2.8,4.1-1.3c17,9.7,21.8,27.9,29.5,43.7
				c6.6,19.5,38.6-23,79.8-0.7c9.3,4.7,1.3,10.4-0.2,14.5c-4.9,12.9-1,19.9,13.2,21.3c26.1,2.1,2.9,40-10.6,47.3
				c-9.6,5.6-1.9,12.6-1.6,19c9.6,33-9.8-8.9-61.6,21.8c-7,3.3-8.3-5.5-9.7-8c-4.6-8-11.6-13.8-16.7-22.1c12.8,0,25.3,0.3,37.6-0.2
				c3.3-0.2,9.6,3.8,9.9-2.7c0.3-6-7.2-4.6-10.3-4.8c-14.9-0.9-29.9-0.4-44.9-0.5c-0.8,0-1.6-1-2.4-1.5c1.1-1.4,2-3.4,3.5-4.1
				c13.9-6.3,27.9-12.3,41.6-18.8c1.9-0.9,2.5-4.4,3.7-6.8c-11.7-2.8-37.6,14.2-50.9,18.4c-3.4,1.5-3.7-2.6-5.6-3.8
				c-0.9-0.6-3.5-2.3-1.6-5.3c6.3-9.8,12.1-19.9,18.2-29.9c4.3-6.4-2.8-11.3-6.2-4.3c-6,9.6-12,19.1-17.7,28.8
				c-1.6,2.7-4.1,4.8-5.9,3c-2.3-2.4-7.2,0.6-7.9-6.7c-1.2-13.1-1.1-26.9-7.2-39.2c-3.3-6.1-7.5-2.1-6.1,3.1
				c1.9,11.4,4.2,22.7,5.7,34.1c0.4,2.7,2.4,6.9-1.9,8.8c-5.8,2.7-9.1-1.4-11.7-5.5c-5.5-8.5-11.5-16.4-19.5-22.5
				c-1.8-1.4-3-2.8-5.2-0.1c-1.9,2.3-1.3,3.1,0.4,5.2c7.6,9.3,14.7,19,22.4,28.2c4.1,5-3.5,6.5-2.4,10.3
				c-9.3,3.3-60.4-17.2-60.6-9.7c-0.4,3,2.7,3.4,5.1,4.7c10.1,5.8,21.4,7.6,32.3,10.6c8,1.7,17.1,0.3,21.1,9.3
				c-12.3,6.9-25.8,11-38.7,16.6c-2.3,1-5.8,3.5-3.5,5.7c3.3,3.2,9.1,3,12.2,0.4c3.6-3.1,8.3-1.9,11.5-4.7c0.8-0.2,1.6-0.1,2.2,0.4
				c0.5,0.8,0.5,1.8,0.2,2.7c-5.2,8.6-6.4,18.6-7.2,28c-0.8,9.2-5.5,9.3-11.9,10.1c-6.7,1-13.2,3.5-19.8,5.2
				c-3-8.4,11.5-39.1-4-36.9C253,1206.3,203.9,1166.1,234.9,1155.2L234.9,1155.2z M376.4,1165.9c0.9,25-30.3,32.6-35.8,6.4
				C340.1,1151,375.3,1145.1,376.4,1165.9L376.4,1165.9z M250.4,1311.6c-9.4,10.5-31.1,15.8-47.1,15.1c-16.6-5.7-8.4,33.9-41.5,47.8
				c-7.3,3.4-6.6-6.3-9.4-9.8c-7.6-9.6-16.2-10.5-24.8-1.6c-1.9,2-3.8,4.8-6.1,5.4c-3.9,1.1-4.9,7.7-9.1,5.8
				c-8.4-3.8-14.8-10.5-19.2-18.7c-18.4-30.8,7.9-55.7-16.6-48.4c-17.6-0.2-28.6-10-37.6-23.4c-1.5-2.3,0.1-3.9,2.5-5.3
				c18-10.7,18.6-24.6,1.7-37.1c-13.3-5.9-1-17.6,7.9-20.2c10.1-3.8,20.7-6.3,30.6-10.5c7.3-3.1,1.5-8.9,0.4-12.8
				c-4.5-15.8,5-41.1,16.7-50.8c2.5-2.1,4-1.6,6.4,1.1c15.1,16.7,24.1,13.1,33.9-4c1.9-3.3,2.4-9.3,6.5-8.7
				c20.5,5.7,28.8,29.2,40.2,44.8c2.4,3.3,9.1,1.2,12.4-1.8c36.4-18.7,2.8,17.3,69.9,32.5c2.5,0.7,3.3,0.2,2,3.4
				c-8.5,14.7,5.4,31.1-11.8,38.2c-5.6,2.7-3.5,5.6-1.7,8.7c2.6,4.4,5.6,8.6,8.5,12.8C276.3,1292.3,236.6,1289,250.4,1311.6z
				 M489.1,1340c-0.2,4.8-2.2,5.5-5.8,5.2c-20.6-1.6-28.1,15.6-22.8,32.6c3.1,10-5.2,6.3-9.1,7c-12.8,0.9-22.8-4.4-31.5-12.1
				c-12.2-10.9-15.1,0.1-19,7.9c-6.6,13.2-15.4,24.1-30.2,28.1c-6.7,1.8-5.3-6.1-7.1-8.8c-11.2-17.8-20.3-19.7-38.9-11.3
				c-13.2,6-11.7-9.3-13.1-15c-1.9-8-3.4-16.8-1-25.9c6.2-20.6-30.5,5-53-44.3c10.9-13.5,27.8-13.7,14.7-36.2
				c-1.7-2.9-7.7-5.6-5.2-8.3c4.5-4.8,9.2-10.1,16.3-12.2c9.5-2.8,18.7-5.6,28.8-4c8.7,1.7-5.1-26.4,16.4-50.3
				c4-4.9,7.3-7.2,12.7-1.7c13.1,13.5,31.9,9.9,39.5-7.3c2.5-5.6,5.7-0.3,6.9,0.7c9.4,7.5,16.6,17.2,23,27.3
				c10.4,19.9,34.3-20.7,64.9-4.6c6.9,3.6,0,8.1-0.4,11.8c-1.4,10.7,7.8,23.9,18.5,24.3c2.9,0.1,6.6,1,6.8,3.5
				c0.3,6.7,0.4,13.1-3.1,20c-5.7,11-16.6,14.8-25,21.8C456.7,1299.7,491.8,1309,489.1,1340z M523.1,1418.7
				c-4.3,28.6-20.1,50-43.6,65.7c-8.6,5.7-7.7-4.3-8.3-8.4c-5.3-29.3,8.9-56,32.7-72.6c1.1-1,4-0.7,2.3,2.6
				c-6.5,17-14.3,33.7-21.1,50.6c-0.6,1.4,0.3,3.4,0.5,5.1c4.4-1.7,9.3-3.6,11.1-7.9c6.5-15.4,12.2-31.1,18.4-46.6
				c0.8-2,2.7-5,3.9-4.9c3.1,0.2,1.1,3.5,1.8,5.3C522.4,1411.1,523.9,1414.6,523.1,1418.7L523.1,1418.7z M648.5,1262
				c-18.4,10.7-18.7,12.7-4,27.6c2,2,6.6,4,4.8,7c-3.8,6.3-9.6,11-17.2,12.2s-15.5,1.3-23.1,2.7c-8.4,1.6-4.5,9.1-5,13.8
				c-1.7,18.3-12,29.8-26.5,39.8c-11.1,7.7-13.2-2.5-16.7-7.1c-25.1-28.1-20.8,35.6-52.2,1.7c-14.6-11.3-8.4-28.3-14.8-42.6
				c-21.5-34.9-25.2-12.5,21.4-40.3c2.3-1.1,5-3.7,7,0s5.9,7.2,1.1,12.5c-7.1,8.3-13.9,18.4-20.1,27c4.5,5.9,9,2.2,11.5-2.5
				c6.6-7.9,12-16.7,18.7-24.5c1.4-1.6,5.9-0.6,8.9-0.7c-3.9,11.5,0.4,22.3,1.8,32.9c0,6.9-1.5,14.8,7.7,17.2
				c7.4-16-9.8-45.6,1.6-55.4c7.2-0.2,20.7,13.1,28.1,16.9c2.1,1.4,4.4,4.6,7,0.8c2.5-3.6-1.1-4.9-3-6.4c-7.4-6-14.8-12.2-22.7-17.5
				c-5.1-3.4,1.5-6.4-0.7-9.3c12.2,6,25.5,0.9,37.8,4.2c3.1,2,7.2-1.3,6.7-4.5c-4.3-6.2-37.1-4.1-45.3-8c0-1.8,0.1-4.5,1.3-5.3
				c9.9-6.6,14.7-18.6,25.8-24.1c6.7-4.2-0.1-12.8-5.9-6.3c-8.3,7.3-16.3,14.9-24.6,22.3c-0.7,0.6-1.1,4.4-2.6,1.5s-7.3-2.7-5.2-7.9
				c6.4-15.3,12.7-30.6,18.7-45.9c0.5-1.2-1.1-3.2-1.7-4.8c-10.2,0-21.7,39.8-24.4,49.6c-1.1,4.6-5.3,1.3-8,2
				c-1.5,0.4-3,0.5-3.9-2.3c-3.7-11.6-7.8-23-12.3-34.4c-0.6-1.3-4.3-3-5.7-2.4c-4.8,3.9-0.3,8.5,0.7,12.2
				c2.9,10.4,7.4,20.4,11.1,30.7c0.3,0.8-1,2.1-1.5,3.2c-0.9,1.7-1.5,1-2.5,0c-8-8.2-17.4-12.9-28.8-15.5
				c-14-3.3,11.6-18.9,2.5-55.8c6,8.3,11.1,12.4,17.9,14.9c4.3,0,4.7-7.9,5.9-10.7c8.9-19.4,25.8-27.5,44.6-31
				c8.8-1.7,4.9,8.6,5.5,13.4c-0.9,14.5,6.5,23.3,21.2,16.2c4.1-1.9,9.4-7,13.1-2.9c10.7,11.3-3,28-1.3,41.2
				c-0.1,9,9.8,4.8,15.1,4.8C629.6,1223.2,674.3,1251.6,648.5,1262z M506.4,1270.4c2-4.3,2.7-15.4,6.4-17.3
				C522.3,1259.9,516.3,1269.6,506.4,1270.4L506.4,1270.4z M527.1,1261.9c0-17.3,28.2-15.2,26.1,0.5
				C554.2,1286.5,524.4,1283,527.1,1261.9L527.1,1261.9z M972.9,1479.9c-2.4,3.7-6.7,1.8-8.8,0.7c-31.3-12.7-60.7,3.3-91.1,12.7
				c-1.7-1.4-5.8-3.2-5.9-5.2c-0.4-6.6,6.3-3.4,9.2-4.6c29.9-12.1,65.1-24.6,96.1-8.1C973.1,1475.8,973.6,1478.9,972.9,1479.9
				L972.9,1479.9z M961.6,1539.4c-19.1,15.4-44,23.1-68.3,23.7c-9.6-0.1-17.6,4-25.5-0.1c-7.6-1.6-5.8-9.5,1.7-8.1
				c17.4,2.5,34-1.3,50.8-5c13.8-3,25.3-10.4,37.5-16.3c3-1.5,3.4,1.2,4.7,2.3C964,1537.2,963.1,1538.4,961.6,1539.4L961.6,1539.4z
				 M753.4,1352.8c92.5,21.4,78.6,70.4,189,28.9c2.1-0.6,4.8,1,7.2,1.5c-4.9,11.9-36,17.5-48,21.5c-35.3,13.6-70.9-4.2-98.7-22.3
				c-13-8.2-27.3-15.1-43.7-16.2c-10.3-0.7-20.7-4.2-30.6-7.6c-14.1-5.7-48.3-9.1-49.1-28.1C702.9,1341.6,727.4,1349.6,753.4,1352.8
				z M904,291.1c10.8-0.6,45.8,25.9,37.9,37.7c-0.5,0.4-2.5-0.4-3.1-1.2C925.5,303.7,890.1,302.9,904,291.1z M810.7,1281.7
				c-12.6-2-26.5,6.4-39.6,2.2c17.5-19.8,71-6.1,97-13.1c23.7-3.5,43.2-31.7,68.6-20c-1.5,1.4-3.2,4.1-4.7,4
				c-18.5-0.9-30.9,12.3-45.9,19.5C862.5,1285.9,836.6,1282.7,810.7,1281.7z M792.5,1320.8c36.9,2.9,67.2,22.9,104.2,3.6
				c8.7-5.9,7.3,7,1.2,8.3c-12.5,3-23.9,11-35.5,8.5c-26.6,0.8-47.5-9.4-71.1-14.1c-2-0.4-5.8,1.4-5.6-1.8
				C785.9,1322.9,789,1320.9,792.5,1320.8z M822,845.7c12.1,1.5,23.2,7.6,35.8,7.4c3.6-0.1,7.4,1.2,10.8,2.4c5,4.2-0.5,5.9-4,7.5
				c-2.2,0.6-4.6,0.1-10.5,0.1c-3.3-0.7-50.1-8.4-43.3-18.2C814.2,839.6,818.3,845.3,822,845.7z M724.1,355.1
				c-12.6-0.9-25.3-1.4-37.9-2.2c-1.7-0.1-3.7,4.5-4.9,0.2c-0.7-2.7,2.7-3,4.6-4.1c12.4-7.6,24.7-15.3,37-23c5-3,1.7-10-3.5-6.1
				c-14,8-28.1,15.9-42,23.9c-1.2,0.7-1.8,1.4-2.5-0.1c-0.5-1.1-1.7-2.5-1.4-3.2c4.8-11.2,9.9-22.3,14.8-33.5
				c1.4-3.2,2.4-7.2-1.2-9.2c-3-1.7-4.5,2.3-5.2,4c-3.7,9-10.2,16.6-12.1,26.5c-0.5,2.7-1.2,8.4-5.9,8.2c-2-0.1-6.4,0.1-6.8-4.3
				c-1.3-12-2.3-24-4.3-35.9c-0.6-3.8-0.1-11.3-5-10.6c-9.8,0.9,1.4,38.6-0.7,48.1c0,4.7-3.8,4.1-5.9,6c-1.5,1.4-1.7,0.2-2.6-0.5
				c-9.9-8.1-19.9-16.3-30-24.2c-1.3-1-3.3-4-4.8-1.7c-1.1,1.7-1.2,6,0.1,7.2c7.7,7.1,15.7,13.9,24,20.2c4.9,3.7,4.5,7.6,3,12.5
				c-0.6,1.9-1.3,0.9-2.5,0.8c-13.7-1.9-27.3-3.6-41-5.3c-2.7-0.3-3.8,2-4.3,3.9c-0.7,2.6,2,2,3.3,2.5c10.2,3.8,21,4.5,31.6,5.9
				c4.3,0.5,10.5-0.3,12.3,4.6s-4.6,6.3-7.5,8.3c-9.1,6.1-18.8,11.3-28.3,16.8c-2,1.2-4.2,2.7-3.2,5.2c6.4,6.1,32.2-13.4,39.1-17.6
				c3.9-3.8,11.8,0.2,8.8,5.9c-5.8,10.8-11,22-15.9,33.3c-1.3,2.9-5.5,7.4-0.8,9.7c8.9,3.3,19.7-33.5,25-40.5
				c1.8-3.6,6.2-1.9,9.5-2.1c0.6,0,1.8,0.8,1.8,1.2c1.6,15.5,10.5,28.6,14.5,43.4c0.5,1.9,1.9,6.3,5.4,5c2.7-1,4-3.6,2.7-7.5
				c-4.9-13.7-9.3-27.6-13.9-41.5c-1-2.8-0.4-4.9,2.1-6.4c1-0.6,2.7-1.7,3-1.4c11.2,10.5,25.9,15.4,38.3,24c2.2,1.5,5,4.8,8.1,1.6
				c4.3-4.3-0.7-6.5-2.9-7.9c-11.6-7.6-23.2-15.1-35.2-21.8c-4.9-2.7-2.3-5.5-1.9-8.5c0.5-3.8,3.4-1.8,5.1-1.9
				c12-0.6,24.1,0.6,36-0.3c2.4-0.3,4.5-3.1,6.8-4.8C726,357.1,725.1,355.2,724.1,355.1L724.1,355.1z M651.7,376.1
				c-21.7-1.8-15.2-35.4,6.1-31.3C682.3,348.6,668,379.3,651.7,376.1L651.7,376.1z M599.9,775.2c10.2,1.2,36,12.9,43.2,6.3
				c2.2-2.4-1.6-5.3-4.4-6c-11.3-3-22.8-5.6-34.1-8.5c-1.8-0.5-5.1,2-5.4-2.2c-0.3-3.7-1.1-7.2,3.7-9.3
				c13.3-5.8,26.2-12.4,39.5-18.1c3.3-1.4,2.9-3.4,2.4-5.4c-5.5-8.5-37.8,13-46,15.9c-6.6,3.1-7.5-3.2-10.7-5.1
				c-2.7-1.6,1-3.6,2-4.8c4.2-6.6,29.5-31.8,23.1-37.8c-1.7-2.3-3.4-0.8-4.5,0.6c-9.3,11.6-18.5,23.3-27.6,35c-0.9,1.1-0.5,4-2.7,3
				c-7.8-3.2-2.9-25.2-4.2-33.2h0.8c-1.1-5.3,3-14.3-3.7-16.5c-3.6-0.8-3.5,1.9-5.1,3.9c-3.7,4.6,0.7,8.2,0.7,12.2
				c0.1,7.8-3.4,15.1-1.3,23.2c2,7.7-5,10.2-10.2,13.5c-3.7,2.4-3.8-1.2-4.8-2.4c-7-6-22.4-34.7-31.3-29.4
				c-4,5.1,21.8,29.4,25.7,36.7c4.1,5.4-6.5,7.3-4.3,13c0.1,0.2-1.1,1.2-1.5,1.1c-10.4-1.5-50.9-16.7-55.9-9.9
				c2.1,1.9,1.9,5.5,5.8,6.4c16.7,3.8,33.3,7.9,50,12c2.5,1,1.3,3.1-0.5,3.8c-7.7,4-45.4,10.5-43.3,18.7c-1.7,6.3,40.1-8,44.3-9.1
				c3.6-1.3,4.9,0,6.2,1.6c2.1,2.4-1,3.5-2.2,4.9c-8,9.3-16.2,18.5-24.1,27.9c-1.2,1.5-2.8,4.1-0.4,5.6c5.4,4.7,25-22.1,29.8-26.6
				c6.1-7.3,9.6,3.4,14.9,1.3c8.1,0.8-3.2,37.1,8.2,38.8c8.3-7.8,3.4-24.9,4.8-35.3c0.5-6.8,7.5-4.7,10.6-8.1
				c2.2-2.3,3.1,1.2,4.3,2.4c9.2,9.8,18.2,19.8,27.5,29.6c2.1,2.2,4.5,4.8,8.1,2.1c4.1-3-0.3-4.8-1.4-6.2
				c-9.5-11.8-19.2-23.4-29.2-34.8c-3.2-3.6,2-6.1,0.4-9.2C597.3,776.5,599.2,775,599.9,775.2z M569.3,788.7
				c-24.7-0.2-29.1-39.8-1.3-41.2C598.6,743.2,595,788.7,569.3,788.7L569.3,788.7z M449.4,664.3c2.1-1.4,2.7-4.2,1.3-6.3
				c-6.5-9.3-10.5-20.3-19.3-27.8c-3.7-3.2,0.1-4.7,0.8-6.8c0.8-2.3,1.9-2,4.3-0.9c7.9,3.9,16,7.1,24.4,9.8c2.8,0.8,6.7,5.8,9.7,0.4
				c1.9-3.3-1.3-5.6-3.6-6.5c-7.9-3-14.4-9.3-23.6-9.5c-2.7-0.1-6.5-1-6.4-5.6c0-3.7,0-5.8,5.2-6.3c5.9-1.3,34.7-4,33.7-11.2
				c-8.7-11.1-33.2,13-46.2-3.1c7.3-9.3,14.5-18.6,21.8-27.8c1.7-2.1,2.4-4.1-0.2-5.9c-9.8-3.9-21.6,34.3-35.5,25
				c-1.5-0.8-3.8-0.5-3.8-3.6c-1-5.5,1.9-35.8-4.6-34.8c-11.5,1.8,3.2,38.8-7.2,41.3c-2.3,0.9-4.9,1.4-7.5-1.3
				c-5.8-6-12.3-11.5-18.5-17.2c-2.3-3.2-6.9,2.2-4.3,4.7c4.7,5.3,9.1,10.9,14,16c2.1,2.1,4.6,3.6,2.9,6.9c-1.5,2.9-2.8,6.8-7.5,5.2
				c-9.5-3.1-18.9-6.8-28.6-9c-3.5-0.8-7.7-6-11.6-0.4c-1.2,1.8-1.6,4.4,0.5,5.1c12.6,4.3,25.3,8.3,37.9,12.3
				c1.4,0.5,3.6-0.5,3.4,2.3c-0.2,2.5,0.2,6.7-1.1,7.3c-6,4.5-26.2,6.3-25.5,14.7c0.7,4,3.6,1.6,5.8,1.5c7-0.3,13.1-3.4,18.6-7.2
				c7.7-5.2,9,3.6,13.4,5.6c-3.2,11.3-15.4,16.6-18.8,27.6c2.7,0.2,5.5,1.5,7.9-1.1c5.9-6.7,13.6-11.7,18-19.8c0.5-1,2.1-1.3,3.3-2
				c0.8,2.1,4.4,0.2,4.7,4.3c1,4.7,1.7,36,8.5,32.7c6.8-4.1-8.5-36.5,5.5-40c5.2-1.8,5.7,3.2,7.3,5.3c5.9,7.6,10.9,15.8,16.2,23.8
				C445.9,663.6,446.5,666.2,449.4,664.3z M408.2,626.7c-24.7,2-20.9-38,1.2-37.1C432.9,587.7,433.8,627.8,408.2,626.7z
				 M448.4,1290.8c-12-2.3-24.1-2-36.2-1.7c-7.7,0.2-0.5-6.4-4.4-8.2c-6-2.6,31.8-15.5,34.9-18c6.8-1.7,12.5-13.4,1-9.5
				c-10.7,4.9-21.1,10.4-31.9,15c-3.5,1.5-7.9,4.5-11.6-1.2c-2.6-4.1,1.1-5.7,2.2-8.3c3.5-8,7-15.9,10.9-23.7c1.4-2.9-0.4-4-1.9-5.3
				c-3.7-3.3-8.6,10.4-10.6,12.9c-3.1,6-4.6,15-9.5,17.4c-8.6,4.3-13-1.7-14.7-11.2c-2.7-12.4-1-29.9-13.4-37.7
				c-0.8,1.5-2.6,3.5-2.2,4.4c6.1,12.4,3.3,27,9.5,39.3c3.6,7.2-2.4,9.8-5.9,13.1c-3.2,3-5.6-1.1-7.8-3.1
				c-8.6-5.7-17.8-24.1-29.2-19.5c-6.7,3,24.9,25.3,28.1,29.4c2.4,2.1,1.1,4,1.1,6.1c0,2.6-2,1.8-3.3,1.8
				c-15.9-0.3-31.8-0.7-47.7-0.8c-3.6-0.7-9.9,3.8-4.9,6.7c14.7,3.4,29.7,4.6,44.7,3.6c3-0.2,6,1.2,9,1.9c-1,3.8,5.9,8-1.6,11.9
				c-5.6,4-24.5,14-20.2,22.1c4.6,4.4,14.8-9.9,19.9-11.7c3.5-2.2,6.8-8.2,11.3-4.9c3.6,2.7,0.1,7.4-1,11.3
				c-3.7,12.7-7,25.5-10.4,37.8c0.3,2.6-0.8,5.5,2.6,6.1c1.1,0.2,3.2-0.2,3.4-0.9c4.9-14.7,9.5-29.5,14.2-44.2
				c0.5-1.6-1.2-4.4,1.4-4.6c3.4-0.3,9.1-0.6,10,1.1c4.8,9.1,8.4,18.8,12.4,28.3c-0.5,6.3,3.2,4.1,7.8,4c-1.2-11.5-6.4-22.3-10-33.2
				c-2.2-4.6,3.4-8.1,7-5c11.7,8,23.7,15.5,35.5,23.4c3.1,3,8.1-1.2,4.4-4.1c-10.8-12-25.7-18.5-38.2-28.4c2.4-1.7,1.1-6.5,5.8-6.3
				c12.5,0.5,25,0.8,37.5,1c2.4,0,5.5,0.6,6.3-3C453.9,1291,451.2,1291.3,448.4,1290.8z M380,1308.9c-23.7-0.5-16.4-41.5,4.6-38.8
				C408,1272.5,398.6,1309.2,380,1308.9z M274.9,730.7c-8.4-1.9-17.5-3.3-26.1-0.1c-1.7,0.7-4.5,1.5-5.4-1.6
				c-3.1-3.5,28-12.9,32.3-16.4c4.5-1.6,11.3-10.2,2.6-11.4c-11.1,5.2-22,10.7-32.9,16.2c-1.5,0.8-2.5,4.4-4.7,1.5
				c-1.9-2.5-5.5-5.1-3.6-8.8c4.6-9.1,9.4-18.3,14.8-27c2.1-3.4-0.7-4.2-1.7-5.6c-2.7-4.9-14.3,19.5-17.4,21.9
				c-1.7,2.4-2.1,8.1-5.1,6.7c-3.5-1.6-9.9,0.3-10.5-5.9c-1-9.7-1.6-19.4-2-29.1c0.4-7.8-8.4-8.4-7.2-0.3c0.2,10.1,0.4,20.2,1,30.3
				c0.3,5.4-4.7,5.3-7.3,7.4c-6.2,3.4-21.4-21.4-30.6-21c-0.2,2.6-1.7,5.2,1,7.7c6.8,6.4,13.1,13.4,20.2,19.5
				c2.7,2.4,0.2,3.8,0.1,5.4s-2.7,4.6-3.6,4.4c-13.9-2.9-28-3-42.1-3.6c-1.4-0.1-3.6-0.9-3.8,1.8c-0.1,2,0.3,3.8,2.6,4.2
				c11.5,1.8,23.1,3.6,34.7,5.1c3.7,0.5,8.7-0.7,10.4,2.7c2.5,4.8-3.1,6.4-6,7.4c-8.5,3.1-14.1,10.9-23,13.6c-2,0.6-9,3.2-6.5,7.6
				c2.7,4.8,7.7,1.2,11.3-0.6c9-4.6,17.8-9.6,26.7-14.5c1.4-0.8,2.7-2.5,3.9,0.1c0.7,1.5,2.4,1.9,0.9,4.8
				c-2.5,6.9-25,44.9-17.7,47.5c2.4,1.4,3.7-1.4,5.2-3.3c7.4-9.1,11.6-19.7,15.7-30.4c1.4-3.7,3.1-8.6,6.2-10.2
				c6.4-3.3,19.6,6.6,19.6,14c0.5,6.8,3.6,17,9.9,19.9c0.8-1.5,2.4-3.3,2.1-4.6c-2-8.5-3.5-17.2-7-25.1c-3-6.9,2.4-8.7,4.9-12.5
				c0.8-1.3,0.9-1.5,2.3-0.3c11,9.2,22.3,18,33.3,27.3c2.4,2,4.5,2.3,6.5,0.8c5.5-3.9-31.4-34-37.8-36.8c8.2-1.4,42,1.1,42.5-7
				C283.7,726.2,278.4,729.2,274.9,730.7z M233.3,731.7c-0.7,9.3-6.8,16.9-18.1,15.1c-11.8,1.2-15.2-6.3-15.1-15.3
				C198.3,709.1,235.6,710.3,233.3,731.7L233.3,731.7z M221.3,1287.1c-13.6-7.7-27.5-14.8-41-22.7c-3.5-2,2.7-5.1,0.9-8.2
				c-0.1-0.1,1.1-1.5,1.7-1.5c8.1-1.8,44.2,2.2,43.7-7.5c0.2-3.8-3.4-2-5.4-2.2c-11.4-1.5-22.8,0.2-34.2,0.9
				c-2.1,0.2-5.7,1.7-6.5-1.5c-0.3-1.4,2.2-4.1,4-5.3c12.7-9,25.6-17.8,38.3-26.9c1.6-1.1,5.4-2,3.3-5.4c-1.5-2.6-4.9-3.4-7.4-1.8
				c-0.1,0.1-0.3,0.2-0.4,0.3c-11.8,8.8-25.5,14.8-36.2,25.1c-1.9,1.8-4.7,2.7-7.1,4c-1.5-2.8-7.1-2.9-5.7-7.2
				c2.7-8.3,6.6-16.2,9.1-24.5c1-3.3,5.8-7.1,0.6-11c-6.3-6-12.9,23.5-16.3,27.8c-0.9,1.9-0.5,5.6-4.6,5.6c-3.6,0-7,0.3-8.5-4.1
				c-3.4-10.1-6.7-20.2-10.8-30c-1.6-4-2.9-10-8.7-9.4c-6,1.3,10.2,37.1,11.3,43.4c1.3,3-3.5,5.8-5.4,5.8
				c-11-4.7-21.8-9.6-32.6-14.7c-2.4-1.2-4.8-2.2-6.4,0c-4.3,9.1,22.3,15.3,28.2,19.1c2.4,1.2,6.9,1.2,5.7,6c-1,4.1-4.2,3.6-7.4,3.8
				c-7.3,1.6-42.8,0.1-43,6.9c-1.7,7.1,41.7,0.3,48.3,2.9c-1.8,3,3.9,5.1,0.9,8.3c-8.9,9.6-17.7,19.3-26.7,28.8
				c-2.1,2.2-3.2,4.4-1.4,6.8c1.9,2.7,5.2,1.1,6.6-0.2c9.5-8.8,20-19.2,28.6-28.3c4.2,2.4,9.3,4.1,8.2,10.9
				c-1.9,10.8-3.2,21.7-4.7,32.6l0.7,0.1c0.8,4.3-2.3,12.8,2.5,14.6c6.5,2.7,7-35.2,9.9-41.4c0.7-3.2-1.6-8.4,2.9-9.6
				c3.4-0.9,8.2-2.1,10.1,3.6s15,34.7,21.3,32.1c2.9-1.1,2.4-3.7,1.4-5.8c-5.6-12-12.4-23.6-17.5-35.8c2-0.1,3.7-0.3,5.9,1
				c13.7,7.8,27.6,15.3,41.4,22.8c2.7,1.4,5.9,4,7.7-0.4S224.1,1288.6,221.3,1287.1L221.3,1287.1z M152.3,1268.1
				c-19.7-2.8-20.8-36.4,4.6-35.1C179.4,1236.7,177.6,1272.1,152.3,1268.1L152.3,1268.1z"/>
		</g>
	</g>
</g>
<g>
	<g id="Layer_1_2_">
		<g transform="matrix( 1, 0, 0, 1, 0,0) ">
			<g>
				<g id="Layer0_0_FILL_1_">
					<path d="M52,1548v15l-37,37h946l-37-37v-15H52 M52,52V37.7L14.3,0H0v1600h15l37-37v-15V52 M924,52V37.7L961.7,0H14.3L52,37.7
						V52H924 M976,0h-14.3L924,37.7V52v1496v15l37,37h15V0z"/>
				</g>
			</g>
			<g>
				<path id="Layer0_0_1_STROKES_1_" class="st5" d="M961,1600h15V0h-14.3L924,37.7V52v1496v15L961,1600H15H0V0h14.3h947.4 M52,52
					V37.7L14.3,0 M15,1600l37-37v-15V52h872 M924,1548H52"/>
			</g>
		</g>
	</g>
</g>
</svg>
