<?xml version="1.0" encoding="utf-8"?>
<svg version="1.1" id="Layer_1" xmlns="http://www.w3.org/2000/svg" xmlns:xlink="http://www.w3.org/1999/xlink" x="0px" y="0px"
	 viewBox="0 0 976 1600" style="enable-background:new 0 0 976 1600;" xml:space="preserve">
<style type="text/css">
	.st0{fill:#FFFFFF;}
	.st1{clip-path:url(#SVGID_2_);}
	.st2{fill:#333333;}
	.st3{fill:#FF8DB6;}
	.st4{fill:#D81E1E;}
	.st5{fill:none;stroke:#333333;stroke-width:2;stroke-linecap:square;stroke-miterlimit:3;}
</style>
<g id="Paper_Backing">
	<path class="st0" d="M960,22v1556c0,3.3-2.7,6-6,6H22c-3.3,0-6-2.7-6-6V22c0-3.3,2.7-6,6-6h932C957.3,16,960,18.7,960,22z"/>
</g>
<g id="Wikipedia_Cropped">
	<g>
		<defs>
			<path id="SVGID_1_" d="M960,22v1556c0,3.3-2.7,6-6,6H22c-3.3,0-6-2.7-6-6V22c0-3.3,2.7-6,6-6h932C957.3,16,960,18.7,960,22z"/>
		</defs>
		<clipPath id="SVGID_2_">
			<use xlink:href="#SVGID_1_"  style="overflow:visible;"/>
		</clipPath>
		<g class="st1">
			<path class="st2" d="M613.7,1502.6c-21.4-14.4,3.1-66.4,19.3-73.4c5.7,3,8.8-0.3,13.7-2.4
				C667.5,1456.7,636.8,1494.2,613.7,1502.6z M814.3,1441.5c-29.8-5.3-49.1-28.7-58.9-53.1c-7.8-15.8-11-23.9,6.9-32.7
				C792.7,1355.8,844.7,1422.1,814.3,1441.5z M232.3,1242.7c-28.2-30.4,23.3-82.8,57.1-81.7C323.1,1188.9,264.4,1238.6,232.3,1242.7
				L232.3,1242.7z M840.5,1150.8c-77.9-4.4,8.2-58,43.8-39.5C908.7,1124.2,855.8,1155,840.5,1150.8L840.5,1150.8z M255.9,997.5
				c-18.9,0.6-39.5-5.7-53.1-15.5c-41.1-25.1,5.1-40.2,32.4-39.1C270.9,947.9,321.1,996.2,255.9,997.5L255.9,997.5z M820.2,951.5
				c-68.1-2.7-37.3-38.8,12.5-39.8c9.2,0.2,51.1,5.4,38.5,19.9C856.9,945,840.2,951.5,820.2,951.5L820.2,951.5z M840.6,807.3
				c-27.3,0.2-71.8-39.3-43.4-61.6C820,739.3,856.7,791.1,840.6,807.3L840.6,807.3z M300.1,767.5c-65.1,3.2-27.3-39.7,10.5-40.9
				C373.6,730.1,350.1,768.2,300.1,767.5z M92.3,720.5c-71.6-8.7,21.6-59.4,53.3-42.7C168.3,706.5,111.1,722,92.3,720.5L92.3,720.5z
				 M918.2,709.3c-29.5-3.5-56.8-26.6-58.3-55C881.2,618.3,969.9,704,918.2,709.3L918.2,709.3z M467.3,622.8
				c-24.3-3.3-45.4-28.5-47.8-54.3c1.5-5,9.4-1.5,10.3-7.5c0.5-2.2,2.8-3.3,5-3.2C454.8,555.1,500.3,622,467.3,622.8z M577.4,526
				c-25.8-0.2-74.6-35.2-59.4-60.4C537.4,446.5,624,521.7,577.4,526z M159.1,300.7c-24.2-5.5-70.6-39.6-57.7-67.1
				C133.2,230,182.5,269.6,159.1,300.7z M878.5,299.1c-25.3-28.1,19.8-71.1,49-72.9C954.2,240.8,898.6,300.5,878.5,299.1z
				 M434.5,265.8c-28.2-19.8,2.7-68.3,33.3-75.8c11.6-3.9,14.3,7.7,11.5,17.1C482.8,240.5,464.1,258.3,434.5,265.8L434.5,265.8z
				 M633.9,246.2c-26.1-1.1-50.1-14.2-62-36.9c-8.2-17.1,21.8-18.6,32.6-20.7c22.8,3.6,47.1,15.7,47.4,37.3c-3.4,3.5,0.3,6.9,1,10.4
				C650.9,243.3,641,245.9,633.9,246.2L633.9,246.2z M786.7,229.7c-27.1-18.5-6.7-77.7,23.1-85.3
				C841.7,162.1,817.3,218.1,786.7,229.7z"/>
			<path class="st2" d="M0,1604c-7.6-2.8-7.5-201.2,0-204c4.3-0.9,7.9,3.2,12,0.7c5.1-3.1,11.1,1,14-4.8c29-19,67.6-31.9,97.1-48.8
				c16.7-0.4,20.8-22.1,32-32.6c44.3-57.6,86.8-44.4,142-35.4c8.4-0.3,3.9-10.9,11.9-13.4c23.6-6.4,49.5-39,73-26.9
				c52.4,34.3-17.7,31-1.5,57c13,21,26.1,31.3,46,36.5c4.6,11.6-3,27.6,3.3,39.5c13.5,19.6-18.1,22.8-26.1,32.7
				c-20.9,31-54,44.5-86.2,59.9c-30.4,28.8-65.6,47.7-96.5,74.6c-17.3,11.8-33,30.1-50.3,40.2c-7.6-0.3-5.3,8.3-11.6,11.6
				c-3,2-2.6,5.6-1.7,8.6C159.4,1612.1,4,1599.9,0,1604z M456.8,1203.5c-10.3-1.5-24.1-7.8-8-18.1c8.9-3.3,12.2-33.9,23.8-26.1
				c8.5,4.2,13.7,11.3,4.8,18.3C467.7,1184.8,468.3,1200.7,456.8,1203.5z M491.6,979.4c-9.3-8.3-8.9-25.5-20.8-35.6
				c-12.9-13.1,17.8-39.7-3.8-48.6c-39.6-30.1,16.9-62-24.1-107.4c-23.2-16.3-47.1-39.2-67-61.2c-7.2-13.3-57.5-43.3-29.5-53
				c7.4-1.5,11.2-8.2,5.2-13.7c-11.4-13.6,14.7-32.2,26.8-22.8c21.7,12.4,34.2,27.4,56.2,37.7c22.5,15.2,43.9,35,71.5,35.8
				c6.4,1.9,11.1-1.1,11.9-7.7c12.8-14.2,27.4-28.8,43.5-39.4c4.4-0.8,3.1-7.2,7.4-7.7c9.3-2.1,11.7-16,23.2-15.5
				c11,0.7,23.9,10,17,21.6c-1.8,4.8-1.5,10.1,0.7,14.7c7.4,19.1-16.9,34.7-28.2,46.3c-12,17-24.5,37.3-37.3,54.4
				c-7.5,11.5,11.6,25.8,10.3,40.6c1.2,5.1-5.5,9-0.8,13.5c9,9.6,9.1,21.5,12.5,32.7c-0.9,25.5,9.2,54.8-7.2,79.5
				c-6.6,6.8,4.3,15.5-5.5,23.2c-6.7,6.7-11.6-1.1-19.8-0.4C517.2,966.1,499.5,973.9,491.6,979.4z"/>
			<path class="st3" d="M494.3,1418.3c-11.8-7.9-7.2-44.6-37.1-28.9c-21.9,22.8-34.6-30.4-28.2-48c3.8-9.6-8-9.8-14.1-12.3
				c-20.8-10.3-35.4-28.5-36.7-46c7.2-7.9,26.5-8.6,26.2-21.7c-2.4-14.8-20.3-18.3-27.9-27.2c12.4-29.7,54.3-41.8,82.4-29.1
				c14-9.8,17.6-49.2,44-31c19.5-3,21.9,0.1,32.4,15c39.7,13.7-29.3,92.4,11.1,80.1c69.8-18.1,18.4,38.3,47.1,39.2
				c41.7,13.2,61.9-38.3,70.5,4.6c19.6,58.3-42,12.4-26.9,61.3c4.4,11.5-1.7,13.6-9.7,14c-20.7,5-37.3,2.6-58.8-8.3
				c-13.9-9.3-25.3,34.8-71.6,38l0,0C496,1418.2,495.2,1418.3,494.3,1418.3z M522.9,1317c22.4-2.7,26.4-21.2,14.5-37.7
				c-0.2-10.2-7.5-8-14.7-8.3c-14.5-5.6-28,7.8-29.5,21.9c-2.6,7.9,10.8,11.1,11.5,17.9C507.7,1316.8,517.6,1314.9,522.9,1317z
				 M771.9,1133.8c-19.2-17.7-56.9,4.9-52.4-13.7c8.2-20-11.1-34.1-13.9-50.4c3.1-5.5,7.4-9.6,2.3-15.4c0.1-11.8-14.9-19.5-25-14.5
				c-10.4,4.1-9.8,16.6-11.8,26.1c2.7,7.4,16.2,3.5,19.9,11.6c-10,16.9-34.1,8.3-34.5-10.4c-16.7-6.3-43.3,22.5-45.8,36.9
				c-5.7,15.4-26.1-5-37.1,0.7c-8.8-0.8-5.3-7.6-8-11.3c-2.6-6.9-9-9.3-7.2-19.2c7.5-14.6,27.8-12.4,30.9-33.8c0.9-4.4,5-7,11-7
				c7.8,2.2,15.2-1.8,11.1-10.4c-3.7-19.6-2-51.7,17.4-62.4c6,0.2,16.6,10.3,22.3,9.3c6.9,5.3,18.6-27.5,30.5-26
				c22.3,2.1,33.7,24.1,49.4,38.9c15.6-6.5,34.3-4.1,49.5,2.1c33,9.8-22.8,38,12.6,46.1c39.6,2.5,4.3,51.8-20.2,53.5
				C758.3,1094,785.2,1124.3,771.9,1133.8L771.9,1133.8z M772.7,719.4c-24.5,3-45.2-31-52.2-21.9c-11.2,13.2-28,18.2-43.5,21.5
				c-15.4-1-11.3-29.5-30.7-27.1c-25.9,12.8-34.2,1.8-35.3-25.2c-1.1-6.5,6.1-18.6-3.3-21.2c-14.8-4.1-33.5-22.8-33.1-40.6
				c8.4-3.7,18.8-9.6,19.5-18.7c4.3-11-28.8-25-6-34.2c14.3-16.4,38.7-8.5,57.3-12.1c3.5-2,6-6.3,8.1-13.8
				c3.2-14.5,29.2-51.1,42.8-30.6c23.7,39.9,33.3-32.9,57.4-1.5c22.2,15.1,2.9,49,36.3,39.6c57.9,6.8,12.9,19.4,23.4,42.6
				c4.4,3.3,14.1,3,20.3,2c20.1,5.9,5.5,35.5-6.7,42c-2.1,1.1-4.3,2.5-4.7,5c7.7,16,11.7,32.3,7.2,46.5c-2,10.7-7.4,12.7-12,12.7
				C761.6,661.9,810.1,717.5,772.7,719.4L772.7,719.4z M716.4,575.2c-14.4,2.9-24.5,16-23.6,30.7c-1.5,4.5,3.1,6.3,4.7,9.8
				c2.6,9.3,12.9,9.7,20.9,12.8c12.2-3.5,25.5-8.2,27-22.1C746.4,588.1,733.6,577.2,716.4,575.2z M131.7,578.3
				c-15.9,4.3-9.9-27.5-18.9-32.1c-5.1-4.8-15.4,3.4-24.2,4.2c-19.3-8.6-7.2-39.3,0-57.1c3.3-6.8-4.9-8.7-9.3-10.6
				c-14.9-9-24.9-22.3-29.8-39.4c-2.9-4.1,4.9-10.5,12.3-13.1c24.3-11.4-11.8-25-9.2-37.7c9.9-35,51.8-12.5,61.5-26.2
				c2.6-17.9,13.3-33.7,29.1-39.2c10.7,3,12,20.5,23,23.2c4.2-0.4,6.5-3.2,9-7.8c19.1-36.1,35.3,8.9,40.8,26.6
				c4.2,7.8,15.4,1.1,22.4,3.7c11.1,2.4,44.2,10.2,34,28.2c-16.5,31.4,24.5,17.2,22.9,37.1c-9.3,55-28,37.5-65.3,27.9
				c-12.4-1.1-4.3,12.3-7.2,19.7c-5.6,14-22.2,18.8-32.7,8.4c-23.1,12-13.5,44.1-10.4,62.7C163.8,562.5,149.9,576.4,131.7,578.3z
				 M168.8,417.6c-32.5,1.3-25.8,44.7-0.8,51.6C204.4,465.9,196.7,428,168.8,417.6z M614.9,435.7c-34.7-5.1,12.8-44.5,6.3-59.9
				c-13.7-11.2-41.3-48.2-18.4-59.9c9,2.5,26.2,0.6,26-10.8c0.3-7-10.7-21.5-8.1-27c18.6-15.6,44.8,0.6,62.2,8
				c10.8-12.4,16.1-28.4,35.8-37.3c16.4-9,16.6,22,33.1,19.7c9.6,0.9,19.8-21.5,26.5-2.6c8,10,2.3,36.3,16.2,38.2
				c19.4-2.8,44.4,2.3,57.6,16.9c-0.5,8.5-13,21.9-7.8,28.4c1.9,10,21.1,7.3,27.5,15.4c-0.5,18.9-19.3,37.1-37.6,36
				c-59.1,2.5-16.3-29.5-54.6-41.1c-33.2,25-12.3,31.5-48.7,1.7c-6.9-7.7-24.5,10.8-28.8,16.3c-5.6,9.2-11.4,16.6-10.8,28.7
				c-2.1,20.8-36.1-7.7-61.2,22.5C625.2,433.2,619.9,435.6,614.9,435.7L614.9,435.7z"/>
			<path class="st4" d="M719.1,1476c-25.6-1.6-29.7-37-2.7-36.7C739.6,1437.3,745.8,1475.2,719.1,1476z M810.2,1338.4
				c-34.2-5.9-6.3-51.4,18.6-30.6C840.3,1322.5,829.4,1342.9,810.2,1338.4L810.2,1338.4z M697.8,1321.2c-16.6-0.2-32.2-14.9-39.4-28
				c-10.3-8.7-29.9,28-67.3,13.1c-18.2-6.2,4.6-22.9-6.2-33.4c-7.4-9.7-21.9-9.7-32.5-4.7c-29.2-13.6,5.1-49.4-0.8-65.7
				c-13-7.5-16-22.1-24.8-31.6c-18.1,3.3-39-1.1-54.4-12.8c-9.9-7.4-20.7,36.9-51.1,43.2c-43.4,10.2,3-54.6-55.9-20.2
				c-20.3-4.7-11.5-41-14.7-56.1c-1.1-1.3-2.7-2-4.3-2.1c-14.8,2.7-64.6-26.7-41.9-43.8c23.3-9.2,21.1-19.4,0.3-29.9
				c-26.3-19.2,28.7-44.6,46.8-35.8c11.8-1.7-2.7-31,11.2-46.6c22.9-61.2,50,23.8,70.4-28.3c1.9-4.7,4.9-5.7,7.1-5.7
				c22.4,6,39.2,21,45.8,40.4c6.3,9.9,46.7-17.1,70.7,1c18,9.9-19.3,37,6.1,41c43.7-5.5,28.6,41.2-3.7,53.4
				c-3.9,1.6-4.6,6.9-1.8,9.8c18.6,40.2,6.1,19.9,49.8,32.2c8.2-16.7,22.4-38.5,41.9-41.6c10,3.3,15,22.4,26.8,20.1
				c6.9,1.6,25-13.6,10.8-18c-19.7-2.8-14.4-34.4,7.3-29.8c28.1,16.2,3.6,26.7,8.9,36.2c7.1,9.5,16.5,18.9,16.2,36.5
				c-6.3,21.7,11.1,12.4,23.5,12c12-0.6,45.3,11.6,34.4,27.9c-41.6,41.3,66,24.2-20,76.6c7,19.5,14.7,40.7-0.1,57
				c-4.5,13-15.6,4.2-24,2.9C711.7,1288.8,711.5,1325,697.8,1321.2L697.8,1321.2z M520.7,1314.8c-27.1,0.8-36.9-43.1-5.6-43.8
				C543.4,1269.7,554.3,1314,520.7,1314.8L520.7,1314.8z M181.9,1121.1c-26.9-5.9-18-35.5,3-35.2
				C211.4,1086.3,204.9,1120.8,181.9,1121.1z M714,903c-21.6-0.3-18.3-38.8,3.6-37.5C744.9,864.1,739.7,906.5,714,903z M219.4,818.7
				c-27.1,1.9-25.7-41.7-0.1-39.7C246.1,778.4,246.7,819.5,219.4,818.7L219.4,818.7z M263.6,710.4c-12.8-4.8-17.2-34-33.6-13.8
				c-3.4,3.2-8.4,12.5-12.4,9c-16-10.2-12.3-29.5-18.9-44c-13.2-1.4-35.9-2.4-42.6-15.8c-3.6-10.3,13.5-18.8,6.5-30
				c-3.9-7.9-11.8-10-19.6-8.7c-18.2-2.2-7.3-22.7,2.5-29.8c10.8-10.1,26.2-12,35.6-21.1c-7.5-17.8-6.8-40.7,2.5-53.1
				c2.5-5.1,8.9-3.9,12.9-1.7c35.3,9,20.4-30.9,39-30.5c23-1.8,33.5,15.3,47.6,27c23.1-20.8,50.6-8.6,40.4-34.9
				c-48.4-9.9-14.9-22.3-31.3-36.8c-34.1-4.8-14.3-20.1-17.4-38.7c-31-20,24.1-39.3,41.6-42.3c7.5-0.9,4.4-9,6.4-14.1
				c33.8-74.4,38,9,69-24.2c13.3-37.3,52.6,28.8,50.8,43.8c10.6,10.7,36.4-0.7,49.4,12.5c17.5,10.6-24.5,32.6,9.8,37
				c33.4,6-7.6,39.5-24.4,44.4c-6.5,16.7-4,39-17.1,54.7c-4.8,9.2-12.6,2.9-18.8,0.1c-38.5,1.5-0.7,40-54.6,22.3
				c-6,33.8-8.2,41.7-31.7,65.3c5.9,10.8,34.1,39.9,12.4,47.9c-7.9-1.9-16.4,4.9-18.6,10.9c-4.1,5.6,3.8,16.7,3.7,21.6
				c-15.8,17.4-38,6-55.8,2.5C287.9,684.2,282.6,705.1,263.6,710.4L263.6,710.4z M717.1,625c-28.9,0.7-26.4-48.4,1.5-45.9
				C751,578.3,750.7,630.2,717.1,625z M833.9,553.2c-5.3,0-14,0.1-12.8-7.2c-1.8-11-19.3-12-28.6-13.3c-6.9-1.7-16.8,6.8-22.5,1.1
				c2-13.7-5.4-21.3-3.8-30.8c4.3-6-0.3-15.6-8.2-14.5c-3.8-0.6-4.1-6.4-8.7-5.9c-5.3-1.3-12.1-9.9-15.4,0.2
				c-14.5,32.6-26.3,24.3-46.5,4.4c-12.8,5-24.2,14.9-28.8,28.4c-1.4,4.6-5.2,4.8-5.9,4.8c-57.3-35.9-2.5-31.8-10.4-58.2
				c-2.1-7.3-15.6-7.9-18-15.1c2.5-19.9,24.7-31.6,42.5-31.6c34.9,7.8,19.8-6.5,31.6-28.7c32.8-42.5,22.6-21,55.6-3.4
				c13,2.1,15.5-18.5,24.9-20.8c21.6,1.9,14.6,33.9,27.7,40.6c18-2.9,49.2-0.2,54.6,18.2c-39.7,50.3,28.3,19.6,5.6,54.4
				c-5.7,12.1-28.3,15.9-26,29.3C846.3,517.1,850.7,549.3,833.9,553.2L833.9,553.2z M172.3,466.8c-23.5,1.9-35.2-46.5-5.1-45.8
				C191.8,419.6,202.2,467,172.3,466.8z M510.5,317.9c-24.3,1.4-29.7-36.9-3.4-39.1C532.3,279.5,536.5,317.3,510.5,317.9z
				 M319.9,254.8c-27.5,1.5-24.1-39.3,1-39.6C346.7,216.2,345.7,256.6,319.9,254.8z"/>
			<path d="M933.2,684.9c-2.6-16-29.9-40.7-46.2-42.1c-9.7-0.8-19.2-2.5-28.9-3.2c-9.4-0.6-18.3-8.6-27.4-13.5
				c-0.3-0.2,0-2.5,0.5-2.8c11.2-5.4,15.2-15.6,17.1-26.6c7.2-30.8-16.3-17-31.6-25.4c-2.4-3.6-0.1-9.2,3.5-12.5
				c6.6-6.7,19.2,4,24.6-3.5c6.1-13.5,8.5-27.6,4.6-42.4c-1.1-4.4-7.5-10.8-1.4-13.5c12.5-5.6,20.6-15.1,28.1-25.6
				c5.9-8.3,1-18.5-9.1-21.1c-39.5-11.6,31.5-25.9-15.9-51.2c11.5-3.2,20.8-16.4,25.8-26.8c19.8-43.3-62.5,8.6-6-68.8
				c3.5-5.6,9.3-1.6,13.5-3.4c24.2-10.5,43.6-25.9,50.5-52.8c6.4-25,1.9-28.3-14.8-24.8c-28.1,5.2-57.4,33.7-54,63.4
				c3,11.6-4.3,16.9-9.6,22.9c-2.2,2.5-8.8-2.3-13-4.8c-16.4-9.8-34.1-8.9-52.2-6.9c0-11.4-2.1-22.7-6.2-33.4
				c-2.4-6.2-6.8-11.2-5.5-19.3c3.7-21.6,57.3-24.6,49.3-81.2c-1.6-9.2-4.2-18.7-12.3-24.4c-7.4-5.2-12.6,1.9-18.6,5.2
				c-18.3,10.1-31.3,40.4-30,60.9c0.8,11.7,8.7,22,3.7,35.3c-6.7,17.7-25.1,26.8-34,6.6c-12.2-23.9-21.1,0.1-37.1,1.4
				c-5.8-1.6-10.7-6.5-16.1-9.9c-9.5-6-23.9-4.9-27.1-19.9c-11.4-33.1-56.9-49.1-87.8-25.4c-3.9,3-5.5,6-3.7,10.8
				c12.6,31.3,56.4,57.4,88.3,38.9c2.3-1.4,3.1-6.1,7.2-4.4c6.3,2.7,13.1,4.7,18.7,8.4c6,4,20.4,5.4,8.6,18.3
				c-1.2,1.3-0.9,4.2-2.2,4.9c-2.8,1.7-0.4,11.6-7.6,5.9c-16-12.6-33.6-17.4-53-11.4c-5.5,1.7-18.2,0.7-12.9,13.9
				c2,5,5.5,9.5,6.5,14.6c9,15.7-2.8,12.5-14.6,15.4c-6.5,2.2-16.1-0.3-16.5,11.7c-0.8,23.3,11.2,39.6,27.2,54.3
				c1,0.9,3.9,1.2,1.8,4c-11.4,15.4-27.1,33.9-16.7,54.1c3.9,6.9,10.1,2.6,15.1,3.8c1.7,0.4,1.6,1.1,1.1,2.4
				c-3.4,8.9,4.8,11.6,9.3,15.2c4.2,3.2,12.2,5.2,11.7,10c0.5,11.6-22.5,15.4-18.6,27.3c5.8,11.1,13.3,21.6,25.2,26.9
				c9.3,4.2,0.6,9.8,1.7,14.7c0.4,3-5.2,1.4-6.6,1.2c-21.2-5.3-40-1-57.4,12c-12.1,9-12.8,13.5-1.7,22.8c9.9,8.2,9.3,20.8-1.2,26.8
				c-13.6,7.7-14,14.1-3.8,27c3.2,4,12.1,8.2,7.7,14c-5,6.6-13.8,10.2-20.4,15.8c-15.4,13-30.2,26.5-45.7,39.4
				c-7.1,5.9-14.1,13.9-24.9,10.4c-15.1-4.8-27.5-14.8-40.5-23.4c-23.5-15.4-46.1-32-69.2-47.8c-2.2-1.5-2.4-2.7-2.5-5
				c-0.8-18.2-9.7-35.7-22.8-40.5c19.4-13.2,26-20.3,32-47.2c0.3-1.4,1.8-5.2,3.4-2.9c6.7,9.7,21.3,12.6,21.4,28.1
				c2.1,29.1,30.5,68.2,63.6,60.9c3.7-0.8,6.5-2.1,4.5-7.8c-1.7-4.8-2.6-9.8-2.6-14.8c-0.1-21.3-22.5-49.1-42.2-53
				c-15.1-3-28.7-6.5-38-20.2c10.5-1.1,22.4,6,24.5-10.8c1.8-13.7,11.6-18.5,25.2-13.3c2.9,1.1,6.5,5,8.8,2.6
				c32.5-30.2,11.3-67.9,33.3-50.5c3.9,3,10.5,2.7,12,8c4,14.3,11.9,26.3,21.8,36.7c13.9,14.7,30.2,26.4,51.5,26.5
				c9.8,1.2,21.8-5.6,17.4-17.7c-10.1-31.2-45.3-60.1-78.8-55.6c-10.7,2.1-16.4-5.9-24.5-9.1c-2.8-1.1-1.3-2.5,0.9-3.5
				c10-4.5,17-12.2,23.7-20.6c10.3-12.9,7.6-25.5-6.7-29c-17.4-4.3-17.1-4.1-8.2-20.3c2.4-4.4,6.6-10.7-1.3-15
				c-31-20-54.3-0.1-53-21.3c0-3.1-3.4-6.4,1.8-7.8c8.8-2.8,17-8,25.9-10.1c6.8-1.6,13.5-10.2,21-3.1c17.9,19.6,48.3-3.4,38.4-26.5
				c-11.7-28.5-52.9-19.4-47.8,11.1c0.6,3.9,0.7,5.6-3.3,6.9c-10.7,3.7-21.2,8.3-32,11.3c-2.9,0.8-7.1,5.8-10.3,0.5
				c-8-13.2-18.7-23.6-32.8-30.7c7.1-6,12.9-14,20.6-16.6c40-9.4,65.9-31.9,56.5-75.3c2.2-27.6-30.6-6.4-41.7,2.1
				c-20.5,14-26,34.4-24.3,56.2c1.5,19-18.5,23.1-26,36.4c-4.2,7.5-5.3,17.6-16.3,15.7c-21.9-4.7-22.8-32.1-31.9-48.7
				c-0.9-2.3-4.7-3.7-2.7-7.1c6.5-10.9,10.8-21.5,0.5-33.2c-8.5-9.6-17.8-13.4-29.8-8.2c-28,11.2-17.3,55,15.3,49.4
				c13.5-2.3,11.4,14.8,17.2,22.4c10.6,13.8-22.3,18-23.6,46.9c-0.1,3.6,1.6,10.6-4.8,10.6c-16.6,0.2-29.7,9.5-43.6,16.3
				c-11.4,5.9-22.1,17.9-36.3,11.7c-5.7-2.3-15.7,5-16.7-7.9c-3.6-29.1-42.1-48.5-51.2-88.4c-6.2-38.3-77.1-57.1-74.2-34.3
				c6.4,37.5,41,66,76.8,70.4c5.5,5.9,21.1,11.4,6.5,23.9c-19.6,28.8-16-15.5-37.4-10c-14.6,5.3-21.8,18-27,32.3
				c-1.3,4.2,2.3,13.7-6.6,11.9c-10.8-2.1-21-1.3-31.6,0.1c-15.8,2-25,11.9-28.7,25.4c-2.6,9.8,7.6,16.9,14.2,22
				c8.1,6.3,4,7.1-1,11.1c-6.5,5.1-18.2,9.3-14.7,19.4c6,17.6,16,33.3,34.4,41.3c2.2,1,5.8,4.4,5.6,4.6
				c-9.9,18.3-18.5,44.7-3.8,62.3c6.3,7.2,13.8,1.8,20.9-1.3c13.4-5.9,11.8,12.9,13.7,21.1c1.6,7.7,9.5,14.3,17.4,10.8
				c-7.6,18.5-11.6,26.2,12.1,27.9c3.2,0.3,6.2,1.6,8.7,3.6c15.8,12.6-15.4,25.6-5.9,32.9c13.6,10.5,28.1,18.5,46.6,17.7
				c6.9-0.3,0,9.9,4.7,13.4c0.1,0-0.8,1.9-1.2,1.9c-40.8,5.8-46.8-10.2-82.9-10.3c-29-3.1-85.3,45.1-31.7,53.1
				c56.1,13.5,56.3-30,97.7-35.7c7.1,0,16.6-0.7,22.2,5.5c18.2,19.2,14.8,43.7,14,67.7c-0.6,4,0.4,9.4-4.3,11.7
				c-13.2,6.7-21.9,21.8-17.2,32.7c5.8,13.5,12.5,22.3,32.3,17.4c10.7-2.6,15.5-10.8,17.3-20.4c2.1-11.1-2.2-20-12.4-25.9
				c-2.6-1.6-7.6-0.8-7.5-6.2c0.1-19.6-0.4-39.3,0.3-58.9c0.3-8,9.7-10.1,14-15.6c9.2,4,17.3,24.4,26.7,20.7
				c11.8-6.4,19.5-17,27.7-27.5c1.7-2.1,0.2-8.5,1.1-12.2c0.7-3.1,3.1-4.4,10.5,0.3c9.6,6,22.2,2.4,30.7,13.4
				c13.3,18.7,32.7,33.4,45.5,52c-14.1,0.3-27.1-3.8-39.3-12.6c-14.5-10.8-32.5-11.1-49.9-5.2c-28.8,13-50.8,42-3.3,45.9
				c56.5,10,50.1-29.4,94.4-17.8c3.8,0.7,7.8-3.1,11.5,1.4c24.2,28.3,76.9,54.7,53,98.2c-3.5,7.8-5,16.4-0.1,25.2
				c9.2,16.6,16.1,34.1,15.1,53.8c-0.1,2.3,0.9,4.2-3.2,2.1c-20.9-11.1-23.5-10-35.1,10.8c-9,22.8-27.1-14.1-41-8.8
				c-17.8,9.2-25.2,25.6-31.6,43.9c-0.8,7.5,8.9,26.5-11.8,17.1c-19.5-8.5-40.9-11.2-56.7-30.8c-19.3-24-46.8-38.1-79.7-22.7
				c-8.9,4.2-20.8,7-23.8,16.3c1.6,17.7,28.6,32.2,44.8,38.6c19.3,7,37.8,7.6,57,0.7c5.1-1.8,8.1-8.8,13.7-7.3
				c12.7,4.5,27.2,6.9,38.4,14.4c-13.6,3.6-26.8,6.9-35.8,19.1c-11.3,14.7-9.4,21.7,7.6,30.5c3.5,1.8,12.6,5.1,9,9.7
				c-14,16.8-25.6,19.8-46.6,17.9c-15,1.5-30,4.3-45,5.5c-8.1,0.7-16.4,5-24.3-4c-9.1-10.4-19.9-5-29.8,1.3
				c-17.1,10.1-10.6,38.1,9.3,39.1c34.8,2.3,17.5-27.6,41.7-28.2c116.3-15.1,35-3.9,118.9,31.3c-18.7,6.6-26.8,27.7-49.9,28.1
				c-20.4-0.5-36.1,11.9-50.6,26.1c-16.3,16-20,34.7-16.9,55.8c0.4,2.5-0.5,7.4,5.3,7.1c10-0.2,19.8-2.5,28.9-6.5
				c29.4-13.2,46.8-34.6,51.5-66.5c0.8-5.3,0.7-10.2,7.2-14c11.5-6.6,21.5-15.8,33.6-25c-5,7.3-0.8,13.6-1.7,20.1
				c-1,6.8,2.3,13.2,4.6,19.7c11,37.2,29.8-3.8,40.6,4.7c3.6,5.2,7.7,16,4.5,22.2c-16.6,30.3-50.5,40.2-79.2,55.4
				c-12.6,7-24.2,16.3-39.8,13.7c-45.1-10.2-95.8-1.2-123.8,38.1c-9.2,11-15.9,24.7-28.8,31.9c-36.9,20.2-75.1,38.1-113,56.4
				c-4.4,2.2-9.4,6-7.7,10.6c2.2,5.1,6.5-0.1,9.8-1.4c5.7-2.8,8.8-0.6,7.5,5.1c-4.1,15.6,1.1,31.7,4.2,47
				c8.8,49.9,37.6,90.8,80.3,118c25.3,1.9-21.8-29.5-25.9-34.9c-36.2-34.1-49.3-84.1-51-132.3c0.5-4.5-0.9-10,3.7-12
				c11.1-4.6,23-12.2,34.4-14.8c8.3,11.6,17,23,24.1,35.4c10.7,18.9,20.7,38.2,30,57.8c9,19,16,39,33.9,52.2c3.4,2.5,6.8,5.6,10,1.8
				s-1.2-7-3.6-9.1c-22.9-19.9-30.2-49.1-43.3-74.4c-44.9-90.3-72.4-51.2,7-93.3c2.4-1.2,2.2,0.5,2.1,1.7
				c1.9,30.5,54.7,20.2,73.2,12.1c2.9-1.1,9.4-7.6,10.4-0.4c7.4,37.3,21.9,73.2,46.3,102.6c1.4,1.5,1.9,4.4,4.8,2.5s1.7-4,0.4-6.3
				c-7.7-14.2-16.3-28-22.7-42.8c-7.5-17.5-13.2-35.8-19.1-53.9c-1.1-3.3-6-8.3-0.1-11c21-9.6,37.3-24.9,51.6-42.4
				c1.9-2.3,7.6-5.8,3.9-9c-4.3-3.7-7.7,0.3-9.5,5c-14.4,14.7-30.2,28.2-48.9,37.8c-20.4,10.2-41,18.5-64.2,16
				c-9.4,0.5-21.8-6.7-15.2-17.6c20.6-28.3,39.8-62.2,78.1-68c12.7-4.3,34.3,5.7,20.8,19.3c-13.5,12.5-26.1,26.4-45.3,30.7
				c-2.7,0.6-6.1,3.9-7.9,0.9c-4.9-8.4,17-20.3,22.1-26.7c1.8-1.5,4.7-2.8,2.8-5.2c-5.6-6.5-25.6,14.4-30.6,18.8
				c-13.4,14,1.2,29.8,16.7,21.3c16.9-5.5,30.4-16.5,43.4-28.3c11.9-10.8,14.1-19,5.4-32.7c10.8-0.7,21,2.9,31.4,3.7
				c59.8,0.7,34.2,76.8,93.2,134.7c2.6,2.3,5.5,0.2,4.5-3.3c-1-7.1-6.5-11.6-10.1-16.7c-26-34.8-24.2-81.8-52.5-114.8
				c-1.9-2-5.6-6.2,0.9-9.4c19.1-9.6,37.9-19.8,56.9-29.6c8.4-4.8,14.1,5.9,20.9,9.3c11,6.4,11.4,15.2,1,21.9
				c-9.7,6.3-23.8,9.1-12.4,27.1c9.8,15.5,20.9,27.6,37.4,35.5c3.2,1.5,10.6-2,9.6,5c-1.4,9.5-0.2,18.8-0.4,28.2
				c-0.1,7.1,12.2,14.7-0.6,21.6c-8.9,4.8-17.3,15.1-24.8-1.4c-12.6-23.2-27.6-45.1-40.8-68c-4.7-12.4-11.7-6.1-7.3,3.9
				c9.6,26.3,29.1,46.7,41.9,71c2.1,4,12.6,6.6,5,14c-8,7.9-17.4,14.6-24.4,23.3c-7.9,9.9-14.7,4.5-19.1-1
				c-21.7-27.2-40.2-56.4-50.4-90.1c-0.8-2.7-2.2-5-4.7-4.6c-12.4,8.4,10,45.7,15.8,55.3c39.6,72.9,64.9,36.9,1,70.5
				c-18.4,12.3-31.2,31.9-52.2,40.8c-4.2,1.8-7.1,9.3-11.8,5.9c-19.2-14-34.9-31.7-50.2-49.8c-14.9-17.7-24.8-38.8-37.6-57.9
				c-1.9-7-9.1,0.1-5.9,4.6c20.2,39.3,44.1,76.9,79,104.9c2,1.6,8,2.8,5.6,6c-4,5.2-9.9,9-15.1,13.2c-15,12.1-29.9,24.3-45.2,36
				c-5.5,4.2-8.6,18-19.7,4.3c-7.7-9.4-20-14.9-28.3-24c-20.4-22.1-32.5-49.4-44.9-76.5c-1.7-3.7-4.6-8.3-8.6-7.3
				c-3.5,0.9-0.3,4.8,0.5,7.5c37.4,114.3,101.5,105,71.6,121.1c-1.1,0.6-1,3-1.9,4.3s-2.8,2.9-0.8,4.1c5.5,4.5,24.8-13.3,29.5-17.3
				c37.2-37.3,85.6-60,123.6-96c7.8-8.4,17.1-15.3,27.4-20.4c13.7-7,29.8-8.7,41.5-19.8c16.6-15.5,33.1-31,50.4-45.8
				c3.2-2.7,9-10.7,12.1-5.7c7.8,12.2,14.9,9,23.4,2.3c11.5-10.2,24.8,0.6,26.4,13.8c1.6,22.2,24.4,9.6,37.8,5.5
				c15.6-6.2,27.8-16.1,36.3-30.6c1.2-2.1,1.9-4,4.7-2.2c22.1,12.5,51.8,20.8,75.4,7.7c9.2-5.4,8.2,5.9,13.2,7.2
				c2.8,0.7,2.2,4.8,1.3,5.5c-6.1,4.6-6.4,12.9-14.2,17.4c-26.7,15.2-38.3,39.8-37.4,70.2c2.7,33.7,36,6.1,45.8-8.4
				c27.8-33.3-7.2-59.3,15.1-77.2c9.8,10.4,20.3,21.6,30.7,32.8c1.4,1.5,4.5,2.7,2.6,6c-5.5,9.2-6,18.7,0.5,27.2
				c6.9,9.1,17.8,11.6,28.3,12c9.6,0.3,20.2-15.6,19.1-26.2c-1.1-11.6-14-21.5-24.9-22.1c-6.2-0.3-12.5,5.4-19.4-2.1
				c-16.6-18.2-34.8-34.9-52-52.5c-6.1-6.2-8-15.3-5-23.4c4.4-11.8,27.8,1.1,31.1-11c1.3-4.7,0.3-9.9,0.1-14.9
				c-0.2-4.6-9.6-16.2,6.4-7.6c8.8,4.7,19,4,28.6,5.7c14.7,2.7,22.5,16.6,33.8,24.9c8.4,3.3-5.6,9.2,3.8,28
				c11.3,25.8,24,50.4,53.6,61.2c14.6,5.3,28.3-0.9,27.9-16.1c-2.9-29.2-20.5-57.1-46.8-70.3c-9.9-6-21.3-3.9-30.3-9.5
				c-7.8-4.9-14.2-12.1-21.5-18c-4.1-3.3-11.4-5-12.6-8.8c-3-9.9,3.9-17.4,11.6-22.1c15.5-10,19.6,15.1,29.3,2.3
				c5.3-12.5,11-15.2,19.6-3.1c4,5.7,14.2,7.8,13,15.7c-6.1,25,22,43.2,41.8,28.6c22.7-12.1,3.4-52.3-19.6-43.2
				c-10.8,4-17.7,3.8-24.9-4.8c-4.6-6.9-22.1-10.6-16.8-20.7c4.3-9.3-2.7-34.9-11.6-41.1c20.2-3.4,34.7-19.6,40.6-37.9
				c2-11-10.3-6.7-14.6-11.4s-15.6-5.2-9.9-15.8c24-42.7,79,19,115.2-35.7c8-11.3,7.8-16.8-4.6-22.3c-21.7-9.4-46.8-3.8-67,6.9
				c-11.2,5.4-12.2,20.6-24.6,24.4c-7.5,4.4-12.4,2-12.2-7c0.8-10.3-1-20.4-3.5-30.5c-13.7-23.9,13.7-4.3,34.5-43.1
				c10-16.8,6.3-26.4-10.8-32.9c-5-1.9-15.1,0-13.8-10.1c0.6-4.6,4.1-8.9,6.2-13.3c2.1-4.6,9-8.9,2.3-14.4
				c-15-13.1-35.3-15.7-54.5-14c7.8-8.9,18.6-15.8,28.2-22.8c2.9-1.9,6.9-5.9,11.5-3.5c30.3,14.2,68.8,12.3,92.3-13.9
				c16-15-12.1-20.7-23-24c-22.8-7.8-43.5-2.6-63.5,8c-16.7,8.8-24.3,27.7-41,37.1c-5.4,2.9-9.8,7.3-12.8,12.6
				c-7.8,15.2-15.3-17.2-25.4-18.5c-3.8-1.7-2.8-4-2.2-6.3c1.7-6.7,2.8-13.8,5.8-20c2.8-5.5,0.2-15.8,9.2-15.9
				c18.6-0.3,25.5-23,19.4-35.3c-20.4-27.3-53.4-6.5-42.3,24.7c2.2,5,9.4,6.7,8.6,11.7c-1.4,8.2-5.4,15.9-7.6,23.9
				c-1.7,6-2.1,10.5-11,7c-31.5-14.2-11.3,32.7-49.3,20.3c-4-1.7-5.7-9.9-12.3-5.4c-18.5,12.8-25.7,46.5-17.9,68.8
				c1,3,0.9,4-2.3,3.8c-4.3-0.3-7.7,1.3-9.6-6.1c-2.3-9-13.1-8.4-21.3-10.1c-6.7-1.3-21.8,3.6-13.4-13c3.7-7.4,6.9-14.7,4.8-22.8
				c-0.7-2.9-6.8-6.9-6.6-7.2c6.1-7.4,3.7-16.9,6.9-24.8c18.8-43.9,2.4-91.4-9-134.9c-2.3-9.9-13-18.8-7.4-29.3
				c16.5-29.5,40.9-60,63.6-82.6c9,27.4,36.7-22.2,47.3,15.9c1.2,4.7,2,12.5,7.7,12.7c44.6,2.2,51.1-34.5,60.2-20.4
				c9.5,11.6,23,17.4,37.8,19.8c7.4,1.2,17.8,15.3,16.6,22.7c-5.2,33.9,22.4,61.3,53.9,66.1c24.8,7.3,9.4-23.8,6.2-35.8
				c-8.7-24.3-27.2-35.1-51.8-38.4c-5.8-0.8-6.2-8.8-8.3-13.7c-0.8-1.9,4-4.5,7.5-4.2c2.4,0.2,1.5-1.2,1.7-2.4
				c4-9.6-8.5-31.4,3.3-33.9c12.3-3.5,28.6,12.9,35.2-4.8c5.7-14.2,6.8-30.4-0.3-44.2c44.3,16.1,6,32.2,54.8,67.1
				c7.5,5.4,17.8,7,26.9,10.1C931.9,719.2,943.1,700.5,933.2,684.9z M886,255.1c10.8-12.5,26.5-25.2,43.7-24.1
				c0.8,29.8-22.7,55.1-51.2,64.2c12.6-13.7,23.9-25.9,35.3-38.1c6.5-22-35.3,26.4-38.8,31.9C875.2,274.9,878.6,264.1,886,255.1z
				 M647.1,237.8c-23.3,13.9-60.9-8.2-71.7-30.4c-5-9,6.6-8.2,10.5-10.7c23.2-10.6,54,3.2,62.8,26.6c-11.2-0.4-49.1-22.5-55.3-11.5
				c-0.7,3.9,4.6,4.1,6.9,4.8C604,217.5,656.7,235,647.1,237.8z M423.4,569.4c13.2,8.6,23.8,19.9,33.4,32.1c1.3,1.7,3.4,4.3,5.5,2.4
				c2.6-10.5-22.7-32.5-28.6-42c22,2,38,31.7,41.2,52.4c0.2,1.3-0.3,4-0.6,4C447.8,621.1,427.1,593.1,423.4,569.4z M517.3,475.6
				c1.1,0,2.4-0.5,3.2,0c16.9,10,32.9,21.4,48,34c30.2,8.8-38.1-41.1-46.6-43c31.2,3,52.5,21,64.6,47.5c0.8,1.8,0.8,5.9,0.4,6
				c-3.5,1-7.4,2.2-11,1.8C548.6,518.3,527.4,499.5,517.3,475.6L517.3,475.6z M507.8,282.7c18.8,1.7,24,30.1,2.8,31.2
				C490.7,315,486.5,284.2,507.8,282.7L507.8,282.7z M436.4,218.3c7.9-11,19-21,32.4-24.5c11.8-3.1,6.1,9.3,6.5,13
				c4.1,28.3-13,48.2-40.8,55c5.3-8.8,36.4-47.3,28.4-52.3c-2.5-1.1-4.9,1.3-6.5,3.7c-9.4,13.6-18.8,27.1-28.9,41.7
				C428.6,241.2,429.4,228.1,436.4,218.3L436.4,218.3z M321.6,250.7c-22.6,2.9-22.6-28.4-2.3-31.4c7.3-1.4,17.6,8.1,17.5,15.9
				C335.4,242.9,331.3,250.2,321.6,250.7z M121,257.7c14.7,10.8,26.7,24.3,38.1,38.9c-28.1-8.8-52.5-30-57.7-59.1
				c30.5-0.3,53.8,17.8,61.4,48.5c-5.8-6.2-39.3-41.4-44.7-35.6C114.9,254.1,118.4,255.8,121,257.7L121,257.7z M102.1,715.9
				c-9,1-20.6,1.7-29.8-4.8c-2.4-1.7-4.6-3.6-2.7-5.7c10.7-11.4,21.5-22,38.6-24.8c12.2-2,23.7-1.1,36.7,1.2
				c-13.7,5.3-27.8,4.8-40,11.2c-4.6,3.4-18.2,5.5-16.7,12.6c1.7,3.8,3.6-0.1,5.1-0.5c18.1-5.8,36.5-10.2,55.2-13.4
				C137.8,708.5,119.8,713.8,102.1,715.9z M277.1,761.3c-14.5-1.4-9.4-8.6-1.8-15.7c19.1-19.3,43.3-17.5,67.1-7.4
				c-6.4-0.1-73.6,9.1-50.1,14.9c18-1.9,36-3.8,54.6-5.8C325.7,764.9,301.9,765.7,277.1,761.3L277.1,761.3z M284,977.8
				c-11-1.5-66.9-19.7-71-10.3c-0.7,3.9,3.5,5,5.3,5.3c21.9,3.3,42.9,7.3,63.7,15.4c-32,13.2-72.1,2.7-92.7-25
				c-1.9-2.3,1.2-3.5,3.3-4.7c13.2-7.1,26.4-13.3,42.1-11.4c17,2,29,12.9,41.9,22.3C279.9,971.5,284.4,973.2,284,977.8z
				 M198.6,1103.1c-0.7,9.1-9,11.8-16.8,14c-18.9-3.1-14.8-28.3,3.3-27.2C192.8,1090,199.3,1094.9,198.6,1103.1L198.6,1103.1z
				 M283.1,1206.6c-12.7,16.7-30.7,27.3-50.8,32c-0.7,0.2-3-2.2-3.1-3.6c-5.6-34.7,26.4-67.9,60.1-70.1c-6,2.6-68.5,66-40.8,55.3
				C263.7,1203,277,1185,297,1173C295.2,1185.7,290.9,1196.6,283.1,1206.6L283.1,1206.6z M616.6,1498c-1,0.7-3.7,0.9-3.9,0.5
				c-1.3-3-3.3-6.2-3.1-9.2c0.9-18.3,4.8-35.6,17.6-49.8c2.1-2.4,4.1-7.4,6.8-5.9c3.6,2.1-0.4,6.5-1.6,9c-1.8,4-16.2,36.9-9.4,36.7
				c2.1,0.3,3.4,0,4.4-2.5c6.2-15.5,12.8-30.9,19.1-45.9C655.9,1461.5,639.6,1481.2,616.6,1498z M716.1,1443.3
				c18.4-2.2,24.2,28.1,2.9,28.7C700.5,1470.7,692.7,1444.1,716.1,1443.3L716.1,1443.3z M753.4,1365.5
				c14.5,15.3,27.3,30.3,41.5,44.5c2.3,2.1,2.8,8.6,7.3,5.1s-0.3-7.4-2.4-10.6c-9.8-17.2-25.7-29.6-37.1-44.7
				c22.5,3.7,40.5,23,49.5,43.6c3.8,9.6,9.8,19.7,6.4,30.4c-2.5,7.8-9.9,1.4-13.5,0.5C778.5,1428.6,754.7,1391.1,753.4,1365.5
				L753.4,1365.5z M814.2,1307.2c10.7-0.9,15.4,4.7,14.7,15.3c1.4,14.1-11,11.1-17.5,11.9C793.8,1334.1,792.5,1307.4,814.2,1307.2
				L814.2,1307.2z M859.3,1124.7c-2.1-2-4.4-0.6-6.7-0.5c-13.5,0.8-26.8,3.9-39.3,9c18.1-20.4,45.1-24.6,70.1-17.9
				c8,1.7,1.2,7.9,0.5,8.9c-16,24.5-45,26.1-70.8,18c13.5-5.8,27.6-8.4,41.7-11.2c2.2-0.4,4.2-2.4,6.1-3.8
				C860.5,1126.3,860,1125.5,859.3,1124.7L859.3,1124.7z M817.4,917.2c18.6-4,36.4-0.3,53,8.8c-21,23.5-49.9,24.8-79.8,17.5
				c17.9-6.7,33.4-10.3,52-10.5c6.3-0.8,4.9-9.1-1.3-8.2c-20.6-1.8-39.6,5.1-58.8,9.6C792.3,925.6,804.4,919.6,817.4,917.2z
				 M703.4,885.4c-0.8-20.3,28.2-20.8,28.3-4.5c-0.3,9.4-2.5,18.3-16,18.1C706.7,900,703.3,892.8,703.4,885.4L703.4,885.4z
				 M791.9,755.9c4.8,12.4,16,18,22.5,27.6c5.5,6.4,12.9-0.6,6.1-6c-8.3-8.8-17.2-17-23.1-27.7c24.5-2.1,39.3,27.1,43.7,50.4
				c1.4,3.8,0.1,3.4-2.7,2.9C811.8,798.5,793.3,782.4,791.9,755.9L791.9,755.9z M786.1,171c10-14.4,27.7-37.5,32.6-8.1
				c7.4,25.4-10.1,49.6-31.9,62.9c7-18.6,11.8-36.5,21.1-52.5c2.1-3.6,0.8-6-1.3-7.6c-6.9-5.1-24.5,44.6-26.3,51.1
				C775.8,208,779.4,179.5,786.1,171z M608.8,429.7c-9.8-6.9,14.6-39.1,18.9-47.8c7.1-7.6-35.3-26-28.2-59.3
				c1.1-4.8,6.8-1.6,10.3-1.4c27.7-1.2,26.3-18.3,16.1-35.8c-4-6.3-0.5-7.5,3.8-8.2c20-3.1,37.5,1.1,51.7,16.8
				c9.7,5.8,6.3-25.8,39.3-41.8c10.3-6.7,11.7,17.6,25.8,19.4c17,6.3,23.1-19.8,28.1-4.5c4,11.1,8.1,22.2,8.6,34.4
				c0.2,6.4,6.9,8.1,11.2,6.7c10.6-3.6,20.5,0.5,30.4,1.8c7.1,0.9,13.7,5.9,20.5,9.2c2.5,1.2,4.5,2.4,1.9,6
				c-14.5,20.2-7.8,34.8,15.1,38.3c9.6,1.4,6.2,6,3.4,10.8c-12.4,21.3-20.7,25-46.9,20.8c-9.4,1.1-13.3-0.4-16.2-11.1
				c-6.6-19.5,10.5-15.3,20.3-23.8c-1.3-6.3-11.1-5.1-15.3-2.7c-8.2,4.6-14.8,7.7-22.9-1.4c-9.8-10.8-23.5,23.8-31.1,20.3
				c-1.2-1.2-2.4-2.9-0.8-5.6c7.9-13,15.2-26.4,23.1-39.5c2.1-3.4,2.3-6.6-0.6-8.5c-3.2-2.1-4.3,1.7-5.6,3.7
				c-8.7,13.5-17.7,26.8-27.3,39.7c-1.6-1.8-2.7-3.7-4.4-4.6c-10.4-5.8-3.2-14.2-2.7-21.1s3.8-13.3,5.7-20c0.7-2.5-0.2-5.1-2.9-5.4
				c-3.5-0.5-7.7-0.9-8.9,3.8c-3.2,12.4-3.5,25.5-9.4,38.7c-6.6-13.1-11.7-25.8-20-37.5c-1.7-2.5-1.8-8.4-6.2-6.3
				c-4.7,2.2-1.3,7.6,0,10.5c5.5,12.4,11.8,24.3,17.9,36.4c2.1,4.2-2.8,4-3.9,6.2c-0.5,1.1-1.9,3.1-4.7,1c-11.8-9-23.9-17.5-36-25.9
				c-6.1-5.5-11.9,2.2-4.3,6.3c10.6,7.7,21.2,15.3,31.8,23c8.2,4.9,2.6,12.4-5.6,9.1c-12.2-2.3-24.5-2.1-36.7-1.5
				c-1.5,0.1-3.5,0.4-2.8,2.4c0.8,6.7,28.6,5.3,35.5,7.4c2.9,0.4,9-1.7,4.6,5.7c-3.6,4.7,1.7,20.1-8.5,16.5
				C642.1,397.1,627.2,440.1,608.8,429.7z M648.4,514.2c-8-5.4-14.4-12.9-18.5-21.6c-0.5-0.9,2.6-4.2,4.6-5.6
				c17.8-11,17.2-30.9-3.4-38.1c-4-2.1-3.6-4.2-1.8-7.2c13.4-25.2,40.1-23.9,64.8-19c5.2,1.4,3-4.3,2.7-6.3
				c-3.3-20.6,7.3-34.4,22.1-46.2c4.5-3.6,4.8-3.2,5.2-5.7c15.1,13.8,30.7,37.5,49.4,10.3c1.8-3.1,2.5-9.3,6.4-8.1
				c4.3,1.4,8.7,5.8,10.6,10c3.3,7.1,5.4,14.6,6.2,22.4c0.1,18.4,29.1-2.8,54.3,15.1c15.1,9.9-1.9,14.5-4.3,20.7
				c-14.4,34.1,35.4,15.3,17,38.5c-7.1,9-16.6,15.1-25.5,22c-8.4,6.4,1.7,12.2,2.1,18.5c0.7,11.1,2.2,22.1-1.7,32.6
				c-1.7,4.6-7,2-10.8,2.5c-7.1,0.2,5.2-11.8-20.7-17.6c-10.4-3.8-21.7-3.2-32.4,0.9c-0.3,0.1-1.4-0.7-1.4-0.8
				c2.8-9.2-1-17.5-4.1-25.6c7,4.5,13.9,8.9,20.9,13.2c0.8,0.5,1.1,4,3.4,0.8c1.3-1.9,2.5-3,0.3-4.8c-7.3-6.4-14.7-12.8-22.6-19.7
				c13.7,2,26.3,5,39.8,5.8c2.6-0.4,2.4-5,0.5-5.8c-18.5-4.7-33.1-9-53-10.5c8.7-5,59-17.5,53.4-24.3c-4.8-6-51.8,16-63.3,18.4
				c11.1-10.5,34.7-33.4,35.5-47.4c0.1-0.7-1.3-2.4-1.5-2.3c-1.7,0.5-4.2,1-4.9,2.3c-7.4,14.5-20.2,24.6-31,39.4
				c0.2-12.3,8.2-46.3-0.4-51.7c-9.6,15.1-5.1,32.6-7.5,50.7c-8.2-9.7-15.7-18.6-23.4-27.4c-1.4-1.6-3.2-5-5.7-2.6
				c-5.8,4.6,14.6,23.7,17.7,30c-10.8-1.5-21.1-2.7-31.3-4.5c-3.2-0.6-4,1.4-4.7,2.9c-1.3,9.8,32.3,9.7,39.3,12.1
				c-4.3,7-6.9,17.5-15.3,20.3c-14.7,3.8-16.2-15.4-26.9-18.9c-14.4,6.6-28.2,16.5-33.7,32.7C653.4,518.8,649.7,515.1,648.4,514.2z
				 M271.7,369.7c14.4-8.9,28.4-19.2,46.2-20.6c9.3-0.7,7.8-7.8,8.1-13.3c3.2-13.9,11.7-25.9,23.8-33.4c8.3-3.6,12.3,27.4,38.5,13.3
				c13.2-7.8,6.4-26.3,23.5-10.3c30.7,18.3,21.1,58.7,35.3,54.5c14.7-2.2,29.2-1.6,42.7,6.8c8,5-0.6,8-1.5,9.9
				c-8.5,18.2-4.2,25,12.8,27.6c20.1,3.1,5.1,12.4,2.7,16.4c-7.1,11.6-19.8,16.7-31.8,22c-3.1,1.4-3.5,2.8-3,4.9
				c4.4,18.8-4,34.5-12.4,49.9c-3.8,7-9.4-0.9-13.6-1.8c-11.9-2.3-25.6,5.9-26.3,18.1c-0.5,10-8.3,12.4-21.3,4.5
				c-8.2-5-14.5-7-24.6-4.1c-14.1,4.1-15-7.2-12.9-22.5c4.4-13.8-11.6-12.8-20.7-14c-8.7-1.2-9.1-4.5-8.2-10.6
				c1.9-17.9-14.3-3.4-28.1-17.1c-2.8-2-0.6-11.9,0.2-18.1c1.1-19.8-39.3-0.1-21.8-34.9C287.7,382.6,259.1,380,271.7,369.7z
				 M283.8,494.8c-14-19.5-0.6-9.6,12-33.1c5.1-9.1,10.1,3.8,16.3,2.7c1.4-0.4,2.9-0.6,4.4-0.5c2.3,0.2,4.6,1.6,4.5,6.5
				c2.1,8.8-6.6,7.8-11.5,8.2C298,479.6,291,487.3,283.8,494.8z M128.1,574.1c-6.3-0.5-2.9-9.5-4.5-14.5c-9.8-43.7-40.9,7.2-40-24.5
				c-1.6-14.8,2.6-28.6,9.5-41.9c9.7-17.5-25.7-3.9-39.7-51.1c-1.4-4.8,7-6.1,10.8-8.8c26.5-16.7-3.8-24.3-7.8-39.8
				c2.5-9.1,10-14.8,20.1-17.7c28.6-8.7,41.1,14.1,42.2-13.3c3.7-13.3,10.3-23.6,22.3-30.4c1.5-0.8,2.4-1.9,4,0.2
				c5.4,5.9,12.5,21,19.4,23.2c4.6,0,11.8-5.1,14.5-11.4c2.3-5.5,5.8-11.2,11.6-10.5c15.1,4.7,16.4,27.1,22.8,39.7
				c3.6,8.5,17.5,0.8,24.7,3.5c11.6,1.4,22.1,6.5,31.7,14.4c3.6,2.9-0.4,7-1.4,9.2c-7.5,15.4-0.5,29.1,17,30.5
				c5.7,0.4,6.5,0.6,6.2,7.1c-0.8,15.5-6.3,27.9-19.4,35.7c-6.1,3.6-10.5-4.3-16.5-5.6c-17.4-3.7-34.5-8.8-51.8-13.1
				c-3-0.8-7.9-1.4-7.5-3.9c0.6-3.8-2.7-9.9,7-10.6c11.9-0.9,23.5-6.3,35.2-10c1.1-0.4,1.6-2.6,2.4-3.9c-7.1-7.3-46.1,12.1-47.7,6.8
				c0.1-4.1-9.4-3.6-4-10.1c6.6-7.9,12.1-16.8,18.4-25c1.9-2.5,0.7-3.5-0.9-4.5c-1.8-1.1-4.1-1.9-5.7,0.3
				c-6.6,8.8-12.9,17.8-19.5,26.6c-0.9-4.9-8.7-2.4-8.7-9.1c0-13.5-1.2-27-1.8-40.5c-0.1-2.7-1.1-4-3.8-4c-2.7-0.2-2.1,2.1-2.4,3.9
				c-4.1,13.4,1.2,26.8-0.3,40.2c-0.2,1.7,1.4,3.9-1.8,3.8c-3.9-0.1-7.3,4.8-11.8,0.3c-3.3-2.3-31.1-31.6-31.7-25.2
				c-0.7,2-0.8,5.3,0.3,6.6c7.7,8.2,15.9,16,23.8,24c1.6,1.6,4.7,2.6,2.8,6.2s-3.5,4.4-8,3.4c-12.7-2.9-25.6-4.7-38.5-6.4
				c-10.6-1.5-8.2,10,3.5,8.9c12.6,1.5,24.5,7.3,37.5,6.4c1.8-0.1,2.9,1.2,2.1,2.4c-2.1,3.2,4.2,6.5-0.4,9.6
				c-4.2,4.1-39.2,22.7-32.8,27.2c4.8,5.5,27.7-16.2,34.6-19.1c1.3-0.8,3.9-1.8,4.4-1.2c5.1,5,2.1,9.9-0.5,15
				c-6.5,12.4-12.9,24.9-19,37.5c-0.6,1.2,0.5,3.3,0.9,5c14.9-4,19.2-35.9,30.1-46.2c1.9,12.5,0.5,25.8,0.7,38.6
				c-1,6.7,5,8.9,7.6,2.8c1.7-11.8,0.6-24.1,1.4-36.1c0.1-2.5,2.4-2.2,4.1-2.8c1.2-0.4,2.1-1.4,3,0.8c2.4,5.7,6.3,11.1,7.2,17
				c-11.6,19.1-19.9,38.6-8.4,61.6c2.1,4.2-0.8,5.3-2.7,5.5C156.5,558.1,145,577.4,128.1,574.1z M193.1,462c4-1.2,9.3,1.8,13.9,3.1
				c20.6,4.6,14.2,30.4-5.8,31.8c-6.5-4-7.1-13.8-12.3-20.2C183.1,469.5,185.9,464.1,193.1,462L193.1,462z M173.2,462.8
				c-18.8,2.8-31.3-38.4-5.7-37.8C186,424,197.1,461.6,173.2,462.8L173.2,462.8z M235.3,794.8c6.1,23.2-32.9,28.1-32,4
				C202.3,779.8,231.8,777.1,235.3,794.8L235.3,794.8z M295.4,663.3c-6.2-1.8-4.4,9.2-6.7,12.8c-3.7,12.2-11.8,22.7-22.7,29.4
				c-8.9,6-15-37.6-38.9-11.6c-2.7,2.8-6.9,8.7-7.4,8.3c-5.6-3.5-8.4-9.5-10.5-15.5c-3.1-9.2-4.5-19-4.2-28.7
				c-3.9-13.8-5.9,8.5-36-6.6c-16.9-6.3-6.5-14.2-2.1-22.9c5.1-10.2-4.1-23.9-15.7-25.5c-4.7-0.7-12.7,2.3-13.4-3.1
				c-0.2-21,28.3-30.6,45-37.4c11.1-3.6,0.9-12.1-0.8-16.7c-5.7-15-1.6-28.1,5.2-40.7c2-3.8,7.4,0.4,11,1.3
				c13.8,3.5,31.6-9.1,30.8-23c-0.5-8.1,2.9-8.6,9.3-8.2c17.7,1.3,30.4,9.5,38.1,25.6c2.7,5.6,5.7,7,10.7,1.5
				c15.5-17.1,35.9-20.4,57.7-12.9c8.3,2.8,1.1,8.4,1.6,12.1c2.1,18.5,6.8,24.4,24.8,22c10.9-1.5,9.4,7.2,9.1,10.9
				c-2.2,21.3-11.8,38.5-31.5,48.7c-2.2,1.1-1.6,2.7-1.7,4.2c-0.3,5.1,4.8,6,7.5,7.6c7.6,3.9,29,41,7.4,35.8
				c-18.1,5.3-22.3,21.2-13.1,35.8C328.8,679.7,314,670.6,295.4,663.3L295.4,663.3z M655.2,1342.4c-20.4-1.4-30.2,14.1-21.9,33.4
				c4.5,10.5-5.9,7.8-9.1,8.7c-44.6,13.3-59.5-30.8-76.6,2.7c-13.3,16.5-31.8,22.4-51.3,26.7c-1.3,0.3-3.2,1.3-3.2-1.4
				c0-8.5-4.7-15.3-8.3-22.5c-4.3-8.5-24-10.9-30.6-3.2c-8.3,9.7-11.6,4.2-15.2-3.6c-5.9-13-10.6-26.1-6.2-40.6
				c4.5-15-9.1-14-16.4-17.2c-17.7-7.7-27.3-22.1-34.6-38.6c-1.6-3.6,4.3-4.4,6.6-5.3c13.7-4.7,27.1-17.1,15-30.8
				c-5.1-8.9-14.8-12.2-23.2-17.4c10-18.9,30.5-25.8,49.8-29.7c14.8-5.4,33.8,17.9,39.3-4.9c20.2-43.4,19.3-17,41.9-21.3
				c14.1-4.5,14.3,10.3,21.6,14.8c21.4,13.3,6.5,28.9,4,44.1c-1.7,10.4-5.6,19.6-10,28.8c-0.5,1,0.3,3.2-2.1,1.9
				c-1.3-0.7-3.4,0.8-3.8-2c-2.5-18.8-1.9-37.7-4.2-56.5c-4.4-6.6-9.2,2.9-7.6,6.8c2.4,14.2,1.2,28.4,2,42.6c0.2,2.9,4.1,6,0.2,8.6
				c-1.3,0.9-5.3,0.6-5.6-0.2c-3.7-8.8-12.4-12.5-18.8-18.4c-5.3-3.4-22.4-23.1-27.6-15.9c-1.6,2.5,1.1,3.6,2.9,5.1
				c11.5,9.8,22.8,19.9,34.1,29.9c5.3,3.4,1.8,11.1-4.4,9.6c-16-3.2-32.1-6.4-48.1-9.8c-3.4-0.6-9.5,1.2-8.8,5
				c1.5,2.3,3.9,2.6,6.6,3.1c16.2,3.1,32.2,6.7,49,10.3c-2,18.8-22.1,17.6-31.2,28.4c-2.2,2.6-6.6,4.3-4.4,8
				c2.2,6.6,28.5-15.5,33.3-17.8c2.5-1.8,3.3-1.7,5.8,0.2c13.1,9.8,5.4,19.4,0.6,29.6c-5.8,12.2-10.7,24.8-15.9,37.3
				c-1.2,5,7.3,5.2,8.8-1.3c7.2-16.5,14.1-33.1,21.2-49.6c3.3-4.9,12.9,4.4,19.3-1c7.4-4.9,10,43.7,21.3,37.3
				c4.3-2.9-0.4-7.9-1.3-11.5c-2.2-8.5-6.2-16.4-9.2-24.7c-1.1-3-0.4-5.8,2.8-7.6c4.8-2.6,7.5,2,10.5,3.7
				c7.5,3.6,38.5,22.7,44.2,15.8c1.3-2.8-1.7-3.8-3.3-4.7c-15-7.6-29.9-15.3-45.1-22.3c-3-1.4-1.8-3.5-1.2-3.9c3-2-3-8.2,3.9-8.1
				c4.8,0.1,9.6-0.4,14.4-0.2c25.3-3.2,7.6,9.8,16.7,16.7c20.5,5.1,43.4,7.6,61.7-6.6c9.6-8,11.2-7.1,16.1,10.8
				c1.8,6.5,2,13.4,3,20.2C663.9,1340.3,662.9,1342.9,655.2,1342.4L655.2,1342.4z M451.6,1188.3c7.9-7.6,12-17.4,16.9-27
				c3.4,2.4,6.9,4.7,10.2,7.3c0.2,0.2-0.5,1.9-1.1,2.7c-6.6,8.1-14,15.6-16.9,26.1c-0.3,1-2.5,1.4-3.9,2.2
				C447.4,1196.8,439.9,1195.8,451.6,1188.3z M547.1,1273c10.7-2.6,21.3-8,31.8,0.9c3.2,2.7,5.4,5.9,3.7,9.6c-1.5,3.2-5.3,1-8.1,1.3
				c-8.6,0.4-17.3-0.2-26,0.1c-5.5,0.1-6.5-4.2-7.8-8C540.1,1275.2,542.8,1274.1,547.1,1273L547.1,1273z M538.3,1297
				c-4.5,23.2-39.1,13.9-39.2-6.5C499.9,1263.8,541.3,1276.6,538.3,1297L538.3,1297z M774.3,1144.8c8.2,6.5-26.2,20.8-5.6,38.7
				c19.1,11.7,26.7,10.1,8.9,26.9c-5.8,8.2-15.6,11.7-25.3,14.8c-11.8,4.7,12.3,13.6,8.7,42.8c-0.5,9.4-7.1,15.7-11.3,22.9
				c-1.2,2-9.9-4.3-16.5-4.5c-8.3-0.3-22.6,8-24.2,16.7c-2.7,15-8.4,16.9-23,11.2c-18.5-4.2-28.6-41.8-36.5-28.8
				c-13,19-36.2,22.9-57,17.1c-10.3-3.9-2.2-10.8-1.1-15.4c4.7-19.8-17.6-29.3-31.5-26.2c-3.4,0.8-7.5,5.5-10.1,1.6
				c-4.6-6.6-5.7-14.7-4.2-22.9c2.1-11.6,8.5-21.4,13.2-32c1.5-3.3-0.9-5.8-3.7-7.7c-15-10.6-22.8-25.2-24.4-43.5
				c-0.4-4.4-3.9-9,0.3-12.6c8.5-7.5,20.8,2.1,31.2-1.1c9.2-1.4,10.8-17.3,10.6-24.6c-1.7-14.5,6.9-9,14-8.2
				c7.5,0.9,13.9,2.7,19.4,8.6c1.8,1.8,6.4,0.7,6.8-3.7c2.1-21.3,15.9-33.1,33.7-41.5c5-2.3,5.5,2.9,7.3,5.6
				c10.5,15,26.6,21,41.2,2.3c3.8-4.9,4.9,0,6.4,1.7c12.3,11.9,15.5,28.6,11.3,45.7C710.5,1149.8,743.8,1110.9,774.3,1144.8
				L774.3,1144.8z M687.1,1077.8c-10,6-18.9,7.5-25.2-3.9C667.5,1070.9,667.5,1070.9,687.1,1077.8L687.1,1077.8z M692.5,1045.1
				c5.9,0.5,17.4,18.2,7.2,20.9c-8.8,0.8-19.7,5.1-21.5-9.1C677.2,1048.8,683.1,1045.2,692.5,1045.1L692.5,1045.1z M602.1,1037.4
				c5.8,0.6,12.7,2.1,16.6-2c3.7-3.9-2.6-8.6-3.3-13.1c-3.3-17.6-2.5-35.2,7.7-50.9c2.8-2.7,2.1-10.6,10.6-5
				c38.6,28.3,29.6-33.4,58.7-14.8c13.9,7.9,26.3,18,31.7,34.4c4,11.1,13.9-14.2,55.3,2.6c28.7,8.7-29.1,31.7,12.6,46.1
				c4.9,1.7,13-0.1,14.4,4.7c3.2,19.8-17.7,38.6-36.2,41.6c-5.5,1.2-6.6,5.2-5.7,9.9c2.2,12.5,4.7,25,7.4,38.9
				c-15.3-9-29.7-11-44.9-5.1c-2.8,1.1-4.8,0-3.7-3.4c7.2-20.7-7.1-35.5-14-50.2c3.2-8,8.3-5,13.8-3c5.4,1,21.8,9.4,24,1.8
				c2.6-5.5-27.6-10.4-32.5-13.2c-1.5-0.5-2.2-3-3.3-4.7c10.5-8.5,25.9-7.6,35.6-16.7c-2-1.3-4.5-4-6-3.5
				c-10.1,2.8-20.1,6.1-29.8,10.1c-5.3,2.3-5.4-3.2-8.5-4c-2.2-0.6-0.9-1.9,0-3.5c1.8-5.9,15.9-25.9,8.2-29.2
				c-2.8-1.3-3.8,0.6-4.7,2.7c-3.7,8.1-7.5,16.2-11,24.4c-1.2,3.8-5.9,3-7.7,0.5c-5-10.2-9.6-20.5-14.6-30.8
				c-1.2-2.5-3.8-4.8-6.4-2.9c-3.3,2.4-2.3,7.2-0.8,9.4c5.7,8.3,7.3,18.9,14.7,26.2c0.3,0.6,0.2,1.4-0.1,2c-3.5,1-5.3,5.6-10,4.5
				c-7.9-1.8-15.5-5.3-23.8-4.2c-2.5,0.3-6.5-2.4-7.3,2.2c-2.4,8,25.5,11.5,31.2,10.9c-0.5,9.1-2,11.4-12.6,10.7
				c-18.8-1.3-48.3,24.5-50.8,42.7c-0.3,2.5-1.1,3.6-4.8,2.1c-8.7-3.4-17.8-5.9-27.7-4.8c-5.8,0.6-1.6-7.1-5.2-9.5
				c-5.8-10.3-13.8-17.1,4-24.8C597.5,1055.3,587.2,1035.1,602.1,1037.4L602.1,1037.4z M562.3,1019c6.7,0.9,14-0.1,19.9,2.5
				c7.8,3.5,3.6,12.2,2,17c-4.2,13.1-14.8,21-27.3,26.6c-14,6.3-2.7,13.7,0.5,20.8c7.2,13.7,7.4,27.9,4,42.8
				c-2.5,11.1-9.9,5.2-14.6,4.3c-19.7-5.5-32,9.8-26.5,28.7c2.7,11.9-8.6,5.4-11.8,5.3c-14.9-0.5-28.3-6.3-39.3-16.8
				c-1.1-1.1-4.4-2.1-4.5-1.9c-2.1,3.7-4.8,7.4-5.5,11.4c-0.6,14.4-48.2,56.7-55.1,31.1c-1.1-8.6,0.2-20.3-9-23.9
				c-16.6-5.5-32.5,27.6-38.2-3.3c-3.7-13.7-1.5-27.2-0.2-41c0.2-4-3.3-3.8-6.1-3.7c-21.5,0.9-36-10.5-47.5-27.1
				c-5.4-7.8,2.7-8.2,6-10.6c4.4-3.3,11.1-4.5,13.8-8.6c9.4-14.2-5.2-18.2-12.3-25c-2.6-2.5-9.8-2.7-9-6.1
				c3.9-20.5,28.2-27.8,46.9-24.6c11.3,2.6,16.9-1.1,12.4-13.3c-5.9-16.9,4.2-34,13.1-48.1c19.4-32.6,37.6,40.1,62.9-15.6
				c2-5.1,4.9-2.8,7.2-2c19.3,7.3,33.4,19.4,39.4,40.3c1.9,6.6,9.4,4.1,13.6,1.3c10.1-8.7,70.1-14.5,59.1,9.9
				C549.4,1000.1,543.9,1016.9,562.3,1019z M600,698.1c-5.6,5.3-9.6,11.6-14.5,17.3c-9.5,10.9-9.7-4-12-6.4
				c-5.3-4-17.4-19.2-23.5-12.5c-2.6,2.8,1,3.4,1.9,4.4c7.5,8.2,16.9,14.8,21.2,25.5c2.3,5.7-4.2,8.2-6.5,12.1
				c-6.6,11.5-16.8,20.6-21.7,33.3c-0.3,0.9-1.5,1.5-2.4,2.3c-6.1-4.3-16.3-30.2-24-26.2c-2.2,1.8-1.8,3.9-0.4,6.2
				c11.9,21.5,31,41.5,32.7,67c-20.1-13.7-50.4-26.6-68.4-2.2c-0.9,1.3-1.5,2-0.2,3.2c2.1,1.8,5.1,2,7.4,0.4
				c21.3-14.8,39.4-2.1,55.3,7.1c14.5,8.4,13.8,23.1,17.8,35.9c0.9,2.8-0.5,6.3-0.9,9.4c-24.5-2.4-31.8-29-57.9-25.5
				c-0.6,0.7-0.9,1.5-0.9,2.4c2.1,3.6,5.3,4.7,9.5,5.6c11.1,2.4,16.6,13.4,26.2,18.5c18.7,13.4,24.9,2.2,25.9,12.1
				c0.7,15.5,0.3,31-4.4,46.2c-2.6,8.5-4.1,7.8-11,2.9c-17.5-12.4-37.3-13.1-57.5-6.9c-2.5,0.8-3.1,2.5-2.8,4.9
				c0.3,3.1,2.7,1.9,4.2,2c17.6,0.5,35.8-2.9,51.8,8.1c7,4.8,14.4,9.7,6,19.1c-2.4,2.7-5.5,0.9-8-0.3c-9.2-4.7-44.5,2.8-51.3,11.5
				c-3.1-13.2-9.1-23.9-17.7-34.2c-8.4-10,7-35.5,20.3-36.1c15.1-0.7,30.2-2.2,44.8,3.8c1.5,0.6,3.7-0.5,5.6-0.8
				c-4.4-14.2-21.2-12.9-33.1-13.7c-12.7-1.3-24.1,0.2-34.4,8.3c-0.7-15.1,4.9-29.9-0.1-44.6c-1.8-3-2.2-12-7.2-8.1
				c-1.6,3.5-0.3,7.2,0.1,11c1,9,0.8,18.2,0.6,27.3c-4.1,6.2-6.7-0.4-9.5-3.8c-18.5-29.3,21.7-55-8.3-86.4
				c-17.8-15.9,10.5-55.2,24.1-66.4c1.7-1.8,5.9-3.1,3.5-6.4c-2.7-3.8-6.5-1.7-9.2,0.3c-19.1,13-25.9,33.3-34.8,53
				c-34.9-28.6-65.5-62.3-95.4-95.9c-1.7-7.7,30.3-5.3,13.6-25.5c-4-4.8-1.1-9.6,2.2-12.6c5.3-4.9,12.2-8.6,19.4-4.2
				c11.1,6.8,21.6,14.5,32,21.5c-11.8,8.1-21.8,20.6-35.8,25.2c-3,0.7-6.2,4.6-4.5,7.4c3.6,6.2,8.7,0.4,12.5-0.6
				c22.5-6.6,28-37,52.9-15.4c20.8,14,40.2,32,65.8,35.1c18.3,0.8,33.5,4.4,45.8,18.9c3.3,3.7,10.9,2.4,6.5-3
				c-5.1-14.1-17.6-19-30.1-24.2c10.7-13.5,25.1-24.7,38-36.2c8.9-7.2,15.1,3.2,21.2,7c3.5,2.2,7,6.1,11,8.5
				c5.5-6.4-4-13.4-7.7-17.5c-3-3.3-8.3-4.6-14.1-7.6c7.8-1,9.7-7.2,13.8-11c5.9-5.5,9.6-5.7,16.9-2.1c7.7,3.8,8.1,6.4,5.3,13.9
				C599.3,676.1,617.1,684.7,600,698.1z M824.8,616.9c-3.7,2.3-14.8,5-9.5,11c14.2,11.2,12.9,27.6,10.2,43.1
				c-2.4,15.4-13.3,7.5-21.1,5.1c-14.5-2.7-21.5,1.2-21.5,18.8c4.6,11.6,2.3,23.4-15.9,19.8c-43.8-7.2-35.8-47.6-48.8-21
				c-8.6,12-22,15.3-35.3,20c-14.2,5-12.6-6.4-15.5-12.2c-5.1-10.4-17.8-16.5-28.6-12.2c-4.6,1.8-11.7,6.7-13.2,5.3
				c-7.7-7-11.7-17.2-10.7-27.6c0.4-4.9,0.5-9.7,1.8-14.7c3.6-13.2-10.1-8.7-15.2-13c-10.3-8.5-19.3-17.4-23.6-30.5
				c-0.8-2.3,0.6-1.5,1.5-1.8c17.3-6.2,27.5-26.2,8.7-39.8c-10.2-7.4-0.5-9.3,2.5-12c12-11.1,27.1-12.1,42.1-9.9
				c14.5,2.2,20.8-4,24.7-18c4.3-15,14.4-26.9,28.8-34.1c4.9-2.4,6,3.8,7.6,6c13,18.8,27.3,15.1,36.5-1.1
				c8.1-14.4,14.5-7.2,20.8-1.1c9.4,8.8,14.5,21.2,14.1,34c-0.1,5.7-1.2,11.9,10.1,8.8c13.2-3.6,27.8-2.8,40.4,5.3
				c3.9,1.2-5,11.5-5.5,14.4c-7.3,14.9-3.4,21.7,13,23.8c5.3,0.7,14.2-3.8,15.2,2.4C840.2,597.8,836.4,609.6,824.8,616.9z
				 M914.3,704.9c-25-4.9-42.8-22.5-51.1-46.1c-0.5-0.9,0.4-2.4,0.6-3.7c1.7,0.5,3.7,0.6,5,1.6c11.1,9,22,18.3,33.2,27.3
				c1.1,0.9,3.3,0.3,5,0.3c-5.5-15.8-22.8-22.7-35-35.3c20,2,34.8,10.7,46.7,24.5c6.5,7.5,9.2,17.1,12.3,26.3
				C932,703.3,920.8,706.5,914.3,704.9z M789.3,615.2c-10.3-2.6-21-4-31.1-7.4c-2.8-0.9-9.1,2.7-9-4.1c0-2.1-2.3-5.4,1.8-6.6
				c10.8-3.3,21.7-6.3,32.2-10.3c2.7-1,8.1-0.8,7.6-6c-0.1-1.4-3.2-3.9-4.3-3.6c-11.7,3.1-24.7,4.6-34.6,10.8c-9.5,6-6.2-3.6-9.1-5
				c-4.5-2,0.2-4.2,1.2-5.9c4.3-7.3,8.7-14.7,13.5-21.6c2-2.8,0.7-4.5-1-5.8c-4.4-5.3-17.3,20.8-21.1,24.2c-4.4,6.3-7.5-4-11.9-1
				c-1,0.7-2.3-0.2-2.5-2c-2.2-12.1-1.6-22.4-2.1-30c-1.2-12.9-12.5-16.7-9.9-0.8c0.4,9.5,0.3,19.2,2.2,28.5
				c1.6,7.7-5.5,4.7-7.6,7.8c-1.6,2.4-4.9,1-7.2-1.3c-7.4-7.4-14.9-14.6-22.4-21.9c-3-4.4-11.6-1.5-8.7,3.5
				c9.3,9.9,20.5,19.3,29.2,29.4c-1.1,2.2-3,6-4.3,5.9c-11.9-1-23.8-2.6-35.6-4.1c-4.6-0.6-10.6-3.4-12.8,1.8
				c-2.1,4.8,3.9,4.5,7.2,5.8c13,6.2,27.5,3.2,40.6,7.2c-0.3,6.8-23.7,15.4-30.2,20.9c-2.1,1.3-7.8,1.5-5.6,5.5
				c5.4,9.1,27.8-10.7,35.4-13.4c3.9-2.8,7,5.5,6.6,7.2c-4.5,3.8-26.1,33.4-21.5,37.2c1.9,1.4,3.5,1.7,5-0.5
				c7.9-10.8,14.9-22.3,23.9-32.3c3.6,3.6,11.6,0.6,12.4,8.5c0.9,9.2,2.1,18.3,3.1,27.5c0.3,2.9,0.4,6.3,4.3,5.8
				c8.1-1.3,1.2-26.5,1.9-33.4c-0.1-1.7-3.8-3.8-0.1-5.1c4.4-1.6,11.4-5,13.2-3.3c7.2,4.7,25.3,35.8,32.7,30.9
				c0.9-9.7-18.5-26.5-24.9-35c-2.4-2.6-2.6-4.1-0.9-6.5s3.9-1.1,6-0.7c11.8,2.5,23.6,5,35.5,7.3C792.7,624.5,795,617.6,789.3,615.2
				z M719.3,620.9c-27,2.7-23.1-40.5-0.8-37.8C744.3,582.5,747,623.5,719.3,620.9z M731.9,1179.1c-10.5,0.9-21,2.2-31.5,3
				c-7.1,0.6-15.6,4.3-19.2-6c-2.4-6.9,4.7-7.4,7.7-10.6c4.1-4.2,9.3-7.7,12.3-12.5c2-3.1,9.6-4.3,5.3-9.7
				c-6.6-6.4-24.7,19.8-31.1,24c-3.4,3.3-6.6-2.2-10.1-0.7c-2-13.1,1.5-27,1.8-40.3c0.7-4.9-5.8-6.1-6.3-0.8
				c-2.5,11.9-0.8,31.6-8,41c-3.9,2.3-5.8-2.5-7.6-5.1c-7-9.9-13.7-20.1-20.6-30.1c-3.1-4.7-10-2.4-7.1,3.4
				c7.3,10.8,14.9,21.3,22.6,31.9c6.3,5.7-2.5,13.2-8.6,8.3c-13.2-7.5-26.6-14.7-40.1-21.7c-1.5-0.8-4.2,1-6.3,1.5
				c0.4,0.8,0.6,1.8,1.3,2.2c15.1,9.7,32.3,17.4,46.3,28.1c2.8,3.1-31.1,3.8-35,5.3c-4.5,0.6-12.5-0.2-12.2,4.9
				c0.5,7.6,8,3,11.8,2.3c9.9-1.9,19.9,1.1,29.9-2.5c7.5-2.7,6,6.4,8.8,10c2.1,2.7,0.1,3.9-1.2,5.2c-5.6,7.4-33.8,29.2-31.7,35.9
				c10.1-1.3,25.9-21.6,35-28.7c2.3-2.2,4.6-5.1,7.5-3.8c2.2,1,6.7,0.7,6.3,5.4c-0.5,6.4-0.9,12.9-1.4,19.3h0.5c0,4-0.3,8,0.1,12
				c0.2,2.6-1.9,7.4,2.2,7.4c8.8-0.8,4.2-29.4,5.8-37c0.2-7,9.5-1.4,10.5-7.4c7.7,3.6,28.9,52.8,34.6,47.3
				c5.5-5.8-21.8-40.3-25.7-49.2c-0.5-0.8-2.5-1.3-0.5-2.5c1.2-0.7,2.7-2.1,3.6-1.8c13.2,4.3,26.4,8.9,39.6,13.2
				c6.4,3.7,12.7-3.7,3.9-6.3c-11.9-3.7-23.4-10.2-35.6-12.7c-2.1-0.3-4.7,2.6-4.3-1.9c0.3-3.3-2.2-8.2,4.7-8.7
				C694,1190.2,748.1,1188.2,731.9,1179.1L731.9,1179.1z M676.4,1192.8c-0.9,19.7-36.7,18.5-34.9-2
				C640.9,1170.1,678.8,1169,676.4,1192.8L676.4,1192.8z M529.6,1020.3c-17.9,5.3-33.8,14.7-49.8,23.8c-1.6,0.9-3.7,2-4.7-0.2
				c-1.4-3.1-6.8-3.5-5.4-7.8c3.5-10.7,7.6-21.2,11-31.9c0.7-2.1,1.4-5.1-1.5-6.7c-1.6-1.1-3.9-0.7-5,0.9c-0.2,0.2-0.3,0.5-0.4,0.7
				c-3.9,9.6-7.4,19.4-11,29.2c-0.7,1.8,1.2,5.3-1.7,5.5c-6,0.2-16.1,1.3-17.4-1.3c-6.2-13.2-10.2-27.4-14.7-41.3
				c-0.8-2.3,0.5-6.5-3.3-5.8c-3.3,0.5-5.5,3.6-5,6.9c0,0.2,0.1,0.5,0.2,0.7c3.7,12.3,7.8,24.5,11.5,36.7c0.9,3,2.6,7,1.4,9.1
				c-2.5,4.3-5.4,0.3-8.3-1.1c-6.4-2-33-20-36-12.8c-1.7,2.6,0.9,3.4,2.4,4.3c10.4,5.9,20.8,11.9,31.4,17.4c2.3,1.2,3.9,1.8,3.5,4.7
				c-1.6,8.5-22.6,4.4-29.6,6c0-0.2,0-0.5,0-0.7c-12.9,0.8-25.8,1.7-38.7,2.3c-3,0.2-3.5,2.6-4.9,4.4c0.3,0.7,0.8,1.3,1.5,1.7
				c20.1,4,40.2,0.1,60.1-0.9c8.6-0.4,10.1,1.4,10.7,7.2c0.2,1.6-4.2,4-6.8,5.6c-9.4,6.8-34.5,17.1-34.1,30
				c8.4,1.3,32.1-20,41.9-25.1c1.3-0.9,2.2-4.5,4.9-1.4c2.1,2.5,4.9,5,2.3,8.4c-9.5,12.8-13.7,28.3-21,42.2
				c-2.2,3.2,1.9,10.6,5.5,5.6c7.5-14.8,15.4-29.4,22.1-44.6c3.6-8.2,9.5,1.4,13-2.8c4.2,8.4,0.9,44,11,43.7
				c3.5,0.2,3.3-3.3,3.1-5.1c-1.3-11.8-2.7-23.7-4.8-35.4c-1.1-6.3,4.3-6.1,7.1-8.5s3.4,1,4.7,2.2c9.6,8.8,19.1,17.7,28.8,26.4
				c1.6,1.5,4.2,2.5,6.3,0.4c2.4-2.4-0.8-4.7-1.5-5.4c-8.3-8.5-17.1-16.5-25.7-24.7c-4-3.4-8.2-8.1-2.1-11.6
				c13.6,0.6,27.2-2.2,40.7,1.1c4,0.2,10.4-6.3,2.4-7.7c-8.2-5.3-44.9,3.2-42.7-5.6c1-13.9,14.8-12.3,22.4-17.8
				c8.5-6.2,19-9.7,28.6-14.4c3.1-1.6,2.1-4.2,1.1-6.6C531.9,1017.7,530.9,1019.9,529.6,1020.3z M449.9,1080.1
				c-23.7,0.2-22.6-38.9,1.1-38.8C478.5,1041,477.8,1084.8,449.9,1080.1z M310.8,402.9c14.4,0.3,27.6,7.6,42.2,6.4
				c2.2-0.2,4.6,1.8,6.9,2.7c-2,2.1,1.5,6.1-3.8,7.7c-12.5,3.8-24.6,8.7-36.8,13.5c-2.3,0.9-6,2-4.6,5.6c0.7,1.7,4.3,4.1,4.9,3.7
				c12-8,27.6-6.6,39.2-15c5.4-3.9,4.8,1.9,6.7,3.3c2.3,1.7,2.3,3.9,0,6.5c-6.2,7.1-12.6,14.2-17.6,22.1c-1.6,2.6-7.2,5.5-3.5,10.2
				c2.4,3,5.1,0.9,6.7-1.1c6.2-7.4,11.7-15.4,18.3-22.4c2-2.1,2.7-7.3,7.6-6c1.4,0.5,2.6,1.2,3.7,2.2c-4.9,10.1,1.1,21.3-3.3,31.6
				c-1.2,2.8-2.6,8.5,2,10.6c11.3,4.3,4.9-42.7,12.9-43.4c2.9-0.4,7.5-1.2,8.4,0.2c7.3,10.5,15.3,20.5,20.6,32.3
				c1.4,3.2,4.7,7.3,8.7,5c6.9-3-18.6-37.5-22.3-42.4c-2.1-2.6,1.7-3.9,1.7-6.2c6.9-4.2,34.2,15.8,39.7,7.5c2.6-4-1.9-3.7-3.8-5.2
				c-6.9-5.3-15.3-6.6-23.2-9.6c-2.5-0.9-7.2-0.1-6.9-4.9c0.1-1.6-1.6-4.2,1.8-4.8c11.5-1.8,22-7.8,33.8-8.3
				c1.9-0.1,6.8-0.3,6.1-4.8c-0.6-8.5-31.3,0.8-37,2.6c-2.1,0.8-6,2.9-8-0.6s-6.1-6.9-2.5-11.8c4.7-6.3,9.3-12.7,14.2-18.9
				c1.7-2.2,3.3-4,1.6-6.8c-2.3-3.8-4.2-0.2-5.6,0.6c-9.1,4.8-12.5,14.6-18.4,22.1c-4.7,6-7.9-1.6-12.3-0.6
				c-3.5,0.8-0.6-2.5-0.5-3.8c0.6-12.6,1.1-28.6-8.8-37.6c-6.3,8.5,4.7,30.3,0.2,43c0,0.2-1.9,0.5-2,0.3c-7-11.6-18.6-18-28.5-26.4
				c-5.4-7.6-11.9,1-5.9,6c7.5,7.3,15.5,14,23.1,21c1.2,1.1,5.2,0.8,3.1,3.8c-2.5,3.6-2.6,9.3-9.9,8.8c-15-1.3-29.8-3.8-44.5-7.4
				c-2.6,2-6.5-2-7.8,2.8C306.5,400.3,308,402.8,310.8,402.9z M369.9,415.2c0.5-7.7,5-18,15.4-16.4c13,0,19.4,6.3,19.3,16.3
				C405.9,439.4,369.3,437,369.9,415.2L369.9,415.2z M449.8,706.9l3.1,1.7c-1,1.8-1.7,3.9-3.2,5.2c-11.1,9.6-18.3,21.6-22.7,35.4
				c-0.8,2.5-2.8,2.1-4.5,1.9C408.3,748.6,440.3,703.6,449.8,706.9L449.8,706.9z M295.5,562.8c10.7-8.1,21.3-16.5,31.8-24.8
				c2-1.6,2.1-3,0.4-5.4c-2.1-2.8-3.2-1-4.7,0l-37.6,25.8c-0.4-1.7-0.5-3-3.1-3.8c-16.4-3-4.5-10.8-3.4-28.1
				c1.5-6.9-5.1-9.5-7.7-2.2c-1.8,5.8-3,11.9-4.2,17.9c-0.5,2.4-3,4.2-1.6,7.4c0.8,1.7-10.9,3.5-12.4,1.8
				c-7.3-8.7-14.8-17.3-22.4-25.8c-0.6-0.7-3-2.9-3.3-0.9s-3.8,3.3-1.4,6.4c6,7.5,10.8,16.2,17.4,23s-2.2,8.8-2.7,13.1
				c-0.4,3.2-4.2,2-5.3,1.3c-5.1-3-11.5-0.7-16.7-4.8c-2.4-1.9-7.3-0.7-11-0.6c-3.1,5.5,2.7,8.1,7.4,8.7c7.1,2.2,14,5.5,21.7,5.1
				c1.9-0.1,2.3,1.2,2,2.6c-0.4,1.8,1.4,4.1-1.3,5.2c-10.3,4.1-20.8,7.8-30.9,12.3c-3.2,1.5-9,2-7.8,8c-0.2,7.7,26.8-9.5,32.5-9.3
				c3.5-0.9,8-6.8,11.6-1.5c3.8,5.5-3,7.5-5.4,10.9c-1.7,3.9-18.3,21.4-13.7,23.2c1.8,0.9,5.7,0.8,6.8-0.4
				c6.4-7.3,12.4-14.9,18.1-22.7c0.9-1.3,1.4-3,2.9-2.1s3.3,3,3,4.3c-2.3,11.3-5.1,22.5-7.5,33.8c-2.1,5.6,2,13.3,7.5,6.8
				c3.1-11.7,5.7-23.6,8.4-35.4c0.5-2.2-1.1-5.1,3-5.7s5.7,1.6,6.8,4.7c2.7,4.6,8.3,34.1,14.5,29.5c1.5-0.6,3.1-4.1,2.6-5.7
				c-2.8-8.7-5.5-17.6-9.6-25.7c-2-3.9,0.2-4.7,1.6-6.9c2-3.1,3.7-0.5,5,0.3c6,3.9,11.5,8.5,17.8,11.9c5.1,2.8,11.4,12.1,15.4,6.7
				c4.3-5.8-6.4-8.7-10.2-13.2c-6.4-7.5-24.1-8.5-14.9-25.4c1.5-2.8,2.7-2.4,4.4-1.5c5,2.8,28.8,7,29.5-0.5c-0.1-1.5-2.6-4.1-4-4.1
				C318.1,577.3,282.6,574.6,295.5,562.8z M267,598.2c-25.1-0.8-27.1-34.9-3.1-38.4C291.6,556.5,294.7,596.5,267,598.2z
				 M260.3,1376.6c-5.2-3.8,6.7-7,8.1,2.3c8.5,26.7,21,51.9,37.2,74.7c4,5.7-1.2,6.7-2.6,9.8C290.6,1457,255.6,1389.8,260.3,1376.6
				L260.3,1376.6z M180.8,1489.2c-10.5-12.8-21.9-25.1-30.1-39.7c-4.1-9.4-38.1-61.9-26.7-66.2c2.6-1,4.1,1.3,4.9,3.6
				c8.3,22.9,20.4,43.8,34.4,63.6c12.7,17.9,26.7,34.8,43.4,49.2c2.1,1.8,2.8,5.3,4,8.1c0,0.1-2,1.1-3.4,1.8
				C197.1,1505.1,187.9,1498.1,180.8,1489.2z M80.4,1592.8c1.3,1.2,1.7,3.4,2.5,5.1c-12.2,5.8-21.8-8.7-28.7-15.3
				c-7-7.5-42.2-46.4-33.2-54.9c3.1-2.3,3.9,1.7,5,3C43.5,1552.2,57.7,1576.4,80.4,1592.8z"/>
		</g>
	</g>
</g>
<g>
	<g id="Layer_1_2_">
		<g transform="matrix( 1, 0, 0, 1, 0,0) ">
			<g>
				<g id="Layer0_0_FILL_1_">
					<path d="M52,1548v15l-37,37h946l-37-37v-15H52 M52,52V37.7L14.3,0H0v1600h15l37-37v-15V52 M924,52V37.7L961.7,0H14.3L52,37.7
						V52H924 M976,0h-14.3L924,37.7V52v1496v15l37,37h15V0z"/>
				</g>
			</g>
			<g>
				<path id="Layer0_0_1_STROKES_1_" class="st5" d="M961,1600h15V0h-14.3L924,37.7V52v1496v15L961,1600H15H0V0h14.3h947.4 M52,52
					V37.7L14.3,0 M15,1600l37-37v-15V52h872 M924,1548H52"/>
			</g>
		</g>
	</g>
</g>
</svg>
