<svg xmlns="http://www.w3.org/2000/svg" xmlns:xlink="http://www.w3.org/1999/xlink" viewBox="0 0 976 1600">
<style type="text/css">
	.st0{fill:#FFFFFF;}
	.st1{clip-path:url(#SVGID_2_);}
	.st2{fill:#5D4E8C;}
	.st3{fill:#333333;}
	.st4{fill:#FF970D;}
	.st5{fill:#D81E1E;}
	.st6{fill:none;stroke:#333333;stroke-width:2;stroke-linecap:square;stroke-miterlimit:3;}
</style>
<g id="Paper_Backing">
	<path class="st0" d="M960,22v1556c0,3.3-2.7,6-6,6H22c-3.3,0-6-2.7-6-6V22c0-3.3,2.7-6,6-6h932C957.3,16,960,18.7,960,22z"/>
</g>
<g id="Wikipedia_Cropped">
	<g>
		<defs>
			<path id="SVGID_1_" d="M960,22v1556c0,3.3-2.7,6-6,6H22c-3.3,0-6-2.7-6-6V22c0-3.3,2.7-6,6-6h932C957.3,16,960,18.7,960,22z"/>
		</defs>
		<clipPath id="SVGID_2_">
			<use xlink:href="#SVGID_1_"  style="overflow:visible;"/>
		</clipPath>
		<g class="st1">
			<path class="st2" d="M592.8,1448.8c-30.7-2.1-4.8-72.9,8.6-79.4C620.4,1385.4,626.2,1440.7,592.8,1448.8z M707,1407.8
				c-18.5,1.5-72.2-59-54.3-71.3C678.9,1334.7,753.3,1389.2,707,1407.8L707,1407.8z M489.3,1367.6c-29-0.3-27.1-31.8-5.5-36.2
				c12.5-6.4,74.8-11.1,63.3,10.1C531.9,1354.3,512.2,1367.3,489.3,1367.6L489.3,1367.6z M294.8,1333.5c-16-4.6-41.6,0.2-43.4-19.7
				c-7.3-2.1-5.4-3.1,1.6-5.2c31.5-7.7,55.4,22.4,58.5,8.1c-1.8-16.6,40.9-60.3,39.4-29.8c-6.5,13.1-16.9,41.4-37.1,41.1
				c-4.6-3.5-7.6,1.4-11,3.5l0,0C302.3,1331.6,296.3,1333.4,294.8,1333.5z M721.4,1311.2c-28.1-5.9-48.5-37-56-61
				C683.8,1234.1,763.8,1297.6,721.4,1311.2z M754.7,1257.6c-32.1-10.2-1.3-70.1,15.2-84.3C789.2,1191.5,785.4,1251.9,754.7,1257.6z
				 M494.5,1256.8c-55.8-9.5-21.5-43.5,17.1-40.8c16.7-1.9,62.8,12.3,27.1,27.3C525,1252.5,510.3,1254.8,494.5,1256.8z M870.2,1215
				c-25.2-6-48.3-32.3-49-58.2C839.6,1147.5,906,1203,870.2,1215z M703,1179.2c-88.3-4.4,30.9-58.8,42-20.7
				C746.4,1178,717,1179.6,703,1179.2z M551,1156.9c-24.8,1.6-74.2-32.6-34.3-43C534.1,1114.8,597.3,1156,551,1156.9z M893.5,1123
				c-30.1-6.4-39.8-26-51.7-46.8C833.5,1036.4,938.9,1107.4,893.5,1123z M912.8,1022.3c-27-9.1-54.2-43-46.6-67.5
				C895.3,951,954.6,1006,912.8,1022.3L912.8,1022.3z"/>
			<path class="st3" d="M235.6,1214.1c-29.6-8.7-0.6-45.5,12-60.7C278.4,1151.9,258.5,1207.4,235.6,1214.1z M84,1196.1
				c-9.9,0.2-3.9-6.5-17.4-9.5c2.3-19.3,46.4-40.4,62.5-27.3C138.4,1180.1,104.6,1194.2,84,1196.1z M168.2,1068.6
				c-37.2-6.9,6.3-46.4,28.4-49.8c5.3,1.5,12-9.5,14.3-0.2C210.5,1047.1,190.2,1061.2,168.2,1068.6L168.2,1068.6z M706.9,1057.3
				c-32.2-23.3,16.9-75.4,48.9-74.3c11.8-0.3,13,3.5,7.2,12.6C774.6,1023.9,733.4,1050.2,706.9,1057.3L706.9,1057.3z M112.7,1032.9
				c-19.9-13.4,2-71.2,23.8-74.5C159.2,979,144,1032.5,112.7,1032.9L112.7,1032.9z M905.9,858.4c-20.6-1.2-47.9-44.8-40.1-64.8
				c11,2.7,5.8,3.9,17.7-0.5C903.7,799.2,935,850.8,905.9,858.4z M758.5,784.4c-13.2,1-16.2-9.3-27-10.8c8.9-30.3,50.5-38.5,76-24.5
				c2,1,2.8,3.4,1.8,5.4c-0.4,0.9-1.2,1.6-2.1,2C801.3,773,782.2,783.8,758.5,784.4L758.5,784.4z M930.2,749
				c-28.6-3.3-58.4-74.7-27.1-83.6c33.6,11.6,43.4,43.6,42.9,72.9c-0.4,1.9-2.1,3.2-4,3.3C936.1,741.5,936.5,750.2,930.2,749
				L930.2,749z M755.3,677c-67.9-4.1-19-49,22-46.1c8.6,0.8,47.2,0.5,36.5,15c-4.1,0.9-9.2,2.8-8.2,8
				C798.5,667.2,776.3,675.7,755.3,677L755.3,677z M809.6,585c-8.1-1.4-27.2,0.9-32.6-8.7c3.5-4.8-2.1-8.9,0.2-13.3
				c14.2-22.4,83.5-34.9,82.5,2c-15.4,13.3-31.8,19.8-50.1,19.8L809.6,585z M270.5,387c-21.3-21.7-27.3-57.4-13.6-81.7
				c8.6-3.8,5.3,9.4,19.1,4.2C292,316.5,297,388.7,270.5,387L270.5,387z M199.1,308.6c-37-7,4.7-58.5,26.6-63
				C251.8,259.5,223,303.2,199.1,308.6L199.1,308.6z M351.4,294.4c-27.5-0.3-62.3-18.6-60-46.9c3.5-1.5,8.6-1.1,8.9-6.3
				c7.8-9.4,22.9,1.4,34.7,8.8c17.3,11.5,15.8,20.8,18.3,33.7C357.9,287.1,358.1,294,351.4,294.4L351.4,294.4z M773.3,265
				c-34.2-17.4,5.7-101.9,44.8-100.5c10.7,3.2-4.5,10.5-1.7,16.5C839,203.8,799.9,256.2,773.3,265L773.3,265z M891.7,259.2
				c-9.1-4.1,2.1-5.3-14.3-11.5c-13.6-29-20.3-77.8,10.7-92.8C918,171.5,914.6,239.8,891.7,259.2L891.7,259.2z M157.1,202.4
				c-31-10.9,14.2-57.6,33.6-61.1C220.3,159.4,179.5,200.8,157.1,202.4z M339,200.8c-21.9-1.4-41.2-9-53.9-24.7
				c7.7-37.9,48.3-13.1,65.8,8.2c7.9,5.5,0.8,8.4-2.5,13.3C347.1,201.6,342.1,200.6,339,200.8z M769.7,131.3
				c-17.9-0.5-56.1-8.3-62.3-26.5C748.7,45.1,903.7,116.5,769.7,131.3L769.7,131.3z M315.7,102.7c-21,0-41.1-8.6-53.8-22.9
				c-8.9-37.2,67.5-20.1,67.7,6.2C357.9,93.9,333.9,102.9,315.7,102.7L315.7,102.7z"/>
			<path class="st4" d="M389.5,908.4c-141.6,2.2-33.3-57.3-12.3-119.4c3.3-11.5-10.7-18.7-7.6-28.7c3.2-4.2-0.7-10.5-5.9-9.5
				c-47,7.6-104,13.9-145.9-8.1c-18.4-17.2-24.6,9.1-49.1,1.2c-4.2-0.3-6.1,4.2-6.5,7.8c-16.5,7.1-40.3,14.4-58.7,22.9
				c-19.5-7,36.6-43.3,43-49.9c20.4-3.1,10-14.3,37.7-18.1c1.1-16.4,8.7-31.7,23.4-40.2c57.1-40,121.4-59.4,185.3-82.7
				c6.3,1.4,17.2,13.4,17.7-1c-30.6-72.7-116.3-31.3-59.1-147c1.8-7.8,11.5-9.1,16.1-15.1c-0.8-17.4,16.8-31.5,25.6-46.5
				c38.3-49.2,87.6-93.4,141.1-129.2c5-6,12.5-10.4,20.5-4.3c14.5-4.9,24.1-25.3,39.7-25.9c9.8-0.6,10.2,2.2,16.1,7
				c18.1-5.8,31.2-22.7,49.1-28.3c29.3,10,13.3-1.5,37.7-4.9c33.6,0.9-8.8,28.2-17.4,37.8c-0.1-0.1-142.8,119.3-147.6,157.2
				c6.8,12.9-18,25.4-6.4,36.1c1.2,2.5,3.1,4.4,1.9,9.1c-15.2,20.9,12.5,23.7,3.9,44.8c-3.4,5.2-9.4,15.3,0.9,16.5
				c51.9-4.1,57.6,58.9,81,14.8c34.9-62.2,81.6-113.4,117.1-177.8c15.8-39,18.1,53.5,15.4,61.3c6.5,12.1,4.9,47.7,14.1,47.3
				c37.5,2.2,75.6,21.8,113.5,32.9c14.3,8-43.1,21.5-48.4,28c-66.3,31.9-134.8,60.3-200.8,92.3c-4.4,23.3-18.5,46.6-39.8,68.3
				c-27.4,27.5-72.5,53.6-111.3,68.5c-8,3.2-1.7,13.9,4.7,14.2c6.5-1.8,13.7-5.3,20.6-4.9c8.7,0,28.1,7.8,23.6,16.2
				c-1.1,2.9-4.3,4.9-3.5,8.4c2.2,5.9,12.4,8.3,9.5,16c-1.7,8.6,11.2,9.9,11.4,19.4c10.3,13.8,48.9-9.4,64.5,9.7
				c1.1,3.8,2.8,8.5,7.8,7.5c17.7-3.4,38.9-5.2,60.4-7.7c13.6,6.6,1.2,11,26.7,8.8c52.6,14-82.8,52.3-99,53.5
				c-31,6.1-65.4,22.8-95.9,17C470.3,899.9,427.5,903.4,389.5,908.4L389.5,908.4z"/>
			<path class="st5" d="M464.1,973.3c-83.3-0.8-161.3-35.3-223.7-83.9c-19.8-14.7-127.8-119.9-89.9-132.5
				c19.4-5.2,46.8-25.7,67.1-10c24.4,17.1,61.3,17.1,91,17.8c23.9-2,61.7-10.3,59.5,28.3c-31.1,58-122.3,113.7,8.4,118.5
				c45.8,1.8,509.3-86.2,274.3-112c-59,13.9-48.8-12.5-97.6-1.4c-8.9,3.7-10.9-3.5-14.8-11.7c-10.5-4.2-9.5-13.6,2.7-11.3
				c120.2,7.4,227-54.7,317.8-106.8C826.8,850.3,648,979.8,464.1,973.3L464.1,973.3z M780.4,740c-8.8-0.2-20.5,3.5-31.2,9.1
				C656.2,824.7,894.3,764.4,780.4,740z M127.8,735.5C77,641.3,88.7,504.5,136.8,413c0-5,5.1-13.1,8.9-5.2
				c10.5,48.3,32.1,113.8,56.9,156.9c10.1,18.1,22.7,39.1,39.7,57.4c10.3,7.9,5.3,18.4-3.6,21.4c-25.2,13.1-43.6,25.7-54.6,44.8
				c-6.7,26.6-35.9,25.4-50.8,43.9C132.5,732.6,129.6,735.8,127.8,735.5L127.8,735.5z"/>
			<path d="M318.1,657.2c21.5-17.4,49.3-22.5,73.8-33.9c1.2-0.7,2.9-0.3,3.6,0.9c0.3,0.4,0.4,0.9,0.4,1.4c-0.4,3.3,0.9,7.9-3.5,9.3
				c-23.4,7.7-47,14.8-68.4,27.5c-1.3,0.8-3.2,0.6-4,0.7C308.6,662.9,316.8,658.8,318.1,657.2z M356.9,660.7
				c-8,4.1-17.4,6.6-22.7,15.3c21.4-5.8,40.6-15.9,60.5-24.1c2.5-1,9.2-0.7,7.5-5.8c-2.4-7.4-8-1.6-11-0.5
				C379.5,650,368,655,356.9,660.7L356.9,660.7z M250.3,691.1c10.8-10.1,22.8-17.8,37.1-22.3c3.5-1.1,9.2-2.3,9.1-6.8
				c-0.1-4.2-4.2-6.4-5.9-5.8c-22.2,2.5-37.3,11-48.6,26.6c-2.6,3.6-5,6.8-1.7,10.5C244.5,697.8,247.8,693.5,250.3,691.1
				L250.3,691.1z M971.1,55.7c-29.9,19.1-58.3,40.4-85.2,63.6c6.3,23.1-6,22.6,12,35.4c23.8,29.8,22.9,88.9-5.4,114.9
				c-7.5,4.9-11.5-5.5-15.3-10.3c-19.3-24.3-22.8-57.7-11.5-86.6c7-14.5,22.8-28.1,14-45.6c-14.5,10.3-25.1,25.4-39.5,36.3
				c-21.1,20.6,0.6,49.7-36.1,87.8c-10.9,13.6-51,37.9-48.6,5.1c-0.8-18.7-3.5-38.2,5.8-55.4c11.4-21,28.4-38.2,53.1-39.2
				c18.3-0.8,20.9-17.1,32.6-23.8c7.5-4.3,13.2-12,19.8-18.3c-26.1-4.4-34.8-8.5-57.8,8.4c-29.7,15.4-65.8,10.2-94.1-6
				c-5.6-3.1-13.3-9-13.5-13.9c-0.5-13.1,11.8-18.6,21.1-25c33.6-19.2,85.3-6.4,111.2,21.3c5.8,6.2,14.6,1.5,21.6,4.2
				c15.5,5.6,26.8-2.6,38.3-12.8C897.4,89.7,989.3,24.4,971.1,55.7z M815.6,115.4c-32.7-4.6-63.5-1.2-96.2-2.6
				C751.7,131.2,782.5,132.2,815.6,115.4z M822.2,105.5c-27.6-21.1-82.4-33.5-111.7,1.9C748.8,100.8,783.3,100.8,822.2,105.5z
				 M818,168.5c-28.3-1-62.4,53.6-51.8,81.4C776.8,218.8,796.7,193.5,818,168.5L818,168.5z M820,188.8c-18.8,22-35,46.1-48.4,71.8
				C797.2,255.4,820,214.3,820,188.8L820,188.8z M881.3,160.6c-15.7,30.6-13.9,57.3-0.4,85.3C881.1,217.9,876.7,191.2,881.3,160.6
				L881.3,160.6z M891.6,255.1c17.8-23.3,19-74.8-2.2-96.6C887.8,191.2,890.2,222.9,891.6,255.1L891.6,255.1z M378.8,621
				c3.1-1.1,7.3-2.1,7.4-6.2c-3.7-11.7-59.5,14.9-68.6,25.3C340,635.5,357.5,627.6,378.8,621z M594.1,587.7
				c41.2-16.3,80.2-38.6,119.9-58.4c33.3-16.5,67.5-31.1,100.3-48.7c3.3-0.8,9.6-8.9,2.4-9.3c-76.4,32.1-150.3,70.2-224.7,106.9
				C583.9,581.2,586.1,587.3,594.1,587.7L594.1,587.7z M137.6,196.7c1.5-26.2,25.9-52,49.9-60.4c12.2-3.7,19.5-11.1,26.9-20.8
				c7.8-10.3,0.7-18.2-2-25.9C203,62.7,191.7,36.6,177.5,12c-1.6-2.8,0.1-6,1.7-6.2c12.5-2.9,24.4,33,29.4,42.6
				c2.7,6.6,7.4,8,12.4,8.2c11.2,0.3,21.3,4.7,32,6.6c1.6,0.3,4,0.5,4.9-0.4c31.2-26.6,74.3,3.8,91.3,32c3,4.1-6.8,9.7-12.5,12.1
				c-26.4,11.2-64.8-1.7-79-23c-10.6-15.8-25.3-15.1-39.2-19.5c-1.7-0.4-2.5,3.1-1.2,5.3c12.4,21.6,16.6,46,23.8,69.3
				c1.2,3.9,3,5.6,6.8,6.9c14.2,3.8,27.4,15.1,42.5,8.6c29.4-8.4,54.9,7.7,68.7,33.7c2.5,3,6.2,5.8,4.5,10.2
				c-3.4,8.9-11,11.5-19.5,10.5c-26.6-1.6-54.9-12.8-67.6-38.2c-3-6.2-11-6.2-17.3-8.2c-4-1.3-6.8-5.5-11.6-5.3
				c2.2,19.8,6.2,39.4,12,58.5c2.4,5.6,12.2,7.4,16.7,11.3c9.5,7.6,20,3.9,30.1,3.9c28.6,1.5,52.2,32.3,59.1,58
				c3.8,10.2-3,11.5-8.8,11.9c-28.5,1.9-49.8-10.2-65.9-33.7c-5-7-8.5-15-10.3-23.4c-1.1-5.3-7.2-5.7-10.9-8.6
				c-2.6-2-5.6-3.7-7.3-4.8c3.9,22.6,0.7,56.3,17.1,74.6c33.2,22.9,5.9,125.4-16.2,87.8c-11-17.9-22.4-36.1-20-58
				c1.5-13.3,1.8-28,13.3-38.6c3.5-3.2,0.5-8,0-11.9c-1.5-12.3-3.9-24.4-5.7-36.7c-0.5-3.1-1.2-8.9-3.2-7.8
				c-19.1,11.3,12.2,37.9-36.5,69.2c-65.9,43.4-29.7-63.1,9.2-65.1c11.6-1.9,18.7-6.6,24.2-14.6c7.2-10.4-0.9-21-2.6-31.4
				c-2.3-13.7-5.8-27.3-9.2-40.8c-2.5-10-5.5-19.9-8.4-29.8c-8.2-8-14.8,21.7-14.5,26.6c0.2,8.6-4.7,16.8-8.9,24.6
				c-11.3,21.5-31.7,29.3-53.2,34.1C134.8,215.6,137.7,202.2,137.6,196.7L137.6,196.7z M203.2,279.6c8-9.9,16.7-19.3,24.1-29.7
				c-17.2,1.2-40.3,32-39.6,50C193,292.8,197.9,286,203.2,279.6L203.2,279.6z M232.3,259.3c-12.2,15.1-24.9,28.8-35.1,45
				C214.7,302.5,234.3,275,232.3,259.3L232.3,259.3z M274.6,313.1c1.7,22.3,3.5,44.7,5.3,68.3C287.9,353,284.8,317.1,274.6,313.1
				L274.6,313.1z M304.3,241.8c16,9.5,30.2,20,44.5,31.9C347.2,260.3,317.9,239.5,304.3,241.8L304.3,241.8z M293.8,253
				c10.5,23.5,30.8,38.6,59,36.7c-15.2-14.7-35.1-25-52.1-37.8c-1.8-1.2-4.6-0.9-6.9-1.3C293.9,251.3,293.5,252.3,293.8,253z
				 M259.6,308.2c-0.8,0.8-2.2,1.5-2.4,2.4c-7.1,25.5-2.3,50.1,13.2,72.4c-3.3-23.5-8.4-44.6-7.8-68.2
				C262.8,312.6,260.7,310.3,259.6,308.2L259.6,308.2z M294.5,161.8l56.1,28.2C334.1,172.9,320.2,156.7,294.5,161.8L294.5,161.8z
				 M291.4,178c15.3,12,32.1,20.3,53.1,18.6C340.2,195.7,275.6,162.2,291.4,178L291.4,178z M265.4,66.5c20.1,5.3,39.3,11.4,59.4,14
				C313.1,65.5,282.5,58,265.4,66.5L265.4,66.5z M264.9,77.2c20.6,23.5,57.9,26,74.5,16.2C314.7,90.2,291.2,84.3,264.9,77.2
				L264.9,77.2z M198.2,154.9c-13.5,15.2-26.2,30.8-42.3,43.5C171,200,200.6,169.5,198.2,154.9L198.2,154.9z M149.9,191.4
				c14.4-14.9,29.3-28.9,41.3-46C177.4,146.6,147.5,179.8,149.9,191.4L149.9,191.4z M960.9,460.2c-24.3,37.5-42.7,78.5-59,120
				c-7.8,18.2-16.1,36.3-20.7,55.7c-1.3,5.5,15.6,25.1,21.2,25.1c35.6,3.7,59.6,56.2,46.9,89.7c-5,12.4-13.8,4.9-20,3.5
				c-29.5-6.6-36.8-30.7-42.3-56c-7-30.4,11-19.9-8.7-47.6c-9.5,33.6-16.3,63.7-25.6,96.2c-3.3,9.9,5,14.2,8,21
				c1.2,2.7,4.3,4.7,5.3,7.4c12.5,23.9,42.8,0.8,57.5,65.1c11.6,53.8-77.6,6.4-63.5-45.5c1.7-12-6.2-16.9-9-25.2
				c-0.1-0.4-1.2-0.5-1.8-0.8c-1.3,3-3.5,5.9-3.8,9c-6.9,42.5-14.8,84.6-23.6,127c-0.7,2.3,4.3,6.6,7.1,9.6
				c9.6,10.3,19.6,20.2,29,30.7c6.7,7.5,15.7,3.3,23.5,5.6c20.7,6.2,53.5,29.2,54.8,55.8c0.4,8.4-0.7,18.1-10.1,22.3
				c-26.8,12.7-65.6-32.9-67.6-56.8c0-15-10.1-23.8-20-32.5c-6.8-6-10.3-15-18.7-19.5c-3.8,18.3-8.3,36.4-11.1,55
				c-1.8,12.4-1.7,25.4-7,37.5c-1.9,4.3-2.9,10.8,4.9,15.7c8.5,5.3,15.4,14.1,21.4,22.4c7.1,9.8,17.4,9.1,26.9,10
				c23.6,2.3,52.4,24.8,57.8,47.3c2,15.4-15.8,27.9-30.2,20.5c-27.5-11.2-40.9-33.1-50.2-59.9c-5-11.7-20.3-19.8-28.9-29.9
				c-4.2-5.2-5.6-1.6-6.2,1.9c-4,21.5-5.1,43.9-10.3,65.1c-5,9.9,2.3,14.6,7.9,20.2c24.2,26.5,16.6,20.7,49.4,28.9
				c19.7,9.8,41.3,25.8,44.7,52.1c1.4,10.4-15.2,21.3-25.9,15.7c-21.5-11.2-38.5-26.9-46.4-51c-4.7-14.3-13.2-26.6-26.6-34.5
				c-6.8-4-4.9-3.1-9,5.5c-4.1,8.8-4.5,17.3-4.7,26.1c-0.2,10.2,9.1,17.6,10,28c4.3,25-6.2,80.6-41.6,65c-11.5-6.8-10-19.2-8.5-31.5
				c1.8-23,14.5-41.3,27-59.6c2.2-3,4-6.2,3.6-10.2c-0.3-27.5,5.7-54.3,9.9-81.2c3.5-32.5,9.7-64.8,14.2-97
				c-14.1,3.3-15.5,17.4-20,29c-33.4,76.5-63.5,19.4-103.1,95.3c-13.5,17.6-16.8,40.3-26.5,59.9c-0.3,0.6,0.7,1.7,1.1,2.6
				c3.8-3.7,8.8-1.8,13.1-2.7c13.8-2.6,20.2-17.6,33.4-19.9c16.7-2.9,32.4-14.2,50.8-5.8c9.4,4.3,15.4,11.2,14.9,20.9
				c-8.2,33.2-66.3,30.8-89.7,14.6c-5.9-3.4-11.5,1.4-17.2,2c-20,2.2-15.1,19.9-18.4,31.8c-5,17.9,13.8,15.8,21.3,23.3
				c13.6,13.4,33.4,7,48.2,16.7c19.9,12.1,57.3,38.3,37.6,64.6c-34.3,22.6-70.2-38.1-80.2-65.1c-2.3-5.7-12.9-7.7-19.1-12.2
				c-15.8-11.5-14.5,2.3-16,10.8c-3,16.8-4.5,34-8.4,50.6c-3,12.4,6,16.1,12.6,21.3s13.9,10.5,21.7,12.8c9.3,2.8,19.5,0.4,29.1,4.2
				c25.5,7.3,76.7,51.7,43.7,75.9c-30.5,17.9-72.4-43.6-77.7-69.8c-1.7-5.2-12.8-9.4-19.2-12.6c-4.4-2.7-7.5-7.5-13.3-8
				c-0.7,12.5-2.3,24.9-3.5,37.3c-0.2,2-0.1,4.7,1.1,5.9c25.2,26.3,25.3,86.7-18.2,91.8c-10.4-1.3-20.3-17.8-17.4-27.9
				c2.8-9.9,1.1-20.8,5.2-30.7c4-9.6,6.6-20,13.6-28c8.1-9.4,4.4-20.6,5.4-31.1c0.6-6,0.9-12.1,1.4-18.5c-33,13-37.3,9.9-61.7,36.7
				c-20.6,15.5-73,30.2-76.6-7.2c1.3-36.2,66.9-36.8,91.6-24.5c5,2.2,9.5-2.7,14.1-4.4c7-2.6,13.5-6.1,21.4-7
				c17.4-1.8,13.4-17.1,14.3-27.3c2.3-23,8.5-45,10.6-68c-16.6,4.5-34.2,7.8-50.7,14.1c-10.1,3.9-18.9,11.9-27.6,19
				c-10.3,8.4-43.7,13.3-55.9,7.9c-25.9-8.7-28.2-37.4-0.8-45.1c63.3-23.1,51.6,16.7,116.3-1.3c19.8-2.9,21.6,0.6,26.5-20.7
				c2.6-6.2,4.8-12.7,6.5-19.2c1.3-4.9-4.1-4.3-6.1-4.7c-15.5-2.9-30.5-7.4-45.5-11.9c-7.7-2.3-15.5,4.1-24.2,3.9
				c-20.2-0.5-36.9-7.5-50.4-22.5c-16.1-16.4,8.1-38.3,25.4-31c18.3,4.8,33.6,16.4,44.4,31.1c13.2,17.8,33.3,12.8,49.5,20
				c3.1,1.4,6.6,2.1,10.1,3.1c6-19.4,13.6-38.3,22.5-56.5c2.1-4.3-2.8-6.4-5-8.2c-30.5-26.7-53.6-23.5-89.9-11.8
				c-91.2,23.5-85.4-19.5-124.6,0.2c-35.5,15.8-70.9,3.3-106.2-6c-7-1-11.2,7.5-16.9,11.4c-16.9,11.7-48.8,43.2-41.7,65
				c13.9,37.4-37.8,92.8-48.3,56.9c-6.2-24.3,5.9-41.3,20.8-57.3c16.8-10.1,17.1-8.9,25.2-28c0.4-0.8-2.2,0-3.4,0.8
				c-17.4,11.8-36.9,17.4-57.3,20.1c-2.5,0.2-7.4,0.6-8.4,2.9c-8.9,61.4-81.7,90.9-76.3,157.5c-3.5,77.4,92.8,162.3,160,98.7
				c21.7-18.4,30.4-37.4,28.3-65.7c-1.1-12.2-11.6-2.2-17.4-3.1c-17.3-2.7-35.4-2.8-48.9-16.8c-4.2-4.3-8-8.4-3.9-14.5
				c5.4-8,14.4-4.5,21.7-5.4c43.5-5.9,47,26.8,49.8,3c3.5-17.6,30.9-45.6,48.1-32.8c5.5,5.4,3.3,13.7,0,19.2
				c-6.9,11.6-11.7,24.9-23.1,33.5c-13.7,11.2-20.7,7.9-15.1,27.9c2.3,34.3-22.4,62-50.3,78.4c-76.6,43.3-166.3-43.2-162.5-121.9
				c-2-74.3,54.7-94,74.5-148.5c0.8-3.2,4.1-6.6,1.4-10.2c-3.1-4-6.2-0.9-9.6,0c-5.2,1.4-9.4-3.4-16.1-0.7
				c-10.9,4.4-16.4,11.5-20.8,21.5c-11.1,23.6-45.9,34.4-70.3,27.7c-10.7-3-8.7-9.5-5.6-15.8c14.8-28.8,40.8-36,69.8-32
				c10,1.3,11.3-4.8,21.6-8c-33.8-21.1-44.5-64.4-39.8-102.2c0.3-4.6-6-4.2-8.1-8.5c-7.1-14.7-4.7-28.8,0.3-43.2
				c4.1-18.7,40.2-58.3,48.4-21.4c10.9,75.2-51.2,48-24,132c6.4-7.9,12.8-15.6,19-23.5c5.3-9.3-10.7-9.6,6.9-35.4
				c6.7-14.1,49.3-43.5,61.1-24.3c4.7,7.8,1.7,16.5-2.8,23.8c-12.3,19.9-29,32.3-53.2,35.7c-2.4,0.3-4.5,2.3-6.5,4.9
				c-2.8,4.3-6.7,9.4-8.9,13.7c-5.8,6.8-14.7,12.7-4.9,23.1c9.4,11,22.3,24.3,37.8,22.8c8.5-0.4,9.7-5.7,9.8-19.1
				c3.6-49.3,65.7-69.1,108.1-61.1c54.6,10.9,51.6-12.9,100.7-8.1c18,0.6,34.7,6.8,51.8,11.6c9.2,2.6,16.5-5.8,24.8-8.8
				c62.3-27.4,135.6-8.2,185.7,35.6c2,1.8,2.9,1.7,4.2-0.4c6.8-11.3,14.5-21.8,24-31.2c6.5-6.4,1.4-15.3,2.7-23.1
				c5.7-37.9,48.5-67,85.8-58.4c3.1,0.2,21.3-14,21.7-16.3c9.8-59.1,21.4-118.3,33.7-176.6c-140,238.3-465.2,264.8-646.7,59.4
				c-12-15.1-24.6-29.6-34.1-46.8c-5-9-10.1-18.8-17.3-26.2c-5.8-4.3-17.6,4.8-24.8,6.7c-6.2,1.7-15.6,10.8-20.4,4.3
				c-2-14.7,17.8-28.4,27.1-37.9c4.4-3.9,4.3-7,2-11.4c-29.2-69.7-39.2-148.3-22.3-222.4c8.9-41.5,21.8-82.4,42.9-119.5
				c3.4-4,10.2-19.2,16.1-16.5c2.4,1.3,5.7,3.9,5.7,6c-0.1,14.3,1.3,28.5,4.2,42.5c6,34,18.3,67,32.3,98.5
				c15.6,36.3,38.4,68.9,63.4,99.7c7.9,9.2,13.2,2.1,18.2-0.5c35.2-17.5,73-28.4,109.9-41.4c6.4-1.8,3-4.4,1-7.1
				c-10.9-14-27.1-20.2-42.3-27.7c-89.4-52.7,62.4-208.3,108.2-251.7c37.5-28.9,109.9-104.6,158.8-88.6c11.9,5.6,18.8-4.4,26-9.4
				c22.5-14.4,57.9-24.4,81.3-8.9c13.7,6.4-30.7,40.9-36.1,47.2c-41.5,38.8-86,74.1-123.8,116.4c-5.1,6.9-10,14.3-15.7,20.9
				c-3.1,3.6-5.8,6.8-4.1,13.6c3.3,10.6-5,20.9-10.6,29.6c12.1,12.4,3.3,22.7-2.8,33.4c17.4,4.8,18.2,24.6,6.4,38.6
				c13-1.4,26.6-1.1,36.4,7.2c9.4,7.2,17.2,16.7,28.6,21.6c0.8,0.3,1.1,1.8,1.3,2.2c11.5-17.7,24.3-34.6,34.2-53.1
				c32.2-57.6,76.1-107.4,105.4-166.6c0.5-1,3.3-2,3.7-1.6c2.2,2.3,5.5,4.8,5.8,7.6c3.6,34.5,8.3,68.8,13.7,103.1
				c1.7,13.1-1.1,26.3,16.4,26c10.1,0,19.6,3.1,28.6,6.5c16.1,6,33.1,9.4,48.9,16.9c9,4.3,19.5,5.3,29.4,7.5c6.6,0.5,7.4,9,1.3,10.8
				c-80.7,37.4-160.5,76.7-241.8,112.9c-5.6,2.5-6.7,7.7-7.8,12.2c-5,20.6-14.8,38.7-27.3,55.6c-28,34.5-72.4,60.6-114.2,75.2
				c12.4,1.4,41.2,8.9,30.9,25.9c-2.8,4-0.2,4.5,2.4,4.8c115.3,11.5,247.2-35.5,328.9-117.7c-50.3,7.2-32.8,9.5-70.5,33.1
				c-25.4,16-103.4,1.6-61.3-35.6c22.9-17.8,76.5-26,97.1-1.2c1,1.3,6.3,0.1,8.5-0.7c9.7-3.3,20-3.5,30-5.1
				c12.8-2.1,9.7-12.3,12.7-18.7c9.3-20.1,17-41,25-60.8c-53,3.2-24.9,27-67.5,34.5c-15.8,3.8-32.9,5.9-47.6-2.2
				c-6.9-3.8-22.8-0.8-19.6-14.1c7.9-33.3,57.3-46.5,86.4-31.7c12.3,6.2,24.7,8.6,37,6.5c17.8-2.9,20.9-8.4,26.4-25
				C914.8,516.6,965.3,426.2,960.9,460.2L960.9,460.2z M780.4,565.4l72.5-13.4C831.3,539.9,795.7,546.1,780.4,565.4z M857.2,562
				L781,576.4C809,584.3,832.8,583.1,857.2,562z M801.8,654.5c-24.7-0.2-48.6,8.5-75.5,10.3C753.2,680.6,781,671.3,801.8,654.5
				L801.8,654.5z M812.8,642c-28.8-13.5-64.5-9.5-88.6,15C754.5,651.5,783,648.1,812.8,642L812.8,642z M171.2,1060.3
				c-1.1,1.4-2.1,2.8-3,4.3c19.8-7.1,39-21.6,38.7-45.9C198.1,1035.6,183.1,1045.8,171.2,1060.3z M158.2,1061.7
				c12.7-12.6,25.1-24.9,39.4-39.1C176.4,1027.6,153,1050,158.2,1061.7L158.2,1061.7z M123.6,1027.7c16.6-12.8,24.1-40.1,16.6-59.8
				C132.3,987.1,126.7,1007.2,123.6,1027.7L123.6,1027.7z M112.6,1028.9c5-22.8,11.2-44.6,21.4-67.3
				C113.6,979.5,102.7,1014.4,112.6,1028.9L112.6,1028.9z M125.1,1159.8c-17.7-3.5-44.4,8.4-55.2,24.5
				C90.3,1180.3,106.9,1169,125.1,1159.8L125.1,1159.8z M128.6,1167.3c-5.2-0.6-7.9,3.9-11.9,5.8c-11.7,5.8-23.2,12.1-35.9,18.8
				C101.3,1192.5,117.1,1182.1,128.6,1167.3L128.6,1167.3z M315.1,1322c0.4,1.4,0.9,4.1,3.8,2.2c14.4-9,22-23.1,28.1-38.3
				C354.8,1269.7,315.2,1292.5,315.1,1322z M302,1327.7c-10.1-17.8-31.9-15.2-48.9-15.1c-1.3,0-2.6,1.3-3.9,1.9
				c12.2,13.5,29.9,11.1,45.7,15L302,1327.7z M250.6,1156c-13.4,16.4-24.6,29.6-23.5,50.9L250.6,1156z M258.9,1160.9l-23.4,49.2
				C255.1,1198,259.1,1181.2,258.9,1160.9L258.9,1160.9z M299,1074.2c-3.3-1.5-7.6-1.2-11.2-1c-11.5,0.5-23-2.5-34.6,0.2
				c-21.2,7.7-46.4,16.2-52.1,41.1c-1.3,8-3.4,17.2-3.3,25.2c1.6,0.7,3.3,0.9,5,0.7c24.8-6.1,49.5-11.6,68.6-30.2
				c8.8-8.3,18.3-15.7,27.4-23.6c3-2.6,8-4.8,8.6-7.8C308.3,1073.2,301.9,1075.5,299,1074.2z M433.7,1070.1
				c-31.3-7.3-61-12.3-90.7,0.4C372.6,1080.4,402.3,1083.6,433.7,1070.1L433.7,1070.1z M588.3,1066.6
				c-16.5-15.2-99.6-10.8-122.8,7.3C507.8,1092,548.3,1075.4,588.3,1066.6L588.3,1066.6z M563.7,1148c-58.5-63.1-89-7.8-12.7,4.9
				C553.9,1149.8,569.5,1152.7,563.7,1148z M544.7,1227c-23.8-10-47.5-9.3-70.5,2.3c-5.6,2.8-8.8,8.6-2.9,13.6
				c16.2,15.8,33,7.9,53.5,4.4C527.1,1241.7,559,1234.6,544.7,1227L544.7,1227z M543.9,1334.8c-15.3-6.8-74.9-8.4-72.3,16.4
				c2.2,11.3,12.1,13.5,23.6,12c19.7-2.5,34.9-12.8,49.5-24.9C545.3,1337.9,548.1,1336.3,543.9,1334.8L543.9,1334.8z M603.8,1376.6
				c-6-16.4-22.8,47.4-21.4,56.6c-0.7,2.7,1.3,9.8,7.9,11.3c8.2,1.9,12.7-5.6,16.8-11.6C620.2,1413.3,609.1,1395,603.8,1376.6
				L603.8,1376.6z M652.2,1343.9c8.1,20,35.7,64.9,60.7,58.8c12.6-9.2-3.3-31.3-12-38.6c-12.8-12.4-27.9-20.2-45.6-22.8
				C654.6,1341.1,650.1,1338.6,652.2,1343.9L652.2,1343.9z M669.4,1254.5c14.1,19.2,27.9,54.6,56.8,51.8c4.4-1,3.5-13.2,1.3-17.2
				c-13.9-18.9-31.2-33.1-54.9-37.9C670,1250.6,667.5,1251.7,669.4,1254.5L669.4,1254.5z M673.2,1167.2c9.8,6.2,23.1,8.6,35,7.7
				c6.3-0.5,12.9,1.6,18.8-2s15.6-4.7,14-13.8c-1.5-8.4-9.4-11.1-17.7-10C706.2,1152.2,685.2,1153.5,673.2,1167.2L673.2,1167.2z
				 M762.6,1003.4c-19.8,15.8-35.6,31.6-55.6,49.9C732.2,1046,758,1027.3,762.6,1003.4L762.6,1003.4z M763.1,987.8
				c-26.1-5.6-57.8,20.8-65,54.3C720.4,1024.1,739.1,1002.9,763.1,987.8L763.1,987.8z M769.9,1177.4c-11.6,16.6-22,34.1-24.2,55
				c-3.7,17.2,8.2,30.2,21.3,13.7C780.7,1225.9,780.2,1199.1,769.9,1177.4L769.9,1177.4z M824.6,1161.7c2.9,11.6,8.7,22.4,17.1,30
				s15.2,18.8,28.6,19.4c1.7-0.4,3.8,0.8,5.1-1.8c5.6-21.7-30.3-45.9-48.7-49.5C823.8,1158.7,823.9,1158.8,824.6,1161.7
				L824.6,1161.7z M844.1,1069.1c8,22.8,23.6,44.4,49.6,50c2.9,0.1,4.9-3.6,5.7-6.4C904.8,1092.3,861.3,1065.9,844.1,1069.1
				L844.1,1069.1z M867.6,960.9c-2.5,18.3,48.4,83.9,55.4,45.7c0.1-5.3-1.3-10.5-4.2-14.9c-11.5-17.2-27.8-27.5-47.3-33.5
				C869.1,957,867.4,958.4,867.6,960.9L867.6,960.9z M881.3,797.6c9.9,18.8,21,32.4,33.1,51.3c-3.9-22.2-10.6-40.2-30.3-51.7
				C883.5,796.8,882.2,797.5,881.3,797.6z M867.3,797.3c4.1,30.3,27,60.8,41.4,56.7C892.3,837.8,881.3,817.5,867.3,797.3
				L867.3,797.3z M519.3,784.4c-12.5,2.2-25.8,2.4-37.2,7.3c-5.2,2.2-12.8,1.5-18.7,3.3c-11.7,1.8-9.5,19.4-7.9,29.5
				c0.7,0.3,1.5,0.3,2.2,0.1c8.1-6,17.8-8,27.1-11c15.7-5.1,30.8-12.1,47.3-14.6C542.1,796.9,528.6,782,519.3,784.4L519.3,784.4z
				 M674.9,811.2c-0.7-4.4-4.4-2.2-6.4-2c-67.6,2.8-130.2,27.8-193.3,50c10.2,8.4,18.9,9,32,4.7c22.2-7.3,44.7-13.9,66.9-21.4
				c31.2-10.6,63.2-17.6,94.8-26.7C671.3,815.1,675.6,816.1,674.9,811.2L674.9,811.2z M593.9,845.4c-29.6,9.8-63.4,19.2-91.2,30.7
				c2.2,3.3,6.9,5.1,10.3,7.2c29.3-7.1,57.5-11.4,86.1-20.4c38.1-8.7,78.1-17.2,109.6-41.5c-1.9-1.5-3.8-4.2-5.7-4.2
				c-8.8,0.3-18.4-0.8-26.3,2.4C649.7,830.5,621.6,837.1,593.9,845.4L593.9,845.4z M381.1,789.5c-6.1,35.1-40.1,52.5-55.4,82.3
				c-3.5,8.6-7.5,19,2.1,24.5c29.6,14.1,70.4,8.3,101.9,2.5c21.3-3.8,42.4-8.4,63.6-12.6c1.9-0.4,2.9-1.9,1.3-2.5
				c-11.4-4.1-20.1-17.5-35.2-8.8c-10.9,6.2-23.7,4.7-35.7,6.4c-15.6,1.8-32.1,5-47.2-0.5c1.8-1.3,3.7-3.7,5.5-3.8
				c26.2-1.7,55.4-3.6,79.7-12.3c1.8-2-5.7-4.6-8.4-7.9c-1.9-2.3-1.7-8.3-5-7c-9.3,4.6-64.9,16.3-70.1,9c-0.7-2.6,2-3.6,4-4
				c14.8-2.8,29.9-4.6,44.4-8.4c7.9-2.1,23.2,1.8,18.3-16.1c-0.9-3.4-2.3-4.5-5-2.8c-10.2,6.7-52.2,17.1-55.9,7.4
				c-0.2-0.4,3.6-3.7,5.7-4c17.1-2.3,34-5.4,49.9-12.4c6.7-2.9,2.9-9.9,2.7-14.7c-0.1-4-3.4,0.1-5.2,0.3c-7.1,0.6-43,12-44.2,1.9
				c0-5.8,32.4-6.2,39.7-10c4.6-1.3,11.2,0.8,14-5c2.8-7.1,7.3-14.2,7.8-21.8c-7,1.5-43.3,16.7-46.1,7.4c-2.8-6.5,19.8-6,24.2-10.3
				c19.5-7.4,28.6-2.3,36.9-27.2c-28.1,7.5-56.1,15.4-84.8,20.7c-3.8,0.9-19.1-3.5-8.2,11C380.2,775.7,382,782.6,381.1,789.5z
				 M600.8,807.2c-13.8-11-41-5.8-58.5-1.9c-28.5,8.8-57.7,16.1-85.1,27.8c4.1,5.5,2.1,14.5,9.3,17.8c5.9,2.8,10.7-1.4,16.2-3.7
				C520.7,830.2,562,821.3,600.8,807.2L600.8,807.2z M518.8,767c-11-3.9-22.2-2.3-33.4-2.9c-13.7-1.2-22.3,3.6-25.2,19.2
				c-1.3,6.3,1.4,2.8,3.4,4c18.2-5.3,35.6-12.1,55-12.4C527.8,777.2,525.2,769.5,518.8,767L518.8,767z M472,752.6
				c-0.4,1.2-0.6,2.5-0.8,3.8c1.4,0.2,2.9,0.9,4.3,0.5c10.5-3,20.9-1.7,29.6-1.8c5.5,0.9,11.5-0.6,13.3-5.2c1.9-4.8-5.2-5.1-8.1-7.4
				C499.3,734.4,476.6,741.8,472,752.6z M581.1,549.6c-19.6,10.7-41.4,15.5-61.9,23.6c-6.4,2.5-20.1,1.2-8.8,15.1
				c9.1,11.3,21,17.4,34.4,20.6c6.7,1.6,15,5.4,20.3,3c26.5-10.8,52.1-23.8,77.8-36.7c40.4-18.4,81.1-36.3,121.5-54.7
				c36.6-16,69.3-35.5,107.9-48.2c-18-6.2-34-12.6-50.5-16.8c-7.3-1.8-13.7-10.2-22.8-4c-50.2,32.9-103.7,60.4-153.2,94.3
				c-7.4,6.6-17.8-1.2-8.5-8.4c51.8-29.8,103.8-59.6,154.2-91.6c-24.2-9.7-31.4-9-46.9,2.3c-24.2,17.7-45.7,39.4-71.8,55.5
				c-0.1-3.8-1.6-6.1,1.5-9.1c20.3-19.4,41.3-37.9,64.5-53.9c4.4-3.1,11.8-4.9,11.1-12.4c-0.9-9.7-2.7-19.3-4.1-29.4
				c-19.3,20.8-33.9,45-54.3,64.5c-1.4,1.2-3,3.8-4.7,1.6c-1.9-4.2,3-9,5.1-12.5c10.6-15.6,23.5-29.5,35.3-44.1
				c9.2-11.5,20.2-21.1,16.1-39.1c-3.5-15.3-3.3-31.4-4.8-48.2c-31,62-79.5,111-112.1,171.5c-6,14.8-23.3,23.7-21.5,42.6
				C603.9,545.2,587.9,544.4,581.1,549.6L581.1,549.6z M575.9,514.3c-18.2,12.5-39.6,16.7-59.3,25.1c-5.3,2.3-12.2,2.6-16.2,8.4
				c5.5,5.3-1.2,22.6,7,19.1c14.5-5.5,28.7-11.5,43.9-15.4c11.6-3.2,22.9-7.5,33.7-12.9c3.8-1.8,14.1,0,9.9-10.1
				c-1.3-3-3.4-6.3-6.1-7.9C584.5,518.2,580.7,510.9,575.9,514.3L575.9,514.3z M523.6,496.4c-13.2,8.8-25.2,20-41.4,23.2
				c0.3,0.7,0.5,1.8,1,2.1c3.8,1.5,4.3,5.9,6.8,8.1c2.8,2.4,2.5,9.1,10,6.1c24.1-10.5,49.5-14.6,72.1-28.6
				c-7.9-5.5-15-11.3-24.7-11.9C539.5,494.3,529.3,492.6,523.6,496.4L523.6,496.4z M524.5,453.3c-1.8-2.9-5.3,0.9-6.4,2
				c-18.3,17.3-40.1,28.8-65.4,33c9.4,3.8,17.4,22.5,26.1,23.5C498.5,503.4,542.6,479.5,524.5,453.3L524.5,453.3z M481.1,468.7
				c14.3-7.5,49.1-27.1,41.1-47.5c-21,15.9-42.4,29.7-68.6,36c-21.3,2.1-7.3,10.9-3.9,24.7C460.5,477.4,471.4,474.1,481.1,468.7z
				 M529.5,386.5c-5.1-6-43.3,8.3-54.2,8.4c-28.9,1.3-31.3,32.4-33.5,55c-0.5,4,2.4,1,3.1,0.8C477.2,436.2,519.5,426,529.5,386.5
				L529.5,386.5z M687.2,195.8c-65.8,50.5-127.9,108.1-172.5,178.5l10.1,1.8c1.2,0.3,4-3,6.4-7.2c17.3-30.8,45.1-53,70.8-76.4
				C636,261,670.2,230,704.3,198.8C714,190.7,690.6,191.5,687.2,195.8z M579.6,258.2c-42.9,36.9-78.6,81.1-112.2,126.3
				c4.4,0.9,9.1-0.5,12.7-1.7c7.4-3.2,18.2-0.1,22.5-7.5c13.4-23.2,29.9-44.1,47.4-64.1c16.8-19.2,35.5-36.7,52.8-55.5
				c16.9-18.4,36.3-33.5,57.2-47.1c3.3-2.1,5.4-6.1,8.1-9.2C650.1,190.3,594.2,245,579.6,258.2z M511.3,290.9
				c-28.4,28.9-50.3,63.1-76.6,93.7c-1.8,2.1-1.9,5.6-2.8,8.5c2.4,0.6,5.6,2.5,7.2,1.5c6.9-4,14.6-5.7,20-13.8
				c39.1-61,91.4-112.2,143.8-161.5c-7.1-0.8-13.2-2-20.7,5.6C556.7,245.1,533.9,267.9,511.3,290.9z M370.8,414
				c4.6,1.4,7.7-2.8,11.9-3c14.7-6,30.4-8.7,40.4-24.3c34.6-54.4,76.4-101.8,124.6-145.4c-6.1-0.3-7.5,5.1-11.1,7.1
				c-20.8,11.3-37.4,28.3-55.9,42.6C437.2,325.4,400,367,370.8,414z M251.2,644c-20.5,11.9-54.1,27-61.5,50.7
				c-2.8,12.8,17.3,38.1,29.9,44.3c62.1,29,129.6,9.3,193.4-1.6c82-14.7,168.8-59.2,206.3-137.2c-19.7,4.9-34.7,17.7-50.3,29.4
				c-19.1,14.2-43.8,23.7-46.2,52.8c-0.1,1.7-1.3,5.4-4.7,5.4c-2.8,0-2.5-2.8-3.5-4.5c-4.2-7.2-0.8-14.9,1.8-20.3
				c7.7-16,20.8-27.3,37.5-34.3c2.4-1,5.8-6.3,5.2-6.3c-8.9,0.6-17.2-6.9-25.9-2.6c-16.8,11.6-50.2,20.9-50.3,44.7
				c-0.1,2.3-0.6,5.1-1.9,6.9c-4.5,5.9-7.2,0.5-7.7-2.5c-5.1-32.2,30.1-42.7,51.7-55.4c-8.8-6.9-18.1-12.1-24.5-22
				c-7.6-5.3-7.2-53.1-17.9-43s-24.1,16.2-37.4,22.3c-1.7,0.8-4.5,1-5.7-1.6c-0.8-1.7-1.1-3.3,1.2-4.6c5.6-3.1,10.9-7,16.7-9.6
				c19.8-8.7,23.3-17.5,12-30.7c-1.8-2.1-2.9-2.1-4-0.7c-5.5,6.7-49.1,33.8-54.1,22.6c-1-2.4,0.8-4.3,2.7-5.2
				c9.9-4.8,19.7-9.7,29.8-14.1c17.8-7.8,18.8-11.8,5-25c-1.9-1.8-2.5-6.8-6.9-4.6c-4.6,2.3-8.7,5.5-13.3,7.8
				c-10.9,5.5-21.8,10.8-32.9,15.8c-2.9,1.3-6.3,0.7-7.8-3c-3.3-4.8,27-12.5,31.8-18.8c5.8-4.7,17.6-4.8,16.7-14.1
				c-1.1-10.7-5.2-19.9-19.2-7.3c-15,7.9-29.8,16.3-47,18.5c-2.6,0.4-6.1,0.4-6.8-2.6c-0.4-1.9,1.6-3.8,4.5-4.7
				c21.9-8.3,70.8-24.3,62.2-51.6c-12.6,6.1-57.4,29.6-68.8,22.7c-2.1-1.2,1.4-4.8,3.7-5.8c7.6-3.3,15.9-5.4,23.2-9.3
				c19.8-9.8,45.8-11.7,52.5-39.2c-11.4-0.8-22.6,5.8-33.8,8.3c-9.4,2.9-19.1,5.3-28,9.4c-8.3,3.9-19.5,3.6-23.8,14
				c-6.2,15-13.4,29.4-16.8,45.7c-13.8,73.3,94.6,32.5,76.4,141c-1.1,7.3-9.4,9.1-11.9,1.5c-1.5-8.1-2-16.5-4.2-24.4
				c-1.4-4.8,0.3-14.3-6.8-13.3C344.7,604.6,296.9,622.9,251.2,644z M191.9,731.5c-2.6-2.8-5.1-5.5-5.9-8.8
				c-3.8-15-11.7-11.5-20-5.3c-4.7,3.5-5.6,9.6-4.8,15.2c5.9,13,24.9,7.9,35.2,3.9C195.1,734.8,193.5,733.1,191.9,731.5z
				 M120.9,715.5c1.5,5.8,4.4,10.7,6.9,16c4.3-3.8,8.8-7.4,13.5-10.6c10.9-13.6,35.4-11.7,38.8-33.9c12.2-22.1,35.2-35.9,56.7-47
				c11.2-5.6,8-9.1,2.4-15.1c-52.9-61.2-78.9-138.2-97.5-216.2C94.2,509.1,85.3,609.2,120.9,715.5L120.9,715.5z M149.1,751.4
				c3.5-1.2,14.4,2.3,7.3-6.5c-7.6-7.3-3.6-20.6-7.5-17c-16.4,12.1-32.6,24.6-46.9,43C119.2,763.8,134.3,758,149.1,751.4z
				 M855,668.7c-92.6,74.1-200.3,112-320.4,110.5c17.1,8.1,4.7,18,17.4,15.1c14.7-2.4,29-6.4,44.2,0c5.6,2.3,10.7,8.5,17.2,7
				c16.5-3.9,32.5-7.5,50-4.8c17.3,1.7,81.8,12.1,54.2,38.3c-12.8,5.7-25.7,11.3-38.8,16.1c-63.8,23.5-131,34.8-197,50
				c-39.3,5.9-171.8,39-178.5-19.6c9.1-37.5,47.5-54.6,61.1-89.3c2.9-9.8-9.7-26.9-19.5-26c-12,1.1-24,2.1-36,2.8
				c-30.9-0.8-67.7-0.5-93.8-18.7c-16.5-13.1-42.1,3.6-59,9.3c-4.4,2-14,2.3-11.9,7.1c9.9,22.1,24.1,42.1,39.3,60.7
				c172.1,217.2,517.1,176.4,641.3-68.5c-9.2-1.5-13.9,7.7-19.2,12.9c-18.4,17.1-55.5,23.8-78,13.1c-5.1-2.4-8.9-7-5.8-11.4
				c15.9-30,56.1-50.7,87.2-27.3c3,2.3,6.6,3.7,10.4,3.8c18.2-1.8,23.5-32.8,27.3-47.6C848.8,690.4,855.7,679.8,855,668.7z
				 M805.7,752.6c-25.4-12.6-52-6.9-71,18.5C757.6,762.4,781.4,756.2,805.7,752.6z M746.4,777.5c13,8.4,46.7-3.7,53.2-13.3
				L746.4,777.5z M901.8,669.2c12,22,23.7,43.6,35.6,65.1c0.8,1.5,3,2.3,4.6,3.4C942.3,709.3,933.1,680,901.8,669.2z M897.1,700.5
				c4.2,17.7,14.2,42.6,35.4,44.1c-10.1-24-27.8-43.5-38.8-68C891.6,685.5,895.2,692.9,897.1,700.5L897.1,700.5z M608.5,555.8
				c11.8-3.1,31.9-44.8,41.8-56.9c25.3-39.5,53.8-77.2,75.8-118.7c-2.8-7.5-19,15.7-21,18.8c-20.6,30.6-41,61.4-62.2,91.6
				c-12.1,17.8-24,35.7-36,53.6c-1.5,2.2-4.6,3.9-3.2,6.8C604.6,553,607.5,556.2,608.5,555.8z"/>
		</g>
	</g>
</g>
<g>
	<g id="Layer_1_2_">
		<g transform="matrix( 1, 0, 0, 1, 0,0) ">
			<g>
				<g id="Layer0_0_FILL_1_">
					<path d="M52,1548v15l-37,37h946l-37-37v-15H52 M52,52V37.7L14.3,0H0v1600h15l37-37v-15V52 M924,52V37.7L961.7,0H14.3L52,37.7
						V52H924 M976,0h-14.3L924,37.7V52v1496v15l37,37h15V0z"/>
				</g>
			</g>
			<g>
				<path id="Layer0_0_1_STROKES_1_" class="st6" d="M961,1600h15V0h-14.3L924,37.7V52v1496v15L961,1600H15H0V0h14.3h947.4 M52,52
					V37.7L14.3,0 M15,1600l37-37v-15V52h872 M924,1548H52"/>
			</g>
		</g>
	</g>
</g>
</svg>
