<svg xmlns="http://www.w3.org/2000/svg" xmlns:xlink="http://www.w3.org/1999/xlink" viewBox="0 0 976 1600">
<style type="text/css">
	.st0{fill:#FFFFFF;}
	.st1{clip-path:url(#SVGID_2_);}
	.st2{fill:#5D4E8C;}
	.st3{fill:#333333;}
	.st4{fill:none;stroke:#333333;stroke-width:2;stroke-linecap:square;stroke-miterlimit:3;}
</style>
<g id="Paper_Backing">
	<path class="st0" d="M960,22v1556c0,3.3-2.7,6-6,6H22c-3.3,0-6-2.7-6-6V22c0-3.3,2.7-6,6-6h932C957.3,16,960,18.7,960,22z"/>
</g>
<g id="Wikipedia_Cropped">
	<g>
		<g>
			<g>
				<defs>
					<path id="SVGID_1_" d="M960,22v1556c0,3.3-2.7,6-6,6H22c-3.3,0-6-2.7-6-6V22c0-3.3,2.7-6,6-6h932C957.3,16,960,18.7,960,22z"/>
				</defs>
				<clipPath id="SVGID_2_">
					<use xlink:href="#SVGID_1_"  style="overflow:visible;"/>
				</clipPath>
				<g class="st1">
					<path class="st2" d="M449.2,1431.3c-27.4-3.8-17.5-50-9.9-68.3c3.5-8.2,2.1-24.1,13.2-26.6
						C480.1,1356.9,491.2,1420.5,449.2,1431.3z M569.6,1309.9c-7.7-1.2-47.2-1.9-44.8-16.7c22.4-22,81.4-52.6,87.6-6.5
						C609.4,1306.2,585.9,1309.4,569.6,1309.9z M374.6,1303c-17.6-1.3-36.2,4.4-50.6-10.6c-13.2-9.7-14.7-36.4,6.4-38
						C347.7,1253.3,420.5,1303.5,374.6,1303L374.6,1303z M387.2,1204.8c-21.5,3-90-24.3-47.6-43.3
						C365,1155,450.1,1204.6,387.2,1204.8L387.2,1204.8z M571.2,1203.3c-19.8-1.2-45.5-3.1-51.8-19.3
						C576.2,1128.9,651.5,1196.5,571.2,1203.3L571.2,1203.3z M168.8,1139.1c-28.9-3.8,1.9-70.9,14.3-74.5
						C201.9,1079,197.2,1132.4,168.8,1139.1L168.8,1139.1z M397.8,1091.1c-25.2,2.5-88.1-33.3-46.7-48.2
						C378,1042.3,464.1,1089.3,397.8,1091.1L397.8,1091.1z M584.7,1081.3c-9-0.8-58.6-4.8-42-18.5c13.7-10.7,27.3-20.7,46.9-20.5
						C638.7,1037.8,627.6,1085.7,584.7,1081.3L584.7,1081.3z M292,1067.4c-24.5-2.5-45.7-18.8-63.8-33.4c-6-11.8,18.1-10,25.2-11.3
						C273.7,1019.7,331.8,1053.9,292,1067.4z M107.6,983.4c-28.3-2-32.1-35.4-2.9-38.6c12.9-3.9,68.4-5.4,55.9,15.1
						C146.2,974.5,128.4,982.4,107.6,983.4L107.6,983.4z M410.3,961.3c-22.5-2.6-45.3-3.9-64.4-21.2c-9-8.7-10.8-22.8,7-23.2
						C371.3,911.3,464.7,961.3,410.3,961.3L410.3,961.3z M590.4,960.9c-14.9-1.5-30.3-3.2-44.8-8.3c-16.3-12.4,27.1-25.5,39.9-26
						C619.7,920.5,625.7,957.5,590.4,960.9L590.4,960.9z M304.9,957.3c-21.6-3.5-41.5-12.8-56.4-21.7c-27-15,14.9-23.3,28.5-19.8
						C296.2,912.6,341.1,947.7,304.9,957.3L304.9,957.3z M797.3,929.8c-25.6-12.1-26.8-57.9-17-80.4
						C807.7,861.8,828.8,916,797.3,929.8L797.3,929.8z M665.1,889.1C630.5,876,693.4,829,713,839
						C715.2,861.8,690.8,885.2,665.1,889.1L665.1,889.1z M130,865c-67.5-12.5-7.1-50.5,45.6-29.5C198.6,850.8,142.1,867.6,130,865z
						 M895.4,859.3c-28,1.5-46.3-18.7-63.5-36c-10.7-9.9,14.4-9.4,19.6-9.6C874.2,808,937.9,847.5,895.4,859.3L895.4,859.3z
						 M592.2,858.9c-95.5,3.9-0.5-44.3,30.9-25.8C640,852.4,607,859.8,592.2,858.9z M308.3,850.8c-15.8-0.3-31-5.9-45.9-16.5
						c-20.5-13.3,13.8-24,25.5-23.4C310.1,806.4,345.7,849.2,308.3,850.8L308.3,850.8z M412.8,842.9c-78.9,1.7-90.5-99-19.2-37.2
						C399.1,813.4,431.4,836.9,412.8,842.9L412.8,842.9z M644,786.3c-60.7-10.9,29.3-60,40.3-32.1C679.9,770.9,659.3,787,644,786.3z
						 M326.8,762.8c-18.5-1.7-28.3-21.5-35-34.7C288.3,689.8,376.5,754.2,326.8,762.8z M875.2,743c-23.4-3-52.8-8-67.2-27.4
						c15.3-17.2,55.2-17.1,76.8-6.2C904.1,718.5,896.5,744.5,875.2,743z M555.9,739.2c-48.9-0.8,60.2-65.2,57.6-21.6
						C610.3,742.1,574.1,735.4,555.9,739.2L555.9,739.2z M434.1,723.2c-85.4,6-97.4-84.8-39.7-53.6
						C406.5,677.8,447,708.8,434.1,723.2L434.1,723.2z M818.3,625.2c-65.7,4.8,7.2-47.3,33.9-41.7
						C909.9,596.4,846.4,627.6,818.3,625.2L818.3,625.2z M433.2,616.8c-45.8,5.5-81.3-79-24.7-50.8C418,573.6,458.9,616,433.2,616.8
						L433.2,616.8z M447.5,511c-26.3,3.1-78.9-54.8-43.3-71.5C421.3,435.3,462.9,501.7,447.5,511L447.5,511z"/>
					<path class="st3" d="M153.7,744.9c-25.7,1.3-21.3-61.7-8.1-77.7C177,663.9,174.8,732.5,153.7,744.9z M660.7,618.8
						c-43.3-11.6-74.2-132.6-16.1-128.4C677.7,517.3,698,589.9,660.7,618.8z M236,618.4c-25.3-5.7-35.4-36.4-35.1-58.6
						c1.5-2,2.5-5.8,4.9-6.4c6.3-1.2,1.7-12.9,9.7-10.5c30.3,12.8,31.7,38.4,34.1,64.9c0.4,5.8-7.4,3.1-9.1,7.6
						C239.7,617.2,238,618.3,236,618.4z M75.4,576.2c-13.5-24.3,51.8-56.6,73.2-50.3c14.3,15.2-6.6,35.1-22.4,41.8
						c-12.3,5.5-25.9,7-35.3,7.7C84.9,571.2,81.2,572.7,75.4,576.2z M299.5,558.7c-39.5-8.6-88-117.7-37.1-114.7
						C297.9,461.6,326.8,526.5,299.5,558.7z M530.8,501.8c-22-14,22.4-105,45.4-79.3c14.4,20.4-9,59.4-26.5,74
						C542,502.1,540.4,494.1,530.8,501.8L530.8,501.8z M714.4,462.4c-21.3,0-39.3-13-62.4-31.4c-14.3-33.7,33.4-23.9,53.8-11.4
						C728,429.8,748.6,464.5,714.4,462.4z M141.5,442c-15.4-0.7-17.5,0.4-18.8-14.2c1.9-28.3,67.7-57.9,90.8-39.6
						C222.1,420.6,169.8,442.2,141.5,442z M339.5,433.3c-58.4-26-46.2-116.6-3.3-58.8c9.1,15.6,24.2,37.5,17.8,54.5
						C346.8,428.1,345.4,429.6,339.5,433.3L339.5,433.3z M860.4,430.8c-30.6-12.3-43.6-53.4-41.4-87.5c0.3-5.6,5.6-3.7,9-2.7
						c3.5,0.2,5.3-4.1,9-3.1C866.1,339.9,891.6,420.3,860.4,430.8L860.4,430.8z M734.6,374.8C705,360.3,746,317.2,765,315.6
						c8.3,5.4,21.4,0.5,13.8,18.6C771.7,355.8,753.9,367.1,734.6,374.8L734.6,374.8z M421.3,362.9c-34.1-4.1-67.7-52.1-47.6-80.4
						C405.6,261.3,433.1,347.2,421.3,362.9z M139.1,341.2c-6.4-0.3-1.9-9.6-8.1-10.8c-2.1-0.7-3.2-3-2.5-5.1
						c0.2-0.6,0.5-1.1,0.9-1.5c21-26.5,104-64,106.5-21.5v-0.1C201,344.2,178.4,332.2,139.1,341.2L139.1,341.2z M664.7,322.4
						c-16.4,1.6-68.1-21.1-46.3-43.8C646.9,260.9,729.5,321.1,664.7,322.4L664.7,322.4z M906.7,302.6c-20.8-0.8-59.1-16.3-59.2-43.5
						c21.1-17.8,67.8-1.6,75.1,25.1c-0.7,3.1,0.2,6.5,3.3,7.8C935.1,301.7,911.9,302.5,906.7,302.6L906.7,302.6z M249,221.3
						c-82.2,3.2-31.4-52.9,18.7-51c10-0.3,59.8,7.1,50.7,20.4C308,212.3,283.5,220.7,249,221.3z M631.3,217.6
						c-69.1-2.2,10.1-61.7,42.7-46.2C711.6,178.6,648.8,222,631.3,217.6L631.3,217.6z M89,215.7c-17.8-18.9,2.9-63.3,23.4-73.9
						c10.1,2.7,14-5.7,17.9-0.3C139.9,170.6,116.2,209.1,89,215.7z M855.3,178.3c-19.4,0-34.3-10.3-51.5-22.2
						c-14-8.8-10.7-5.9-9.7-19.9c-1.7-19.2,32.9-5,43.8-3.5C861.1,136,895.1,180.1,855.3,178.3L855.3,178.3z M233.1,144.5
						c-28.3,0.2-56.3-56.7-27.9-71.1C231.2,76.8,257.4,127.6,233.1,144.5z M586.3,141.2c-22.1-1.4-48.2-13.4-60.5-29.5
						c-3.2-6.3,7.2-5.7,6.8-11.5C555.7,72.1,666.1,139.7,586.3,141.2L586.3,141.2z M357.4,128.1c-27.8,0.1-51.6-9-65.4-25
						c-3.9,0-5.4-5.5-2-7.4C328.9,63.2,450.4,114.8,357.4,128.1L357.4,128.1z M92.4,93.7c-59.2-2-28.2-44.1,14.8-40.2
						C163.8,59,130.1,94.2,92.4,93.7z"/>
					<path d="M926.8,275.2c-19.7-29.4-54.2-39.1-87-24.4c-2.8,1.3-3.5,6.1-8.3,4.1c-14.6-6-30.1-9.4-45.9-9.9
						c-2.5-0.1-3.5-1.6-4.6-3.6c-23-43.5-45.2-84.1-75.3-124.5c19.9,8.5,38.8,12.6,57.1,18.5c8.8,2.8,20.7,0.7,24.8,13.2
						c1.1,3.3,3.3,6.1,6.2,8.1c20.3,13.3,38.8,31.3,66.5,27.1c14,0.2,24.2-9.2,17.2-23.4c-8.5-15.3-18.9-27.6-36.8-33
						c-18.5-5.6-36.4-11.4-55.6-2.8c-2.1,1-1.5,5-6.2,3.5c-17.7-5.7-36.1-9.2-53.5-15.4c-12.3-3.9-24.9-1.2-33.1-14.6
						c-18.8-29.8-42.9-56.2-58.1-88.5c-1.4-3-4.8-5.9-9-3.9c-4,1.9-1.1,4.5,0,6.4c25.4,50.3,61,94.5,91.4,141.4
						c-6.8,0.4-11.8,3.5-17.8,6.2c-6.4,2.1-11.7,8.2-18.9,6.6c-24.6-6.6-50.9-0.1-69.6,17.2c-9.5,7.9-18.8,18.6-10.9,31.9
						c5.5,9.3,17.1,7.6,27,8.2c26.3,1.9,57.8-14.7,64.6-41.4c3.4-15.2,16.2-18.2,27.3-25.3c25.1,35.3,42.6,75.1,63.9,112.7
						c6.1,9.9,18.9,21.2,0.4,33.3c-9.3,7.7-13.8,4.7-23.5,7.4c-23.6,11-50.3,36-40.7,64.9c3,5.1,8.9,7.9,14.6,5.8
						c13.5-5.1,26.8-10.2,38.1-20.3c31.9-28.1-1.2-45.8,27.7-60.7c3.7,14.8,19.9,24.3,14.9,43.5c-3.4,13.2-0.9,28,2.9,42.1
						c6.6,24.5,25.6,56,54.4,51.5c8.4-3.4,6.3-13.4,7.8-20.4c2.7-12.6,1-25.4-1.5-38.1c-4.2-21-15.2-36.4-34.5-45.7
						c-5.1-2.4-13-2.7-15.3-6.6c-13.9-23.8-27.9-47.8-40.2-72.5c8.1,1,16,2.9,23.7,5.5c40.8,7.6,14.3,12.7,56.7,37.9
						C887.4,314.4,955.4,318.4,926.8,275.2z M800.9,131.2c12.6-1.7,24.1,3,36.1,5.6c14.8,3.6,24.2,14.1,32.3,25.5
						c-12.5-5.3-24.4-9.9-36-15.3c-11.4-5.4-23.4-8.5-35.3-12.1c-0.5-0.1-0.7-1.3-1-1.9C798.3,132.3,799.6,131.3,800.9,131.2
						L800.9,131.2z M869.5,172.3c-29,8.4-48.9-10-73.4-26.2C824,152.3,846.3,163.7,869.5,172.3L869.5,172.3z M607.3,204.4
						c3.9-19.9,43.7-34.3,63.6-30.6C648,184.6,628.5,195.6,607.3,204.4z M682.1,180.6c-14.6,25.3-39.3,36.5-68.5,32.3
						c24-12.8,44.4-22.5,67.1-35.6C683.1,176.9,683,179.1,682.1,180.6L682.1,180.6z M727.7,363.5c-2.1-14.9,26.2-45.9,38.7-43.8
						L727.7,363.5z M774.3,334.6c-6.2,15.9-17.5,27.2-34.1,32.4c-2.5,0.8-3.1,5.1-7.3,3.5c11.5-13.3,22.7-26.3,34-39.3
						c2.7-3.1,5.7-9.1,9-7.4C779.6,325.7,775.5,331.5,774.3,334.6L774.3,334.6z M840.1,342.1c28.9,16.9,30.2,48.9,28.8,80.2
						c-9-30-21.6-54.8-33.5-80.8C836.9,341.6,838.8,341.4,840.1,342.1L840.1,342.1z M861.5,424.9c0.3,0.6,0.6,1.1,0.9,1.7
						c-0.9,0-2.1,0.5-2.8,0c-29.8-18.4-37.7-48.9-36.6-83.4C837,372.9,849.2,398.9,861.5,424.9L861.5,424.9z M904,266.5
						c3.9,3.3,15.2,12.8,14.6,18c-22.9-5.8-44.5-17.2-67.1-25.1C869.8,253.8,887.7,255.3,904,266.5z M851.8,270.9l72.5,24.9
						C895.5,304.8,874.7,291.2,851.8,270.9L851.8,270.9z M849.4,808.4c-9.6,0.2-18.7,5.6-27.4,4c-14.3-2.7-27.9-8.1-41.6-13
						c-3.5-1.2-8.4,2.1-10.6-4.9c-6.6-20.2-11-41-19.9-60.5c-1-2.2-6.4-9.2-0.3-10.7c16.8-3.3,36.8-4,53.4-1
						c21.5,19.3,49,29.1,78,26.5c52.5-4,16.7-77-63.9-46.8c-7.1,2.5-11.9,9.9-19.8,9.9c-13-1.2-26-0.7-39-0.4
						c-5,0.1-11.5,6.2-15.4-1.4c-9.2-18.3-15.1-38.1-27.8-54.4c20.4-4.2,38.9-13,58-19.8c6-2.1,10.5-8.7,17.9-6.4
						c22.4,6.8,93.1-2.3,93.4-31.8c-0.3-12.4-12.1-18.9-23.3-20.5c-36.4-5.5-64.8,17-82.6,45.7c-8.7,3.5-69.8,30.2-72.5,22.2
						c-6.5-9.8-14.8-18.2-24.4-24.9c-14.5-4.9,19.7-31.9-2.6-89.6c-5.9-23.6-23.3-43-45.5-50.9c-10.8-22-13.5-47.8-19.6-71
						c33.4,13.4,23.6,10.2,45.2,35c19.9,15.9,39.9,27.3,66.4,23.4c8.7-1.3,19.2-10.7,16.6-16.3c-14.5-33.7-51.3-58-88.5-48.3
						c-6.1,1.5-8.8,12-17.7,6c-4-2.7-9.8-3-13.4-6c-4.5-3.4-11.5,1.4-13.5-6.2c-11.7-43-27.8-84.2-43.8-125.8
						c6.1-0.3,10.1,3.4,13.8,6.2c9,6.7,22.8,3.8,28.7,17.6c10.3,24.3,56.3,48,83.1,30.6c7.7-5,12.6-10.3,5.3-19.1
						c-17.3-20.8-41-41.3-70.2-33.7c-6.3,1.7-11.4,7.9-18.2,5.9c-7.9-2.2-15.5-5.4-22.6-9.4c-9.4-5.4-23.3-3.1-27.5-16.1
						C535.7,199.9,514.1,146,488,95.6c0.6-0.1,1.4-0.5,1.8-0.2c4.8,2.8,9.9,3.5,15.4,4c18.8,2,4.1,15,36.5,33.2
						c18,13.1,65.2,23.6,81.4,6.5c7.5-12.9-4.8-19.2-11.3-25.6c-17.3-16.4-43-30.3-67.7-24.6c-9.5,2.2-18.1,9.3-29,3.8
						c-11.2-6.4-34.4-4.4-40-16.8c-9.8-21.8-23.3-41.5-36.6-61.2c-3-4.4-6-14.1-10.5-10.9c-5.7,4,2.7,9.9,5.1,15
						c9.5,20.1,19.2,40.1,28,60.5c3.3,7.6,19.4,16.3,0.2,24.5c-8.1,4-15.7,15.1-25.5,12.4C374.6,106,401.6,78.8,330.6,77
						c-14.9-0.8-29.2,3.8-42.5,10.2c-26.2,10,5.1,27.5,17.2,35c19.3,9.1,38.7,13.6,60.8,11.6c16-1.5,28.7-15.1,44.9-13.6
						c7.1,1.3,14.3,3.8,21.8,4.2c0,0,0.1,1.9-0.3,2.2c-5.9,3.1-8.8,9.5-13.8,13.2c-10.3,7.7-17.2,18.1-25.9,27.1
						c-5.3,5.4-8.3,14.7-16.4,15.7c-7.7,0.9-15.5,1.3-23.3,1.6c-9-0.5-19.3,2.2-27.8-0.4c-10.2-11-24.1-15.7-37.7-18.5
						c-27.4-5.6-53.8-1.1-75.9,17.1c-9.1,7.5-24.4,14.6-16.3,30.6c5.2,10.2,19,12.6,28.4,13.2c30.4,2,61.6,4,87.7-18.3
						c4.9-4.2,8.1-11.6,14.4-12.5c13.2-1.8,26.7-1.7,40.1-2.3c8.7-0.8-4.7,10.9-6,13.9c-10.3,13.6-20.6,27.3-31,40.8
						c-6.6,8.6-9.1,21.8-22,23.5c-25.6-0.1-48.3,16.2-75.1,10.2c-21.9-5.8-43.8-3.2-65.1,7.1c-15.7,8-52.9,29.5-47.2,49.2
						c10.5,15.1,44.5,3.7,60.7,3.5c21.6-2.3,38.2-13.2,52.9-28.3c5-5.1,5-15.6,9-17.1c22.3-7.8,45.3-13.5,66.4-19.4
						c-13.1,20-26.3,41.7-40.9,62.3c-9.6,13.5-9.6,34.5-30.3,39.6c-7.2,1.8-15.5,9.4-21,5.8c-30.8-20.1-88.9,8-102.8,39
						c-6.1,12.4-5.2,24.2,11.4,22.1c31.5,1.1,65.7-0.2,84.7-30.1c5.9-8.9,6.7-22.7,20.9-25.1c3.1,0,12.1-6.3,10.1,0.3
						c-14.4,30.5-30.8,59.9-44.1,90.9c-5.5,12-4.7,28.2-19.7,34.7c-4.9,2.2-9,7.6-14.4,7.6c-18.1-5.1-36.2-4.3-52.5,4
						c-15.1,7.3-29.8,16.3-40.2,30.9c-6.1,8.6-7.8,20.8-1,22.8c26.3,6.8,77.2-5.1,85.8-33.8c3.6-13.2,12.1-19.5,24-22.8
						c-10.3,33.4-20.9,67.8-26.1,103c-1.8,12.2-0.6,25.8-11.8,35.8c-5.8,5.1-8,13.6-9.8,21.5c-3.4,14.9-3.3,30.5,0.3,45.4
						c2.3,9.6,7.7,19.4,16.7,23.4c9.9,4.4,13.3-6,18-12.5c13.8-18.7,12.9-39.2,8.4-60.6c-2.1-10.1-13-17-12.6-26.3
						c2-45.4,15.3-90.6,32.2-132.3c14,23.6,4.5,29.7,4,54c1.4,22,16,43.9,37.3,48.5c6.7,1.4,16.2,2.3,18.2-9.3
						c1.4-8.5-0.9-16.4-1.9-24.5c-2.7-21.6-8.8-41.1-31.9-50c-9.2-3.5-23-26.4-20.2-32.7c10.6-24.4,21.4-48.8,32.2-73.1
						c0.9-2,2.4-3.3,3.3-1.9c2,6,5.5,11.2,3.5,18.5c-8.2,37.2,10,84.6,42.4,104.9c16.8,8.4,14.3,11.9,6.4,26.8
						c-29.5,74.5-53,151.3-70.1,229.6c0.5,22.4-38.2,19.3-53.3,14.3c-24.3-10.9-88.2-4.6-64.5,35c15.6,16.5,61.2,8.9,75.4-6
						c9-9.5,18-17.1,31.4-19.2c6.3-1,5.7,2,4.8,5.2c-2.9,9.9-4.4,19.9-5.9,30c-2.7,18.6-7.3,36.9-9.4,55.5c-0.7,6-2,15.8-3.8,16.3
						c-5.6,1.8-13,4.1-18.9,4.3c-2.8,0.1-5.3-0.4-7.1-1.6c-20.7-15.9-78-18.4-88.3,8.8c-8,54.4,67.7,34.2,87.7,5.1
						c6.3-7,16.3-2,24-5.2c-0.4,23.1-4.7,46.9-6.4,70.2c-1,9.8,1.8,22.1-3.1,29c-13.6,19.2-25.8,38.3-28.1,62.2
						c-1,10.4-4,22.1,8,28.2c35.4,13.3,47.9-44.3,38.1-68.4c-4.2-14.6-14.4-27.7-7.8-44.1c0.7-1.7,1.7-4.9,2.1-4.8
						c3.6,0.6,7.5,0.7,11.3,1.1c4.3,0.5,8.3,1.3,11.1,3.6c21.3,17.7,43.2,34,70.1,42c18.2,8.1,35.2-12.9,24.8-30.1
						c-13.9-22.2-41.3-28.3-65.6-26.8c-13,2.2-25.5,9-39.6,3.8c-6.6-2.3-11.9-4-11.4-9.5c5.9-24.5,6.2-51.5,12.8-76.3
						c0.5-2.5-1.3-9.8,8.4-7.3c10.9,2.8,20.1,6.2,29.7,12.7c14.7,10,31.2,17.7,49.3,21.3c20.3,6.5,41.3-5.5,30.9-27.3
						c-13.7-24-52.9-31.9-77.1-20.8c-9.6,4.6-19.5,5.3-29.7,5.2c-15.6,1.2-3.8-19.7-4-28.6c2.8-15.9,4.8-32,8.7-47.7
						c1.1-4.3-1.8-13,6-13.2s17.3,0.1,22.7,4.4c14.5,11.4,30.9,17.3,48.1,22.8c16.3,5.2,33.9-4.7,32.4-21.4
						c-1.2-13.1-12-19.9-22.4-26.3c-13.7-8.5-39.1-3.2-52.8,9.4c-9.6,8.8-18.1,1.5-26.8,0.1c-4-0.7,0.1-6.5,0.6-9.7
						c2.8-31.5,15.2-60.5,24.1-90.5c1-3-2.4-15.2,8.9-9.1c7.8,4.3,18.6,8,21.9,14.8c8.2,21.1,29.8,57.6,57,39.8
						c23.3-21.8-18.8-53.5-41-52c-23.4,2.2-17.1-4.7-36.8-13.7c-1.3-1.1-5.6,0.5-4.4-3.7c13.7-43.1,26-87.4,44.8-128.6
						c27.7-39-1-128-53.2-126.9c-4.4,0.3-14.8-9.7-13.2-15.7c4.2-8.9,8.7-17.8,13.4-26.1c12.5-22,21.7-45.9,37.2-66.1
						c0.8,1.4,2.1,2.7,2.3,4.3c0.9,7.1,10,12.3,6.4,19.8c-3.4,7.1-3.6,15.1-2.8,21.4c0.5,42.9,66.6,93.9,67.2,45.4
						c-0.4-22.8-17.9-54.8-37.1-67.4c-7.6-4.9-19.7-3.8-22.2-16.1c-0.8-6-10.4-11-7.4-17.4c20.3-30.1,39.5-61.7,62.1-90
						c4.1,6.9,5.4,15.2,7.9,22.8c2.1,7.4,7.6,16.3,5.3,22.1c-5.8,15-7,29.4-2.9,44.3c4.3,15.7,11.1,30.3,25.9,39.1
						c6.8,4,14.7,6.1,21.5,10c8.2,4.6,14.1,0.2,14.9-8.4c2.1-29.3-7.9-68.2-34.8-83.6c-4.7-2.8-12.9-3.1-14.6-6.9
						c-6.7-14.4-11.5-29.8-16.7-44.9c10.9-27,36.4-49,55.1-71.6c17.3-17.3,35.8-37.8,58.2-47.8c3,6.4,7.7,12.9,8.1,19.7
						c4.3,53.2,0.5,106.6,0.7,159.8c0.9,62.1,4.8,124.2,1.7,186.3c-0.1,3.4,2.5,7.4,1.4,10.3c-2.8,7.5,0.2,14.9-0.9,22.4
						c-1.3,9.1-0.3,18.5-0.3,29.5c-2.5-2.8-3.3-4.5-4.6-5.1c-19.1-8.5-25.8-29.4-32.8-47.2c-8.3-19.4-28.3-60.5-54.1-47.7
						c-21.2,14.7-5.9,46.4,8.5,60.4c8.9,9.2,19,17,32.3,20.8c6.9,2,14.4-1.8,20.1,3c6.8,5.4,13.1,11.4,18.9,17.9
						c3.4,4,11.1,3.8,11.1,9.7c-0.9,31.9,3.3,64.5-2.4,95.9c-9.6-10.7-28.2-17.6-34.6-29.1c-8.8-22.9-36.7-70.3-65.4-59.6
						c-7,4-12.1,9.7-11.6,19.4c1.9,23.3,28.6,49.1,53.5,49.2c12-1.5,23.1-2,31.4,10.2c10.6,12.9,31.1,15.5,28.9,37
						c-2.3,26-4.7,50.7-5.7,77.2c-8.5-10.2-19.2-16.1-28.5-23.6c-9.1-7.2-12.9-18.4-18.7-28.1c-10.8-16.1-41.1-43.1-61.8-40.3
						c-23.5,3.8-27.7,33.7-11.8,48.5c20.4,20.4,45.2,27.3,73.7,24.3c16.9-1.8,25,13.6,36.5,21.9c4.2,3.1,11.7,3.7,11.1,12.7
						c-2.3,34.8-3.9,69.8-5.8,105.3c-9.2-5.6-18.8-11.5-28.6-17.3c-5.1-3-11.8-4.5-15.5-8.7c-16.2-22.9-32.3-46.4-58.1-59.6
						c-39-20.2-44,28.7-20.2,46.1c15.9,12,33.2,18.4,53.1,20.3c6.6,0.6,13-3.6,19.6,0.5c10.6,6.7,22.2,12,32.6,18.9
						c8.1,5.4,19.1,7.5,17.1,23c-3.7,26.8-2.6,54.2-5,81.1c-14.9-10-31.4-17-45.2-30c-18.7-18.5-42.4-30.1-70-31.1
						c-8.3-0.3-15.8-0.1-20.6,7.8c-13.6,32.2,53,50.4,77.8,47.5c16.9-2.9,33.2-0.8,47,10.7c3.6,3,10.7,2.8,10.1,9.8
						c-1.4,17.5-3.4,35-4.6,52.5c-1.1,16.5-1.4,33-2.2,49.5c-0.1,1.5-1.6,2.9-2.5,4.4c-9.4-6.1-22.6-4.6-29.7-14.8
						c-5.8-8.4-12.9-15.7-21.5-20.5c-19.1-9.5-57.7-35.2-75.3-13.8c-5,8.1-5.6,18,2.5,26.2c16.4,17.3,40.4,27.7,64.2,26.6
						c29.2-6.3,26-8.8,53,3.6c6.7,1.5,7.8,4.8,7.4,10.6c-2.1,32.4-4.1,64.9-6.1,97.3c-0.1,2.4-1.3,3.5-3.5,2.6
						c-8.3-3.6-17.5-6.2-24.6-11.4c-9.5-6.9-16.8-17.1-26.4-23.9c-16.7-11.8-35-20.5-56.3-21.2c-8.4-0.3-16.1,1.2-20.6,7.8
						c-22.7,33.3,42.5,48.5,65.4,47.9c30.7-3.2,32.9-6,61.6,9.5c1.3,0.6,3,1.1,2.9,3.8c-1.4,24.5-2.2,49.1-4.1,73.6
						c-0.2,3,4.2,11.6-5.6,9.8c-9.1-1.6-18.3-3.5-27.3-5.8c-7.1-1.8-16-2.2-20.7-6.8c-20.1-19.3-45.8-53.2-77.5-42.1
						c-18.9,10.8-10.1,41.4,7.1,49c17.4,9,35.9,9,54.9,6.5c5.6-0.8,10-6.3,15.5-4.2c12.8,4.9,26.4,6.2,39.3,10
						c6.6,1.4,16.8,2.1,13.9,12.3c-1,4.5-6.3,7.9-7.9,12.5c-6.9,19.7-13.8,39.3-17.6,60c-1.7,9.3,6.1,33.4,14,37.1
						c17.8,8.3,40.7-4.9,43.6-24.6c1.8-12.3,2.8-24.3,0-36.7c-3.4-15.4-11.2-29.5-22.6-40.5c-6.2-5.7-4.6-17.5,5-16.4
						c17.7-2.7,35-11.2,52.9-13.4c11.8-1.7,22.4,6.2,33.7,9.3c18.4,5,35.7,2.1,52.5-4.5c14.2-5.6,16.8-18.7,14-31.6
						c-3-13.6-15.5-18.7-27.6-19.3c-19-0.9-35.2,8.4-50.3,19.2c-7.8,5.6-14,14.5-22.6,17.8c-15.7,6.1-32.6,9.2-49,13.2
						c-3.5,0.9-8.8,6.7-8.6-4.9c0.4-29,6.9-57.4,6.6-86.3c0-1,0.6-2,1.4-2.5c14.8-5.3,28.8-12.4,42.5-20c1.5-0.8,3.4-0.9,5-0.3
						c26.5,15.6,61.4,25,89.8,7.5c6.1-4.1,9.4-11.3,8.5-18.6c-1.5-25.7-36.5-28.5-56.4-23.7c-17.7,4.1-31.9,16.1-46.7,25.6
						c-12,7.1-25.5,11.6-38.3,17.4c-11.6,10.6,2.3-73.5,1.7-79.4c0.6-13-1.6-25.3,16.3-29.1c11-2.4,21-8.2,31.7-11.5
						c30.6-9.9,49.2,18.1,89,1.2c9.7-3.8,19.2-8.4,19.9-20.1c-1-42.4-63.1-29.6-84.4-9.6c-11.3,12.4-10.8,15.3-27.5,20.3
						c-13.2,4.8-26.8,8.9-40,14c-4.3,1.6-2.7-0.9-2.6-2.1c2.4-35.4,3.8-71,6.1-106.4c-1.8-14.9,10.5-12.8,20.5-17.3
						c33.4-18.3,66.7,16.7,101.3,3c31.1-9.5,23.3-43-7.4-46c-20.6,1.1-39.5,8.2-56.3,19.2c-16.1,10.5-35.3,10.5-51.8,18.7
						c-1.6,1-4.5,1.4-4.2-2.2c1.3-23.6,2.6-47.2,3.5-70.8c0.2-6.2,1-9.3,8.2-11.3c6.1-1.7,12.3-3.3,18.5-4.6
						c10-2.2,19.3-8.3,30.1-6.9c25.1,2.2,83.1,17.4,91.1-16.9c1.6-6.9-1.7-13.2-8.1-17.3c-28-16.6-63.5,7-86.5,22
						c-13.1,7.2-28.8,7.1-42.6,12.5c-9.6,3.7-8.8-0.7-8.4-7.2c1.5-30.8,2.7-61.6,4-92.5c0.2-5.3-2-10.1,7.7-10.8
						c19.1-1.4,37.9-6.2,57.4-5.9c18.2,0.3,36.3-0.5,52.6-10c17-7.3,14-35.3-4.6-37.9c-31.3-4.7-54.1,12.7-72.4,35.6
						c-10.4,3.1-21.2,4.8-31.9,6.7c-10.2,2.7-9-4.9-6.8-11c3.7-68.1,4.5-136.2,4.1-204.4c0.3-14.3,3.5-29,1.2-42.8
						c-2-12.4,1-24.3-0.8-36.5c-1.5-11,1.9-22.6,1.1-33.9c-3-30.6-1-61.4-1.9-92.1c-2.7-60.3-0.6-120.6-5.9-180.8
						c22.1,44.9,40.7,91.3,59.8,137.8c10.2,26.6,20.1,53.3,29.8,80.1c2.5,7.1,6.8,16.4,4.3,22.1c-6.5,15-11.2,28.5-27.7,37.3
						c-31.7,17-40.1,49-40.1,82.9c3.8,46.6,73-24.3,65.2-63.1c-0.3-16.1-3.6-33.3,7.2-46.8c10.8,24.7,15.8,52.5,22.7,78.7
						c1.7,7.5,8.9,14.8,4.5,22.5c-21.3,40.4-10.6,118.8,37.9,134.8c8.3,1,17.8-0.6,24,6c14.9,15.9,29.3,32.8,37.3,53
						c3.9,10,22.6,21.7,3.3,34.2c-51.1,46.9-49.8,4.2-91.3,35.1c-8.2,6.8-19,12.8-12.8,26.2c4.5,9.7,13.7,14.3,23.7,14.1
						c16.7-0.4,36.1-7,44.4-32.6c1-3.2,2.4-7.1,4.8-8.9c13.5-9.5,27.3-18.5,41.1-27.7c2-1.3,3-0.9,3.9,2c5.5,16,10.7,31,16.2,46
						c3.6,9.8,7.6,18.7-4.4,26.3c-5.4,3.5-8.8,10-13.5,14.8c-24.8,32.5-63.9,13-83.4,60.3c-4.2,10.4,1.3,20.7,12,23
						c22.3,1.3,46.5-19.2,53.6-39.9c2.2-6.6,1.2-15.9,5.5-19.7c9.4-8.3,19.2-16.2,27.7-25.6c6.6-7.3,12.7-14.4,16.2,2.7
						c2.1,10.7,10.3,20.7,9.4,31.8c-1.4,11.8-4.7,23.5-5.2,35.8c-0.5,18,8.5,63,32.9,56.7c32.6-13.7,14.1-59.9-1.8-80.4
						c-23.1-21-18-12.7-24.7-44.7c-3.5-7.7,34.3,7.7,38.9,7.4c4.9,1.3,9.6,3.4,13.5,8.5c8.9,11.6,20.2,21.5,32.7,30
						C943.8,894.8,932.3,806.4,849.4,808.4L849.4,808.4z M814.3,713.5c64-26.1,105.5,21.8,58.6,25.3c-30.5-5.1-34.3-4.6-60.2-22.2
						C810.7,715.8,813.5,713.8,814.3,713.5L814.3,713.5z M805.6,605.3c16.4-13.5,42-25.6,61.8-12.8c6.2,6,3.7,15.7-5.5,18.1
						c-21.7,6.9-45.8,15.5-68.6,7.8C797.4,614.1,801.1,609.2,805.6,605.3L805.6,605.3z M654.5,427.8c27.5,8.2,50.6,18.8,74.5,28.4
						C702.6,464,682.8,450.4,654.5,427.8z M659.7,413.2c21.2-6,60.4,13.5,68.6,34.3c-24.2-13.6-50.6-21.4-76.1-31.5
						C654.7,415.1,657.1,414,659.7,413.2z M687.6,310.8c-23.7-12.1-45.3-20-68-28.4C649.7,273.1,667.4,290.5,687.6,310.8z
						 M682.6,315.8c-26.7,7.2-48.1-0.9-67.7-25.2L682.6,315.8z M613,130c-26-11.3-50.3-22.5-76.4-29.6
						C555.8,91.2,599.9,107.8,613,130z M537.2,110c24.1,7.2,47.7,19.6,72.5,23.1c-13.5,4.3-27.3,6.1-41.1,0.9
						c-13.8-6.1-30.7-11.8-39.3-24.6C531.9,109,534.6,109.2,537.2,110L537.2,110z M301.9,108.4l83,9
						C368.7,130,321.4,123.5,301.9,108.4L301.9,108.4z M292,99c32.1-19.6,81.9-6,95.6,9C356.3,102.9,325,98.5,292,99z M209.7,211.9
						c33.9-5.4,66.7-14.2,101-14.9C296.5,214.5,252.7,224,209.7,211.9L209.7,211.9z M249,193.1c-13.4,1.2-26,7.8-39.6,7.4
						c27.5-32.9,70.5-31.7,107.6-13.6C291.1,185.1,270.2,190.4,249,193.1z M132.2,326.6c28-28.2,57.6-42.1,97.3-37
						C195.5,299.5,165.9,313.3,132.2,326.6z M231.1,302.4c-24.6,30.9-55.2,28.6-92,34.8c10.4-9.3,22.1-10.3,31.8-15.8
						c10.6-5.9,22.7-9,34.2-13.3c9.2-2.4,18.1-9.5,27.7-8.5C232.3,300.6,231.8,301.6,231.1,302.4L231.1,302.4z M209.5,388.4
						l-83.8,36.7C133.2,405.7,178.3,379.6,209.5,388.4L209.5,388.4z M127.2,436.1c27.9-12.5,55.8-25.1,83.6-37.6
						C207.8,421.7,157.1,444.7,127.2,436.1L127.2,436.1z M75.4,572.2c1.9-15.5,43.6-47.8,72.4-42.3
						C124.2,545.9,96.8,553.9,75.4,572.2z M90.9,571.5l59.3-31.9C138,563.8,115.5,569.6,90.9,571.5z M147.4,739.1
						c-12.1-8.9-11.2-50.7,1.6-69.6C149.2,693.6,144.2,716,147.4,739.1L147.4,739.1z M162.4,724c-1.4,6.4-5,11.5-8.7,16.9
						c1.5-21.5-0.8-44.4,5.9-64.6C167.9,691.1,165.7,708.2,162.4,724L162.4,724z M245.6,608.1c-14.1-20.4-20.8-41.2-31.7-61.6
						C241.9,558.4,243.2,581.9,245.6,608.1L245.6,608.1z M207.1,557.1c10.2,16.1,15.4,35.2,27.4,50.7c1.3,1.9,3.9,4.2,2,6.4
						c-23.6-5.8-29.3-30.9-32.1-52.5L207.1,557.1z M177,844c-17,15.3-42.1,21.8-63.1,13.6c-4.7-2.4-8.6-4.3-8.7-9.7
						c6.6-24.1,52.4-11.8,69.8-8.5C176.6,839.7,179.5,841.3,177,844z M158.1,956.8c-48.6,48.5-98.8,3.4-52.5-8.1
						c18-3.9,35.2-3.9,52.2,3.9C162.1,954.6,159,955.9,158.1,956.8z M233.6,1029.2c88.3-14.2,93.3,82.2-2.8,1.5
						C231.6,1030.1,232.6,1029.6,233.6,1029.2z M188.7,1081.2c7.3,52.6-31.8,69-27.4,39.8c2.5-15.8,6.6-31.3,15.6-45.1
						c1.9-3,5.6-8.2,6.5-7.2C186.3,1072.3,188.2,1076.6,188.7,1081.2L188.7,1081.2z M252.6,921.3c19.4-4,43.1-2.5,58.1,14.2
						c8,8.8,1.5,21.1-10.1,17.3c-20.6-5.8-41.7-12.8-58.1-27C245.8,924.3,249.1,922.1,252.6,921.3L252.6,921.3z M269.6,819.9
						c17.4-11.3,39.6-2.6,49.1,12.2c6.2,8.5,1.2,15.3-12.1,14.7C296.4,848.6,237.5,825.3,269.6,819.9L269.6,819.9z M295.6,721.1
						c16.5-1.2,30.8,7.7,39.9,21.3c2.5,6.3,2.4,13.3-3.4,15.4C317.8,765.2,293.4,733.1,295.6,721.1L295.6,721.1z M255.4,446.1
						c23.4,7.4,37.2,28,44,51c4.6,16,10.4,31.3,4.9,48c-13.8-24.1-28-47.3-40.4-71.5c-4.3-8.2-9.4-16-13.2-24.5
						C249.9,447.4,253.3,445.3,255.4,446.1z M245.8,456.1c17.9,34.8,33.4,67.6,53.6,98.6C261.3,536.1,243,490.1,245.8,456.1
						L245.8,456.1z M314,358.1c22,14.9,35.3,41.6,38.2,67.3c-1-0.5-2.5-0.7-3.1-1.6c-6.7-10.2-13.5-20.4-19.7-30.9
						C326.8,387,310.3,361.8,314,358.1L314,358.1z M303.9,362.8c6.9,24.2,23.8,43.3,35.6,66.4C307.4,409.7,300.5,380,303.9,362.8
						L303.9,362.8z M421.3,358.9c-16.2-25.8-28.6-50.9-38-77.5C415.8,296.7,415,328.2,421.3,358.9L421.3,358.9z M374,286.5
						c10.5,23.8,19.3,48.5,36,71.4C378.5,335.8,366.5,311.2,374,286.5z M445.6,506.9c-19.2-0.5-48.6-27.6-48.5-49.5
						c-2.3-24.3,20.8-11.8,27.7,0.7C428,460.8,456.1,511.1,445.6,506.9z M383.3,577.3c-2.3-16.8,14.3-17.3,23.6-7.3
						c14.2,10.8,23.9,26.7,31.9,42.5C416.8,615.8,389.2,598.4,383.3,577.3z M371.9,699.7c-11.8-8.9-14-33.3,4.9-33.7
						c8.8-0.2,13.9,6.4,20.3,10.5c16.5,10.3,28.6,24.5,37.2,42.8C411.6,718,389.6,716.1,371.9,699.7z M414.4,838.4
						c-23.9-0.2-50.1-8.7-62.5-31.7c-4.3-5.5-4.1-19.9,6.3-17.9c21.5,5.7,37.4,22.6,50.5,39.7C411,831.6,416.3,833.6,414.4,838.4z
						 M410.3,957.4c-20.3-2.8-62.1-5-66.8-31.6c11.1-18.5,72.3,16.1,81.1,30.4L410.3,957.4z M415.3,1084.8
						c-26,5.9-53.1-2.5-71.3-21.9c-2.6-2.6-3.4-6.5-2.3-9.9c9.1-20.5,70.6,16.6,79,29.5C418.9,1083.3,417.2,1084.5,415.3,1084.8
						L415.3,1084.8z M407.2,1197.1c-0.7,3-3.2,1.4-4.9,1.9c-15.9,5.7-74.4-3.7-71.2-26.4c3.6-20.8,60.9,5.9,68.1,16.2
						C401.3,1192.1,408.1,1193,407.2,1197.1L407.2,1197.1z M381.9,1298.8c-18.5-1.4-39.8,5.6-54.9-9.1c-7.2-7.8-13.5-16.7-5.8-26.4
						c7.3-9.3,16.8-2.9,25.3,0.4c16.7,6.9,28.5,20.8,41,32.8C385.6,1297.3,383.8,1298.7,381.9,1298.8L381.9,1298.8z M455.7,1342.9
						c16.7,21.9,28.1,68.4-2.1,83.5c-9.2,3.1-13.8-3.3-16.1-10.3c-1.4-4.3-4.7-9-2.5-13.5c-0.1-15.1,4.7-28.3,9.1-41.6
						C445.5,1357,448.4,1333.1,455.7,1342.9L455.7,1342.9z M569.8,1270c61.5-18.6,51.5,63.9-42.3,26.2
						C540,1285.1,553.8,1275.7,569.8,1270z M525.1,1182.9c64.5-41.2,100.6,7.4,57.7,15.9c-20.3,1.3-40.2-0.1-57.9-11.9
						C522.4,1185.7,523.3,1184.1,525.1,1182.9L525.1,1182.9z M588.2,1046.2c58.5-2.5,29.6,52.1-46,21.8
						C556.5,1057.3,569,1046.6,588.2,1046.2L588.2,1046.2z M546.9,945.1c48.4-34.1,92-0.8,43.5,11.8
						C585,956.1,538,951.8,546.9,945.1z M558.9,847.1c18.1-9.1,42.4-22.4,61.9-10.7c3.4,2.3,3,5.9,2,9.2c-2.3,8.1-10.6,5-12.9,6.9
						c-18.5,5.6-34.2-0.1-49.9,0.5c-2.2,0.1-4.5-1.4-6.7-2.2C555.2,849.5,557.1,848.2,558.9,847.1L558.9,847.1z M567.1,715.3
						c11.2-5.6,23.7-8.3,36.2-7.9c5.2,0.2,6.1,5.8,6.1,10.3c0.1,8.2-7.5,12-12.5,12.5c-17.1,1.8-34.1,6.9-51,4.3
						C552.7,727.8,558,719.6,567.1,715.3L567.1,715.3z M532.9,495.4c-0.6,0.9-1.2,1.7-2,2.4c-9.5-21.5,16.2-67.9,36.4-78.2
						C554.9,445.9,543.6,469.3,532.9,495.4z M547.3,493.3c-6.5,5.2-2.3-3.5-1.8-6.1c10.6-19.7,17.3-43.1,30.3-60.8
						C578.7,450.8,566.5,476.9,547.3,493.3z M624.1,500.2c13.5,37.6,19.9,77.5,36.6,114.6C628,603,603.9,527,624.1,500.2z
						 M669.5,606.7c-0.1,0.5-0.9,0.9-1.3,1.4c-10-36.3-16.8-73.9-30.7-109.3c-0.8-2.1-1-5.9,0.2-7.1c1.9-1.8,3.5,1.3,5.1,2.6
						c23.8,18.7,30.4,48.6,34.2,76.9C677.5,583.9,670.8,594.7,669.5,606.7L669.5,606.7z M670.6,770.1c-16.5,14-31.7,16.1-41.8,5.5
						c-2.4-2.5-2.3-4.6-0.7-6.8c9.3-13.2,23.5-16.3,38.6-18.3c4.7,0.8,9.5,1,14.2,1.7C677.4,758.1,676.3,765.2,670.6,770.1
						L670.6,770.1z M709.6,845.2c-4.1,29.3-64.4,58.7-47.3,24.6c5.9-12.1,16.6-18.8,29.1-22.7c5.2-1.6,9-6.5,15.1-6
						C709.1,841.2,711.1,839.7,709.6,845.2L709.6,845.2z M781.8,853.2c18.4,15.7,34.9,44.4,22.3,67.6c-1.4,3-5.3,6.1-8.5,4.7
						c-6-2.6-8-9.3-10.3-14.7C777.4,892.4,777.6,872.7,781.8,853.2L781.8,853.2z M905,850.8c-4,6.9-12.9,4.1-20.1,3.6
						c-17-1.1-27.6-13.1-39.5-22.7c-4.3-3.5-5.7-10-12.1-12.1c23.7-4.4,45.5-1.2,64.3,15C902.8,839,908.2,845.1,905,850.8L905,850.8
						z M141.1,74.8c4.9-7.1,9.6-5,15-5.6c2.1-0.2,3.5-0.6,1.3,2.6c-7.7,11.2-14.9,22.7-21.9,34.3c-5.4,8.9-7.5,19.3-17.9,25.7
						c-31.2,19.3-46,47.4-38.3,83.1c4,14,11.8,19.4,22.3,6.2c6.3-6.3,13.2-12.5,18-20c11.2-17.1,22.1-34.5,18.1-57
						c-1-5.5-7-9.6-4.2-15.4c13.2-26.3,29.5-51,48.6-73.4c10.6,16.1,5.9,14.8,5.3,31.1c1.8,11.5,4.6,22.8,8.3,33.8
						c5.2,15.2,21.1,29.1,38,29.1c18.4,2.1,13.7-30.7,11.6-41.7c-2.4-18.2-26.8-41.5-44.9-42.4c-2.4-0.1-12.6-16.5-11.4-18.5
						c4.9-13.7,37.3-35.6,33.8-46.4c-3.9-7.4-18,15-21.9,17.8c-9.9,11.3-20.3,22.2-28.3,35.1c-3.2,5.1-27.6,12.7-31.3,9.4
						c-21.2-19-61.9-17.2-81.7,2.6C26.1,93.2,115.6,117.5,141.1,74.8z M89,211.7c-2.7-13.5-4-25.8,2.3-38.2
						c6-10.3,11.9-23.1,23.2-28.2C107,167.5,97.7,188.5,89,211.7z M120.5,182.7c-3.8,10.4-11.6,18-20.3,25.4
						c8.6-21.7,16.4-43.7,26.6-64.7C133.8,156.3,124.4,170.5,120.5,182.7L120.5,182.7z M238.4,132.7c-11.1-18.6-22.1-36.8-33.1-55.2
						C227.8,82.5,240.8,112.5,238.4,132.7L238.4,132.7z M197.8,83.9c12.4,18.5,24,37,35.7,56.6C210.8,140.8,195.1,106.6,197.8,83.9
						L197.8,83.9z M107.1,57.6c4.9,0.6,19.9,2.2,22.4,6.3c-20.8,2.5-45.3,7.3-67.4,11C74.2,60.7,90.1,57.1,107.1,57.6z M64.6,82.2
						l70.9-11.3C113.2,94.8,80.8,92.8,64.6,82.2z"/>
				</g>
			</g>
		</g>
	</g>
</g>
<g>
	<g id="Layer_1_2_">
		<g transform="matrix( 1, 0, 0, 1, 0,0) ">
			<g>
				<g id="Layer0_0_FILL_1_">
					<path d="M52,1548v15l-37,37h946l-37-37v-15H52 M52,52V37.7L14.3,0H0v1600h15l37-37v-15V52 M924,52V37.7L961.7,0H14.3L52,37.7
						V52H924 M976,0h-14.3L924,37.7V52v1496v15l37,37h15V0z"/>
				</g>
			</g>
			<g>
				<path id="Layer0_0_1_STROKES_1_" class="st4" d="M961,1600h15V0h-14.3L924,37.7V52v1496v15L961,1600H15H0V0h14.3h947.4 M52,52
					V37.7L14.3,0 M15,1600l37-37v-15V52h872 M924,1548H52"/>
			</g>
		</g>
	</g>
</g>
</svg>
