<svg xmlns="http://www.w3.org/2000/svg" xmlns:xlink="http://www.w3.org/1999/xlink" viewBox="0 0 976 1600">
<style type="text/css">
	.st0{fill:#FFFFFF;}
	.st1{clip-path:url(#SVGID_2_);}
	.st2{fill:#5D4E8C;}
	.st3{fill:#333333;}
	.st4{fill:none;stroke:#333333;stroke-width:2;stroke-linecap:square;stroke-miterlimit:3;}
</style>
<g id="Paper_Backing">
	<path class="st0" d="M960,22v1556c0,3.3-2.7,6-6,6H22c-3.3,0-6-2.7-6-6V22c0-3.3,2.7-6,6-6h932C957.3,16,960,18.7,960,22z"/>
</g>
<g id="Wikipedia_Cropped">
	<g>
		<defs>
			<path id="SVGID_1_" d="M960,22v1556c0,3.3-2.7,6-6,6H22c-3.3,0-6-2.7-6-6V22c0-3.3,2.7-6,6-6h932C957.3,16,960,18.7,960,22z"/>
		</defs>
		<clipPath id="SVGID_2_">
			<use xlink:href="#SVGID_1_"  style="overflow:visible;"/>
		</clipPath>
		<g class="st1">
			<path class="st2" d="M502.6,1336.7c-29.7-7.3-8.8-81.2,7.3-96.6C529.4,1256.6,533.2,1328.7,502.6,1336.7z M600.6,1206.9
				c-81.8,0.1-29.1-33.2,16.2-38.7C660,1174.1,632.6,1211.7,600.6,1206.9L600.6,1206.9z M439.5,1195c-30-2.4-79-14.8-70.4-48.4
				C387,1128,477.2,1194.7,439.5,1195z M599.1,1111c-59.4,1.4-5.5-31.9,25.7-33.9C671.6,1086.4,624.2,1115.4,599.1,1111z
				 M442.7,1093.5c-23.8,0-86.5-38.6-48.8-60.4C411,1032.5,484.6,1092.2,442.7,1093.5L442.7,1093.5z M198.3,1072.8
				c-28.2,0-12.9-81.9,5.2-95.5C222,990.5,230.7,1067.1,198.3,1072.8L198.3,1072.8z M612.9,1016.7c-59.6,2.6,6.8-44.1,36.3-39.8
				c9,0,14.1,4.1,15.8,12.6C669.6,1014.2,630.1,1015.6,612.9,1016.7L612.9,1016.7z M453.6,979.5c-63.5-9.1-78.3-83.3-20.8-43.2
				C437.7,947.3,475.1,973.3,453.6,979.5L453.6,979.5z M847.3,962.5c-21.3-2.2-48.7-55.5-29.5-71.4
				C837,899.4,882.3,950.5,847.3,962.5L847.3,962.5z M282.2,931.5c-81.4-3,46.4-66.9,53-19.8C330.4,933.4,299.8,929.2,282.2,931.5
				L282.2,931.5z M147.3,931c-21.7-1.3-48.3-17.1-55.3-41c-2.6-9.5,8.7-21.8,17.1-14.1C118.8,881.9,172.6,928.5,147.3,931z
				 M591.4,929c-55.9,0,36.4-56.1,54.1-34.6C659.3,921.8,610.7,926,591.4,929z M451.2,862.7c-26.7,3.8-87.1-43.5-42.4-48.1
				C418.4,815.2,476.1,855.5,451.2,862.7z M885.5,860.1c-20.9-0.1-39.5-7.4-56.8-14.7c-19.3-12.3,20.3-20.8,29.1-19.6
				C877,821.3,919,851.8,885.5,860.1L885.5,860.1z M593.1,832.9c-50.1,0.9,15-42.4,33.8-40.3c21.3-2.2,45.7,19.1,18.4,28.9
				C628.6,829.1,610.8,831.6,593.1,832.9z M277.1,820.8c-38.1-10.4,32.8-42.1,46.6-37.8c15.9-1.4,28,21.1,9.6,26.1
				C316.1,818.3,296.6,819.2,277.1,820.8L277.1,820.8z M159.1,816.7c-51.3-7.5-82.6-107.3-17.5-50C147.5,776,181.4,814,159.1,816.7
				L159.1,816.7z M444.7,754.2c-74.9-5.5-78.7-89.1-15.1-34.8C434.5,728.1,456.6,746.6,444.7,754.2L444.7,754.2z M589.3,735.5
				c-62.6,2.1,58.5-70.2,65.3-35.6C654.5,725.2,611.3,733.2,589.3,735.5z M288.2,719.5c-66.3,4.8,12.7-43.9,36.1-34.3
				C367.6,702.3,311.3,723.4,288.2,719.5z M160.2,717.1C131,715.7,76.6,660.6,115,646C137.6,649.4,171.8,697.7,160.2,717.1
				L160.2,717.1z M162.3,600.9c-28.4,4.3-72.4-63.3-29.1-58.3C144.6,548,187.4,595.7,162.3,600.9L162.3,600.9z M321.9,595.1
				c-83.1,3.8-30.4-43.6,16.4-41.5C397.3,558,358.4,598.7,321.9,595.1L321.9,595.1z M271.6,494.9c-28.6-10.5,41.9-44.9,52.9-40.1
				C390.6,468.5,293.3,498.3,271.6,494.9z"/>
			<path class="st3" d="M518.4,669.4c-32.8-27.4-26.9-112.5,20.7-119.8C559.8,583.7,554.8,645.2,518.4,669.4z M711.8,628.7
				c-48.3-67.4,63.2-196.2,37.2-43.5c-8.2,30.8-15.9,37.9-23.1,40.5C719.7,621.5,716.8,626.2,711.8,628.7z M848.5,613.4
				c-32.4,0.1-51.1-40.5-45.7-72.2c1.5-10.3,8.3-5.4,10-17.7C840.3,526.1,866.6,590.1,848.5,613.4z M429,563.5
				c-29.1-22,27.8-61.9,54.4-65.1C501,523,459.4,563.6,429,563.5z M644.9,550.6c-116.3-21.8-55.9-152.1,15.5-11.9
				C663.1,543.1,648.9,551.9,644.9,550.6L644.9,550.6z M874.5,495.8c-12.2,0.6-72-16.7-60.8-44.9
				C829.8,422.6,928.3,486.8,874.5,495.8z M672,476.8c-3-1.1-8.6-2.2-8.2-6.5c5.8-47.5,16.6-55.2,47.9-64.9
				C748.8,419.9,697.3,477.6,672,476.8L672,476.8z M403.5,454.4C386.8,425.7,447,374.4,475,389c-4.9,27-24.5,54.6-52.3,63.5
				C413,452.6,413,447.2,403.5,454.4L403.5,454.4z M121.7,449.6c-22.6-14.4-1.3-84.9,25.1-82.8c14.4,6.4,19,6,14.3,24.4
				C157.9,414.7,145.6,440,121.7,449.6L121.7,449.6z M864,404c-37.5,0.5-62-19.5-73.7-45.5C811.2,323.4,941.2,398.9,864,404z
				 M280.8,394.6c-22.5,3-78.9-49.5-43.2-63.1C261.4,330.5,308,379.6,280.8,394.6L280.8,394.6z M643.6,383
				c-38-7.2,5.2-72.7,32.7-69.7C703.9,333.5,665.4,376,643.6,383L643.6,383z M391.2,338.4c-27.9-19.8,31.3-58.1,50.2-50.4
				c2.9,12.8,13.3,0,19.4,4.5C452,321.2,417.1,336.2,391.2,338.4z M600.7,324.5c-27.2-3.2-62.8-48.6-42.1-71
				c21.5,7.5,49.3,26.3,50.2,51.2c-3.9,2.8-2.3,7.7,0.4,10.7l0,0C614.4,321.4,605.7,324.3,600.7,324.5z M118.1,299.5
				c-80.2-1.1,50.6-81.8,50.6-24.5C156.2,292,140.6,299.5,118.1,299.5L118.1,299.5z M807.4,296.7c-18.7-0.9-66.6-9.1-68.7-38.1
				C743.7,225.9,890.7,286.8,807.4,296.7z M291.5,268.1c-24.2-18.4-18.5-81.6,10.9-88.4C317.5,191.4,329.5,259.1,291.5,268.1z
				 M870,262.5c-25.3-8.9-71.9-50.4-52.9-74.3c0.7-6.9,9-8.5,13.2-4.2c28.2,17.2,52.5,41.4,46,76C875.2,262.5,872.4,262.3,870,262.5
				z M359.8,237c-10.9-10.8,21.3-65.7,38.2-71.1c13.2-9.4,9.9,5.8,18.6,7.1c16.7,17.4-17.6,51.3-33.9,60.1
				C373.5,238.5,368.3,229.5,359.8,237z M571.8,233.6c-13.5-22.3,0.3-55.4,13.5-76.3c3.7-4.4,12.1,3.6,14.1-4.8c0.5-1.8,2.2-3,4-2.9
				C620,174.6,604.6,228.6,571.8,233.6z M134.1,201.1c-11-1-27.2-1.2-35.9-8.7c0.4-8.2-9.6-10.1-5.9-17.3c13.8-17.9,65-18.2,83-1.9
				C176.6,194,152.8,200.5,134.1,201.1z M537.5,134c-19.4,0.1-52-11.2-58.6-34.9c-3.6-1.4-2.8-7.2,1.1-7.6
				C514.9,79.4,598.1,123.6,537.5,134z M872,123.3c-17.3-0.6-80.8-8.5-53.5-36.6c24.1-9,50.7,1.1,70.6,13
				C895.6,117,892.5,122.6,872,123.3z M226.9,103.4c-12.1-1.3-80.1-6-64.8-31.4C208.9,34,316.3,97.1,226.9,103.4z"/>
			<path d="M835,824.4c-13.3,6.7-26.1,10.7-41.3,11.2c-12.5,0.4-14.6-10.6-22.6-14.1c-31.4-13.5-27.1-52.2-34.7-80.3
				c-3-18.9-9.9-37.1-9.5-56.7c0.2-9.5-0.4-19-1-28.5c-3.7-28.8,9.8-21.6,19-42.9c12.2-25.8,19.9-55.6,13.1-84
				c-2.3-10.5-11.5-20.2-8.4-30.5c5.9-16.6,12.3-35,21.9-49.5c7.4,14.8,12.7,30.9,19.4,46.2c3.9,9.4,12.8,20.3,10.6,28
				c-4.8,17-4.9,32.7-2.7,49.9c-2.9,18,52.7,69.9,56.3,50.2c7.1-31.5,2.7-65.5-18.3-91.4c-8.5-10.7-25.4-10.2-30-26.8
				c-5.2-19-14.2-37-21.8-56.2c20.1,4.4,20,13,31.3,26.3c20.4,18.7,43.7,29.8,72.1,25.5c12.1-0.9,15.9-13.3,8.2-22.8
				c-19-21.9-42.7-45.5-74.5-37.4c-20.8,9.1-44.4,0.5-51.2-23.4c-4.9-22.1-20.2-40.4-27.8-61.5c64.4,9,34.3,19.7,82.3,46.3
				c15,8.6,31,7.8,46.7,8.6c8.5,0.4,20.8,1,24.6-9.5c5.8-22.4-33-44.7-50.9-51.6c-17.6-6.4-34.9-6.5-52.7-0.7c-5.1,1.6-8,8.5-16,4.7
				c-9.4-4.5-20-6.2-30.7-6.8c-3.6-0.2-9-0.5-11.5-5c-13.5-27.6-30.6-53.6-41.6-82.2c7.3-0.5,15.3,1.5,22.1,4
				c5.6,2.6,13.1-1.1,17,4.9c11.3,17.2,28.8,24.9,47.1,30.6c13.2,4.4,54.5,7.9,62.5-4.5c1.5-18.2-19.5-30.4-33.4-38.5
				c-20.3-11.3-43.7-17.7-64.2-7.7c-15.6,7.6-28.5,5.6-42.2,2.1c-5.5-1.4-13,3-16.5-3.4C655,178.5,617.3,115.4,572.7,54.8
				c65.9,21.4,128.6,50.6,183,93.9c8.6,7.6,18.2,14,27.2,21.1c7.5,6,18.7,10.8,20.2,20c6,29.9,22.9,56.1,50,70.4
				c7.6,4.5,17.7,8.5,24.2,3.4c17.1-20.1-2.7-55-21.1-68c-17.1-13.6-23-27-49.5-19.6c-27.3-22-54.6-44.5-83.4-64.4
				c1-0.8,1.9-2.2,3-2.3c23.3-2.9,46.7-4.3,70.1-4.1c2.6,0,5.2-0.7,7.7,1.9c20.9,19.9,62.8,27.1,89.9,16.7c9.8-4.1,12-8.7,8.2-16
				c-9.8-18.8-42.5-30.7-63.7-30c-10.9,0.8-19.9,2.3-29.5,7.6c-4.8,2.6-3.7,10.2-10.3,9.6c-4.6-0.4-9.3-1.7-13.8-1
				c-20.3,2.9-41.1-0.8-61.4,5.5c-4.8,1.5-12.8,4.9-17.6,1.8c-34.4-21-72-36.3-109.6-50.3c-16.2-6.6-35.1-7.3-46.7-23.9
				c-7.6-10.8-18-21-27.4-31.8c-1.3,10.3,6.5,17.1,10.9,23.2c11.2,17.1,23.6,33.3,35.3,50.1c9.2,13.3,18,26.8,27.2,40.1
				c5.1,7.4,8.7,14,4.3,24c-5.5,12.4-19.1,17-24.9,28.9c-9.5,18.6-26.7,68.3,0.4,79c4.6,1.4,8.3-1.8,11.7-4.8
				c23.6-20.8,40.3-60.5,20.6-89.1c-2.7-3.4,0.3-8.5,2.6-10.8c2.6-2.6,4,2,5,3.9c27.7,47.5,53,96.8,77.2,146.3
				c4.5,9-2.5,23.2-11.4,23c-38.2-1-59.2,35-60,69.5c0,40.5,56.7-6.9,62.6-23.5c6.2-11.7,12.6-23.7,8-38.4c-1.7-5.3,4.7-9,9-11.4
				c3-1.7,3.4,3,4.1,4.9c7.5,20.2,20.2,37.7,29.6,57c2.1,4.4,6.1,9.6,4,13.1c-4.6,7.5-10.3,17.2-18.9,18.3
				c-15.2,1.9-28.8,6.9-40.3,16c-15.6,6.8-35.3,67.4-11.9,68.8c36-1.9,66-37.8,61.5-73c-0.4-11.1,10.5-13.1,14.6-20.5
				c0.7-1.2,1.9-0.2,7.2,10.2c0.7,1.3,1.2,2.6,1.7,4c10.9,24.9,19.9,28.1,0.8,55c-6.8,15.6-9.9,32.6-23.7,45.3
				c-34.8,29.8-46.6,84.1-27.6,126.4c3,5.8,11.3,9.9,6.5,20.3c-10.2,21.9-16.5,45.5-17.2,70.2c0.1,32.9,6.6,72.8,38.2,89.9
				c5,2.8,11.6,4,13.7,10.8c23,73.6,52.6,144.7,74.4,218.7c14,41.3,19.7,84.5,18.3,128c-0.4,34.1-19,58.7-45.3,78
				c-7.4,5.4-12.2,5-11.6-6.8c-6.1-54.2-77.8-38.4-71.7,11.6c3.2,27.7,35,27.5,56,20.9c2.8-0.7,4.3-0.2,3.7,3
				c-1.3,8-2.2,16.2-4.2,24.1c-13.8,45-7.6,125.8,57.9,116.1c22.2-4.6,45-51.7,19-62.3c-0.2,1.6-1.2,3.8-0.5,4.6c5.5,7,3,14.3,2,22
				c-3,22.4-24.6,32.9-44.4,22.2c-38.6-22.1-28.4-71.9-20.4-107.6c2.3-11.9-2-27.9,15.2-33.4c2.4-0.8,5.2-1.1,7-2.7
				c36.6-25.8,53.1-63.7,50.9-108.2c-0.4-55.1-15.5-107.7-34.3-158.7c-8.1-27-17.8-53.8-27.8-80c-3.6-18-13.7-33.3-18.1-50.9
				c-2.8-11.2-7.3-21.9-11.7-34.6c16.5,10.5,27,23.4,36,37.5c6.1,9.6,17.4,17.8,14.9,30.7c-3.3,23.2,6.5,56.1,26.3,69.8
				c34.2,14.3,34.5-14.8,24.8-36.7c-6.5-15.8-20.9-26.1-34-37.1c-4.1-3.5-10.3-4.2-12.8-10.2c-4.2-13.3-12.6-24.1-19.6-36
				c12.3,3.6,26.1-5.5,36,6.9C935.6,905.3,918.8,796.2,835,824.4z M843.8,564c4.8,14.7,9.6,30,4.8,45.4l-33.1-82.9
				C830.8,535.5,838.9,549.1,843.8,564z M807.7,537.7c9.6,23.5,22.7,46.7,30.7,70.9C813.3,598.8,800.8,562.4,807.7,537.7z
				 M885.9,479.1c0.7,0.7,0.6,2,0.9,3.1c-23-10.3-45.4-21.1-69.1-32C848.4,443.5,867.6,460.4,885.9,479.1L885.9,479.1z M884.1,490.3
				c-14.1,5.2-47-3.1-70.5-30.4L884.1,490.3z M800.9,370.8c27.6,8,54.7,15.7,81.9,27.1C851.1,405,815.1,393,800.9,370.8z
				 M882.8,386.2c0.5,0.8,0.8,1.6,1,2.5c-29.3-9.3-58.2-22.6-89.4-30.4C826.6,345.6,861.5,364,882.8,386.2L882.8,386.2z
				 M743.8,268.7l79.8,20.4C811.8,297.5,770,291.4,743.8,268.7L743.8,268.7z M831,285.3c-29.5-13-59.4-19.2-88.4-27.3
				C757,249.3,795.7,249.5,831,285.3L831,285.3z M821.6,187.2c2.1-3.6,5.3-0.5,6.9,0.5c20.1,13.8,45.3,31.4,44.8,58.6
				C858,227,844.7,208,825.4,192.9C823.7,191.3,819.7,190.7,821.6,187.2L821.6,187.2z M853,235.5c6.3,7.8,14,14.5,19.8,22.7
				c-27.1-5.9-49.8-34.7-58.5-61.2C830.5,208.9,841.8,222.2,853,235.5z M885.2,116.9c-18.6,6.1-51.6-1.3-69.1-12.7
				c26.7,2.8,48.7,3.4,72.8,9.9C887.7,115.1,886.6,116.4,885.2,116.9L885.2,116.9z M819.8,90.5c24.5-8.3,46,0.6,67.3,12.7
				c-25.3-5.5-46.7-5-71.1-9.5C817.2,92.6,818.3,91,819.8,90.5z M572,229.6c-3.5-28,2.8-50,16.6-70C581.8,182.6,576.2,206,572,229.6
				z M582.1,228.3c7.2-25.3,13.6-48,21.2-74.6C610.2,184.6,602.2,206.8,582.1,228.3L582.1,228.3z M633.6,376.7
				c-3.9-27.5,20.2-59.3,42.8-59.4c-12.9,18.1-28.7,34.3-38.9,54C636.5,373.3,636.7,376.1,633.6,376.7L633.6,376.7z M682.6,332.4
				c-6.8,20.1-17.9,36.8-39,46.6c11.4-19.7,25.8-36.1,38.6-53.6C682.4,327.7,683.4,330.3,682.6,332.4L682.6,332.4z M711.6,409.4
				c-14.3,19.9-34.1,35.2-43.9,61.4C673.3,425.5,682.4,419.3,711.6,409.4L711.6,409.4z M672,472.8c16.8-19.6,31.3-39.5,48.2-57.5
				C725.5,436.7,694.1,471.9,672,472.8z M725.9,621.6c1.7-35.1,8.2-69.5,17.7-103.4C757.6,539.2,745.3,610.7,725.9,621.6z
				 M731.8,515.8c-9.9,37-17.1,72.6-20,108.8C698.3,585.7,703.8,549.8,731.8,515.8L731.8,515.8z M712.3,667
				c2.1,45.4,14,89.2,23,137.3C690.3,762.3,698.8,715,712.3,667z M767.6,1253c-2.7,11.6-19.7,7.7-30.1,8.9
				c-31.3,1.5-13.1-44.9,9.5-42.9C757.9,1219.1,771.5,1236.3,767.6,1253L767.6,1253z M853.3,933.2c-0.1-0.2-0.2-0.5-0.3-0.7
				C853.2,932.8,853.3,933,853.3,933.2L853.3,933.2z M822.6,897.6c11,10.9,22,21.8,30.4,34.9c1.3,7.3,3.8,12.9,2.7,17.5
				c-3.1,12.1-12.5,9.3-18.3,3.7c-14.9-14.4-21-33.1-22-53.6C815,891.9,821,896.1,822.6,897.6L822.6,897.6z M893.7,850.4
				c-6,16.1-55-5.5-65.7-9.7c-3.1-2.6,6.4-6.5,8.3-7.4C852,827.1,892,828.5,893.7,850.4L893.7,850.4z M631.5,972.5
				c-19.1,6.8-36.3,14.9-47.6,32.4c-1.8,2.9-3.9,7-6.6,7.7c-14.6,4-28.2,10.6-41.7,17.3c-6,3-8.8,3.9-8.8-5.1
				c0-18.4,1.7-36.8-1-55.2c-1.5-10.8,0.9-20.8,13.2-23.9c8.5-2.1,14.8-7.9,22.5-11.2c3-1.3,5.6-4.3,9.4-3.1
				c27.2,8.7,52,2.3,75.3-12.5c14.7-7,12.2-29.3-3.3-33.9c-20.8-6.8-39,2.1-52.9,14.8c-18.5,16.8-39.7,28-61.3,39.3
				c-4.6,2.4-3.7,0.1-3.7-2.6c0-23.2,0.6-46.5-0.3-69.7c-1.1-13.1,10-12.5,18.3-17.1c8.6-4.4,16.8-11.1,25.9-12.7
				c10.9-2,22.2,1.4,33.8,0.8c19.3-1.1,36.7-5.9,52.8-15.3c34.7-24.4-32.6-58.9-76.3-12.5c-5,4.8-6.8,13.8-12.4,17
				c-13.6,7.8-28.4,13.2-43.9,20.1c0.8-8.3,2.8-14.9,1.9-21.1c-2-20.6-2.8-42.6-0.7-62.8c60-36.8,41.3-14.1,93-26
				c17.2-7.1,50.1-17.3,43.5-41.6c-14.5-26.3-60.9-1-77.5,12.3c-9.5,7-13,20.2-22.5,25.8c-12.6,7.4-27,11.9-39.9,21.3
				c2.3-26.2-2.4-51.3-1.7-76.7c0.1-2.8,1.5-4,3.4-5.4c20.6-15.8,34.8-34.6,35.1-62.6c0.2-21.9-0.7-43.4-11.9-62.3
				c-4.9-8.2-10.1-14.9-8.6-25c4.1-13.3-2.6-28.6,0.9-42.1c-0.5-9.7-2.6-21.5,12.5-12.1c6.8,4.2,18.6,7.4,19.6,12.7
				c2.5,12.6,7.3,23.6,12.6,35.1c10.7,23.2,40.6,42.8,68.3,38.3c9.6-1.6,15.2-8.5,13.4-16.9c-7.5-34.6-33.7-66.4-70.6-69.4
				c-9.6-1.2-19.9,4.2-29.1-3.7c-10.3-10.2-28.5-0.4-26.7-21.2c0-70.4-14.3-137.7-31.7-206c6.2,3.7,10.7,6.3,15.1,9
				c7.2,4.4,19.4,7.8,20.6,13.5c6.8,28.6,25.5,63.8,57,68.7c44.6-1.1,1.9-61.9-18.6-72.6c-13.2-9.7-29.1-3-42-11.3
				c-35.5-28.5-32.5,3.7-45.5-48.8c-11-33.3-34.5-67.4-46.5-97c7.5,2.8,16.9,0.6,22.7,7.3c22.5,26,49.8,38.1,84.2,30.2
				c4.8-1.1,11.8-0.5,13.6-6.7c3.8-19.6-21.4-33.5-36.6-40.5c-49.4-20-51.3,7-72.3,1.6c-10.4-4-22.7-1.6-30.4-13.5
				c-8.9-10.5-49.5-81.9-58.4-76.1c-3.7,1.4,0,4.3,0.6,5.9c12.4,27,24.4,15.1-3.5,43c-12.7,10.5-25.3,21.2-35.8,34
				c-3.9,4.8-11,12.5-14.2,11.4c-20.8-6.7-41-12.5-60-26.8C218.4,32.4,123.5,63.6,151.7,88c28.9,19.6,64.8,25.8,98.6,17
				c8.3-1.9,13.9-11.7,23.6-9.7c12.2,3,25.2,5,36.5,10.7c-17.1,18-33.5,36.6-48,56.8c-1.9,2.6-5.8,7.2-6.7,6.7
				c-9.4-5.1-19.6-0.9-29.2,0.4c-14.4-0.6-30.9,3.5-44.1-0.2c-11-3.7-21.3-9.7-33.1-12.8c-21.3-5.6-40.3-3.6-58.4,9.6
				c-12.7,9.3-13.7,19.6-0.9,28.5c24.8,14.6,62.6,18.9,84.1-3.8c2.8-3,5.6-8.4,8.6-8.6c22.9-0.8,45.4-4.1,68-7.1
				c-11,18.9-24.4,36.4-36.3,54.7c-5.1,7.6-8.8,18.2-16,22c-12.2,6.2-24.5,5.8-38.2,1.3c-47.5-20.7-104,50.3-66.2,51
				c89.5,8.7,63-38.7,98.8-40.2c-5.3,13-14.1,24.6-19.8,37.6c-7.2,15.1-11.8,31.8-20.7,45.8c-6.3,9.9-18.8,15-27.5,23.9
				c-18.4,18.9-25.2,61.2-11.3,84.6c3,5,11.3,8,14.9,2.9c8.6-12.3,22.1-20,28.6-34.2c7.5-16.4,12.9-32.6,8.2-50.7
				c-1.5-5.7-5.5-12.3-4-17.1c10.8-31.6,25.3-63.1,43.7-90.8c6.5,33.8,0,68.7-0.6,102.8c-2.9,79.8-8.4,159.5-5.6,239.4
				c-8.7-4.2-18.2-8.3-21.5-16.8c-7.6-19.9-31.8-63.1-57.1-55.9c-29,17.2,3.9,57.6,25.3,65.7c12.4,4.2,27.7-4,38,9.5
				c4,5.3,14.2,5.8,15.1,13.5c3.7,35.9,2.6,72.3,1.5,108.3c-16.9-19.7-26.8-10.5-35.5-38.3c-6.8-24.3-45.2-78.9-67.8-41
				c-3.9,22.8,13,43,28.3,53.8c16.3,11.5,38.2,9.9,53.6,22.3c9.7,7.8,23.9,12.4,22.6,30.6c-3.5,24,2.3,48.7-1.1,72.6
				c-1.4-1-3.4-1.6-4.2-2.9c-3.2-5.2-8.8-7.1-13.4-10.5c-3.1-2.3-8.6-3.6-9.4-6.4c-3.6-21.9-43.1-84.3-68-66
				c-21.3,38,32.2,68.8,62.5,78.1c11.7,3.8,19.1,12.4,29.2,17.6c1.6,0.8,3.5,3.1,3.5,4.7c-0.3,13.8-1.4,27.6-1.6,41.4
				c-0.3,19.4-0.1,38.8-0.1,60c-5-3.6-7.8-5.1-9.9-7.2c-10.7-10.6-26.5-15-35.4-27.8c-11.5-15-37.3-52.2-58.7-43.3
				c-33,26.6,27.8,69.8,54.9,64.4c3.8-0.6,8.3-3.9,13.4,1.2c6.3,6.3,14.8,10.5,22.6,15.1c18.5,8.5,9.1,18.8,3.2,33.5
				c-9.3,22.8-28.7,86.5,4.3,96.3c45.9,5.6,38.5-79.9,20.8-103.4c-6.7-9.4-3.4-19-6.2-28.3c0-8.3,10.1-5.7,14.6-9.1
				c8.4-2.9,21.6-12.9,28-10.5c25.2,12.1,49.9,7.2,74.8,1.4c15-3.6,24.1-25.4,9.2-35c-46.1-26.5-80.4,28-123.1,36.9
				c-2.8-9.3-1.9-18.3-0.4-27.6c1.7-11.5-3.7-57.2,4-61.6c12.8-6.9,26.4-12.2,38.8-20c2-1.2,5.3-2.5,6.9-1.6
				c7.5,3.8,16,5.4,24.4,4.6c17.5-1,66.2-6.4,64-30.8c-6.7-32.4-58.3-17.7-73.5-1.1c-16.5,16.4-36.8,23.8-56.5,33.5
				c-4.3,2.1-6.2,1.8-6.1-4.1c0.1-19.1-2.4-38.4,0-57.2c1.2-9.7-8.7-24.6,8.2-29.8c15-4.6,26.6-17.5,45.7-12.8
				c20,5.4,82.3,2.6,80-27.5c-8.7-34.3-69.8-15-84.5,6.3c-3.4,4.3-5.7,10.2-11.2,11.1c-11.2,1.8-20.9,7.5-31.5,10.8
				c-2.1,0.6-5.7,4.1-6.1,1.5c-1.4-8.5-1.8-17.2-1.2-25.8c1.6-18.5,1.2-37.1-1.1-55.6c-2.7-19.4,2.4-34.8,19.8-37
				c16.4-3.4,28.4-18.2,49.3-12c27.6,8.2,57,9.6,84.3-5.2c7.6-4,12.2-12,11.8-20.6c-1.2-21.8-32.6-24.5-49.9-21.6
				c-13.8,1.9-26,6.8-37.7,13.8c-9.1,5.5-13.2,17.4-22.1,21.5c-17.3,7.9-36,12.7-54.1,18.7c-0.3,0.1-1.3-1-1.4-1.6
				c-3.5-15.4-0.4-31-1.7-46.3c-0.8-10.1,5.2-19.8,0.1-30c-2.5-6.9,9-8.5,13.6-10.9c14-5.3,26-16.1,42.2-14.9
				c20.7,5.9,91.3-6.6,88.4-35c-9.5-30.3-59.4-12.2-76.7,2.2c-8.5,6.2-12.6,17.4-21.1,22.1c-13.9,7.7-29.6,12.1-42.2,17.1V325.2
				c4.4,5.3,4.9,10.9,6,16.3c3.6,16.7,12.9,30.8,24.3,43.6c6.7,7.5,16.1,8.7,24.7,11.9s17.2,0.1,25-2.7c4.6-1,1.2-18.1-0.4-22.1
				c-6.1-20.1-20.8-32.4-38.8-41.2c-15.7-7.3-39.6-4.4-39.2-29.1c3.4-14.1-2.3-20.4-4.3-32.2c-1.8-29.9,60.8-97.2,80.5-128
				c-1.3,11.8,3.5,22.5-1.9,29.6c-12,16.1-15.1,34.7-18.4,53.4c-3.6,20.5,8,35.9,18.3,51.5c2.2,3.3,7.1,9.6,12.5,4.5
				c17.2-20,26.3-48.7,19-74.6c-3.8-12.9-4.1-28.4-19.6-35.2c-0.6-0.2-1.3-1.4-1.1-1.9c1.9-6,0.4-12.1,0.7-18.1
				c0.3-5.8-4.8-12.1-0.5-17.4c11.5-13.6,23.5-26.7,35.7-39.7c16.3-17.4,32.9-34.5,49.6-51.5c0.2-0.2,2.3-5.8,5.8-0.4
				c15.3,22.8,31.5,45.3,47,68.1c2,3.2,7.4,7,4.8,11.4c-4,6.7-8.8,12.8-14.3,18.3c-4.5,4.5-6.2,11.4-13.7,13.6
				c-19,5.6-35.8,14.5-47,32.2c-7.9,12.5-9.6,26.9-14.8,40.2c-4.6,11.9,2,18.8,13.8,17.6c14.6-1.4,25.5-9.8,36.9-18
				c13-9.4,26.2-37.6,23.2-52.8c-0.8-3.7-2.9-8.7-1.3-11c7.5-10.5,16-20.2,24.2-30.4c19.2,37.2,36.4,74.8,46.6,115.6
				c1.8,5.8,5,16.4,3.5,17.3c-11.8,6.3-25,15.7-38.7,15.8c-37.4-2.2-73.5,11.3-86.1,48.8c-10,25.1,41.4,12.2,52.4,5.3
				c16.5-8.3,29.9-19,38.1-35.5c1.9-3.8,1.3-9,6.1-11.1c9.1-4,18.3-8,27.4-11.9c1.8-0.8,2.7-1.6,3.8,1.7
				c7.5,24.6,9.7,50.3,15.7,75.2c1.8,7.4-0.1,12.9-8,14.6c-4.8,1-8.5,3.9-12.9,5.5c-7.4,2.8-12.8,12.2-21,10
				c-38.2-9.2-91.6,34.5-77.2,74.4c2.5,4.7,10,3.5,16.1,2.6c27.3-3.9,42.4-23.3,57-43.3c5.5-7.5,5.3-18.7,13.3-24.4
				c9-6.5,19-11.5,28.6-17.3c5.4-3.2,7.3-2.4,7.7,3.7c1.5,26.5,2,53.1,4.8,79.5c1.7,15.6-3.5,24.3-17.6,29.6
				c-6,2.3-13.2,10.5-16.6,9c-30.8-9.9-71.9,24.2-77.3,54.4c-7.3,26.5,28,19.5,41.7,10.6c16.8-8,26.8-22.8,35.2-38
				c4.9-8.8,5.5-19,16.3-25.1c15.2-8.5,17.5-9.9,17.4-1.8c7.5,62.3-28.1,50.5-35.8,107.7c-3,19.7,1.5,36.9,9.4,54.4
				c2.5,5.6,8.6,9.2,8.8,14.9c0.6,38.4,3,78.1,2.6,115.4c-13.2-7.1-24.8-17.3-37.2-25.7c-6.4-4.7-15-8.4-18.3-14.8
				c-11.7-22.4-39.5-62.6-68.4-51.7c-30.1,21.4,14.8,56.3,38.9,59c29.9-0.3,40.2,16.5,64,30c15.3,8.5,25.3,19.4,23.3,39.7
				c-1.7,17.6-2.4,35.8,1.3,53.6c0.3,1.7-1.4,3.9-2.2,5.8c-6.7-2.6-12.1-7.4-17.8-11.6c-11.7-9.3-25.9-15.3-36-26.7
				c-13.4-18.4-58.2-61-72.8-24.6c-2.9,11.6,6,18.7,12.2,25.1c12.1,12.9,28.9,20.2,46.5,20.3c7.2,0.1,15.9-3.2,21.5-0.3
				c15.8,8.1,30.3,18.7,45.4,28.1c6.1,8.5,1.4,20,1.7,29.4c-0.4,27.1,2.2,54.4,1.2,81.4c-9.7-6.1-18-14.3-27.1-21.2
				c-7.1-5.7-16.2-9.9-21.1-17.1c-15.6-21.3-39.3-60.2-70.1-45.9c-7.3,4.6-8.3,14.7-4.8,22.5c10,22.6,30.2,31.6,52.6,37.2
				c29.8,1.9,37.1,11.4,60,27.8c7,4.6,12.5,9.6,12.2,18.6c-1.8,31.3-0.6,63.2-4.2,94.2c-12.3-9.2-24.1-19.2-37.4-27
				c-5.4-3.5-12.5-7.1-14.6-12.4c-8.4-24.2-44.6-58.8-71-55.5c-7.4,1.6-12.9,8-13.5,15.6c-4.9,34.1,43.6,55,72.4,55.2
				c4.1,0,8.4-3,13.1,0.1c11.4,7.6,23.3,14.3,34.9,21.5c10,6.2,17.4,11.8,16,27c-1.7,18.6-4.7,37.5-2.1,56.4
				c0.5,3.7-1.8,7.8-2.9,11.7c-7.9-2.9-15.1-9.2-22.6-13.3c-35.9-17.1-56.9-52.8-96.4-63.1c-19-6.8-37.2,8.8-24.1,27.7
				c14.2,23.9,58.5,39.4,84.9,31.1c5.5-1.9,9-0.9,13.5,2.2c9.6,6.6,20.4,11.6,29.7,18.5c6,4.4,21.2,4.7,10,19.9
				c-15.6,19.5-35.1,96.1-4.3,107c7.7,2.2,15.7-2.5,21.4-8.7c18.4-19.9,9.7-43.5,9.5-66.2c-0.1-14.7-13.8-25.5-9.3-40.7
				c1.7-5.6-6.7-15,7.2-16.2c7-0.6,13.8-7.1,20.6-6.9c28.9,3.1,60.4,17.2,87.8-0.4c8.4-5.7,15.3-13.6,12.1-24.7
				c-10.2-29.2-51.8-18.1-71.5-5.7c-15.9,9.8-29.3,23.8-48.7,27.1c-2.2,0.4-6.8,4.9-6.6-2.1c0.9-21.7,2-43.5,3.2-65.2
				c0.2-3.3-0.9-8.7,3.6-9.2c9.2-0.9,16.9-6.2,24.8-10.4c9.5-5.1,18.1,0.6,27.2,1.5c20.4,1.9,41.4,4.1,60.7-7.3
				c19.5-8.2,15.8-34-3.3-37.7c-17.3-2.7-34.1,1.7-49.6,10.8c-9.5,5.6-16.2,15.4-25.4,19.8s-19.3,7.2-28.5,12.2
				c-4,2.1-7.3,1.9-7.9-4.7c-1.8-19.2,4.9-38.2,0.7-57.4c-0.5-2.4-0.5-8.9,5.6-9.9c11.1-1.8,19.3-9.9,29.5-13.7
				c5.5-2,11.2-6.6,16.3-8.3c14.3-0.5,28.3,4.4,42.8,3.2C692.8,1026,685.8,954.5,631.5,972.5z M577,920.6
				c48.4-46.9,90-21.6,54.9-5.3c-17.1,6.9-35.5,11.9-54.2,7.6C576,922.6,575.8,921.7,577,920.6z M577.9,825.1
				c34.4-47.8,103.7-22.5,63.4-6.3C635.1,823.7,576.6,834.9,577.9,825.1L577.9,825.1z M640.2,695c17.4-0.7,10.8,17.6-0.2,21
				c-20.8,11.2-42.5,18.4-66.9,14.3C592,709.8,612.7,696,640.2,695z M656.8,540.5c-23-25.9-39.7-43.2-67.3-60.9
				C612.6,475.8,633,493.7,656.8,540.5z M581.4,487c25.7,16.4,47.7,36.3,68.1,59.3C620.3,550.3,579.3,514.5,581.4,487z M606.4,301.6
				l-47.8-44C581.7,265.9,595.5,279.7,606.4,301.6L606.4,301.6z M555.9,270.9c18,15,36.8,29.3,50.9,48
				C587.6,326.2,555.1,290,555.9,270.9L555.9,270.9z M485.7,108.6l65.7,19.9C525.6,134,505,123.8,485.7,108.6z M555,119.1
				l-74.4-23.6C511.3,91,543.6,101,555,119.1z M254.9,79.5c-31.3-3.8-60.2-9.3-90.2-4.5C186.9,56.8,234.7,64.9,254.9,79.5z
				 M162.5,82.5c31.1,0.3,63.1,2.9,94.7,9.2C238.4,104.7,200,100.8,162.5,82.5L162.5,82.5z M119.4,195.6c-5.9-1.9-13.8-1.4-18.2-5.9
				c0.8-0.5,1.7-1.4,2.5-1.4c22.5-1.3,44.7-4.8,67.3-4.7C155.1,196.9,137.8,199,119.4,195.6z M105.1,177c-8.4-1-4.7,3-9.6,2.2
				c3.7-11.4,35.3-17,46.1-13.6c8.1,2.8,16.7,4.1,29.8,7.2C146.1,174.3,125.6,175.6,105.1,177z M162.4,262.4
				c-24.3,5.7-45.3,15.8-67.5,24.8C106.7,270.1,133.7,252.5,162.4,262.4L162.4,262.4z M99.5,294.2c22.8-4.6,42.5-17.4,65.9-21.5
				C147,297.8,122.1,297,99.5,294.2z M122.9,441.8c-0.3,1.3-0.8,2.5-1.2,3.8c-13.7-23.2-0.2-59.5,21.6-76.9
				C134.9,393.3,129.3,416.9,122.9,441.8z M158.4,384.9c-4.4,19.5-7.3,40.1-26.1,54.7c8.6-19.1,10.3-38.9,18.8-56.7
				c0-3.8,0.4-9.8,3.6-9.2C159.2,374.5,158.9,382.4,158.4,384.9L158.4,384.9z M166.3,596.6c-17.2,0.9-32.6-10.5-41.5-24.2
				c-4.8-6.8-10.7-32.4,6.6-26.2c8.8,4.3,16.6,15.2,25.1,25.7c5.6,6.9,7.1,15,10.1,22.7C166.8,595.2,166.6,596,166.3,596.6
				L166.3,596.6z M121.8,692.6c-9.4-9.3-17.6-20.3-14.6-34.7c2.4-11.5,11.8-8.1,17.2-4.1c19.6,14.3,30.6,35.6,35.7,59.3
				C145.6,708.2,132.2,702.7,121.8,692.6L121.8,692.6z M156.9,812.3c-21.4-11-50.3-27.8-47.6-55.5c0.3-2.8,2.5-4.7,6.1-3.8
				c23.6,9.1,40.5,36,47.8,59.5C161.1,812.5,158.7,813.1,156.9,812.3L156.9,812.3z M147.6,927c-15.3,1.6-64.3-26.3-48-47.8
				c2.7-3.2,5-1.5,7.4,0.1c18,11.5,30.9,28,43.3,44.8C152.6,927.3,149.3,926.8,147.6,927z M213,1009.8c3.8,15.9,6.6,58.1-16.7,58.8
				c-10.8-3.3-8.9-14.4-9.3-24.5c2.4-19.1,3.9-44.8,16.5-62.8C209.5,984,210.7,1003.2,213,1009.8z M259,918.9
				c13.6-14.3,62.5-33.3,72.2-8c-2,9.6-10.4,12.9-17.4,13.5c-18,1.7-36.2,6.7-54.2-1.3C255.6,921.4,256.4,920.9,259,918.9L259,918.9
				z M279.3,802.6c13.9-9.5,49.2-27.3,59.2-5.6c2,6.4-5.6,7.6-9.7,9.7C322.7,812.7,241,827.6,279.3,802.6L279.3,802.6z M323.7,689.2
				c6,0.8,11.9,4.2,11.7,10.5c-2.6,18.2-55.8,16.1-71,14.8C280.8,696.4,299.5,686.1,323.7,689.2L323.7,689.2z M282.9,580.5
				c9.2-20.4,55.4-27.5,73.9-19.2c12.4,4.3,9.3,18.1-2.2,22c-11.5,5.8-24.2,8.5-37.1,7.7C309.5,590.7,274.7,591.7,282.9,580.5z
				 M269.6,486.2c16.5-17.5,39.5-30.8,63.9-26.4c3.7,1.7,9.8,3.2,9,7.6c-7.7,17.3-56.5,23.5-74.2,22.9
				C268.7,488.9,268.7,487.1,269.6,486.2L269.6,486.2z M284.7,379.2l-47.4-43.8C256.5,336.5,285.5,363.8,284.7,379.2L284.7,379.2z
				 M255.8,366.4c8.1,8.9,17.5,16.4,27.7,24c-22,2.6-54.6-27.6-53.9-50.3C236.5,351.6,247.6,357.5,255.8,366.4L255.8,366.4z
				 M291.5,264.1c-18.4-24.7-10.1-50.7,0-76.8V264.1z M302.4,183.7c11.2,23.8,15.7,49.2,0,77.7V183.7z M359.8,233
				c11.2-26.4,17.4-58.2,46.7-65.5C394.9,189.5,375.8,209.3,359.8,233z M416.7,186.3c-7.6,20.1-20.9,38.9-42.4,45.3
				c15.4-18.8,25.9-39.1,43-54.5C417.1,180.1,417.7,183.5,416.7,186.3L416.7,186.3z M438.4,290.7c-1.3,6.7-8.3,5.3-12.3,8.3
				c-12.4,9.2-25.4,17.6-40.4,27.9C398.7,304.5,415.1,292.3,438.4,290.7L438.4,290.7z M391.2,334.4c20.2-16.2,42.6-29.4,66.5-39.4
				C440.5,318.5,419,332.4,391.2,334.4z M421.5,448.7c-1.2,0.4-2.9-0.5-4.4-0.9c0.5-1.3,0.7-3,1.7-3.8
				c15.7-12.8,31.5-25.5,49.8-40.3C455.4,424.6,443.3,441.9,421.5,448.7z M434.7,417.4c-11.8,9.1-20.9,21.8-31.2,33
				c3.1-38.1,40.5-60.5,67.7-60.5C456.3,396.8,446.5,408.4,434.7,417.4z M427.7,541.8c11.9-20.6,29.7-33.4,55.7-39.4
				c-23.4,17-42.3,31.7-60,51.6C424.8,549.9,425.5,545.5,427.7,541.8L427.7,541.8z M429,559.5c18.3-15.9,36-31.1,55.9-44.8
				C472.9,538.1,458.4,557.2,429,559.5z M440.9,749c-19.6-4.8-54-12.2-51.5-38.4c0.8-4,4.8-6.6,8.8-5.8c0.2,0,0.4,0.1,0.6,0.1
				c21.8,5.8,37.5,25.3,45.9,45.3C443.5,749.8,442.2,749.3,440.9,749z M451.2,858.8c-22-2.3-40.8-9.7-52.8-29.6
				c-1.7-2.8-2.3-6.4-0.6-7.6c15.5-13,49.8,22.9,56.9,36.5L451.2,858.8z M456.5,974c-2.8,3.8-7.3-0.6-10.6-1.5
				c-16.7-3.9-56.9-23.3-41.1-44.6c11.5,2.6,19.4,3.8,25,10.9c7.2,9.1,14.8,17.9,22.1,26.9C453.8,968.3,458.4,971.4,456.5,974z
				 M442.7,1089.4c-18.7-2.4-68.7-23.9-52.9-50.2c4.6-5,8.5,0.2,13,1.6c19.4,6.8,43.1,28.5,49.3,47.5L442.7,1089.4z M441.3,1190.9
				c-25-1.3-62-9-70.4-36c-1.2-8.3,6.3-8.7,11.4-7.5c26.2,6.3,47.1,22.8,64.3,42.9C444.8,1190.6,443.1,1190.8,441.3,1190.9
				L441.3,1190.9z M518.7,1275.5c-1.4,15,5.5,30.8-3.6,45.2c-3.6,5.7-7.1,13.7-14.8,11.8c-19-6.5-0.6-75.5,9.7-88.3
				C516.5,1253.6,519.8,1264.3,518.7,1275.5L518.7,1275.5z M512.2,656.5c-19.1-34.4-10.8-71.1,11.2-99.1L512.2,656.5z M529.2,605.3
				c3.2-17.5,3.1-35.7,7-53c12,19,10.6,44,9.6,66.2c-1.8,20.2-15,31.8-27.4,46.8C522.3,644.2,526.2,624.9,529.2,605.3L529.2,605.3z
				 M604.6,1174c46.2-10.4,47.9,45.9-45.1,23.5C572.9,1184.2,588.2,1177.3,604.6,1174z M576.7,1102c10.5-11.4,58.1-33.9,63.5-10.7
				c-1.5,16.8-52.2,17.5-64.9,13C575.7,1103.5,576.2,1102.7,576.7,1102L576.7,1102z M649.1,1006.7c-18.7,6.4-38.7,7.8-58.1,3.9
				c13.7-20.2,33.3-28.3,56.4-29.6c6.6-0.4,12,1.1,13.7,9.3C663.2,1000.6,655.6,1004.4,649.1,1006.7L649.1,1006.7z"/>
		</g>
	</g>
</g>
<g>
	<g id="Layer_1_2_">
		<g transform="matrix( 1, 0, 0, 1, 0,0) ">
			<g>
				<g id="Layer0_0_FILL_1_">
					<path d="M52,1548v15l-37,37h946l-37-37v-15H52 M52,52V37.7L14.3,0H0v1600h15l37-37v-15V52 M924,52V37.7L961.7,0H14.3L52,37.7
						V52H924 M976,0h-14.3L924,37.7V52v1496v15l37,37h15V0z"/>
				</g>
			</g>
			<g>
				<path id="Layer0_0_1_STROKES_1_" class="st4" d="M961,1600h15V0h-14.3L924,37.7V52v1496v15L961,1600H15H0V0h14.3h947.4 M52,52
					V37.7L14.3,0 M15,1600l37-37v-15V52h872 M924,1548H52"/>
			</g>
		</g>
	</g>
</g>
</svg>
