<svg xmlns="http://www.w3.org/2000/svg" xmlns:xlink="http://www.w3.org/1999/xlink" viewBox="0 0 976 1600">
<style type="text/css">
	.st0{fill:#FFFFFF;}
	.st1{clip-path:url(#SVGID_2_);}
	.st2{fill:#5D4E8C;}
	.st3{fill:#333333;}
	.st4{fill:#FFEB5C;}
	.st5{fill:#D81E1E;}
	.st6{fill:none;stroke:#333333;stroke-width:2;stroke-linecap:square;stroke-miterlimit:3;}
</style>
<g id="Paper_Backing">
	<path class="st0" d="M960,22v1556c0,3.3-2.7,6-6,6H22c-3.3,0-6-2.7-6-6V22c0-3.3,2.7-6,6-6h932C957.3,16,960,18.7,960,22z"/>
</g>
<g id="Wikipedia_Cropped">
	<g>
		<defs>
			<path id="SVGID_1_" d="M960,22v1556c0,3.3-2.7,6-6,6H22c-3.3,0-6-2.7-6-6V22c0-3.3,2.7-6,6-6h932C957.3,16,960,18.7,960,22z"/>
		</defs>
		<clipPath id="SVGID_2_">
			<use xlink:href="#SVGID_1_"  style="overflow:visible;"/>
		</clipPath>
		<g class="st1">
			<path class="st2" d="M637.7,884.7c-43-37.8-94-89.5-103.2-150.8c-14.1-0.5-32.4-1.2-29.4-19.6c-1.7-14.4-6.9-27.3-8.7-41.5
				c0.3-9-10.1-24.3-1-30c16.1-11.7,49.8-47.7,71.7-27.1c29.5,22.6,19.2,51.9,44.3,47c16,0.7,70.5,10.8,47.5,35.4
				c-17,21.1-49.1,96.6-30.2,117.8c13-8.5,8-31.7,17.8-48.9c13-23.8,29.1-89.2,62.9-77.7c18.3-4.7,8.1-51.5,38.9-51.2
				c52.6,4.1,88,12,130.7,33.4c14.8,6.3,12.1-12.2-0.4-14.1c-27.4-14.9-51.5-24.2-75.9-29.3c-14.9-5-55.1-0.6-41.9-26.7
				c67.1-108.2,172.2,26.5,196.1,104c2.3,5.1-5.3,5.3-5.8,9.6c-1.8,8.7,21.1,18.3,9.3,25c-63.6,7.4-127.8,40.4-192.3,25.6
				c-14.8-1.8-1.3,25.8-21.5,40C715.9,836.7,673.5,859.3,637.7,884.7z M491.3,618.6c-12.3-8.4-6.6-31.1-10.9-44.6
				c1.8-15.4-18.9-54.3,9.6-51.6c32.5,6,63.3,28.9,63.7,61.5c-1.6,3.8-5.8,5.3-10.3,6.8C519.7,598.1,507.4,609.1,491.3,618.6z
				 M660.5,599c-13-11.3-18.9-39.5-15.9-58.3c-3.4-17.4,32.1-51.4,39.9-19.3C684.7,548.8,677.4,579.8,660.5,599z M732.6,556.8
				C719,537,718.5,504.5,715,479.4c-6-29.1,31.7-53.9,45.5-16.4C771.6,495.4,758.8,537,732.6,556.8L732.6,556.8z M592.6,517.2
				c-19.3-12.1,27.6-56.6,38-58.6C690.7,449.2,616,516.8,592.6,517.2L592.6,517.2z"/>
			<path class="st3" d="M703.5,1604c-2.2-0.6-4.5-0.6-6.7,0c-4-4-171.2,8-169.5-4.5c12.2-15.6,4.3-40.2,7.9-60.9
				c3.4-36,10-71.6,19.8-106.4c16.9-49.4,30-110.3,59-150.6c12.1-5.7,30.1-4,43.3-3.7c10.6-4.5,32.6-9.9,42.9-2.9
				c-15.2,56.4-36,117.6-41.1,176.8c-0.1,27.5-16.8,68-1.8,80.2c20.4-40.8,27.2-91.2,55.9-133.8C764,1302.2,829.9,1219.6,925,1164
				c100.6-64.4-0.8,30-22.3,59.3c-41.4,50.9-75.6,108.6-101.3,168.7c-27,64.3-53.6,134.2-46.4,203.1
				C762.4,1612.4,708.9,1600.8,703.5,1604z M450.1,1604c-48-0.2-106.2,0-154.6,0c-8.2-2.7-0.1-18.3-2-25.5
				c1.6-32.6-5.1-64.1-6.3-96.6c-2.9-43.6-10.1-87.2-18.8-130.2c-79.2-85.5-157.6-160.5-258.4-192c-10.6-12.2,15.7-5.7,21-5.3
				c70.2,1.8,137.7,32.6,194.3,60.3c-9.5-55.9-53.8-106-86.3-152.2c-17.3-25.9-48.6-49.3-66.4-74.3c14.8-5.5,32.7,13,42.4,18.4
				c256.6,157.6,277.4,602.2,280.1,407.1c0.2-110.4-10.8-195.8-34.4-315.1c-7.7-52.2,42.8,65.1,50.4,70.1
				c9.1,21.6,28.1,37.9,32.5,61.3c0.4,4.3,4.7,4.6,7.9,5.7c6.9,5.8,11.6,14.7,17.5,21.7c29.9,35.4,35.6,43,35.7,90.9
				c0.8,44,3.5,87.8-0.6,131.6c2.1,38.1-16,83.7-2.2,118C508.2,1610.5,453.2,1601.3,450.1,1604L450.1,1604z M221.2,1604
				c-5.7-3.1-54.5,7.6-48.5-7.7c-2.8-82-23.4-154.6-62.7-225c-3.1-12.4-67.8-85.8-24.2-58.8c82.7,48.3,147.5,132.8,169.6,224.3
				c5,20.3,7.5,43.9,9.1,65.4C265.1,1606.1,222.9,1603.1,221.2,1604L221.2,1604z M719.8,1222.9c-11.8-10.4-17.7-29.6-25.6-42.4
				c-12.4-11.7-17.8-25.8-5.8-38.8c71.8-106.9,161.1-197.8,269.5-261.9C843.5,1026,747.3,1153,719.8,1222.9z M268.6,822.8
				C201.4,715.2,128.8,601.5,35.3,507.3c3.4-5.7,15.4,6.5,18.8,7.4C100,545.4,229,629.5,238.9,679.6c1.4,12,7.9,24.3,6.2,35.5
				c-2.5,12.8,12.8,25.5,11.3,40.4C255.5,776,279.1,807.5,268.6,822.8z"/>
			<path class="st4" d="M686.8,1001.3c-33.4-10.4-14.4-63.3-3.8-82c-5.9-16.3-5.8-32.6-8.1-49.1c-1.8-12.1,8.5-15,16.1-20.4
				c32.8-28.7,34,50.7,31.6,76.8c-1.6,9.4-7.7,15.2,0.1,22.9C718.2,968.7,710.2,996.4,686.8,1001.3z M200,975
				c-43.9-10.8-35.7-78-13.6-102.3c-5.9-25.5-11.1-50.8,0.1-75.3c44.4-31.7,41.8,63.5,26.2,83.3C221.5,906.2,238.6,964.9,200,975
				L200,975z M629.1,834.7c-17.7-39.3,8.2-98.3,30.1-137.7c5.8-14.1,33.3-3.4,17.8,8.6C650.4,743.8,637.7,792.2,629.1,834.7z
				 M905.7,682.9c-47.9-24.1-101-40-153-45.6C737,592.6,921,661.8,905.7,682.9z M659.9,676.4c-8.2-4.1-13.2-9.2-22.5-10.3
				c-5.7-3.3-21.1-1.7-22.2-6.9c-1-13.4,20.1-40.8,35.4-38c9.6-0.2,4.8-15.6,12.8-17.5C679.2,619.6,676.4,659.1,659.9,676.4z
				 M717.1,667.2c-14.8-20.8-10.2-91.5,14.6-103.2C743.9,592.3,740.7,647,717.1,667.2L717.1,667.2z M594.9,650.6
				c-11.1-11.6-17.6-31-32.4-38c-5.5,0.4-4.1-8.6-10.2-7.9c-20.5,9.8-40.8,22-56,36c-30.3-20.5,33.3-44.5,45.6-49.4
				c5.2-1.3,13.6,4,14.5-4.8c-0.6-12.4,21.8-80.7,35.8-69.3c3.7,22.5,1.7,42.5-6.1,61.1c-1.1,2.7-0.1,5.8,2.3,7.4
				C597,603,606.8,634.7,594.9,650.6z"/>
			<path class="st5" d="M500.6,1290.9C321.3,1112.4,237.4,717,216.8,468.4c-3.4-39.5-7.7-79.1-11.4-118.6c1.5-10-8.7-29.7,4.2-32.8
				c52.3,6.6,178.7,1.8,248,12.6c7.3,110.2,6.9,218.1,32,328.1c33.3,221.7,118.4,413.9,243.4,598.3c6,10-4.7,11.6-11.3,10.6
				C648.6,1269.8,573.1,1282.8,500.6,1290.9L500.6,1290.9z"/>
			<path d="M987.8,952.4c-1.7,18.9-30.9,15.8-26-7.3C962.4,928.3,990.2,934.8,987.8,952.4z M984.2,1135.2c2.6,6.4-5,9.6-8.2,13.9
				c-11.2,11.3-22.6,22.5-33.5,34.1c-19.1,22.6-38.4,45.5-56.7,68.8c-19.3,31.7-41.4,62-58,95.1c-22.3,47.4-45.2,95.5-57.3,146.9
				c-4.5,22.8-7.3,45.9-12,68.6c-2.1,10.1,1.4,20.4-3.1,30.1c-1.1,2.5-2.5,2.2-4.4,2.3c-2.2,0-2-1.7-2.2-3.3
				c-2-16.9,0.9-33.4,3.9-49.9c6.1-50.6,21.2-99,42.4-145.4c38-95.1,102-178.9,171.9-252.5c-113.4,58.8-191.7,143.1-250.2,256.2
				c-32.3,56.7-54.4,119.5-56.6,185.2c-0.6,5.1-0.5,13.6-7.1,13.2c-4.8-0.3-3.3-9-3.7-13.2c-5.3-44.8-0.7-89.6,5.7-134.1
				c7.6-58.4,20-115.9,41.4-170.9c2.9-5.9-5.4-4.5-6.3-4.5c-36.1,2.5-33.9,3.4-43,34.4c-19,47.4-27.1,98.6-36.7,148.7
				c-4.4,42.3-7.6,85.8-8.2,127.8c-12.2,39.3-6.2-71.6-5-76.1c6.6-77.6,23.9-153.9,51.3-226.8c1.5-7.8-29.5,0.1-33.5,1.6
				c-6.7,2.1-6.9,11.5-9.7,17.4c-28.2,66-52.9,134.9-62.6,206.4c-4.5,28.1-5.2,56.4-5.8,84.8c-0.2,4.2-3.8,4.8-5.9,5.4
				c-1.6,0-2.3-2.9-2.4-5.2c-1.7-25.4,2.6-50.5,3.3-75.8c9.3-78.5,37.6-154.6,68.7-226.7c4.7-9.2-3-6.6-6.8-6.6
				c-17.8-0.3-24.2,11.7-29.1,26.2c-14.8,37.1-27.5,75-37.8,113.5c-11.5,40.4-20.3,81.4-24,123.3c-1.5,14.3-1.3,28.7-2.3,43.1
				c-0.2,2.8,0.7,6.4-2.6,8.5c-11.6-16.8-2.5-50.3-1.8-70.5c6.4-60.1,6.5-120.5,4.2-180.8c-0.6-15.9-2.9-31.7-3.5-47.6
				c-0.2-5.7-4.9-6.5-7.3-9.6c-13.8-17.1-26.1-35.9-40.6-52.2c3.6,82.1,5.4,165.4,5.2,247.9c0.3,24.7-1.1,49.3-1.9,74
				c-1.8,16.5,2.5,32.3-6.8,47.3c-2-68.3,3.1-131.9,0.2-199.4c-2.8-60.4,2-121.7-6.8-181.7c-2.5-12.5-11.5-22.3-18.2-32.7
				c-20.4-36.7-40-67.4-58.2-106.6c19.4,87.3,28.7,174.2,36.3,262.8c0.6,74.3-0.8,148.5,3.5,222.7c0.4,15.2,2,33.8-8.7,46.1
				c-4.5-27.5-0.3-56.8-3.3-84.9c-5.2-58.4-18.1-116.4-36.8-171.9c-31.3-101.4-80.5-199.9-153.1-278.1
				c-26.7-28.4-57.4-51.5-88.1-74.8c-9.9-7.5-20.6-15-36.4-19.8c81.6,74.1,144.2,168.8,174.7,274.7c13.8,48.5,24.7,97.9,32.5,147.7
				c8,46.5,8.3,93.7,14.1,140.4c1.9,15-1.1,29.7-0.5,44.6c-1.1,4.4-5.9,4-6-1.4c1.2-32.9-3.8-65.6-6.1-98.4
				c-1.1-29.2-6.5-57.7-10.9-86.4c-1.1-13.8-5-27.1-6.6-40.7c-0.9-7.6-5.3-13.6-9.3-19.1c-43.4-57.8-97.9-108.6-160.4-145.3
				c-25.6-16.3-52-31.4-81.2-40.3c-4.9-1.8-9.8-4.8-9.1-9.5c1-6.1,8.7-4.9,12.6-5c71.6-0.5,142.9,22.4,202.8,61.3
				c-44-96.8-104.1-197-201.4-247.3c29.2-12.5,149.2,67.2,181.8,109c-3.9-25.3-13.5-46.6-13.9-71.7c-7-44.5-36.2-47.6-21.7-104.4
				c2.6-11.8,13.4-21.6,10.7-33.9c-4.1-23.2-11.4-60,9-77.1c51.2-18.2,47,64,31,92.6c-3.4,7.9,4.5,14.7,5.8,22.5
				c16.9,72-17.1,54.7-4.2,93c9.2,47.2,13.1,98.4,35.4,141.5c24.2,35,46.3,71.4,63.6,110.3c34.3,69.8,55.9,141.1,72,217.8
				c3-127.4-8-254.4-37.3-378.4c-5.5-32.5-18.4-62.5-30.9-92.7c-13-36.9-26.6-74-36.5-111.8c-28.7-85.1-84.9-157.4-134.3-231.3
				c-25.5-35.8-51.2-71.4-82.6-102.4C52,530.1,32,515,11.5,500.4c-2.1-1.5-2.7-5-3.9-7.6c50.4,3,188.9,117,222.8,159
				c-7.8-53.7-11.9-106.2-17.4-159.9c-4.9-56.6-13.9-113.7-10.9-170.6c0.6-3.9-3.7-10.4,0.6-11.3c8.7-1.7,17.6-1.9,26.4-0.6
				c35.6,3.2,150.8,9.4,201.5,11.4c11,0.5,22.1-0.1,33.1,0.3c4.5,0.1,2,4.8,2,6.4c-0.1,59.8,5.9,119.7,10.8,179.2
				c-0.1,6.9-2.8,12.2,10,11.1c30.1-2.3,56.5,22.4,69.6,47.9c4.3-18.5,16-33.6,24.4-50.3c6.3-12.5,10.8-25.9,19.4-37.2
				c9.4-15.4,44.6-41.1,58.2-19c4.2,8.7-2.1,15.3-6,21.2c-12.9,19.4-30.7,32.9-53.7,38.8c-5,0.2,1.9,20.5,0,25.6
				c-0.8,10.1-1.4,21.3-6.1,29.7c-5.7,10.1,2.8,13.9,5,20.3c6.3,19.4,7.9,38.9,3.9,58.9c-0.2,1-2.7,3.6,1,3.1c3-0.4,7.3,2.5,8.8-1.7
				c5.7-15.8,14.7-29,29.6-36.8c6.4-2.9,23.2-13,14.4-20.8c-16-23.9-22.9-59-5.3-83.3c10.3-17,40.3-15.8,39.7,8.6
				c1.1,27.5-11.8,51-20,76c-1.5,4.7,2.9,11.5,4.8,17.3c6.8,20.3,4.1,39.5-6.4,57.8c-1.3,2.3-1.3,4,0.3,4.9c3.2,1.7,2.9,6.5,8.2,6.7
				c9.7,0.3,19.3-4.8,29.1-0.5c11.1,4.9,6.2-4.3,5.3-7.2c-3.8-13.8-2.5-28.1-4.4-42c-2-25.4,0.8-52.8,18-72.9
				c6.1-6.3-1.8-12.4-2.8-18.3c-4.7-33.1-29-86.5,9.6-105.9c8.5-3.9,17.5,0.9,24.6,7.5c29.6,31.1,10.3,84-15.8,111.3
				c-8.2,8.4,0.6,17.9,1.7,26.8c2,16.6,2.5,32.9-1.8,49c10.8-4.5,15.2-12,15.7-24.3c7-58.9,90.8-65.5,126.8-29.1
				c22.2,18.4,41.6,40.2,53.8,67.4c14.7,29.7,31.4,58.9,37.3,92c0.2,1.6,0.7,3.7-1.8,3.8c-18.1,0.6-35.4,5.2-52.8,10
				c-47.4,11.7-96.8,29.7-145.9,18.4c-18-10.2,5,13.5-25.3,41.1c-9.9,10.4-20.8,19.8-32.7,27.9c-4.3,3,1.6,7.6,3.1,10.7
				c17.6,39.3,18.3,114-11.2,146.5c-24.5,24.3-23.8,57.6-35.6,86.3c-3.8,9.2-5,19-9.2,28.3c-3.8,8.3,4.3,15.3,7.8,22.8
				c11.6,24.8,15.2,2,19.4-3.7c20.3-27.7,40-55.8,62.3-82.1c55.8-65.1,122.4-120.6,194.1-167.6c6.3-4.1,13.4-7,20.3-10.1
				c4.6-2.1,7.9,1,10.3,3.8c1,0.8,1.2,2.3,0.4,3.3c-0.1,0.1-0.2,0.2-0.4,0.4c-22.8,21.5-42.5,46.1-62.6,70.1
				c-75.7,80-136.9,172.3-185,271.3c-6.2,11.6,4.3,19,8.8,27.9c10.1,20,7.1,26.3-16,25.4c-13.8-0.6-15.2,7.1-18,15.8
				c-27.8,75.1-38.2,155-46.5,234.3c13.3-62,43.7-117.6,76.8-170.9c28.7-54.2,69.4-100.2,115.7-140.1
				C871.5,1193.9,959.5,1126.7,984.2,1135.2L984.2,1135.2z M591.2,512.2c1.6,2.8,3.5-0.8,5.3-1.3c22.4-6.3,39.3-19.4,50.7-40.1
				c5.3-9.5,1.5-10.1-10.4-9.3C616.4,465.5,596.1,491.9,591.2,512.2L591.2,512.2z M242.9,1270.2c-8.3-16.8-7.1-37-25.4-50.7
				c-61.7-44.4-131.4-56-206.2-63.5c105.4,37.5,183.8,103.7,250,187.1c-2.3-11.2-3.6-22.2-6.9-32.5c-3.2-10-2.8-21.9-10.9-29.4
				c-27.2-24.8-56.4-48-88.1-66.7c-9.1-5.3-19.1-9.3-26.9-17c45.8,12.4,79.5,43.7,114.4,73C242.6,1271.2,243.1,1270.5,242.9,1270.2
				L242.9,1270.2z M193.2,883.9c0.9,3.8,3.3,7.3,5,10.9c17.5-18.2,23.8-50.4,21-75.6c-2.4-15.8-18.2-34.2-29.2-19.8
				C177.7,826.4,186.8,856.7,193.2,883.9z M202.3,970.6c26.7-10.9,17.3-57.8,10-79.5c-5.6,6.1-9.7,17.6-19.3,13.1
				c-5.2-2.5-6.6-13.3-9.7-20.4C166.1,902.8,168.2,972.2,202.3,970.6z M234.4,1111.9c-9.9-45.5-18.6-81.8-23.1-126.6
				c-1.8-15.3-10.9,5.3-13.6-3.3c-5.7,1.1,1.5,28.2,1.7,33.8c3.7,19.5,9,38.8,11.5,58.4C212.8,1090.2,227.8,1095.4,234.4,1111.9
				L234.4,1111.9z M690.4,1169.3c2.2,2.1,3.5,5,5.3,7.5c16.7-23.3,27.8-50.2,48.2-71c1.3-1.3,1.1-5.5,4.2-3.7
				c0.8,0.4,0.1,5.1-1.2,7.1c-10.2,16.1-20.9,32-31.1,48.1c-5.2,8.1-13.1,16.3-13.8,24.9c-1.1,14,13.1,22.6,18.1,36.7
				c58.3-128.7,144.4-235.4,239.7-335.5c-80,46.6-148.7,110.2-208.5,180.4c-21,25.3-40.2,51.8-58.6,78.9
				C686.7,1151.3,680.2,1159.4,690.4,1169.3L690.4,1169.3z M688,1007.6c-2.4-4.2-10.5-1.2-14.3-7.3c-6.9,21.1-15.5,41.6-24.1,62
				c-7.3,16.1-7.2,32.9,6.6,45.1c7.7-29.6,16.8-58.8,28.4-87.1C686.2,1016.1,689.5,1010.3,688,1007.6z M518.8,738.9
				c-0.8,0.3-2.2-1-3.8-1.8c21.9,116.3,60.9,228.2,117.5,332.3c1.9,3.2,6.3,6.6,6.5,0.2c6.3-17.6,12.7-35.2,19.3-52.7
				c3.2-8.3,10.6-17,9.6-24.6c-1.5-11.1-5.9-21.5-3.3-33.5c2.9-13.3,4.6-26.8,13.4-38c0.9-1.1,1.1-3.9,0.4-5
				c-8.3-14.2-6.4-30.8-7.8-46.4c-10.4,5.9-19.7,13.5-29.6,20.1c-2.6,1.8-5,4.2-8.8,1.3c-26.7-27.2-50.7-57-75-86.5
				c-11.2-13.7-17-30-22.7-46.6C532,750.3,540.9,730.8,518.8,738.9z M718.6,949.6c-22.9,11.8-24.6-6-37.5-19c-0.9,0.2-1.6,0.9-2,1.8
				c-2.3,13-8.3,25.3-6.5,39c-0.2,12.1,7.3,34.6,22.8,22.3C709.3,982.7,715,965.3,718.6,949.6z M710.5,854.9
				c-1.4-3.3-1.5-12.2-9.9-6.5c-7.2,6.5-23,9.2-21.7,21.2c3.6,25.9,2.2,58.8,27.8,74.2C729.4,932.7,718.9,874.2,710.5,854.9z
				 M765.4,616.5c69.8,12.2,138,38.6,188.1,90.8c-21.7-48.5-44.3-101.2-92.3-129.2c-32.9-20.7-81.2-13.5-96.5,25.1
				C762.7,607.6,760,614.6,765.4,616.5z M754.4,633.6c23,5.3,47.8,5.6,71.1,12.8c28.3,7.5,53.4,21.1,80.2,32.5
				c-36.1-23.8-75.7-42.8-118.7-50.2C776.2,626,762.3,621.2,754.4,633.6z M727.7,662.6C703.4,709,743,769.3,795.4,766
				c56.3-1.2,109.5-21.3,164.7-29.8c-33.1-42-85.4-65.1-135.3-81.8c-25.4-6.8-50.9-10-76.3-12.1C735,642.7,731.2,654.4,727.7,662.6
				L727.7,662.6z M731,548.1c0.4,1.6,1,3.2,1.6,4.7c20.9-18.9,35.5-60.8,24.3-88.3c-7.4-17.8-22.2-22.7-31.9-10.1
				C709.5,482.8,727,518.3,731,548.1z M715.9,661.1c0.2,1.4,1.4,3,2.8,1.3c17.5-28.9,18.5-62.1,11.8-94.6
				C708.6,593.7,713.5,630,715.9,661.1L715.9,661.1z M693.1,693c-20.7,20.8-31.5,48.8-42.8,75.5c-13.6,33.5-15,69-15,104.6
				c0,2.5,1.5,5.1,2.3,7.7c34.5-27.1,75.2-46.1,106.2-77.5c42.3-48.7-31.5-34.1-33.6-109.2c0.9,2.5,0-0.6-0.2-0.6
				C704.3,694.6,698.3,687.7,693.1,693z M662.7,699c-23.3,39.3-39.7,85.5-33.6,131.8c-1.5-45.2,22.4-87.6,43.5-126.2
				c1.6-2.9,8.1-5.5,3.7-8.6C673,693.5,666.2,692.7,662.7,699L662.7,699z M659.2,593.8c1.1,2.8,2.9,0.3,3.3-0.8
				c8.2-23.1,20.5-45.1,18-71.2c-0.6-9-8.2-11.3-15.5-8.1c-16.1,7.6-14.9,23.3-18.1,35.8C648.2,565.8,653.5,579.8,659.2,593.8
				L659.2,593.8z M659.9,672.5c10.7-21,12.9-42.7,3.7-64.8C647.6,656.2,647.1,665.8,659.9,672.5L659.9,672.5z M625.9,659.5
				c6.1-0.2,12.3,3.1,18.8,4.9c-3.9-12.9-1-25.4,1.7-38.2c1.4-2.8-1.1-1.6-2.3-0.9c-10.2,5.7-16.3,15.3-22.6,24.5
				c-2.5,3.5-7.1,10.1,4.4,9.7L625.9,659.5z M555.7,683.3c-13.6,11.3-14.6,26.8-14.9,43.3c-1.8,62.1,47.8,99.3,84.2,143.9
				c-13.8-59.4-5.4-125.6,31-175c10.9-12.1,2.7-14.3-5.6-18.4c-12.3-6.2-25.1-10-39.1-10.3c-20.5-0.6-39.5,3.2-55.6,16.4
				L555.7,683.3z M586.4,589.3c-30,39.7-9.4,13.9,8.5,57.5C597.3,625.4,594.2,606.9,586.4,589.3L586.4,589.3z M562.1,608.6
				c22.8-26,32.2-54.2,26.2-90.7C570.8,547.1,555.1,573.4,562.1,608.6z M552.6,612.6c-20.6,6.7-39,17.1-53.6,33.5
				c-1,1.1-4.4-1-3.3,3.6c4.6,19.2,6.9,39,12.8,57.8c2.3,7.2-4.2,22.8,14.8,21.4c6.3,2.2,7.6-1.2,8-8.5
				c-2.1-33.6,26.2-56.6,56.7-61.3c3-0.7,2.8-0.6,1.9-3.7C588.8,645.5,562.2,609.3,552.6,612.6L552.6,612.6z M500.3,632.4
				c9.1-9.6,19.9-16.3,31.9-21.7c5.9-2.7,14.1-3.2,14.8-13.1c-1.4-11.4-49.1,21.3-53.8,26.5c-3.8,3.1-0.7,8.8,1.7,11.8
				S499.1,633.8,500.3,632.4L500.3,632.4z M479,532.7c4.9,27,4.6,55.9,12.2,81.9c15.2-12.1,32.4-21.4,50.8-27.7
				c6.2-2.2,10.8-3.2,7.2-12.6c-11-28.3-31.9-42.7-60-48C485.1,528.6,477.8,523.2,479,532.7z M268.6,818.7
				c-3.2-15.7-9.6-33.3-13.6-49.3c-3.2-12.3-3.1-26.3-9-37c-22-39.9-58.3-71.4-83.8-108.2c14.4,6,23.4,20.3,33.8,31.1
				c16.4,18.2,30.9,38.1,46,57c-2.4-10.6-4.8-21.3-7.1-32c-1.3-6-0.3-14.1-3.9-17.7c-58.3-59.6-120.1-110-192.6-153.1
				C138.7,600,203.1,710.7,268.6,818.7L268.6,818.7z M556.4,1291.3c-16,0.5-31.9,3-47.9,4.8c-2.9,0.3-4.4,1-3.8,5.1
				c7,53.2,3.9,104.9,4.4,158.7c12.3-55.6,30.5-105.2,49.3-158.2C558.9,1300.2,567.7,1291,556.4,1291.3L556.4,1291.3z M725.9,1262.7
				c1.3,0,7.1,1,3.6-4.5c-39.9-61.7-77.1-125.2-112.4-189.6c-53.7-96-87.1-201.3-110.9-308.3C486,663.4,464.8,566.3,461,467
				c-1.4-42.7-6.7-85.4-5.6-128.1c0.6-4.7,0.5-8.6-6.9-8.1c-9.6,0.7-19.3-0.3-29-0.8c-69.7-5.8-140.1-3.3-209.5-9
				c-1.8,0-3.1-0.1-2.8,2.6c0.9,8.6,1.2,17.2,2.1,25.8c9.7,98.8,18.8,197.9,32.1,296.2c24.9,136.1,63.9,270.2,114.5,398.7
				c33.9,80.8,79.4,156.3,131.3,226.7c5.3,7.8,8.7,14.9,21.2,12.3c16.6-3.5,33.8-3.6,50.7-5.5C614.6,1271.2,670.1,1264,725.9,1262.7
				L725.9,1262.7z M960.1,130.6c11-1.4,10.7-10.4,9.5-19.3c-1-7.8-5.8-9.1-12.5-8.7c-11.4,1.5-11.8,10.7-11.9,19
				C945.1,131.6,954.7,131.3,960.1,130.6z M957,1073.8c17.5,0.4,12.7-30.2-4.8-26.6C938.9,1048.4,936.8,1074.5,957,1073.8z
				 M954.8,1271.3c-13.4-2.2-21.8,26.1-3.4,27.5C971.3,1301,967.6,1271.5,954.8,1271.3L954.8,1271.3z M959,505
				c-0.4-7.4-2.8-13.1-11.6-12.1c-7-0.1-13.9,0.2-14.3,9.1C930.6,519.5,959.9,525.2,959,505z M937.5,835.4
				c18.4,1.5,24.5-27.9,4.8-28.2c-9.8-0.1-16,5-15.5,15C926.2,830.7,928.8,835.6,937.5,835.4z M934.4,1375.3
				c-20.9-0.8-18.4,28.7-0.5,27.3c6.5-0.6,16.4,0.1,15.2-11.9C948.3,1381.8,943.6,1375.1,934.4,1375.3z M932.8,563.3
				c-8.4-1.1-11.9,3.9-11.3,9.4c0.7,6.4-1.7,16.8,7.6,17.8C950,594,952.3,561.6,932.8,563.3L932.8,563.3z M932.5,401.5
				c-11.5-0.2-13.6,26.2-2,26.2c6.1-0.5,16.3,0.3,14.5-11.3C945.7,407,941.6,400.9,932.5,401.5L932.5,401.5z M926.8,1541.1
				c-10.2,0.2-8.1,10.4-8.4,15.1c-0.5,8.7,8.6,12.5,15.6,13c6.4,0.5,11.6-4.9,11-14.1C946,1542.8,936.9,1540.8,926.8,1541.1z
				 M943.9,1487.9c-0.3-8-3.8-14.1-13.5-15.2c-5.3,0.6-6.8,4.7-7.5,9.7C919.4,1496.7,945,1503.5,943.9,1487.9z M928.7,991.4
				c-8.8,0.7-13,7.8-12.4,16.5c0.8,11.7,10.8,11.2,19.6,13.7c9.7-4,7.3-13.4,6.7-20.4C941.9,994.6,934.5,990.9,928.7,991.4z
				 M926.4,203.1c18.6,1.6,22.7-33.9,1.4-30.1c-10-2-15.1,4.2-14.4,12.7C914.1,192.9,915,203,926.4,203.1z M923.4,60.5
				c21.6,3.3,23.3-24.5,6.6-23.8c-6.7,1.2-12.2,4.2-13,11.8C916.5,53.7,916,60.2,923.4,60.5L923.4,60.5z M905.5,259.5
				c13.8,1.3,15.6-27.6,1.4-26.6c-11,0.3-12.5,7.3-11.8,16.2C893.4,257.5,899,259.6,905.5,259.5L905.5,259.5z M890.1,1439.2
				c-12.7-3.4-10.6,7.4-10.7,13.5c-0.2,6.5,2.2,13.1,11.6,13.1C909.8,1466.3,909.6,1434.7,890.1,1439.2z M874,332.5
				c0.2,7.7,5,10.7,12,10.8c6.5,0.1,13.9-1,12.5-9.1c-1.2-7.4-1-18.3-13-18.3C874.7,315.8,875.2,325.2,874,332.5z M893,1363.3
				c0.6-7.5-2.5-11.7-10.5-10c-15.8-4.9-14,23.5-3.3,23.3C886,1376.7,892.4,1371.6,893,1363.3z M864.1,1083.4
				c-2.6,17.2,27.5,24.5,25.5,4.1C890.5,1073.4,865.4,1069.5,864.1,1083.4z M880,1577c-7.5-0.3-12.1,3.8-11.7,10.9
				c0.3,5.3,0.8,12.7,9,11.2C892.3,1601.6,893.3,1577.3,880,1577z M874.5,461c-12.1,0-12.4,8.5-11.9,17.2c0.5,7.4,5.6,9.2,13.5,9
				C891.5,488.3,894.3,459.7,874.5,461L874.5,461z M867.5,805.5c-10.8-1-11.2,25.2,7.4,23.6c10.1-0.2,6.6-8.5,8.3-13.2
				C883.4,803.4,873.3,805.8,867.5,805.5L867.5,805.5z M867.3,110.9c17.9,3.5,16.9-26.7,0.9-25.4c-5.5,0.3-13.1,2.8-11.2,11.6
				C856.2,105.1,859.6,110.4,867.3,110.9L867.3,110.9z M866.8,40.7c15.2,0.8,16.5-24.9-0.7-22.8C852.7,17.9,854.7,40.7,866.8,40.7
				L866.8,40.7z M869.2,1514c0.5-14.9-24.2-10.2-22,2.5c0.7,5.6,3.6,10.6,8.2,9.9C865.7,1525.6,869.5,1522.1,869.2,1514z M847,168.8
				c7.8,0.1,15.3-2.8,14.9-12.8c-0.3-6.2-0.7-13.1-9.9-13.7c-10.3-0.7-14.4,3.8-12.8,13.6C837.7,162.8,839.4,168.7,847,168.8z
				 M840.8,1153.1c-8.2,0.3-18.2-0.2-17.4,12.3c0.7,11.4,9.5,15.2,19.1,15.4c7.6,0.2,6.9-7.6,9.4-13.3
				C848.2,1162.6,851.3,1152.7,840.8,1153.1L840.8,1153.1z M827.2,290.5c8.5,1.9,13.8-3.2,14-13s-6.7-10.6-12.8-12.9
				C806.1,264.6,810,286.4,827.2,290.5z M801.5,1323.5c12.6-17.8,23.6-36.8,36.9-54c-4.2-9.6-25.9,25.1-29.2,29.1
				c-60.9,87.7-112.3,192.8-112.5,301.5c0.1,3.1,1.7,3,4,3.4c2,1.2,2.1-0.3,2.3-1.7c0.6-3.3,2-6.6,1.9-9.9
				C710.6,1495.4,749.7,1403.9,801.5,1323.5z M808.3,876c0.3,16.1,23.5,16.5,23.9,0.6C833.1,860,807.4,857.1,808.3,876z M814,1561.3
				c-14.7-2-15.9,27.1,1.1,23.6c10.8,3,10.8-6.3,11.8-12.7C828.2,1563.1,820,1561.4,814,1561.3L814,1561.3z M801.4,822.4
				c0.3-6.4-2.6-12.3-9.2-11.7c-11.2-0.6-11.6,7-11.9,12.5C778.5,840.2,801.9,837.8,801.4,822.4z M774.3,136.2
				c-2.3,20.7,26.3,15.4,23.7-1.2C799.4,117.2,772.3,122.1,774.3,136.2z M782,366.3c11.9,0.2,12.7-27.6-0.5-26.9
				c-7.2,0.4-16.1,2.2-14.5,14.2C764.2,365.8,775.5,366.1,782,366.3z M778.9,943.1c6.5-0.1,11.5-3.4,11.8-9.9
				c2-14.2-23.2-17.3-19.8-1.8C770.8,937.6,771,943.2,778.9,943.1L778.9,943.1z M778.5,83c12.9,0.9,11.3-24-1.5-22.3
				c-8.6-0.3-12.1,3.7-12.1,11.2C764.9,80.7,771.5,82.7,778.5,83z M772.8,231.3c9.5,0.1,9.8-7.4,10.5-12.8
				c1.4-10-6.6-13.4-14.3-14.3C754.7,203,754.8,230.8,772.8,231.3L772.8,231.3z M737.1,268.3c-1.5,8.2,2.3,12.5,9.8,12.7
				c4.4,0.1,11.3,3.3,12.2-5.4c1-9.4-1.3-17.3-12.1-18.3C740,256.5,735.4,260.3,737.1,268.3L737.1,268.3z M738.5,33
				c14.4,2.1,11.8-8.2,11.4-16.3c-0.5-10.4-8.7-8.2-15.1-8c-10.7,0.4-8.7,9.9-9.3,15.7C724.6,32.8,731.6,33.8,738.5,33L738.5,33z
				 M727,123.1c11.3,2.2,12.3-7,11.6-14.9c-0.5-6-7.6-10.3-12.7-10.6C708.4,95.5,706.6,125.4,727,123.1z M720.5,199.2
				c9.1-1.8,7.5-8.9,7.2-14.7c-0.3-6.8-5.5-8-11.9-7.4C699.5,172.4,703.4,204.8,720.5,199.2L720.5,199.2z M708.2,405.4
				c5.3,0.4,10-1.6,9.5-7.5c-0.6-8.4,0-18.8-13.3-16.9C683.5,379.6,686.2,406.2,708.2,405.4z M667.5,159.7
				c7.1-0.5,10.5-5.1,9.5-12.5c1.5-10-5.3-12.8-12.8-12.9C646.3,134.3,650.3,162.2,667.5,159.7z M666.7,61.4c9.8-2,9.4-9.7,9.8-15.6
				c0.3-4.8-5.9-7.7-10.6-8c-7.1-0.5-12.3,2.9-12.7,8.8C653.5,57.3,654.8,63.8,666.7,61.4z M634.5,239c23.6,2.4,15.1-30.4-1-27.9
				c-6.6-0.3-10.7,4.8-9.3,10.6C625.8,228.1,625.4,237.6,634.5,239z M579.3,102.4c-2.4,16,29.7,21.4,25.9,5.6
				c-0.2-9.4,0.2-17-11.4-17.3C584.8,90.5,579.3,94.4,579.3,102.4z M585.8,34.3c7.6-0.3,14.2-0.5,14.1-9c0-9.3-3.3-16.8-14.2-17.2
				c-7.9-0.3-13.2,3.2-13,11.6C573,28.4,575.3,36.2,585.8,34.3L585.8,34.3z M541.1,177c11.3,2.3,12.5-6.5,12.7-14.1
				c0.2-8.5-2.7-16.8-13.8-15.8s-10.8,10.1-11.4,18.2C528,173.8,531.9,177.9,541.1,177z M538,74.5c5.7-0.7,14.3-1.8,14-10.8
				c-0.2-5.9,0-13.8-9.8-12.8C528.6,48.1,526.2,74.8,538,74.5z M458.2,97.4c-0.7,19.2,28.6,26.5,26.8,3
				C489.4,84,455.8,81.9,458.2,97.4L458.2,97.4z M443.7,47c8-0.5,16.3-1.2,15.3-13c0.7-6.3-1.3-10.9-8.7-11.1
				c-10.2-0.3-12.5,7-13.3,14.8C436.6,42.1,437.1,47.4,443.7,47z M443,181.7c14.1-3.5,8.5-31.3-6.7-29.4
				C417.7,150.9,423.9,184.5,443,181.7z M374.5,101.2c-0.1,6.2,1.7,13.7,11.4,11.8c8.6,1.5,13.7-3.6,13.5-10.7
				c-0.3-7.5,3.2-19-11.4-19.4C374,82.5,374.6,92.7,374.5,101.2L374.5,101.2z M380.2,39c9.9,0.5,12.3-5.7,11.8-12.2
				s-6.7-7.6-12.4-7.8c-8.2-0.2-10,5.9-10.5,12C368.2,40.5,376.9,36.8,380.2,39z M349.1,1552.7c0.9-75.6-9.1-151.4-33.4-223.2
				c-7.5-26-17-51.2-26.5-76.3c-12.5-29-21.5-62.7-42.5-86.6c63.3,155.5,102.6,260.8,96.2,433.4c-1.1,5.9,7.6,6.5,6.1,0
				C352,1584.1,349.9,1568.6,349.1,1552.7z M321.7,90.4c13.1,1.6,16.6-24.6-4.5-25.6c-7.8,0.2-12.5,2.5-12.3,10.4
				C305.2,86,314.8,89.3,321.7,90.4z M275,33c17.9,2.3,17.2-25,0.6-21.9c-9.4-2-9.1,5.5-9.4,10.9S268,32.9,275,33z M270.5,143.3
				c17.7-2.1,15-30.6-2.2-31.9c-7.3-0.5-14.7,3.8-13.1,12.9C256.6,132.3,256.5,142.8,270.5,143.3L270.5,143.3z M256,248.6
				c9,0.5,17.1-3.7,15.8-15c-0.6-5.8-1.5-12.8-11.1-12.8c-7.2,0.9-13.6,4.6-12.3,13.4C249.2,239.3,248.6,248.2,256,248.6z
				 M221.6,1441.8c-41.9-69-107.6-134.1-185.6-155.2c-3.9,2.1,10.8,10.8,12.5,12.8c56.7,52,87.3,127.1,107.1,200
				c7.9,32.4,10.9,65.3,15.5,98.2c0.1,2.5,3.3,4.8,5.2,2.5l0,0c-0.1-104.6-38.7-207.4-102.7-290.3
				c86.8,48.4,154.2,131.1,178.1,227.9c4,18.4,7.6,36.7,7.6,55.6c0,3.6,2.5,7.2,3.7,10.6C278.9,1560.4,243.6,1481.1,221.6,1441.8
				L221.6,1441.8z M226,76.7c11.2-1.4,11-12.3,10.6-20.4c-0.4-7.3-5.7-11.8-14.1-9c-13.9-3.4-14.6,7.5-15.1,15.9
				C206.5,75.7,217.1,77.8,226,76.7z M219.8,1554.8c-10.6-50.8-23.9-102.1-56.1-144c-1.4-2.1-3.3-4-4.8-2.9
				c-1.9,1.4,0.4,3.5,1.4,5.3c16.6,26.9,27.8,56.4,37.5,86.5c4.5,15.3,9.5,30.8,12.8,46.3c3.4,16.3,3.3,33.3,4.4,50
				c0.2,3.2,2.4,4.2,4.7,4.5c2.8,0.3,1.5-2.7,1.4-4.2C220.7,1582.6,222.4,1568.7,219.8,1554.8L219.8,1554.8z M189.9,164.7
				c15.9,2.4,18.3-27.1,2.1-27.6c-6.3-0.1-12.2,1.7-13.5,10.4C181.9,153.2,180.1,163.8,189.9,164.7z M170.6,540.4
				c9.8-0.6,11.6-10.6,12.3-18.8c0.6-7.3-6-10.6-11.4-9.9c-8.7,1.1-16.2,5.6-17,20.8C153.3,540.7,164.3,540.8,170.6,540.4z
				 M164.3,73.1c11.3,0.7,10.8-8.1,10.1-14.5C173.8,52,170,45.7,161,47.1C144.6,43.8,149.9,74.5,164.3,73.1z M139.8,259.3
				c2,6,1.2,16.6,10.4,17.4c9.8,0.9,11.9-7.5,12.9-14C165.9,244.1,135.9,242.8,139.8,259.3z M141,340.9
				c-14.4,0.3-12.6,27.5,1.5,27.2C161.1,369.6,160.1,337.7,141,340.9z M144.1,743c14.6,0.4,14.4-27.5-3.1-26.2
				C124.4,715.8,125.5,745.4,144.1,743z M132.9,191.3c12.7-1.7,8-22.8-3.9-24.1c-9.1-1.2-9.4,7.3-9.7,12.8
				C119,186.2,121.4,192.4,132.9,191.3z M113.9,496.1c11.4,0.6,17.6-4.2,17-15.8c-0.5-8.8-3.1-16.6-15.1-17.9
				c-14.3,2-9.3,14.5-10.4,23C104.9,489.8,106.7,495.8,113.9,496.1L113.9,496.1z M115.2,1568.8c-6.9,0.4-12.8,3.8-11.8,10.3
				c1.1,6.9-2,18.9,13.6,18c13,3,12.8-9.1,13.4-17.1C131.2,1570.9,123.8,1568.3,115.2,1568.8L115.2,1568.8z M101.4,790.2
				c-1.7,14.8,7.4,17.8,14,18.2c6.3,0.3,8.5-8,8.2-14.1C124.8,779.8,103.8,779.7,101.4,790.2z M97.1,96.4c-4.8,21,25.7,25.6,24,4.7
				C124.4,85.1,98.5,81.5,97.1,96.4z M100.8,677.8c-9.9,0.6-9.6,7.7-10.2,17.5c-0.8,4.8,2,11,10,11.5
				C121.7,709.8,122.6,675.8,100.8,677.8z M106.6,386.6c-2.2-18.1-27.9-18.5-22.6,5.6c0.7,6.8,4.5,9.3,11.4,8.8
				C105.9,401.9,107.4,395.5,106.6,386.6z M91.1,38.8c17.2-0.8,15.6-25.9-2.3-26.3c-5,2.1-11,4.2-10.7,11.8
				C78.4,32.4,82.3,38.8,91.1,38.8z M95.9,1089.6c-0.7-5.3-2.1-11.5-10.5-10.6c-10-1.1-11.6,7.3-12,14
				C72.5,1112.2,99,1107.6,95.9,1089.6z M65.1,1501.9c-16-0.8-16.2,26.2-0.8,27.3C83.1,1530.5,83.6,1500.7,65.1,1501.9z M48.2,304.7
				c-1.6,23.3,31.9,21.9,29.5,8.3c-1-12.9-3.3-21.4-12.8-21.6C57.3,291.3,48.3,294.4,48.2,304.7z M62.2,647
				c8.8-1.6,10.5-8.2,10.8-13c0-13.7-2.5-16.7-10.6-17.2c-10.8-0.7-15.5,5.2-15.3,14.8C47.3,641,49.7,649.3,62.2,647L62.2,647z
				 M46.6,212.7c0.4,7.5-0.3,17,11.1,18.4c10.2,1.3,11-5.7,11.7-15.2C73.8,204.3,46.5,201.1,46.6,212.7z M40.3,880.5
				c0.8,7.4-0.8,17.3,8.1,18.6c11.1,0.2,19.2-6.1,18.4-12.8C67.4,871,40.2,862,40.3,880.5z M49.4,414.2c-6-0.1-10.5,6.3-9.9,10.7
				c1.1,8,0.2,18.9,12.4,20.4C74.8,446.6,69.4,412,49.4,414.2z M43.4,776.7c0.5,6.8,3,14.4,12.5,14.3c6.2,0,11.1-4.1,10.6-9.3
				c-0.6-7.6-1-17.5-12.5-16.7C44.5,764.2,43,771.5,43.4,776.7L43.4,776.7z M26.8,140.5c1,8.6,8,13.3,15,14c8.2,0.9,7.5-8,7.9-13.4
				c0.6-6.4-2.4-11.9-10.1-11C33.9,130.9,24.9,128.8,26.8,140.5z M32.3,1042.5c5.5-0.9,16.2,1.3,15-8.2c-0.2-13.6-8-16.3-16.6-15.8
				C18.7,1018.7,22,1043.5,32.3,1042.5L32.3,1042.5z M28.9,1442.2c-11.8-0.9-9.4,9.1-9.3,15c0.1,6.6,4.7,11.4,11.7,10
				c9.8,0.5,13.6-4.2,13.9-12.5C45.6,1442.8,36.6,1442.7,28.9,1442.2L28.9,1442.2z M30.1,589.2c8.4-0.4,9-6.3,8.9-12.3
				c-0.2-9-1.9-17.2-14.8-15.8c-10.8-2.7-12,6.3-11.8,13.2C12.6,584.6,19.4,589.6,30.1,589.2L30.1,589.2z M25,1563.3
				c-16.7-1.8-17.9,33.8,4.5,28.7C45.7,1590.9,37.6,1562.7,25,1563.3z M18.1,716.4c14.7,0.4,25.6-28.7,7.4-32.1
				C13.8,683.5,7.9,690.2,9,702C8.1,709.6,11.4,717.2,18.1,716.4z M7.1,838.7c0.9,7.7,0.2,17.5,11.7,18.2
				c9.1,0.5,12.6-5.3,12.4-14.9C34.4,825.8,4.7,820,7.1,838.7z M22.2,343.2c-19.1-1.4-21.7,32.8-1.8,29.1
				C32.3,372.6,36.9,343.1,22.2,343.2z M19.2,87.2c13.7,1,10.4-10.2,11.5-16.9C34.4,50.5,5,58.6,5.2,74C4.5,83,11.3,86.3,19.2,87.2
				L19.2,87.2z M26.1,1099c1.6-18.3-25.1-21.5-23.3-6.6C0.9,1107.8,25.2,1113.5,26.1,1099z"/>
		</g>
	</g>
</g>
<g>
	<g id="Layer_1_2_">
		<g transform="matrix( 1, 0, 0, 1, 0,0) ">
			<g>
				<g id="Layer0_0_FILL_1_">
					<path d="M52,1548v15l-37,37h946l-37-37v-15H52 M52,52V37.7L14.3,0H0v1600h15l37-37v-15V52 M924,52V37.7L961.7,0H14.3L52,37.7
						V52H924 M976,0h-14.3L924,37.7V52v1496v15l37,37h15V0z"/>
				</g>
			</g>
			<g>
				<path id="Layer0_0_1_STROKES_1_" class="st6" d="M961,1600h15V0h-14.3L924,37.7V52v1496v15L961,1600H15H0V0h14.3h947.4 M52,52
					V37.7L14.3,0 M15,1600l37-37v-15V52h872 M924,1548H52"/>
			</g>
		</g>
	</g>
</g>
</svg>
