<?xml version="1.0" encoding="UTF-8" standalone="no"?>
<svg
   viewBox="0 0 976 1600"
   version="1.1"
   id="svg12"
   sodipodi:docname="Hanafuda_May_Tane_Alt.svg"
   inkscape:version="1.4.2 (f4327f4, 2025-05-13)"
   xmlns:inkscape="http://www.inkscape.org/namespaces/inkscape"
   xmlns:sodipodi="http://sodipodi.sourceforge.net/DTD/sodipodi-0.dtd"
   xmlns:xlink="http://www.w3.org/1999/xlink"
   xmlns="http://www.w3.org/2000/svg"
   xmlns:svg="http://www.w3.org/2000/svg">
  <defs
     id="defs12" />
  <sodipodi:namedview
     id="namedview12"
     pagecolor="#ffffff"
     bordercolor="#000000"
     borderopacity="0.25"
     inkscape:showpageshadow="2"
     inkscape:pageopacity="0.0"
     inkscape:pagecheckerboard="0"
     inkscape:deskcolor="#d1d1d1"
     inkscape:zoom="0.37609242"
     inkscape:cx="906.69203"
     inkscape:cy="740.50948"
     inkscape:window-width="1920"
     inkscape:window-height="1111"
     inkscape:window-x="-9"
     inkscape:window-y="-9"
     inkscape:window-maximized="1"
     inkscape:current-layer="g7" />
  <style
     type="text/css"
     id="style1">
	.st0{fill:#FFFFFF;}
	.st1{clip-path:url(#SVGID_2_);}
	.st2{fill:#5D4E8C;}
	.st3{fill:#80E3ED;}
	.st4{fill:#333333;}
	.st5{fill:#FFEB5C;}
	.st6{fill:#D81E1E;}
	.st7{fill:none;stroke:#333333;stroke-width:2;stroke-linecap:square;stroke-miterlimit:3;}
</style>
  <g
     id="Paper_Backing">
    <path
       class="st0"
       d="M960,22v1556c0,3.3-2.7,6-6,6H22c-3.3,0-6-2.7-6-6V22c0-3.3,2.7-6,6-6h932C957.3,16,960,18.7,960,22z"
       id="path1" />
  </g>
  <g
     id="Wikipedia_Cropped">
    <g
       id="g8">
      <defs
         id="defs1">
        <path
           id="SVGID_1_"
           d="M960,22v1556c0,3.3-2.7,6-6,6H22c-3.3,0-6-2.7-6-6V22c0-3.3,2.7-6,6-6h932C957.3,16,960,18.7,960,22z" />
      </defs>
      <clipPath
         id="SVGID_2_">
        <use
           xlink:href="#SVGID_1_"
           style="overflow:visible;"
           id="use1" />
      </clipPath>
      <g
         class="st1"
         clip-path="url(#SVGID_2_)"
         id="g7">
        <path
           class="st2"
           d="M436.9,890.2c-5.1-3.1-8.5-5.2-14.2-1.6c-15.4-15.4-29.1-34.6-45.9-47.5c-30.9-24-57.1-53.2-76.5-86.7     c-22,10.2-45.3,18-73.1,14.4c-21.2-0.9-165.3-36.6-117.6-64.1c6.9-3.3,20.8-8.2,11.6-16.1c-1.9-14.1,13.9-28.1,15.4-44     c11.3-66.3,89.5-89.5,136.1-46.3c13.8,13.7,33.7,46.3-4.3,37.5c-31.4,3.3-78.8,7.3-95.6,33.4c1.2,2.9,4.5,4.4,7.5,3.4     c39.8-12.2,76.8-20.2,119.1-13.3c16.2,3.2,3,29,16.5,32.4c99.5-78.5,107.3,98.6,110.6,162.9c23,29.7,18.4-87.9,12.4-102.7     c-5-31.2-21.2-59.1-35.8-85c21.1-17.1,51.6-17.6,75.1-10.2c18,1.9-4.7-37.1,6-45.7c42-22.8,100.3,10.3,144.1,24.9     c28.2-13.5-84.5-59-97.9-60.8c-5.4-2.8-23.2,5-20.6-6.1c38.5-60.9,139.2-50,177,13.3c21,38.9,29.9,83.9,47.1,122.5     c-14.8,40.5-136.4,40.8-173.4,22.9c-11.2-0.5-32.6-27.5-38.2-10.8C518.8,783.1,475.7,840.3,436.9,890.2z M440.3,522.8     c-59.4-57.4,4.4-141.3,12.9-53C448,485.7,454.1,512.3,440.3,522.8L440.3,522.8z M489.8,521.8c-2.1-0.1-3.8-1.7-4.1-3.7l0,0.2     c-9-121,95.8-85.7,6.5,2.9C491.5,521.5,490.7,521.7,489.8,521.8L489.8,521.8z M306,521.4c-27.7-21-31.5-97.2,11.6-93.2     C342.7,445,321,504.2,306,521.4z"
           id="path2" />
        <path
           class="st3"
           d="M704.4,1604c-5.3,0.1-5.6-9.8-0.5-10.4c13.3-17.3,2.6-50.3,8.4-72.9c5-39.4,2.6-76,8-114.4     c2.8-5.2-4.3-8.7-0.3-14.2c3.3-5.4-1.7-10.1,2.8-16.2c3-9.2-4.1-20.2,0.9-30.5c-7.3-23.2-1.3-11.3,16.4-27.5     c19.6-12.3,37.2-22.8,55.6-37.6c10.3-14.5,29.6-4.4,33.2-21.3c14.1-10.9,28.9-19.1,45.2-26.2c1.1-5.8,0-13.1,2.3-18.5     c7.7-19.4,81,2,99.7-10.4c7.9-0.3,2.8,24.7,3.7,28.7c0.5,21.1,0.4,53.4,0.2,74.9c0.5,24.1-0.2,276.6,0.1,292.6     C980.8,1611.3,708.4,1600.2,704.4,1604z M339.9,1604c-16.3-9.5,59.7-45.2,65.9-53.7c29.3-13.6,51.5-44.4,84.2-54     c15.4-21.2,45.2-32.6,65.4-46.6c2.4-5,35-33.9,30.4-15c2.2,10.5-5.4,16.1-3.7,24.2c1.8,1.7,2.7,12.5,1.5,17     c-1.7,6.5,2.1,10.9-2.6,18c-3.9,5.2,4.7,15,1.6,19.6c0.5,13.2-8,24.2-2.1,34.9c1.5,15.6-4.9,33.8,4.2,46.7     C597.9,1616.7,342.1,1598.1,339.9,1604L339.9,1604z M0,1527.2c-4.7,12.6-14-367.6,7.8-294.4c28.9,20.3,64.4,30.5,89.2,53.2     c16.5,2,38.5,11.6,31.8,30.4c-1.7,4.6-2.3,8.3,1.4,12c5.7,11.7,0.4,24,3.3,35.4c2.7,22.3,5.6,48.6,3.9,71.2     c-24.6,9.3-44,40.2-73.4,42.2c-7.4,0.7-3.4,9.5-9.2,12.5C35.3,1500.2,16.9,1512.8,0,1527.2z"
           id="path3" />
        <path
           class="st4"
           d="M454.7,1213.3c-84.4-42.6-168.7-90.1-252-131c-11.5-4.3-22.1-9.5-16.1-24.8c1.4-21.7-2.7-42.7-4.7-64     c-12.2-84.3-38.6-163-88.3-229.8c-19-28.3-46.5-53-68.8-70.6c3.6-34.4,133,79.9,146.3,99c67,70.7,86.9,151.8,118,226.6     c10.7-3.8,3.6-23.5,5.1-30.2c-2.8-52.4-9.2-104.6-19-156.3c-5.6-64.7-34.1-50.8,21.5-78.1c14.8,17.8,23.2,41.9,44.7,60.7     c18.4,10.7,8,192.7,29.2,153.8c5.6-37.9,1.2-76.8,7.3-114.3c8.3-11.3,37.3,32,45.9,41.9c29.8,12.8,58.5-125.1,59.7,6.5     c18.7,28,14.9-62.2,18.7-73.2c6.2-26.9,12.8-53.5,19.1-80.5c9.6-71.6,21.9,0,108.8-8.9c28.1-2.9,5.8,23.2,7,38.6     c-5.8,29.7-9.2,63.5-14,94.8c-3.4,14-3.6,239.2,23.3,200.9c8-78.6,19.1-208.8,72.8-260.2c16.4-5.7,43.2,6,56.4,14.2     c64.4-25.9,97.7,62.8,108.8,112.2c12.2,60.1,17.6,126.9,9.5,188.5c-8,14-33.7-71.6-42.1-78.1c-26.4-41.6-43-95.7-75.6-130.8     c-13.1,7.5-9.1,30.4-15,43.6c-9.7,50.3-17.6,110.5-13.5,163.4c6.4,29.8-52.6-10.2-66.6-9.1c-57-38.4-77.3,47.2-91.5,0.6     c-5.3-9.5-3.4-28.4-14.4-32.6c-19.2,3.7-39.8-6.5-63.2-3.1c-20.2-12-12.6,1.2-28.8,7.2C453.2,1101.6,480.5,1198.9,454.7,1213.3z      M387.9,672.4c-14.6,0.7-20-13-19.8-22.2c-1.7-8.3-6.9-24.2-0.9-31.3c14.7,8.6,21.5,26.5,38.5,33.3     C420.9,659,396.5,671.7,387.9,672.4z M444,650.9c-12.5-2.7-9.4-10.5-2.3-16.3c4.5-13.8,14.4-37.6,17.9-7.3     C462.2,642.6,469,653.8,444,650.9z M282.3,604.8c-24.6-23.8-52.2-36.1-87.1-28.1c-12.3,0.2-32.1-60.6-45.7-73     c-32.7-54.8-74.3-110.9-126.3-150c33.6-9.9,127.5,71.1,157.2,97.8C205.7,477.3,307.2,572.9,282.3,604.8z M407,597.6     c-53.7-52.4-48.3-6.1-56.1-33.8c-6.5-37.3-26.2-74.1-19.9-112.3c0.3-11.2-1.7-19.9-12.7-26c-15.5-33.8-22.2-76.1-37.9-110.3     c-3.5-55.6-164.5-262.3-26.7-132.2c64.3,69.9,116.4,150.1,154.2,237.2c15.9,23.9-3.6,48.5,12,72.6c6.7,16.6,32.1,34.7,11.8,51     C417.3,557.3,424.9,594.6,407,597.6z M697.8,589.9c-16.8-12.8-26-37.1-44.1-46.3c-12.4-2.4-34.7-10.3-43.3-17.8     c37-87.4,121.1-152.8,209.1-184.6c10-11.4,181-29.8,132-7.5C832.8,376.7,754.3,483.5,697.8,589.9L697.8,589.9z"
           id="path4" />
        <path
           class="st5"
           d="M580.6,1604c-2.1-252.6,67.3-214.5-201.2-46.8c-13.1,8-23.3,20.5-37.4,18.9c-2.8,13.1-16.3,18.2-27.7,26.9     c-39.8,2.6-183,1.6-225.5-0.2c-6.2-3-88,8.2-92.7-2.8c3.4-3.7-5.9-82.8,4-80.8c9.5,4.9,15.4-1.9,23.1-7.2     c143-101.5,120.6-33.5,106-215.8c0.3-10.1-47.7-25.3-62.5-36.3c-21.7-7.1-43.4-33.9-65.6-28.1c-10.2-0.8-7.7-252.5-1-255.3     c140.6,78.6,289.3,149.5,435.4,226.5c8.8,2.8,29,21.5,29.3,2.4c2.6-30.6,3-64.8,8.1-94c4.2-3.8,9-2.4,14.9,0     c26.8,11.2,54.3,10.1,82.4,0.3c12.3-3.4,5.4,15.3,6.1,21.9c-3,30.3,37-10.6,48.5-14.7c26.8-27.4,88.1,15.8,120.9,24.9     c40.3,13.2,81.9,27.8,123.4,42c12.2,15.3,12.4,40.4-10.6,48.5c-27.3,16.6-52.4,34-77,50.9c-35.7,20.1-66.1,62.6-101,30.6     c-20.9,6.7-39-1.8-62.2,3.5c-53.3,9.2,2.1,32.2,23.1,32c19.2,2.4,43.6,4.8,62.7,0c6.4-3.6,13,2.6,11.2,8.5     c-8.5,67-7,137.3-12.3,204.9c3.2,8.7-7.9,24.3,2.5,29c3,0.4,3.4,4,3.2,6.4C709.3,1610.8,584.5,1600.6,580.6,1604z M225.1,1225.7     c-56.4-5.9-163.5,51.9-46.3,58.5c37.5,3.6,63.2-15.8,91.4-19c14.6,6.2,9.9-19.9,5.1-26.1c-2.5-4.1,3.5-10.8-2.9-13.5     c-3.6-2.2-9-4.7-11.9,0C250.4,1230.3,235.6,1224.2,225.1,1225.7L225.1,1225.7z M434.2,844.8c-12.2-8.2-5.6-30.8-10-44     c-3.7-40.5-14.3-82.3-33-117.6c5.6-37.2,36.2,23.2,37,36.3C438.8,752.9,452.2,816.7,434.2,844.8z M167.2,676.9     c-25.6-5.9,39.3-27.7,46.1-30.7c28-11.9,55.8-2.9,80.8-12.5c-10.8-37-7.5-77.4,13.3-110c24.5,1.7,15,76.3,2,93.5     c-23.1,32.7-7.4,9.6-7.9,39.9C256.8,656.3,209.5,659.1,167.2,676.9L167.2,676.9z M421.9,655.2c-33.5-1.5-77.2-63.7-52.8-84     c20.5,4.7,29.1,32.7,45.8,35.9c8.3-7.5,2.5-23.7,6.2-34c1.5-12,17.9-54.9,27.4-44.2C462.3,580.7,450.6,627.8,421.9,655.2z      M630.4,637.2c-44.3-22.1-91.9-37.3-140.7-38.6c-32.4,17.9-16.5-57.3-2.3-69.3c21.5-5.4,2.9,50.3,16,49.3     C522.3,562.5,648.9,623.9,630.4,637.2L630.4,637.2z"
           id="path5" />
        <path
           id="path12"
           style="fill:#ff970d;fill-opacity:1"
           d="m 127.37955,1273.7955 12.69096,160.7521 141.01057,-92.1269 -6.11046,-85.0764 z m 467.21505,56.8743 -13.16099,222.7967 124.55934,-2.8202 13.63102,-205.4054 z m -129.94817,-108.8956 7.31203,-118.6544 106.02447,3.656 -3.98838,44.2046 z" />
        <path
           class="st6"
           d="M684.7,1353c-16.4,3.5-117.9-10.1-74.5-29.4C638.8,1308.4,782.3,1338.8,684.7,1353z M178.2,1282.2     c-133.2-11,41.8-79.5,89-46.6C300.7,1268,200.4,1283.7,178.2,1282.2L178.2,1282.2z M531.8,1117.3c-15.4-1.9-53.7,1.2-56.3-17.7     C503.9,1059.7,659.3,1106.3,531.8,1117.3z M887.8,292.3c-19.7,0.2-40.8-8.1-50.5-24.3c-15.1-8.7-39.4,36.8-70.9-3.7     c-80.9,50.3-71.3-19.6-96.7,6.8c-36.9,27.4-102.7,28.7-123.5-20.9c-32.7,8.1-66.3,17.2-91.3-10.4c-26.5-28.5-3-69.1,22.1-82.8     c8.1-6.5,12.5-2.6,20.7-2.1c4.7-3.9,13.4-14.3,8.4-20.4C456.5,36,447.9,93.2,415,47.7c-6.3-14.7,2.8-30.9,4-47.7c0-2.2,1.8-4,4-4     h36.3c9-0.3,506.9,0.2,516.7,0c11.3-0.8,0.3,220,4,224c-0.3,6.5-9.8,1.7-11.2,8c-13.9,32.5-39.2,62.2-81,64.4L887.8,292.3z      M166.4,100.2c-27.5,1.4-43.9-21.9-57.4-39.5c-17.6,11.2-39.3,14.2-60.7,6.9C31.7,66.4,17.9,43,0,42.9C-8.4,44.3-2.1,3.3-4,0     c0-2.2,1.8-4,4-4c3.6,2.6,319-5.1,319.9,2.7c2.9,40.3-38.8,87.8-79.4,64.6c-14.3,8.5-25.6,30.8-47.6,23.6     C184.6,91.8,179.9,102.3,166.4,100.2z"
           id="path6" />
        <path
           d="M977.3,323c-11-6.3-24-5.5-35.5-5.5c-130.1-6.4-254.8,67.6-321.3,178c-9.7,14.4-15.3,33.6-39.8,27.9     c-32,2.9-62.4,15.1-78.8,49.2c2.9-15,3-26-0.8-36.8c-1.4-3.9-7.4-8-4.1-11.3c20.1-19.4,36-45.7,37.4-73.9     c-0.3-22-30.6-19.4-39.2-3.8c-12.8,20.7-18.4,43.4-14.3,67.9c0.8,4.5,3.4,10.5,1.5,13.1c-8.5,14.8-16.2,31.6-17.3,48.4     c-0.4,21.7,16.2,40.1,11.9,62.3c-1.1,3.5,4,10,3.3,11.7c-2.4,2.2-5.4-1-8.2-1.1c-4-0.2-2.6-2.8-3-4.8c-1.6-8.1-3.3-16.2-5-24.2     c-2.2-10.4-6.6-20.9-6-31.2c0.8-15.5,2-31-0.9-46.5c-1.5-8-7.9-16.5-7-22.8c3.2-21.9,10.5-42.9,7.3-65.8     c-2.3-16.2-16.4-36.3-36.1-23.8c-1.5,1-3.2,2.1-4.2-0.8c-38.4-94.5-130.3-244.7-219.7-294.8c-2.9-1.6-5.9-6.4-9.2-1.5     c-2.5,3.8-0.4,8.1,1.8,11.6c56.8,83.4,92.2,179,120.3,275.4c-20.3,6.6-33.2,31.6-32.7,52c1.4,17.6,9.3,33.5,20.2,47.7     c1,1.3,5.6,1.2,3.7,5.9c-4.4,11.1-13.6,20.3-13.1,33.4c-1.2,12.5-9.7,3.7-12.9-3.1c-64-89.8-148.1-172.7-252.6-212.5     c-4.4-1.4-11.4-4.3-14.1,0.5c-3.7,6,3.2,9.2,8.2,12c72.7,52.2,118.3,131.3,161.4,207.7c2.6,5,8.3,12.7-3.9,16.7     c-48.2,22.3-42.3,92.3-80.7,129.8c-1.2,1.4-2.2,3.9-4.7,2.1c-18.2-12.1-56.9-35.4-77.9-35.5c-3.6,0.3-5.6,2.6-7.8,4.8     c0.5,1.1,1.2,2.1,2.1,2.8c11.8,7.8,22.9,16.5,33.4,26.1C137.1,795.1,177.3,929,182.2,1055c-0.1,1.4,6.8,14.2-4.9,9.1     c-16.7-7.2-32.4-16.6-48.5-25c-38.5-19.7-76.7-40-115.1-59.9c-2.9-1.5-7-6.3-10.4-1.3c-2.2,3.1,0.5,6.8,3.3,8.4     c90.3,49,183.4,92.7,274,141.4c58.4,31.9,118.5,60.2,177.3,91.4c1.7,0.9,1.6,2.6,0.1,3.6c-23.9,14.4-47.5,29.4-70.6,45.2     c-8.1,5.6-14.9,7.8-24.1,2.5c-85.1-47.7-172.4-91.3-259-136.3c-30.5-14.9-59.8-32.4-89.8-48.4c-3.5-1.8-7.8-5-12.4-1.7     c-5.6,4.9,3.3,9.8,8,9.2c82.3,45.8,163.6,84.9,247,130.2c-42.4-3.7-103.6-2-132.3,32.5c-0.3,0.4-1.4,0.7-1.6,0.5     c-6.8-7.2-16.3-9.9-24.6-14.5c-29.3-16.5-58.6-33-88.4-48.6c-3.8-3.3-7.5-5.7-9.2,1.6c0,2.4,2.2,4.4,4.2,5.5     c33.3,17.6,66.4,36,99.8,53.4c14.9,7,21.3,11.5,18,30c-38.9-16.6-75.1-40.2-113.2-59c-3-1.5-7.1-3.4-8.2-0.8     c-1.2,2.8-0.6,9.2,1.5,10.6c28.3,18,53.7,30.4,84.7,46.8c-28.7-1.6-54.4,1.4-80-2.2c-6.4-1.6-13.7,7.1-3.9,8     c20.5,0.6,40.9,1.4,61.3,1.9c18.7,0.3,67.5-2.8,59.3,27.9c-0.9,4.3-5.8,1.7-8.9,1.7c-7.9,0-15.9-1.1-23.7-1.2     c-26.8,2.1-70-4.3-86.2,21.8c-9.9,15.5-6.5,48.2,10.1,58.3c11.2,6.3,23.7,6.8,35.9,7.1c25.5,0.7,51,0.2,76.5,0.3     c1.6,0,4.3-1.5,4.6,2c-0.6,4.1,5.1,27.5-0.5,25.8c-40.6,0.4-81.2,0.1-121.8,0.1c-2.8,0-5.7,1.2-5.7,4.8c0,2.9,2.1,3.2,4.5,3.2     c37.9,0,73.1,0,111.4,0c-8.6,5.7-15.3,10.2-22,14.6c-9,5.8-17.6,15.1-27.3,16.5c-20.8,3.1-42.2,2.1-63.4,2.7     c-3.6,0.1-7,0.3-7.2,4.6c-0.3,4.6,3.8,3.7,6.6,3.6c15.6,0.7,31.6-1.2,47,1c-15.7,11.7-34,20.8-49.9,32.7     c-3.1,2.1-4.8,6.7-2.6,10.2c1.9,3.4,4.2,1.5,6.4,0c117.6-79.3,237.3-155.5,356.3-232.9c87.3-57.3,174.4-114.8,261.9-171.8     c9.1-6.1,16.3-14,29.5-8.6c28.5,12.5,59.3,20.1,87.3,33.7c-219.2,149-441.2,297.6-661.5,446.4c-10.7,4.3-1,13.7,6.4,8.7     c45.8-33.6,94.6-63,141.1-95.5c135.9-94.7,275.5-184,410.7-279.7c37.5-24.8,75.2-49.3,111.5-75.8c2.6-1.8,4.8-0.6,6.9,0.2     c36.4,13.9,71.3,24.8,109.1,38c-60.4,35-115.5,76.6-175.7,111.7c-8.7,5.3-15.8,15.3-27.3,13.4c-16.7-1.8-70.4-5.4-73.3,16.8     c-4,11.3-1.8,48.2-9,53c-81.8,50.9-162.8,103.4-242.2,157.9c-26.5,17.2-53.4,33.8-79.9,51c-1.6,1-2.9,4.6-2.6,6.7     c1.2,5,6.8,3.1,10.2,0c107.2-72,211.6-138.9,319.7-211.1c-7.8,11.8,2,25.7-13.1,32c-16.9,7-30.5,19.6-45.6,29.6     c-71.1,52.7-151.9,97.5-218.8,153.2c4.8,8.4,23.8,0.2,29.9-3.7c19.6-14,39.1-28.7,60.2-40.6c10.5-6.1,17.5-18.1,34.4-15.1     c46.4,5.9,96-1.6,142,4.1c0,11.9-0.3,23.8-0.4,35.7c0.4,4.3-1.2,12.8,5.8,10.7c1.6-1.8,3.1-4.4,3.1-6.7     c-0.4-36.2,1.3-72.2,3.8-108.3c3.2-42.3,3.2-84.8,6.7-127c0.3-3.2,1.2-10.6,3.5-9.6c13.5,5.9,27,10.3,41.7,12.1     c21.4,2.5,42.7,4.9,64.1,0c2.8-0.6,7.1-2.9,6.3,4.2c-9.2,74.1-6.9,148.7-13.5,222.6c-2.2,5.8-2.2,16,6.8,15.6     c7.8,0.4,9.2-6.9,8.7-13.2c0.1-42.1,6.7-83.9,6.6-126c-0.1-3.3,0-3.6,3.3-3.5c17.1,0.4,34.2,0.5,51.3,1.8     c37.4,2.5,75.5-4,112.4,6.1c10.5,2.8,17.7,16.6,11.4,24.3c-6.8,8.3-17,13.2-27.7,13.4c-32.5,1.1-65-0.7-97.4,2.3     c-40.8,4.3-29.2,68.6,17.5,64.6c41,2.7,81.9-2,123-0.5c18,0,36,0.2,53.9-0.2c3.1-0.1,6.3-2.2,9.4-3.4c-8.5-11.2-58.5-5-74.3-5.4     c-17.8,1.2-35.8-0.2-53.6-1.3c-26.4-1.6-53.3,4.8-79.1-5.9c-18.1-5.8-18.1-38.4,2-39.9c42.1-9.2,186.2,18.2,188.7-36.1     c1.4-25.3-7.5-42.5-32.1-56.1c-36.6-18.1-78.3-12.2-117.8-15.5c-27.5-3-55.3-3.2-82.9-4.3c-10.3-0.1,0-9.1-2.7-15.2     c-0.8-5.8,1.4-7.1,7-7c37.2,0.7,74.5-0.6,111.7,1.9c42.3,1.1,84.7-0.3,127.1,0.2c2.1,0.2,4-1.4,4.2-3.5c0-0.1,0-0.3,0-0.4     c0.1-2.8-2.4-2.1-4.1-2.2c-13.1-0.7-26.2-1.7-39.3-1.9c-65.8-1.8-131.7-1.5-197.5-3.8c-3.2,0-8,0.8-7.7-2.1     c0.7-7.3-2.3-15.4,3.4-21.9c9.2,0.2,18.7,1.4,28,1.3c32.1-2.6,64.4,1.2,96.2-0.5c38.8,0.7,77.6-2.4,116.6-0.9     c5.3,0.6,3.5-5.2,0.2-6c-42.7-1.8-85.4-0.5-128-1.7c-20-1.6-40.3-0.9-60.5-0.3c-18.5,0.6-37.1-2.3-55.5,1.5     c-0.8,0.2-2.2-1.2-2.7-2.2c-1.4-2.4,1.1-1,1.7-1.4c15.2-9,27.6-26.3,47.4-23.7c64.1,4.1,128.5-0.6,192.7-0.5     c5,0.8,13.2,2.9,10.2-5.2c-2.2-2.8-10.7-2.5-14.6-2.7c-63.3,1.5-125.6,0.3-189,0.3c6.2-4.1,10.9-7.7,16.1-10.6     c9.6-5.4,16.7-16.7,27.9-17.2c50.8-0.7,101.7-3.3,152.5-2.4c4.5,0.6,10.2-2.2,7.1-6.8c-39.7-3.7-81.8,2.2-122.1-0.8     c-7.5-0.5-15.5,4.1-22.8-1.2c16.8-10.4,29.4-25,51.5-23.7c29.6,1.5,59.3,0.4,89,0.5c3.3,0,7.3-0.1,7.1-4.6s-4.4-3.9-7.6-3.9     c-15.6,0.2-31.2,0.3-46.8,0.1c-11.9-0.2-23.8-2-35.5-1c-16.5,1.5-8.8-8.8-8.3-15.3c0.4-6.2,5.7-3.3,8.6-3.3     c27.4-0.3,54.8-0.3,82.3,0c4.6,0,4.6-3.1,5.6-5.9c2.5-3.7-13-3.9-15.2-4.3c-10.5-2.3-83.5,6.7-80.5-4.3     c1.9-8.4-4.3-12.2-10.7-14.3c-31.8-12-63.7-23.9-95.8-35.3c-12.3-4.3-24.2-7.2-22.3-24.8c2-19.3-1.6-39.6,0.3-59     c2.5-47.4,14.1-93.2,20.8-140.2c44.2,69.8,81.4,146.1,115.2,222c2.7,8.4,8.2,8.8,10.2-0.3c8.3-90.1,8-254.7-68-316.2     c-43.8-33.8-39.9,9.8-79-17c-48.3-21.5-59.5,25.3-72.9,57.8c-21.3,59.2-32.6,122-35.7,184.8c-0.1,5,0.4,11.1-3.1,18.4     c-11.1-67.2-20.1-131.6-9.2-198.8c1.1-13.3,1.1-26.6,2.2-39.9c0.8-9.5,5.1-18.1,5.2-28.1c0.3-12.4,2.7-24.7,7.1-36.3     c3.8-10-1.7-27.8,19.4-26.9c23.7-1,47.2-10.5,68.3-21.2c24.2-14.2,0.9-16.5-6.2-46.8c-6.4-24.9-17.9-51.1-23.3-75.5     c39.6-93,107.3-174.6,191.3-231.1c25.2-15.8,50.4-31.2,81.6-31.1C987.4,339.4,985.1,326.6,977.3,323z M12.7,1381.5     c-7.7-12.9-2.4-25.7,4.7-38.5c10-23.2,77.2-11.6,100.8-14c2.9,0,7.8-0.4,8.4,0.9c3.9,9,2.2,18.8,2.2,28.3     c-18.3-2.8-37.2-0.8-55.7-1.2c-12.2,0.2-24.4,1.3-33.8,10.7c-7.8,7.8-6,21,4.7,27.4C30.5,1394.9,18.7,1391.6,12.7,1381.5z      M129.1,1394.9c-23,0-45.9,0.5-68.9-0.2c-13.5-0.4-21.2-11.5-15.7-21c5-12.3,65.9-6.2,81.7-8.9c3.5-0.1,4.9,0.7,4.9,4.6     c0.2,8.2,0.8,16.4,1.8,24.5C133.4,1398.3,130.6,1396.1,129.1,1394.9z M267.1,1346.3c-40.9,26.6-81.7,53.5-123.1,79.3     c-4.9-48.4-5.5-97.6-12.7-145.9c96.8,31.4,143.5-34.5,137.8-1.6c0.5,20,1.3,40,2,60C271.1,1341.8,270.6,1344.1,267.1,1346.3     L267.1,1346.3z M271.1,1245.2c-8.6,24.9-49.2,27.8-71.5,31.7c-19.4,3.2-39.7,0.8-58.5-4.3c-3.8-0.4-8.1-4-7.7-8.5     c7.7-24,65-30.4,86.9-33C229,1230.5,271.6,1234.3,271.1,1245.2L271.1,1245.2z M288.3,1332.4c-1.3-22.6-2.3-45.3-4.2-67.8     c-0.8-9.3,0.6-19.4-5.6-27.8c-0.2-0.3,0.1-1,0.2-1.6c30.3,13.8,59.7,28.6,88.8,45.4L288.3,1332.4z M578.6,1512.9     c-3.5,21.4,2.3,29-21.9,23.6c-15,1.6-30.5,0.7-45.2-0.4c-25.3-1-50.6-0.4-75.6-1.4c29.8-20,46.4-42.9,85.6-34.3     c15.3,2.3,31.2,1.4,46.8,0.3C578.8,1500,579.5,1506.4,578.6,1512.9L578.6,1512.9z M579.1,1483.1c1,8.2-1.5,11.2-10,9.7     c-23.4-4.1-46.8-0.6-70.4-2.1c25.4-17.3,46.4-40.7,79.4-30.2C582.1,1465.2,578.5,1476.9,579.1,1483.1L579.1,1483.1z M581,1436.5     c4.3,19.6-11.8,14.9-21.8,13.7c6.8-6.8,14.8-11.5,23.2-18.4C581.7,1434.1,580.8,1435.4,581,1436.5L581,1436.5z M709.1,1344.9     c-20,9.3-91.7,3.5-105.8-12.3c0.6-5.1,6.3-4.5,9.5-5.2c31.2-4.8,76.1-6.9,101.9,13.2C712.8,1342,711.2,1343.9,709.1,1344.9     L709.1,1344.9z M722.9,1410.8c0.8-2.2,0.4-3.9,3.6-3.8c23.5,0.8,47.2,0.2,70.6,2.4c44.4,5.4,92.7-4,133,19.6     c18.3,12.2,23.3,28.7,21.6,45.5c-2.9,23.9-34.5,26.8-54.2,25.9c9.3-8.8,15.3-17.4,9.5-30.4c-10.5-22-42.9-17.5-63.3-22     c0,0.4-0.1,0.9-0.1,1.3c-38.4-2.1-76.9-3.9-115.4-4.1c-7.4,0-8.8-3.6-6.8-8.3C725.1,1428.2,719.8,1419.4,722.9,1410.8     L722.9,1410.8z M872.5,1205.4c4.6,18-12.1,22.3-22.7,29.1c-23.8,15.5-47.6,31-70.8,47.4c-21.5,15-43.3,29.5-65.9,42.8     c-3.9,2.3-12.1-2.8-18.3-4.2s-7.5-3.5-1.2-7.1c26.3-16.5,52.2-33.7,78.4-50.2c31.7-20.9,65.2-39.4,95.9-61.8     C870.7,1199.6,874.6,1197.8,872.5,1205.4L872.5,1205.4z M764.3,929.5c-14,64.9-25.8,131.3-20.8,198.1c1.3,12.4-5,6.9-9.3,5.1     c-9.5-4.1-18.9-7.8-29-10.1c-3.1-0.7-7-2.4-4.9-6.9c-3.2-84.6,12-169.4,34-250.5c12.5,14,21.2,31.8,32.9,46.9     C771.8,918.8,764.8,923.5,764.3,929.5z M721.6,817.5c7.6-3.7,42.5,5.5,47,12.3c7.9,12,15.5,24.3,22.2,37.1     c25,46.3,47.4,93.6,64.2,143.5c4,10.4,8,20.9,12.2,31.2c1.2,4.4,6.7,4.7,5.8-1.1c-13-44.1-26.2-87.7-49-128.1     c-14.2-27.2-25.2-56.2-44-81.1c79.3-23.5,102.7,110.7,109.7,166.5c1.9,43.2,7.3,87.2,0.2,129.8c-16-48.4-43-91.5-66-136.5     c-28.6-53.6-56.7-109.5-100.2-152.7c-4.8-3.8-10.2-8.7-11.9-14.2C709.9,818,718.2,819.2,721.6,817.5L721.6,817.5z M649.1,1098.2     c5-90.3,15.5-185.6,58.6-266.4c15.1,21.5,27.3,18.4,14.6,46.7c-7.1,28.7-16.1,57-20.8,86.3c-6.2,44.4-12.3,88.8-9.8,133.7     c-1.1,10.5,6.8,23.8-10.6,15.4c-10-3.8-19.5-8.9-30.1-10.9C647.7,1102.3,649,1099.8,649.1,1098.2L649.1,1098.2z M498.4,590.1     c22-32.6,108.9,25.8,132,43.2c-40.5-18-81.4-38.9-127.4-36.4C498.6,597.2,492,599.9,498.4,590.1z M501.1,454.5     c4.4-8.3,22.8-17.3,23.6-1.8c-4.8,24-13.9,50.8-35,65.1C486.6,496.5,488.7,474.1,501.1,454.5z M479.1,598.3     c-9.2-15.2-1.3-52.4,11.1-66.2c11.9,23.5,2.6,44.2-7.5,64.8C481.4,599.7,479.9,600.3,479.1,598.3L479.1,598.3z M499.9,675.5     c55.9,56.9-29.3,158.9-63,210.7c17.3-73.6,17.3-154.8-29.9-217.4C432,650.7,477.3,651.3,499.9,675.5L499.9,675.5z M556.2,946.4     c1.5,43.4,4.3,87.3,13.2,129.9c2.1,9.1,0.2,8.4-6.6,6.7c-16.7-4.3-33.7-4.5-50.8-4c-2.7,0.1-4.4-1.2-4.7-3.4     c-5.7-36.3-10.1-73-11.7-109.7c0.4-45.6,7.1-90.3,10.4-135.9c6.2-26.2,12.8-53.5,19-79.9c2.2-9.2,3.9-18.5,6.2-27.7     c0.4-1.7,1.2-4,4.7-1.6c12.4,8.8,27,13.1,41,18.7c6,2.4,0.5,8.3-0.2,12.4C562.3,815.7,555.4,881,556.2,946.4z M490.4,880.5     c-2.7,0-1.2-3.5-1.2-5.4c-0.2-13.3-0.1-26.6-1.8-39.9c-1.4-11.2,9.4-18.1,12.6-30.5c2.8,12.7-2.7,21.8-3.6,31.6     c-1.1,12.7-3.5,25.4-3.5,38.3C492.9,876.9,493.6,880.6,490.4,880.5L490.4,880.5z M370.4,922.9c-1,22.6-4.6,46.1-6,68.9     c-1-54.4-3.2-108.7-13.9-164.2c10.4,9.5,24.3,15.6,21.8,30c-2.2,12.7-0.2,25.3-2.4,37.9C368.3,904.6,368.4,913.9,370.4,922.9     L370.4,922.9z M326.6,787.4c-27.8-33.2-36.5-79.2,7.9-102.6c11.2-6.9,23.4-9,35.5-9.3c12-0.3,15.8,11.8,20.5,20.1     c29.9,58.3,31.5,124.2,32,189C396,844.8,355.5,824,326.6,787.4z M322.9,534c-1-6.1-8.2-10.8-5.8-17.7c2.8-8,6.9-15.5,10.7-23.7     c16.5,55.4,26.8,109.7,35,166.4c1.5,8.2-4.5,6.2-8,6.6c-15,1.9-26.7,10.8-39.1,18c-6.6,6.6,1.8-29.9-14.3-45.2     c-1.3-1.5,0.2-2.7,1.5-4C327.4,607.7,329.9,567.8,322.9,534z M377.1,617.7c-8.6-12.4-12-27.7-9.7-42.6     c21,7.2,54.1,47.9,57.5,70.7c0.8,3.3,0.2,6.2-4.6,5.3C400.5,647.1,387.8,633.8,377.1,617.7L377.1,617.7z M407,657.7     c-7.8,4.3-12.5,14.2-25.5,9.5c-11.2-4-7.3-12.5-9.8-18.6c-2.8-6.9-2.1-15.3-3.2-25.8C378.4,638.3,394.1,650.7,407,657.7     L407,657.7z M422,759.1c-5.5-27-14.7-53.2-27.3-77.7c-1.1-2.1-1-3.8,1.3-4.2c11.6-8.1,26,35.8,28.4,43.6     c13.1,37.6,17.9,81.2,9.9,120c-0.7-1.2-2-2.3-2.1-3.5C429.5,811.1,427.1,785.1,422,759.1L422,759.1z M453.2,617.3     c2.7,0.2,1.3,4.3,1.7,6.7c1.1,6.3,2.1,12.7,3.6,18.9c1,4.1,1.4,4-14.5,4c-12.8-3.4,6.3-10.3,3.7-15.5c-0.8-1.7,2.4-5.1,3.2-7.9     C451.6,621.2,450.6,617.1,453.2,617.3L453.2,617.3z M438.4,629c-0.8,2.2-3.1,3.9-4.7,5.8c-12.6-18.4-12.2-40.3-8.5-61.1     c1.7-16.9,11.5-28.9,19.6-43.5C455.4,564.6,449.5,597,438.4,629z M419.1,458.3c-0.4-13.6,14.6-32.9,24.7-14.9     c3.7,8,6.2,16.6,5.4,25.7c-2.1,15.4-4.2,30.7-6.5,46c-0.2,1.3-1.6,2.4-2.4,3.5C429.5,500.3,416.5,481.5,419.1,458.3z      M293.1,338.6c-22.6-69.5-54.2-133.1-93.7-194.9c48.5,33.7,83.5,74.4,116.2,122.1c33,49,65.5,98.9,87.9,153.8     c2.3,6.5,4.6,13.5,8.1,19.5c2.9,5-0.4,8.6-1.2,12.2c-3.5,14.8-1.3,30.3,6.1,43.5c41,64.4,4.7,15.3-3,95.9     c-21.3-101.1-52.1-204-109.5-290.6c0,1.6-0.6,3.5,0,4.9c9,18.7,18.7,37.1,27.1,56.1c9.2,20.7,16.6,42.2,26.1,62.7     c18.9,45.4,33.2,92.6,42.5,140.9c1.4,9,2.1,19,7.2,28.8c-14-11.4-27.2-29.4-45.4-28c-6.2,8-5.5,2.8-6.9-2.7     c-6.4-37.1-25.9-73.2-19.7-111.2c0.4-12.3-2.1-22.6-14.8-29.6c-4.4-2.5-4.8-12.8-6.5-19.6C308.4,380.7,301,359.6,293.1,338.6     L293.1,338.6z M292.1,491.7c-7.9-17.9-4.1-37.3,6.9-52.1c4.8-4.1,8.7-11.8,16.9-7.8c21.7,11-0.8,68.4-9.8,85.6     C301.7,508.2,296.1,500.5,292.1,491.7L292.1,491.7z M290.7,598.9c1.6-29.1,7.4-51.9,19.7-72.6c12,22,7.6,49,3.1,72.8     c-2.4,10.3-9.6,17.5-13.4,26.8c-0.6,1.6-2.6,1.3-3-0.9C295.1,614.6,290.3,604.7,290.7,598.9z M289.4,640.9c8.1-0.5,8,8.1,9,13.7     c-30.8-3.6-62-1.5-92.1,6.1c-12.9,4-26.4,6-38.6,12.1c-0.6,0.3-1.5-0.1-3.3-0.3C209.5,647.8,238.8,641.1,289.4,640.9L289.4,640.9     z M152.8,501.5c-26.6-42.4-53.7-85-91-118.9c-10.7-10.4-20-22.9-34.7-28.7c72.7,27,140.6,86.2,193,143.8     c21.3,26.2,43.8,51.8,61.5,80.8c3.6,8.4-3.7,11,0.7,22.3c-9.9-11.5-22.3-19.3-35.8-25.6c-10.8-5.5-14.6-17.2-21.4-26.2     c-12.2-14.1-26.1-41.2-43.4-47.7c16.4,24,33.4,47.1,49.1,71.1c-0.8,0.2-1.6,0.7-2.3,0.5c-11.4-3.2-22.8-2.9-34.2,0     c-4.9,1.2-3.8-4-4.6-5.9C179.3,543.9,166.2,522.6,152.8,501.5z M125.6,680.6c19.3-32.4,19.1-79.6,59.7-94.8     c38.1-15.4,89,2.3,101.5,42.9c1,2.8-0.2,4.8-3.8,4.3c-57.9-6.4-111.5,24-159.4,52.6C124.1,683.9,124.8,682.2,125.6,680.6z      M113.1,707.4c50-27,100.8-46.3,158.9-46.6c6.6-1,16.7,0.4,26.5,2.5c6.4,1.4,5.1,8.5,6.4,13.5c4.1,15.1-5.9,26.4-10.6,39.2     c-9.1,22.1,10.3,34.2-9.3,40.7c-34.5,16-73.4,7.5-108.2-2.8C164.9,750.1,72.3,721.2,113.1,707.4z M287.3,1121.5     c-7.6-5.4-39.8-17.3-38.4-24.1c-0.4-38.2-6.1-76.2-12.4-113.8c-15.6-58.8-28.8-125.5-73.2-169.7c-4.1-2.5-4.4,3.4-2.4,5.4     c54.5,74.9,70.5,168.7,79.9,258.8c1.8,9.8,1.6,26.2-10.7,13.8c-11.7-7.4-24.5-12.3-36.8-18.2c-7.8-3.8-3.2-11-2.9-15.8     c-2.9-136.5-52.3-282.3-163.4-368C170.4,741.8,303.2,956.8,287.3,1121.5z M288.3,1021c-20.1-105.1-74.2-193.6-147-269.4     c36.1,13.3,73.3,23.3,112.1,23.8c10.1-1.1,19.4,82.2,21.6,94.2C282.8,919.7,291,970.2,288.3,1021L288.3,1021z M299.4,1127.7     c-1-0.5-2.3-1.7-2.3-2.7c-1.1-21.3,1.6-42.4,0.7-63.8c-1-24.2,1.4-48.6,0.1-72.9c-4.6-70.4-12.8-141.5-30.5-209.8     c-4.9-12.1,13.8-4.3,27.7-19.6c2.5-2.4,3,1.8,3.3,2.5c8.8,22,24,39,39.8,56.1c4.9,5.3,5.5,15.2,6.4,23.1     c9.7,68.9,11.5,138.6,10,208c-1.7,29.7-3.3,59.4-9.3,88.6c-0.9,4.4,0.7,9.3,1.2,15.1C330.6,1144,315,1135.9,299.4,1127.7     L299.4,1127.7z M404.6,1182.6c-17-8.7-34.1-16.6-50.3-26c-7.5-4.3-0.7-12.1-0.5-18.1c10.8-53.3,12.3-108.7,19.6-162.6     c3.7-21.7,3.1-43.4,5-65.1c2.5-18.4-2.3-37.6,3.2-55.6c13.3,12,25.5,25.2,36.2,39.5c12.2,16,6,34.1,6.3,51.4     C424.5,1025.7,410.3,1103.6,404.6,1182.6L404.6,1182.6z M464.8,1136.8c-11,95.7,7.4,77-49.9,51.9c-7.9-3.3-2.8-9.2-2.5-12.8     c6.5-71.7,17.3-143.1,20-215.2c0.8-17.3,0.7-34.7,0.5-52.1c-0.1-6.2,4-9.7,7.1-13.8c11.3-15.1,22.9-30,34.5-45.1     c7.3,41.5,2.9,84.8,8.5,126.7c5.2,32.1,4.2,64.6,7.8,96.7c3.1,16.9-22.9,10.5-24,30.1C466,1114.3,465.8,1125.6,464.8,1136.8     L464.8,1136.8z M573.4,1117.1c-1,10.1-1.5,20.1-2.4,30.2c-0.4,4.8-5.7,5-8.5,6.9c-31.2,19.9-61.2,43.5-94.2,60.1     c0.7-27.7,3.9-55.7,6.3-83.4c0.7-8.9-5.1-23.2,11.4-15.9c28,11.7,56.8,10.4,85.3,0.4C572.7,1114.9,573.6,1114.7,573.4,1117.1     L573.4,1117.1z M576.5,1101.2c-2.9,16.7-94.8,15.2-97.2-0.4C484.5,1084.8,573,1084.4,576.5,1101.2L576.5,1101.2z M640.7,749.4     c-7.1,12.5-6.9,26.9-9.5,40.3c-3.5,17.8-6.6,35.7-8.3,53.9c-0.7,7.5,0.3,16.2-3.5,23.7c-5.2,78.4-4,159.7,18.6,235.9     c1,2.7-2.1,2.8-3.8,3.9c-10.5,6.6-20.8,13.6-30.9,20.7c-4.4,3.1-6.2,2.1-10.1-10.4c-12.1-32.9-17.2-67-21.3-101.7l1.3-0.1     c-6.1-58-8.8-117-2-174.9c2.1-32.3,11-63.4,15.8-95.3c0.5-3.7,1-3.3,4.6-3.2c9.2,0.3,18.2,2.8,27.8,1.7     c5.9-0.7,12.7,0.8,19.1,0.5C641.5,744.4,641.5,747.9,640.7,749.4z M669.1,731.5c-47.6,7.3-101,6.1-139.3-26.7     c-5.7-5.5-5.8-13.4-9.5-19.7c-5.7-9.8-14.6-16.8-22.7-24.6c-10.1-9.8-15.7-35.5-9.9-47.9c3.7-8,12.4-4.5,17.9-4.3     c42.9-1,85.1,15.4,123.6,33.1c36.9,17.8,64.1,52.3,100.3,70.1C710.5,723.5,690.2,727.7,669.1,731.5z M709.1,648.9     c6.2,18.1,9.8,37.5,21.4,53.8c-47.3-31-81.2-78.5-133-103.8c-26.6-12.9-53.4-30.6-84.2-27.8c19.5-33.6,63.3-43.2,98.9-35.8     C671.3,547.8,693.8,595,709.1,648.9L709.1,648.9z M952.5,329c-114.6,41.1-205,148.6-254.7,256.9c-11.3-12.9-19.6-28.2-33.7-38.9     c-4.6-3.9,2-7,3.7-9.5c19.9-30,38-61.3,61.9-88.5c7.8-9.9,17-19.7,22.8-30.9c-10.9,3-18.6,14-25.7,22.5     c-26.1,30.8-47.2,66.6-71.4,98.3c-9.1,2.5-25.7-9.6-35.9-11.7c-8.7-1.8-5.2-6.4-3-10c22.8-41.4,53.4-76.9,89.9-106.9     c68.1-60,161.1-89,250.9-82.1C956.1,330.9,954,328.4,952.5,329z M440.1,73.4c34.2,6.9,42.3,29.5,54.9,58.3     c5.7,11.8,5.8,12.1,0.2,13.4c-40.4,7.3-75.8,59-47.4,95.7c20.3,24.4,50.2,27.8,78.6,21.3c5.2-1.2,11.7-13.3,19.3,0.1     c11.4,19.9,30.3,31.8,53,34.4c53,7.7,77.2-31,86.4-19.2c18.9,17.9,47.1,14.7,68.5,2.5c4.3-2.4,8-11.5,15.8-4.1     c37.6,32.7,55.5-14.4,71.5,7.9c27.3,29.9,78.1,18.1,104.4-7.7c16.7-14.9,29.3-32.8,29.9-56.2c0-1.8-0.5-3.3-2.7-3.7     c-3.5-0.6-4.4,3.3-5.6,5.9c-14.4,37.6-48.9,73.4-93,64.8c-34.3-4.6-35.1-38.6-45.7-26.2c-12,15-41.4,24.1-53.8,6.2     c-3.2-5.3,8.1-11,10.7-16.4c4.9-2,2.8-12.9,8.7-10.1c14.9,7,28,4.4,41.6-2.5c4.2-2.1,10.7-5.5,13.2-3.9c40,21.4,91-11.8,102-53.1     c5.3-18.3-7.6-46.6-25.9-51.5c-10.2-2.7-6-5.4-2.8-10.3c26.3-38.8-16.8-71.5-52.2-62.2c-14.5,3.8-22.3,4.4-33.8-8.8     c-19-25.7-94.5-21.7-92.3,20.8c2,12.9,6.2,27.2,22.5,31.5c5,1.1,10.1-1.4,12.3-6.1c-13.1-2.3-27.2-14.9-23.6-29.2     c4.2-15.6,17.3-18.5,30.7-20c25.3-2.8,46.5,6.9,54.7,30.8c2.6,7.7,8.1,7.3,12.3,2.2c15.8-23.8,69.4-6.5,64.4,17.9     c-3.9,17.6-11.9,32.2-30.1,38.8c-2.7,1-4.7,5.2-8.3,2.4c-18.2-13.9-37.7-12.8-56.9-3.6c-23.3,11.1-42.1,29.9-66.8,39.1     c-9.9,3.7-30.5,1.6-31.5-6.3c-1.2-9.7,1.3-18.9,9.8-24.5c9.4-6.2,19.7-10.2,31.5-7.4c2.5,0.6,4.5,7.3,7.7,1.1     c2.7-5.3-1-8.5-5-10.6c-12.8-6.9-42.3,2.9-49.9,16.4c-7.5,7.1-6-23.5-49.7-27.3c23.2-6.7,28.5-47.8,16.1-66.3     c-28.1-42-87.5-20.8-96.4,20.1c-30.5,14.7-17.4-2.5-44.1-8.2c-39.8-4.3-71.4-14.5-75.1-59.7c-0.4-2.3-1.3-4.2-4-4     c-7.3,1-6,10.9-3.3,15.6c14,80,90.2,29.5,107.7,88.9c7.9,52.5-58,55.9-71.5,12.1c-9.7-27.3-28.2-44.1-57.1-50.1     c-27-2.6-26.4-35-17-54.3c0.6-1.3,0-3.1,0-4.7c-10.8,4.1-13.6,17.3-15.2,28.2C404.9,58.2,419.9,67.8,440.1,73.4z M890.2,158.8     c-3.2-13,3.4-12.9,10.1-16.2s12.4-10.5,21.5-5c9.7,5.9,19.2,20.8,19.2,33.6c-4.3,32-42.1,61.4-75.3,55.9c-2.6-0.6-6.3,3.2-8-0.9     C877.7,209.9,897.6,186.5,890.2,158.8L890.2,158.8z M716.4,177.1c36.1,32.3,79.8-18.1,113.1-33.1c43.8-17.9,65.2,22.4,39.5,55     c-12.1,16.4-51.9,46.7-72.9,28.3c-7.7-6.9-12.4,0.7-14.8,6.4c-13.3,31.8-64.9,64.5-90.8,32.3c-11.5-22-19.1,12.2-66,19.1     c-27.6,5.8-61.8-5.3-71.7-33.5c-4.2-22-54.2,28.3-95.1-14.6c-23.3-25.1-4-62.6,21.4-76.6c9.8-7.4,15.9-1.5,17.1,8.8     c5.2,27.1,37.1,38.5,62.1,36.9c4.1,0.2,9.3-1.9,6.7,6.7c-5.3,17.4,12.7,42.9,30.4,46.5c26.6,5.4,66.4-19.8,70.3-46.7     c0.8-4,4-4.8,7.7-5.3c17-1.3,28.5-15.6,36.3-29C711.7,175.2,712.5,172.7,716.4,177.1L716.4,177.1z M602.8,229.2     c1.2,3.6,2.7,1,4.4,0.2c10.5-4.8,17.8-22.1,13.3-32.4c-4.3-9-13.8-9.2-22.4-12.7c14.6-7.3,29-8.3,42.1-1.8     c39.9,19.4-5.7,66.9-37.6,64.6c-29.3-1.4-38.9-37.2-13.1-50.7c6.8-4.2,18.5-1.7,22.5,7.2C617.8,217.1,600.2,221.3,602.8,229.2z      M595.9,61.4c24-40.8,91-33.3,83.8,21.7c-5.5,19.5-26.7,36.8-40.3,35.9c-4.4-0.3-5.2-1.3-3.4-5.3c5.9-13.2-7.2-38.2-21.3-40.9     c-5.9-1.1-11.7-2.7-17.6-3.4C586.7,68.3,595.4,62.2,595.9,61.4z M578.5,103.1c-2.5-6.1-0.4-13.2-5-19.1c-2.2-2.8,3.1-2.7,4.9-3.6     c17-8.3,45.3,4,49.3,21.3c3.5,27-36.3,55.6-64.7,42.9C574,138.4,582.8,113.9,578.5,103.1L578.5,103.1z M509.6,145.3     c26.3,16.4,35.7-1.3,61,9.8c39.4,8.3,64.3-34.9,103.8-30.3c71.6,16.5,0.7,97.9-8.3,68.1c-13-38.2-71.3-32.4-89.9-1.1     c-4.2,5.8-13.4,4.5-20.1,4.6c-21.9,2-45.1-12.7-52.6-33.4C501.7,155.6,507.5,150,509.6,145.3L509.6,145.3z M40.3,71     c7.9,4.8,17.3,4.1,25.9,5.6c27.8,6.6,38.8-15.3,47.4-1.2c6.1,9,13.7,17.1,23.4,22.8c14.9,8.7,30,10.7,46,2.8     c4.9-2.4,6.4-9.7,14.5-8.2c11.2,2,21.3-2.2,29.9-10c24.5-25,6.6,0.5,51.7-9.6c22.6-0.9,63.5-58.2,39.5-74c-4.7,0-3.6,4.9-3.6,8.3     c-1.1,28-21.7,56.2-51.1,57.1c-28,2.9-11.8-6.5-10.8-23.1c1.9-14.8-20.3-27.7-32.9-28.5C180,7.3,142,59.2,181.1,87.4     c11.5,12.4-44.8,14.6-60.4-18c-3.7-6.9-8.2-24.8-21.8-7.1c-30.9,13-65.1,0-87.8-22.6c-2-1.9-4.7-6.6-7.8-4     C-4.2,48.9,31.5,65.5,40.3,71z M177.8,43.7c14.9-22.6,36.9-28,60.1-12.2c3.1,2.1,5.3,6.9,4.8,11.8c-6.3,20.3-28.4,49-53,37.9     C176.5,75.5,169.4,56.3,177.8,43.7z"
           id="path7" />
      </g>
    </g>
  </g>
  <g
     id="g12">
    <g
       id="Layer_1_2_">
      <g
         transform="matrix( 1, 0, 0, 1, 0,0) "
         id="g11">
        <g
           id="g9">
          <g
             id="Layer0_0_FILL_1_">
            <path
               d="M52,1548v15l-37,37h946l-37-37v-15H52 M52,52V37.7L14.3,0H0v1600h15l37-37v-15V52 M924,52V37.7L961.7,0H14.3L52,37.7       V52H924 M976,0h-14.3L924,37.7V52v1496v15l37,37h15V0z"
               id="path8" />
          </g>
        </g>
        <g
           id="g10">
          <path
             id="Layer0_0_1_STROKES_1_"
             class="st7"
             d="M961,1600h15V0h-14.3L924,37.7V52v1496v15L961,1600H15H0V0h14.3h947.4 M52,52      V37.7L14.3,0 M15,1600l37-37v-15V52h872 M924,1548H52" />
        </g>
      </g>
    </g>
  </g>
</svg>
