<?xml version="1.0" encoding="utf-8"?>
<svg version="1.1" id="Layer_1" xmlns="http://www.w3.org/2000/svg" xmlns:xlink="http://www.w3.org/1999/xlink" x="0px" y="0px"
	 viewBox="0 0 976 1600" style="enable-background:new 0 0 976 1600;" xml:space="preserve">
<style type="text/css">
	.st0{fill:#FFFFFF;}
	.st1{clip-path:url(#SVGID_2_);}
	.st2{fill:#5D4E8C;}
	.st3{fill:#333333;}
	.st4{fill:#FFEB5C;}
	.st5{fill:none;stroke:#333333;stroke-width:2;stroke-linecap:square;stroke-miterlimit:3;}
</style>
<g id="Paper_Backing">
	<path class="st0" d="M960,22v1556c0,3.3-2.7,6-6,6H22c-3.3,0-6-2.7-6-6V22c0-3.3,2.7-6,6-6h932C957.3,16,960,18.7,960,22z"/>
</g>
<g id="Wikipedia_Cropped">
	<g>
		<defs>
			<path id="SVGID_1_" d="M960,22v1556c0,3.3-2.7,6-6,6H22c-3.3,0-6-2.7-6-6V22c0-3.3,2.7-6,6-6h932C957.3,16,960,18.7,960,22z"/>
		</defs>
		<clipPath id="SVGID_2_">
			<use xlink:href="#SVGID_1_"  style="overflow:visible;"/>
		</clipPath>
		<g class="st1">
			<path class="st2" d="M484.1,940.8c-21.5-13.3-39-33-59.8-48c-30.6-16.5-46.9-71.5-64.4-68.5c-48.3,30-106.1,5.1-158.6,10.8
				c-9.8-4.2-37.5,18.7-38.2,3.1c2.7-4.2,7.9-10.4,1.9-14.2c-9.8-75.8,119.4-246.1,179.7-122.3c4.1,12.3-7.9,12.2-16.1,11.1
				c-36,2.9-80.6,15.6-91,41.6c11.4,7.5,25.5-10.4,39.9-12.8c27.8-7.3,58.8-22.6,82-7.1c6.5,8.9,33.6-22.8,50.5-18.1
				c22.4-1.3,41.1,6.7,55.6,22.5c23.4-22.7,61.9-22.8,92.6-10.7c16.4-3-20.6-63.3,24.2-61.5c27.6,3.1,60,8.1,90.6,21.6
				c23.5,6.1,41.6,33.4,61.5,31.6c-5.5-32.4-60.5-49-84.5-59.3c-18-4.9-36.3-8.6-54.8-11c-6.4,1.1-18,2.9-17.1-4.6
				c16.6-93.7,151.2-36.8,169.9,33.4c3.5,15.5,26.9,54,9.8,68c4,12.2,16.3,25-7.8,22.2c-42.7-6-82,2.7-124.3-6.9
				c-82.8-37.4-7.2,10.1-49,76.6C556.6,879.8,523.3,920.5,484.1,940.8z M471.1,739.4c-8.9,0.6-5.4,10.3-2.8,15.5
				c10,26.2,14.1,51,15.6,76.9C490,1019,528.1,762.8,471.1,739.4z M437.9,663c-19-18-11.7-57-2.8-81.7c3.8-21.1,44.5-38.7,47.6-11
				C478.6,604.7,458.5,638.3,437.9,663z M352.8,590.7c-30.2-24.9-4.5-89,29.8-102.1C440.7,476.4,371.4,579.8,352.8,590.7
				L352.8,590.7z M534.3,551c-28.4-4.8-62.7-24.6-63.3-57.7c-1.9-8.5,2.4-23.5,15.8-22.8C504.8,469.3,556.9,541.7,534.3,551z"/>
			<path class="st3" d="M590.5,1604c-14.5-1.3-54.7,1-68.8-0.1c-9.3-1.9-38,7.2-26.6-12.9c19.5-170.3,22.6-341.2,45.6-511.2
				c4.4-67.3,13.6-133.5,24-200.1c9.1-43.1,36.4-75.4,25-121.7c0.6-14,18.2-0.2,25.4,1.8c4.5,2.9,10.8,0.4,15.2,4.9
				c8.5,3.9,26-1.1,32.4,7c-17.2,101.8-37,211.8-40,316.7c-14.3,132.6-5.8,117.8,43.3,5.7c58-101.8,116.8-194.5,193.4-281.5
				c12-12.3,120.4-133.1,112-94.8c-53.6,69.6-93.7,149.5-138.1,225c-24.2,40.6-42.6,83.5-59.7,127.4c-5.7,20.5-22.5,41.7-15,59.8
				c26.4-12.1,42.2-46.5,64.9-64.1c40.1-36.8,81.5-90.4,131.1-109.6c-66.7,86.4-150.7,172.1-192,278.8
				c-76.4,190.9-48.2,125.7,57.3,23.8c37.6-32.8,79.3-58,121.9-83c37.4-10.7-19.5,30.6-22.9,40.7c-67.9,85.5-133,182.5-151.3,290.6
				C739,1644.8,823.5,1595.2,590.5,1604z M414.9,1604c-38.7,0.1-107.7-0.1-146.6,0c-3-5-72.2,7.4-68.3-4.9
				c18.3-108.8-13.4-233.6-55.2-333.9c-27.9-55-48.6-97-92.2-149.7c-65.5-67.8-6.1-32.4,31.5-6.5c40.4,29.5,90.8,72.6,125.7,113.8
				c77.1,121.5,60.6,90.6,34.9-24.5c-49.4-159.4-115.6-319.8-225.5-445.5c44.8-0.1,87.5,50.4,121.5,76.7
				c101.9,85.6,147.2,221.4,211.3,329.6c11-71-20.5-153.4-31.8-226.5c2.9-18.7-35.7-89.9-19.3-92c23.8-1.6,44.1-5.5,62.6-19
				c15.3,16.6,24.8,42.3,40,52.6c11.5,10.3,15.7,24.2,19,37.4c40.4,179.3,66.8,367.1,55.5,550.7c0.4,48.7-5.7,91.5-13.9,138.6
				C465.3,1608.2,417.3,1602,414.9,1604L414.9,1604z M235.6,675.8c-42.7-59.5-73.7-142.8-126.8-200.1c-7-16.4-106.2-95.2-85.1-99.3
				C167.6,416.2,269,543.1,334.3,669.6C327.7,690.3,305.2,628.9,235.6,675.8z M707.2,619.3c-43.5-33-81-9.8-50.4-59.5
				c59.4-131,142-250.3,253.3-343.1c9.7-7.6,64.5-60.7,65.6-38.5C848.7,304.1,765.5,456.1,707.2,619.3L707.2,619.3z"/>
			<path class="st4" d="M493.1,908.5c-11.9-7.5-3.4-28-6.2-40.2c-2.9-46.3-6.4-99.1-30-138.2c-11.2-13.9-44-8.2-32.8-33.6
				c3.3-11.9,23-60.2,36.7-38.2c16.4,23.8,39.5,56.8,13.6,76.5c22.9,33.6,28.8,78.4,24.4,120.5C495.7,870.9,506.2,898.1,493.1,908.5
				z M231.3,762.7c-13.2-13.3,40.7-36,54.4-41.1c20.2-10.9,42-8.3,61.9-6.4c-5.8-37-16.2-70.1,0.8-107
				c11.2-38.1,54.8,83.2,19.5,116.5C326,726.9,273.9,736.9,231.3,762.7z M558.8,727.8c-17.7-10.3-38.5-1.6-39.4-30.1
				c-0.8-20.5,1-50.6,18.7-67.7c2.7-1.3,4.1-4.4,3.2-7.2c-5-21-8.1-49.5,0.2-69.5c32,21,34.7,65.3,35.2,89.7
				c5.5,13.2,30,4.3,42.8,10.3c24.9,4.9,49,13.4,71.5,25.2c7.9,3.5,65.7,41.4,41.5,45.4c-18.8-13.8-39.2-28.1-63.2-37.5
				c-34.2-11.1-71.8-24-104.2-16.3C546.4,692.5,568.4,722.3,558.8,727.8z"/>
			<path d="M728.1,577.3c19.7-46.9,39.3-94.5,62.1-140c51.5-92.9,114.7-180.7,188.7-257.3c11.3-6.4-0.5-16-9.3-10.3
				c-45.9,23.9-80.4,64.4-119.7,97.5c-82.2,78.1-141,176-190.4,277.4c-4.5,9.3-7.4,19.5-13.1,28c-3.5,5.3-2.4,15-8.8,15.9
				c-23.8,1.8-41.5,12.4-57.8,29c-3.6-16.3-7-32.5-16.1-47c-4.8-7.5-14.7-12.1-16.1-20c-5.2-29.8-19-54.6-40.7-74.9
				c-31.3-30.2-52.2,9.7-36.4,36.5c10.8,23.7,30.5,33.5,53.2,40.9c4.3,1.4,13.3-0.1,12.5,4.2c-3.7,19.2-5.6,38.2-1.4,57.5
				c0.8,3.5,2.1,9.2,0.5,10.5c-18.6,18.3-22.1,45.5-21.7,70.3c0,8.4,10.5,22.6-10.6,19.8c-0.9-0.1-2.3,1.7-2.8,1.4
				c-3.1-2-7.9,6.1-8.7-0.1c-3.6-26.6-15.3-48.6-34.4-67c-1-1-1.6-0.7-0.6-2.8c9.4-21.2,26.3-39,29.9-62.9c1.6-10.8,4.2-23.8-6.5-30
				c-31.6-16.1-55.7,24.7-55.8,52.8c-1,18.6-2.9,36.9,6.2,54.4c1.4,2.7,4.8,6.3,2,9.9c-6.9,8.7-9.5,18.9-12.7,29.3
				c-1.3,4.2,6.3,12.4-3.5,12.6c-17.7-0.7-25.2,1.5-40.6,9.9c-1.3-6.4,6.4-11.1,7.5-17.3c9.1-31.5,1.3-67.1-15-95
				c-3.1-5.4-11.4-10-8.2-16.5c4.1-8.5,11.6-15.5,17.3-23.3c14.3-21.4,53-68.8,22.2-89.5c-45.9-3.1-77,62.9-59.1,101.6
				c2.8,5.3,13.1,10.3,6.9,19.8c-7.9,18.3-13.3,36.3-11.9,58.2C306.6,604,269.9,555,228.4,507.9c-13.5-17.5-28.9-33.4-45.8-47.6
				c-48.2-41.9-105.9-73.7-167.5-91.1c-3.4-0.9-7.4,0.2-10.9,1.1c-0.9,1.3,0.1,3.7,1.6,5.3c14.8,13.7,29.5,27.3,43.6,41.7
				c31,33.6,63.3,66.3,89.1,104.1c31.3,43.9,55.3,92.8,81.5,139.9c6.5,10.4,9.5,24.6-4.9,30.8c-16.2,20.6-30.7,42.3-39.7,67.2
				c-7.4,20.4-15.5,40.6-16.7,62.8c-0.6,12-2.8,14.1-8.1,10.8c-32.5-30.6-97.6-91.4-143-91.8c-1.2,0.2-3.6-0.2-3.6,1.1
				c2.7,5.2,6.2,10,10.4,14.1c70.4,68.3,112,160.4,154.3,247.5c45.1,99.6,79,202.4,98.9,310.2c-31.3-73.5-74.6-122.4-135.8-171.8
				c-23.6-20.6-99.5-86.6-130-70.7c43.6,34.2,75.6,81.4,103.6,128.6c70.2,117.2,101.8,255.9,94.6,392c-0.5,2.6-0.2,7.3,3.9,7
				c5.6-0.7,1.8-10.8,3.6-14.7c11.3-182.6-55.8-372-182.1-505c42.2,18.8,81.9,50.4,116.4,82c62.8,51.9,115,120.3,133.7,200.9
				c8.6,57.4,13.6,115.2,14.9,173.2c2.1,19.8,0.5,40,0.7,60.1c0,1.1,2,2.2,3,3.4c7.8-42.8,2.8-89.3,0.9-133.3
				c-0.6-25.7-4.1-51-8-76.4c-17.6-143.2-60.2-284-123.4-413.7c-39.9-78.3-75.1-160.2-140.9-221.2c45.6,13,80,47.9,115.2,78.1
				c104,95.3,162,229.6,216.6,357c4.6,10.5,1.1,23,2.9,34.2c6.2,54.5,0.2,109,1.5,163.7l-2.1,0.3c-13-58.7-19.3-118.8-39.9-175.5
				c-29.3-88.8-62.9-179.3-120.3-254c-1.4,4.9,1.6,8.1,4.1,11.6c19.5,32.6,38.8,65.4,54.3,100.2c46.7,98.1,75.4,202.7,93.8,309.5
				c9,33.2,8.7,67.1,6.1,101.1c1.5,40.6-5.7,80.4-9,120.3c7.5-2.1,9.4-29.3,11-36.9c3-37.9,6-75.8,7.3-113.8
				c9.5-120.1,4.8-240.5-9.4-360c-8.6-62.4-23.9-123.7-36.4-185.3c-5.5-19.6-12.6-38.8-19-58.1c-0.5-1.5-0.5-2,1.7-2.2
				c10.8-0.6,21.6-2.1,32.1-4.6c3.5-0.8,10.7-8,13.6,1.3c21.8,69,44.1,137.9,50,210.4c27.5,148.6,17,299.8,18.9,449.9
				c-1,32.8-8,66.1-4.9,98.5c0.7,1.1,1.7,2,2.8,2.7c6.4-18.3,4.3-39,7.2-58.2c1.5-20,3.7-39.9,3.9-59.9
				c-3.1-49.6-1.4-99.2,0.9-148.8c-0.3-44-3-88-2.9-132c-4.2-29.4-4.5-59.4-8.2-88.7c-2.9-18-6-36-7.6-54.2
				c-5.6-57.5-18.3-114.1-36-169.1c-3.6-11.8-9-23.3-11-35.4c-1.5-9-16.6-19,0.6-28.7c3.3-1.8,2.3-3.7,4.5,0.4
				c9.4,18.1,20.4,35.4,35.6,49.1c28,26.5,35.5,142.5,46.8,185c30.7,156.5,34.1,316.9,22.6,475.6c-2.2,17.5-4.8,34.8-9,51.9
				c-0.9,3.4-4.4,8.2-0.9,10.2c4.5,2.1,7.7-4.1,8.7-8c7.6-32.3,11.1-65.2,12-98.3c2-79.8,3.8-159.7,1.3-239.4
				c-4.7-42.6-10.2-85.5-6.8-128.7c1.5-30.3,2.1-61.8,6.5-91.6c7.5-28.9,5-81,26.4-102c18.6-16.1,34.3-33.5,50.7-52.4
				c-9.5,75.3-20.6,148.4-25,224c-7.3,73.6-18.6,147.1-23,221c-6,89.5-8.1,179.1-18.2,268.3c-0.3,2.8,1.1,4.3,3.8,4.3
				c2.9,0,2.3-2.4,2.3-4.2c0-9.2,2.5-18.1,2.9-27.5c14.9-106.3,14-214,23.6-320.8c18.8-121.1,22.1-243.9,43.1-364.6
				c2.9-28.8,22.9-50.6,26.5-79c2.2-12,1.2-23.5-1.9-35.2c-0.8-3.2,0.5-7,0.9-10.5c5.7,3.5,13.5,4.3,18.7,7.9
				c4.9,4.5,17.7-1.6,15.9,11.2c-0.8,6.2-3.4,12.2-4.9,18.3c-20.3,86.8-38,174.5-46.8,263.3c-4.1,93.7-14,187-17,280.6
				c-1.7,17.4-1.1,35.1-6.9,52.2C542,1429,534,1470.1,527,1511.2c-2.1,11.7-2.9,23.7-4.5,35.5c-1.2,17-11.1,39.5-2.8,55
				c2.7,0.7,3.2-2.6,3.6-4.6c5.8-37.6,12.2-75.2,17.6-112.8c20.3-107.1,51.9-211.8,94.2-312.4c32-80.6,77.9-154.8,127.5-225.7
				c57.7-87.7,124.7-168.3,207.2-234.4c-46.6,60.3-80,129.2-120.8,193.5c-15.7,29.3-32,58.5-47.8,87.7
				c-15.8,39-34.1,77.2-46.4,117.4c-3.3,12.7-6.8,25.5-12.1,37.5c-16.7,24.8-36.3,49.1-53.4,74c-21.3,33.2-38,63.5-56.9,99.3
				c36.2-117.7,89.9-225.8,142.4-336.4c7.1-17.8,17.5-34.3,26.3-51.5c1.7-2.8,5.8-8.4,0.7-10.3c-74.9,133.9-141.4,273.4-182.7,421.4
				c-22.1,55.9-48.4,110.8-66.1,168.5c-4.5,18-26.2,77.7-16.8,90.5c9.3-9.3-1.3-5.1,5.8-20.3c27.4-102.6,65.9-203,118.2-295.6
				c43.7-74.1,93.2-144.9,153.9-206.2c43.1-44.4,85-88,137.3-122.3c-108,114.2-201.7,246.8-237.3,401.7c-0.6,5-1.3,9.8-3.8,13.7
				c-11.3,18.1-22.2,36.3-33,54.7c-25.9,49.2-42.9,102.6-50.2,157.7c-1.7,5.6,5.9,9.8,7.3,2.1c5.3-20.4,8.8-41.3,14.5-61.6
				c43.7-152.5,160.5-281.4,302-349.8c-32,27.7-56.2,63.3-81.1,97.6c-49,68.6-92.2,147.7-106.2,231.5c-1.9,16.1-16,74.2-4.8,83.8
				c4.2-0.1,4.4-5.4,4.4-9.3c0.1-16.7,3-33.2,6-49.6c6.7-32.8,11.8-66.7,22.9-98.2c24.3-53.8,50.3-107.6,86.4-154.6
				c13.5-17.8,28.1-34.8,40.5-53.4c15.7-23.1,36.6-41,57.2-59.2c10.7-7.2,1-11.4-6.4-6.5c-101.5,42.3-185.8,112-250.4,201.7
				c11.1-27.5,15.8-50.9,27.6-77.2c15.4-36.6,32.1-73.1,50-108.4c46-84.7,111.4-156.7,175.9-227.7c4.4-3.6,1.9-10.3-3.6-7.1
				c-84.5,43.3-144.3,119.7-210.6,186.3c7.4-32.1,22.2-59.9,34.5-89.8c20.9-55.8,52.1-106.6,82-158c34.3-53.8,60.2-113,100.9-162.5
				c4.2-4.9,2.2-19-6.6-12.8c-12,9.2-25,17.4-36,27.7c-132.7,125.6-239,279.6-311.6,447c-0.5-0.7-1.6-1.4-1.6-2.2
				c-0.1-26.8,4.7-53.3,6.8-80c5.3-100.4,14.4-201.3,38.4-299.2c2.9-11.1-1.6-28.1,20.1-26.5c28.3,2.1,57.4-3.5,84.8,8
				c3,1.2,12,4.8,10.4-1.5c-17.5-53.3-19.3-115.3-65-154.6c-1.1-1-2.6-3.2-2.3-4C719.6,605.4,722.8,590.9,728.1,577.3z M575.4,659.4
				c6-11.8,32-3,43.3-2.2c42.1,9.6,91.5,26.8,116.1,63.4c-43.3-34.8-97.1-54-152-57.5C578.5,665,570.2,667.4,575.4,659.4z
				 M542.8,557.1c21.4,20.5,39.1,73.3,25.5,97.1c-5.3,3.3-6.9-4.1-9.3-7.1C537.3,620.9,539.8,590.2,542.8,557.1z M530.5,546.5
				c-17.7-5.7-37-12.7-47.4-29.8c-4.1-7.5-9.7-14.6-7.9-24.2c-1.1-6.9-0.3-14.4,6.5-17c21.3-7.8,50.7,49.6,55,66.8
				C538.7,548.3,533.8,547,530.5,546.5z M535.3,637.9c0.9-1.9,3.2-3.1,4.5-4.3c6.9,10,11,21.5,22.5,27.7c3.9,2.1-0.3,5.7-1.5,8
				c-8.9,17.4-11.1,35-2,54.5c-10.3-5.4-19.9-7-29.3-9.6C515.1,694.6,525.8,658.9,535.3,637.9z M458.5,661.8
				c12.7,16.3,22.3,34.1,24.1,58.3c-0.8,6-9.8,7.3-15.1,12c-3.4,3.1-4.5-4-7.4-5c-11.9-4.3-9.1-12.3-7.5-21.8
				c1.8-10.7-1.8-21.3-8.3-30.5c-6.1-8.7,3.4-12.9,6.8-18.1C453.1,653.5,456.9,659.6,458.5,661.8z M438.8,583
				c5.4-11.4,11.3-21.5,25.4-22.8c7.9-0.8,13.9,1.1,14.6,10.1c-0.3,25.2-15.7,43.9-26.4,64.6c-4.9,7.9-7.8,17.6-14.4,24.1
				C426.5,644.4,430,600.1,438.8,583z M429.8,691.6c0.6-5.7,4.9-11.1,7.5-16.5c7.1,9.9,7.5,20.5,8.1,31.6
				c0.7,12.5-5.6,10.2-12.3,7.5C419.8,708.8,429,699,429.8,691.6L429.8,691.6z M353.8,521.5c4.7-13.9,46.1-51.4,47.2-17.9
				c-2.8,30.7-28.5,54.5-44.1,79.7c-2,3.7-5.8,4.5-7.6,0.1C340.5,562.1,343.5,541.2,353.8,521.5L353.8,521.5z M354,603.7
				c23.9,34.4,35.3,82.3,10.5,119c-1.5,2.5-3.9,2.4-5,0C339,684.2,338,644,354,603.7L354,603.7z M344.5,722.9
				c-40.7,3.1-78.1,15.3-113.2,35.8C253.3,737.1,315.6,702.8,344.5,722.9L344.5,722.9z M184.6,580.9
				c-21.9-37.5-44.2-74.8-72.7-107.8c-27.2-32.9-61.2-60.6-88.7-92.8c134.8,34.1,247.2,170,307.2,290.3
				c-16.8-11.2-32.7-20.1-54.2-16c-8.5,1.2-7.9-8.8-11-13.6c-32.3-54.1-60.9-111.4-104.7-157.4c-9.4-9.6-19.8-18.3-29.9-27.3
				c-1.3-1.1-3.4-1.3-6.3-2.3c59.9,57.1,102.5,126,139.4,199.2c1.7,3.1,0.7,2.9-1.8,4.1c-5.7,2.7-11.2,5.9-16.3,9.7
				c-18.2,14-16.5-6.7-20-12.8C211.7,629.9,199.9,604.5,184.6,580.9L184.6,580.9z M166.1,817.8c13.5-59.5,52.6-154.9,124.8-154.5
				c34.8-0.9,62.4,48.7,45.1,45.7c-71.6-1-134,49.9-167,109.8C168.6,822.3,165.8,820.7,166.1,817.8L166.1,817.8z M307.8,899.9
				c21.2,87.2,39.4,172.8,45.8,263.1v-0.8c0.7,4.2,0.9,5.2,1,6.3l-1,0.1c-17.2-52.2-43.5-97-67.1-145.7
				c-32.4-60.7-66.5-122.6-116.1-171.1c-3.5-3.2,1.2-4,2.8-4.6c36.6-12.8,76.2-8.3,113.9-3.8c6.5,0.9,5.9,8.7,7.6,13.4
				C299.8,870.9,304.6,885.2,307.8,899.9L307.8,899.9z M346.5,826.7c-20.4,8.7-42.1,11.5-63.4,7.7c-27.3-4.8-54.5-3-81.8-3.3
				c-11.6-0.1-22.4,4.9-34.9,9.2c34.3-56.6,90.4-98.5,156.4-105.6c11.4-1.3,37.8-9.8,34.2,10.8C335.2,804.7,377.5,817.7,346.5,826.7
				L346.5,826.7z M369.2,817.5c-29.6-57.4,7-114.7,73.5-92.1c14.3,5.3,17.2,19.3,21.9,31c12.4,30,14.2,62.9,17,94.8
				c3.2,18.5-0.8,37.2,2.7,55.7c1.7,9.1,0.5,18.8,0.6,28.2c0,2.2-0.9,2.1-2.4,0.9C440.6,900.4,393.6,868.3,369.2,817.5L369.2,817.5z
				 M444.4,990.1c-7.8-29.5-13.6-59.2-20.7-88.9c16,10.7,30.5,23.5,45.8,35.1c2.1,1.6,3.1,3.7,2.3,5.5c-11.4,29-16.3,52.2-22.3,84.3
				C447.5,1011,447.6,1000.1,444.4,990.1L444.4,990.1z M486.5,956.8c-11.5,56.8-17.4,109.2-20.4,169c-2.6-19.4-4.1-35.9-7.3-52.1
				c-2.7-13.8-5.7-27.2-1.9-41.3c7.5-26,11.3-53,20-78.5c0.8-3-0.5-9.1,2.6-8.1S486.8,953.1,486.5,956.8L486.5,956.8z M494.9,901.3
				c0,1.1-1,2.2-1.5,3.3c-0.7-1.8-2.1-3.7-2.1-5.5c0.1-43.1-1.8-86.5-13.7-128.3c-2.7-9.3-4.9-18.6-9.7-27c-1.3-2.2,0.4-2.4,1.1-3.5
				c1.7-2.5,2.1,0.2,2.6,0.8C508.3,786,491.9,847.8,494.9,901.3L494.9,901.3z M586.1,797.9c-11,55.9-49.2,97.1-90.4,134.2
				c12.9-44.5,20.5-165.6-19-195c-3.9-2.2,1.1-3,1.1-3.1c32.7-18.4,89.4-12.7,104.1,25.6C586,771.9,587.5,784.9,586.1,797.9
				L586.1,797.9z M658.1,788.2c-19.6,79.7-30.7,161.7-35.1,243.6c-5.1,60.8-9.7,121.7-14.5,182.4c-1.8,12.4-9.4,23.8-13.6,36
				c-9.5,28-18,56.3-26.8,84.5l-1.6-0.1c11.4-140.8,10.7-283.1,38.8-422c10.3-46.9,19.7-94.1,31.3-140.7c0.8-3.5,4.2-1.4,6.3-1.7
				c1.5-0.2,3.2,0.8,4.8,0.8C661.6,771.4,662.2,774.3,658.1,788.2L658.1,788.2z M750.7,764.5c-41.4-6.1-83.1,2.6-124.2-6.9
				c-36.8-8.6-83.4-45-56.6-85.1c2.1-2.4,8-1.4,12-2c51,4.3,99.8,20.1,140.3,51.8c13.7,9.7,22.8,23.4,35.8,33.4
				c1.9,1.5,1.9,5.5,2.8,8.3C757.4,764.3,753.9,765.1,750.7,764.5L750.7,764.5z M744.2,679.9c7.7,18.3,12.9,37.3,17.1,58
				c-38.9-57.9-98.4-84.3-165.4-92.8c-4.8,2-14.2,1.5-14,0.8c2.8-29.1,26.1-45.4,53-47.1C683,598.6,726.2,636.6,744.2,679.9
				L744.2,679.9z M707.2,615.4c-6.3-3.8-12.5-6.5-17.3-10.8c-3.6-3.2,0.1-7.9,1.5-11.3c8-19.8,16.3-39.5,24.4-59.3
				c12.6-29.9,30.4-57.8,45.5-86.7c0.8-1.6,1-5.1,0.3-5.4c-2.1-1-2.1,1.6-3,2.9c-34.2,46.8-54.6,101.3-75.8,154.7
				c-1.5,3.5-4.3-0.4-5.7-1c-7.8-3.6-15.8-6.4-24.4-7.5c-4.9-0.6-4.4-4.8-3.2-7.3C706.9,465.3,770,344.5,872.1,258.4
				c32.5-28.9,60.5-63.4,100.8-83.1C849.9,301.3,759.5,446.5,707.2,615.4L707.2,615.4z M775.4,1375.7
				c-38.5,60.9-61.9,131.4-74.4,202c-1,6.1-0.7,12.8-5.6,17.3c-3.4-2.8-4.9-6.3-4.1-12.8c5.5-33.2,16-70.3,25.8-104
				c15.8-49.2,40.7-94.2,70.1-136.4c23.9-36.1,50.6-69.8,81.9-99.8c1.3-1.4,1.9-0.5,2.7,0.2c2.5,2.2,0.7,3.8-0.7,5.4
				c-12.2,14.3-24.8,28.4-36.6,43.1C813.4,1318,793.9,1346.6,775.4,1375.7L775.4,1375.7z M640.8,1416.7
				c-23.3,57.9-37.4,119.1-48,180.5c-1.2,3.7-7.6,5.7-5.8-0.7c10.6-88.6,38.9-174.5,77.3-254.7c20.1-40,39.2-80.2,61.7-118.8
				c9-14.7,16.5-31.5,29.8-42.5c-17.8,42.5-45,76.9-61.3,119.5C676.1,1338.5,654.5,1375.8,640.8,1416.7L640.8,1416.7z M353.7,1164.9
				c-0.3-0.6-0.1-1.2-0.2-1.9L353.7,1164.9z M273,1596.4c2,6-5.9,5.9-6,0.3c1.2-25.5-0.8-50.8-2.4-76.2c-2.4-130.8-63-251-139-354.4
				c-0.7-1.1-3.1-2-1.1-3.4c2.7-0.7,5.3,2.5,7,4.4c39.8,48.3,72.2,103.9,98.6,160.5C265.8,1412.2,275.9,1505.2,273,1596.4z"/>
		</g>
	</g>
</g>
<g>
	<g id="Layer_1_2_">
		<g transform="matrix( 1, 0, 0, 1, 0,0) ">
			<g>
				<g id="Layer0_0_FILL_1_">
					<path d="M52,1548v15l-37,37h946l-37-37v-15H52 M52,52V37.7L14.3,0H0v1600h15l37-37v-15V52 M924,52V37.7L961.7,0H14.3L52,37.7
						V52H924 M976,0h-14.3L924,37.7V52v1496v15l37,37h15V0z"/>
				</g>
			</g>
			<g>
				<path id="Layer0_0_1_STROKES_1_" class="st5" d="M961,1600h15V0h-14.3L924,37.7V52v1496v15L961,1600H15H0V0h14.3h947.4 M52,52
					V37.7L14.3,0 M15,1600l37-37v-15V52h872 M924,1548H52"/>
			</g>
		</g>
	</g>
</g>
</svg>
