<svg xmlns="http://www.w3.org/2000/svg" xmlns:xlink="http://www.w3.org/1999/xlink" viewBox="0 0 976 1600">
<style type="text/css">
	.st0{fill:#FFFFFF;}
	.st1{clip-path:url(#SVGID_2_);}
	.st2{fill:#5D4E8C;}
	.st3{fill:#333333;}
	.st4{fill:#FFEB5C;}
	.st5{fill:none;stroke:#333333;stroke-width:2;stroke-linecap:square;stroke-miterlimit:3;}
</style>
<g id="Paper_Backing">
	<path class="st0" d="M960,22v1556c0,3.3-2.7,6-6,6H22c-3.3,0-6-2.7-6-6V22c0-3.3,2.7-6,6-6h932C957.3,16,960,18.7,960,22z"/>
</g>
<g id="Wikipedia_Cropped">
	<g>
		<defs>
			<path id="SVGID_1_" d="M960,22v1556c0,3.3-2.7,6-6,6H22c-3.3,0-6-2.7-6-6V22c0-3.3,2.7-6,6-6h932C957.3,16,960,18.7,960,22z"/>
		</defs>
		<clipPath id="SVGID_2_">
			<use xlink:href="#SVGID_1_"  style="overflow:visible;"/>
		</clipPath>
		<g class="st1">
			<path class="st2" d="M459.5,1054.8c-43-41.1-105.3-64-118.9-134c-6.8-6.4,1.1-28.9-13.7-20.8c-33.5,37.3-98.3,44.5-147.6,56.9
				c-10-1.4-32,18.2-30.7,0.6c-19.9-57.4,35.9-196.8,112.3-190.4c20-0.9,56.9,36.8,25,44.5c-30.2,12.5-77.8,37.8-83,64.6
				c40.4-2.9,139.9-116.7,146.4-15.1c1.7,17,23.2-5.9,27.9-5.3c39.2-28.3,63.1,65.1,74,96.9c9.2,20.3,2,51.1,16.2,64.8
				c19.9-22.9,0.7-70.3-5.9-100.8c-14.9-57.7-76.9-96,26.2-87.5c23.1-0.8,44.4,38.7,54.6,6.7c16.7-40.4,73.8-2.9,103.9,6.3
				c17,4.5,29.8,25.1,44.1,20.3c-9.4-33.7-66.8-52.2-95.9-58.1c-11.2,2.9-28.2-1.5-21.3-15.3c61.7-145.9,172.6,3.4,161.9,99.8
				c1.2,10.7-5.1,20.6-6.3,29.8c1.7,5.5,10.5,18.2,1.6,20.4c-57.5-8.3-119.3,12.6-173.4-15.5C543.2,975.2,509.1,1032.1,459.5,1054.8
				z M404.6,810.9c-28.5-37.7-31.8-96.2,1.2-131.4c14.4-13.6,41.4-5.9,37.2,15.7C442,731.4,425,783.2,404.6,810.9z M316.1,750.9
				c-22.6-32.1-21.4-98.9,6.4-131.7C402.4,559.8,341.1,732.3,316.1,750.9z M534.4,690.7c-73.5-27.2-51.8-160.3-10-82.3
				C529.6,630.4,545.9,672.1,534.4,690.7z"/>
			<path class="st3" d="M637,1604c-31.3-0.1-83.7,0-115.3,0c-4.7,0-4-5.8-4-9c0-3.8,5.7-4.3,5.5-8.5
				c12.3-213.5-1.1-430.7,34.1-642.2l0,0c-0.3-32.7,19.2-10,37.6-6.8c15.1-1.5,12.7,8.9,28.5,3.5c27.4,1.5,50.5-5.4,77.2-3.9
				c9.7,5.9,16.7,1.8,26.8,5c10.4,2.1,8-11.8,7.7-18c-5.7-12.7,7.1-28,1.7-39.4c-6.7-27-8.2-55.1,16.5-74.3
				c55.4-62.2,122-124.9,207-141.1c3.5,0.4,4.8,5.4,1.7,7.3c-34.2,23.4-55.1,53.5-83,81.1c-65.9,79.7-122,167.5-159.6,264.1
				c-22.2,68.7-54.8,153.1-43.3,223.7c30.8-25.5,52.1-80.3,84.1-107.4c46.5-53.4,108.2-99.7,177.8-119.3c4.7-1.9,17.9-5.6,13.2,3.9
				c-76.4,65.1-142.7,149.3-187,236.2c-17.8,37.8-50.3,100.3-41.1,137.3c46.8-54.3,98.7-118.2,159.3-159.2
				c24.9-22.5,112.4-67.4,38.5-5c-91.1,92.5-148.8,230.7-155.8,359.6C792.4,1618.8,639.3,1597.6,637,1604z M407.5,1604
				c-55-0.9-165.5,0.5-218.6,0c-9.7-15-7.7-40.1-19-60.1c-20.2-53.5-50.3-102.8-88.5-145.4c-15.7-29.4-125.5-103.6-11.9-51.3
				c70.1,35.6,134.1,99.9,164.7,174.3c10.8,16.4,10,43.6,24.6,54.7c10.7-1.4,4.7-19.3,6.3-25c0.6-57.4-0.2-116.5-9.9-173.8
				c-12-94.3-32.5-182.2-71-270.5c-22.2-32-62.9,205.9-68.1,216.6c-22.8-90-48.1-220.7-0.2-308.5c14.3-22.2,34-14.2,52.5-10.7
				c56.7-32.4,81,59.7,104.4,95.5c22.2,13.3,4.2-32.4,3-42.3c-31.4-161.7-53.6-82.8,41.3-145.8h0c6.7-6.5,17.3-14.8,18.1,1.5
				c1.2,31.5,18.2,47.9,30.4,74.1c10.3,32.6,22.8,63.6,33.5,96c44.8,135.5,65.4,273.6,69,414.2c-0.5,29.8,5.5,59.9,1.3,89.7
				c-1,4.8,5.8,5.5,6,9.6c0.2,2.7,0,7.6-4,7.3L407.5,1604z M191.9,794.4c-42.7-70.1-75.2-155.2-129.1-220.9
				c-2.3-2.8-4.9-9.5,1.2-9.9c72.3,49.6,139.4,116.2,186.6,198.5c-11.7,6.8-30.6,8.2-40.4,18.1C203.6,784.8,200.1,792.4,191.9,794.4
				z M695.9,759c-17.7-13.7-35.7-34.6-60.5-31.7c-8.3,0.2-21.1,11.2-27,5.8c22-111,71-226.4,145.2-314.6
				c15.7-25.5,191.9-183.2,209.9-152.2C823,396.3,738.7,574.4,695.9,759z"/>
			<path class="st4" d="M457.2,1153.4c-24.4-4.5-24.5-44.7-15.4-62.2c-5.3-11.5-13.2-22.2-10.3-35c2.4-41.8,28.4,0.9,34.6,17.4
				c3.7,15.3-4.2,13,4.9,28.1C481.7,1120.1,484,1149,457.2,1153.4z M467.9,1030.7c-17.6-58.1-18.4-136-69-181.3
				c-22-4.3-0.4-25.2,9.6-37c7.4-16.3,12.6-36,22.9-50c16.2,9.5,17,38.5,19.6,61.3c-1.1,12.2-23.5,8-25,21.6
				C459,891.3,487.9,974.9,467.9,1030.7z M209.6,876.7c-24.7-11,66.3-66.6,85.6-65.7c15.4-3.5-11.3-35.9,15.6-49
				c15,3.5,4.5,27.4,9.4,38.1c3.3,4-0.9,11-2.1,15.7C286.7,832.2,246.3,852.5,209.6,876.7L209.6,876.7z M688.4,867.1
				c-34.6-23.1-73.7-43.1-116.2-47.3c-7,0.9-14.9-12.3-19.1-0.5c-7.1,7.3-12.1,28.4-20.5,29.6c-10.5-3.9-17.5-15-31.2-16.3
				c-3.4-0.8-8-3-9-13.6c-2.5-30.8,15.1-53.7,30.5-74.3c7.7-0.6,5.5-10.1,6.7-15.5c13.7-87.9,41,48.3,40,72.3
				c15.6,5.2,33.2,3.3,49.3,9.6C634.2,815.2,713.4,856.7,688.4,867.1L688.4,867.1z"/>
			<path d="M978.6,1190c-59.2-13.9-235.8,153.5-259,212c28.5-135.5,105.3-255.3,205.5-349c14.3-13.4,28.3-27.6,46.5-36.2
				c2.3-1,2.8-5.6,0-6.4C840.6,1019.1,738,1141,675,1246.7c14-207.4,116.9-399.2,262.3-544.8c10.8-11.3,22.1-22.8,37-29.3
				c2.5-1.2,3.2-5.8,0.6-7.3c-22.4-4.6-44.2,5-64.4,13.7c-72.2,29.5-128.7,87.2-177.4,145.9c-5.2-9.2-6.4-20.3-10.8-29.9
				c-19.4-35.4-20.5-34.1-10.3-75.3c10.1-34.7,18.6-69.8,29.6-104.2c34.9-90.7,80.9-176.8,141.5-253.2c29-34.6,55.8-72.2,92-99.8
				c3.7-1.8,5.2-7.6,1-10.1c-56.7,10.4-102,53.1-147.2,86.6C761.8,390.5,708.6,458,671.7,534c-26.2,51.8-45.9,107.2-62.1,162.8
				c-6.2,30.5-21.8,55.6-37.9,79.5c-1.7-18.4-8.8-37.9-12.3-56.2c-2.3-12.2-14.2-18.5-15.9-31.8c-3.9-31.2-4.8-63.3-20.4-92
				c-9.4-23.8-38.8-19-42.3,6c-2.6,31.6,12.6,65,38.1,83.9c11.4,7.3,19.2,9.5,10.1,25.4c-3.5,11.2-1.9,24.1-11,33.6
				c-20.2,21-31.5,45.5-29,75.4c0.1,1,1.3,3.2-1.5,3.1c-53.8-1.2-18.8,5.4-41.4-50.4c-2.3-6.8-9.8-13.1-9.5-17.4
				c4-24.2,18.2-48.6,9.5-73.9c-6.4-22.2-38-17.5-48.5-0.8c-8,10.6-12.1,22.5-15.2,35.7c-5.9,25.2-1.5,48.4,5.5,72.4
				c3.3,11,21.1,20.3,7,33.9c-8.3,8-3.5,23.3-17.8,27.6c-8.1,2.5-15.1,8.2-22.7,12.5c5-21.8-11.9-42.2-30.7-52.1
				c4.7-8.7-0.9-17.3-0.4-25.9c0.8-15.7-4-31.6,7.1-46.4c20.5-33.5,33.7-72.4,38.8-111.5c1.1-11.2-11-27.6-21.3-26.2
				c-21.5,3-45.3,27.3-46.6,48.5c-1.2,18.4-6.2,36.2-2.8,55.3c2.5,13.8,4.3,27.7,9.3,40.6c3,7.9,3.3,12.5-3.6,17.5
				c-2.7,2.1-4.6,5-5.6,8.3c-5,14.9-11.6-5-27-8.8c-5.4-2.2-12.2,1.5-16.3-4.7c-44.8-68.1-98.7-131.1-164.3-179.9
				c-10.6-6.3-59.6-50.6-66.1-43.8c-2.3,3.2,1.6,5,3.5,7c28.6,26.7,50.8,58.3,70.5,92c28.3,48.7,58,96.6,79.8,148.7
				c2.6,5.9,10,12.4,5.8,18.7c-22.4,31.9-36.1,69.7-42.9,107.9c-3,17.6-3,35.8-3.8,53.8c-0.3,5.8-1,15.5,8.6,12.2
				c9.4-3.2,18.5-7.4,27.9-11c20.3-7.8,42.7-6.1,62.9-14.1c4.6-1.8,8.7,0.4,10,5.7c13.1,53.2,25,104,36.6,158
				c-10.5-19.9-16.8-34.7-26.8-53.2c-8.8-14.7-18.9-28.7-27.4-43.6c-11.8-20.7-32.3-30-50.8-21.1c-21.4,14-34-11.7-57.1,4.9
				c-26.2,21.5-33,58.1-34.7,90.4c-0.5,18.8-3.2,37.5-3.3,56.2c1.6,32.9,6,66,10.1,98.7c3.1,19.7,6.9,39.4,11.8,58.8
				c3,12.2-0.8,28,16.2,35.6c-1.6-5,0.7-8.4,1.3-11.8c5.6-31.9,6-65,15.6-96.1c13.6-42.2,22.6-85.6,40-126.6
				c26.2,52.8,41,111.2,53.6,168.8c23.9,100.8,31.5,199.9,29,304.1c-22.5-77.4-63.1-146.6-126.6-196.5
				c-38.5-28.9-81.2-54-128.6-64.3c-5-1.2-10.2,0.6-13.4,4.7c-1.7,2.3,1.7,6,4.8,6.6c34,12.8,71.2,62.3,95.2,90.3
				c42.5,52.8,72.2,115.2,90.7,180.3c1,2.4,5,3.8,5.9,0.8c-2.8-35-19.4-67.1-33.2-98.9c-32-64.5-78.6-120.2-132.4-167.8
				c73,21,132.6,73.7,177.1,133.5c26.1,39,41.3,84.1,56.4,128.2c0.5,1.4,0.2,3.3,0.1,5.1c-0.1,10.7,12.2,0.4,11.2-6.3
				c5.4-120.9-5.9-242.7-35.8-360.1c-13.1-46.1-27.9-92.2-48-135.8c-1.3-2.8-1.2-4.5,0.1-7.4c5.2-11.7,9.8-23.6,15.2-37
				c63.9,113,97.7,238.9,106.9,367.8c4.1,58.3,1.8,118.1,6,175.8c8.5-4.6,3-49.7,4.5-61.2c3.3-101.8-8.1-203.6-33.7-302.2
				c-9.5-46-29.5-88.7-48.6-131.3c-8.3-17.4-16.6-35.2-29.1-50.3c-2-2.4-2.7-3.6-1.3-6.7c4-9,7.3-18.3,11.1-27.4
				c0.5-1.2,1.5-4.3,3.7-1.8c14.3,15.4,22.7,34.9,33,53c40.2,71.7,63.6,151.8,81.2,231.6c11.3,65.1,17.8,131,21.2,197
				c3,33.2,0.9,70.2,6.4,102c8.1,0.8,3.3-51.9,4.2-59.9c-2.4-62-6.1-124.4-14.3-186c-9.1-71-30.8-139.3-51.2-207.6
				c-9.4-35.7-14.9-72.2-24.4-108c-3.6-15.7-6.8-31.5-10.7-47.1c-3.7-14.9-8.1-29.6-12.1-44.4c-0.1-0.3,0.6-1.1,0.9-1.2
				c6.9-0.4,12.8-4.1,19.2-5.8c7.2-1.9,18.4-10.6,19.1,7c18.1,43.5,30.7,89.2,41.5,135.2c27,93.1,41.1,189.7,53.4,285.4
				c7.2,60.4,8.4,121.4,12.5,182.1c1,16.1,2.5,32.2,4.1,48.2c0.2,1.9,1.9,3.6,2.8,5.3c6-9.1,1.2-20.8,1.5-31.1
				c-1.3-22-3.1-43.9-3.8-65.9c-4.3-124.4-20-248.1-47.1-369.6c-17.8-66.1-33.3-132.8-59.3-196.3c-2.2-6.3-1.8-11.8,6.4-15.3
				c7.5-3.1,13.9-8.8,20.7-13.6c1.5-1.1,1.8-4.4,4.3-3.5s2,3.7,2.2,6c1.6,14.5,4.8,28.5,11.4,41.7c5.7,11.5,15.1,20.2,19.2,33.1
				c10.2,32.3,22.9,63.9,33.5,96c44.1,132.7,65.3,273.2,68.8,412.7c-0.8,19.4,2.4,39,2.9,58.5c0.3,11.5-1.1,23.1-1.9,34.6
				c-0.3,4.5,3.2,6.2,6.2,6.4c2.3,0,4-2.7,4-5.6c0-35.3,1.3-70.7-0.6-105.8c-2.4-53.6-1-107.1-2.8-160.7
				c-3.9-48.8-7.5-97.9-13.9-146.5c-1-8.5-7.6-20.5,9.5-21.3c3.7-2.9,6.2-4.3,7.4,1.3c23.5,120.5,19,243.7,21.7,365.5
				c-3.1,23.9-0.5,47.8-1.4,71.7c0,1.2,1.8,2.4,2.7,3.6c1-0.8,2.8-1.5,2.9-2.4c3.2-31.9,4.1-63.9,2.8-95.9
				c1.1-105.3-3.1-210.4-15.2-315c-1.2-10.8-2.6-21.8-5.6-32.2c-2.6-9.3,1.6-17.4,1.8-26.2c0.5-17.9-15.5-29.8-13.5-49.9
				c3.1-33.3,35.1-46.4,52.5-71.4c8.1-10,13.2-21.5,22-34.3c-13.2,70.3-11.4,137.9-15.1,208.6c-0.6,37.5-6.2,74.4-4.6,112.1
				c1.8,18.4-2.3,37.2-2.8,55.9c-3.1,80.4-1.4,160.5-4,240.9c-3.2,8.4,7.8,7.6,7.9-0.3c6-124.4,5.6-249.3,11.6-373.8
				c2.1-95.5,6.3-191.7,25.2-285.7c9.8,5.1,20.1,9.2,30.7,12.2c3.9,1.1,13.9-3.4,12.6,8.1c-8.8,52-7.4,120.9-14.5,179.9
				c-14,52-23,105.1-28.4,158.7c-8.8,101.6-21.5,204.7-4.8,306.2c2,6.3,7.6,4.6,6.9-2.1c-1.9-17.1-4.2-34.2-5.1-51.4
				c-0.8-16.7-0.1-33.4-0.1-50.1c2.8-160.4,19.1-323.3,79.3-472.9c7.6-20.6,17.3-40.5,27.2-60.1c2.9-5.7,2.3-15,10.4-16.6
				c7.8-0.7,19.2-2.2,26.2,1.6c-42.9,83.3-83.3,222.3-93.3,340c-1.8,31-4.2,62-5.9,93c-1.2,20.8,4.2,41.3-3.3,62.7
				c-8.5,24.3-12.5,50.5-16.4,76.1c-0.3,10-14.2,91.4-4.4,86.8c6.1,0.1,4-13.8,5.7-18.3c3-53.9,16.1-106.4,28.3-158.7
				c6.7-35.3,21.5-68.1,34-101.5c13.3-36.5,32-70.1,53.7-102.1c56.8-90.5,139.8-173.2,245.6-200.8c-77.3,66.1-140.9,146.6-187.5,237
				c-27.2,47.5-41.3,101.5-49.1,155c-23,46.3-68.2,137.4-55,187.7c5.9-1.8,3.9-6.8,4.6-10.8c5.6-53.1,24.8-103.3,47.9-151.1
				c31.4-61,74.9-114.9,127.9-158.4c34.1-28,67.6-60.6,109.7-75.8c-86.5,67.5-136.2,173.1-167.6,276.9
				c-5.7,26.6-29.3,99.5-13.3,120.3c6.3-4.7,3.1-25.3,5.3-33.8c5.8-57.7,26.9-112.6,47.4-166.4c33-78.7,81.4-156.1,153.6-204.1
				C974.7,1195.1,980.6,1194.7,978.6,1190z M204.8,1024.1c-16.3,41.6-37.8,81.2-50.4,124c-16.9,56.1-34.5,112.8-38.8,171.4
				c-6.5-56.9-23.4-113.6-22-171.2c2.3-26.1,0.3-52.3,5-78.3c5.1-27.3,20.5-77,56.1-65.1c9.2,3.8,0.2,8.1-0.7,9.5
				c-23.8,40-48.3,126-35.8,170.5c7.8-6.9,3.8-17,4.8-26.1c2.8-48.6,14.9-97.6,38-140.7c8.6-15.8,35.5-26.2,49.2-8.7
				C212,1011.6,206.9,1019.1,204.8,1024.1z M611.2,725.8c26.8-89.9,56-180.8,110.2-258.5c50.2-75.4,155.4-171.1,239.4-203.9
				C825,393.5,730,566.7,697,752.1c-0.4,2-0.4,4.4-2.8,1.5c-9.7-12.1-22.7-19.4-35.8-27.1c-5.2-3.1-0.1-10.7,1.2-15.3
				c19.6-70.3,46.9-137.5,79.8-202.5c10.9-18.5,20.8-39.1,34.4-55.4c0.6-2.3,3.4-6,0.9-7.7c-31.4,34.5-52,77.8-70.6,120.5
				c-15.3,31.1-26.9,64-37.2,97.1c-6,18.2-12.8,36.1-17.3,54.6c-3.3,13.4-13.3,1.6-19.1,6.7c-2.6,2.3-9.3,1-13.5,4.3
				C613.7,731.4,609.9,733,611.2,725.8L611.2,725.8z M576.8,790.1c40.1-107.4,127.9-45.9,147.9,38.8c1.5,5.8-0.9,12.7,1.1,18.1
				c7,20.7,6,38.5,2.9,60.4c-24.2-59-78.7-104.1-142.1-106.7C581.1,799.6,572.6,802.4,576.8,790.1L576.8,790.1z M567.5,812.1
				c1-4.5,7.2-5.4,10.7-4.8c39.5,3.1,76.7,19.8,105.3,47.2c3.5,2,6.1,4,7.3,8.1c-6.1,2-8.2-4.1-11.4-6.5c-25.2-18.5-54.6-27-83.4-37
				c-6.7-2.3-14.2-2-21.3-3.3C571.9,815.5,566.4,817,567.5,812.1L567.5,812.1z M519.7,677.9c-18.5-14.3-52.3-80.4-15.4-89.4
				c23.1,10.3,29.1,74.9,30.1,98.2C529.4,683.8,523.6,681.8,519.7,677.9z M533.3,732.9c1.2-10.2,2-20.7,6.9-30.6
				c9.8,11.3,14,25.1,16.7,39.3c2.3,20,15.2,51.2,1.3,68.3c-2.4,2.3-5.5-0.7-6.8-2.5C536,784.9,530.1,759.8,533.3,732.9L533.3,732.9
				z M518.5,758.8c2.2-2.9,3.2-6.7,4.7-10.1c1,24.5,9.4,47.4,24.7,65.3c4.7,6.8-3.6,9.3-5.7,13.5c-13,34.8-8,6.6-39.8,1.1
				c-4.2-0.9-5.4-4.7-5.8-10C494.4,794.9,505,776.5,518.5,758.8L518.5,758.8z M447.1,823.6c0,3.8-2.5,2.9-4.4,3.7
				c-6.7,2.9-13.6,5.6-20.1,12.9c1.8-7.6-0.4-13.1-3.9-16c-10.4-8.3-5.5-16.7-0.7-24.3c6.6-10.6,8.3-23,14.3-33.8
				C443,782.5,446,804.1,447.1,823.6L447.1,823.6z M463.1,991.9c-6.7-49.8-23.4-100.2-54.8-139.9c0,0,0.7-0.8,1-0.8
				c7,0.8,14.6-3.2,20.2,5.4c13.1,19.9,21.9,41.7,29,64.1c5.5,17.4,7.9,35.7,11.1,53.8s-1.8,34.9-1.6,52.2
				C466.3,1015.1,464.6,1003.5,463.1,991.9L463.1,991.9z M461.3,1086.8c-6,5.8-11.9,2.9-17-1.6c-7.3-6.4-7.8-15.7-9.6-23.2
				c1.4-4.7,0.9-26.4,7.9-18.3C449.5,1053.4,469.6,1074.9,461.3,1086.8L461.3,1086.8z M387.6,734.8c0.9-23,12.5-65.4,43.8-56.7
				c9.8,3.8,7.4,13.2,7.6,21.1c0.4,20.6-6.8,39.5-13.7,58.3c-6.8,16.3-11.8,34-20.5,49.3C391.8,784.9,385,760.1,387.6,734.8z
				 M406.1,821.2l9.4,13.6c-0.6,4.7,2.3,10,0.6,9.1c-7.8-4-19.1,6.1-21.9-1.4C391.9,836.4,399.8,827.3,406.1,821.2z M305.2,684.9
				c2-22.4,3.1-45.5,20.1-62.8c7.6-7.7,16.7-15.8,28.9-8.8c16.6,14.5-13.9,85-21.8,104c-2.2,2.3-16.4,37.8-17.5,27.5
				C308,725.8,303.9,705.2,305.2,684.9z M311.7,765.8c6.3,3.3,1,29.5,5,35.9c0.9,1.8,2.1,7.3-1.5,7.3s-11.5,3.6-10.4-6.5
				c0.4-3.8-1.6-8.1-3.3-11.8C299,785.3,306,767.1,311.7,765.8L311.7,765.8z M314.1,816c-35.7,12.1-65.3,29.9-93.4,50.4
				c-4.2,2.3-8.4,6.7-13.4,6c18.7-24.5,47.1-42.4,75.4-54.7C291.6,814.4,301.7,813.9,314.1,816z M164.1,734.8
				c-28.7-58.7-61.6-114.4-100.2-167.1C139,620.5,198,685.5,246.9,760.5c-7.9,1-15.6,3.7-22.4,7.9c-15.2,9-14.8-7.6-19.1-13.7
				c-11-15.8-17.1-34.9-31.3-49.8c1.7,16.7,24.3,50.5,34.2,69.7c1.1,1.8-0.1,2.2-1.1,3c-4.2,3.7-8.3,7.5-12.4,11.3
				c-5,4.6-4.8-2-5.5-3.3C180.6,768.8,171.9,752,164.1,734.8L164.1,734.8z M158.3,880.3c10.7-36.6,25-73.2,57.9-95.6
				c25-19.4,68.1-20.3,78.2,14.5c1.5,7.1-8.3,7.7-12.7,9.3c-62.5,24.8-107.7,78-134.5,138.7C145.5,923.5,151.6,902,158.3,880.3
				L158.3,880.3z M327.1,894.1c-45,49.5-117.1,45.1-174.9,66.9c9.4-43.9,48-73.4,84.3-95.8c24.6-16.8,50.3-31.3,78-42
				c15.8-6.9,31.5,16.5,31.1,32.1C345.5,871.1,337.3,883,327.1,894.1L327.1,894.1z M352.7,940.8c-2.6-11-8.6-21.2-12.1-29.5
				c1.5-28.1,17.2-42.5,38.2-52c24.8-11.3,19.2-8.2,34.2,13.8c33.9,51.7,46.1,117.3,46.6,177.7
				C427.4,1010.4,364.4,997.6,352.7,940.8L352.7,940.8z M460.8,1280.5c0.4,28.8,4.5,57.5,3.3,86.2c-12.9-128-44.1-251.3-92.1-373.6
				c19.6,17.8,40.9,28.6,59.3,43.5c1.7,1.4-0.9,9.2-2.5,13.6c-4,10.6-3.1,22.4,2.4,32.2c3.7,6.8,1.3,13.2,0.6,19.1
				c-2,16.9-0.7,33,7.4,47.8c15.1,27.6,12,58.3,16.5,87.8C457.8,1251.5,459.7,1266,460.8,1280.5z M474.9,1129.6
				c1.2,10-6.4,13.7-13,18.2c-5.7,3.9-10.8-0.2-13.3-3.2c-9.8-10-7.4-25.3-7.6-38.2c0-5.1-1.3-11,7.5-7.4c5.1,2.1,9.9-0.2,15-1.3
				c4.1-0.8,2.9,5.2,4.3,8C471.5,1113.2,475.6,1120.7,474.9,1129.6L474.9,1129.6z M543.2,952.4c-12.5,39.6-41.3,65.2-71,93.3
				c16.6-68.5-1.6-139.9-39.1-198c-7-10.4,5.3-10.7,8.8-12.1C517.9,813.1,570.7,878.8,543.2,952.4L543.2,952.4z M613,998
				c13-75.6-11.6-44.1,50.7-55.9C613.3,1040.1,593.5,1148.8,613,998z M670.5,932.1c-13.5,0.7-26.2,5.3-40.4,4
				c-17.7-1.6-77.1-4.1-70.8-31.4c-3.8-52.2-31.4-44.1-10.2-72.8c9.2-19.8,25.8-8.2,37.7-6c58.8,13,125.4,46.6,143.3,108.8
				C710.2,933.6,690.8,930.1,670.5,932.1L670.5,932.1z M665.7,1259.6c-3.7,14.8-13.1,28.1-18.5,42.6c-12.8,30.6-23.2,59.5-34.6,90.8
				c1.6-27.9,3.1-48.7,3.2-75.3c4-93.3,34.1-219.1,62.9-293.3c8.6-27.1,19.6-53.1,34.3-77.5c3.5-6.7,18.9,1.9,25.5,1.5
				c0.7,0,3-4.4,2.3-5.8c-3-6.3-0.6-12.9-1.8-19.1c-6.7-39.2,42.3-85.9,61.2-119.6c0.5-1.1,0.4-2.3-0.2-3.3
				c-1.8-2.2-3.7-0.2-4.6,0.8c-22.2,24.9-37.8,52-56.2,80.2c-0.2-33.5-12.5-39.9,15.2-66.1c20.3-27.2,45.8-49,71.8-70.7
				c36.1-31.6,85.8-64.4,133.8-71.5c-21.9,14.6-38.8,32.9-55.3,51.8c-22.5,21.5-41.2,46.1-60.2,70.6
				c-38.2,47.7-70.5,100.1-97.5,154.9c-30.9,61.7-53.6,127-67.8,194.5C671.3,1182.8,669.5,1221.8,665.7,1259.6L665.7,1259.6z
				 M665.8,1438.7c-10.3,43.4-21.6,86.7-26.2,131c-1.7,5,0.6,36.8-5.7,35.9c-4.2-0.2-2.3-5-3.9-7.5c4.2-33.5,5.7-67.1,13.1-99.9
				c6.6-30.4,15-60.8,23.2-90.8c32.3-100.4,74.2-199.1,139.3-282.7c0.8-1.2,2.4-2.9,3.5-1.1c0.9,1.3,2.8,2.9,0.8,5.5
				C742.7,1222,694.9,1328,665.8,1438.7L665.8,1438.7z M773.3,1402.3c-26.9,52.2-44.5,108.7-52.3,166.9c-1.6,6.1-1.6,30.4-9.2,29.4
				c-2.3-0.5-2.2-3.7-1.9-6.7c3.5-32.3,7.8-64.8,18.3-95.8c14-52.3,37-101,67.2-145.9c1.8-2.5,12.8-17.7,13.6-12
				c-1.5,10-8.2,16.8-12.8,24.2C788,1375.5,780.5,1388.9,773.3,1402.3L773.3,1402.3z M227.8,1600c0.3,1.9-0.9,2.8-2.3,5.8
				c-1.5-2-4.1-3.8-4.4-6c-5.6-38.3-24.3-72.6-42.5-106.2c-10.5-21.6-22.9-42.1-38.1-60.7c-8.7-11.6-21.2-20.2-28.8-32.5
				C157.3,1412.5,223.9,1553.2,227.8,1600z"/>
		</g>
	</g>
</g>
<g>
	<g id="Layer_1_2_">
		<g transform="matrix( 1, 0, 0, 1, 0,0) ">
			<g>
				<g id="Layer0_0_FILL_1_">
					<path d="M52,1548v15l-37,37h946l-37-37v-15H52 M52,52V37.7L14.3,0H0v1600h15l37-37v-15V52 M924,52V37.7L961.7,0H14.3L52,37.7
						V52H924 M976,0h-14.3L924,37.7V52v1496v15l37,37h15V0z"/>
				</g>
			</g>
			<g>
				<path id="Layer0_0_1_STROKES_1_" class="st5" d="M961,1600h15V0h-14.3L924,37.7V52v1496v15L961,1600H15H0V0h14.3h947.4 M52,52
					V37.7L14.3,0 M15,1600l37-37v-15V52h872 M924,1548H52"/>
			</g>
		</g>
	</g>
</g>
</svg>
