<svg xmlns="http://www.w3.org/2000/svg" xmlns:xlink="http://www.w3.org/1999/xlink" viewBox="0 0 976 1600">
<style type="text/css">
	.st0{fill:#FFFFFF;}
	.st1{clip-path:url(#SVGID_2_);}
	.st2{fill:#5D4E8C;}
	.st3{fill:#333333;}
	.st4{fill:#D81E1E;}
	.st5{fill:none;stroke:#333333;stroke-width:2;stroke-linecap:square;stroke-miterlimit:3;}
</style>
<g id="Paper_Backing">
	<path class="st0" d="M960,22v1556c0,3.3-2.7,6-6,6H22c-3.3,0-6-2.7-6-6V22c0-3.3,2.7-6,6-6h932C957.3,16,960,18.7,960,22z"/>
</g>
<g id="Wikipedia_Cropped">
	<g>
		<defs>
			<path id="SVGID_1_" d="M960,22v1556c0,3.3-2.7,6-6,6H22c-3.3,0-6-2.7-6-6V22c0-3.3,2.7-6,6-6h932C957.3,16,960,18.7,960,22z"/>
		</defs>
		<clipPath id="SVGID_2_">
			<use xlink:href="#SVGID_1_"  style="overflow:visible;"/>
		</clipPath>
		<g class="st1">
			<path class="st2" d="M434.5,1288.9c-65.2-10.4-131.6-15-197-21.8c-31.8,0.5-44.6,2.2-20.1-30.8
				c60.6-96.5,120.2-195.5,161.2-301.7c45.1-136.4,76.8-281.5,91.1-424.1c3.3-58.5,11.3-117.1,9.3-175.6
				c0.9-19.3,17.9-7.2,28.9-10.5c274,11.5,229.5-79.9,212.9,145.8c-19.7,254-104.7,638.8-283.2,821.8L434.5,1288.9z"/>
			<path class="st3" d="M277.3,1505.5c-8.3-2.5-2.1-17-1.4-23.5c5.7-29.5,24.4-52.9,37.3-79c-7.4-15.8-58.8-8.3-57.2-19.7
				c27.7-45.9,75.7-90,129.8-96.3c16.8-3.5,49.7,15.8,62.6,1c17.2-22.6,31.3-53.2,52.6-69.7c15.7,8.7,45.5,7,52.7-11.6
				c8.4-16.9,11,30.2,35,27.1c11.7,3.7-6,35.8,7.5,42c2.4,32.7,23.4,41.1,48.3,43.9c6.8,71.7-47.6,131.7-100.2,174.6
				c-19,28.7-28-14-32.1-29.5c-1.4-5.1-7.6-5.4-10.9-2.1c-23.7,14-48.6,11.3-73.7,12.4C381.5,1477,321.7,1485.2,277.3,1505.5z
				 M844.6,1495c-36.6,4.1-60.4-21.9-79.5-43.2c-60.1,32.6-70.9,11.2-80.7-49.6c0.5-31.1-11.7-89.8,26.7-97.1
				c16.3-9.3,24-26.5,33.6-42.2c9.5-12.2,24.2-16.9,27.6-33.2c2.2-5.7,8-10.3,3.3-16.4c-8.1-22.6,46.4,21.7,56-18.2
				c6.4-36,121.2,34.4,119.3,58.9c-5,12.1-18.8,20-28.2,28.5c-12.3,6.1,21.3,35.8,12,66.7c-2.7,43.6-20,93.1-15,140.7
				c-4.7,2.8-10.7,1.8-16.2,0.7C883.8,1486,865.5,1497.3,844.6,1495z M232.9,895.1c-41.2,0.9-84-8.3-124.5-2.4
				c-13.3-3.4,3.2-17.1,5.7-23.8c45.4-62.9,34.3-32.3-20.8-63.3c-29.5-19.8-69.1-36.5-83.1-67.8c13.5-6.2,31.3-6.2,45.9-14.4
				c37.6-13.7,70.7-38.4,111.2-44c16.2-8.8-15.9-38.3-23.1-48.9c-6.6-7.8-3.1-10.8,4.6-12.6c68.9-34.2,155.9-20.1,219.4,21.1
				c86.3,54.2,67.3,70.8,46.1,153.4C410.4,884,304.5,896.4,232.9,895.1z M718,885.9c-12.1-12.9-11.8-26-33.7-26.6
				c-40.3,0.2-20.3-31.3-15-55.3c0.9-4.7,7.9-4.2,9.3-8.5c-4.3-14.6,4.6-27.5,11.4-39.7c-17.9-73.4,48.5-99.6,110.9-104.5
				c27.9-4.5,56.3-5.9,83.9-12.2c6.4-0.2,20.1-14.6,22.3-3.4c-11.8,127.4-99.5,124.5-37.8,160.6c60.3,29.1-67.8,86.5-93.8,87.3
				c-5.4,2.3-11.6-3.8-13.4-7.2C748.9,859.9,728,878.5,718,885.9z M444.5,638.8c-12.1-15.2-2.7-46.3-14.1-63.5c-4.1-1.8-9.2,1-11-5
				c-39.8-120.5-190.2-43.9-132-97c13.6-15,43.7-26.5,65.6-28.9c16.2-3.4,30,15.5,43.9,14.6c1.9-30.2-24.6-64.2-36-93.5
				c-1.3-8.8-10.9-5.1-17.1-6.7c-9.5-0.2-46.7-13.7-33.7-27.3c20.2-0.1,40.8,0.7,54.4-13.7c22.5-10.8,0.5-28.3,25.9-31.5
				c12-16.9,22.1,5.9,16.7,19.2c-1.2,5.4-9.1,9.2-5,15c4.8,8.8-14.6,16.9-4.7,24.4c25.6,55.7,73.8,138.6,64.3,205.1
				c-3.2,24.6-7.4,50-11.1,73.9C449.2,623.9,450.7,639.8,444.5,638.8z M715.6,578.5c-8.1-5.3,1.3-38.2,5.3-48
				c0.7-8.8-4.2-18.6,0-28.2c-0.3-21.5,16.8-29.3,27.2-43.3c37.3-59.3,104-51.5,146-8.3c-10.7,10-33.1,7-47.1,12.3
				C791.6,481.7,753.7,539.7,715.6,578.5L715.6,578.5z M152.7,394.6c-15.9-3.8-16.1-2.6-9.5-18.8c9.4-39.8,42.1-77.1,85.9-76.6
				c11.1-0.4,8.4,17,17.6,18.4c7.8,1.3,25.9,6,27,14.6c-21.1,15-56.5,10.4-79.2,26.9C178,366.8,168.2,386.2,152.7,394.6z
				 M427.2,257.5c-13.7-2.8-2.5-20.9-5.4-28.8c-1.4-5.9-3.9-27.8,7.6-22.8c39.2,4.6,112.1,0.1,130.3,39.8c9.6,2.9,2.3,10.9-5,8.9
				C512.1,244.1,470.2,252.6,427.2,257.5L427.2,257.5z M200,242.3c-13.6-5-24.4-21.8-39.3-25.6c-21.7-9.9-53.5,10-72-2.3
				c14-23.9,46.5-41.9,77.1-44.8c19,3.2,49.2,5.3,41,30.8C203,210.3,218,236.2,200,242.3z M411.6,187.9
				c-9.3,0.1-10.7-10.1-17.9-11.9c-42-14.7,26.8-36,40.4-46.4c28.5-12.8,56.1,11.2,81.2,21.6c5.2,4.1-2.6,10.5,1.5,16.3
				C473.1,179.2,465.5,147.3,411.6,187.9L411.6,187.9z"/>
			<path class="st4" d="M633.6,1316.4c-54.1-6.5-24.7-65.8-39.6-83.4c-24.4,3.5-27-36-39.8-24.5c-6.5,16.3-66.6,22.9-48-4.4
				c26.4-45.1,53.1-87,73.4-135.3c20.1-42.1,36.7-85.9,51.5-128.6c3.2-19.7,13.3-41.6,18.5-60.3c-0.9-11.6,5.4-31.5,20.4-21.6
				c14.4,5.4,30.9,0.5,39.6,19.1c2.3,3.9,2.5,10.7,8.3,10.6C728,882.7,734,869,746.4,871c16.1-0.7,22.2,19.3,39.3,19.8
				c13.3,2.6,21.7,12.8,22.9,27.9c4,12.7,19.6,26.5,18.5,40c-10.2,32.3,12.3,11.4,26.1,25.7c11.5,16.9-1.7,38.4,19.7,57.6
				c6.8,12.2,5.3,25.2-4.1,34.9c-12.7,14.9-5.5,43.1-27.6,50.1c-3.1,1.3-4.5,4.8-3.3,7.8c0.4,0.9,0.9,1.7,1.7,2.3
				c10.2,8.5,9.6,26.5-1.5,34.5c-5,8.4-3,19.4-9.3,27.7c-19.4,33.2-57.8-12-59.4,10.1c11.9,37.3-24.3,39.3-33.5,66.3
				C714,1324,671,1302.3,633.6,1316.4L633.6,1316.4z M311.9,329.9c-30.3,0.1-70.7-5.6-79-36.6c-29.5-0.2-44.3-37.4-23.7-59.6
				c6.3-8,0.7-20.5-0.5-30.4c-7.9-18.9,42.6-62.2,57.9-59.9c26.6-7.8,36.2,37,47.7,24.2c10.4-17.3,22.2-21,39.4-21.6
				c22.9,5.4,24.2,29.6,45.6,37.9c27.9,20.3,16.2,31.6,18.7,55.3c6,22.9-13.9,42.5-33.1,47.9c-3.7-0.6-7.8,1-8.3,5.1
				C373,321.9,338.8,331.4,311.9,329.9z"/>
			<path d="M961.2,1528.4c-0.1,11.6-8.6,14.1-16.6,14.1c-6.5,0-6-7.5-6.5-12.4C935.3,1512.9,962.4,1510.9,961.2,1528.4z
				 M942.7,110.9c-18.8-1.8-17.5,28.7,0.8,26c5.8-0.6,11.5-2.9,10.4-7C952.3,119.1,953.6,110.9,942.7,110.9z M923.3,1466.2
				c-2,10.6,10.5,39.5-10.6,30.8c-15.5-6.1-30.2,1.6-45.2,3.2c-36.5,4.7-79.8-0.9-97.3-38.1c-5.6-12-13,0.3-19.2,2.1
				c-14.9,4.3-30.3,13.2-45,6.2c-27.6-19.1-30.6-77.4-28.8-108.5c0.8-15.5,2.5-30.9,9-45.7c2.4-5.5-5.8-1.6-8-1.7
				c-8.4-0.3-16.8,1.6-25.3,2.6c-1.9,0.2-2.1,1.2-1.9,2.7c2.7,21-0.2,42.3-8.5,61.8c-20.8,54.2-65.1,93.7-108.3,130.6
				c-9.2,8.8-10.7-5.1-12.6-8.3c-6.7-11.4-13.3-23.3-14.8-36.9c-0.2-1.5-0.4-2.3-2-1.2c-25,17.6-53.9,13.4-82,15.8
				c-47.9,4.7-99.6,9-143.5,30.2c-24.7,17.9-6-45.2-2.3-53.3c4.7-13.5,11.2-26.2,19.5-37.9c7.9-9.8,17.8-19.5-1.5-21.2
				c-12.6-2.8-25.7-3.7-38.3-6.6c-26.7-10,40.4-72,53.8-77.7c15-8.6,28.2-20.6,44.3-27c-14.1-4.9-28.6-2.4-42.7-4.7
				c-21.1-3.5-42.4-7.1-63.6-7.3c-13-0.1-25.4-4.1-38.2-2.7c-15.6-0.2-19.9-11.5-11.1-23.1c72.8-122.8,153.2-246.4,191.1-384.9
				c-69,44.4-154.6,38.5-233.1,34.8c-18-0.5-36-3.5-53.9,0.8c-12,2.7-13.1-4-7.4-12.6c44.5-89.5,67.2-37.5-13.8-81.6
				c-13.3-8.2-25.9-18-38.9-26.3c-14.9-9.5-25.8-21.9-36.5-35c-9-10.9-4.8-16.5,8.6-16.5c54.3-6.9,98.7-53.3,153.9-53.5
				c-10.1-16.6-19.7-32.2-31.4-46.4c-13.5-19.5,42.6-29,55.4-33.3c89.7-17.8,181.3,23.2,240.4,90.1c13.9-52.7-12-108.1-40.4-151.7
				c-25.8-31.4-84.3-34.6-122.1-33.2c-9.4-0.5-37.1-2.2-20.9-15.5c18.6-14.9,39.5-26.6,61.9-34.5c28.1-14.5,55.8-18.6,80.7,4.9
				c-8.6-31.4-22.4-62.1-38.3-90.5c-1.3-2.1-8-0.8-12.2-1.2c-13.9-1.5-26-6.8-35.3-17.5c-10.4-12-20.9-12.5-36.4-6.5
				c-15.3,5.9-31.8,8.8-47.8,13.1c-37.8,7.9-59.5,41.5-84.5,67.8c-4,4.5-8.7,2.9-12.7,1.7c-3.7-1.1-1.1-5-0.5-7.4
				c9.1-33.3,21.6-66.4,41.4-95c13.5-15.6,32.9-18.7,51.3-24.2c-13.6-12.3-27.7-24.3-23.2-45.5c2.2-11.1-11.2-11.6-17.1-17.3
				c-19.1-18.6-42.5-9.9-64.7-8.4c-11.6,0.8-23.3,1.5-34.9,2.3c-4.5,0.3-9.1-0.8-13.6,1.6c-10.5,4.4-5.3-8.4,0.3-11.9
				c38.5-30.3,90.4-72.3,139.8-39.9c14.6-0.2,35.4-34.6,55.6-39.8c11.9-4.5,37.8,6.4,43.3,18.1c1.5,3.2,4.5,5.7,6.7,8.5
				c10.2-19.7,45.7-31.7,56.9-18.2c16.3,19.7,24.9,0.7,35.5-3.6c20.8-10.9,42.8-29.3,67.9-18.5c16.4,6.5,77.4,34.3,80.6,50.2
				c-12.3,9.4-54.5,1.7-69.9-1.2c-25-5.7-43.9,4.4-62.9,16.9c-0.6,0.4-0.9,2.7-0.5,3c3.9,2.7,1.4,10.8,8,10.5
				c49.8-0.7,103.1,6.7,145.4,34.2c7.3,4.7,14,10.6,21,15.8c7.7,5.4,1.2,12.4-6.5,11.1c-26.6-0.6-51.7-12.6-78.5-10.7
				c-27.3,2-54.8,4.2-81.7,8.8c-27.7,9.8,1.8,40.2-22.3,73.1c-6.5,9.8,3.9,15,7.2,21.4c21,45.1,43.9,88.3,51.4,138.2
				c4.7-9.9,2.5-18.6,3.5-26.9c2.1-16.4,0.8-33.2,2.6-49.5c2.5-21.8,4.3-43.7,5.4-65.5c0.6-8.9,0.5-17.9-0.2-26.8
				c-1-10.8,8.1-4.3,9.7-4.4c74.1-4,148.5-6.4,222.3-11.2c9.3-2.7,18.7-0.1,27.9-1.4c4.5-0.6,4.5,2.8,4.4,6
				c-0.8,53.6-3.6,106.9-9.5,160.2c23.8-22.8,40.2-59.1,75.3-64.1c36.8-5.2,67.1,12.5,97.7,29.8c4.3,1.9,7.3,4.8,6.5,9.7
				c-0.7,4.3-5.5,2.9-8.2,4.4c-19.3,10-41.6,8.5-61.7,15.9c-30,15.2-52.4,41-76.2,64.2c-11.6,14.6-45.8,44.1-45.9,61.1
				c-1.1,22.6-6.3,44.7-9.7,66.9c-0.6,4.1-1.9,9.9,0.1,12.1c3.6,3.9,6.9-2,9.8-3.8c40.4-26.7,91.2-26.4,137.7-32.7
				c20-2.2,40.1-5.4,57.3-18.8c4.2-3.3,5.3,5.2,4.6,8.8c-9.5,64.5-22.4,97.7-65.5,147.5c25.4,9.9,60.1,41.3,25.7,64.4
				c-26,21.2-51.9,41.3-86,47.2c16,3.2,20.8,13.6,22.8,25.5s13.1,17.9,16.6,29s7.3,21.2-0.6,31.9c20.2-5.1,38.2,4.5,36.2,23.7
				c-2.2,20.6,10.6,33.1,16.8,49.1c9.3,22.2-15.5,34-15.6,54.5c-0.6,14.5-10.3,27.8-23.8,32.6c12.7,7.1,12.7,16.9,0.5,43.7
				c42.7,10.1,85.4,29.4,111.1,66.7c6.1,8.4-0.7,23.9-10.6,29.1c-6.5,3.5-11.6,9.6-17.1,14.8c-0.7,0.6-0.2,3.4,0.6,4.5
				c11.4,15.8,17.3,33.4,15,52.9C935.9,1385.9,928,1425.9,923.3,1466.2z M425,226.4c43-2,85.9-5.7,127.1,11.3
				c-10.5-9-21.8-14.4-32.6-15.9c-29.7-6.1-58.9-12.9-89.5-10.9c-1.6,0-4-3.3-4.4-1.2C424.5,215.1,424.9,220.8,425,226.4z
				 M425,250.4c0.6,2.4,0.1,3.6,3.6,3c20.3-2.9,40.9-4.1,61.2-7.2c13.5-2,27-2.7,40.2,0.2c9.5,2.1,18.7,5.4,30.3,4
				c-36.1-18.1-75.9-19.9-115.4-15.8C434,236,420.2,230.3,425,250.4L425,250.4z M823.4,1135.6c-16.4,3.7-30.9-16.8-36.2,3.5
				c-6.5,40.1-35.3,38.8-18,52c16.1,13.3,40.7,27.4,56.5,5.9c5.8-7.9,3.8-18.9,9.2-27.5c3-4.7,9.6-7.7,8.1-14.4
				C843,1142.5,835.2,1136.1,823.4,1135.6L823.4,1135.6z M531.3,1168.9c-6.8,11.2-13.5,22.6-19.2,34.4c-1.8,3.7-8.6,6.2-5.8,10.1
				c7.8,10.9,38.1,4,45-7.8c9.4-16.4,2.5-36.4,13.7-52.3c-6.3,6.1-13.6,9.7-21,13.2C539.8,1168.5,534.1,1164.2,531.3,1168.9
				L531.3,1168.9z M570.2,1099.4c-11,20.1-21.7,39.7-32.3,59.3C564.8,1154.8,575.8,1118.5,570.2,1099.4L570.2,1099.4z M499.8,1222.6
				c-4.9,5-10,10.9-13.3,16.9c-9.2,17.1-23,30.5-34.1,48.9c4.3-4.5,8-2.1,11-2.7c53.9-13,63.8,39.7,93.8,18
				c17.8-16.6,36.2-39.8,31.1-66c-18.3-2.3-26.5-14.1-30.5-30.9c-0.6,13.2-31,24.5-41.9,21.1
				C510.3,1225.7,501.4,1220.9,499.8,1222.6L499.8,1222.6z M600.3,1229.1c9.3-0.4,18.9-1.7,27.9,2.2c26.9,10.4,37.5-29,64.6-26.3
				c10.8,0.5,12.7-8.1,13.6-15.1c1-7.2-4.5-13.2-10.7-16.6c-11.9-6.7-23.8-13.3-32.5-24.3c-1-1-2.2-1.8-3.5-2.4
				c-7.5,10.4-21.7,13.2-27.9,25.3c-5.6,11.1-20.5,13.8-31.3,7.6c-12.3-6.8-16.6-19.1-23.1-30.3
				C562.7,1175.6,556.5,1231.5,600.3,1229.1L600.3,1229.1z M730.9,1073.5c2.3-7.2-0.8-15.6-5-20.4c-16.2-18.6-15.7-41.3-19.2-63.3
				c-1.1-6.7-2.6-14-11.8-17.3c-18.7-6-39,2.7-47.5,20.5c-2.8,8.1-4.3,16.6-10.6,23c-2.4,2.4-2.7,5.3-0.4,7.4
				c16.5,14.6,14.8,36.9,5.7,56.3c-1.2,2.5-9.9,5.4-2.3,11.4c11.6,9.2,24.6,14.1,38.5,18.4C698.4,1115.7,734.5,1102.4,730.9,1073.5
				L730.9,1073.5z M632.4,1091.3c-16.9,9.7-53,17.1-49.2,42.2c0.7,19.9,19.8,55.6,41.7,34.6c6.2-6.7,10.6-15.5,19.4-18.9
				c9.2-3.5,12.8-9.5,13-22.3C658.6,1111.4,640,1104.8,632.4,1091.3L632.4,1091.3z M735.8,1053.3c4.1,8.4,2.4,23.9,19.3,19.1
				c22,2.4,51.8-13.2,40.7-40.9c-5.4-12.6-16.8-21.2-21.5-33.9c-2.5-6.8-3.5-14.5-7.1-20.6c-7.4-12.4-32-15.3-43.7-5.9
				c-3.5,2.8-11.2,3.6-9.7,8.8C722.3,1017.5,713,1016.2,735.8,1053.3L735.8,1053.3z M740.5,949c-3.6-8.9-12.5-11-19.9-15.1
				c-14.3-5-31.3-38.2-41.3-32.3c-1.4,0.5-3,3.5-2.7,5.1c2.4,13.2-4.2,23.5-10.2,34c-3.5,6.2-13,9.3-13.8,14.2
				c-1.1,6.6,1,14.2-2.2,22.8C688,940,703,982.4,718.3,965c2.5-3.2,7.5-2.8,10.8-4.4C733.7,958.2,745.3,961.1,740.5,949L740.5,949z
				 M705.9,879c-6.2-12.9-18.2-13.7-30.5-14.7c-5.3-0.5-11.5-5.9-15.4-4.4c-5.7,2.2-4.4,10.9-6.7,16.5c-1.2,2.9,2.4,3.8,4.9,4.8
				c8.3,1.9,11.3,15.5,16.9,13.6c3.6,1.8,6.2-2.7,10.7-1c7.6,3,13.2,7.9,18.5,13.6c1.9,2,3.5,2.4,4.4-0.3
				C711.8,897.4,710.2,887.9,705.9,879z M648.6,892.8c-5.7,13.3-5.2,28.4-13.1,40.8c-1.1,1.7-1,6.2,0.1,6.9c4.4,2.7,12.1,7.5,13.8,6
				c16.5-12.7,27.2-42.4,6.4-56.2C653.4,888.5,651.1,887.1,648.6,892.8L648.6,892.8z M633.6,949.2c-3.7-1.3-3.8,3.6-4,4.6
				c-2.7,13-7.9,25.9-13.5,37.2c-7.2,14.5-1,18.3,9.1,23.6c2.5,1.3,3.9,1.4,5.3-0.9c9-14.8,11.2-31.7,14.4-46
				C646,958.1,642,952.1,633.6,949.2L633.6,949.2z M609.7,1015.4c-6.1-3.3-8.1,17.7-11.4,21.8c-4.9,11.2-10.1,22.2-15.2,33.3
				c-1.8,7.6-14.1,19.6-3.9,25c5.1-1.8,6.7-16.9,10.3-22.1c4-6.6,16.8-38,23.1-37.6c2.1,0.5,3.4,3.8,2.3,6.3
				c-8.4,18.5-17.1,36.9-25.1,55.5c-0.8,1.8-5.8,6.3-1.1,6.8c4.3,0.4,10.9-3.3,11.9-8.4c3.3-15.7,12.4-28.4,19-42.5
				c0.8-1.6,2.8-3.8,5.2-1.9c1,0.7,2.2,2.7,1.8,3.4c-5.6,12.5-11.4,24.9-17.3,37.7C653.9,1079.2,644.8,1027.9,609.7,1015.4
				L609.7,1015.4z M739.8,1175.3c29.6,1.2,32.8-21.3,41.3-43.1c6.4-12.3,22.5-21.5,13.5-38.3c-3.6-6.8-4.8-18.7-18.6-15.1
				c-11.3,3-23.2,5.2-34.6-0.7c-3,37.4-48,51.2-84.1,32.9c12.9,21,1.3,22.2,7.8,29C686,1159.2,709.8,1176.1,739.8,1175.3
				L739.8,1175.3z M821.6,985.1c-10.8,3-15.8,15.7-27.6,17.3c-7.2,1-4,4.2-1.4,7c21,22,20.3,42.8-2.5,62.9c-1.3,1.2-1.1,1.6,0.2,2.9
				c10.9,11.1,18.9,23.4,12.5,39.6c-6.2,14.8,22.5,11.7,30.7,10.5c28.8-4.7,17-34,32.5-51c7.4-7.7,10-18.5,3.5-30.2
				c-6.4-11.3-19-20.7-14.8-33.7C857.5,980.1,841.2,979.6,821.6,985.1L821.6,985.1z M784.9,894.8c-11.7-2.3-21-7.8-28.3-17.2
				c-19.4-10.4-33.6,10-39.5,29c-1.3,3.6-5.1,9.2-4.2,10.1c13.1,12.9,38.1,15.4,38.1,38.4c0,2.1,1.3,1.4,2.5,1.9
				c40,11.3,14.4,47.7,42.8,34.9c10-8.6,27-17.4,26.8-32.9c-0.7-18.7-15.9-25.6-18.5-39.9C803.6,907.3,797.8,897.4,784.9,894.8
				L784.9,894.8z M700.2,696.2c-4.5,15.5-9.5,32.5-10,48.6c9.3-13.5,16.3-28.8,24.9-42.8c0.8-1.3,2.8-1.9,4.3-2.8
				c0.4,2,1.7,4.4,1,5.8c-8.8,17.6-18,34.9-26.8,52.5c-4.7,9.4-11.4,18.1-12.8,29.9c13.7-7.1,26.8-13.7,39.6-20.6
				c4.1-2.2,10.2-4.9,10.9-8.3c3.5-17.2,33.5-73.9,52.3-73.1c-0.1,1.3,0.3,3.2-0.4,3.9c-18.8,18.6-27.6,41.2-41.4,64.4
				c41.2-22.2,77.1-48.7,113.1-77.8c2.5-2,5.2-4.5,8.8-1.9c1.6,1.1,1.5,2.5,0,3.7c-26.1,24.8-51.1,41.7-82,63.8
				c19.3-2.3,35.9-4.4,52.4-6.2c2.1-0.2,5.5-0.1,6.2,1.2c4.4,7.1-26.1,7.3-30.7,10.9c-15.7,5.9-33.3-7.1-47.9,5.7
				c-23.8,15.9-50.5,27.4-75.3,41.8c-0.8,0.4-3.5-0.8-2.4,1.7c8.1,5.5,19.5,7.2,29,9.7c7.3,1.3,15.5,7.8,21.3,3.6
				c20.7-14.1,44.7-27,70.4-26.9c5.7-0.1,8,6.5,1,6.3c-20.1,2.9-37.8,12.3-55.8,20.8c-1.6,0.7-2.6,2.7-3.9,4
				c25.8,7.1,53.4-0.3,79.8-1c2.6-0.2,3.6,1.6,4.2,3.4c0.2,0.5-1.7,2.5-2.8,2.7c-40.6,7-74.3,9.3-114.2-3.4
				c19,25.3,49.1,24.9,76.2,31.9c0.1,0,0,1.5-0.2,1.5c-13.2,7.3-27.2,0.4-40.8-2c-17.6-4.2-34.3-12.9-44-27
				c-8.1-11.8-20-10.7-29.3-16.8c-0.2-0.1-1.8,1.1-2,1.9c-2.8,10-5.9,20-7.8,30.2c-0.9,5-7,11.3,0.8,15.4c5.6,2.9,12,3.9,18.6,4.7
				c16.3,1,28,10.1,33.3,26.5c1.6-1.3,3.9-2.2,4.8-3.9c6.2-12.1,34.8-17.3,42.8-3.7c1.5,2.5,5.3,6,7.3,5.6
				c17.9-3.5,35.5-6.6,52-16.5c18.1-10.9,35.5-22.3,50.7-36.7c4.4-4.1,14-9.7,2.1-18.6c-11.3-8.5-21-19.2-34.1-25.5
				c-3.3-1.6-6.7-5.2-4.1-8.9c12.5-18.6,28.3-35.5,39.3-55c12.1-26.5,21.4-54.4,24.4-83.6c-56.2,26.7-124.2,8.3-178.6,42
				C715.8,682.8,703.8,686,700.2,696.2L700.2,696.2z M890,450.4c-63.3-17.8-90,1.4-133.7,44.8c-9,8.9-14.6,21.7-24.4,29.1
				c-17.3,13.2-10.2,31.7-16.3,50.2c30.7-38.2,84.2-102.2,130.5-115.5C860.3,456,874.6,453.4,890,450.4z M724.9,502.6
				c-1.5,5.9-2,12-1.6,18.1c31.8-35.7,73.4-88.2,126.8-84c8.2,1.6,16.7,1.5,27,2.3c-11.9-7.3-25-12.5-38.6-15.5
				c-41.1-13.3-66.4,9.9-89.7,41C739.2,476.1,724,484.3,724.9,502.6z M403.9,291c-4-17.4-10.3,3.7-17.9,0.9
				c-6.7-2.5-5.7,8.9-6.4,13.5C377.2,317.3,409.5,319.2,403.9,291z M512.9,166.7c-38.6-20.9-76.4-16.7-110.1,11.8
				c17,18.9,18.8-24.3,76.4-15.2C491,164.9,502.6,168.2,512.9,166.7L512.9,166.7z M384.4,165.4c9.8,14,18.5,2,25.9-1.9
				c13.3-7.1,26.3-15.4,40.9-18.1c21.3-4,40.9,6.4,62.3,9.5c-24.4-9.8-50.2-33.2-77.7-21.6c-17.3,8.7-34,18.7-50.9,28.2
				C383.4,162.3,382.7,163,384.4,165.4L384.4,165.4z M330.8,213.5c13.2,25.1,45.6,34.8,50.2,65.8c-0.4,4.5,4.1,4.4,7.2,3.2
				c11.1-7.9,26.2-15.7,26.7-31.2c0-11.9-3.6-23.8,0.2-33.7c0-15.3-8.4-23.5-18-30.4c-29.4-16-25.1-34.6-43.8-37.2
				c-8.3-1-14.3,3.1-21.3,4.9c-6.7,1.7-18.3,19.1-18.5,26C313.1,195.4,324.9,202.8,330.8,213.5L330.8,213.5z M99.5,203.2
				c21.3-7.8,43.2-16.1,66.1-17c13.6-0.8,24.7,9.6,37.2,13.9c0.4-5,2.5-13.6,0.9-14.4C164.1,160.8,133.9,180.6,99.5,203.2z
				 M202.4,211.4c-36.5-31.3-70.5-8-109.8,2.7c23.5,1.8,46.2-8.5,69.4-1.1c12.5,4.5,22.1,13,31.8,21.4c2,1.7,5.1,4.4,6.6,3.8
				C205.5,236.2,207.2,214.7,202.4,211.4L202.4,211.4z M232.6,285.3c14.5-21.6,26-44.2,31.2-70.1c2.9-14.6,13.2-26,28.6-26.3
				c11.3-0.2,14.6-0.6,10.7-12.5c-6-18.2-17.8-29.3-34.3-29.3c-17.2-0.9-21.5,10.5-32.5,20c-12.4,9-26.1,16.3-23.6,35.8
				c1.4,11,7.2,23.6-0.3,33.4C190.1,258.6,216.4,299.5,232.6,285.3z M144.8,388.2c35.5-52,26.4-61.6,92.1-76.4
				c-3.2-2.5-2.9-9.3-8.6-8.6c-52.4,2.3-72.1,41.2-85.5,85.5C143.4,388.6,144.5,388.6,144.8,388.2z M268.3,329.9
				c-24.4-16.1-73-6.8-89,19.6c-8.8,13.8-17.7,27.4-26.6,41.1c36.1-38.4,55.1-46.4,107-55.7C261.8,333.7,273.6,333,268.3,329.9z
				 M340.6,323.3c40.9-9.1,39.7-51.7,10.7-74.2c-13.8-8.1-23-20.1-30.5-33.9c-5.5-10-13.2-17.6-25.5-18.1
				c-14.7-0.6-26,15.9-27.9,33.5c-2.1,19.6-11.8,34.8-22.9,49.8C216.7,325.8,314.6,330.2,340.6,323.3z M396.4,328.7
				c1.3-1.6,1.6-4,2.3-6c-23.3,3.4-21.1-12.6-31.4-2.2c-15,15.6-36.6,14.8-57.3,14.9c7.9,13.3,21,17.3,34.3,19.4
				C367.4,358.3,383,345.2,396.4,328.7z M291.1,471.9c49.1-10.6,93.7-9.1,121.4,45.7c-3.5-28-12.4-49.6-34.8-62.4
				C344.4,436.2,319,461.1,291.1,471.9z M425.1,569.7c-1.5-11.6-1.8-24.4-8.7-33.6c-8-10.7-14.5-22.3-23-32.7
				c-27.5-37-79.3-30.9-117.6-15c5.6,4.5,13,2,18.9,2c67.3,4.1,102.9,15.2,129.6,80.3C424.7,570.4,425.2,570,425.1,569.7z
				 M444.6,634.8c4.5-28.5,9.2-57,13-85.5c1.4-10.6,4.7-21.8,2.5-31.8c-4.9-21.8-11.8-43.3-19.5-64.4
				c-11.7-32.1-24.5-63.8-40.3-94.2c-1.7-3.3-2.3-17.5-13.1-8.1c-6.6,5.8-14.3,10.1-22.7,12.6C408.8,448.7,435.2,539.1,444.6,634.8
				L444.6,634.8z M402.5,825.4c2.2-11.4,6.9-22.5,7.9-34c0.5-5.5,14.4-17.6-4.9-18c-17-0.4-35.2-7.8-48.3,11.6
				c-5.8,8.6-19.8,13-22.7,21.8c-9,27-27.7,51.6-55.5,60.8c-5.5,1.5-7.4-4.4-2.3-6.5c21-9.7,38.6-27.8,46.5-50
				c-45.7,26-95.7,44.7-147.7,53.2c-1.5,0.3-4.4-2.1-5.1-3.8c-0.9-2.3,1.9-1.3,3.1-1.5c34.9-7.1,65-19.2,99.8-31.2
				c-28-7.4-51.7-1.9-79.1,1.3c-2.2,0.3-4.9-0.2-5-2.8c0-1.1,2.8-2.8,4.6-3.2c18.6-7.1,38.1-5.6,57.5-7c14-0.3,26.6,11.5,42.2,1.4
				c23.4-15.2,48.8-27.3,68.5-48c-49-0.4-102.4-17.1-147.2,10.7c-7.8,6.6-57,28.2-63.6,16.8c-1-2.4,2.3-3,4.3-3.6
				c26.1-5.1,45.8-16.5,73.5-28.9c-39,3-71.6-0.3-109.7-1.6c-11-1.5-29.9-0.2-36.2-11c38.5,1.6,76.5,2.8,115.4,4.9
				c27.5-0.1,54.8-1.7,82.4-1c-31-23.8-70-32.8-105.8-45.8c15.2-12,68.5,15.7,86.5,22c15.1,6,22.9,23.2,41.5,23.6
				c21.2,0.5,42.4,3.3,64.3,5.2c-2-3.7-3-7.9-5.6-9.6c-9.9-6.5-14.3-17.7-22.9-25.2c-6.7-5.9-12.2-15.4-20.9-16.5
				c-19.9-3-80.6-9.3-90.8-25.4c-0.2-0.5,2.9-3,3.4-2.7c23.7,11.2,50.7,12,76,18c-16.6-11.1-31.7-23.9-50.4-30.5
				c-10.6-3.8-18-13.3-29.1-16.6c-3.2-1-10-1.3-7-7.2c2.5-4.9,7.7-0.3,10.4,0.9c27.9,15.7,58.7,26.7,83.8,46.8
				c11.8,9.5,23.1,19.7,35.7,30.4c-11.3-27.3-20.9-54.8-42.1-76.2c-2.7-2.7-0.5-6.8,3.2-4.3c9.6,5,15.6,13.6,21,22.4
				c8.7,14.3,16.8,28.9,21.6,45.3c2.3,7.9,1.7,16.8,4.6,23.4c3.8,8.3,11.2,15.7,17.2,23.3c10,12.6,28,3.9,40.8,11.3
				c3.6-14.7,7.3-29.3,10.5-44.1c1.6-7.5,5.7-17.4,2.6-22.6C389,641,309.9,604.1,238.1,602.8c-29.8-0.5-59.6,4.7-86.8,18.7
				c-1.4,0.7-10.2,0.3-4.2,6.2c14.2,14.1,23.2,31.6,33.1,48.6c2.2,3.8,2,7-4.3,6.9c-41.7,1-76.6,28.7-114.7,42.5
				c-14.5,5.8-28.8,12-44.7,13.3c-1.5,0.1-4.1-0.5-1.6,2.4c3.8,4.4,7.2,9.3,11.6,13c32.9,26.2,67.8,53.4,109.3,63.9
				c5.1,1,12.3-1.8,15.1,4.4s-3.7,11-6.9,13.8c-15.5,14.1-24.5,32.7-36.2,49.4c-0.4,0.9-1,3,0.8,2.7c69.9-7.1,141.6,13,211.2-5.4
				C352.2,873.8,392.3,862.1,402.5,825.4z M356.4,1275.2c21,2.6,42.2,3.3,63.2,7c22.2,6.4,24.1,1.7,35.9-18.2
				c131.3-172,191.4-383.8,237.3-592c17.5-114.8,25.9-230.8,37.8-346.3c0.4-2.9,0-5.1-4.2-4.7c-22.6,0.5-45.1,1.6-67.6,3.7
				c-56.2,3.5-112.5,3.6-168.8,3.5c-4.9,0.6-7.3-1.6-7.1,6.4c3,38.3-3.5,75.9-4.8,114.1c-4.9,91.9-16.8,183.5-39,272.8
				c-16.2,71.9-30.6,145.2-56.8,214.3c-42.6,110.8-105.3,212.5-167.9,312.9c-7.4,9.7-11.9,16.5,6.2,14.2
				C266,1264,311.2,1270.6,356.4,1275.2L356.4,1275.2z M636,1321.1c-25.8,3.8-41.4-21.8-43.7-44.7c-3,7.3-9,17.5-14,22.4
				c-25.7,29,27.3,35.1,20.6,105.1c0,1.8-0.9,5.2-4.3,5.1c-6.6,1-3.5-28.1-5.7-34c-1.7-13.2-5.8-25.6-15-36.9
				c-2.7,20.3-1.2,39.8-6.7,58.6c-5.6,14.5-8.8,52.4-22.4,59.4c-3-0.4-2.2-3.3-1.8-4.8c8.4-22.7,12.1-46.7,17.8-70.1
				c0.3-1.2-0.3-2.5-0.5-3.8c-13.5,13.1-25,28.9-31.7,46.8c-0.6,1.8-4.5,3.8-6.3,3.4c-7.3-3.3,13.1-34.7,17.8-38.8
				c7.4-7.9,16.2-15.6,20.3-25.1c6.3-14.3,1.6-30.4,2.2-45.8c0.1-2.6-1.5-5.9-5.9-2c-5.7,5-13.1,8.2-18.7,13.4
				c-5.9,5.6-15.5,6.8-18.9,14.5c-8.6,26.3-17.6,53-37.5,73.3c-2.1,2.3-2.1,8.6-7.1,4.8c-4.6-3.5-0.2-7,2-10
				c13.6-19.8,28.8-41.2,33.8-64.6c-18.4,10.8-38.5,21.2-55.3,34c-2.2,13.4-32.2,65.3-45.7,65c-2-0.4-1.5-3.7-0.1-5.6
				c12-16.7,27-32.9,33.5-52.4c-11.4,3.2-20.1,11.1-30.1,16.7c-22.4,12.5-44.6,25.1-61.7,44.8c-1.3,1.5-2.2,4.6-5,2.5
				c-9.8-6,34.9-41.3,42.9-45.3c-3.4,0-5.7-0.6-7.5,0.1c-16.4,6.5-32.8,13.1-49,19.8c-2.7,1.7-9.4,5.6-9.3-0.4
				c14.4-13.9,42.5-23.3,62.3-28.3c9.1-1.8,19.5,2.2,27.7-5.2c19.6-13.5,39.9-22.4,61.7-35.1c-20.9-3.4-38.3,4.2-56.3,5.8
				c-2.3,0.2-5-0.2-5.1-1.3c-0.7-11,56-16,66-15.5c4.3,0.1,9.5,1.3,12.8-0.5c13.6-7.5,26.6-16,40.9-24.8c-30.2-2-57.4-4-86.6,1.7
				c-12.9,2.1-27.8,0.7-33.6,17.2c-1.1,2.7-2.9,5.1-5.4,6.8c-8.3,5.8-39.7,28.4-48.1,19.2c-0.5-3,3.3-4.3,6-5.4
				c14.9-6.6,31.5-13.7,39.5-29c-1.4-0.3-2.9-1.1-4-0.8c-13.8,3.7-26.8,10.8-41.4,9.5c-2.4-8.6,49.6-20.3,57.8-21.8
				c33.4-8.6,69.2-6.5,103-6.4c-26.7-34.8-71.2-7.1-106-18.1c-22.3-4.7-44-6-63.4,5.5c-35,23-72,46.2-91.3,85.2
				c19.9-1.8,38,5.1,56.1,11.9c5.1,1.9,7.5,4.1,2.7,10c-21.5,27-38.6,59.7-41,94.5c46.6-21.4,99.4-27.4,150.1-30.4
				c24.4-1.1,49.3,1.7,71.8-11.8c4-2.4,11.6-11.6,15.3-0.6c4.7,12.6,6.6,32.2,16,41.5c54.5-39.1,107.4-100,112.4-171.2
				C643.3,1324.3,642.1,1320.1,636,1321.1z M732.5,1273.8c14-34.6,35.5-21.8,34.8-51.5c0-6.8-1.6-13.4-4.6-19.5
				c-10.8-31.7-22.7-9.9-45.4-21.6c-1-0.5-2.6,0.1-3.8,0.3c-0.2,0.7-0.2,1.5,0.1,2.2c4.4,12.4-0.5,25.9-13.6,28.8
				c-35.5,4.2-41.2,37.1-73.6,28.9c-25.8-6.6-24.4-4.7-25,21c-0.2,9.1,2.4,18.2,3.8,27.3c1.9,13.1,21.5,25.9,33.3,21.9
				C674.2,1295.7,707.5,1323.3,732.5,1273.8L732.5,1273.8z M930.7,1348.7c7.4-46.4-29.2-57.3-11.9-68.5c5-3.4,10.7-6.8,13.7-11.8
				c4.7-7.6,23.8-10.2,8.8-25.7c-23.2-24.9-52.1-44.4-86-50.3c-6-1-14.8-13-19.8,3.8c-8,26.4-36.4,23.5-57.1,13.1
				c2.5,7.6,8.4,12.9,11.3,20.6c1.5,4.4,3,13.6,7.6,12.4c8.4-2.3,17.3,0,25.7-8.3c14.8-14.7,34.3-22.6,56.5-19.2
				c10.1,0.2,9.1,8.1-0.3,6.2c-18.8-1-34.1,7.1-51.6,17.8c15.9-0.4,88.7,0.8,89.5,15.4c-0.1,1.7-1.8,3.8-3.4,2.5
				c-5.3-4.3-11.9-4.1-17.8-4.6c-13.4-1.2-26.7-6-40.5-2.3c10.8,7,21.8,13,34.6,15.7c3,1.2,8.6,0,10,3.3c-1.2,2.6-3.8,4.2-6.7,4.3
				c-14.4,0.1-25.9-7.5-37.8-14.1c-6.7-3.7-10.2-12.7-19.9-11.4c-6.8,0.9-14.3-0.4-20.3,2c-5.1,2-22.9-4.7-12,13
				c5.2,8.4,2,21.6,14.7,25.7c25.7,5.1,48.2,21.5,67.4,38.9c3.7,3.7,10.9,7.2,8.8,13.6c-0.8,2.6-5.2-0.7-8.2-3.3
				c-19.8-16.4-44.8-36.1-69.9-40.4c-4.1,2.7,1.9,7.1,3.3,10.9c1.7,4.6,4.8,8.8,5.8,13.6c5.3,26.2,20,44.8,43,58.5
				c8.6,4.3,36.5,27.7,31.4,38c-2.8,2.7-2.6-0.8-3.3-1.5c-14.7-18.6-32.6-29.1-52.2-44.4c9.2,28.7,25,51.5,43.3,74.5
				c1.2,1.5,4.6,3.3,1.9,5.7c-2.3,2.1-4.6-0.7-5.8-2.2c-28.6-25.6-43.8-61.6-57.5-96.7c-9.2,23.3,6.3,72.9,15,96.8
				c1,2.6,2.4,6.4-0.6,8.2c-3.8,2.3-3.7-2.7-5-4.3c-11.5-24.5-17.3-50.7-20.4-77.5c3-53.2,11.1-29.6-12.5-84
				c-14.5,32.6-16.3,67.9-12.5,102.8c0.4,3-0.4,7.7-2.4,9.1s-3.5-2.3-4.5-5.1c-9.2-29.6-3.1-60.2,4-89.4
				c5.1-17.4,18.4-28.3,5.4-48.2c-0.8,0.5-2,0.8-2.5,1.5c-4.7,7.8-9.7,15.4-13.7,23.5c-7.1,14.2-14.2,28.3-19.8,43.1
				c-2.1,5.6-8.4,10.8-4.5,18c11.3,21.1,12.9,43.3,7.2,66.2c-0.4,1.6-1.9,4.8-5.3,4c-3.7-0.9-0.7-2.9-0.6-4.2
				c2.3-19.4,0.9-38.4-7.1-57.4c-6,17.2-10.3,33.9-10.8,51.4c-0.1,3.2,0.8,8.2-3.2,8.1c-18-14.4,13.5-84.2,22-102.2
				c-29.5,6.3-42.7,74.8-46.4,55.9c-2.2-5.4,1.9-9.3,3.5-13.7c6.2-17,13.1-33.2,29.5-43.8c6.8-4.4,16.2-5.5,20.6-13.6
				c8.2-15.1,15.4-30.7,27.1-43.7c2-5.2-8-21.4-9.9-28.4c-11.7,30.6-12.7,19-30,38.6c-9.7,15.9-17.6,33.5-35,43.6
				c-5.7,3.3-14.6,1.1-17.5,8.3c-14.5,35.1-12.6,121.7,17,147.3c16.6-1.3,32.7-6.4,47.1-14.9c15.3-10.2,20.6,28.6,51.7,36.8
				c18.5,6.2,36.8,5.4,55.9,3.6c12.3-1.2,24.3-8,37.3-3c3.5,1.3,7.8,0.4,11.7,0.5C908.7,1440.9,928.8,1395.1,930.7,1348.7
				L930.7,1348.7z M941.3,851c-8.1-1.4-12,4.2-11.9,11.4c0.1,6.3-0.5,16.1,8.9,16.2C954.5,880.6,960.5,849.5,941.3,851z M937.1,32.6
				c18,0.5,17.6-27,6.2-25.2C921.6,6.8,922.3,32.9,937.1,32.6z M950.6,308.5c-0.4-8.2-7.6-13.3-14.8-13.1
				c-7.7,0.2-9.5,8.2-10.9,13.5C923.3,332.3,953.4,329,950.6,308.5z M933.3,392.6c-7.6,1-8.6,7.2-7.8,10.5
				c1.3,5.7,1.7,13.1,5.7,15.1C954.4,423.7,955,388.6,933.3,392.6z M936.4,236.8c6.8-0.9,11.7-6.8,11.4-13.6
				c-0.5-8.5-0.1-19.9-15.2-18c-10.6-3.2-12.3,6.2-11,12.1C923.3,225.1,922.2,238.3,936.4,236.8z M937.5,972.2
				c-16.1-0.6-17.1,30.2-0.3,29.6C954.7,1003.1,955.8,973.2,937.5,972.2L937.5,972.2z M935.6,577.1c14.7,2.3,15.7-25.2,2.1-24.1
				C920.6,551.9,917.3,577,935.6,577.1L935.6,577.1z M914.8,773.3c-0.7,12,6.4,16.7,16.2,17.5c8.3,0.7,8.8-7.1,10-12.5
				C946.1,760.2,913.6,754,914.8,773.3z M900,1144.7c9.3,0.7,14.8-5.6,15.2-15.2c1.2-11.4-7.2-14-15-14.2
				C885.5,1115.7,885.1,1144.1,900,1144.7z M881,282c-2.4,16.5,22.8,24.2,25.9,6.1c0.8-8.4-1.8-15.3-13.3-15.5
				C887.7,272.4,881.8,273.9,881,282z M881.1,516.8c-1.8,19.9,23.4,21.3,23.5,1.5c-0.1-5.1-3.9-9.4-8.9-10.3
				C891.7,512,881.5,506.8,881.1,516.8L881.1,516.8z M889.3,83.7c17.5,2,18.6-28.1,1.5-28c-6.8,0-12.9,5.5-12,14.8
				C877.1,78.7,881.1,83.9,889.3,83.7L889.3,83.7z M893.1,935.3c13.8-1.8,13.4-29.4-2.8-28.1C870.2,905.4,874.8,937.3,893.1,935.3
				L893.1,935.3z M890.4,1574.9c-17.5-2-17.8,26.7-1.8,23.9C901.8,1599,904.9,1572.7,890.4,1574.9L890.4,1574.9z M859.2,143.8
				c0.7,7.8,1.5,16.8,7.8,17.3c16.4,0.2,20.9-6.2,20-16.6C886.2,128.5,857.3,126.8,859.2,143.8z M868.8,328.9
				c-8.1-0.7-13.2,1.8-13.9,10.9c-1,12.1,8.5,15.5,16.2,16.6C887.6,358.2,886.8,325.9,868.8,328.9z M855.6,584.9
				c-8.1,0.1-13.7,3-13.5,10.8c0.2,9.5,3.8,15.5,15.5,14.2C871.8,608.8,867.9,583.6,855.6,584.9L855.6,584.9z M849.4,38.5
				c17.6,2.1,17.2-23.4,3.3-25c-7.2,0.2-16.8,2-15.5,12.8C838,33,838.2,42.9,849.4,38.5z M807,188.9c0.8,15.4,30.2,12.1,27.8-3.3
				c-0.8-11.9-11-11.6-19.6-12.6C809.5,172.9,806.8,177.7,807,188.9z M812.9,89.1c17.8,2.9,19.1-27.2,3.4-27.5
				c-7.3-0.7-14.1,3.6-13.4,13.6C803.3,82.4,801.6,90.8,812.9,89.1L812.9,89.1z M803,1522c-13.9,3.2-14,32.2,9.5,26.8
				c6.3-0.9,10.2-5.3,8.6-11.9C822,1522.7,813.8,1520.2,803,1522z M763.3,167c0,5.3,2.4,13.3,7.9,13.4c6.1,0.1,14.8-1.9,13.8-12.3
				C784.8,152,763,150.3,763.3,167z M769.1,226.9c-10.2-1.2-13.2,23.3-0.1,21.7c4.3-0.5,13,0.9,11.7-8.2
				C779.8,234,778.8,226.5,769.1,226.9L769.1,226.9z M770,589.6c-15.6-0.1-22.1,24.5-2.2,22.8C778.7,614.3,780.9,590.7,770,589.6z
				 M754.9,95c-1,11.2,7.6,12.5,14.9,12.6c4.9,0.1,6.9-5.8,7.2-10.7C778.7,83,753.1,79.8,754.9,95z M752.2,46.5
				c19.5,3.3,16.9-24.7,7.2-23c-9.5,0.9-17.7,0.1-17.9,8.3C741.2,37.9,745.6,45.5,752.2,46.5L752.2,46.5z M749.8,1494.8
				c-16-0.1-17.3,23.2-2,23.8C760.8,1518.9,762.4,1497,749.8,1494.8L749.8,1494.8z M744,1555.2c-6.9,0.2-12.7,3.1-11.3,10.5
				c0.2,9,4.2,14.3,11.5,14.2c11-0.2,10.2-10,10.7-17.1C755.3,1556,748.5,1555.1,744,1555.2z M685,128.5c0.4,9.1,7.3,10.1,14.3,10.6
				c8.5,0.6,9.6-5.3,10.2-14.7C711.2,113,682.8,111.4,685,128.5z M698.7,190.9c-11.4-0.6-12.9,7.9-13.1,15.6
				c-0.2,9,8.6,7.1,13.6,7.3C712.6,215.4,712.5,190.3,698.7,190.9L698.7,190.9z M692.4,72.9c15,1.6,15.4-26.7-0.9-21.7
				C673.2,46.7,677.1,74.2,692.4,72.9z M668.1,1525.1c-10-0.2-8.1,8.5-9.2,14.5c-1.8,10.4,4.9,13.6,12.5,13.1
				C691.4,1550.8,687.4,1523.9,668.1,1525.1z M661.8,1472.6c0-12.9-10.3-14.2-20-14.4c-13.2-0.2-6,30.6,10.6,26.8
				C663.3,1487.6,661.8,1477.9,661.8,1472.6z M642.8,201.2c7,0.1,12.5-1.8,12.1-10c1-14.3-25.7-18.1-24-2.3
				C630.9,196.9,634.8,201.1,642.8,201.2z M609.8,1569c-9,0-8.9,6.8-8.9,13.9c-1,7.8,2.8,11.5,11.3,12.3
				C631.1,1596.2,627.3,1567.1,609.8,1569z M607.7,101.8c14.9,1.5,21.4-31,3.3-25.3C592,72.6,590.4,101.8,607.7,101.8z
				 M585.4,1510.1c-17.2-2.5-17.3,25.8,1.3,25.7C602.9,1536.5,600.8,1508.9,585.4,1510.1z M545.5,34.4c8.9-0.1,11-8.8,11.3-15.9
				c0.5-10.9-10.2-7.6-15.5-8.8C527.9,10.3,531.2,36.1,545.5,34.4z M514.6,1565.3c-8.3,0.3-11.8,8-12.3,15.2
				c-0.9,11.4,8.4,8.8,15.5,9.3C531.8,1589.1,526.9,1563.9,514.6,1565.3z M497.5,66.8c20.1,1.9,21.7-28.1,0.1-28
				C485.8,39.5,484.3,67.4,497.5,66.8z M431.5,1527c-10.5,1-8.5,9.2-8.5,15.9c0,11.9,9.3,11.3,16.9,11.4s8.1-5.9,7-11.8
				C448.7,1530.5,442.7,1526,431.5,1527z M401.2,45.3c13.2,0.5,11.9-10,13.6-17.3c1.2-5.3-3.5-9.8-8.8-9.3
				c-8.5,0.9-14.1,5.7-13.1,13.3C393.1,39.7,392.5,45,401.2,45.3z M398.9,96.8c13.1,0.4,10.5-24.4-2.1-23.7
				c-7.3-0.6-10.1,4.1-10.1,11.7C385.9,93,392,96.2,398.9,96.8z M333,98.9c7.3-0.4,10.5-5.1,10-12.9c0.5-4-0.6-9.5-5.8-8.6
				c-6.1,1.1-15.9-0.7-15.4,10.9C322.3,95.5,326.1,99.3,333,98.9z M287.7,1568.8c-10.8-1.1-14.4,4.6-14.9,12.4
				c-0.2,13.2,8.3,14.6,16.5,14.4c10.2-0.2,11.2-9,11.5-16.4C301.3,1570.7,294.8,1569.5,287.7,1568.8z M252,88.7
				c15.8,3.1,21.7-29,10.2-27.4c-7,2.3-18.6-1.1-18.7,13.8C246.2,78.9,243.6,88.4,252,88.7z M204.4,41.7c5.6,0,14.6,0.6,13.3-9
				c-0.8-5.6,1.1-16.2-8.8-14.9c-6.9,0.9-17.5,1.6-17.9,13.2C190.7,40.6,198.1,41.6,204.4,41.7L204.4,41.7z M203.9,1512.8
				c-16.7-4.4-20.3,26.1-4.7,26C214.9,1540.3,223.3,1515.7,203.9,1512.8L203.9,1512.8z M202.2,1354.4c-17.4-2.3-18.4,24-2.3,25.3
				c7.8,0.6,10.1-5.7,10-11.8C209.9,1362.4,210.7,1354.5,202.2,1354.4L202.2,1354.4z M190,132.8c20.6,2.2,19.3-26.1,5.2-25.8
				c-7.9,0.6-15.4,2.2-13.7,15.7C182.9,125.3,182.6,132.8,190,132.8z M187.2,561.3c9.4-0.7,16.7-1.7,15.9-12.2
				c-0.6-7.9-5.1-12.5-12.9-12c-7.1,0.5-11.7,4.9-11.1,12.6C179.4,555.8,179.9,562.3,187.2,561.3L187.2,561.3z M181,1568.9
				c-12.6,1.9-11.4,31.6,4.4,28.1C204,1595.4,197.5,1566.7,181,1568.9z M178.5,1467.5c-0.2-5.5-1.5-14.3-9.9-12.8
				c-10.5,0.2-15.5,4.2-15.7,13.3C153.3,1485.5,179.7,1483.5,178.5,1467.5L178.5,1467.5z M160.5,502.5c17,0.1,18.3-31.3-1.5-28.9
				c-8.4,1-9.5,8-10.2,13.9C145.3,498.9,152.4,503,160.5,502.5L160.5,502.5z M151.7,80.5c7.9,0.6,16.5-4.3,17-13.7
				c1.4-14.9-22.1-16.1-26.6-3C145,70,143.4,79.8,151.7,80.5z M138.9,1080.1c-8.9-1.4-10.4,5.3-11.1,12.2
				c-0.8,8.9,3.3,13.7,12.1,13.7C161.3,1107.2,158.7,1081.1,138.9,1080.1z M132.6,1035c18,3.5,18.3-28.6,2.2-27.6
				c-7,0.4-13.1,5.1-12.4,13.4C122.9,1027.3,120.5,1037.1,132.6,1035z M131.8,138.2c11.9,0.5,13.6-8.6,14-17.6
				c0.3-5.3-3.6-7.8-8.3-7.9C121.1,110.2,116.7,137.3,131.8,138.2L131.8,138.2z M129,1324.6c-13.7,1-13.7,28.1,1.2,28.8
				c10.6-2.2,14.1-9.8,13.7-19.8S135.1,1324.1,129,1324.6z M121.7,1522.8c-10.9,0.5-11.2,9.2-12.2,15.6c-0.9,6.2,4,10.3,10.3,10.5
				C134.5,1550.6,134.5,1524.8,121.7,1522.8L121.7,1522.8z M112.9,1139.1c-6.7,1-14.8,2.4-14.4,14.4c0.3,10.6,7.6,11.6,15.3,12
				C130.1,1167,131.5,1136.9,112.9,1139.1L112.9,1139.1z M89.3,543.7c0.4,15.3,25.8,9.8,28.2-2.4c-1.7-6.6-0.7-15.3-10-15.2
				C96.8,526.4,89.4,532.3,89.3,543.7z M101.9,1431c-8.9-1.7-15.2,0.4-13.2,10.4c-1.1,7.8,2.2,11.6,8.5,12.1
				C109.6,1455.6,114.5,1433.6,101.9,1431z M88.8,90.8c7.1-1,14.2-3.9,14.3-13.4c0.1-7.7-2.8-12.6-13.1-12.7
				C76.9,61.5,74.7,93.2,88.8,90.8z M87.9,310.7c6.6-0.8,15-2.2,13.1-11.8c0-9-5.3-14.2-13.8-13.8c-11.8,0.6-8.1,10.4-8.9,16.8
				S83.4,311.2,87.9,310.7z M85.9,170.9c8-0.3,9.8-7.5,10.9-13.2c1.7-8.8-6.1-10-11.8-9.5C73.3,149.6,74.3,172.5,85.9,170.9
				L85.9,170.9z M65.1,1201.4c-0.5,11.5,2.8,16.4,10.7,15.3c9.7-1.4,12.8-10.6,15.2-18.6c2.3-7.7-3.4-10.7-9.7-11
				C69.4,1186.5,66.3,1194.8,65.1,1201.4z M82.4,1261c-8.3,0.4-15.6,2.7-15.6,14.2c-1.3,7.2,6.1,11.2,10.4,11
				C93.7,1286.6,96.1,1260.4,82.4,1261z M75.2,965.1c-14.7,0.1-14,26.7,2.5,24C92,991.9,88.4,963.1,75.2,965.1L75.2,965.1z
				 M74.9,365c-12.9-3.8-13.4,20.7-2,19.7c5-0.3,13.1,1,12.5-8.3C85,370.4,84.2,363.7,74.9,365z M60.6,465.7
				c-2.2,13.5,24.4,16.5,22.4-0.7c-0.8-7.8-4.4-13.6-13.3-14C61.6,450.6,60.8,456.1,60.6,465.7z M57.2,44.8
				c6.3,0,13.6-1.5,13.7-10.3c0.1-6.2-1.8-11.6-12.2-12C47.1,19.1,43.8,45.4,57.2,44.8z M51.4,1558.8c-8.1,0.6-10.8,4.9-10.3,11.7
				c0.5,7.1-0.3,16.2,9.7,14.9c8.4-0.3,15-0.7,16.2-9C68.6,1564.6,64.9,1557.8,51.4,1558.8L51.4,1558.8z M54.6,1377.4
				c-7.6-0.3-12.9,5.1-13.6,13.6c-1,10.5,4.7,15.9,14.2,15.9c9.2,0,9.2-8.5,10.8-15.5C63.8,1385.6,62.2,1377.6,54.6,1377.4
				L54.6,1377.4z M44,1040.7c-6.7-0.5-7.2,7.8-7.3,13.4c-0.2,8,4.6,12.1,12.5,13.2C72.5,1063.8,62.8,1039.7,44,1040.7z M58.7,1502.2
				c0.6-22.3-24.2-20.4-23.3,1C35,1517.7,60,1515.7,58.7,1502.2L58.7,1502.2z M40.7,612.8c16.5,3.7,22.4-27.5-0.5-28.6
				c-8.1-0.4-8.9,8.9-8.5,12.9C32.3,602.7,30.9,612.5,40.7,612.8L40.7,612.8z M25,1136.2c-0.1,19.1,27,17.3,24.9-4.4
				C50.5,1116.2,22.8,1120.7,25,1136.2L25,1136.2z M31.5,139.2c6-1.4,15.2,0,15.1-9.3c-0.1-5.6-3.3-12.1-11.7-13.1
				C19.6,114.4,15.6,138.1,31.5,139.2L31.5,139.2z M32.6,526.8c11.1-0.4,5.6-10.8,7.7-13.7c5.6-21.4-24-15.6-19.6,2
				C21.7,522.8,25.6,527.1,32.6,526.8z M25.7,335c16.9,3.8,20.6-23.8,3.1-23.8C14.6,309.7,7.5,337.1,25.7,335z M21.9,1338.7
				c8.2,0,18.2-2.4,16.7-13.6c-0.8-5.6,2.2-16.8-9.8-16.1c-8.8,0.5-18.1,1.8-15.8,14C12.8,1330.7,12.7,1338.8,21.9,1338.7z M5,421
				c0.3,7.9,0.7,16,15.2,16.3c8.4,1,12.6-6.4,12.6-16.1C34,405.8,3.8,403.7,5,421z M14.3,1230.7c-6.7,0.9-7.8,4.5-7.1,9.3
				c1.2,8,2.8,16.3,14.7,15c4.2,0.7,10.8-0.4,8.7-5.5C27.5,1242.1,29.8,1228.6,14.3,1230.7L14.3,1230.7z M14.8,1425.3
				c-6.7,0.2-14.4,2-13.9,12.6c-1.7,11.7,9.6,11.5,15.8,12.5C31.9,1452.2,29.3,1423.5,14.8,1425.3L14.8,1425.3z M9.6,84.9
				c16.9,1.4,15.1-23.3-2.7-22.2C-5,62-5.3,86.9,9.6,84.9z"/>
		</g>
	</g>
</g>
<g>
	<g id="Layer_1_2_">
		<g transform="matrix( 1, 0, 0, 1, 0,0) ">
			<g>
				<g id="Layer0_0_FILL_1_">
					<path d="M52,1548v15l-37,37h946l-37-37v-15H52 M52,52V37.7L14.3,0H0v1600h15l37-37v-15V52 M924,52V37.7L961.7,0H14.3L52,37.7
						V52H924 M976,0h-14.3L924,37.7V52v1496v15l37,37h15V0z"/>
				</g>
			</g>
			<g>
				<path id="Layer0_0_1_STROKES_1_" class="st5" d="M961,1600h15V0h-14.3L924,37.7V52v1496v15L961,1600H15H0V0h14.3h947.4 M52,52
					V37.7L14.3,0 M15,1600l37-37v-15V52h872 M924,1548H52"/>
			</g>
		</g>
	</g>
</g>
</svg>
