<svg xmlns="http://www.w3.org/2000/svg" xmlns:xlink="http://www.w3.org/1999/xlink" viewBox="0 0 976 1600">
<style type="text/css">
	.st0{fill:#FFFFFF;}
	.st1{clip-path:url(#SVGID_2_);}
	.st2{fill:#333333;}
	.st3{fill:#FFEB5C;}
	.st4{fill:#D81E1E;}
	.st5{fill:none;stroke:#333333;stroke-width:2;stroke-linecap:square;stroke-miterlimit:3;}
</style>
<g id="Paper_Backing">
	<path class="st0" d="M960,22v1556c0,3.3-2.7,6-6,6H22c-3.3,0-6-2.7-6-6V22c0-3.3,2.7-6,6-6h932C957.3,16,960,18.7,960,22z"/>
</g>
<g id="Wikipedia_Cropped">
	<g>
		<defs>
			<path id="SVGID_1_" d="M960,22v1556c0,3.3-2.7,6-6,6H22c-3.3,0-6-2.7-6-6V22c0-3.3,2.7-6,6-6h932C957.3,16,960,18.7,960,22z"/>
		</defs>
		<clipPath id="SVGID_2_">
			<use xlink:href="#SVGID_1_"  style="overflow:visible;"/>
		</clipPath>
		<g class="st1">
			<path class="st2" d="M74.2,1581.3c-10.5-5.1,9.6-26.9,5.4-35.7c-8.5-127.1,38-62.3-78.6-96.1c-5.7-2.4-1.2-8.5,2.2-11.2
				c55-60.2,52.5-146,148.9-173.5c19.4,10.8,40.5,13.7,64.3,10.8c20.8-2.1,36.3,14.2,54.1,14.7c20.6,3,33.7-27.8,52.4-19
				c20.1,42.1,38.3,60.1,92.8,58c7.5,0.4,13.9-6.5,15.2,6.3c3.7,82.9-37.1,150.6-102.1,190.1c-14.5,4-18-32.3-30.3-35.5
				C236.1,1549.3,156.6,1578.4,74.2,1581.3z M602.1,1531.4c-75.1-31.7-121.9-109.4-122.8-192.7c2-29.4,26.1,0.6,40.7-4.3
				c42.3-1.8,51.8-52,30.7-83.4c-0.3-17.1,25.4,13.5,35.2,10.9c34,5.8,18.1,5.6,49.1-2.5c3.3-0.8,5.3-4,4.6-7.3
				c-0.1-0.3-0.2-0.6-0.3-0.9c0.8-6.2,8-9.9,11-15.8c17.2-30.6,79.4-30.6,66.3-76.5c-3.5-7.7,3.3-13.6,10.5-9.4
				c55.6,10.4,112.4,42.5,141,89.3c-8.8,18-30.1,30.7-49.5,38.7c-10.1,6.8,12.8,35.2,9.5,49.4c7.5,50.9,17.5,112.1,50.6,154.8
				c24.3,23.3-44.4,18.5-57.5,20.8c-57.3-2.4-125.6-11.8-173.2-51.7c-28.3-32.8-33.7,44.3-39.3,62
				C604.4,1519.7,613.6,1531,602.1,1531.4z M726.1,1032.4c-37.3,3-12.1-28.7-26.3-49.8c-6.6-17.8-18.4-34.6-22.5-52.7
				c-0.7-15.2-9.6-52.4-26.3-58c-6.2-22.4-24.2-0.2-35.8-12.9c-17.8-30.3-49.5-44.9-75.1-68.8c-4.9-3.6-3.1-9.8,1.4-12.1
				c44.1-31.3,90.5-36.3,141.7-31.7c38.9-2-3.9,40.9,16.5,48.6c53.8,5.2,97.2,43.7,150.2,53c74.8-13-25.2,86-49.7,95.2
				c-41.3,15.1,53.6,40.2,43,51.9C802.6,1018.8,769.4,1031.7,726.1,1032.4L726.1,1032.4z M86.6,1014.8C-57,918.2,73.4,933,36.4,877
				c-20-17-24.2-44-40.4-59c0.3-23.5-0.1-72.2,0-95.1c1.1-7.3,7.8-1.8,12.4-1.6c23.5,1.8,48.8,16.4,73.4,17.5
				c9.2-14.7-13.5-44.6,2.5-54.8c52.1,10.4,85.6,33.7,126.8,67c106.1,102.6-1.1,56.8-0.6,135.2c-1.9,10-9.8-0.1-14.7-0.7
				c-11,7.2-19.9-4.8-33.4-2c-23.3-0.2-34,17.3-46.1,35c-7.8,4.8,0.2,7.8-1.5,15.6c-3.4,26.6-30.2,46-23.3,74.4
				C91.9,1012.4,89.8,1014.5,86.6,1014.8L86.6,1014.8z M281.6,801.3c-5.7,0-9.2-3.9-10.5-11.5c-3.9-48.5-37.8-46.4-57.5-71.9
				c31.2-17.1,86.6,0.5,96.7,36.1c28,19.5,17.3-99.7,149.7-65.9c8.3,4.8-1.7,7.7-5.4,10.4c-2,3.9,0,9.1-6,10.3
				c-36.9,7.7-51.5,44.9-64.2,76.3c-6.1,9.4-42.5-8.5-51.9,7.1c-9.2,6.8-22.1,8.2-31.3,1.7C295,796.1,289.4,801.1,281.6,801.3
				L281.6,801.3z"/>
			<path class="st3" d="M841.5,728.3c-58.3-11.1-98.6-54.7-142.4-94.7c-5.5-4-4.1-11.3,1.9-13.5c8.4-4.4-0.1-15.4,9.2-20.3
				c4.4-38.9,35.2-51.4,23.2-63.6c-15.2-19.8,15.9-5.3,25.8-6.7c35.9-0.9,70.1,32.3,69.1,65.2c3.3,20.4,32.7,19.7,34.7,44.6
				c5.6,15.3-3.7,27.4-4.5,39.8C870.3,695.8,868.7,729.2,841.5,728.3z M815.7,649.4c-31.3,3.3-16.5,36.8,6.6,35.7
				C843.8,684.8,831.2,651.9,815.7,649.4L815.7,649.4z M792,587.9c-19.4,0.8-7.7,32.2,9.5,29.2C823,616.3,807.9,587.1,792,587.9z
				 M134.8,558.4c-37.2,0.2-23.8-34.7-20.2-54.6c-16.4-24.9,3.3-58.5,27-66.7c10.2-60.2,35-74.6,95.5-81.4c21-7.3-2.4,16.3,0.1,18.2
				c9.3,12.9,23.5,30.3,22.1,49.6c10.8,7.1,5.3,24.1,16.3,28.3C285.8,473.9,160.6,560.7,134.8,558.4z M160.5,479.1
				c-17.3,0.7-30.4,37.1-8,36C175.1,515.8,186.7,485.1,160.5,479.1L160.5,479.1z M182.2,418c-14.9-1.6-31.3,28.3-9.8,29.2
				C189.6,450.2,201.4,418.9,182.2,418z M554,555.2c-49.3-9.8-141.2-71.6-35.6-89c7.4-0.2,17,5.6,19.7-4.9
				c14.7-32.6,56.6-38.4,82.5-21.2c9.8-3.9,18.3-12.4,29.5-11.2c35.8-2.2,93.4,51.9,44.2,72.2c-34.9-16.6-21.4,6.3-37.8,4.7
				c-11.2-6-16,8.1-25.7,5.4c-7.1-0.7-4.1,9.4-10,9.7c-21.1-8-11.2,3.9-24.6,6.5c-13.7-3.2-14.5,9.6-29.1,10.1
				C560.1,542.4,564.6,556,554,555.2z M546.6,485.3c-36.4,1.8,9.5,57.4,19.5,22.6C566,496.5,556.4,485.3,546.6,485.3L546.6,485.3z
				 M608.6,459c-22.7,1.3-4.7,31.2,8.2,29.9C636.3,487.9,624.7,459.8,608.6,459L608.6,459z M416.4,384.8c-7.3-0.1-4.4-7.6-5.4-12.1
				c-10.4-10.8-25.7-15.4-39.2-16.5c-2.2-10.8-10.5-8-18.6-5.1c-5.8-0.2-3-9.7-9.6-9.4c-7.6-0.2-15-7.1-21.5-7.4
				c-17.4,8.6-13.1-19.4-36.6-5.8c-46.2,4.9-17.2-57.7,7.3-60.6c20-12.2,42.9-9.9,62.1,1.8c25.3-19.9,72.1-5,82.2,24.3
				C555.1,304.8,495.1,368.9,416.4,384.8L416.4,384.8z M427.1,315.2c-10-0.1-20,12.8-19,22.4C416.4,371.8,465.3,317.7,427.1,315.2
				L427.1,315.2z M366.4,288.9c-9.2,0.3-14.8,5.7-18.9,16.5C345.4,341.8,399,294.8,366.4,288.9L366.4,288.9z"/>
			<path class="st4" d="M525.3,1331.5c-23.4-0.1-40-11.1-62.1-11.3c-39.5,5.7-92.6,16.7-121.2-17.8c-8.6-9.9-12.7-24.2-13.1-40.2
				c-8.7-19.4-34.3,33.9-56.7,26.7c-58.5-27.3-106.8,1.4-122.4-36.2c-6.9-19.4-23.6-33.4-35.7-49.7c-26.8-38.3,22.9-59.3,42.6-78.4
				c-6.8-10.5-33.5-10.7-38-21.4c-11.6-15.9-0.6-44.7-14.4-62.9c-7.9-17.6-16.3-37-9.1-58.7c8.5-19,23.1-34.7,23.5-56.8
				c6.6-41.5,57.7-52.2,86.5-24.4c21.4,7.8-11.4-48.6,31.7-57.7c5.6-1.5,11.2-6.5,14.2-12.9c10.2-22.8,32.5-31.8,57.8-29.3
				c17.7-0.8,33.6-14.2,52-13c40.3-4.9,45.5,48.5,58,33.3c15.1-33,47.3-10.8,74.3-30.8c37.3-19.3,61.3,22.9,91.2,37.2
				c18.1,11.3,18.3,25.2,23.3,39.3c29.9-4.8,59.4,3.9,61.4,41.1c3.1,46.5,63.8,95.2,17.6,137.7c-9.7,11.1,33.3,20.7,34.5,37.6
				c5,14.7-2.6,23.3-7,34.4c-6.5,34.8,17.8,76.5-29.1,89.9c-31.2,8.7-48.3,59-83,55.7c-20.6,2.9-34.6-16.8-49.6-14.3
				c-2,1.8-2.6,4.8-1.3,7.2C568,1285.8,558,1325.7,525.3,1331.5z M819.8,684.7c-21.7,1.3-30.3-33-5.1-34.2
				C832.8,650.3,840.5,686.1,819.8,684.7z M693,622.8c-11.1-3.5-25-44.6-33.8-19.4c1,7.9-23.5,10.2-31.5,3.1
				c-7.5-1.6-4.5-11.6-11.3-13.3c-27.5-2.5-11.5-23.2-22.2-30.3c-26.6-4.8-52.7-10.4-15.8-32.5c4.3-9.1,18-0.6,22.2-8.7
				c3.8-10.9,12,0.3,17-7.1c4.5-5,10.4-6.4,16.3-5.2c7.8-4.3,14.7-10.7,24.6-5c8.4-4.5,19.9-18.3,30-6.5c14.2,10.7,13-8.8,21.6-8.8
				c10.6-4.5,1.5-19.3,3.3-27.9c-3.3-13.1-23.7-17.1-28.5-29.8c-3.1-5.3-8-0.5-12.2-1.6c-15.8-4.5-30.5-6.5-45.6,1.2
				c-14.5-7.2,4.3-32.9,18.2-30.4c38.9,12,10.8,7.1,39.5-5.5c20,0,22.2,25.3,42.2,13.1c27.1,6.2,27.2,41.4,14.6,61.7
				c-3.8,14.7,14.3,2.5,14.4,26.6c33.6,3.4,93.6-12.7,109.7,28c-1.6,7.4-0.1,9.1-2.9,12.1c-5.9,7,5.3,16.7-1.9,24.6
				c-8.9,9.5,4.7,14,4.5,23.1c-1.5,15.8-37.8,23.8-33.7,0.1c-4.7-33.8-20.8-36.7-44.4-54.7c-9.3-11-35.6,2-50.4-6.2
				c-16.4,4.4,10.7,20.6-6.1,29c-3.4,6.4-12.3,10.8-12.7,16.4c0.3,3.6-0.9,8.9-4,10.9c-7.8,4.3,3.7,19.8-5.2,21.2
				C697.2,604.9,709.8,620.2,693,622.8z M799.5,617.2c-14-0.5-25.1-29.9-5.1-28.9C813.6,588.4,818.2,616.4,799.5,617.2L799.5,617.2z
				 M551.9,517.2c-19.1,2.4-27.2-29.6-5.1-29.9C563.8,484.9,573.5,517.8,551.9,517.2L551.9,517.2z M155.4,515.4
				c-22.8-1.3-14.3-33.6,4-34.8C183,481.8,178.6,512.4,155.4,515.4L155.4,515.4z M617.8,489c-18.3-0.2-26.8-29-7.9-30.5
				C623,456.2,637.5,486.9,617.8,489L617.8,489z M281.7,452.6c-16.6-2.8-6.1-15.3-19.4-24.7c-0.9-15.1,4.8-8.5-5.6-23.3
				c-1.7-3.9,0.9-9.8-4.5-11.5c-5.6-3.1-7.1-10.1-12.4-13.8c-8.4-6.9,10.7-23.4-6.2-24c-13.8,7.5-37.8-6.9-46,5.5
				c-0.2,1.8-1.6,3.3-3.4,3.6c-14.2,1.8-18,14.2-30.1,18.8c-5.6,9.3-10.9,23.9-11.7,35.5c1,16.2-23.7,13.3-32,0.5
				c-7.7-8.6,10.1-15.7,4.6-24.3c-9.5-9.4,2.5-20-3.8-27.9c-2.9-2-1.9-9.9-2.3-12c14.2-37,71.6-28.7,104.8-26.1
				c14.4-5.4-5.4-10.9,20.1-23.7c-7.9-21-17.6-52,7.9-64.6c6.5-4.4,11.6,0.7,17.4,2.5c9.2-3.9,17.6-17.9,30-17.3
				c7.9-3.3,13.4,16.5,22.2,11.4c16.4-17.9,54.7,7.4,35.7,24.3c-16.3-11.1-34.9-0.6-52.2-2.1c-11,6.2-20.3,18.6-29.8,27.2
				c-6.3,7.6-7.4,21.4-4.3,30.7c2.8,4.1,11.6,0.2,11.4,6.9c2.7,16.7,17.5-2.3,24.9-0.2c10.8,1.3,15.5,15.3,28.2,8.7
				c6.8-1,9.1,6.4,14.9,7.1c8.8-3.3,14.4,5.4,21.7,8c10.9-5.2,8.9,5.6,17.5,8.1c12.3-3.5,18.2,9.8,28.7,12.8
				c21.6,22.9-22.9,17.1-32.1,28c5,32.3-18.8,17-26.6,38.1c-5.4,5.7-13.7,6.4-19.4,6.4c-19.4,3.5-11-22.6-25.7-13.6
				C293.4,431.6,291.7,450.6,281.7,452.6z M174.2,447.2c-21.8-1.1-6.8-33.2,4.8-28.9C201.6,417.9,187,446.9,174.2,447.2z M976,446.4
				c-49.3-1.4-49.7-10.5-79-43.3c-43.6-1.9-32-48.7-55.1-41.3c-23.4,3.4-31.2-22.5-46.5-22.1c-26.9,8.9-57.2-12.1-68.2-37.5
				c-6.2-9,9.3-27.3-5.3-29.2c-18.8-1.9-33.1-11.5-43.8-29.4c-9.4-7.6-24,7-34.6,4c-15.7-1.4-31.8-1.5-42-17
				c-6.3-12.2-16.3,1.4-26.4,0.6c-26.8-0.9-55.1-10.7-66.2-37.6c-1.5-4.7-8.4-5.5-10.8-1.2c-24.3,36.3-70.9,12.8-100.9-3.3
				c-39.1-15.2-120.5,24.3-132-33.4c14.2-30.7,1.9-17.4-18.1-33.6c-3.6-8.1-9.4-9-17.9-7.5c-14.3,1.5-25.3-10.6-36,2.1
				c-50.4,29.7-45.1-14.2-78.2-0.4c-18.9,7.3-31.7,9.9-47.9,8.8c-8.1-3.1-12.7,1.3-15.8,8.3c-9.8,11-49.1,42-55.5,29.9
				C-0.4,159.5-11-5.1,0-4c4.4,4.2,980.5-7.8,980,4C975.7,111.5,987.8,340,976,446.4z M419.3,347.2c-32.1-9.4,17.9-51.7,21.4-16.3
				C438.9,345.1,426.6,347.1,419.3,347.2z M356.4,319c-19.8-2-5.6-32.7,7.7-30.5C382.8,289.8,374.5,318.7,356.4,319z"/>
			<path d="M976.5,443.7c-0.6-3.2-4.9-3-8-2.7c-23.9,2.4-42.5-6.6-56.6-25.9c-4.3-5.8-4.2-15.8-14.8-15.9
				c-12.3-0.1-21.8-6.7-28.2-16c-4.1-5.9-15.3-14.3-2.8-21.5c34.2-17.5,15-36.2,36.8-34.6c79.5-19.8,18.3-103-39.3-96.4
				c-2.6,0.1-4.8,4.4-7.6,0.8c-5.9-7.6-12.4-14.5-21.2-18.8c-0.7-0.6-1.3-1.4-1.5-2.3c-0.1-0.2,1.1-0.8,1.7-1.3
				c9.5-6.7,20.3-9.7,31.6-12.4c40.3-9.8,74.7,13.7,104.8,37c2,2.4,6,0.8,4.8-2.3c-33.2-40.7-91.5-59.2-139.6-33.4
				c-6,2.7-7.1,12.3-17.3,9.3c-24.2-7.1-58.6,13-66.7,36.6c-1.2,3.6,1.5,10-4.3,10.9c-16.1,1.3-17.6,14.8-25.8,14.4
				c-36-2.3-38.1-37.2-51.1-32.4c-19.4,9.2-52.2,11.6-66.3-8.2c-3.5-5.5-7.5-9.8-15.6-5.8c-15.5,9.4-34.3,2.4-49.7-3.5
				c-23.5-8.4-37.9-39.4-27.3-61.8c7.3-21.6,61.1-48.1,71.8-18.2c1.5,4,4.5,1.4,5.7-0.2c8.9-12.2,21.4-11,34.2-9.9
				c14.6,1.2,17.7,12.9,20.3,23.3c5.6,21-23.8,36.6-39.2,23.3c-15.5-10.3,12.8-25.2,2.3-26.1c-11.8,0.8-17.8,19.1-12.8,28.8
				c7,11.5,18.7,9.6,28.9,10.5c30,1.9,44.5-53.2,10.2-67.8c-5.3-1.5-4.2-3.9-0.8-6.1c13.5-8.8,39.1-7.3,51.6,7.7
				c2.2,2.6,5,4.6,7.6,3.6c41.7-14.5,84,42.8,22.8,50.7c-5.6,1-11.8,1-16.8-2.3c-3.9-2.7-10.6-6.2-7.2-11.7c4-6.4,11.5-8.7,19.4-6.6
				c7.2,3.6,15.8-3.9,6.5-7.2c-5.7-1-11.5-2.4-17.1-1.9c-17.8,1-28.5,20.6-11.3,32.2c10.1,8.1,20.5,7.6,32.4,6
				c21.4-2.9,33.1-14,33.8-34.9c0.1-2.9,1.2-3.2,3.2-2.5c37.9,7.6,77.3,1.8,105.5-28c15.6-13.6,46-28.2,33.8-54
				C874,36.4,836,42.6,807.1,62.1C765.8,82,740.9,40.2,688,94.6c-3.2,3.4-3.8,13.8-15.5,9.3c-39.5-15.1-44.1,19.4-71.5,16.5
				c-5.4-1.1-9,7.3-11.7,5c-28.3-21.5-74.3,1.3-87.3,30.1c-4.6-4.2-9.1-11-15.3-13.4c-10.1-4-11.6-7.9-3.6-15.1
				c4.5-4.1,1.3-12.3,7.3-14.8c5.5-2.2,10.5-5.7,14.5-10.1c6.3-6.8,23.9,7.9,45.9-4.5c42-26.6-9.1-76.6-46.9-56.9
				c-5.9,2-9.2,10.8-16.1,7.8c-14.7-6.4-27.9-2.3-40.2,4.9S428.8,77,409.3,71.8c-28.3-1.3-58.1,29.5-47.3,58
				c16.8,37.6,92.9,27.9,81-16.5c-5-12.1-20.1-16.3-33.5-9.3c-3.2,1.6-8.4,2.6-6.3,7.4c1.8,4.2,5.5,0.8,8.3-0.2c2.5-0.8,5-1.3,7.6-2
				c29.5-3.8,16.3,33.1-3,35.1c-12.3,3.2-26.2,1.4-36.1-6.6c-42.9-46.5,44.5-71.1,77.8-49.7c25.1,11.6,26.8,28.1,5.8,45.6
				c-5.1,4.5-3.1,13.1,4.2,11.4c61.4,17.1,21.2,77.1-25.9,60.5c-38.8-17.6-53.2-30.8-98.6-22.1c-20.2,2.4-40,3-58.2-6.8
				c-7.7-4.1-17.9-8.4-15.7-20.3c1.4-7.9,5.8-16.8,12.8-18.7c19.2-5.1,34-14.5,42.4-33c3.4-7.5,11.8-5.3,17.6-8.6
				c28.7-18.2,21.8-52.6-13-56.9c-8.5-2.3-31.4,5.1-35.8,11.9c-4.1,6.3-13,4.9-15.2,1.3c-15.4-25.6-56.2-20.9-75-9.4
				c-5,3.1-6.3,12.3-14.6,9.7c-12.5-3.8-24.2-1.5-35.8,3.6c-2.8,1.3-7,3-9.1,1.8c-8.9-4.9-17.5-9.8-27.9-11.6
				C64.1,29.4-7.2,77.7,48.1,124.1c4.1,2.8,2.3,4.5,0.2,6.8C35.7,144.6,21,155.3,3,160.8c-4.3,0.7-2.6,6.6,1.2,6.1
				c23-3.1,39.4-16.6,52.3-34.6c2.3-3.2,3.7-4,6.5-3.2c18.4,5.9,34.5-3.1,51.5-7.3c6.7-1.6,14.2-11.3,20.1-4
				c16.1,20.3,47.3,13.9,62.2,2.4c13.5-10.4,27.1,3.2,40.5-1.2c1-0.3,2.3,0.1,3.4,0.3c6.3,11.5,17.9,15.6,29.7,17.7
				c-19.7,17.2-4.5,47.1,19.6,51.8c21.2,6.8,45.1,5.6,67.3,3c19.5-3.6,37.5,0,54.1,8.9c28.2,18.5,68.9,26.4,91-5.9
				c13.1,29.3,47.4,46,78.5,40.7c4.4-0.9,9.5-9.2,15.1-1.8c10.8,14.3,42.3,24.3,59.3,18.9c8-2.5,14.6-9.6,23.7,1.8
				c9.7,12.2,23,22.4,40.6,22.8c1.8,0,2.8,1,2,3.7c-8.5,22,7.3,43.7,25.8,54.4c14.2,9.8,30,16.1,47.9,11.3
				c8.3-5.6,14.6,21.8,44.8,21.7c3.8,0.1,11.2-3.8,12.7,3c3.5,15.8,13.5,25.9,26.7,33.2c5.8,3.2,15,2.7,18.5,7.2
				c14.3,24.3,41.8,45.8,71.6,36.2C972.3,447.4,977,447.5,976.5,443.7z M843.5,54.3c11.2-3.5,41.4,6.5,46.5,16.9
				c3.9,7.9-0.8,15.6-6,21.6c-6.6,7.6-13.5,19.9-19.1-2.1c-4.5-17.9-21.4-21.9-37.9-23.7c-3.4-0.4-7.4,1.2-9.8-2.9
				C825.4,58.9,834.6,57.1,843.5,54.3z M793,89.7c-1.7-9.4-10.8-15.6,4-16.5c18.1-1,36,0.6,52,10c44.5,42.2-60,71.4-89.6,54.9
				C780.4,131.8,795,110.4,793,89.7z M689.3,103.6c14.7-23.1,93.5-51.7,93.7-7.5c1.1,11.2-23.6,42.8-37.1,36.8
				c-13.5-13.9-29.3-20.6-48.8-15.9c-6.3,1.5-8.5-4.4-12.9-6.5C685.8,108.1,687.5,105.8,689.3,103.6z M505.2,49
				c42.9-21.9,81.5,45.6,18.8,44.6c-13.2,1.7-8.9-6.8-8.9-12.9C516.2,58.3,492.1,54.2,505.2,49z M441.9,73c-4.2-0.4-2.7-1.8-1.3-3.9
				c13.2-21.7,66.7-20.2,64.3,12.3c2.9,10.3-6.8,14.3-11.8,20.5C483.8,112.3,478.1,74.8,441.9,73z M299.7,54
				c10.4-10.1,28.9-8.1,41.3-2.8c15.6,6.4,13.4,24.2,1.8,34.1c-10.3,8.5-14.3,8.3-16.6-5.8c-1.7-10.5-11.4-15.6-19.9-20.9
				C303.9,57.2,297.8,57.5,299.7,54z M126.3,105.8c1.3,6.4-8.1,5.1-12.4,6.8c-14.7,5.7-29.8,9.9-46.2,8.5
				c-17.1-1.5-27.5-15.3-30.6-30.9c0-11.2,18.7-32,29.9-35.2c16.2-4.6,59-2.8,70.7,9c2.9,3.3-3.8,7-6,10.6
				C125.7,84.4,123.9,94,126.3,105.8L126.3,105.8z M191.1,113.4c-8.7,6-18,8.3-27.4,9.2c-22.8,2.2-39.3-24.1-25.9-43.3
				C161.3,35.7,250.3,71.6,191.1,113.4L191.1,113.4z M239.6,109.5c-9.7,2.2-18.8,0.7-28.4-1.2c15.3-19.8,7.4-37.5-10.8-52.1
				c13.7-15.2,36.5-14.9,55.1-11.3C287.1,58.8,269.5,102.2,239.6,109.5L239.6,109.5z M250.1,119.2c-8.7-4.7,31.1-13.2,30.7-47.5
				c0.1-10.1,1.8-11.8,11.9-8.9C357.5,82.1,290,156,250.1,119.2L250.1,119.2z M806.8,338.2c-4-6.4-10-2.8-15.4-1.3
				c-21.9,6.6-52.9-15.5-60.3-35.8C726,284.5,738.3,267,757,264c7.1-1.1,15.6-0.1,6.8-12.1c-4.6-6.2,4.1-13.5,8.4-18.9
				c19.4-24.4,62.8-19.1,76.9,8.9c2.2,4.4,6.8,4.4,10.8,2.2c19.6-11.7,59.2,13.1,66.3,32.3c11,19.3-7.9,37.2-26.2,41
				c-13.9,3.5-11.4-8.5-14.5-13.7c-8.5-14.7-19.8-21.9-37-23.1c-72.1-7-28.1,63.4-11.7,42c-1.8-1.2-3.5-3-5.5-3.5
				c-7.8-2.2-10.7-8.6-12-15.2c-2.8-14.3,9.2-13.6,17-13.3c40.7-7.2,64.3,47.7,20.5,64.4C838.6,362.5,817.5,355.1,806.8,338.2
				L806.8,338.2z M865.1,1450.5c-14.4-35.6-25-73-30.2-111c-2.6-17.6-4.4-35.6-13.7-51.4c-1-2-1.8-4.2-2.3-6.4
				c18.2-6.4,50.7-24.4,53.5-45c-8.1-29.7-71.8-67.4-100.1-79.4c-12.8-5.7-25.9-11-40.8-10.9c-4.2,0.2-12.9,2-14.2-4.9
				c-5.3-21.9,11.4-32.6,10.8-48.4c-4.1-22.5-16.9-37.4-40.8-40.6c4.9-4.3,13.2-18.8,18.6-19.2c46.7,13.9,93.9-7.4,133.7-30.6
				c4.3-2.5,8.3-6.5,9-11.9c0.2-1.8-1.7-5-3.4-5.7c-15.3-6-29.4-14.6-41.8-25.3c-25.9-8.1,7.8-17.2,16.9-24.4
				c29.8-20.9,52.2-48.6,64.2-83c1.8-3.9,0.1-7.4-5.4-7.5c-39.2,2.3-75.9-15-110.6-31.1c-21.2-11.4-43-20.6-67.2-22.9
				c-1.4-0.1-4.8,1.9-4.1-2c1.7-9.2,2.9-18.6,6-27.3c8.7-20.2-27-20.6-39.3-22.3c-40.5-1.2-82.6,8.8-117,30.7
				c-25,21.5-21.5,2.2-48.5,12.4c-17,4.8-33.7,10.5-51.9,11c-15,0.4-26.7,9-32.8,24.1c-2.2-3-5.7-5.6-6.1-8.7
				c-1.7-13.1-29.8-16.8-12.9-36.4c2.8-3.2,4.4-7.6,6-11.7c26.6-64.5,73.8-41.6,112.3-68.8c-0.3-1.3-1.3-2.4-2.6-2.9
				c-20.2-3.3-40.3-7.4-60.6-9.2c-67.7-9.7-105,8.1-131.5,72.4c-1.4,2.5-4.2,3.5-5.5-0.2c-12.2-46.3-62-47.7-101.5-45
				c-7.8-0.3-15.6,10-6.1,14.9c10.5,6.8,20.7,14,31.6,20.1c22.8,12.8,25,36.9,32.4,58c0.3,0.8-3.6,3.4-5.8,4.6
				c-1.6,0.8-2-0.9-2.8-2.2c-6.8-10.2-13.5-20.7-21.4-29.9c-38.8-40.7-88.7-82.5-145.8-91.4c-5.2-0.6-13.8-7-16,0.7
				c-5.8,17.8,1.7,36.2,1.1,54.4C69,734.3-2.7,703.9,0,722.8c25.6,6.9,52.6,11.7,77.7,21.7c2.7,1,10.9,7.9,10.9-1.2
				c0.3-18.5-6.4-36.7-5.2-55.3c0.5-0.1,1-0.1,1.6,0c64.8,13.9,121.6,56.1,161.2,108.4c11.5,12.7,9.3,20-0.4,31.5
				c-7,8.3-16.7,10.4-24.6,16.1c-15,10.5-13.8,26.7-14.7,42.6c-7.2-4.4-14.4-10.7-14.2-20.2c0.5-11.5-9.2-24.1,3-34.4
				c10.6-9,14.6-21.9,21-33.4c1.4-2.6,6-8.1,1.6-10.5c-6.3-4.8-18.4,35.9-30.5,41.1c-0.9-25.9-20.7-92.3-48.1-97.5
				c-1.7,1.6-0.3,4,1.3,5.5c13.6,12.9,27.1,35.5,28.7,55.5c-13.6-14.7-25.8-27.9-38.1-41c-0.9-1-2.2-4-4.6-1.7
				c-2,1.7-2.2,4.7-0.6,6.8c10.5,12.6,20.3,25.8,32.8,36.6c5.8,5,14.1,9.9,15.9,16.4c5,18.4,7.3,37.5,10.6,56.3
				c-5.4-0.1-6.8-5.2-10.3-7.7c-12.2-8.7-24.7-17.2-35.8-27.2c-10.3-9.3-9.4-23.9-13.7-36.1c-4.5-11-11.1-37.1-23.9-39.7
				c-2.3,0.6-0.9,2.4-0.3,3.6c9.6,19.8,17.6,40.4,23.7,61.6c-40-28.8-78-52.8-124.6-67.1c-1.7-0.4-3.9-1.7-4.7,0.5
				c-1.1,6.2,22.2,13.7,27.6,16.8c20.6,8.4,39,20.8,59.3,31.2c-6.2,2.3-10.9-0.5-15.9-1.2c-16.2-2.3-32.3-4.7-48.5-7.1
				c-3-1-6.7-0.8-6.7,3.4c0,2.2,2,3.4,4,3.8c18.4,3.5,36.9,7.1,55.4,10c9.4,1.5,20.8-1.5,28.1,2.8c17.3,10.2,32.7,23.5,51,37.2
				c-19.5,0-36.3,1.2-52.7-0.4c-7.3,0.6-41.5-8.6-41.8,0.2c0.1,1,0.8,1.9,1.7,2.3c23.9,6.2,48.4,6.1,72.9,6.2
				c10.7,0,22.7-3,31.9,0.8c10.1,4.8,19.4,15.5,26.9,24.7c-27.6-13.3-60.5-1.1-71.8,27.9c-1.3,3.1-4.4,3.2-6.9,2.3
				c-11.9-4.8-24.5-7.4-37.3-7.8c-3.3-0.1-5.2,1.6-5.3,4.3c0,6.6,20.4,4,25.9,5.9c2.8,0.9,15.5,2.3,7.3,5.4
				c-14.7,6.2-30.2,10.3-46,12.3c-2.8,0.4-6,1.5-5.9,3.7c2.5,13.3,49.1-5.8,57.9-8.8c4.2-1.5,5.4-0.4,4.5,3.3
				c-5.3,28.9-29.3,45.6-23.9,77.6c-17.8-8.2-67.4-52.2-66.3-71.8c13.2-22.3,43-40.2,18.6-64.8c-13.6-14.1-24.2-30.4-30.5-49.2
				c-0.8-3.3-3.9-9.5-8.8-7c-3.8,5.4,3.6,15.3,5.6,20.9c34.3,69.8,53.3,32.3,18,82.6c-3.9,6.4-11.6,11.4-11.6,19.5
				c8.7,30.9,34.8,55.3,61.1,72.4c9.1,5.6,22.5,6.4,23.2,21.7c0.2,4.2,4.6,8.1,5.7,12.4c1.8,7.3,8.1,13.5,6.4,21.7
				c-8.6,34,14.1,47.1,42.8,57.2c-36.4,9.8-66.9,53.5-37.8,86.3c10,11.7,23.5,21.2,28.6,36.6c1.3,4.1,9.1,10.3,1.8,13.1
				c-12.4,4.7-24.2,10.7-35.2,18c-24.2,16.2-41.3,38.6-56,63.6c-18.5,30.5-25.6,68.6-52.5,93.2c-9.4,7.7-14.5,10.8,0,15.9
				c79.9,29.4,87.2-10.3,76,27.8c-5.4,12.5-3.9,25.5-2.2,38c1.3,19.1,3.5,41.9-10.2,56.9c-4.9,9.7,11.2,10,17.7,9.5
				c79.9-5.4,161.4-31.6,217.3-91.3c26.1,48.3,26.7,40.9,67.9,10.4c49.3-37.9,73.6-108.3,68.5-169.2c-0.5-4.1,2.1-5.7,4.9-6
				c10.5-1,21-1.7,31.6-2.1c3.7-0.1,5.6,1.1,4.8,6.2c-7.4,41.7,12.1,81.8,30.5,118.2c16.8,30.8,41.7,56.4,71.9,74.2
				c9.2,5.9,19.7,10.9,29.7,10.9c5.1,0,1.6-12.7,2.7-19.5c5.5-22.6,9.6-46.2,18.2-68c1.9-3.5,5-5,10.5,1.6
				c49.8,50,190.5,73.7,254.1,43.8C883.4,1480.4,871.5,1467.1,865.1,1450.5L865.1,1450.5z M717.4,1084.5c4.6,13-3.3,21.8-7,31.6
				c-12.2,35.6,25.7,64.9-26.8,87.6c-16.6,6.4-28.5,16.6-38.9,30.5c-44.8,62.2-98.7-8.7-144.9-30.5c19.8-9.1,26-28.3,36.5-43.8
				c9.3-13.8,23.4-20.6,36.5-28.8c22.9-14.2,27.4-48.8,12.8-70.4c0-1.8,1.9-4.6,4.2-2.6c26.7,15.8,58.2,11.6,86.3,1.6
				c11.4-6.1,36.9,12.4,41.3,24.7V1084.5z M307.8,941.5c1.5,1.8-1.8,7.7-2.9,11.7c-3.8,14.6-8.1,29.1-11.2,43.9
				c-1,4.5-2.1,9.9,0.8,14.7c0.9,1.4,0.4,2.6-1.1,3.6c-30.7,19.8-5,55.3-31,61.1c-16.9,6-40.5,4.1-48.1-13.3
				c-3.9-8.8,2.4-17.1,3.7-25.6c7.1-30-20.1-56.5-6.5-85.7c3.5-6.7,10.4-12.7,17.2-16.2c13.5-7,22.3-17.9,29.5-30.4
				c5.6-9.7,22.5-14,32.8-9.6C316.5,905.1,288.9,921.4,307.8,941.5L307.8,941.5z M419.9,967c4.8,0.2,10.8-0.8,12.9,4.2
				c7.3,17.6,41.1,54,59,59.9c2.1,0.6,1.1,1.9,0.3,2.4c-14.6,8.4-19.1,26-32.3,35.5c-5.3,3-10.7,9.2-16.4,10.2c0-2-0.5-4.2,0.3-5.8
				c5.7-12.6,11.7-25.1,17.3-37.7c1.3-2.8,1.7-7.6-1.3-8.1c-5.4-1-6.6,5.6-8,8.6c-7,15.1-15,29.7-17.4,46.8
				c-0.5,4-9.4,6.9-15.6,11.1c9-25.8,13-49.6,22.5-74.4c0.3-0.7-0.2-1.6-0.4-2.4c-13.1,4-13.7,20.7-17.5,31.3
				c-5.3,16.4-7.8,33.6-12.7,50.2c-1.4,4.8-6.8,8.4-12.5,15.1c4.3-34.8,10.1-62.2,19-94.6c1-3.9,3.5-7.7-0.4-11.3
				c-14.9,27.7-20.3,60.2-23.9,91.3c-0.9,13-2.7,25.9-4,38.8c-0.2,2-1.7,2.7-3.2,1.9c-4.5-2.2-13.5-0.4-12.1-8
				c4.1-22.8,4.9-46,6.9-68.9c1.4-15.8,0.5-31.8,0.7-47.7c0-2.6-1.8-3-3.5-3.3c-2-0.4-2.5,0.9-2.6,2.7c-3.6,29.9-3.6,59.2-5.4,89.9
				c-11.6-10.5-11.4-10.5-12.6-44.5c-0.4-10.2-2.5-20.3-4.1-30.3c-0.3-1.9-1.3-5.2-4.3-4.5c-2.6,0.6-1.7,3.2-1.7,5.3
				c-0.3,16,4.2,31.8,1.6,47.9c-12.8-13.7-11.6-34.3-21.9-48.7c-10.8-7.9,0.4-10.3,3.7-12.3c16-10,32.4-20,51.5-22
				c9-1,17.3-3.8,25.5-6.6c7.1-2.4,7.1-10.9,9.8-16.9C417.7,970,415.7,966.8,419.9,967z M510.5,906c-4.6-17.2,8.9-11,14.1-11
				c27.7,1.1,23.6,39,57.8,47.5c12,4,23.7,23.5,19.5,35.5c-3.6,10-0.8,20.8,2,30.5c4.3,14.7-8.9,43.8-29,42.7
				c-18.4-0.7-33.4,3.6-39.2-18.7c-0.9-2.1,2.7-2.6,4.3-3.9c13.6-10.5,24-22.8,25.4-41.3c2.9-25.9-2.1-42.1-30-46.6
				c-10,2.2-19.1,3-28.8,0.6C489.6,936.6,516.9,928.5,510.5,906z M519.8,951.5c18.1-2.4,39.2-2,36.8,23.1
				c5.5,37.1-34,68.3-65.5,47.3c-18.2-14-35.2-29.2-47.5-49c-9.2-14.8,0.3-43.5,17-46.2C477.3,925,487.8,953.5,519.8,951.5
				L519.8,951.5z M531,1061.8c-9.8,12.6-26.4,18.5-32.6,34.5c-10.2,28-19.3,56.7-52.4,62.5c-42.9,10.2-70.3-22.2-27.2-53.9
				c14.1-11.6,32-16.9,45.6-28.7c10-8.8,17.1-20.8,26.9-30c16.9-15.9,16.3-4.1,31.2-9C534.4,1035,538,1054.4,531,1061.8z
				 M361.4,1137.3c-21.3,24.8-54-14.1-65.3-32.4c-10.6-18.8-14.4-39-9.4-60.4c1.4-8.4,2.4-17.1,11.8-21
				c13.8-0.1,26.3,14.1,28.6,29.3c2.4,16.1,10.2,30.8,22.2,41.8C364,1108.2,369.9,1126.4,361.4,1137.3z M378,987.2
				c-12.3,0.9-23.7,6.2-34.8,12c-11.9,6.5-41.8,33.5-40.1,2.8c5.8-23.5,5-58.6,30-71.3c21.5,1.7,30,23.2,53.4,14.7
				c7.3-2.9,20.2,6.4,20.5,14.9C407.8,982.7,404.3,985.3,378,987.2z M216.9,1080.3c39.4,24.6,64.6-18.3,61.5,8.6
				c5.5,25.6,28.5,55.1,54.2,62.4c3,0.7,4.6,2.9,1.1,5.5c-31.7,24.5-17.9,44.8-33.4,42.1c-54.3-3.7-21.9-50.5-71.8-73.8
				c-17.9-10-25.2-24.7-19.5-44.2C211.2,1073.2,215,1079.1,216.9,1080.3L216.9,1080.3z M322.7,1183.6c6.1-9.2,13.8-16.6,20.8-24.9
				c7.4-8.7,20.6-6.8,26.4-17c7.6,9.2,23.3,2,29.6,15.9c3.2,7,13.3,7.9,21.4,9.7c12,2.7,14.9,13.6,18,23.5
				c6.6,20.4-2.9,37.1-29.8,31.8c-15.1-2.7-27.8,2.7-41.2,7.2C331.5,1246.7,304.4,1219.9,322.7,1183.6L322.7,1183.6z M437.8,1169.3
				c39.2-4,56.9-30.7,67.2-66.1c6-21.1,28.9-24.1,36.6-43.4c2.5-6.3,8.9-0.8,12.9,0c11.9,3,23.4-5.1,28.2,10.4
				c12,29.9-7.2,52.7-33.8,64.3c-13.8,8.2-23.3,20.3-29.8,34.4c-8.4,18.3-27.7,32-47,36.4C443.5,1212,449.8,1184.2,437.8,1169.3
				L437.8,1169.3z M699,1018.8c-4,17.2-22.4,34-40.2,36.3c-24,4.7-36.7,8.3-60.2-2.3c14.5-17,17.8-33.8,12.8-54.9
				c-0.4-30.8,2.2-54-32.3-66.9c-4.1-1.3-24.3-14.8-15.1-17.7c20.3-6.8,34.9-19.9,45.4-38.6c25.2-16.5,55.2,4.4,55.7,33.5
				C667.4,948,705.3,977.9,699,1018.8z M543.7,781.5c40.1-29.5,91.2-36.1,139.4-31c25.3-1.3,6.4,25.1,6,38.5
				c-2.2,11.2,5.9,9.9,12.9,10.2c58.3,6.1,112.3,60.4,172.8,52.6c-8.8,31.1-28.8,48.5-50.3,70.2c-9,10.5-23.1,15.8-35.4,22.7
				c-7.9,4.4-7.2,10.3,0.1,15.5c16.9,11.7,31.8,25.6,52,31.7c-39.2,22.9-81.6,41.2-127.2,35.3c-11.7-2.9-4.2-11.6-4-16.3
				c0.9-30.1-22-53.9-28.5-81.5c9.2,13.8,22.6,22.3,35.1,31.3c9.4,6.7,5.3,16.6,10.2,24.1c5.8,8.5,10,20,20.7,23.2
				c-1-3.5-0.9-8.1-3.1-10.3c-8.1-8.1-11.5-18.2-15-30.5c4.4,5.6,43.2,30.5,45.5,22.6c3.2-5.2-3.4-5.6-5.7-6.6
				c-18-8-32.8-21.3-51.9-31.8c16.1-0.3,29.8,2.2,43.3,5.1c2.9,0.6,6.8,2.3,8-0.5c1.6-3.8-2.8-6.1-5.6-6.6
				c-16.2-3-32.4-7.1-48.7-7.7c-13.1-0.5-16.7-11.8-25.4-16.5c-22.9-13.3-7.8-46.3-36.7-56.8c15.8-6.6,23.5,6.8,32.4,14.1
				c21.5,17.3,49.7,38.2,77.3,42.4c-7.8-12-23.2-14.8-34.8-21.5c-15.4-8.4-28.3-20-44-32.3c18.7,3.5,32.4,6.5,50.3,8.1
				c26.1,4.2,45.6,27.4,73.6,24.4c8.9,1.2,10.7-4,0.4-6c-14.9,0.2-26.7-8.6-40-14.1c12.6,1.5,82.8-4.5,83.4-18.3
				c-1.5-3.8-6.1-2.2-8.8-1.3c-23.5,7-46.9,10.3-71.8,8.5c-14.7-1-29.4-4.2-44.3-3.3c-3.7,0.2-7.5-1.4-13.7-2.7
				C734,859,751,849.7,773,847c4.1-2,0.1-6.4-3.5-6.1c-24.5,0.5-47.4,11.7-69.4,21.2c-4.5,2.4-12.1,0.1-18-1.5
				c-18.2-5-36.3-4.6-54.7-1.6c-6.2,0.9-11.7,0.6-6.3-6.4c11.8-46,11.8-7.7,70.2-35.2c2.6-1.1,1.9-2.9,1.3-4.5c-1-2.8-4-2.3-5.6-1.7
				c-10.2,4.6-21.2,6-32,8.6c-6.9,1.7-13.3-1-21,1.9c10.9-17.8,20.5-34.6,35.3-47.6c1.1-1,2.3-2.1,0.7-3.8
				c-11.4-5.5-23,16.7-28.9,23.7c-4.3,5.5-5.2,2.9-6.7-1.1c-2.5-6.4-5.2-12.8-7.3-19.3c-0.8-2.6-0.4-6.7-3.8-6.3
				c-9.6,5.3,3.3,27.8,7,34.7c2.5,4.4,1.1,6.7-0.7,9.3c-8.1,12.1-14.4,25-17.5,40.3c-7.7-20.9-24.5-31-41.8-41.4
				c-10.2-6.1-18.5-15.4-27.7-23.1C539.5,784.5,541.7,782.8,543.7,781.5z M436.7,806.7c4.6-3.1,9.4-0.5,14.1-1.8
				c16.1,1.7,30.5-3.5,44.5-11.2c14.4-7.8,36.1-4.6,46.8,7.7c11.3,13,26.7,19.6,40.1,29.3c40.2,26.7,8.7,63.4-24.5,76.3
				c-4.2,1.7-3.9-3.1-5.5-5c-9.1-11.2-20.4-18.5-35-13.6c-10,3.3-17.1,0.4-24.7-5.3c-10.3-7.7-23.2-5.7-34.8-8.4
				c-13-3.1-25.4-9-37.9-14.1C413.2,841.6,419.9,817.6,436.7,806.7L436.7,806.7z M431.2,874.7c11.3,6.7,23.8,9.9,37.1,10.5
				c28.4,0,42.1,24.4,26.6,48.6c-1,1.9-5.7-0.7-13.8-7.6c-26.2-24.1-49.3,2.5-50.2,30.7c0.1,0.5-0.8,1.8-1,1.7
				c-4.9-0.9-12.9-0.5-14.2-3.3c-14.8-32.1-38.3-8.2-60.7-26.2c-16.8-11.3-25.2-11.7-43.3,5.7c-4.8-17.3-2.2-32.1,13-42.4
				c9-6.2,20.2-2.9,30.3-5c9.8-2,19.2-6.1,27.3-11.9C394,866.9,419.5,867.8,431.2,874.7L431.2,874.7z M447.7,704.9
				c-39.2,8.9-53.3,45.5-66.8,78.6c-0.3,0.7-1.6,1.5-2,1.4c-10.3-4.2-20.9-3.1-31-1.9c4.4-21.7,27.3-24.4,39.1-38.2
				c-3.4-9.4-13.5,2.5-19.9,4.1c10.7-21.5,26.8-43,52.6-43.3c5.9-1.2,25.6-5,30.1-2C449.1,704.2,448.4,704.6,447.7,704.9z
				 M312.9,783.7c33.2-76.3,56.5-110.7,146.2-91.8c-48.3,6.5-76,5.5-100.4,52.8c-12,15.8-15.6,42-37.2,48.2
				C309.4,796.6,305.3,795,312.9,783.7z M285.3,727.1c19.3,17.2,31.9,36.9,16.3,62.8c-20.8-57.6-25.2-58.6-72.3-73.6
				C237.6,712,275.5,718.3,285.3,727.1z M234.9,730.7c-5-2.2-9.3-5.8-17.7-11.1c45.1,12.8,62,22.3,73.6,67.2
				c0.9,2.5,5.5,6.9,1.1,7.6c-5.5,0.9-14.6,8.3-16.9-5.3C270.8,763.6,260.5,741.9,234.9,730.7z M237.9,846.6
				c28.7-12.8,15.1-44.7,68.7-42.1c13.7,0.9,24.9-6.7,37.2-10.3c19.1-5.7,44.6-2.9,57.3,20.3c7.6,13.9,5.6,28,5.7,42.2
				c0,0.7-1,2.1-1.5,2.1c-16.2-0.7-28.2,9-41.3,16.1c-16.2,8.6-40.6-1-51.7,16.8c-2.7,4.2-4.7,4.7-8.8,2
				c-28.5-19.1-48.5-4.8-60.6,17.7c-2,2.8-3.6,7.8-8.2,3.4c-10.4-9.8-18.7-21-19.5-36C217.1,864,220.8,851.2,237.9,846.6
				L237.9,846.6z M144.6,1113.1c-20.7-6.7-30.1-13.9-27.4-36.4c2.8-33.2-30.4-59.8-18.1-93.8c9.9-22.1,21.7-30.3,23.7-57.4
				c4.6-29.3,37.5-46.2,63.9-32.1c12.6,6.8,23.5,15.7,34.7,24.3c7.6,5.8,5.1,9.5-1.9,13.7c-38.3,21.4-11.7,62.7-9.7,95
				c0.1,9.9-2.6,20.1-5.6,29.7c-1,3.2,0.5,5,1.1,6.3c5.2,17.3-19.1,15.6-3,52.1C183,1117.1,163.6,1119.3,144.6,1113.1z
				 M145.1,1234.5c-8.9-11.7-18.7-22.7-27.8-34.1c-27.1-45.2,45.8-76.6,82.1-75.9c76.7,12.8,33.7,84.5,103.6,81.1
				c8-1.5,4.3,6.8,5,9.3c2.9,10.7,7.7,19.2,17,25.5c5.4,3.7-0.7,5.5-2.2,7.2c-18.4,21.9-41.3,50.9-72.7,30.2
				c-28.9-20.9-78,11.4-96.6-26.6C151.3,1245.4,148.8,1239.4,145.1,1234.5L145.1,1234.5z M409.7,1429.5
				c-16.2,40.7-47.4,69.4-83.2,92.9c-0.4,0.3-2.7-0.7-2.9-1.3c-2.3-9.5-10.8-15.2-14-24.5c-5.5-15.9-12.6-13.7-23.7-2.5
				c-54.6,56-135.4,78.8-211.7,83.2c11.8-19.3,10.5-44.1,7.6-66.1c-1.7-12.5,0.1-25.5,3.9-37.8c5.7-11.9,2.5-21-12.3-17.1
				c-24.1,3.2-48.2-3.7-71.1-10.7c15.7-14.6,28.5-30,35-50.9c3.3-8.9,9.2-16.8,12.3-25.7c8.3-23.5,23.7-42.4,39.8-60.5
				c15.4-19.2,38.4-30,60.8-39.4c4.8-1.8,7.9,3.4,11.9,5.1c16,6.8,32.1,6.9,49.2,5.5c50.3-1.2,50.6,38.3,102.4-7.8
				c-4.8,11.7-8.7,21.9-13.1,31.9c-2.1,4.8-7.7,3.9-11.5,4.7c-21.6,4.5-41.9,12.7-62.9,19c-5.7,1.7-13-1.5-19.4-3.1
				c-28.6-6-61.6-5.1-87.1,10.3c-7.9,3-3.4,8.9,3.2,5.7c27.9-12.2,59.4-15.3,88.4-7.1c-8.3,6.5-20.5,6-28.7,12
				c-10.1,7-22.2,8-32.5,14.3c-29.4,17-65.2,30-86.4,57.2c1.7,0.4,2.8,2.7,5.3,1c24.8-18.4,50.8-35.4,79.7-46.2
				c-9.8,19.8-25.3,37.8-44.9,49.2c-2.5,1.3-1.4,3.4-2,5.1c1.6,0.3,3.6,1.3,4.8,0.7c39.9-15.8,43.6-60.4,81.7-73.6
				c33.7-12.2,66.9-26.7,101.7-35.4c9.3-2.1,0.6,5.8,0.6,5.9c-7.4,14.4-13.1,30.4-23.7,42.1c-7.3,8.1-22.3,7.1-33.1,13
				c-21.6,11.9-41.3,26.3-60.7,41.3c-2.9,2.2-6.7,6.1-4.5,8.7c3.1,3.7,6.1-1.6,8.6-3.4c26.3-16.6,51.3-39.3,81.9-46.6
				c-16.7,28.2-37.2,52.6-60.1,74.8c-7.6,7.3-19.2,8.1-29.3,9.8c-19.8,3-51.8,19.6-61.1,37.5c-3.5,4.3,0,5.7,4,3.3
				c22.4-20.6,43.7-30.4,74.4-36.3c-18.2,17.8-31.2,37-50.8,49.5c-1.5,1-7.2,4.9-4.5,8c10.2,9,75.2-64.9,86.1-76.3
				c-4,16.6-5.9,31.3-11.5,45.1c-1.8,7.1-12.5,24.9-7.9,30.4c2.1,1.2,3.6-1,4.9-3c9.3-15,12.7-32,18.2-48.4
				c5.9-17.8,5.1-37.3,21.2-52.6c18.5-15.4,26.4-40.5,41.8-59.1c6.6,33.4,0.3,71.9-15,102.3c-1.1,2.1,0,5.3,0.1,8.1
				c23.2-16.8,25.5-66.5,25.6-93.3c0-7.7-0.3-15-3.5-22.4c-3.6-8.5,4.1-14.9,7.4-21.8c2.3-6.7,5.3-13.2,9-19.2
				c9.9,18,15.5,38.1,21.9,57.5c3.6,12.1,8.4,24.6,8.3,36.9c-2.6,17.8-25,35.1-18,55.2c1.5-1.2,4-2.2,4.4-3.6
				c3.1-13.2,10.1-24.7,15.8-37.8c5.1,20.6-0.4,39.6-1.2,59.5c-0.2,1.8,1,2.5,2.5,2.1c4-1.1,5.1-4.9,5.4-8c1.6-14.8,4-29.6,3.6-44.3
				c0.3-16.5-6.9-32.8-7-49.2c11,9.6,16.6,23.6,24.5,35.6c4.4,5.1,4.9,18.6,12.7,18.7c3-0.6,3-3.6,2.2-5.6
				c-8.6-22-19.8-42.9-36.2-59.8c-12.5-12.9-15.6-29-21.7-44.2c-16-34.2-13.8-19.4-1-52.9c6.1,47.1,59.5,64.1,100.4,56.7
				c2.3-0.9,2.5,1.9,2.5,3.8C427.6,1368.2,423.6,1399.4,409.7,1429.5L409.7,1429.5z M447.7,1317.6c-48.2,13.2-117.3,5.3-115.3-59.9
				c-1.9-13.5,6.2-12,16-13.3c14.3-1.8,28.1-7.6,41.9-12.1c20.5-6.6,44.9,13.3,54.8-14.6c5.1-14.3,15.1,7.9,35.9-5
				c11.1-6.3,18.3,1.1,26,5.6c35.3,18.1,69.1,68.3,32.6,102.9C518.2,1340,477.8,1308.1,447.7,1317.6L447.7,1317.6z M854.9,1496.3
				c-68.7,7.7-166.5-8.6-216.5-59.1c-9.9-6.1-12,5.7-15.2,10.2c-10.5,20.1-14,42.5-18.4,64.6c-0.9,4.7-3.2,8.8-0.4,14
				c0.8,1.6-3.3,1.7-5,0.9c-69.7-33.6-116.7-110.3-116.1-187.8c1.6-19.5,12-5,14.1-4.4c55.5,19.8,86.3-39.6,56.9-85.6
				c15.5,13.8,28.4,17.7,46.5,18.6c-29.9,50.6-53.1,108.6-43.7,168.7c0.7,4.9,1,10.3,6.1,12.7c1-3,2.9-6.1,2.7-9.1
				c-1.2-19.6-3-39.2,1.1-58.8c1.1-5.2-2-11.2,2.7-15.9c8.1,18.6,17.4,36.8,21.5,56.8c0.7,3.3,2.2,9.2,5.3,8.3
				c11.9-2.9-14-62.2-19.3-70.3c-11.7-18.8,20.1-68.6,29.7-86.6c4.4-11.9,27.8,12.8,33.3,16.7c-4.7,31.7-7.9,64.4-4.7,96.9
				c0.2,4.3-2.2,11.4,3.4,11.1c4.5-0.3,4.4-8.2,4.1-13.1c-1-27.8-0.2-55.8,5.8-82.9c0.6-7.1,3.2-3.2,5.2-1.2
				c8.5,8.8,17,17.5,25.2,26.6c7.7,8.6,1.9,19.6,4.6,29.3c4.9,17.4,6,35.7,12.8,52.8c3.8,7.2,10.5,38.5,19.5,36.9
				c1-0.7,1.1-4.4,0.3-6.2c-12.8-30.7-22-64.4-24.6-97.1c22.2,18.1,96.6,118.6,121.4,112.7c2.7-3.2-4.1-8.3-7.3-10.7
				c-30.3-22.5-54.3-51.1-80.4-81.6c21.7,8.4,41.8,14.3,60.2,24.2c6.8,2,23.6,17.8,28.6,12.3c4.4-11.2-79-43.4-90.9-46.4
				c-19.2-6.5-26-26.3-42.5-38.9c34.1,0.6,64,4.1,94.9,15.8c0.3,0.2,1.8-1,2-1.8c0.7-2.4,0.2-5.2-2.1-6c-10.5-3.6-21-7.2-31.6-10.1
				c-19.6-5.4-39.9-7.4-60-7.4c-21.7,0-27.2-21.4-43.3-28.2c-6.3-2.7-11.7-7.8-17.8-12c15-1.7,29.5-6.5,43.4-11.2
				c17.3-5.9,23,8.8,33.7,13.6c12.9,3.2,70,41,76,28.8c1.4-3.4-3.6-3.5-5.9-4.4c-28.2-11.7-54.5-26.9-81.8-42.4
				c10.9-4.8,22.2-5.2,33.1-6.5c22-2.6,43.8-6.3,66-6.3c1.1,0,3.2-2.1,3.1-2.9c-7.3-9.7-45.4,0.6-58.4-1.1
				c17-11.3,30.4-24.5,49.5-28.3c8.6-2.9,2.3-11.2-4.7-7.5c-21.8,6.4-40.5,18-55.1,35.5c-3.5,4.2-8.7,3.5-11.9,3.6
				c-23.3,0.3-44.9,10.8-66.9,14.1c11.9-12,18.5-29.6,36.3-34.9c16.2-4.9,29.8-13.3,37.9-28.2c4.8-9,5.9-19.6,3-29.4
				c-1.4-4.5-0.4-5.7,1-5.7c32.3,4.7,61.1,17.5,88,35.2c17.7,11.1,32.5,26,48,40.2s0.5,17.9-5.6,24.3
				c-27.6,30.4-54.1,14.7-38.3,38.8c7.9,12.3,9.3,26.6,11.2,40.4c8.5,55.6,19,116.8,56.8,160.5
				C872.7,1493.1,863.9,1495.3,854.9,1496.3L854.9,1496.3z M617.3,428.5c-25.9-14.4-70.9-1.1-84.9,25.3c-1,1.9-1.6,5-5.8,4.8
				c-15.8-0.6-31.1,2.8-44.3,11.4c-44.8,27.1-6.6,56.8,21.5,72.8c27.5,15.6,60.7,22.2,93,23c-7,2.1,5.7,13.2-8.3,14.6
				c-50.8,4.9-93.1-33.8-136.1-55.6c-16.3-9.8-32.4-19.3-52.4-18c-1.9,0.1-4.8-1.2-4.8,1.5c0,3.3,3.5,4,6.3,4.8
				c15.3,4,30.1,9.9,44,17.4c46.7,25,93.8,70.8,151,55.2c4.3,13.6,21.8,8.9,28.4,21.1c8.8,14.5,29,4.5,28.1,9.9
				C670.3,690,748,723.2,808,756.3c17.8,9.3,33.4,21.5,48,35.2c1.7,1.6,4.5,2.2,6.8,3.2c0.6-2.9,1.7-5.4-1-8.4
				c-5.6-6.2-9.7-13.8-15.8-19.3c-44.7-32.9-99.5-51-141-88.9c-18.8-18.8-50.4-49.7-38.8-78.5c32.5,59.7,92,100.2,150.2,132.4
				c30.5,15.6,66.6-1.8,55.2-39.3c-2.4-8.3-7-16.9-0.5-25.6c7.9-25.4-6.7-48.5-27.5-64c3,0,4.8,0,6.6,0
				c13.3,0.5,29.1-17.7,16.9-28.3c-10-10.6,11.8-23.5-3.1-36.1c31.7-49.6-78.7-52.9-106-39.9c6.4-13.8-0.4-20.2-12.3-24
				c-0.5-0.4-0.8-0.9-1-1.4c8.1-6.7,15.9-42.9,7-50.1c-22.2-33.2-29.3-4.5-40.7-19.5c-5-8.4-14.7-10.7-23.7-12.8
				c-8.3-1.9-12.7,3.9-15.9,10.3c-1.7,3.4-2.8,3.3-6,1.5c-21.1-15.1-48.6-5.9-46.4,22.8C618.9,426.7,619.6,429.9,617.3,428.5z
				 M597.9,559.8c-10.2-2.2-20.5-4.6-30.7-6.9c-3.2-0.7-1.7-3.5-2.5-6.3c7.4-17.8,28,2.8,39.2,6.7c0.2,0.1,0.2,1.3-0.1,1.7
				C602.3,557,601.8,560.6,597.9,559.8z M646.7,514.6c-1-2.5-7.6-0.6-4.8-4.8c2.8-4.2,9.4-4.4,12.5-2s13.6,4.8,4.8,12.7
				c-0.4,0.3-0.1,1.4-0.2,2.2c2.4-0.2,5.4,0.3,7.5-0.8c17.5-12.9,57.6,12,32.4,26.7c-1.2-2-2.9-3.8-3.3-5.9
				c-3.7-17.5-40.4-24.7-54.2-11.5c-6.8,6.3-1-4.4-20.3-14.3c10.5-9.5,18.4,1.1,26.4,6.6c0.9-0.1,1.8-0.5,2.4-1.3
				C653.8,518.1,647.7,517.2,646.7,514.6z M665.5,506.9c2.2-7.6,14.5-12.6,19.7-6.3c-0.1,11.6-9.1,9.8-15,11.9
				C669.4,512.8,665.1,508.2,665.5,506.9L665.5,506.9z M725.2,534.3c0.7-0.2,1.4-0.1,2,0.4c5.1,4.3,8.2,8.9,1.7,14.7
				C731.2,542.4,714.5,543,725.2,534.3L725.2,534.3z M685,574.7c0.7-2.8,1-5.7,6-5.7c5,2.4,23.6,24.2,15.7,29
				c-3.4,2-4.3-2.9-5.9-4.7C695.2,587.5,681.6,588.2,685,574.7z M682,563c-7.4-15.7-19.9-23.2-36.5-24.5
				C657.4,524.7,703,539.4,682,563z M693.7,561.7c6.7-12.4,19.9-3.1,20.4,9.8c-0.8,1.6-1,6.3-2.8,5.1
				C704.8,572.5,698.8,567.4,693.7,561.7L693.7,561.7z M708.8,552.4c4.5-1.2,3.7-8.9,8.1-7.4c5.9,2,8.9,9.4,5.3,13.1
				C716.5,564,715.7,550.2,708.8,552.4L708.8,552.4z M716.6,529.9c-2.2,1.8-2.9-3.2-4.3-5.1c-6.2-8.5-15-12.4-25.7-14.5
				C699.7,494.2,736.3,512.4,716.6,529.9L716.6,529.9z M634.3,537.5c0.3,0.3-1.5,3.2-1.7,3.1c-3.4-1.3-6.7,4.5-9.3,1.1
				c-4.9-6.5-10-12.2-17.9-14.8c-2.7-1.4-0.5-7.2,2.3-5.8C619.7,522.5,627,529.9,634.3,537.5L634.3,537.5z M609.1,536
				c3.6,1.9,6.5,4.9,9.5,7.7c-3.7,1.9-8.7,9.1-12.8,4.4c-5.6-7.9-14.8-10.9-23.4-16.6C593,526.4,601,531.6,609.1,536z M616.8,589.3
				c-9.1-0.4-13.8-5.5-15.4-12.8c-0.4-2.9,1.6-5.6,4.6-6c0.6-0.1,1.2-0.1,1.8,0.1C615.7,570.1,630.7,589.3,616.8,589.3L616.8,589.3z
				 M655.3,602.5c-2.1,6.3-16.5,5.6-24.1,1.4c-2.2-1.5-7.8-2.7-5.3-7.3c3.9-8.4,13.6-6.8,20.7-3.2
				C650.9,595.2,656.3,598.3,655.3,602.5L655.3,602.5z M660.3,589.2c-6.9,2.6-12.4-5.1-19.4-5.3c-1.2,0-2.5-0.8-4-1.4
				c-8.1,8.1-5.8-11.3-23.6-17.7c-1.7-0.8-4.4-3.3-4.1-3.7c7.7-12.3,28.6-13.7,41.8-12C672.1,550.8,682.2,580.3,660.3,589.2
				L660.3,589.2z M694.2,618.6c-4.5,3.3-10.4-19.3-22.9-25c4.8,2.4,7.2-7.9,12.3-2.5C690,596.9,708.4,611.2,694.2,618.6L694.2,618.6
				z M855.4,671.4c-5.3,8.3,3.8,13.1,4.5,19.9c14.2,93.6-138-36.1-157-59.5c-2.8-2.9-6-4.9,0-8.1c11.4-5.6,1.1-17.1,11.2-21.3
				c4.4-1.9,2.5-9.4,3.3-14.5c1.4-8.6,3.7-17.3,10.9-23.9c4.7-4.3,7.1-10.7,11.2-15.8c5.7-7.3-2.7-12.7-6.6-19.5
				c17.7,8,37.3,1.7,53.8,10.9c21.9,12.1,36.9,29.2,37.6,55.4c0.3,13.2,9.4,16.6,18.6,21.9C859.9,626.5,865.9,654.8,855.4,671.4
				L855.4,671.4z M791.1,529.5c25.1-3.1,48.2-3.9,66,16.5c5,5.7,1,11.4-0.9,16.2c-1.2,3-4.3-2.1-6.8-2.9c-8.7-2.9-17.9-4.8-25.8-9
				C811.6,544.3,803.5,534.8,791.1,529.5L791.1,529.5z M858.7,589.8c-7,6.4-26.4,10.4-23.1-4.8c0.6-9.1-6.1-16-8-24.6
				C837.6,559.8,870.1,579,858.7,589.8L858.7,589.8z M759.3,503c32.6-4.4,68.3-7.9,96.8,12.4c8.2,5.5,4.7,13.4,4.2,18.3
				c-17-9.8-30.4-14.5-50.2-15c-23.3-1.1-45.8,8.3-69,2.2C745.5,513.3,747.9,503.9,759.3,503z M750.7,490.3
				c-4.5,21-9.8,1.5-19.4-2.5c3-5.1,9.3-1,12-4.6C748.8,483.3,751.3,486.4,750.7,490.3L750.7,490.3z M724.3,442.8
				c1.2-6-0.8-12.7-1.1-19c-0.2-3.3-5.8-6.2-1-9.5c5.1-3.5,10.5-0.6,13.2,3c4.3,5.8,11.7,10.5,10.6,19.1c-1.2,9.9-1.1,20.2-6.1,29.1
				c-3.7,6.6-8.8,12.6-13.7,18.5c-8.1,5-8.4-5.3-6.6-11.5C712.8,461.8,722.2,453,724.3,442.8L724.3,442.8z M731.4,498.4
				c9.9,7.4,2.5,14.9,0.7,22.5c-0.2-16.2-11.9-21.7-24.4-26.7C714.3,491.4,725.6,494.1,731.4,498.4L731.4,498.4z M677.3,403.5
				c4.6-6,10.5-3.9,15.5-1.8c19.7,8,25.3,32,20,50.5c-3.3-2.7-6.7-6.4-10.9-8.7c-12.8-7.1-16.4-21.6-26.1-31.2
				C672.7,409.3,675.2,406.2,677.3,403.5L677.3,403.5z M645.1,404.9c13.6,0.5,21.3,10.2,29.4,19.3c0.4,0.4,0.1,1.5,0.1,2.3
				c-15.5-3.9-30.5-7.8-45.6-0.1c-1.1,0.3-2.4,2.4-2.7-0.8C625.2,415.1,634.2,405.1,645.1,404.9L645.1,404.9z M631.6,438.8
				c24.1-17.4,78.8,10.6,77.6,40.8c0.5,9-6.2,11.5-10.7,15.8c-4.7,4.5-9.7-0.8-13.7-2.8c-7.8-4-21.1-0.2-23.8,8.2
				c-0.5,5.3-14.2-6.6-24,5.8c-2.4,3.9-16-6-16.1,10.3c-7.8-0.9-17.6-9.4-21.4,5.6c-0.2,0.6-2.3,1-3.5,0.9c-6.4-0.3-12.3-2.5-17.1,6
				c-2.3,4-13.1,1.2-17.4,7.9c-0.7,1.1-2.4,2-2.4,3c0.8,19.5-12.7,7.3-17.1,6c-18.5-5.5-36.8-12-51.4-25.9
				c-7.6-7.3-19.1-12.9-17-24.8c3-18.3,40.2-29.8,56.5-23.2c3.5,1.3,9.4-2.8,11.9-9.7c9.4-25.4,53.9-38.2,74.7-18.9
				C620.8,447.6,627.2,441.7,631.6,438.8L631.6,438.8z M813.6,645.6c-32.6,6.4-22.9,40.3,7,43.5
				C852.5,690.1,833.6,643.2,813.6,645.6L813.6,645.6z M818,680.6c-8.4-1.2-14.3-6.4-15.7-16.1c2-5.2,6.3-10.4,12.1-10
				c11.3,0.8,12.5,11.6,14.1,19.7C829.5,679.7,822,681.2,818,680.6L818,680.6z M816.7,606.1c-0.5-19-38.3-35-39.6-5.4
				C777.4,619.9,815.2,632,816.7,606.1L816.7,606.1z M787.2,597.9c-0.9-5.4,4.6-5.7,7.9-5.6c8.2,0.2,11.2,6.9,12.5,13.2
				c0.9,4.2-3.5,6.8-8.2,7.7C792.1,610.9,788.5,604.9,787.2,597.9L787.2,597.9z M606.3,455.1c-26.5,3.7-5.5,41.4,12.2,37.7
				C641.7,490.8,628.9,453,606.3,455.1z M611.7,462.6c7.2,1.4,10.3,8.4,11.8,14.8c0.7,2.8-0.9,7.9-6.4,7.5
				C602.4,484.1,598,459.8,611.7,462.6z M545.7,481.3c-27.3,0.5-18.8,42.7,9.3,41.2C582.8,520,566.8,479.4,545.7,481.3L545.7,481.3z
				 M550.5,513.1c-7.8-0.4-12.3-5.5-13.1-12.4c-0.7-6.5,4.6-10,10.7-9.5C561,491.3,567.1,515.2,550.5,513.1L550.5,513.1z
				 M424.6,352.7c8,0.4,20.5-15.7,20.5-24.8c0.3-12.7-8.2-16-16.9-16.6C403.4,310.8,391.4,354.6,424.6,352.7z M413.4,335.8
				c-0.1-16.4,23-20.4,23.2-5.4C437.7,341.4,413.5,350.3,413.4,335.8L413.4,335.8z M102.2,491.8c3.5,13.8,1.7,25.8,0.1,38.1
				c1.7,94.8,132.4-15.4,161.4-42.7c18.1-16.9,32.1-36.8,47.2-62c-4,9.9,3.6,13,1.9,17.9c-3.7,10-6.9,20.7-12.8,29.4
				c-30.8,46.8-82.5,73-130.3,98.9c-20.5,11-40.1,22-54.5,40.7c-7.1,6.9-6.2,19.5,5.1,7.7c28.9-29.7,68.6-43.5,103.3-65.1
				c39.9-24.2,83.9-54.8,95.9-102.5c2.4-12.7,11.8-3.3,25.2-11.5c8.2-2.9,8.2-16.2,19.4-13.5c5,0.4,10.8-12.4,15-11
				c73.5,19,125-56.6,191.4-72.9c3.6-1.1,9-1.1,8.2-5.1c-0.7-3.5-6.2-1.2-9.6-1.2c-18.7,0-33.1,10.9-49.1,18.4
				c-41.6,20.6-78.8,57.7-128.2,55.5c-6.4-0.3-16.1,3.4-12-9.4c0.6-1.9-4.8-5.3-1.9-5.8c23.2,0.4,46.2-5,68.1-11.5
				c23.8-8.3,85.6-41.7,60.4-71.1c-13.1-16.7-31.4-22.6-51.7-24.1c-4.5-0.4-9.7,1.6-12.6-4.5c-13.1-27.5-59.5-40.7-86.4-25.8
				c1.4-18.4-10-38.5-32.1-32c-9.4,2.9-19.1,12.4-27.7-3.4c-3.5-6.5-29.3,2.3-32.9,9.9c-1.5,3.1-3.8,7.8-7.8,5.9
				c-14.3-6.1-35.7,7.9-36.1,22.3c-0.3,15.4,1.2,30.3,10.7,42.8c-11.5,4.3-20.6,9.6-13.9,23.8c-31.7-7.9-65.1-9-95.9,4.6
				c-12.8,6.3-22,22.6-13.6,30.7c3.1,2.9,5.8,4.2,1.3,8.9c-9.9,10.9,10.9,24.6-2.4,35.9c-3.2,3.3-2.7,7.1-0.5,11.4
				c5.3,10.6,13.8,14.7,26.1,13.6C110,448.3,96,467.7,102.2,491.8z M287.2,440.8c-2.2,2.8-1.8,10.3-8.2,7.1
				c-7.7-3.8-4.3-10.1-0.9-14.6s8.4-8.1,12.5-12.2c5.2-5.1,6.9,4.7,11.4,3C294.8,427.9,291.7,435,287.2,440.8L287.2,440.8z
				 M304.6,350.3c3.2,1.7,6.7,4.7,9.9,2.3c2.9-2.4-3.2-3.8-2.9-5.9c0.8-4.6,4.8-7.8,8.5-9.2c4-1.5,9.3-1.6,12.3,2.9
				c0.3,0.4-4.2,4.3-6.8,6s-3.4,3.1-1.6,5.6c5.2,6.5,14.5-18.2,29.1-4.9c-18.2,8.5-13.1,17.6-19.3,15.1c-20-14.1-50.2-8.4-58.5,16.4
				C250.2,364.8,289.3,339.8,304.6,350.3L304.6,350.3z M288.4,332c-0.1-3.6,5.3-4.5,7.9-4.2c5.4,0.5,9.7,4.1,13.3,10.4
				c-1.9,1.4-4.4,4.7-6.1,4.3C297.3,341.1,288.8,341.1,288.4,332z M367,357.1c-12.9,5.7-15.2,21.8-27.5,11.6
				c6.7-9.5,14.7-15.5,28.2-18.2c0.8-0.3,1.8,1.9,2.3,4C370.7,356.9,368.2,356.3,367,357.1z M379.8,359.8c4.3-1.1,7.7-0.9,11.2,2
				c-7.5,5.6-16.7,7.9-22.1,15.6c-4.2,5.8-9.5-1.5-13.5-3.8C362.9,367.4,370,361.5,379.8,359.8L379.8,359.8z M328.5,368.4
				c-16.7,1.3-29.1,9-36.6,24.6C271.7,369.3,315.4,355.3,328.5,368.4L328.5,368.4z M260.6,357.1c-0.7,1.3-2.1,2.3-3.2,3.4
				c-19.8-17.9,16.4-36.1,29.9-20.4C276,343.1,266,346.4,260.6,357.1L260.6,357.1z M253.8,369.6c-3,2.9-8.3,3.3-9.5,9.1
				c-5.8-5.4-1.8-11.6,3.6-14.8C248.6,363.6,251.8,367.6,253.8,369.6L253.8,369.6z M256.8,375.1c4.5-1.4,4,6,8.4,7.3
				c-6.7-2.2-7.4,11.6-13.5,5.5C248.3,384.5,250.9,377,256.8,375.1L256.8,375.1z M271,385.6c3-1,10.2,5.2,9.3,6.2
				c-5,5.8-10.8,10.7-17.3,14.7c-2.5,1.5-2.1-3.7-3.2-5.4C260.5,393.5,264.5,387.7,271,385.6z M284.3,399.1c3.1-0.6,4.8,2.7,4.2,4
				c-1.5,3.6,4.6,6.9-0.1,10.3c-6.3,4.5-12.6,9.2-18.5,14.2c-3,2.5-3.4-0.2-4.1-1.5C263.2,420.9,278.1,399,284.3,399.1L284.3,399.1z
				 M315.2,419.8c-8.6,0.2-11.8-14-14.1-20c0.2-10.7,18.4-22.8,29.1-21.6c6.5,0.2,47.4,7.1,30.1,17c-8.5,3.6-13.5,10.1-17.6,18.2
				c-2,3.1-7-0.4-9.9,0.4C327,414.6,321.1,420.1,315.2,419.8L315.2,419.8z M330.6,437.1c-24.9-0.5-5.3-17.6,7.6-17.1
				C358.7,423,344.3,438.3,330.6,437.1L330.6,437.1z M372.6,406.7c-0.9,10.7-20.4,18-21.1,8.2c2-7.4,6.8-13.1,15-14.4
				C370.6,399.9,373.4,403.9,372.6,406.7L372.6,406.7z M408.8,380.7c-0.9,4-4.7,1.6-7.2,2.3c-8.6,0.5-29.2,13.5-31.9,0.9
				c8.6-4.5,17.5-8.8,25.9-13.7c5.6-3.4,8.7,1.3,12.3,3.3C409.2,374.2,409.2,378.6,408.8,380.7L408.8,380.7z M360,272.6
				c19-20.3,68.2-1.3,73.9,24.3c1.4,4.3,6.8,5.9,12.7,4.4c16.9-3.4,36.4,3.2,48.5,15.2c24.7,31.1-55,58.5-77.5,64.1
				c-5,1.3-1.2-4.9-2-6.8c-1.1-3.3-2.2-7.3-4.7-7.9c-11.7-2.7-19.3-16.2-33.4-12.3c-5,1.4-1.9-3.5-3.3-5.1
				c-6.6-7.6-13.8-3.8-20.9-1.5c1-5.2-2.9-10.1-6-9.6c-11.7,2.1-20.6-13.1-32.7-4.6c-15.7-28.2-32,5.2-46.8-13.7
				c-16.2-33.1,40.9-63.7,68.1-53.9C343.3,266.4,353.5,279,360,272.6z M329.3,234.9c10.8,0.2,19,9.5,18.5,20.7
				c-0.1,2.5-1.4,1.7-2.3,1.2c-15-9.3-31.2-3.3-46.2-0.4C304.5,245,316,235.8,329.3,234.9z M280.4,232.2c6.9-3.7,13.4-4.2,18,3.8
				c3.6,6.3-3.7,7.8-5.2,11.8c-5.9,15.9-21.2,23.7-31.5,36C255.8,258.5,261.6,242.3,280.4,232.2z M267.2,323.5l0.7,0.1
				c-13.9,5.5-25.7,11-25.3,31.3c-2.5-9.9-7.8-15.9-4.1-21.8C245,322.7,255.9,322.2,267.2,323.5z M243.5,244
				c6.3-3.2,12.8,0.2,8.2,7.4c-4,14.2-1.5,27.7,6,40.5c-5.1,6,0.9,23.2-5.5,23.6c-2.7,0-6.4-2.2-7.3-4.9c-3.1-9.7-13.1-15-14.6-26.6
				C227.5,261.9,229.6,251.7,243.5,244z M230.1,312.8c3.4,3.7,9.3,0.1,12.6,4.8c-5.5,3.3-9.4,8-13.6,12.7c-1.2,1.3-5.1-5.9-5.8-9.9
				C222.5,316.2,225.4,313.9,230.1,312.8L230.1,312.8z M138.1,335.3c25.2-8.4,51-5.1,76.8-2.3c11.2,1.2,13.7,10.4,18,18.2
				c-22.7,6.3-45-3.7-67.9-2.5c-16.6,1.2-33,2-46.6,13.5c-1.2,1-3.3,1-5,1.4C109,347.1,124.2,338.9,138.1,335.3L138.1,335.3z
				 M183.6,360.2c-10.8,1.4-16.8,8.1-22.4,13.5c-9.9,8.8-22.5,8.5-33.3,13.8c-3.8,1-8.2,7.5-10.2,4.3
				c-14.3-25.4,34.7-38.4,53.1-32.9C176,358.3,177.4,357.6,183.6,360.2L183.6,360.2z M113.8,417c-3-5.1,0.9-9,4.3-11.9
				c8.3-6.9,16.3-14.7,28.4-14.6c-2.8,9.4-9.6,17.7-8.2,28.5c0.3,2,0.3,5.8-3.7,5.9C126.7,425.1,118.5,425.1,113.8,417z
				 M143.8,440.4c7-4.5,5-14.5,6.3-22.2c4.6-26,20.7-41.6,44.5-51.4c16.5-5.7,31.8-0.2,47.7-8.9c-22.4,22.6,3.4,23.6,10.4,46.9
				c2.5,8.1-0.1,19.4,5.8,23.9c9.5,7.3,2.1,23.6,16.3,26.8c-32.2,40.4-78,70.5-123.1,95.5c-11.1,5-30.9,4.7-35.3-3.8
				c-6.1-11.6-5.5-24.1,2.6-35.2c3.5-4.8,0.6-8.6-1.9-11.6c-9.9-11.7-1.2-35.8,5.7-45.5C128.4,447.1,136.7,445.1,143.8,440.4
				L143.8,440.4z M355.5,322.8c23.4,2.9,38.5-43.4,5.6-37.2C342.3,290.1,335.5,321.5,355.5,322.8z M350.5,307.5
				c1.5-6.4,4.6-13.4,11.6-14.9c13.5-3.3,9.8,21-5.1,22.3C351.6,315.3,349.8,310.3,350.5,307.5L350.5,307.5z M174,451.1
				c10.2,0,23.6-11.5,22.9-20.5c-0.6-8.5-4.8-16.1-13.9-16.6c-11-0.7-27.1,13.8-25.8,22.4C158.6,445.5,163.5,451.8,174,451.1z
				 M166.3,435.4c1.6-6.1,4.3-13.1,12.6-13.1c15.2-1.1,5.1,19.4-4.8,20.9C169.8,442.2,165.2,439.6,166.3,435.4L166.3,435.4z
				 M153.5,519.1c13,0,27.6-13,27.6-24.5c0-7-13.8-19.9-20.8-19.5C139.1,476.9,122,518.9,153.5,519.1L153.5,519.1z M145.5,504
				c4.6-41.5,49.3-5.8,9.9,7.4C152.1,508.7,144.1,510.1,145.5,504L145.5,504z"/>
		</g>
	</g>
</g>
<g>
	<g id="Layer_1_2_">
		<g transform="matrix( 1, 0, 0, 1, 0,0) ">
			<g>
				<g id="Layer0_0_FILL_1_">
					<path d="M52,1548v15l-37,37h946l-37-37v-15H52 M52,52V37.7L14.3,0H0v1600h15l37-37v-15V52 M924,52V37.7L961.7,0H14.3L52,37.7
						V52H924 M976,0h-14.3L924,37.7V52v1496v15l37,37h15V0z"/>
				</g>
			</g>
			<g>
				<path id="Layer0_0_1_STROKES_1_" class="st5" d="M961,1600h15V0h-14.3L924,37.7V52v1496v15L961,1600H15H0V0h14.3h947.4 M52,52
					V37.7L14.3,0 M15,1600l37-37v-15V52h872 M924,1548H52"/>
			</g>
		</g>
	</g>
</g>
</svg>
