<svg xmlns="http://www.w3.org/2000/svg" xmlns:xlink="http://www.w3.org/1999/xlink" viewBox="0 0 976 1600">
<style type="text/css">
	.st0{fill:#FFFFFF;}
	.st1{clip-path:url(#SVGID_2_);}
	.st2{fill:#333333;}
	.st3{fill:#D81E1E;}
	.st4{fill:none;stroke:#333333;stroke-width:2;stroke-linecap:square;stroke-miterlimit:3;}
</style>
<g id="Paper_Backing">
	<path class="st0" d="M960,22v1556c0,3.3-2.7,6-6,6H22c-3.3,0-6-2.7-6-6V22c0-3.3,2.7-6,6-6h932C957.3,16,960,18.7,960,22z"/>
</g>
<g id="Wikipedia_Cropped">
	<g>
		<defs>
			<path id="SVGID_1_" d="M960,22v1556c0,3.3-2.7,6-6,6H22c-3.3,0-6-2.7-6-6V22c0-3.3,2.7-6,6-6h932C957.3,16,960,18.7,960,22z"/>
		</defs>
		<clipPath id="SVGID_2_">
			<use xlink:href="#SVGID_1_"  style="overflow:visible;"/>
		</clipPath>
		<g class="st1">
			<path class="st2" d="M781.6,1549.7c-38.9,0.6-75.4-3.3-110.9-24c-14.1-6.4-25.6-29.7-42.2-23.6c-32.6,14.5-71-0.4-103,13.2
				c-13.6,8.1-22-0.1-25.9-13.7c-30.6-50.9-30.3-123.2-0.3-176.1c15.6-13.2,42.2-2.5,47.8-31c0.7-2.3,2-4.5,4.6-4.5
				c18.8,16.4,24.7,33.5,56.2,25.1c6.4,4.3,9.8-1,14.8-3.6c15.9-8.9,35-9.8,51.2-11.2c68,6,60.4-73.1,100.2-54.9
				c39.1,15.7,63.6,52.3,81.8,88.2c8.8,14.3,14.4,36.9,32.3,41.5c13.9,3.9,1.9,14.8-5.6,18.7c-65.6,39.7-67.3-13-62.4,97.3
				C822.8,1554.5,871,1546.1,781.6,1549.7z M89.5,1405.3c-25.6-1.2-61.8-7.4-80.3-22.1c45.1-23.3,21.5-87.7,55.7-123.6
				c21.1-16.2-32.9-33.2-38.9-52.4c-7.8-18.2,23.3-30.8,37.5-43.2c21.5-14.8,90.9-37.2,101.1-4.6c-3.6,39.7,55.7,42,79.2,61.3
				c25.9,10.4,21.8,64.2,59.9,52.7c8.6,1,27.5-20.8,30.2-7.6c-17.8,39.5,19.2,53.1,0.9,67c-20,21.9-42.2,42.1-69.4,54.6
				c-20.4-0.1-35-21.4-52.5-30.2c-6.2-4-9,3.8-12.6,7.2C167.2,1391.2,130.8,1403.1,89.5,1405.3L89.5,1405.3z M844.2,1219.6
				c-23.8-15.9-44.4-40.3-61.1-64.8c-11.5-13.7,4.9-14.4,13.4-20.9c15.6-10.1,14.5-32.6,24.7-45.6c5.4-0.9,5.1-6.4,4.7-10.7
				c-0.1-4.8,9.9-20,14.3-24.4c28.1-23.6,14-45.5-3-71c-36.3-55.8,46.5-35.1,75.8-23.6c42,17.9-39.8,43.6,19,63.1
				c23,14,31.2,40.5,48.1,57c0,5.7-0.5,50.1,0,54.3c-1.5,2.7,3,31-2.6,31.3c-29.4-28.3-58.3,5.5-92.7,0c-5.8-0.1-5.9,5.8-6.9,10.2
				C870.2,1190.8,859.7,1211.6,844.2,1219.6L844.2,1219.6z M81.6,1063.2c-81.7-2.4-96-13.4-42.4-82.3C29,970.2,12.5,958-2,954.3
				c-5.6-1.7-0.2-100.8-2-104.2c0-3.5,3.6-4.4,6.5-4c23.6,19.5,47-19.4,73.1-17.2c14.3-2.3,15.9-45.4,33-61.5
				c10.8-16.9,23,23.4,36.3,21.7c46.5,17.1,112,39.1,120.3,97.2c-1.9,7.3,6.9,22.7-5,22.4c-46.1-12.9-57.9,28.7-64.3,63.3
				c-1.2,2.9-5.1,4.3-4.1,8.1c1.3,18.1-20.2,29.7-21.6,47.9C171.2,1062.9,107.9,1060.7,81.6,1063.2L81.6,1063.2z M681.7,835.8
				c-9.6-3.2,2.2-18.2,2.7-24.9c9-26,16.4-52.3,15.9-80.3c-0.8-73.8-26.7-155.4-79.2-210.7c-4.2-12.3-21.7,2.4-30.3-6.4
				c-27.2,9.2-34,59.2-35.4,88.4c-4.5,9,15.9,46.3,2.2,40.9c-97.1-72.6,5.6-135.9-21.5-196.4c7.7-8.2,22.4,0.6,29.9-5.1
				c15.9-8.1,34.2-10.6,47.5-24.1c12.9-22.4,28.3-4.5,40.7,3.9c11,6,22.3,1,20.4,22.1c2.9,18.3-17.9,42.5-3.2,51.1
				c78.9,89.7,105.9,218.9,65.6,333.8C730.4,842.1,709.6,814.1,681.7,835.8z M338.5,811.4c-14.5-3.5-19.9-11.3-27.6-20.1
				c-24.3-28,23.6-38.8,35.3-50c-0.5-23.6-13.2-52.5-11.7-77.2c1.1-10.1-1.5-76.7,15.4-61.7c51.2,62.7,120.2,41.3,165.5,97.4
				c14.3-2.3,61.5-33.6,63.2-8.2c4.5,109.9-11.7,72.6-90.5,98.2c-5.1,11.5-6.5,16-16.3,5.6c-8.7,3.1-14.6-1.2-23.4-3.8
				C414.3,821.5,373.6,783.4,338.5,811.4z M227.5,396.8c-47.8,1.3-91.3-23.6-137.6-27.7c-9.2-16.6,20.4-29.6,23.7-44.5
				c-18.8-17-42.8-28.2-63.1-55.5c-8.7-11-21.7-26.2,0.9-27.9c52.9-6.9,85-62,140-56.2c19.3-29.7,28.9-75.4,60.2-90.7
				c36.3,55,143.9,92.8,142.1,164.6c-35.2,27.6,7.3,61.3-10.9,63.7c-14.6-3.8-28.6-11.4-43.8-7.9c-22.6-5.4-48.3,18.6-40.8,44.3
				C301.1,391.3,249.6,394.9,227.5,396.8L227.5,396.8z M783.8,309.3c-4.9-1.7-18.2-0.9-14.2-8.8c9.8-10.8,0-23.7,2.7-35.8
				c-1.9-10.4,4.7-22.1-0.7-31.8c-3-13.5,50.9-49.7,66.9-50.4c24.5,4.2,47.5,28.4,57.1,49c-6,9.7,13.3,10.8,11,19.3
				c-12.5,6.2-29.7-10-44.1-5.9C821.1,245,810,289.6,783.8,309.3L783.8,309.3z"/>
			<path class="st3" d="M438,1348.7c-42.3-14.8-123-12.7-104.5-76.8c1.7-5.1-4.5-9.7-8.9-6.8c-21.4,13.2-49.4,15-57.5-16.7
				c-8.6-52.6-97.2-33-102.1-89c-16.6-45.9-24.3-58.5,16.2-90.2c-30.9-43.2,10.4-63.3,18.1-106.9c3-15.6,4.5-32,17.6-44
				c13.2-19.7,53,0,50.4-16.7c-4.7-12-3.2-24,4.6-37.7c20.1-18.3,42.4,0.9,58.7-37.9c13.7-29.6,47.1-27.8,74.3-20.3
				c26.9-3.3,52.9-10.5,75.5,10c16.5-21.5,20.2-39.1,56.5-34.7c26,1.2,52.2-27.9,76.5-2.3c9.3,8.1,21.2,10.4,31.5,11.9
				c40.8,9.7,10.4,63.4,31.9,52.8c32.7-33.5,74.6,2.8,98.5,27.3c7.4,6.3-2.7,28.3,9.2,31.1c47.1,1.6,35,50.2,50.5,79.2
				c49.5,55.8-9.1,64.3-20,116.1c-7.3,54.7-66.8,26-26.8,67.9c15.5,36.1-32,55.7-42.4,87.6c-14.5,29.7-37.9,46.9-67.4,46.5
				c-42.4-5-91.2,43.5-120.4-5.7c-11.9-11.9-19,27.3-35.8,23.5C489.2,1315,468.6,1347.3,438,1348.7L438,1348.7z M423.9,587.4
				c-23.3-3-32.5-35.4-57.9-44.7c-23-14.2-25.8-33.8-10.5-56.1c6.2-18-35,2.1-44.5-30.6c-6.6-16.3-0.6-29.3,2.4-44
				c-1.8-41.5-40.3-91.1,25.6-97c11-5.8,56.9,23.5,51.4,1.2c-30.7-37.5,18.7-62.1,29-98c19.5-35.6,58-7.9,78.7,8
				c17.7-21.4,6.4-52.4,54.9-47.6c24.4,0.8,36.2-22.8,60.8-21.6c18,0,39.9,9.4,45.1,29.9c8.3,11.5-3.1,32.7,9.3,37.8
				c30-18.6,82.9-28.6,101.1,11.2c3.8,21.2,0.3,47.3-2,68.1c89.9,35.6,30.5,46.9,27.8,97.6c-0.2,80.5-78.8,8.4-80.5,29.8
				c2.9,19.9-23.7,51.6-42.2,41.3c11.3-71-3.4-31.4-42.2-73.5c-22.5,15.4-43.4,37.2-73.6,39.9c-6.7,2.6-18-0.9-23.1,5.3
				c16.9,29.9-3.8,92.2-45.2,90.1C482.7,565.7,456.7,590.4,423.9,587.4z"/>
			<path d="M976.8,1125.8c-15.8-19.6-38.1-31-57.6-45.8c0.7-0.3,1.3-0.9,2-0.8c8.9,1,18.1-2.1,26.9,1.6c3,1.3,5.5-1.5,6.5-3.5
				c1.8-7-24.8-6-29.4-6c-23.2,4-42.3-9.9-62.8-18.5c-28-6.1,16.5-20.5-11.2-55.4c10.5-5.3,23.1,4.9,33.7,7.9c2.5,1,6.1,3.7,7.2,0.5
				c2-8.2-23-11.3-28.7-14.9c6.9-5,22.9-10.3,25.6-16.5c-10.4-7.8-40.6,21.1-43.5,15.7c-4.2-10.4-11.9-19.4-12.2-31.2
				c0-1.7-6.3-4.1,0.9-6.2c16.7-4.9,32.8-3.1,49.4,0.4c59.2,17.9,35.2,13.5,23.9,44.8c-1.8,5.2-8,13.3,2.2,16.9
				c28.6,9.1,45.7,34.3,59.6,59c4,7.5,12.8,6,6.8-3.4c-12.2-26.8-29.6-48.9-57.3-61.7c-1.7-0.8-6.1-0.8-4.9-3.8
				c3.8-9.2,8.1-18.3,14.6-26.2c6.2-7.5,7-10.4,4.6-11.8c-16.3-9.4-31.5-20.3-50.9-23.8c-38.8-10.2-53.1,9.7-52.8-8.2
				c-0.8-20-22.5-35.8-40.2-35.9c-4.5,0-4.2-2.3-4-5.4c4.6-29.5-19.5-41.5-40.8-55.5c-7.4-4.3-4.4-9.8-2.3-14.3
				c18.7-42.1,19.9-88.8,18.5-134c-7.1-74.3-38.2-147.7-89.6-202.2c-3.6-3.8,2.7-6.1,2.2-9.5c0,0,1.3-0.5,1.6-0.3
				c6.1,3.7,12.4,0.7,17.1-1.8c17.6-9.4,29-23.6,29-46c14.7,13.6,32.2,15.4,49.2,16.5c45-2.7,20.2-54.5,42.5-78.5
				c5.9-7,13.2-15.8,9.8-25.5c-3.8-10.9-9.3-21.6-20.2-28.3c-2.3-1.4-9.5-2.6-6.5-7c17.5-25.1,36.9-60.2,72-57.7
				c15.5,1,30.5,7.5,44,16c6.2,4,13.9,0.7,8.2-6.3c-15-31-55.1-96.6-95.4-80.3c-14.8,9.2-29,19.2-42,31.1
				c-4.3,3.9-8.7,14.5-14.1,10.3C749,202.1,719.8,198,695,206.4c-9.5,3.7-18.3,9.4-26.9,13.9c9.8-45.1-34.4-87.6-80-62.4
				c-13.6,7.8-26,17.8-43.7,15.3c-27.7-4.4-46.2,23.9-46.1,49c-2.6-7.5-10.1-8.8-15-13c-13.5-11.7-29.5-16.9-47.1-12.1
				c-21.6,5.3-25.4,26.5-34,43.8c-10.6-12.7-17.1-28.8-27.9-41.5c-12.2-15.7-26.8-29.1-42.5-41.2c-12.1-9.4-23.5-19.8-35.9-28.9
				c-11.8-8.6-23.6-17.1-31.2-29.8c-10.1-16.9-9.8-17-24.1-2.9c-11.9,11.8-22.4,24.3-30.8,39.3c-7.1,12.8-13,25.6-17,39.5
				c-0.6,2.3-1.1,7.1-5.2,5.3c-43.9-7.5-76.6,34.4-114.7,49.3c-11,4.8-22.5,9.4-35.3,8.1c-2.8-0.3-7.3-0.1-6.8,5.7
				c11.9,32.9,40.2,58,69.7,76.2c2,1.1,9.8,2,6.1,5.7c-7.1,7.1-11.3,16.2-18.3,23.1c-5.4,5.2-6.9,12.7-6.6,18.7
				c0.4,9,8.9,5,14.8,6.2c19.3,4.1,39,8.3,56.8,16.3c42.6,15.5,92.3,20.8,133.1-2.4c4.1-2.8,10.3-10.2,13.1-7
				c19.7,22.9-2.7,44.8,3,69c5.1,16.6,21.5,37.8,42.3,35.7c2.9-0.3,5.4-0.8,2.7,4c-26,50.9,22.8,54.1,46.2,83.7
				c14.4,28.4,55.7,24,74.8,5.4c11.1-10.3,22.4-21.2,21-38.7c0-0.5,2.1-1.8,2.8-1.5c8.3,2.7,15.6,0.9,22.2-5.1
				c-26.5,89.6,62.5,139.2,51.5,106.4c-10.4-33.3-6.8-71,9-102.6c4-7,8-18.3,13.9-18.7c16.5-1.1,32.4,6.5,41.8,20
				c59,79.5,80.5,187.2,45.4,281.1c-9.3-37.7-29.3-29.2-56-42.3c-12-7.5-22.8-18.1-39-14.1c-2,0.5-2.1-1.3-1.8-2.6
				c3.5-15.4,17.2-89.7-10.6-83.1c-16.1,4.7-32.8,7.7-48.1,15.3c-1.7,0.8-4.8,5.3-7.4,0.8c-16.6-26.3-48-39.9-77.2-44.3
				c-34.5-7.7-61-30.4-87-52.8c-5.7-4.8-12.4-9.1-13.9,3.7c-2.6,21.1-7.6,41.7-6.5,63.4c1.2,24,6.1,46.7,13.6,69.1
				c0.7,2.1,1.5,5.8,0.7,6.4c-8.8,5.8-18.2,10.8-27,16.7c-21.5,14.2-19.9,35.3,2.9,48.3c4.9,2.8,11.6,8.4,11.7,12.8
				c0.2,10.9-19.6,29.8-30.2,32.6c-12.2,3.3-27.9-0.5-34.4,18.1c-3.3-16.8-20.2-29.4-31.8-41.3c-33.8-36.5-89.3-28.6-111.6-68
				c-2.4-4.6-5.7-8-10.3-1c-3.2,5-8.1,9-11.5,14c-9.6,13.9-16.7,28.9-19.4,45.7c-0.7,4.3-1.9,6.7-6.6,6.4
				c-25.3-1.3-44.8,25.4-68,24.1c-1.2-0.1-2.6,2-4,3.1c8.8,12.7,26.6,3.3,36.3-2.6C50.6,840.4,62,833.9,76,833
				c4-0.3,10,1.6,11.1-4.6c3.8-21.5,12.8-40.7,24.8-58.6c1.6-2.3,3.8-5.8,6.4,0c18.3,34,66.3,30.2,95,53.1
				c17.6,12,31.3,27.3,43.9,44.2c7.6,10.1,1.9,21.2,4.9,31.5c0.5,1.9,0.2,4,0.3,6.1c-2.4-0.1-5.2,0.5-7.2-0.5
				c-15.7-7.5-47.9,7.9-52.2,25c-3.5,13.9-7.2,27.7-10.9,41.8c-18.9-11.5-12.7-25.6-15.1-44.1c-1.3-10.7-5.3-21.2-5.1-31.8
				c0.1-7.7-9-14-1.6-23c10-11.9,15.3-27,14.9-42.6c1.2-5.6-5.7-4.4-6.2,0.4c-1.9,13.6-8,25.5-14.9,36.9
				c-2.9-7.5-18.4-44.3-26.6-41.8c-2.7,1.8-1.3,5-0.3,6.7c15,22.9,22.3,47,28.4,74.1c-14.2-12.5-27.4-23.7-40-35.5
				c-2.5-2.3-3.7-7.9-7.6-4.3c-3.1,2.8,0.5,7.3,3,9.9c12,11.9,23.2,25.2,36.9,34.6c15.4,10.7,9.7,26.7,14.6,39.9
				c-2.3,0.3-0.2,4.9-3.3,3.8c-4.8-1.7-9.7-3.4-13.8-6.2c-15.7-10.7-33.2-17.7-50.3-25.7c-4.2-1.9-10.7-3.8-11.6-7
				c-2.1-11.7-24-60.3-37.7-56.7c-1.6,4.5,13.1,20.1,15.5,26.2c4.9,8.3,9,17.2,13.3,25.9c0.5,1,0.4,2.5-1.6,1.9
				c-16.4-5.1-32.7-10.5-49.2-15.2c-3.5-1-8.3-2.6-11.4,1.6c-2.5,5.3,20.7,10.2,24.8,11.9c20.8,6.2,42.9,12.4,61.3,23.2
				c-21.4,11.6-47.5,15-72,14.8c-2.7-0.1-5.3,0.3-5.8,3.3c-0.3,11.2,61.2-2.2,69.3-4.3c8.5-1.7,14.8-11.8,25.7-5.4
				c10,5.9,21.7,9,31.5,15.2c22.7,4.4,4.7,14.9-6.6,23.9c-15.6,9.6-28.1,26.1-50.1,21.4c-12.1-1.6-24.3-0.8-36.1,2.5
				c-1.5,3.5,3.7,5.6,6.8,5.5c10-0.2,20.2-4.1,31.2,0.8c-7.4,4.2-39.7,13.3-39.5,18.4c1.7,2.5,9.2-0.1,12-0.5
				c20.5-4.9,38.1-16.8,57.1-24.5c-2.1,9.3-16,21.9-15.1,30.8c8.3,6.5,28.3-41.3,34.9-45.3c8.5-5.7,17-11.5,22.9-20.2
				c0.6-0.8,2.4-1.6,3.2-1.3c27.1,14.8-12.1,37.4-12.2,57.9c-0.7,4.7,2.3,12.1-4.4,15.3c-41.7,20.1-89.6,20.1-134.2,10.6
				c-40.7-6.5,2.4-51.8,15.4-67.2c9.8-10.1-11.3-14.8-16.7-20.8c-7-3.3-19.1-16.9-26.2-14.3c-2.4,0.8-1.9,4.6,0,6.1
				c11,8.2,22.1,16.1,33.3,24c1,0.7,2.3,0.5,0.6,2.1c-13.5,14.7-45.7,50.1-28.7,69.3c13.2,8.3,28.1,13.2,43.6,14.4
				c32.3,3.5,66.1,2.5,97.4-7.3c11.3-3.7,23-14.4,31.1,4.7c1.1,2.6,0.5,3.6-0.7,4.3c-28.2,15.5-40.2,43.2-23.6,73.1
				c-48.6-12-97.3,13-128.7,49.5c-3.3,3.8-9,7.7-4.3,14.8c11.6,17.8,27.5,31,44.7,42.8c3.1,2.1,2.9,2.7,0.3,4.6
				c-7.4,5.5-11.3,13.9-16,21.4c-22.2,30.8-4.6,80.2-39.6,101.8c-3.1,1.6-9.3,0.3-9.2,5.9c0,3.6,4.8,1.5,6.4,3.2
				c36.7,29.8,89.3,32.2,132.8,17c25.2-8.7,50.7-18.2,68.6-39.9c0.6-0.8,0.9-2.5,3.2-0.5c9.9,8.6,19.7,17.5,32.2,22.3
				c7.6,2.9,14.7,10.3,23,7.9c15.8-4.5,27.8-16.1,40.6-25.7c14.2-10.6,28.1-22.1,36.1-38.8c0.8-1.7,2.3-0.5,4,0.1
				c21.2,10.8,45.7,9.9,66.9,20.2c30.7,14,54.5-4.7,81.1-20.6c-9.3,9.2-11.5,19.1-13.6,27.8c-11.6,39.9-13.9,83.6,0.3,123.1
				c4.9,17.8,17,32.6,25.7,48.8c1.3,2.4,2.8,1.5,4.5,0.4c20.8-16.9,53.9-11.9,79.6-15c13-0.6,27.6,1.5,38.7-9.3
				c1.4-1.4,4.1-2.4,6.4,0.4c15.6,19.3,35.4,33.2,58.8,40.6c44.6,16.1,93.3,12,139.8,8.1c2.7-0.3,6.8-0.5,8.9-5.7
				c4.1-10.1-5.9-10-8.9-14.7c-17.5-33.5-12-72.1-8.9-108c0.1-3.2,0.4-5.8,5.4-5.5c6.2,0.2,12.4-0.6,18.4-2.2
				c18.3-4.7,32.9-16,46.9-28c3.5-3,9.2-5.5,7.7-11.5c-1.7-7.7-12.3-1-18.6-8.1c-12.3-10.3-16.7-25.4-24-39
				c-9.9-18.3-21.6-35.5-34.9-51.4c-36.3-49.8-80.1-32.9-60-52.2c11.5-12.3,29.2-20.3,28.8-41.1c0-2.4,2.1-0.4,2.9,0.6
				c10.3,13,23.3,23.3,36,33.7c3.9,3.2,9.6,9.3,14.5,4.1c13.3-14.1,26.5-28.6,32.2-48.1c0.5-1.8-0.5-8.6,5-6.1
				c9.1,4.1,17.6,0.6,25.7-1.8c19.8-5.8,39-18.9,59.8-2.8c8.5,0.6,2.9-6.6-1.4-9.1c-26.6-22.7-54.1,10.6-83.2,4.9
				c-12.3-3.2-12,2.4-13.6,12.6c-4.9,15-15.8,26.1-24.6,38.7c-2.9,4.1-5.7,4.9-8.2,2.3c-18.7-19.2-39.7-36.5-53.6-59.8
				c-16.1-22.1,18.4,7,34.4-62c6.7,13.5,6.2,27.7,9,41.1c-3,8.1-9.7,14.9-13.1,23c-1,2.1-4.7,6.3-0.6,8.3c7.5,3.7,13.1-19,17.3-25.8
				c3.4,9.6,4.5,37,13.4,36.9c3-0.3,1.4-4.7,1.1-6.9c-2.8-21.5-12.8-41.5-12.5-63.3c7.8,5.9,16.1,12.5,24.8,18.5
				c3.1,2.1,6.9,5.7,11,1c-8.7-16.9-43.1-20.1-42.3-47.5c0-3.5,13.2-25,16.3-23.4c7.9,4,17.5,5.5,23.1,12.8
				c12.1,15.9,22.4,33,32,50.6c1.8,3.3,4.3,8.2,9.7,7.3c0.8-0.1,2.3-4.4,1.6-5.2c-10.7-15.4-18.3-32.8-29.4-47.7
				c25.3,9.9,49.7,26.4,71.5,43.5c3.5,2,22.8,21.8,24.4,16.7C980.8,1129.6,978.5,1127.7,976.8,1125.8z M640.2,403.1
				c-7.7-8.5,4-14.1,7.9-20c8.3-12.3,15-25.1,18.9-39.4c0.3-1.3,0-2.8,2-2.7c15.6,1,31.3-0.1,46.6-3.1c5.5-1,8.5,9.8,8,15.3
				c-1.2,15.3-14.9,26.3-16.3,41.9c-0.5,14.4-4.6,28.9-21,27.9C667.6,421.9,651.8,415.8,640.2,403.1z M556.1,435.2
				c-42.4,6.8-84.6-12.2-101.6-53.5c-4.6-11.2-9.1-25.5-0.6-36.1c20.3-27,48.3,12.5,65.5,26.8c6.7,6,15.6,3.5,22.7,2.2
				c20.3-1.7,33.6-24.4,26.3-42.9c-3.7-11.8,2.1-18.6,8.8-24.7c21.7-17.1,10.1-48.4,32.8-53.8c26.6-4.8,40.5,37.6,47.8,56.8
				C665.9,365.9,610,426.5,556.1,435.2z M607.8,452c-2.4,8.9,0.1,19-11.2,20c-13.1,1.3-20-7.5-25.5-18
				c-10.3-19.3,12.8-8.8,14.9-16.9c4.8-0.8,9.5-3.9,14.2-5.6C602.9,438.7,605.5,445.9,607.8,452z M679.7,471
				c-3.5,0.1-5.4,0.9-3.5-4.9c9.9-22-2.3-34.3,6.3-33c7.8,0.9,14.3-2.1,21.1-5.5c9.3-4.6,6.2,4.1,7.3,7.1
				C710.9,450.3,693,470.6,679.7,471L679.7,471z M782.2,223c52.9-47.7,62.7-49.5,110.1,6.4c-13-7.8-20.1-16-30.7-18.9
				c-14.3-3.9-26.6-2.1-38.8,7.2c-16.2,12.5-32.5,24.7-47.4,39.7C784.2,227.4,764.9,232.2,782.2,223z M775.6,271
				c-1.5-7.3,5.8-9.8,9.7-13c16.6-13.7,32.8-28.4,51.8-38.7c25-12.2,46.1,18.3,65.8,29.9c-35.9-14.2-69.8-9.7-93.8,22.4
				c-7.5,10.1-13.8,21.2-21.2,31.4c-4.3,5.8-9.6-1.1-15.2,0.1C781,292.5,777.8,281.8,775.6,271z M770,311
				c17.2,0.1,39.8,17,42.8,32.1c2,10.1-6.7,16.1-11.4,23c-16.3,20.9-3.5,53.1-18.8,65.1c-21.4,12.7-50.5,0.1-65.7-17.1
				c-3.3-3.8,0.8-13.9,1.1-21c0.6-16.8,23.3-30.6,12.8-47.4c-8.7-9.2-2.3-13.3,5.4-16.5c9.6-4,18.6-9.3,26.8-15.6
				C765.3,312,767.5,310,770,311L770,311z M693,217.1c8.4-4.3,17.8-4.7,27.4-4c24.1-3.7,51.9,14.9,46.1,41.3
				c-4.3,29.1,10.6,41.1-23.2,60.9c-21.5,13-45.3,14.7-68.8,19.1c-12.7,3.1,5.1-23.4-22.3-61.5c-2.1-3.3,0.4-4.5,1-6.3
				c3.3-9.4,6.9-18.6,10.7-27.8C669.3,226.1,682.2,222.8,693,217.1L693,217.1z M512.8,201.9c5.7-13.6,17.6-21.1,35.6-19.4
				c17,1.6,30.2-6.1,43.2-15.3c18.4-12.8,56.7-5.4,63.4,20.7c8.9,24.3,0.8,49.7-8.3,70.9c-4.9,5.5-17.3-29.1-45.7-14.4
				c-1.7,0.8-6.2-2.9-8.7-5.3c-12.1-11.5-38.5-12.6-53-4.4c-11.5,5.9-17.4,16.2-26.4,24.2C505.6,241.3,505.8,220.4,512.8,201.9z
				 M518.7,269.1c28.7-49.7,84.9-23.2,67.9-11.6c-4.7,8.2-4.7,17.5-7.3,26.1c-15.2,30.5-27,17.8-20.3,60c0.5,7.9-2.4,13.7-9.3,17.2
				c-27.7,15.5-47.8-37.8-78.9-34c-7.2,1-11.2-0.6-9.8-7.9c0-15,9.9-25.3,24.4-25.8C502,292.6,511,281.3,518.7,269.1L518.7,269.1z
				 M423.1,219.9c13.1-26.1,45.7-12.2,61.8,1.8c12.8,9.1,13.5,24,17.8,36.9c5.3,15.9-1.4,23.4-18.9,24.4
				c-22.6,1.4-34.7,23.9-29.3,43.7c0.8,2.8,0.9,3.5-1.4,5.5c-14.5,10.1-6.8,15.6-15.2,14.5c-26.5-11.4-69.1-41.9-47.9-74.3
				C404.3,256.8,414.9,239.2,423.1,219.9L423.1,219.9z M294.4,360c6.1,20.8-38.3,29.5-51.9,31.7c-51.6,8.1-100.4-22.4-150.5-26
				c-3.9-6.2,22.9-35,29.5-39c3.2-2.3-0.5-6-2.8-7c-32.3-15.7-58.7-40.9-77.5-71.1c25.5-6.5,49.8-14.2,71.3-29.9
				c22.8-14.9,47.5-33,76.5-30c12.4,3.8,11.6-8,13.7-14.3c9.6-28.9,23.4-55,47.2-74.8c0.8-0.7,1.6-2.7,2.9-0.1
				c7.2,14.9,20.5,24.3,32.3,34.8c39.8,34,87.4,62.3,107.5,113.3c1.2,2.8,0.6,6.2-1.7,8.3c-20.4,18.9-19.4,39.7-6.4,62.5
				c-15.4-2.7-29.4-11.8-46.4-7.7c-11,2.2-21.3-10.4-23.7-20.9c-3.6-16.1,5.2-27.6,9.4-41.3c3.8-12.6,8.4-46.6-4.4-54.9
				c-0.9,2-2.7,4.2-2.5,6.1c2.1,20.6,2.3,41.1-7,60.1c-10.3-37.3-23.1-71.6-41.1-105c-0.9-1.8-2-3.7-5-2.1c-3.3,1.8-0.7,3.2-0.1,4.7
				c9.3,24,20.5,47.3,27.3,72.2c-12.2-10.7-24.4-21.3-36.6-32c-3.4-4.1-7-5.5-12.2-3.6c15.3,22.5,38.9,38,55.3,59.5
				c8.4,10.8,4.4,29.4,9.4,42.3c-7.8-7.6-18-8.3-27.1-10.5c-22.8-5.5-44.7-10.8-61.8-29.6c-12.3-13.4-28.5-22.7-46.2-26.7
				c-3-1.8-7.4-6.6-9.2-2.5c-2.1,4.9,3.9,8.7,8.3,10.4c20.4,8.2,38.9,20.6,54.1,36.6c-22.8-3.5-43.6-6.5-66.2-8.2
				c-16-1.2-32-2.4-47.8-5.7c-2.4-0.5-5.4,1.8-8.1,2.8c2.2,5.4,7.8,6.1,12,6.7c24.4,2.9,48.4,6.2,73,8.5
				c-13.4,7.9-27.9,13.8-43,17.5c-3.3,0.8-2.6,3.7-2,4.5c10.2,7.7,45-16.3,58.6-17.9c10.4-2.7,23,1.6,34.4,3.9
				c20.2,4.2,40.3,9.2,62.2,14.3c-24.4,14.8-50.3,18.5-76.7,26.9c-3.2,0.9-6.8-2.6-9-4.1c-8.3-5.9-18.5-6.3-27.1-11
				c-1.7-1-5.2-1.6-6.4,1.7c-1.1,2.9,0.7,3.6,3.3,4.6c7.3,2.8,14.4,6.3,21.6,9.5c1,0.5,3.3-0.6,2.7,1.6c-0.3,1-2.1,2-3.3,2.3
				c-16.8,3.5-33.7,6.8-50.5,10.2c-0.9,0.2-1.6,1.4-2.3,2.2c2.3,1.3,5.1,4,6.9,3.5c12.8-3.3,26-2.3,39.1-6.4
				c13.1-4.3,28.3-4.2,41.4-9c1.4-1.3,4.4-1,6.8-1.4c0.5,3.8-3.6,3.3-4.9,5.1c-7.4,11.2-18.5,18.2-29.1,25.7
				c-2.5,2.9-17.9,7.9-15,11.7c1.2,1.6,2.5,3.3,5.3,2.1c50.6-20.3,35.4-42.5,94.2-63.8c7.3-4.8,17.1-6.3,22.3,1.8
				c-0.7,1.6-2.1,3.5-3.6,4.1C297.5,323,289.2,342.8,294.4,360z M314.7,454.5c-9.7-29.4,14.7-44.5-4.5-77.2
				c-15.2-30.1-4.4-58.1,29.5-58.4c37.2,0.9,61.9,22.5,92.6,36c10.6,3.5,8.6,13.5,10.1,20.5c3.4,23.9,23.7,35.8,11.9,37.5
				c-23.9,4.9-43.1,19.2-63.6,31.2C366.3,461.6,337.6,496.8,314.7,454.5L314.7,454.5z M477.5,554.4c-10.8,18.1-25.9,29.3-50.1,28.7
				c-10,1.8-17.4-4.3-23.6-13.7c-8.9-13.4-22.4-21.9-35.7-30c-58.7-41.7,43-99,77.8-115.7c14.5-7.2,25.8-2.2,36.3,7.6
				c2.5,2.4-1.4,6-10.6,9.7c-16.1,6.5-37.1,41.5-33.5,58c2.5,11.3,11.8,17.8,22.7,20C480.3,522.8,487.6,537.3,477.5,554.4z
				 M511.1,524.2c-7.6,6.5-16.2,9.1-22.5,1.1c-8.7-11-21.6-12.5-32.7-18.2c-17.7-9.6-6.1-34.2,5.7-44.2c10.2-9.2,18.6-22,33-23.4
				C552.3,441.3,543.7,491.1,511.1,524.2z M571,526.5c-18.3,25.3-27.6,84.8-11.3,112.9c-52.2-29.9-45.3-97.1-19.4-142.8
				c4.4-9.7,11.4-8.1,15.8-4.9c6.1,4.5-2.7,8.7-4.6,11.8c-9.7,15.4-12.5,32.7-16.9,49.7c-1.2,4.8,1.8,9-0.4,13.3
				c-0.2,0.4,1,1.5,1.5,2.2c1.8-2.5,4.7-4.9,5.2-7.6c3.5-20,8.9-39.3,18.6-57.1c1.3-2.3,3-9.3,8.8-5
				C582.5,509.4,582.1,511.7,571,526.5z M612.9,510.7c-31,11-32.5-31.9-63.6-29.7c-9.4,2,0.8-23-9.6-33.1
				c19.6-3.5,20.9-1.9,27.4,14.9c9.1,18.9,32.9,25,44.2,10.9c4.9-6.2,6-31.9-0.8-41.7c-7-9.2,2.9-6.6,6.3-12.6
				c16.5-24.4,24.7,6.3,48.2,10c7.6,1.6,5.9,10.1,5.5,14.1C671.2,477.6,648,507.3,612.9,510.7L612.9,510.7z M697.6,781.3
				c19-81.9-5.8-172.7-53.8-240.5c-4.8-7.5-10.7-14.2-17.6-19.8c-7.1-4.1,23-9.5,34.5-25.1c3.5-3.8,5.6-1.7,7.4,0.7
				c17.5,22.4,35.2,44.7,47.4,70.7c41.9,80.2,46.1,174.3,17.4,259.6c-0.8,2.6-2.4,2.5-3.6,1.8c-16.7-10-32.5-6.3-47.8,3.2
				C686.8,814.7,693.5,798.6,697.6,781.3L697.6,781.3z M699.6,834.2c1.5-0.5,3.1-0.9,4.7-0.9c21.1-0.9,31.6,12.6,44.7,20.7
				c8.4,5.2,17.6,9,22.9,18.7c8,15.5,0.2,41.3-13.4,52.1c-13,18.2-30-7.7-48.3-2.1c-5.1,0.8-7.8,0.3-7.1-5.9
				c3.3-32.4-60.6-28.6-51.2-40.8C667.3,861.6,677.9,841.5,699.6,834.2L699.6,834.2z M549.5,1206.9c-1.3-11.1-4.3-21.2-11.4-29.8
				c-2.1-2.6,0.8-2.8,1.5-3.6c12.6-15,30.7-20,48.1-26.4c20.5-7.5,27.2-32.2,14.2-49.5c11.5-4.5,7.7,7.8,11.8,11.5
				c18.9,17.6,42.7,29.2,68.8,28.4c5.4,0.3,2.9,6.6,2,8.7c-5,11.1-12.6,18.3-25.7,21.4c-42.7,14.4-44.8,55.3-106.6,49.3
				C545.8,1216.1,549.8,1210,549.5,1206.9z M419.2,1112.7c11.9,8.8,26.1,12.2,40,16.3c3.1,0.9,1.6,3,1.1,3.7
				c-3.1,4.1,2.3,15.3-9.8,12.1c-12.5-3.3-24.5-8.1-35.8-14.3c-11.2-6.1-12.4-17.2-13.4-27.7c-7-44.9,33.9-77.3,65.6-102.5
				c1.5-1.3,3.4-1.7,5.3-1.3c20,3.7,39.2,0.7,57.7-7.6c1.9-0.9,4.5-0.3,7-0.4c-4.6,8.9-2.8,51.5,4,61.5c-12.3-0.5-23.8,11-25.6-8.2
				c-1.7-10.6-8.9-19.5-9.3-30.5c0-0.9-2.3-1.8-3.5-2.7c-9.2,8.9,7,40.5,12.2,48.9c-8.3,2.5-11.4,13.5-16.4,3.4
				c-7.9-13.1-15.3-26.5-21.2-40.6c-1.5-4.1-6.4-5-6.1,0.5c2.3,18.2,12,33.1,21.9,47.9c1.3,2,2.6,3.6,0,4.8
				c-3.2,1.5-4.2,9.5-9.3,4.7c-11.9-11.3-24.1-22.5-32.8-36.8c-1.9-3.1-5.3-4.6-8.4-3c-4,2,0.4,4.6,1.1,5.9
				c9,14.9,19.6,28.5,33.3,39.8c6.5,5.3-2.3,8.9-4,13.2c-1.3,3.2-3.6,0.1-5.7-1.2c-11.2-7.4-22.6-14.4-34-21.6
				c-3.6-2.3-7.1-4.8-10.9-6.8c-5.1-2.6-7.4,2.2-3.4,5.4c12.8,9.2,25.9,17.9,38,27.9c3.3,2.7,13.9,0.7,8.7,11.6
				c-5.8,12.1-12.2,1.8-17.5,0.9c-9.1-1.6-17.8-5.8-26.6-9C416.6,1104.8,416.1,1110.6,419.2,1112.7z M396.8,1061.7
				c-4.7,3.3-10.9-4.1-16.3-6.8c-14.1-6.3-39.9-37.9-15.8-46.4c29.2-9,26.2-50.9,58.6-53.8c15.8,3,26.4,12.5,33.6,26.1
				c2.3,4.3,9,9.2,5.6,13c-16.2,16-37.8,27.1-49.7,47.6C408.4,1048.7,403.6,1056.9,396.8,1061.7L396.8,1061.7z M466.9,1147.6
				c0.9-40,28.9-72.5,65.6-87.1c11.8-4.3,15.6,5.2,21.8,10.8c10.9,9.7,23.5,17.1,37.2,21.9c4.9,1.7,9.9,22.4,8.6,28.1
				c-4.6,19.3-22.3,20-36,25.2c-12.8,4.9-22.6,13.1-31.5,22.5C510.6,1197.3,463.1,1184.7,466.9,1147.6L466.9,1147.6z M565.3,1069.1
				c-26.1-19.1-26.4-55.4-19.8-83.7c3.7-11.7,15-17.8,25.1-24.5c11.2-7.3,23.1-11.8,35.8-15.4s44.6,11.9,44.5,24.6
				c-4.3,9.8-4,21.5-4.1,33.2c-0.1,9.8,7.3,17.7,6.3,27.9c-0.7,7.2-1.7,13.7-7.8,18.3c-9.9,7.4-8.7,19.7-13,29.5
				C620.1,1105.5,581.7,1079.2,565.3,1069.1L565.3,1069.1z M648.1,950.8c-15.5-14.3-38.7-16.3-58.6-10.4c1.3-15.6,6.5-37.6-4.4-51
				c-12.1-14.4,4.4-17,10.2-19.7c18.8-8.9,22.8-5.6,35.5,8.8c8.2,9.2,19.6,15,31.8,16.2c18,2,32.4,12.3,29.9,26.2
				c-2.5,13-15.3,20.9-25.2,28.6C661.4,959,655.3,958.3,648.1,950.8L648.1,950.8z M582.5,922.1c7,31.1-30.8,30.8-42,54.4
				c-7,13-21.6,10.5-33.1,14.3c-3.8,1.3-8.1,2.3-12.1,1.9c-10.1-0.9-22,5.6-27.1-12.2c-3.5-12.2-13.2-22.6-12.3-36.9
				c0.6-10.1,10.6-17.8,20.6-16.6c17,2,32.8-1.4,47.1-11.8C548.5,894.5,585.7,866.6,582.5,922.1L582.5,922.1z M540.4,891.2
				c-12.5,6-21,17.9-34.6,23.1c-24.6,9.2-56.5-7.7-59.2,35.2c-6.1-17-11.8-31.1-16.3-45.7c-4.6-14.8,5-37,18-44.1
				c8.8-4.8,18-1.6,27-1.5c27.1,2.2,53.5-36.8,72.7-21.1c8,5.8,8.3,14.5,9.4,23.8C559.3,876.2,553.6,884.8,540.4,891.2L540.4,891.2z
				 M439,950.8c-21.8-10-49.7,4-56.1,27.5c-1.9,7.1-23.9,27.5-30.1,26c-8.1-1.9-14.5-8-21.2-13.1c-7.7-5.8-17.7-8.2-24.7-15.4
				c-17.1-17.6-16.6-43.5,10.7-52.9c20-6.9,35.4-17.2,50.1-33.5c16.2-18.1,45.2-15.8,54.5,15.8C426.6,920.5,433.2,935.2,439,950.8z
				 M338.9,1009.4c11.3,3.4,6.3,12.6,8.5,18.8c7.5,21.1,25.5,34.9,46.2,41.5c4,1.2-0.1,7.1-0.3,10.7c-5.7,45.5,17,48.2-1.1,57.3
				c-14.5,9.5-28.8,20.3-49.6,19.5c-29.3,1.9-54.5-19.9-52.5-51.2c-1.4-17.3-12.8-28.8-23.7-40.2c-22.3-23.3-10.3-49.7,14.1-60.6
				C300.8,996.1,319.6,1003.6,338.9,1009.4L338.9,1009.4z M403.9,1135.5c0.3-0.6,4.5,0.8,6.5,1.9c14.4,8.3,29,15,46.2,16.3
				c5.7,0.4,3.4,10.2,6,15.5c11.5,24.3,43.8,32.5,64.4,14.8c4.4-3.6,9.9,1.6,11.7,12.4c4.2,17.3,4.6,44.6-11.3,57.2
				c-17.9,14-54.5-14.8-84.7-5c-26.1,6.1-45.9-1.5-58.4-26.3c-4.9-9.8-2.8-22.3-0.7-33.6C386,1169.1,392,1151.2,403.9,1135.5
				L403.9,1135.5z M627.3,1108.7c-3.6-2.4-6.5-5.9-10-9.3c32.4-5.9,20.7-25.7,32.6-42.1c14.7-12.2,15.8-27.1,8.9-43
				c-6.6-15.3-2.3-29.8,0.4-44.7c1.5-7.9,9.4-10.1,14.5-13.6c8.9-6.2,16.9-13.7,23.7-22.1c5.2-6.3,14-3.8,20.1-2.3
				c22.9,5.8,40.7,18.7,47.2,42.7c6.5,28.5-28.4,34.8-26.1,68.6c-0.9,22.7,0.9,46.4-15.2,65.8C697.8,1136.8,655,1128.9,627.3,1108.7
				L627.3,1108.7z M610.7,781.8c9.8,8.5,21.6,11.1,33.6,12.8c36.1,13.8,17.8,52.7,0.5,74.6c-3.4,4.8-6.2,5.1-9.8,0.6
				c-15.8-19.5-48-16.2-60.5,6c-1.1,1.9-2.3,4.4-5.4,3.8c-4-0.7-2.1-3.5-2-5.5c2.5-20.8-2.6-52.7-30-51.3
				c-18.9-0.7-39.8,28-42.8,11.3c-12-25.8,4.4-50,32.6-49.3C567.8,791.3,577.5,755,610.7,781.8z M329.7,802.3
				c-8-8-15.3-16.7-22.9-25.1c-2.3-2.5-0.1-4.2,1.5-5.3c12.4-8.6,24.8-17.3,37.5-25.4c10.3-6.5,4.5-14.7,2.3-21.7
				c-11-34.4-10.6-70.8-7-106.1c0.5-5.2,0.7-11.6,4.6-15.5c21.2,24.5,49.7,42.3,80,53.8c29.4,7.6,62.9,11.5,79.7,40
				c8.7,13.9,15.5,3.4,23,1.1c13.8-4.1,27.2-9.1,41-13c5.3-1.5,5,5.1,5,7c1.2,24.1,1.7,48.5-5.9,71.7c-2.9,8.8-14.1,9-21.7,10.6
				c-16.5,1.8-34.3-1.2-49.2,9.3c-1.3-6.7,14.7-26,21.5-26.9c12.3-1.5,24.5-3.8,36.7-6c1.9-0.3,4.3-2.9,2.8-4.3
				c-10.3-9.6-28.7,4.2-40.4,1.5c5.5-8.8,12.9-16.5,19.5-24.4c2.2-2.5,0.6-4.3-0.4-5.7c-2-2.8-3.3,0.7-4,1.4
				c-15.4,12.9-25.7,29.9-37.7,45.4c-8.4-12.6-10.1-28.9-19.4-41.4c-2.2-3.3-4.1-10.4-8.4-7.5c-4.7,3,0.1,8.9,2.1,13.1
				c6.7,14,15,27.4,20.3,41.9c2.7,7.3-5.7,14.3-8,21.8c-0.4,1.4-1.4,2.6-2.8,5c-18.1-33-45-59-67.6-88.7c-6.6-9.3-2-20.8-3.1-30.9
				c-1.8-4.9,3.9-15-4.1-14c-7.7,3.1-3.5,24.1-3.6,33.6c-8-8.1-37.9-56.8-43.4-51.3c-7,5.8,36.5,54.2,42.2,63.9
				c3.5,4.5,9.5,7.1,9.5,14c-6.2-0.6-48.9-19.3-47.7-10.8c0.3,5,5.6,6.4,9.6,7.5c15.7,4.4,31.4,8.9,47,13.3
				c7.8,2.2,12.8,14.5,19,22.3c8.7,10.8,17.3,21.6,26,32.4c1,1.3,2.5,2.6,0.9,4.2c-14.5-5.4-28.9-13.1-45.1-14.6
				c-9.5-1.2-13-13.6-18.3-20.6c-3.6-2.6-6.5-10.1-10-7.7c-4.7,3.2,1.3,7.3,3.3,11.1c2.5,4.6,4.7,9.3,10.6,14.3
				c-7.9,0.3-37.3-7-35.5,2.7c0.3,5.1,6.9,4.7,10,4.5c16.1-1,30.9,5.6,46.6,6.7c4.4,0.3,8.7,3.2,13,5c-25.5,10.5-40.7,4.9-65.7,0.5
				C347.5,791.3,343.9,817.8,329.7,802.3L329.7,802.3z M275.4,866c4-7,11.5-6.1,17.2-6.4c42.8-1.3,36.4-55.3,80.2-56.1
				c7.1-0.7,14.6,4.1,22.1,5.4c16,2.8,31.5-2.3,47.2-4.1c18.6-1.9,37.7,13.5,42.3,30.9c1.2,3.4,4.8,7.8,1.8,10.3
				c-2.8,2.3-8.3,2.9-12,2c-22.2-5.7-44.8,7.7-50.5,29.9c-0.6,2.4-1,4.8-1.2,7.2c-17-26.6-60.4-17.3-72.5,9.8
				c-11.3,19.2-43.5,10.3-58.1,35.9C276.1,910.5,259,891,275.4,866z M177.5,1051.8c-7.6-11.6-3.8-30.8,5.3-41.7
				c11.2-13.5,17.1-29.5,20.5-46.8c2.8-36.7,26.9-65.5,64.7-45.1c36.8,23.9-0.3,49.9,48.3,75c-13.2-0.5-24.4-0.6-35.9,1.5
				c-21,3.8-41.4,34.7-34,54.4c1.1,3,0.7,3.2-3,3.3c-18.9,0.5-37.4,2.8-55.3,10.2C181.1,1065.3,180.1,1055.6,177.5,1051.8
				L177.5,1051.8z M181.2,1076.7c18.1-11.4,39-13.6,58.3-15.8c15.9-1,18.8,13.2,27.1,20c16.2,13.4,11.7,34.7,18.1,52
				c21,38.4,64.1,40,99.9,20.7c-7.8,14-10.8,30-11.2,45.7c-0.3,9.7-2.5,16.3-10,22.8c-10.3,9-18.9,19.8-28.4,29.7
				c-18.8,19.6-55.9,30.4-64.1-4.4c-15.4-54.9-77.1-36.4-98.7-74.3c-4.2-9.2-2.2-20.3-7.1-29.7
				C147,1116.9,154.1,1091.5,181.2,1076.7L181.2,1076.7z M330,1332.1c-9.9,10.7-19.6,22.5-31.8,29.7c-11.6,6.9-20.7,18-33.8,21.9
				c-9.5,2.8-40-25.5-51.1-31c-9.1-5.7-11.1,5.1-15.4,8.8c-34.9,28.7-87.3,45.1-132.2,38c-18.1-3.3-35-11.3-52.5-15.5
				c44.7-17.8,20.2-88.1,57.1-124.8c14.2-7.4,6.5-12.1-1.5-18.3c-14-11-29.5-20.8-39.4-35.8c-5.5-8.4,5.9-12.5,10.3-17.2
				c7.5-7.9,16.7-14.6,26-20.4c26.5-17.3,59.7-24.2,90.5-16.3c4.6,0.8,4.5,5.7,4.5,8.3c-0.7,41.2,43.5,43.9,71.9,57.8
				c2.6,1,2.3,1.8,0.7,4.6c-9.5,16.7-21.3,8-33.4,4.3c-12.7-3.8-25.6-7.4-39.3-7.7c-5.8-0.1-12.2-1.7-16.1-9.6
				c-4.9-12-41.9-38.4-53.3-27.5c-0.6,2.5,1.4,3.3,3.5,3.9c16.7,4.8,30.7,13.8,43,27.8c-13.1,0.2-47.3-14-54.6-4.8
				c-0.6,3,2.1,4.2,4.2,4.7c25.9,5.1,51.8,8.7,77.5,14.8c-14,2.8-26.2,12.5-41.5,9.5c-9.1-2.1-12.6,9.3-0.9,7.9
				c19.5,2.7,36.6-4.8,53.6-12.5c11.9-5.3,20.6,3.8,30.9,5.7c14.3,4.8-40.6,45.3-45.6,53.1c-2.3,2.5-5.7,3.8-9.1,3.6
				c-21.1-0.4-41.6,2.8-60.9,11.9c-3.9,1.8-8.4,4.3-6,8.8c2.1,4,6.7-0.3,8.9-1.4c16.5-8.6,34.3-9.9,55.4-11.9
				c-27.4,23.1-51.8,38.6-76.9,61.8c-1.4,1.3-4.7,2.3-3.3,4.6c1.7,2.7,5,1,6.7-0.2c21.5-15.2,42.8-30.7,64.5-46.3
				c1,17-11.3,29.5-19.9,42.6c-1.9,2.8-7.5,5.9-3.1,9.1c8.6,5.6,22.9-25.6,27.1-31.9c4-7.9,5.2-16.9,3.4-25.5
				c-0.6-3.4,8.3-8.7,13-13c9.1-8.2,17.8-16.7,27.3-24.3c0.1,2.5,1,5.2,0.3,7.4c-4.4,14.2-3.3,29.7-9.8,43.4
				c-2.7,5.8-5.6,11.6-7.8,17.6c-0.7,1.8-4.7,4.4-0.6,6.1c13.5,2.1,22.3-43.5,24.6-54.4c1.6-9.1,2.4-18.4,2.3-27.7
				c0-3.4,4.6-7,7.4-10.2c1.7-1.8,3.5-3.4,5.5-4.8c4-3.1,6.9-11.4,11.9-8.6c6.1,3.5,5,12.1,4.5,19c-2.8,22,5.8,42.4,15,61.9
				c0.5,1.1,2.6,1.4,3.9,2.1c4.5-11-5.8-21.2-7.3-32.2c-1.7-8.7-0.3-16.9-2-28.5c7.3,10.4,35.9,68.4,43.1,63.8
				c2.5-11.3-20.8-40.2-26.1-52.3c3.9-1,25.5,8.2,32.1,12.8c3.9,2.7,8.7,3.9,13.1,5.7c2.8,0.5,2-4.6,1.2-5.2
				c-16-9.4-30.8-21.5-50.3-22.1c-3.6-0.1-2.8-2.9-3.7-4.2c-5.5-7.8-10.8-15.8-15.5-24.1c-6.6-11.8,6.8-13.4,11.2-18.8
				c3.2-3.8,6.9,2.2,9.9,5.5c7.7,8.5,10.3,19.6,15,29.5c13.3,25.6,44.5,19.2,63.6,3.9C312.3,1321.1,351.7,1315.8,330,1332.1z
				 M462.2,1336.9c-28.9,21.1-57.9-9.2-88.5-9.3c-49.5-4.6-45.5-59.3-17.2-87.1c4.6-5.5,10.2-10.2,15.1-15.5c2.8-3,4.2-1.4,5.1,1.2
				c7.3,20.7,25.1,29.3,43.8,34c10.5,2.6,22.8-2,34.3-3.2c29.7-4.3,61.6,26,86-2.6c0.2,12,4.8,22.5,3.8,33.9
				c-0.8,9.5-12.6,24.3-22.3,24.4C499,1313.1,480.6,1324.9,462.2,1336.9L462.2,1336.9z M772.8,1249.3
				c48.2,19.1,69.7,68.7,93.1,110.8c4.9,7.6,10.4,17.6,21.9,19.1c1.2,0.2,2.3,1.6,3.5,2.5c-3.4,2.9-6.3,6.8-10.2,8.6
				c-10.5,4.9-18.9,13.4-31.3,15.2c-9.3,1.4-18.4,3.8-27.9,3.3c-3.7-0.2-5.4,1-4.8,4.8c3,17.3-4.3,33.9-3.8,51
				c0.2,8.9,3.3,17.8,3.1,26.6c-0.1,18.3,3.6,38.3,17.7,51.4c-54.9,4.9-112,8.3-161.1-20.3c-14.6-7.2-28.8-33.1-46.8-23.3
				c-32.2,13.3-70.8-1.1-102.2,12.8c-17.3,8.6-16.4-5-20.6-12.2c-30.6-51.8-29.2-119.8-0.3-172c11.5-12,35.6,5.7,49-33.5
				c1,0.7,2.6,1.1,3,2.1c8.6,20,33.1,29.6,53.2,23.1c-18.5,28.9-56.8,35-73.8,65.9c-2.4,6.1-18,18.6-13.9,24.6
				c1.6,2.2,2.7,0.7,4-0.3c10.4-8.3,15.8-20.9,25-30.2s18.7-18.8,32.5-25.5c-21.6,34-40.3,66.4-46.7,105.1c-1,1.7,1,2.6,2.5,2.6
				c8.3-1.5,7.8-20.8,12-27.7c5.6-13.7,11.4-27.2,18.9-40.8c3.8,15.5,2.8,30.7-0.3,45.8c-0.6,6-6.5,21.3-1.4,25.2
				c10.5-1.7,13.5-52.4,12.1-62.3c-0.8-8.5-7-17.2-1.4-25.4c13.9-20.2,29.1-39.6,44.3-58.9c1.5-2,2.5-2,4.2,0.1
				c6.9,8.7,14.6,16.9,21.5,25.7c5.5,7-0.7,14.4-0.9,21.6c-0.3,11.1-4.1,22.1-5.2,33.2c0,13.3-6.8,48.9,3.2,57.2
				c6.8-10.2,0.5-33.1,4.5-46.9c11.2-76.4-1.5-58.7,46.1-4.6c4.6,5.7,3.5,16.9,3.9,25.1c1.1,24.7,8.4,47,23.5,66.7
				c6.7,11.7,11.4,0.8,5.6-6.1c-12.7-19.3-18.9-40.3-20.5-62.9c25.7,23,50.7,46.7,76.9,69c2.5,2.1,6.1,3.5,8.1,1.3
				c2.2-2.5-0.6-5.3-2.8-7.5c-30.6-30-60.7-61.2-88.5-93.7c26.2-3.2,47.5,9.9,68.5,21.9c2.2,1.3,4.7,5,6.9,2.2s-0.7-6.4-3-8.1
				c-23.4-18.4-52.6-26-81.6-29.1c-6.3-1.7-10.5-11.1-15.6-17.2c-10.3-13.1-22.2-25.2-31.2-39.2c19.8-3.9,39.5-2.3,59.3-1.2
				c10.6,0.4,15.8,6.4,21.2,12.6c6.4,8.1,41.8,39.1,50.6,30.4c1.9-3.9-2.8-5.4-5.1-6.4c-16.2-7-28.3-18.9-42.1-33.3
				c16.5,4.8,31.6,4.4,45.7,10c16.4,6.5,33,12.8,49.6,19c1.1,0.4,2.8-0.7,4.1-1.1c-0.8-1.5-1.1-3.8-2.3-4.5
				c-14.4-7.7-29.5-13.6-44.6-19.7c-19-7.7-39.5-7.9-58.7-14.1c18.6-13.4,43.1-19.5,66-18.6c3,0.2,8.5,4.6,8.5-1.5
				c0-4-6.1-6.1-11.1-6.6c-40.5-6.3-70.8,32.4-111.1,22.4c-11.6-2.8-23.2,2.4-34.7,4.4c-6.4,1.2-5.5-5.3-11.5-5.1
				c21.7-8.1,42.5-7.2,62.9-9.9c30.7-3,47.6-30.4,61.8-54.5C756.9,1244.1,766.3,1246.9,772.8,1249.3L772.8,1249.3z M784.8,1166.9
				c5.5,10,1,32.8-10.2,40.6c-35.8,27.4-39,89.9-96.1,87.5c-22.2-0.1-44.1,4.4-64.4,13.5c-23.7,10.7-47.8-1.1-57.1-26.9
				c-4-11.1-9.1-21.8-7.7-35.6c-1.8-14.6-3.3-23.6,14.1-18.8c51.1,4.5,62.3-38.7,103-51.8c36.2-10.8,19.7-39.4,31.6-40.7
				c4.9-1.2,9.5-3.2,13.8-5.9c17.1-10.2,24.8,8.2,37.2,12.2C763.4,1145.8,776.7,1152.1,784.8,1166.9L784.8,1166.9z M836.2,1051
				c-35,26.8-15.1,85.6-72.8,85.4c-9.2-2.1-21.4-9.5-33.3-17.5c-2.1-1.4-0.1-1.7,0.5-2.3c14.7-15.2,18.8-34.3,18.2-54.3
				c-0.7-21.3,1.7-40.2,19-55.7c14.7-13.2,11.2-43.5-5.5-59.3c-14.7-12.8,8.5-12.5,16.8-35.1c5.7-11.5,13.6-4.8,19.2-2.4
				c18.4,7.9,22.7,18.9,23.2,39.4c-0.4,24.2,17.4,43.9,29.1,63.8C854.7,1019.9,845.7,1042.6,836.2,1051z"/>
		</g>
	</g>
</g>
<g>
	<g id="Layer_1_2_">
		<g transform="matrix( 1, 0, 0, 1, 0,0) ">
			<g>
				<g id="Layer0_0_FILL_1_">
					<path d="M52,1548v15l-37,37h946l-37-37v-15H52 M52,52V37.7L14.3,0H0v1600h15l37-37v-15V52 M924,52V37.7L961.7,0H14.3L52,37.7
						V52H924 M976,0h-14.3L924,37.7V52v1496v15l37,37h15V0z"/>
				</g>
			</g>
			<g>
				<path id="Layer0_0_1_STROKES_1_" class="st4" d="M961,1600h15V0h-14.3L924,37.7V52v1496v15L961,1600H15H0V0h14.3h947.4 M52,52
					V37.7L14.3,0 M15,1600l37-37v-15V52h872 M924,1548H52"/>
			</g>
		</g>
	</g>
</g>
</svg>
