<svg xmlns="http://www.w3.org/2000/svg" xmlns:xlink="http://www.w3.org/1999/xlink" viewBox="0 0 976 1600">
<style type="text/css">
	.st0{fill:#FFFFFF;}
	.st1{clip-path:url(#SVGID_2_);}
	.st2{fill:#333333;}
	.st3{fill:#D81E1E;}
	.st4{fill:none;stroke:#333333;stroke-width:2;stroke-linecap:square;stroke-miterlimit:3;}
</style>
<g id="Paper_Backing">
	<path class="st0" d="M960,22v1556c0,3.3-2.7,6-6,6H22c-3.3,0-6-2.7-6-6V22c0-3.3,2.7-6,6-6h932C957.3,16,960,18.7,960,22z"/>
</g>
<g id="Wikipedia_Cropped">
	<g>
		<defs>
			<path id="SVGID_1_" d="M960,22v1556c0,3.3-2.7,6-6,6H22c-3.3,0-6-2.7-6-6V22c0-3.3,2.7-6,6-6h932C957.3,16,960,18.7,960,22z"/>
		</defs>
		<clipPath id="SVGID_2_">
			<use xlink:href="#SVGID_1_"  style="overflow:visible;"/>
		</clipPath>
		<g class="st1">
			<path class="st2" d="M685,1424.5c-33-2.7,1.2-49,18.4-58.1c6.5-4.8,11.2,6.9,17.1,0.5c2.7-2.3,4.6-7.5,8.9-6.5
				C745,1379.5,698.7,1428.4,685,1424.5z M793.4,1410.7c-30.7-14.3,20.1-56.8,40.3-57.5C872.5,1364.7,815.1,1410.8,793.4,1410.7
				L793.4,1410.7z M631,1315.4c-26.8-1.6-49.2-17.2-65.2-40.2c-5.1-4.8,0.2-10.9-0.1-16.3c-1.2-4.5,3.9-5.6,7.3-5.2
				c27.6-0.4,53.8,23.7,54.4,50C631.9,1306.1,639.8,1313.4,631,1315.4z M739.5,1288.3c-13-2.8-1.1-8.8-20-4.2
				c-7.1-27.3,38.4-53.7,60-55.1c5.8,0.5,4.2,7,0.5,9.3C782.8,1260.1,761,1288,739.5,1288.3L739.5,1288.3z M650.2,1229.2
				c-17.7-1-24.1-1.2-32.8-16.2c-6.1-16.3,28.9-26.4,42.2-26.2c13.4,1.7,35.1,1.4,42.1,12.1c-0.6,3.3-5.1,4.9-3.7,8.9
				C688.1,1224.1,663.7,1228.5,650.2,1229.2L650.2,1229.2z M760.1,1041.1c-25.2,5.9-91.8-42.9-67.4-60.8
				c18.1-9.7,83.6,18.3,70.4,45.4C771.4,1035,781.5,1040.5,760.1,1041.1L760.1,1041.1z M861.5,997.7c-44.9-1,3.1-96.5,31.5-91.3
				c19.8,0.5,7.8,11.5,10.1,25C904.4,957,885.3,988.3,861.5,997.7z M751.3,940.9c-20.8-3.8-47.6-24.8-51.1-47.6c2.6-4-0.7-8-4.3-9.9
				c-2.7-18.8,31.7-4.3,43.3,6.2C756.2,901.1,777.8,935.1,751.3,940.9z M839.4,854.5c-5.6-0.1-2.8-8.2-8-9.3c-2-0.7-3.1-2.7-2.6-4.7
				c4.9-21.5,10.9-44,35.6-53.1c24.2-7.6,30.7,11.1,18.4,33.6C873,840.6,857.5,848,839.4,854.5z M284.7,842.3
				c-25.6-20,4-79.4,33.5-83.9c4.3,2.6,10.5-5.4,12.6,1.7c8.3,38.8-15.5,62.7-29.7,77C291.2,839.4,295.3,834,284.7,842.3z
				 M765.7,840.5c-24.2,2.1-69.3-35.3-54.7-62.9c23.9-0.5,67,26.9,54.3,50.8C766.2,832.6,774.8,838.9,765.7,840.5z M828.5,757.1
				c-8.4-7.7-16.6-1.2-15.3-12.5C837.5,660.4,946.1,708.7,828.5,757.1z M364.2,658.9c-16.5,0.4-68-13-61.4-39.8
				C343.5,591.9,444,654.3,364.2,658.9z M299.4,560.5c-26.4,5.1-100-42-40.1-50c18.6,1.1,58.3,12.4,58.3,35.9
				C339.4,559.7,311.8,559.9,299.4,560.5z M387.5,530.2c-25.7-15.5-3.1-95.4,27.1-87.9c18.4,15.1,5.1,49.4-2.2,66.5
				c-3.8,4.3-7.1,15.3-14.3,14.4C392.8,522.8,392.9,530.5,387.5,530.2L387.5,530.2z"/>
			<path class="st3" d="M269.5,1513.4c-61.2-6.4,32.8-62,46-41.7C312.7,1491.8,296.1,1512.5,269.5,1513.4z M385.7,1511
				c-39.1-4.4,37.8-87.3,35.3-45C422.4,1482.4,400.3,1510.1,385.7,1511z M496,1497.2c-27.7-6.5-6.8-64.8,9.3-70.2
				C522.4,1440.4,523.2,1492.6,496,1497.2z M594.2,1466.8c-18.4-2.3-11.6-41.3-9.5-56.2C586.2,1360,640,1463.6,594.2,1466.8
				L594.2,1466.8z M324.9,1409.8c-14.6-2.1-45.6-9.8-39.3-31.9C300.8,1358.3,375.6,1409.3,324.9,1409.8L324.9,1409.8z M418.2,1364.6
				c-18.2,1.9-78.2-30.3-43-45.8C390.1,1313.9,446.9,1364.1,418.2,1364.6L418.2,1364.6z M441.7,1290
				c-57.5-9.4-119.6-16.7-177.4-22.8c-16.4-5-75.5,8.9-49.5-22.4c99.2-152.7,184.7-312.7,217.7-493.6
				c27.8-112.9,41.9-225.5,47.7-343.5c10.3-85.1-24.7-89.7,74.7-85.4c57.2,0.2,118.9-5,175.8-7.2c14.4-0.3,5,20.9,6.3,29.6
				c-7.1,92.6-22.6,187.1-27.2,278.8c9.2,1.4,38.6,38.6,15.1,35.6c-8.3,2.1-23.5-3.4-24.3,8.5c-9.3,49-21.9,97.5-34.8,145.7
				C620.3,978.5,561.1,1167.7,441.7,1290z M813.9,1174.2c-50.6-3.1-66.4-111.8-18.8-72C803.1,1114.8,833.5,1168.2,813.9,1174.2
				L813.9,1174.2z M225.3,1025.7c-16.9-1.1-15.2-30.4,0.3-35.1c16.1-8.2,36.5-17.9,53.8-15.8C281.1,998.3,250,1025.4,225.3,1025.7z
				 M156.7,957.9c-18.6,1.5-44.5-25.1-16.4-34.4c22.1-5.7,47.6-19.1,69.4-12.6C209.3,935.8,174.9,954.5,156.7,957.9L156.7,957.9z
				 M90.7,879.6c-88-23.6,70-67.6,56.9-30.4C136.4,863.7,113.4,877.2,90.7,879.6L90.7,879.6z M212,772.9c-14-13.4-6.8-38.2,4.1-56.8
				c8.9-15.7,47-16.5,37.7,8.2C244.8,744.7,228.6,760.3,212,772.9z M142.7,770.6c-57.7-9.3-80-110.6-32.6-74.5
				C123.3,711.5,154.5,753.6,142.7,770.6L142.7,770.6z M857.9,668.3c-61.6,0.2-32.2-28.2,10.5-34.6
				C909.3,636.7,892.6,671.7,857.9,668.3z M866.6,584.9c-14.2-3.5-29.6,0.2-44-6.2c-15.5-13.8,20.7-27,41.4-27.1
				C892.3,547.8,892.5,585.7,866.6,584.9z M852.2,496.7c-66.2-0.5-17.5-36,13.8-37.4C914.8,463.7,887.2,500.8,852.2,496.7z
				 M214.5,449.4c-30.3,6.6-83.3-35.1-24.4-42.1C216.3,408.5,272.1,454.2,214.5,449.4L214.5,449.4z M847.1,401.5
				c-71.3-0.4-6.7-40.2,21.7-38.1C913.4,373,875,407.5,847.1,401.5z M188.7,363.2c-21,0.2-74.2-4.2-72.6-35.1
				C120.9,304,223.6,350.9,188.7,363.2z M317,355.1c-39.9-0.7,54-82.1,62.1-40.1C372.8,340.6,339,351.5,317,355.1z M852,311.1
				c-64.2,3.1-19.4-34,14.4-33.8c30.7,2.5,13.2,35.5-9.5,33l0,0C855.3,310.5,853.7,310.9,852,311.1L852,311.1z M715.3,277.4
				c-10.9-1.3-28.4-3.5-36.5-22.7C665.3,201.3,766.6,279.5,715.3,277.4z M129.6,269.9c-19.7,1.2-71.2-27.9-33.1-41.8
				C117,231.8,189.2,268.1,129.6,269.9z M265,269.5c-2.2,0-4-1.8-4-4c0-0.6,0.2-1.3,0.4-1.8C312.3,167,387.5,253.5,265,269.5
				L265,269.5z M823.5,230.6c-40.8-1.4,24.6-44.7,43-29C886.5,225.3,839.1,230.9,823.5,230.6z M718.7,205.1
				c-18.3-4.5-38.3-14.8-44.8-30.9c-4.6-10.5,7.4-25.8,18.5-16.2C700.3,163.4,738.4,197.3,718.7,205.1z M783.7,187.7
				c-47.2-55,17.2-108.1,18.5-62.4C799.3,145.4,798.9,172.8,783.7,187.7z M219.4,181.9c-6.1-0.2-5.1-7.8-2.8-11.3
				C249.9,91.2,320.8,147.5,219.4,181.9z M159.5,158.6c-52.8-25.4-16.9-106.9,1.7-60.4C165.7,115.8,173.7,145.7,159.5,158.6z"/>
			<path d="M977.3,1254.5c-59.8-43.3-80.3-57.7-112.4-126.8c-10.9-23.7-23-48.8-29-73.6c3.7-11.1,8.2-22,13.5-32.5
				c2.6-5,1.5-11.9,8.8-14.9c22.6-9.2,37.3-26.6,46.8-48.4c7.5-17.3,3.2-35.9,4.2-54c-2.8-12.3-19.6-5.3-26.4-1.5
				c-27.4,13.7-43.1,45.2-44.8,75c0,9.1,5.7,17.6,6.1,25.6c0.9,5-7.2,28.5-12.3,31.3C818.1,1002,814.2,965,808,929.9
				c-2.4-19.4-6.5-37.6,11.1-51.8c5.5-4.5,6.3-14.5,13.4-15.4c35.5-5.4,63.3-36.5,64.3-72.2c3.7-20.4-13.2-14.3-26.8-11.4
				c-27.3,6.5-54.7,41.6-52.5,70.8c1.1,15-8.8,21.5-15.3,31.2c-5.3-18.2-5.8-36.7-6.5-54.9c-0.5-11.7-8.5-24-0.3-35.2
				c18.7-29.3,25.2-24.5,53.9-35.9c13.3-7.1,25-15.7,33-28.8c5.2-8.5,2.7-18.3,5.5-26.9c4.6-13.8-27.3-5.8-33.3-4.7
				c-22.3,2.8-47.7,30.4-47.3,52.9c0.1,3.8,2.2,8.6,0.6,11.2c-4.4,7-10.2,13.2-16.7,21c0.4-35.8-7.2-71.8-2.6-106.7
				c12.2-1,21.6-11.7,36.8-5c16.2,7.1,35.3,8,53.4,2.8c49.5-18.1,0.3-61.5-39-32.8c-14.8,8.6-28.2,19.5-45.6,22.2
				c-2.5,0.4-8.3,4.6-8.6-0.2c-1.5-22.5-1.7-45.1-2.3-67.7c0-1.2-0.7-2.5,1.4-3.6c32.6-18.2,66.5,15.6,99.4-3.9
				c9.3-5.7,12.5-27.8,3.1-33.3c-13-7.7-27.2-6.7-41.7-4.1c-19,3.4-27.7,24.1-47.1,26.4c-4.2,0.5-8.4,4.2-12.3,3.8
				c-8.1-0.9-4.6-8.8-4.2-12.4c1.4-13.4-0.5-26.9,1-40c1-8.3-8.6-21.5,7.4-25.5c27.5-11.1,20.6-4.1,45.5,1.4
				c20.5,0.4,51.5,2.5,62.6-18.2c2.9-7.5,1-16-6-22.2c-11.9-10.4-38.6-10-53.7-0.8c-10.9,6.6-18.4,17.4-29.2,23.4
				c-8.4,4.6-18.6,5.9-29,9c1.3-28.2-2.6-59.4,1.7-86.9c9.7-0.6,17.2-11.9,28.9-4.7c23.4,16,101.7,11,82.7-31.3
				c-17.6-26-52.6-10.6-72.6,4.4c-11.7,13.2-22.3,16.3-38,19.6c0-19.1-1-38.9,0.3-58.5c1.1-17,16.8-27.1,31.7-22.2
				c23.8,9.4,80.7,11.2,75.9-26.8c-9.2-26.2-44.7-15-62.2-3.8c-6.7,4.3-10,12.8-15.7,15.9c-8.9,4.8-18.9,8.6-28.3,12.9
				c4-22-11-77.5,23.9-75.9c18.9,3.5,38.4,1.4,56.1-6c30-11.6,8.1-46.1-17.5-36.4c-14.4,3.1-27.5,10.7-37.4,21.6
				c-1.9,3-22.9,23.9-20.7,11.9c1.9-7.1,1.3-14.6,1.4-22c-1.5-12.3,7.2-21.9,10.5-33.4c5-12.6,5.8-26.1,7.7-39.3
				c9.2-56.3-78.4-29.5-38.3,47.5c2.8,6.6,11,11.9,11.6,18.3c0.8,13.2-2.1,26.5-4.2,39.5c-3.4-1.8-6.5-3.9-9.4-6.4
				c-12.8-12.1-31.4-17.9-38.8-35.8c-7.6-17-30.7-52.1-52.2-45c-30.4,17.6,10.9,52.7,31.4,57.9c5.9,1.1,11.9-3.4,17.4,1.3
				c11.7,10,23.3,20.1,35.9,29.1c5,3.5,14.4,4.8,14.4,11.6c-0.1,15-2.7,30-4.2,45c-6.6-4.6-13.6-8.4-19.4-13.6
				c-5.5-5-14.1-4.1-17.7-14.1c-5.2-17.2-42-48.5-59.1-33.4c-21.3,24.8,19.5,55,46.4,48.1c3.9-0.7,8.8-1.4,12,0.3
				c9.5,5.2,18.6,11,27.3,17.5c4.9,3.7,12.6,4.9,11.5,15c-3,21.4,0.2,43.5-4.3,64.7c-7.2-1.7-10.6-7.8-17.2-10.2
				c-4.3-2.1-11.1-3-11.3-8.3c-0.6-12.7,1.4-25.5,0.1-38.1c0-5.9,6.6-17.7-9.5-15.7c-16.6,2.1-33.4,4.3-50,3.7
				c-64.8,1.8-129.5,6.8-194.3,9.2c-2.1,0.1-9.8-5.6-10,3.5c-0.2,59.9-6.5,119.2-11.1,178.9c-4,49.6-8.6,100.4-21.3,148.2
				c-12.9-11.9-23.9-26.3-35-40c-5.6-7.5-16.2-13-15.8-22.8c4.2-23-1-52.6,20.1-68.5c3.5-2.5,5.6-7.4,7.2-11.7
				c8.2-15.5,16.5-89.8-17.1-71.8c-27.3,19.5-40.2,51.4-32.4,83.9c1.3,7.5,3.3,17.4,15.6,16c2.7-0.3,2,2.8,1.8,4.3
				c-1.5,12.4-3.1,24.7-4.7,37.6c-26.5-33.6-47.2-71.2-71.2-106.7c-13.9-25.3-33.3-49.8-42.8-76.8c-0.6-3.8,9.5-9.1,14.7-13.8
				c0.9-0.8,1.2-2.4,2.2-2.9c8.4-4.9,11.8-16.6,24.2-16.1c26.2,1.4,50.1-12.5,68.1-31.1c7.7-8.5,7.9-23.5-2.4-28.8
				c-15.8-8.1-51.6,6.9-62,25.8c-13.3,30.6-23.5,31.2-44.5,52.3c-4.6,5.5-7.1,2.7-9.1-1.6c-10.2-22.1-20.2-44.2-30.1-66.5
				c-0.7-1.5-4.7-3.2-0.8-5.9s7.3-6.5,11.5-8.7c9.5-5,11.3-17.4,24.5-20.1c23.5-5.4,78.6-16.8,72.3-49.8
				c-14.8-32.6-56.3-5.7-69.9,15.1c-7.9,10.4-8.7,24.9-20.2,33.3c-8.8,6.5-16.8,14.2-24.7,21c0.1,0.2,0.2,0.4,0.3,0.6
				c-10.6-22.5-20.7-45.5-30.9-68.1c-1.2-2.7-3.2-5.4-1-9.1c17.6-29.4,50.9-38.1,76-57.7c8.1-6.3,13.5-13.5,12-22.1
				c-10.6-32.9-53.7-7.8-63.5,14.3c-10.4,23.7-5.3,37-30,54.9c-7.4-21.1-20.1-40.6-14.4-64.7c5.3-12.7-1.4-66.1-18.7-66.9
				c-10.4-0.7-19.7,2.5-24.6,12c-11.7,22.5-2.9,53.4,17.2,68.1c8.9,6.5,16,13.1,20.1,23.8c9,28.9,18.8,57.7,31.8,85.3
				c0.6,1.3,0.6,3.1-1.4,2.6c-13.6-7.5-29.8-7.1-43-18.6c-17.6-15.6-72.7-51.9-78.6-8.6c3,20.4,40.4,39.5,60.8,33.8
				c11-3.1,22.5-8.5,34.8-4.3c4.4,1.5,9.4,1.9,13.3,4.2c7.4,4.3,18.4,0.4,23,11.2c10.6,25.6,23.7,50.1,33.5,76
				c-12.8-3.4-29.9-5.4-39.1-13.5c-14-17.5-87.3-56-93.1-18.2c-1.2,19.5,25,29.2,40.5,33.7c13.5,4.4,26.7,4.2,40.4,3.3
				c7.2-0.4,12.5-8.4,20.6-4.3c4.8,2.4,10.4,3.4,15.2,5.8c7.2,3.7,17.4,1.5,22.1,8.8c14.3,21.8,21.9,47.4,40.3,71.5
				c-13.9-6.8-30.4-7.5-41.3-16.5c-9.8-7.9-18.5-17.6-29.3-23.6c-12.6-7-26.8-11.9-41.9-6.4c-7.8,2.8-17.5,3.5-19.6,13.9
				c-5.5,21.2,19.2,33.7,36.8,36.8c15.2,2.8,30.1,4,45.4,0.2c5-1.3,8.5-6.4,12.8-5.8c10.7,0.6,20.2,6.7,30.3,8.1
				c4.2-0.3,8.5-1.4,12,5.2c15.5,29.5,37.7,55.4,52.6,85.1c0.5,1.6,4.3,1.3,3.1,3.9c-0.2,0.5-4-0.9-6.2-1.1
				c-12.3-1.5-16.1-13-24-19.5c-20.6-16.9-43.4-30.7-72.1-22.5c-58.6,11.9,43.2,80.1,77.6,53.9c4.5-2.9,7.5-5.2,12.2-1.9
				c8.3,5.9,20.4,4,27.2,13c17,24.6,37,46.9,56,69.9c-6.4-2.6-13.5,2.1-19.6-6.9S381,621.1,371,615c-19.6-11.8-41-9.8-62-5.7
				c-43.9,13.4,12.4,49.4,33.3,53.3c15.5,4.1,32.2,8.6,47.1-0.7c10.4-6.4,19.4-9.7,32.4-7.5c19.1,3.1,22.4,4.3,19.2,18.4
				c-18.7,86.7-36.1,174.5-68.8,257.2c-1.5,3.6,1.7,15.3-8.8,10.1c-27.5-13.6-52.7-31-78-48.2c-2.8-1.9-10.2-3.6-7.9-7.2
				c8.6-13.9,10.5-30.4,26.7-41.9c22.8-16.2,36.3-41.3,33.9-71.7c-0.9-11.2-10.4-23.1-17.3-20.5c-30.4,9.9-50.6,38.9-51.9,70.3
				c-0.9,9.2,0,18.6,8.9,23c11.7,5.8-6,15.2-6.4,29.8c2,18.8-48.8-37.3-54.2-40.5c-5.5-5-16.1-11.9-15.1-15.4
				c4.1-14.8,5.6-30.9,17.5-43.3c16.9-17.1,46.5-38.5,40.5-66.3c-25.6-35-69.9,19.3-60.4,49c9.6,18.9,1.4,35.2-6.1,53
				c-13.7-12.8-27.9-25.9-38.9-42.4c-12.1-29.1-20.3-60.9-46.6-81.3c-21.6-17.8-32.8,4.9-29.8,25c2.7,22.4,27.8,50.2,48.5,57.5
				c7.4,1.5,16.9,3.1,21.1,8.3c11.1,13.5,22.9,26.4,35.4,38.6c2.2,2.1,1.4,2.8-0.6,3.5c-11.9,3.8-24.3,8.3-35.9,12.3
				c-22.2-6.5-93.4,0.3-87.9,33.9c1.6,10.4,10.2,14.7,17.9,16.7c23.7,6.2,43.3-4,62.8-16.8c11.9-7.8,8-27.6,25.4-30
				c3.8-0.5,7.3-3.8,11.1-4.3c6.4-0.8,13.7-7.7,18.5-3.3c20.5,18.2,39.8,37.7,59.2,56.4c-14.3,5.2-28.6,16.6-43.1,17.5
				c-26.2,1.5-50.6,7.9-74.6,17.1c-20.7,5.1-17.8,26.3-3.8,37.4c26.3,18.8,62.2-6.6,76.9-30.1c3.6-5.8,3-14.3,10.6-17.7
				c10.3-4.5,20.4-9.6,31.1-13.3c4.2-1.4,8.7-6.7,13.2-3.2c18,13.9,37,26.2,57,38.3c-23.9,16.5-27,34.3-59,40.6
				c-22.9,4.5-69.2,19.7-51.1,50.3c20.2,27.5,60.8-12.1,69.9-33.3c2.8-5.4,2.9-14.5,6.9-16.5c12.4-6.2,18.8-18.4,29.5-25.5
				c5.4-3.6,8.2-17.3,20.2-8.2c6.4,4.9,14.7,7.2,21.9,11.2c1.2,0.7,5,0.4,3.7,3.5c-42.9,103.7-102,199.6-160.3,295.2
				c-8.2,13.6-1.1,24.3,12,23.4c19.6,2,39.2,3.7,58.7,5.5c41.7,3.3,82.9,9.7,124.6,12.2c6.3-0.2,12.5,0.9,18.4,3.2
				c39.8,15.7,53.6-33.1,75-56.1c40.8-58.8,75.4-122.1,104.7-187.4c20.8-54,42.7-107.9,58.5-163.6c10.6-43.7,23.5-86.7,35.8-129.8
				c6.3-25.9,10.7-52.3,16.5-78.4c1.5-6.5,0.3-17.3,12.8-13.9c10.4,3.3,19.8-5.6,30,1.7c6.9,4.8,21,7,21.8,11.9
				c6.4,54.1,3.4,106.9,11.1,161.4c-2-2.3-3.8-3.3-3.8-4.4c-0.4-13.9-9.9-23.8-16.1-34.9c-5.6-20.6-75.6-43.2-63.6-10.2
				c8.2,24.9,39.2,67.2,69.4,55.2c7.3-5,9.5,4.5,14.8,4.6c-0.9,8.6,1.7,16.7,3.2,25c3.5,19.9,2.7,40.5,9.9,59.9
				c1.3,3.6-0.5,12-1.2,11.2c-8.3-8.6-24.8-8.5-26.3-24.2c-7.2-26.7-31.8-42.9-56.6-50.9c-23.5-5.5-31,14.7-15.9,31.3
				c9.3,23.4,37.6,53.3,65.2,44.2c7-2.8,33.5,6.4,35.5,13.5c7.3,30.6,14.1,61.9,22.3,92.1c-7.6-3.8-16.3-7-23.6-12.3
				c-6.3-4.5-16-4.9-19-13c-7-19.3-19.1-33.5-37.7-42.4c-14.6-5.8-45-17.7-57.5-5.4c-2.8,2.5-1.8,7.3-0.6,11.2
				c7.9,25.5,24.7,42.7,49.3,52.6c12.7,5.1,25.2,8.9,39.3,4.5c3.6-1.1,0.8-8.8,7.3-5.1c8.6,4.9,18.5,7.8,26.6,13.3
				c25.9,10.6,19.1,7.7,27.6,33.1c24.6,57.4,53.9,112.3,105.2,150.9c-16.7-5.8-31.6-10.3-48.2-15.3c-10.1-3.4-22.8-1.2-30.2-11.7
				c-7.9-13-26-20.6-30.8-35c-4.9-25.3-19-90.5-51.7-88.5c-10.2,1.3-14.3,10.1-14.7,19c-1.8,35.6,17.5,63.1,51,74.8
				c14.8,5.2,21.3,19.7,33.8,29.7c-36.6-4.9-69.1-12.4-105.4-11.9c-9.2,0.3-18.5-2.7-27.7-0.1c-0.7,0.2-2-0.9-2.7-1.7
				c-21.3-22.3-68.3-23-91.9-2.6c-10.9,9.4-13.4,20.2-2.5,28.9c22.6,17.9,51.1,13.7,74.8,0.7c11.8-6.5,20.4-19.3,36.8-15.3
				c25.3,3.5,51.3,3.8,76.8,6.2c2.2,0.2,3.8,1.9,2.1,2.9c-27.3,22.5-29.6-4.6-67.3,23.3c-19.2,14-31.7,31.9-32.1,56.6
				c-0.1,3.3,1,5.9,4.9,5c25.7-5.8,52.5-11.3,68.2-35.3c6.6-9.9,3.2-24,13.3-32.5c14.2-7.9,28.1-18.6,45.8-14
				c45.2,11.2,89.8,24.5,133.9,39.3C978.8,1262.4,984.9,1259.8,977.3,1254.5z M901,911.1c-4,15,0.5,27.3-4,38.9
				c-5.4,13.8-12.2,27.5-25.3,35.7c-1.4,5.2-5.5,6.8-10.1,8c7.2-26.1,22.7-49.2,33.7-73.9C896.3,917.6,897.9,915.6,901,911.1z
				 M887.6,909.5c0.7-0.4,1.9-0.1,2.8-0.2c-11.4,28.8-30,54.1-40.3,83.6C841.4,958.6,863.7,924.9,887.6,909.5L887.6,909.5z
				 M859.1,841c-6.6,3.1-12.6,7.5-19.7,9.6c14.1-19.8,29.6-38.4,44.6-58.1C888.6,807.1,874.5,833.8,859.1,841z M863.5,792.2
				c3.6-1.7,6.8-4,10.9-2.9c-12.3,18.3-30.6,32.7-41.8,52.1C837.6,821.4,842,801.1,863.5,792.2L863.5,792.2z M878,709.3
				c-0.9,12.1-10.7,30.4-49.5,43.8C845.5,736.1,861.1,721.9,878,709.3z M817.1,745.6c6.8-26.5,26.4-43.2,56.4-44.2
				c-20.5,14.6-38,31.3-56.2,47.2C817.1,747.6,817,746.6,817.1,745.6L817.1,745.6z M826.8,655.8c14.4-12.8,52.4-30.6,62.6-5.2
				c-2.8,11-12.5,10-19.6,12.1c-13.8,4-27.6-0.7-41.4-1.9C826,660.3,824.2,657.9,826.8,655.8L826.8,655.8z M822.7,571.6
				c7.5-12.6,55.9-26.9,59.7-4.9c-1.2,8.3-5.3,14.6-16.7,14.2C859.9,577.5,821.2,581.5,822.7,571.6z M828.7,478.7
				c14.8-11.8,30.7-18.9,50-13.6c13.4,4.7,11.7,20.8-0.7,23.2c-11.7,2.4-23.5,6.5-35.7,3.1C831.7,489,810.6,490.4,828.7,478.7
				L828.7,478.7z M818.6,388.7c53.2-45.9,88.6-5,51.2,5.9c-16.5,4.3-33.9,3.8-50.1-1.5C816.4,392,816.2,390.7,818.6,388.7z
				 M828.7,295.1c9.1-9.1,42.3-22.5,49.9-6.9c6.6,23-44.6,19.5-56.3,15.5C824.4,300.9,826,297.4,828.7,295.1L828.7,295.1z
				 M814,223.9c5-11.2,37.7-27.5,50.3-19c2.5,1.7,2.6,3.5,2.3,10.4c-0.5,3.9-8.1,5.8-13.9,7.3C849.4,224,810.3,230.6,814,223.9z
				 M775.3,123.1c3.5-7.4,11.6-11.4,19.6-9.6c4.8,1,3.6,8.8,3.3,11.3c-1.6,20.7-4.9,39.8-14.5,58.9
				C774.2,163.4,764.9,144.4,775.3,123.1z M716.8,200.8c-14.4-4.6-36.8-15.4-40.2-31c1.9-8.4,4.8-14.4,13.5-8.5
				C695.6,161.9,732.8,204.5,716.8,200.8z M715.3,273.4c-35.6-0.7-44.6-42.4-21.1-31.8c13.6,6.2,26.9,16.6,32.5,30.7L715.3,273.4z
				 M315.7,341.2c9.8-16.3,23.8-27.9,42.1-32.7c5.4-1.4,15.1-3.3,17.5,7.3c-7.5,21.3-44.4,37-65.7,34.7
				C311.6,347.4,313.8,344.4,315.7,341.2z M291.1,230.9c36.5-25,73.5,15.8-26,34.6C271.7,252.6,280.5,240.9,291.1,230.9z M219.1,175
				c18.5-65.9,101-40.3,1.9,2.4C217.7,179.2,218.9,176.1,219.1,175L219.1,175z M160.8,152.9c-0.3,0.7-0.7,1.3-1.4,1.7
				c-9.6-6.2-17-14.4-20.4-25.5c-4.4-14.1-9.1-29.7,6.4-38.9c10.4-6.2,10.9,7,12.9,12.8C164.2,119.2,163.5,136.5,160.8,152.9
				L160.8,152.9z M145.8,263.1c-19.8,4.5-46.7,0.2-58.3-18.4c-3.4-7.3,6.1-15,12.4-12.2c18.1,4.5,32.4,16.3,47.5,26.4
				C151.3,261.6,150.3,262.7,145.8,263.1L145.8,263.1z M192.4,357c-1.5,3.8-5.9,1.5-9.1,1.9c-1.6,0.2-3.3,0-9.4,0
				c-12.3-1.5-28.9-2.5-43.2-13.1c-6-4.4-13.8-9.3-10.9-16.3c3.5-8.4,13.1-3.5,19.5-2.2c17.4,3.7,34.4,9.3,47.4,22.5
				C188.9,352,193.8,353.1,192.4,357z M229.9,444.9c-20,0.8-40,2-57.2-11.7c-15-13.3,3.1-21.1,16.9-22c13.7,1.3,45.6,17.8,46.6,31.9
				C236.8,445.2,232.3,444.8,229.9,444.9L229.9,444.9z M314,539.7l-72.6-20C258.9,506.5,296.3,520.5,314,539.7z M278.2,552.9
				c-13.4-5-26.6-10.2-37.9-23.2l81.8,24.4C306.5,556.8,292.2,558.1,278.2,552.9L278.2,552.9z M412.6,450.8
				c6-21.4,15,40.6-12.5,68.7c2.9-18.5,4.9-33.9,8-49.1C409.5,463.8,407.4,456.4,412.6,450.8z M389,521c-1,1.6,1.5,5-1.4,5.2
				c-1.3,0.1-3.7-3.3-4.1-5.5c-6.9-28.4-0.4-58.7,25.1-76.6c-9,20.6-18.1,39.8-18.6,61.5C389.9,510.8,392.2,516,389,521z
				 M388.6,638.1l-84.1-15.4C331,610.1,365.4,618.7,388.6,638.1L388.6,638.1z M308.6,634.5c29,3.8,54.6,9.4,81.2,15.6
				C360,661.1,335.1,652,308.6,634.5L308.6,634.5z M326.9,760.9c6.9,32.2-8.9,53.5-28.6,73.4C307.5,810.6,316.8,787,326.9,760.9
				L326.9,760.9z M279.4,825.4c-0.6-24.9,12.2-50.6,34.9-62.8c2.7-1.2,2.6-1.3,2.6,2.9c-4.6,10.3-10,21.4-14.7,32.7
				c-6.4,13.1-8.7,28.4-17.6,40C280.4,835,279.3,829.4,279.4,825.4L279.4,825.4z M219.4,718.2c4.9-8,21.6-12.5,28.4-7.2
				c13.5,16.3-25.7,46.3-36,57.9C205.2,750.4,209.8,734,219.4,718.2L219.4,718.2z M139.3,764.8c-60.5-18.8-62-97.7-31.7-65.5
				c17.9,20,29,40.2,35,67.2C142.1,765,140.4,765.2,139.3,764.8z M144.5,846.5c-13.9,16.8-32.2,25.8-53.9,29.1
				c-7.7-3.9-20.9-0.7-21.2-14.3c-0.9-14.9,42-21.7,53.4-21.5c6.9-0.4,13.9,0.8,20.8,1.7C144.2,841.5,145.3,845.7,144.5,846.5
				L144.5,846.5z M199,926.5c-10.1,15.8-25.9,22.9-42.3,27.3c-7-1.3-13.3-0.9-18.3-6.5c-9.8-10.9-9.5-14.2,3.6-20.2
				c16.5-7.6,34.9-7.9,51.7-14.5c3.6-1.5,8.6,0.5,13,0.9C206.1,919,201.7,922.3,199,926.5L199,926.5z M276,982
				c-9.9,18.5-25.5,38.2-47.9,39.3c-9.1,2-9.7-5.4-10.9-10.6c-4.3-20.1,44.6-30.6,59.2-33.3C276.3,979,276.6,980.7,276,982z
				 M770,531.9c0.4,10,0.8,20.9-1.4,31.1c-0.7,3.3-4.1-0.3-5.7-1.2c-12.5-6.5-24.3-14.3-37.7-19.5c-1.6-0.6-0.6-8.9-0.1-13.6
				c3-20.3,5-40.8,6.4-61.3c1.8,0.8,4,1.1,5.3,2.3c7.8,7.4,18,10.5,27.2,15.3C772.7,488.6,768.8,521,770,531.9z M742.9,373.8
				c8.2,5.7,16.8,10.9,24.3,17.4c4.9,4.2,0.3,10.5,0.2,15.7c-0.4,18.2-0.8,36.4,1.3,54.5c0.5,4.3,0.3,9.7-2,12.9
				c-2.1,2.9-5-2.4-8-3.5c-6.6-2.4-12.3-6.9-19.5-8.5c-4.7-1.1-8.3-4.6-5.7-10.5c1.9-25.3,3.7-50.6,5.5-75.9
				C739.3,373.2,740.5,372.1,742.9,373.8L742.9,373.8z M703.4,626.3c-8.4,62.8-25.6,124.6-41.5,186c-29.7,117-70,232.1-130.1,337.2
				c-22.3,45.1-53.4,84.3-80.8,125.9c-7,12.5-18.9,6.3-27.3,4.8c-66.2-7.5-132.4-15.9-199-19.3c-13.7,1.1-17.2-0.4-6.6-14
				c8.6-14,17.1-28.1,25.8-42.1c52.7-80.1,95.7-165.7,135.8-252.5c5.7-9,5.1-21.7,9.6-31.8c10.8-21.4,15.7-44.7,21.9-67.7
				c15.3-55.4,28.1-111.5,39.9-167.7c23.2-116.4,34.2-235.3,35.5-353.9c-0.1-2.1,0.6-4.7,7.3-5c20.3,0,40.7,0.1,61,0
				c36-0.9,72.3-0.8,108.2-3.5c22.5-2.2,45.1-3.1,67.6-3.7c3-0.1,4,0.4,3.9,3.4c-2.1,21.1-2.4,42.5-6.1,63.2
				C721.2,466,712.4,546.1,703.4,626.3z M727.1,655c-21.3-1-17.4,12.3-12.3-25.7c5.8,8.8,9.8,15.6,14.5,21.9
				C732.2,655.2,730,654.8,727.1,655z M771,661.9c-24-3.3-39.4-22.9-53.6-40.2c0.4-22.5,1.5-46.2,6.4-68.4c12.8,7,25.9,14,38.8,21.3
				c5.3,3,7,6.8,6.8,14c-0.4,22.2,1.4,44.4,2.6,66.5C772.2,657.6,772.9,660.3,771,661.9z M764.7,819.3c0.1,0.5-0.3,1-0.5,1.5
				c-14.6-7.1-25.3-20.7-39.8-28.5c-3.9-2.3-6.4-8-13.2-10.8C731.7,780.5,761.6,802.5,764.7,819.3z M711.6,793.6
				c18.2,14.4,35.9,28.4,54.3,42.9C740.8,835.5,723.3,818.2,711.6,793.6z M757.6,934.6c-8.1,8.8-37.1-11.4-42.5-21.5
				c-4.4-5.6-9-10.7-11.5-17.7c1,0.2,2.4,0,3.1,0.6C722.1,910.8,741,921.8,757.6,934.6L757.6,934.6z M698.3,880.2
				c16.9-7.2,53.2,17.3,62.4,44L698.3,880.2z M751.7,1003.3c2.3,3.1,15.6,11.7,8.8,15.4c-2.7,1-7.2-2-10.4-3.9
				c-17.9-10.8-35.7-21.8-53.7-32.9C717.9,981.5,735.8,990.1,751.7,1003.3L751.7,1003.3z M700.8,1005.8c-3.2-6.4-9-11.7-11.1-18.5
				c25.4,18,52,34.4,79.6,48.9C745.3,1040.8,712.5,1025.9,700.8,1005.8L700.8,1005.8z M817,1167.1c-0.7,5.5-6.2,2.3-8.3,1.4
				C734.1,1135.9,784,1026.3,817,1167.1L817,1167.1z M648.9,1225.2c-7.9-1.2-18.3,0-23.7-7c22.3-6.1,44.4-7.2,69-9.4
				C679.4,1219.2,665.2,1225.6,648.9,1225.2L648.9,1225.2z M618.9,1209.4c22.8-24.6,49-20.6,78.9-10.8
				C669.7,1202.2,644.2,1202.5,618.9,1209.4L618.9,1209.4z M737.5,1284.2l38.9-35.4C773,1266.1,751.9,1286.3,737.5,1284.2
				L737.5,1284.2z M733.7,1270.9c-4.1,3.3-7.8,7.1-12.3,9.7c0-1.6-0.7-3.7,0-4.9c12.5-22.2,31.7-39.6,58.1-42.7
				C765.4,1248.2,748.7,1258.5,733.7,1270.9L733.7,1270.9z M951.5,25.6c1.5-13.7,26.1-11.2,23.7,6.1
				C973.8,47.2,950.3,42.6,951.5,25.6z M958.2,698.9c-17.1-0.5-13.4-25.7,5.7-23.9C974.5,677.9,972.1,699.3,958.2,698.9L958.2,698.9
				z M966.2,1340.6c-11-7.8-24.3-8.6-36.3-13c-21.9-8.1-44.4-13.2-67.5-14.1c-26.5-1-53.1-0.9-79.6-0.4
				c-37.3,0.9-74.2,9.5-111.3,11.4c-43.7-0.8-33-69.7-88-75.5c-57.3-8.6-5.4,58.9,18.4,65.9c21.5,13.1,26.2-6.4,35.7,2
				c3.9,3.8,8.1,7.4,12.2,11c-47.1,11.4-94.3,26.2-141.1,40.2c-14.6,4.2-28,18-45.5,6.9c-9.7-6.2-24-8.3-29.8-16.7
				c-12.7-18.4-23.8-36.8-47.2-43c-8.1-2.1-16-4.7-23.1,2.2c-16.7,20.7,23.5,47.8,42.1,48.7c22.2-3.2,36.3,8.6,53.1,19.9
				c-15.3,6.4-31.7,12.8-47.7,20c-7.5,3.4-15.5,12.8-22,10c-15.1-6.6-33.7-5.9-44.2-24.1c-8-14.8-48.3-33-63.1-20
				c-15.7,19.5,18.6,39.7,36.6,41.3c9.7,0.9,18.8-4.4,28-2c10.2,3.4,21.9,5.9,30.7,11.9c-7.3,5.5-15.9,9-23.5,14.2
				c-8.3,5.3-16,12.7-24.4,17.3c-22.2,10-87.2,16-87,48.3c17.5,40.3,75.9,7.8,79.4-32.3c0.8-4.9,6-8.8,10.4-10.9
				c31.7-17.2,64.2-32.8,96.4-49c-2,2.3-0.6,4.9-1.3,6.8c-1.6,4.6-2.2,9.5-3.3,14.2c-5,25-41,18.3-51.8,57c-2,6.7-5.5,13.6-1.4,20.4
				c17.7,23.4,46.9-8.2,52.4-27c6.7-18.9,4.7-40.3,12.6-59c2.9-6.8-1-17.9,10.2-19.8c10.3-1.7,18.9-8.6,28.8-9.3
				c10.3-1.8,23.9-21.5,23.7,9.5c0.7,5.6,3.9,13,1.5,16.5c-15.3,19.1-40.3,79.6-1.8,82.8c12.4-2.7,22-16.8,23.7-30.1
				c2.9-30-16.5-53.9-16.4-83.4c-1.2-7.1,2.8-8.9,8.5-10.5c12.5-3.4,24.7-9.7,37.2-10.4c8.6-0.5,22.1-19.9,27.3,3.7
				c1.6,7.2,7,14.1,4.6,21.7c-6.5,20.9-7.9,41.9-3.5,63.2c13,38.7,54.3-3.8,33-38.3c-8.2-15.1-22.5-26.7-24.5-45.4
				c-0.8-8-6.7-16.5,6.4-19.3c6.7-1.4,13.9-1.4,20.2-3.8c43.8-14.1,90.3-18.7,135.9-22c-8.9,7.5-16.7,22.3-26.8,25.5
				c-16.6,3.7-30,11.1-41.5,22.8c-14.3,14.6-19,32.5-16.5,52.3c0.5,3.7,5.2,6.1,8.2,5.4c28.8-6.2,69-37.2,64.6-69.1
				c-2.7-9.3,0.4-13.4,5.6-17.9c7.8-4.8,13-17.7,21.1-19.9c15.9-2.9,32.1-4.2,48.3-3.8c23.4,1.9,42.1-1.2,66.7,4.4
				c-14.7,0.6-22.6,19.8-34.1,19.3c-10.9-2.2-19.5,1.9-28.2,4.7c-19.2,1.9-64.1,61.6-27.4,63c22.3-1.2,51.3-20.4,61.4-40.5
				c3-8.3-2.1-19.5,9.5-24.9c10-4.6,25.8-24.3,36.9-20.6c21.4,6.9,43.9,9.9,64.7,18.7C967.4,1350,973,1343.2,966.2,1340.6
				L966.2,1340.6z M623.7,1292.1c-19-14.6-34.3-26.6-54.1-34.2C594.8,1256.5,609,1270.3,623.7,1292.1L623.7,1292.1z M579.7,1285.2
				c-3.2-5.8-13.1-10.9-12.1-18c1.8-2.1,3.2,0.7,4.5,1.8c17.6,15.6,38.4,26.7,59,42.4C609.2,1308,591.6,1302.2,579.7,1285.2
				L579.7,1285.2z M418.2,1360.5c-13.7-0.4-57.2-16.9-48.3-35.1c4.3-5.5,10.6-1.1,15.8,0.2c18.1,4.9,28.7,19.4,36.9,34.9H418.2z
				 M338.5,1402.5c-2.7,5.2-8.6,1-13.6,3.2c-14-3.6-30.4-3.6-36.4-21.9c-3.2-4,6.4-8.1,9.5-6.7c12.7,3.6,25.4,7.4,35,17.2
				C335.3,1396.7,340.6,1398.4,338.5,1402.5L338.5,1402.5z M310.5,1478.2c-18.8,51.6-93.9,28.4-35.3,3.8c11.1-5.9,23-12.1,36.3-10.8
				C311.2,1473.5,311.4,1476.1,310.5,1478.2L310.5,1478.2z M388.2,1506.7c-5.8,1.6-11.1-2.2-9-8.4c4.1-20.2,18.9-31.3,35.3-40.8
				c2.2-1.3,2.5-0.7,2.5,8.6C419.4,1478.9,398.8,1503.7,388.2,1506.7L388.2,1506.7z M507.6,1434c5.1,18.1,10.8,40-3.9,55.5
				c-6.5,7.2-15.7,3-16.4-5.5c-0.4-18.8,2.7-36.8,15.6-51.6C505.7,1429.3,507.2,1431.9,507.6,1434z M588.7,1411
				c0.8-3.6-2.1-9.8,1.9-10.2c5.3-0.6,4.8,6.7,7.3,10.3c6.4,9.1,11.7,18.8,11,31.4c3.3,12.8-20.4,32.1-21.7,10.3
				C585.2,1438.9,585.7,1424.7,588.7,1411z M705.6,1369.7c0.7-0.5,1.8-0.4,2.8-0.5c0,0.7,0.3,1.7-0.1,2.1
				c-13,13.2-23.4,28.2-33.3,47C677.7,1395,688.8,1380.5,705.6,1369.7L705.6,1369.7z M683.6,1420.4c11.3-21.3,28.5-37.8,44.7-56.2
				C731.5,1384.9,700.5,1422.6,683.6,1420.4L683.6,1420.4z M787.6,1402.3c-2-15.8,23.8-41.2,46.1-45.1
				C816.7,1370.5,801.2,1385.6,787.6,1402.3L787.6,1402.3z M793.5,1406.7c18.8-14.1,31.6-32.5,51-44
				C841.3,1380.7,813.2,1405.5,793.5,1406.7L793.5,1406.7z M940.8,285.1c-0.4-14.1,20.7-20.7,23.3-4.6
				C968,297.8,938.8,304.4,940.8,285.1z M963.4,865.1c0.4,15-24.1,18.3-24,1.2C938,849,963,846.5,963.4,865.1L963.4,865.1z
				 M939,1113.4c-1.1-20.4,25.2-15.8,22.4,3.2C960.6,1132.1,935.6,1129.1,939,1113.4z M942.1,490.5c6.3,0.3,16-1.1,15.9,9
				c0,7.5-2.6,15.7-13.1,15.5C930.6,516.5,928.2,490.9,942.1,490.5L942.1,490.5z M941.3,414.3c-0.4-9.3,7.7-12.7,14.7-12.8
				c8.1-0.1,10.1,7.6,11.2,14.6c-0.9,9.7-8.4,12.8-15.8,12.6S941.6,420.4,941.3,414.3L941.3,414.3z M924.9,752
				c-2.6-18.2,20.5-15.8,18.9-0.2C943,768.6,925.6,767,924.9,752z M929.7,133.3c19.7,0.9,16.5,28.8-1.7,27.1
				c-8.7-0.4-9.5-9.2-10-16.5C917.5,135.5,924.1,133.2,929.7,133.3L929.7,133.3z M910.9,69.7c0.8-15.2,26.9-16.4,25.7,0.4
				C936.8,83.6,910.2,86.4,910.9,69.7L910.9,69.7z M913.1,342c-1.1-16.7,25.3-20,21.8-0.9c2,10.1-6.6,10.1-11.9,10.6
				c-5,0.4-9.5-3.3-9.9-8.4C913.1,342.9,913.1,342.4,913.1,342z M903.5,227.5c0.2-14.5,26.5-9.3,24.2,4.9c-0.1,8.9-8.3,7.1-12.4,8.7
				C904,241.6,904,233.2,903.5,227.5z M910.1,1046c13.9-0.3,16.2,23.6,1.8,23.8C894,1072.2,895,1045.2,910.1,1046z M898.9,431.9
				c-1.6-21.4,25.6-14.2,22,4C919.5,450.1,895.7,446.4,898.9,431.9z M881.1,26.9c-2.7-18,25.1-19.5,24.9-0.9
				C908.1,44.2,879.7,44.1,881.1,26.9L881.1,26.9z M876,119c2.1,11.7-4.2,18.9-15.3,19.7c-9.3,0.8-9.9-8.5-11.8-13.3
				C844.6,104.5,871.5,100.6,876,119z M841.6,69.4c0-7.1,0.5-16.1,10.8-17.4c8-1,13.6,2.1,14.9,8.7C870,78.3,842.4,87,841.6,69.4z
				 M787.4,16.5c0.4-5.9,2.1-13.5,11.2-13.5c9.8,0,16.2,3.9,14.9,14.7C814,30.8,785.7,36.1,787.4,16.5z M810.5,1546
				c1.7,21.9-26.4,20.8-26.3,4.8c0.5-7.3,0.2-16.2,10.9-17.6C804.8,1532,810.2,1537.5,810.5,1546z M741.5,59.4
				c1-7,0.6-18.1,13.4-16.6c9,1.1,10.3,7.8,10.1,15.1c-0.2,8.2-3,14.1-13.3,13C742,73.5,740.9,64.1,741.5,59.4L741.5,59.4z
				 M736.6,1508.5c6.4,19.1-25.2,19.7-24.2,1.5c-0.3-7.4,1.7-14.9,11.9-12.9C734,1495.2,735.3,1503.3,736.6,1508.5L736.6,1508.5z
				 M671.4,61.9c7.5-0.3,12.1,3,11.7,11.5c1.5,7.2-3.3,10.6-9.1,11.4c-5,0.9-9.8-2.5-10.6-7.5c-0.1-0.4-0.1-0.9-0.1-1.3
				C663.2,70.4,661.8,62.3,671.4,61.9z M645.2,15.1C646,9,645.3,0.3,655.6,0.7c5.8,0.2,13.9,0.1,12.9,8c-0.8,6.4-1.4,15.9-11.8,16.7
				C649.7,25.2,644.1,23,645.2,15.1z M658.9,1534.5c2,17.9-26.1,19.4-27.5,2.8C630.8,1517.2,659.1,1515.8,658.9,1534.5z M592.2,55.4
				c0.4-6.4,0.5-14.5,10.2-15c7.1-0.3,12.9,2.2,12.6,10.6C615.8,65.9,591.8,66.4,592.2,55.4z M567.2,97.9c0.5-6.2,3-14,10.3-14.5
				c6.9-0.5,14.3,2.1,13.2,15.8C590.5,111.1,566.1,113.6,567.2,97.9z M589.1,1573.9c1,14.1-22.5,14.7-20.3,0.7
				c-0.1-5.1-0.4-10.2,5.2-10C580.4,1564.8,589.4,1562.2,589.1,1573.9L589.1,1573.9z M571.2,1515c0.6,14.9-25,16.2-22.3,1.1
				c-0.5-8.5,2.2-13.6,11.2-13.2C568,1503.3,571.4,1506.8,571.2,1515z M549,16c-2.2-14.5,24.7-15,21.9-1
				c-0.7,6.6-3.8,12.2-13.8,12.2C550.5,28,549.3,22.2,549,16z M531.5,134.4c5.8,0,10.8,4.1,9.7,11.8c-1.1,5.9-1.7,13-9.9,12.6
				C514,160,515.7,134.3,531.5,134.4z M513,58c-1.5-13,22.5-15.9,22.8-3c0.6,8.7-1.6,15.8-11.4,14C515,69.6,512.9,64.6,513,58z
				 M511.2,1562.5c-0.3,7.4-4.2,12.4-10.6,12.1c-5.6-0.2-15.2,1-13.4-12c2.8-3.3-2.9-13.9,8.5-13.5
				C503.8,1549.4,511.6,1551.1,511.2,1562.5L511.2,1562.5z M469.9,105.2c0.2-9.7,4.5-14.4,17.9-14.2c3.4,0.3,5.5,5.1,5.1,11.1
				C493,115,469.7,121.6,469.9,105.2z M463,200.6c-0.2,7.4-0.3,15.5-11.8,14.5c-18.6,3.9-13.2-22.1,0.6-23.5
				C455.2,190.9,463.1,193.1,463,200.6z M435,53c-1.3-13.7,25.2-14.4,24.1,1.9C459.2,70.7,433.6,67.8,435,53z M433.1,151
				c0.3-20.7,23.3-15.5,21.8-2.9C454.7,166.5,431.7,162.8,433.1,151L433.1,151z M431.1,1576.8c1.1,8-4.6,9.8-10.3,10.1
				c-10.6,0.5-10.5-7.7-10.8-15C410.3,1557.8,433.5,1564.3,431.1,1576.8L431.1,1576.8z M413.8,216.6c-0.4,17.8-22.2,11-20.7-2
				C392.2,199.8,416,201.7,413.8,216.6z M399.9,86.8c12.8-1.5,15.9,21.4,2.4,20.3C387,109.1,384.1,86.8,399.9,86.8z M387.3,15.1
				c0-4,1-10.2,7-9.9c5.8,0.3,14.7-1.7,13,9.5c1.9,7.9-3.3,9.4-9.2,10.4C390.1,26.3,387.3,21.2,387.3,15.1z M347.3,63.5
				c0.8-6,2.5-12.8,11.3-12.6c8.3,0.2,10.4,5.5,11,16.5c0.6,5.7-7.4,5.6-12.9,6c-4.7,0.5-8.9-3-9.4-7.7
				C347.1,64.9,347.1,64.2,347.3,63.5L347.3,63.5z M335.5,136.6c1.4-16,22.2-14.7,21.8,2C358,155.2,333.7,150.7,335.5,136.6
				L335.5,136.6z M337,1573.9c0.3,18.8-24.6,19.8-25.7,2.1C309.5,1559,336,1555.9,337,1573.9z M282.7,45.4
				c-0.3-14.3,7.6-18,14.8-17.8c6.7,0.2,8.1,8.6,8.1,14.4C306.3,56.5,285.9,54.7,282.7,45.4z M219.1,52.1c-0.8-6.5,1.5-10.9,9.1-8.9
				c9.1-1.9,12.4,3.5,13.4,10.8C243.9,71.3,218.7,74.5,219.1,52.1L219.1,52.1z M240.1,1570.6c-1.9,3.9,0.6,12.1-6,10.9
				s-17.2,5.3-19.4-7.7C211.4,1554,237.2,1551.8,240.1,1570.6L240.1,1570.6z M209.7,1391.3c-1,7.8-8.4,9.4-17.8,10
				c-5.7,0.6-6.6-5.9-6.6-10.8C183.9,1370.8,212.4,1372.1,209.7,1391.3L209.7,1391.3z M180.7,554.6c-2.1-14.8,23.8-11.4,23.1,2
				c0.6,7.8-2,13.7-11.2,12.5C180.6,570.3,181.4,561.3,180.7,554.6L180.7,554.6z M200.6,1509.2c-1,3.6-1.4,12-11.3,11.7
				c-16.8,1.4-15.6-24.5-1-25.3C193.2,1495.3,202.3,1495.8,200.6,1509.2L200.6,1509.2z M166.7,16.7c0.4-8,3.7-10.8,11-9.6
				c10.5-1.9,11.7,5.8,12.1,12.6c0.3,3.9-0.4,10-6.7,9.9C174.7,29.5,166,29.6,166.7,16.7z M135.3,603.5c-2.8-16,24.3-16.8,24.2-1.3
				c0.8,10.4-3.7,16.1-13.9,15.7C136.7,617.6,136.1,609.3,135.3,603.5z M161.4,1455.4c-2.7,4.3-3.2,10.9-10.3,10.6
				c-7.4-0.3-13.6-2.5-13-11.8c0.6-8.7,8.5-10.2,14-10.6C158,1443.1,159.6,1450,161.4,1455.4L161.4,1455.4z M124.8,1533
				c3.1,20.5-29.8,19.6-25.7,0.1c1-5.4,2.5-12.5,10-11.3C115.5,1522.9,124,1523.3,124.8,1533z M95,451.9c0-6.5,2.8-11.6,9.7-11.8
				c7.4-0.2,15.2,0.1,14.5,11.3c-0.5,8-3,13.3-12.4,11.5C97.6,464.9,95.1,459.5,95,451.9z M86.7,1018.4
				c-0.8-16.6,26.6-19.7,24.3-2.3c-0.5,8.7-4,15.5-13.9,15.5C88.1,1031.6,88.3,1023.9,86.7,1018.4L86.7,1018.4z M89.1,1274.6
				c10.1,0.7,12.3,8.1,12.7,15.6c0.4,9-9,10.2-14,10.1c-7.2-0.1-9.3-7.4-8.7-15C78.1,1278.3,80.3,1274,89.1,1274.6L89.1,1274.6z
				 M87.3,495.4c7.3,0.4,15.9,2.8,13.9,12.1c-0.3,8.3-1.6,13.9-9.9,13.5C74.5,521.9,76.8,494.8,87.3,495.4z M100.4,1410
				c-2.2,5.8-0.4,16.3-12.1,15.3c-8.4-0.4-8.8-7.7-9.1-13C77.7,1400,102.3,1398.4,100.4,1410z M97.8,610.3
				c-1.1,4.8-0.4,13.1-9.8,12.9c-6.8-0.2-11-2.4-11-9.9c0-8.1,3.7-12.5,13.4-12.5C97.5,598.8,98.6,606.7,97.8,610.3z M77.6,117.2
				c12.9,1.2,13.7,29.4-5.5,27.6c-6-0.2-8.1-5.2-7.7-11.1C65.5,125.4,65.9,116,77.6,117.2z M84.6,390.9c-0.2,5.5,1.1,13.6-6.9,13.7
				c-6.7,0.1-16.5,0.1-14.6-12.2c-2.3-12.9,9.3-8.6,15-10.8C80.2,380.8,84.8,386.4,84.6,390.9L84.6,390.9z M83.1,1492.6
				c0.3,10.4-28.4,12.4-26.7-1.8c0.3-7.2-0.6-17.5,12.6-15.8C83.1,1472.7,81.5,1485.8,83.1,1492.6L83.1,1492.6z M73.1,312.8
				c1.1,10-7.2,11.6-13.3,11.9c-7.4,0.4-7.3-7.6-7.4-12.6C50.7,295,75,295.3,73.1,312.8z M47.1,39.4c-0.4-7.3,5.9-10.5,11.1-10.2
				c4.7,0.3,13.4-1.1,12.9,8.7C73.7,56.9,47.7,57.6,47.1,39.4L47.1,39.4z M52.5,1243.1c-11.1-0.4-14.5-6.4-13.7-16.7
				c0.6-6.7,1.2-12.4,10.5-11.4C66.4,1211.7,71.7,1243.5,52.5,1243.1L52.5,1243.1z M64.3,1099.1c-0.1,16.6-21.3,17.3-25.5,4.9
				c-0.7-11,1-18.3,9.2-18.6S65.3,1087.1,64.3,1099.1L64.3,1099.1z M60.8,974.8c0.7,16.4-28.9,15.9-25.6,0.1
				C33.9,951.5,60.2,953.2,60.8,974.8z M35.2,1340.3c-1.9-8.7,4.1-11.3,12.5-11.4c11-1.6,12.2,7.9,13,15.2
				C59.1,1365.4,37,1358.5,35.2,1340.3z M59.7,566.4c-0.3,5.3,0.2,12.3-7.7,12.5s-15.9-2.5-16.7-11.4
				C32.1,547.8,63,544.6,59.7,566.4z M35.6,497.9c2.5-6.6-2.8-18.4,10.1-18.8c6.1-0.2,13.7,0.7,13.1,9.3
				C60.4,501,37.8,513.7,35.6,497.9z M56.4,1571.7c1.6,11.9-24.6,10.8-26.7,1.2c-1.9-8-2.1-16.3,12.1-16
				C51.3,1555.1,55.2,1563.8,56.4,1571.7z M37.7,184.8c8.9-0.2,14,2.6,13.4,12.2c-0.3,5.7-1.7,13.5-7.4,13.4
				c-9.3-0.1-15.9-6.1-14.7-17.1C27.7,186.2,31.5,184.9,37.7,184.8z M19.5,1164.3c-0.3-6.9,2-16.2,10.4-16.7
				c15.1-2.6,23.6,31.2,3.5,27.2C24.7,1176.9,19.8,1171.5,19.5,1164.3z M31.6,1022.9c10.2-0.9,10.5,7.3,11.2,13.4
				c1,8.2-6.6,10.3-12.1,10.2C18.4,1046.2,17.2,1023.3,31.6,1022.9L31.6,1022.9z M13.9,649.6c-0.1-6.3,2.6-15.7,10.9-16.1
				c5.5-0.2,15.8-0.7,15.2,9.8c-0.4,8.2,0.9,19.3-13.4,17.7C17.6,662.6,14,654.9,13.9,649.6z M39.2,258.6
				c-0.3,8.8-5.7,12.4-13.7,12.4c-9.6,0.1-6.4-8.3-7-12.8C15.3,240.7,39.4,241.9,39.2,258.6L39.2,258.6z M17.9,358.9
				c7.3-0.1,11.5,2.7,11,9.8c-0.4,6.3,1,14.3-9.1,14.3C7.3,384.1,4.1,357.7,17.9,358.9z M28.9,1437.9c-1.3,14.3-27.3,11-23.9-4.9
				C2.7,1416.4,31.8,1415.6,28.9,1437.9L28.9,1437.9z M7.4,96c0-3.2,3.1-9,7.1-8.5c7.9,1,16.4,3,14.2,17
				C21.8,116.9,6.1,109.7,7.4,96z"/>
		</g>
	</g>
</g>
<g>
	<g id="Layer_1_2_">
		<g transform="matrix( 1, 0, 0, 1, 0,0) ">
			<g>
				<g id="Layer0_0_FILL_1_">
					<path d="M52,1548v15l-37,37h946l-37-37v-15H52 M52,52V37.7L14.3,0H0v1600h15l37-37v-15V52 M924,52V37.7L961.7,0H14.3L52,37.7
						V52H924 M976,0h-14.3L924,37.7V52v1496v15l37,37h15V0z"/>
				</g>
			</g>
			<g>
				<path id="Layer0_0_1_STROKES_1_" class="st4" d="M961,1600h15V0h-14.3L924,37.7V52v1496v15L961,1600H15H0V0h14.3h947.4 M52,52
					V37.7L14.3,0 M15,1600l37-37v-15V52h872 M924,1548H52"/>
			</g>
		</g>
	</g>
</g>
</svg>
