<svg xmlns="http://www.w3.org/2000/svg" xmlns:xlink="http://www.w3.org/1999/xlink" viewBox="0 0 976 1600">
<style type="text/css">
	.st0{fill:#FFFFFF;}
	.st1{clip-path:url(#SVGID_2_);}
	.st2{fill:#333333;}
	.st3{fill:#FF970D;}
	.st4{fill:#D81E1E;}
	.st5{fill:none;stroke:#333333;stroke-width:2;stroke-linecap:square;stroke-miterlimit:3;}
</style>
<g id="Paper_Backing">
	<path class="st0" d="M960,22v1556c0,3.3-2.7,6-6,6H22c-3.3,0-6-2.7-6-6V22c0-3.3,2.7-6,6-6h932C957.3,16,960,18.7,960,22z"/>
</g>
<g id="Wikipedia_Cropped">
	<g>
		<defs>
			<path id="SVGID_1_" d="M960,22v1556c0,3.3-2.7,6-6,6H22c-3.3,0-6-2.7-6-6V22c0-3.3,2.7-6,6-6h932C957.3,16,960,18.7,960,22z"/>
		</defs>
		<clipPath id="SVGID_2_">
			<use xlink:href="#SVGID_1_"  style="overflow:visible;"/>
		</clipPath>
		<g class="st1">
			<path class="st2" d="M521,1570.3c-64.9-2.9,22.5-60.6,49-42.1C608.3,1541.2,539.2,1574.1,521,1570.3z M795.1,1536.9
				c-21.6-1.6-39-8.4-44.5-24.8c-6.2-13,24.9-16.9,34-17.4c9.9-0.9,53.3,11.3,43.8,25.8c-4.4,1-4.3,5.2-4.7,8.8
				C816.4,1535.1,804.2,1536.2,795.1,1536.9L795.1,1536.9z M909.6,1477.7c-24.7-13.5-20.7-90.8,9.1-95.7
				C942.4,1404.4,951.9,1477,909.6,1477.7L909.6,1477.7z M595.6,1468.6c-26.2-7.4-51.8-54-23.8-70.7
				C596.1,1402.1,624.5,1456.8,595.6,1468.6L595.6,1468.6z M830.6,1446.6c-31.4-7.8-37.6-66.8-6.8-79.3
				C848.2,1383.4,859.9,1434.2,830.6,1446.6L830.6,1446.6z M704.3,1438.2c-24.7-0.9-64.6-7.1-71-35.1c2.4-7-16.2-9.4-4.7-15
				c28.7-3.2,66.4,2.4,83,28.7C713.4,1431.9,747,1436,704.3,1438.2L704.3,1438.2z M892.1,1358.7c-10.2-0.8-43-0.9-29.5-15
				c4.3-20.9,28.4-34.8,48.3-34c13.5,0.4,25.8,2.3,34.6,10.3c2.5,4.7-1.8,10.1,4,14.1C940.1,1351.7,911.8,1357.3,892.1,1358.7
				L892.1,1358.7z M857.7,1051.6c-38.5,2.9-82.5-34.1-19-36.2c13.7,1.4,43.2,2.8,47.2,18.4c-3.6,4.6,3.3,7.7,2,12
				C880.4,1052.3,866.5,1050.4,857.7,1051.6L857.7,1051.6z M766.5,970.4c-17.7,1.2-48.7-14.2-42.8-33.8
				C773.4,900.7,861.4,961.2,766.5,970.4L766.5,970.4z M894.3,936.8c-16.7-13.9-5-69.7,31-79.6C944.1,876.8,933.5,931.6,894.3,936.8
				L894.3,936.8z M836.7,847c-5.2-4.6-11,0.5-15.1-3.6c-6.4-28.1,5.4-51.9,25.4-66.2c1.6-1.1,3.4-1.7,5.3-2
				c5.5,0.4,8.5-13.3,13.4-4.1C870.9,793,857.6,835.7,836.7,847z M723.2,819.6c-33.8-7.1-77.9-22.1-73.8-59.1
				c10.5-18.7,51.2,5.9,61.7,13.9C723.8,786.1,748.7,813.3,723.2,819.6z M773.8,735.4c-6-0.5-60.7-3.8-52.3-18.9
				c3.7-1.4,4-5.4,3.4-8.8c3.1-8.1,16.8-8.6,24.3-12.4c17-3.8,38.5-0.1,53.8,6.6c1.6,11,10.8,8.4,18.8,11.5l0,0
				C831.5,728.6,785.1,735.4,773.8,735.4L773.8,735.4z M921.6,701.3c-19.6-34.5,9.4-83.6,46.5-96.6
				C988.2,638.9,947.9,692.7,921.6,701.3L921.6,701.3z M622.2,663.3c-50.3-3.3,5.7-55.3,31-48.9c9.2,0.7,24.1,1.3,34.2,4.4
				c3.5,3-0.4,9.2,3.9,12c2,1.5,1.8,4,0.8,6C679.2,656.3,646.8,661.5,622.2,663.3L622.2,663.3z M514.9,611.3
				c-5.5-1-19.6,1.6-18.3-6.9c0.9-6.3-5.9-10.6-0.2-17.2c19.9-30.4,64.7-28.7,93.7-18.8C603,586.6,534.2,613.3,514.9,611.3
				L514.9,611.3z M378.1,607c-46.2-22,51.6-83.3,79.5-63.2C460.5,577.6,409.8,599.8,378.1,607z M694.8,510.4
				c-22.3-14.1-35.3-55.2-19-83.6C708.6,437.3,722.3,490.8,694.8,510.4L694.8,510.4z M478.5,508.4c-26,1.4-82.4-30.6-68.3-59
				c33.3-5.3,68.7,20.5,72.1,50C490.5,502.1,485.8,510.1,478.5,508.4L478.5,508.4z M606.2,490.2c-80.9-47.6-21-146.1,8.7-44.5
				c-0.9,10.1,8.4,28.6,0.7,35.5C609.3,481.1,611.7,490,606.2,490.2L606.2,490.2z"/>
			<path class="st3" d="M556.5,1416.2c-19-4.9-38.1-6.2-41.4-17.9c3.5-25.8,13.3-51.6,18.9-77c8.1-5.4,7.2-11.8,17.6-16.6
				c5.4-2.3,14.6-7.4,7-13.5c-6.5-5.6-18.4-8.3-22.1-16.8c-12-5.8-27.4-11.9-39.6-20.3c-2.9-2.3-3.2-8.2-8.1-7.7
				c-11.7,0.2-24.1-10.2-34.1-15.7c-1.7-5.3-6.1-7.3-11.1-5.1c-9.7-3.5-18.9-9-27.9-12.7c-4.1-5.8-6.4-6.8-13.4-5.8
				c-20.9-9.8-40.6-15.4-61.6-23.3c-28-3.4-57.5-1.9-80.2,17.1c-5.2,12.7,12.3,38.6,22.1,51.6c7.5,2.9,3.9,18.9,11.4,22.1
				c1.8-1.2,4,5.4,5,9c8,12,5,35.7-13.3,35.6c-9.8,6-15.8,17.9-31.5,16.2c-15.1-3.2-2.6-35.6-16.4-45c-5.4-17.5-11.6-13.2-22.4-23.8
				c-21.4-14.6-52.4,124.1-83.4,126.5c-2.8,0.7-7.4,0.1-9.7-2.1c-6.1-5.2-15.9,1-23-4.3c-32.9-10.1,1.4-34.3,7.9-52.1
				c9-20.9-9.1-46.1,3.5-64.4c28.9-24.5,68.3-46.6,75-89.4c-13.1-9.8-14.4-31.9-25.1-42.5c-30.3-45.6,31.5-50.3,56.1-67.2
				c-34.5-54.2-65.3-124.2-83.3-185.8c-15.1-28.1-18.5-63.5-3.3-92.2c7.7-16.6,25.6-16.1,29.4-1.2c0.6,2.7,3,4.7,5.9,4.7
				c12.8,6.7,25.6,23.7,39.5,30.1c49.1,39.4,112.9,38.9,172.8,54.1c207.7,45.8,398.3,170.2,520.3,346c-22.3,55-78.1,98.1-131,125.2
				c-18,7.4-54.3,29.6-68.1,23.2c-1.5-3.8-5.6-4.1-9-3.1c-10.4-6.6-21.9-13-28.7-20.6c-6.1-6.4-22.3-7.8-30.2-12
				C583.1,1324.3,577.7,1390.7,556.5,1416.2z M188.4,885.5c-29,10.3,30.3,145.4,44.8,95c11.9-18-3-26.2-12.4-39.2
				C205.9,924.7,202.6,898.4,188.4,885.5z"/>
			<path class="st4" d="M395,1537.2c-86.5-14,84-86.8,50.9-30.6C432.5,1525.8,415.9,1535.8,395,1537.2z M275.8,1524.5
				c-64.1-19.1,33-62.8,58.6-54C330.3,1493.2,304.3,1521.2,275.8,1524.5L275.8,1524.5z M143.3,1507.4c-72-21.8,120.2-97.2,40.5-15.3
				C170.8,1504.3,158,1507.4,143.3,1507.4L143.3,1507.4z M60.3,1461.1c-22.9-2.6-19.2-32.9-0.7-37.3c11.2-8.4,76.6-16.4,57.9,9.3
				C104.6,1444.8,86.1,1458.7,60.3,1461.1L60.3,1461.1z M464.6,1407c-21.4-5-40.4-60.2-7.4-65.7C480,1342,481.4,1402.7,464.6,1407z
				 M383.8,1401.1c-33.1-7.1-32.4-101.3,2.7-52.5C389.5,1364.1,397.7,1391.1,383.8,1401.1z M301,1393c-73.4-37.6-4.2-96.5,2.7-36.9
				C302.8,1365.9,313.3,1390.3,301,1393z M210.2,1384c-20.1-14.2-35.2-42.9-27.8-64.1c8.1-13.8,30.2-4.1,31.5,8.3
				C221.1,1344,221.7,1372.2,210.2,1384L210.2,1384z M936.5,554.5c-73.2-1.4,15.8-55.9,42.2-35C996.8,544.2,954.6,554.6,936.5,554.5
				z M786.5,554.3c-41.8,4.6-76-60.1-29.6-49.8C767.5,511.2,806.1,549.4,786.5,554.3L786.5,554.3z M775.2,460.4
				c-65.4-0.8-75-82.2-13.8-33C767,433.5,792.4,456.4,775.2,460.4L775.2,460.4z M935.5,451.2c-64.2,0.7-14-36.2,20.3-37.8
				C999.7,420.4,959.8,452.9,935.5,451.2z M778.3,375.5c-18.8-3-35-12.5-51.6-26.6c-13.7-8.8-7.8-47.7,12.7-31
				C746.7,323.7,792.6,362.1,778.3,375.5z M0,369.5C-11.6,370.3-0.1,4-4,0c3.1-7.6,981-7.6,984,0c-2.7,3.5,8.5,143.3-7.9,132.8
				c-46.1,13.5-90.7-22.9-113.3-57.3c-32.6,38.5-84,65.6-133.5,46.5c-18.3,0.7-22.8-20.7-33.8,7.7c18.2,22.7,3.9,65.6-28.2,63.4
				c-36.8-15.5-84.3,17.8-102.2-21.8c-0.3-26.4-44.4-9-50.3-57.9c-8.9-20-21.2,29.3-44,23.4c-13.4,8.5-2.2,38.5-32,46.2
				c-63,25.5-98.9-44.7-153.2-44.4c-4.3,14.6,4,35-10.4,47.4c-9,10.7-23.7,15.8-38.8,15.1c-6.9,2-18.3-7.9-22.2,1.4
				c-6.1,27-28.5,33-48.9,42c11.6,33.4-16.4,59-52.7,67.6c-10.4,6.6-32-8-34.9,6.1C67.4,356.7,33.1,371.7,0,369.5z M319.1,363.1
				c-17.9,1-53.1-5.8-45.4-32.8C278,305.1,425.8,349.2,319.1,363.1z M522.1,355.5c-17-15.9,6.7-52.8,27.8-57.7
				C594.8,295.6,547.8,354.7,522.1,355.5z M930.4,355.3c-51.6-0.5,9.8-40.4,33.6-32.1C1002.5,335.7,945.3,358.1,930.4,355.3
				L930.4,355.3z M445.4,287.3c-15.4-22.6,14.6-63.2,40.9-66.1C515.7,239.1,466.8,280.2,445.4,287.3L445.4,287.3z M354,271.7
				c-46.2-0.6-64.6-98.5-19.8-61.6C342.9,219.2,369.3,259.3,354,271.7z M771.4,266.5c-75.9-7.3-60.3-98.4-10.2-36.3
				C765.8,239.2,787.2,260.3,771.4,266.5L771.4,266.5z M912,263.8c-21.9-12.2,21.3-40.1,40.5-38.2c9-0.7,17.8,6.8,18.5,15.7
				C965.9,265.8,930.7,260.8,912,263.8L912,263.8z M836.5,232.7c-23.7-14.9-25-99.8,18.4-81.9C862,175.3,857.5,214.5,836.5,232.7
				L836.5,232.7z"/>
			<path d="M976,1136c-24.1-49.9-48.8-99.7-77.7-147c-3.3-5.2-9.5-12.2-8-16c13.2-50.7,63.2-42.3,46.5-108.4
				c-15.1-39-54.5,15.7-55.2,37.2c-8.8,45.7,19.8,29.5,1.3,60.9c-3.2-2.8-7.3-5.1-9.3-8.6c-11.6-20.7-28.9-36.8-43.2-55.4
				c-4.4-5.7-15.6-9.2-11.1-19.2c7.8-26.9,17.4-15.9,31.9-36.8c14.2-18,31.1-57.1,13.4-76.9c-3.5-3.1-8.1-0.6-11.4,1.3
				c-27,16-48,43-37.4,74.8c3.4,11.4,1.4,18.7-2.5,28c-2.9,6.8-5,3.8-8,0.8c-20.3-19.7-41.7-38.2-65-54.4c-1.6-1.1-4.7-2.3-2.9-4.7
				c4.1-5.7,0.6-10.7-1.5-15c-15.8-32.3-43.2-46.2-73.2-47.8c-45.6,0.5-12.7,42.7,4.8,55.6c14,10.1,29.4,17.2,46.6,19.6
				c7.5,1.1,17-1.6,22.4,2.1c45.8,32.6,85.9,74.3,118.2,120.2c-4.5,1.8-8.9-1.9-12.7-1.2c-33.4,4.8-40.2-29-79.7-25.8
				c-8.3-0.3-16.8,3.2-25,5.7c-17.8,3.3-28.4,17.7-14.2,33.1c17.8,18.6,55.2,23.6,78.1,12.1c8.4-4.2,15.7-14,22.9-14.2
				c19-0.8,39.3-4.6,52.5,18.6c11.8,20.7,26,40.4,37.9,61.3c0.7,1.3,0.8,3.6-1.5,2.9c-22.4-2.2-17.6-17.1-39.3-23.5
				c-15.1-7.9-97.7-12.6-70.9,20.6c17.2,19.5,46.3,25.7,71.3,21.3c8.3-2.2,15.7-3.7,22.6-11.1c30.3-7.8,39.8,34.4,52.1,54.3
				c4.5,6.7,19.2,44.9,26.3,41.8C977.3,1140.8,977.4,1138.4,976,1136z M925.4,861c7.6,25.2,8.3,48-19.9,70
				C912.1,907.8,918.6,885,925.4,861L925.4,861z M915.3,862.5l-20.9,70.2C887.1,907.7,890.4,896.8,915.3,862.5L915.3,862.5z
				 M861.8,772.1c5.2,20.2-8.3,57.9-25.1,70.8C844.7,818.9,856.2,797.1,861.8,772.1L861.8,772.1z M849.4,780.4c0.9-0.5,2-0.9,3-1.3
				c0,1.3,0.5,2.7,0,3.7c-9.5,19.1-16.2,40.7-27.3,58.5C820.4,815.6,830.7,793.9,849.4,780.4L849.4,780.4z M674.9,797.8
				c-9.2-6.6-20.7-17.5-23.5-28.3c24.1,13.7,48.4,27.3,71.8,46.1C705,812.1,689.2,807.1,674.9,797.8z M674.1,771.3
				c-6.2-4.2-13.3-7-19.9-10.5c-0.5-0.3-0.7-1.2-1-1.9c33.6-2.8,68.3,19.2,78.1,52.9C713.9,793.8,693,784,674.1,771.3L674.1,771.3z
				 M803.9,943.3c-27-2-52.6-3-78.4-3.2C751.5,926.6,777.3,923.8,803.9,943.3L803.9,943.3z M795.8,960c-24.4,9.6-45.2,9.8-66.1-8.6
				c25.5-0.9,51.4,1,75.2,4.1C801.9,956.9,799,958.7,795.8,960L795.8,960z M882.5,1031.6c-24.6-2.4-45.7-9.6-67.8-9.2
				C837.3,1016.8,859.3,1018,882.5,1031.6L882.5,1031.6z M828.8,1042.7c-55-26.8,23.6-4.5,38.7-2.6c5.5,1.3,12.2-1.7,16.7,4.2
				C865.5,1048.6,846.9,1049.1,828.8,1042.7z M864.3,568.3c13.8-2.8,26.5-15.1,40.7-15.7c22.7,11.2,48.8,8.1,71.1-3.5
				c35.7-20.8-3-64.6-59.5-23.2c-7.8,5.4-8.9,15.8-17.8,19.1c-12.7,4.8-25.5,9.6-38.4,13.8c-2.6,0.8-5.9,8.7-8.5,1.1
				c-5.9-23.2,0-47.8-5.1-71.4c-0.5-2.6-2.2-7.3,3.2-9.8c10.9-5.3,20.8-12.9,32.1-17.1c8.4-3.1,13.6-12.6,27.2-7.5
				c21.3,9.4,70,0.6,73.6-27.7c-5.1-24.6-39.9-18.5-56.7-10.2c-12.9,5.7-20.5,17.9-31.3,25.9c-13.6,10.1-30,16.3-44.6,25.1
				c-6.5,4-5.1,0.5-5.2-3.4c-0.2-20.6-0.4-41.3-1-61.9c-0.1-4.7-2.6-9.8,3.6-12.2c14.8-5.8,27.3-15.5,41.1-23
				c27-21.8,37.8,11,87.2-20.1c6.9-4,9.3-12.8,5.4-19.7c-0.8-1.4-1.9-2.7-3.1-3.8c-12.8-10.5-34.3-7.4-51.8,1.1
				c-11.3,5.7-16.7,18.4-26.3,25.2c-17.8,12.6-37.8,22-56.4,32.4c1.1-16.5-8-65.7,2.3-76c25.5-13.4,46.1-40.2,77.3-38.3
				c16.3,1.8,61.6-7.7,52.7-30.5c-8.9-27.8-51.2-15.4-66,2.1c-7.8,9.4-9,23.1-22.6,29c-16.4,6.6-29.2,20.7-44.8,28.7
				c0.8-16.9-1-33.9-1.2-50.9c-0.3-11.7,9.7-18.5,13.6-28.3c6.4-18.1,21.7-80.8-11.1-76.6c-39.1,10.8-32.5,61.2-17,88.4
				c2.6,5.9,8.6,10.5,8.6,17.4c-4.8,15.4-0.7,31.4-5.2,46.8c-15.6-13.8-38.5-20.6-48.5-39.7c-11-20.3-30.7-60.3-58.8-49.7
				c-13.2,6.3-12.7,17-8.5,29.9c5,15.4,26.9,29.3,40.2,33.3c10.5,3.2,22.8-1.2,31.4,6.3c9.7,8.4,20.8,14.7,30.2,23.2
				c5,4.4,14.2,5.2,14.5,13.9c0.3,28.7-0.5,57.4,1.8,85.9c-21.4-12.5-44.5-24-57.4-47.9c-5.3-11.8-42.1-50.4-54.5-35.7
				c-26.3,36.7,31.1,60.9,61,65.1c17.2,2.5,29.6,19.1,45.2,27.8c13.5,3.5,5.4,50.2,8.3,63.3c0.9,12.8,2,20.4-12.7,7.8
				c-10.7-9.1-25.7-14.2-34.2-24.7c-12.6-15.6-23-32.4-41.3-42.6c-9.7-5.4-18.8-6.2-27.3,0.1c-20.4,18.6,10.1,42.8,27.8,49.5
				c19.3,9,44.4,0,59.8,19.9c9.3,12,33.2,9,30.5,34.5c-2.1,20.1,3.2,40.9,5,61.5c0.2,2-0.2,2-2.1,0.7c-9.3-5.9-19.1-11-28.3-16.9
				c-4.6-3-10.7-3.9-13.3-9.8c-9.3-20.3-42.4-71.9-66.3-44.2c-13.7,22.8,11.4,44.5,29.7,50.3c16.8,5.3,35.9,1.5,50.9,15.4
				c12.7,11.6,34.5,14.3,33.7,38.1c-0.9,25.4,5.1,50.1,10.6,74.7c-32.9-32.7-74-54.5-112.4-79.9c-6.1-4.1-15.4-4.6-18-12.9
				c-5.1-16.6-10.5-33.3-13.7-50.4c-2.4-12.7-13.3-24.5-2.9-39.5c6.9-10,5.4-23.2,2.8-35.8c0-11.8-34.8-64.3-43.2-41
				c-12.3,29.6-7.7,71.2,20.5,90.5c2.1,1.2,5.2-1.3,6.4,2.9c6.9,21.8,10.8,45.6,19.8,66.2c-0.2,2.3-2.8,0.8-4.6-0.5
				C684,561.5,638,548.6,628,511.7c-2-7.9-10.3-17.4-8-22.6c5.1-11.3,4.9-21.3,3.2-32.6c-1.9-27.6-15-59.7-46.9-61
				c-4.4-0.4-11-1.1-13.6,6.5c-12,33.3,2,71.2,32.3,89.5c5.8,3.6,14.1,0.6,17.5,6.5c4.9,8.6,7.5,18.5,13.8,26.6
				c0.4,0.5,0.2,1.4,0.2,2.1c-49.5-31.6-95.7-68.1-137.8-109.1c-3-3.2-0.1-4.6,0.8-6.2c4.4-7.5,9.2-14.8,13.9-22.2
				c5.5-8.6,9-21.8,16.7-25c18.9-8.1,35.2-18.3,47.1-34.8c15.9-20.2,3.3-48.3-23-35.7c-19.1,7.6-28.2,23.9-31.5,44.1
				c-1.3,7.7,3.4,15.5-2.1,23.3c-8.5,11.8-15.4,24.6-23.9,36.4c-2.6,3.6-4.2,14.9-10.5,8.8c-18.8-18.4-35.4-39-53.4-58.2
				c-4.9-5.2-4.6-7.5,0-12.5c5-5.5,8.1-12.6,12.3-18.9c5.4-7.7,5.9-20.5,15.2-25c22.6-10.3,40.3-24.6,49.7-48
				c3.2-7.9,4.2-16.5-1.2-23.6c-4.9-6.6-13.5-7.1-19.8-4.3c-25,11.1-40.5,30-42,58.4c3.5,23.1-11.4,39.7-22,58.5
				c-1.6,2.8-2.4,3.2-4.7,0.3c-10.1-12.9-20.7-25.4-30.7-38.4c-5.3-6.9-13.1-14.2-13.8-21.9c-0.5-24.3-21.7-84.6-52.4-77
				c-10.2,3.7-9.7,15.1-10.6,25c-1.3,14.4,11.1,36.5,22.7,45.2c11.1,8.4,27.2,6.1,35.7,19.8c10.6,17,23.1,32.8,35.3,49.8
				c-13.3-2.4-25.9,6.5-39.1-0.3c-19.4-9.9-39.8-17.4-61.5-19.8c-28.7-7.4-42.2,25.9-20,42.9c22,16.1,46.9,13.8,70.4,4.3
				c14.1-5.7,24.8-19.8,42.6-15.5c5.6-2.1,14.3-2.1,18.3,1.8c49.1,54.3,98.8,109.6,159.3,151.3c-19.3,2.7-37.1,19.6-57.2,5.2
				c-4.6-3.5-13.4-2.6-15.5-8.1c-3.8-10.1-11.1-17.5-17.2-25.5c-10.2-17.3-69.9-45.8-73-12.9c7.4,32.4,47.1,62.2,81.6,54.9
				c3.7-0.8,4.7-6.2,9.6-3.8c6.5,3.2,13.4,5.5,20.3,8.2c-9.5,3.8-18.9,7.5-28.2,11.4c-8.5,3.6-18.4,12.3-25.1,10.3
				c-37.5-12.3-81.1,7.1-98.3,41.9c-13.5,27.6,14.2,32,34,25.1c23.6-5.8,41.9-19.9,58.4-37.1c6.3-6.6,6.6-17.1,12.5-21.7
				c26.3-15.9,58.1-23.4,85.8-36.8c12.5-5.6,22.9-6.5,33.8,3.9c15.7,16.7,37.6,24.9,55,39.4c-4.3,4.6-10.5,1.5-15.7,3.8
				c-11.8,2.3-25.6,9.5-34.8,5.7c-17.4-7.2-34-9.8-52-7.4c-18.9,2.4-36,8.2-47,25.2c-8.3,12.8-5.8,28.8,5.6,32.8
				c34.5,9.1,72.6-8.5,96.8-33.2c1-1.1,1.8-3.6,1.2-4.7c-2.7-5.1,1.4-4.7,4.1-5.3c9.9-2.3,19.8-5,29.7-7c8.5-1.8,15.8-7.7,25.3-1.6
				c25.9,17.1,52.4,33.2,78.7,49.7c-1.8,0.6-3.6,1.8-5.5,1.9c-10.2,0.3-20,7.7-30.3,3.3c-18.1-7.8-37.5-9.3-56.2-7.7
				c-15.5,1.3-32.2,7-40.1,23.3c-3.7,7.6-11.6,15.6-5.5,25c20.3,18.5,63.5,7.3,86.3-5.3c22.9-10.4,10.7-21.3,19.2-23.7
				c8-1.7,15.8-4.1,23.8-5.8c6.7-1.5,15.1-5.5,19.8-3c44.7,25.1,86.5,55.2,124.5,89.6c-21.5-1.5-41.9,0.2-61.2-11.4
				c-28.6-14-65.5-17.4-90.5,5.7c-4.3,4-9.1,8.3-6.4,15.1c10.5,25.8,82.3,25.4,102.8,12.5c12.5-7.3,23.9-20.1,39.8-14.7
				c16.4-1.5,28.1,4.3,38.5,18.3c16.3,22,33.3,43.3,46.5,67.5c9.3,16.9,17.8,34,24.5,52c2.1,5.5,4.8,13.3,9.7,11.8
				c6.9-1.7-0.3-7.6-1.3-11c-7.5-27.1-19.1-52.8-34.5-76.3c-11.2-17-24.7-32.2-13.6-54.4c2.7-5.5,1.9-14.7,5.9-17.2
				c14.1-8.9,23.2-21.9,31.9-35c11.6-18.3,22.1-43.9,13.2-65c-4.5-10.8-12.4-9.5-21.4-3.1c-31.5,18.6-52.8,55-44.1,92.1
				c1.5,5.5,7.6,9,6.9,13.7c-1.3,9.9-4.8,19.5-7.4,29.4c-8.3-10-16.4-20.1-24.8-29.9c-5.8-6.7-15-12-17.4-19.6
				c-5-15.1-8-30.8-9-46.7c-0.9-17.3-3.6-34.6-5-51.9C853.1,582.2,849.6,572,864.3,568.3L864.3,568.3z M916.3,537.3
				c13.2-9,26.3-18.8,44.7-18.2c10.5-0.7,20.2,2.4,17.3,15.2c-2,8.5-12.4,9.6-19.6,12.3c-13.9,5.2-29.1,5.3-43.1,0.5
				C905.6,543.4,915.4,537.9,916.3,537.3L916.3,537.3z M909.5,438.1c11.8-11.9,26.8-18,42.7-20.4c17.9-3.2,28.5,15.4,7.7,22.2
				c-9.1,3.7-18.1,8.5-27.8,7.1C927.5,447.4,898.7,444.4,909.5,438.1L909.5,438.1z M963.6,327.1c3.8,0.3,9.1,1.5,9,6
				c-0.1,8-8.5,9-13.6,11.4c-14.4,6.8-30.5,8.7-46.1,4.2C925.7,330.7,943.3,325.4,963.6,327.1L963.6,327.1z M910.2,255
				c8.6-17.8,24.7-24.1,42.5-25.4c13.6-0.7,21,18.4,5.5,22c-14.3,7.6-30.2,6.9-45.7,8.2C909.3,260.1,908.7,258,910.2,255z
				 M831.8,224.1c-2.2-17.5-12.5-33.9-6.9-52.4c3.4-11.2,10.7-19.2,22-20c7-0.5,7.5,7.6,6.9,12.7c-0.6,23.3-2.2,46.4-17.4,64.4
				C834.8,227.2,832.1,225.9,831.8,224.1L831.8,224.1z M772.4,262.1c-18.8-1.2-38.9-11.5-48.5-29.1c-5.5-9.8-1.8-19.6,11.5-20.1
				c11,1.9,17.9,13.4,25.5,23.7C763.9,242.2,775.6,256.6,772.4,262.1z M778.3,371.5c-18.4-3.7-57.5-20.7-55.3-43.4
				c1.4-6.7,3.3-14.5,14.2-6.9C754.2,334.3,771.1,351.7,778.3,371.5L778.3,371.5z M774.7,456.4c-16.6-3.4-33.5-6.5-45.5-20.1
				c-6.9-6.4-8.5-21.2,5-21.3c18.3,6.3,35.8,22.7,43.2,41.1C776.6,456.3,775.6,456.4,774.7,456.4L774.7,456.4z M782.7,549.9
				c-50.9-4.5-52.7-53.9-27.9-41.9c15.5,9.6,24.7,24.7,33.7,39.8C789.9,549.9,788.6,550.9,782.7,549.9L782.7,549.9z M675.9,430.7
				c5.6,26.3,11,51.2,19,75.6C681.1,496.6,667.3,467.6,675.9,430.7z M701.9,498.2c-5.3-21.6-10.3-41.7-15.6-63.2
				C703.1,453.8,710.1,473.4,701.9,498.2L701.9,498.2z M570.6,436.2c0-7.5-4-16.8,0.9-23c1,0.9,2.5,1.6,3.1,2.8
				c10.7,23.9,23,45.2,31.6,70.2C588.5,472.4,573.6,458.9,570.6,436.2L570.6,436.2z M613.1,477.6c-9.6-24.9-22.3-48.4-34.3-72.2
				c32.8,5.9,32.5,45.4,36,71.9L613.1,477.6z M521.1,343.9c0-19.6,11.7-36.1,30.2-42.3c3.4-1.1,7.9-2.2,10.8,1.1
				c10.9,19-21.3,42.1-36.8,47.9C516.5,354.2,523.8,345.2,521.1,343.9z M485.8,225.3c1.2-0.3,3.9,0.9,4,1.7
				c0.6,4.1,2.1,8.9,0.6,12.5c-8,21.9-25.2,33.6-45.1,43.8C443.9,257,459.7,231.1,485.8,225.3z M351.4,267.1
				c-26.3-9.5-38.3-24-38.3-47.4c-0.5-4.7-0.4-12.3,3.7-13.9c5.9-2.4,11,3.5,15.3,8.1c13.6,14.3,19.8,31.9,22.9,50.9
				C355.5,267.9,354.8,268.3,351.4,267.1z M352.5,348.6c-21.8,12.5-51.7,16.3-71.4-0.3c-5.4-5-5.1-11.3-3.5-16.9
				c2-7.3,9.5-4.9,14.5-4.9c21.6-0.3,40.3,10.5,60.2,16.9C355.4,344.3,355,347.3,352.5,348.6z M440.9,457.2
				c14.9,6.4,28.7,16.2,35.6,31.5c-23.7-8.5-41.3-27.3-65.8-35.4C421,451.6,431.5,452.9,440.9,457.2z M411.3,458.6
				c23.3,17.5,45.9,32.9,71.5,45.5C460.1,506.6,419.4,488.4,411.3,458.6z M370.1,599c0.9-36.3,47.8-56.3,83.5-54.4
				C421.1,559.6,392.5,574.5,370.1,599z M454.4,556.5c-20.2,24.5-44.3,40.1-76.3,46.5c23.8-22.7,48.5-36.3,76.5-49.3
				C454.6,554.6,454.9,555.9,454.4,556.5L454.4,556.5z M497.7,594.7c13.1-31.7,50.2-29.8,81.2-26.9C546.2,573,525,583.4,497.7,594.7
				L497.7,594.7z M552.4,598.7c-16.4,6.8-34.2,10.9-52,7c28.5-17.4,56.5-23,89.8-33.4C577.9,585.5,565.9,593.2,552.4,598.7
				L552.4,598.7z M678.3,621.5c2.3,0.5,6.9-2.2,6.8,2.2c0,3-4.1,0.7-6.3,1.5c-25,8.3-50.4,17.2-74.8,26.9
				C619.6,621.4,639.3,613,678.3,621.5L678.3,621.5z M686.7,638.4c-21.2,16.6-48.3,22.6-75.1,19.9c24.5-8.5,48.1-16.7,71.7-24.8
				c1.6-0.5,3.7,0.3,5.5,0.5C688.1,635.5,687.8,637.4,686.7,638.4L686.7,638.4z M750.3,699.2c16.4-4.6,32.1,2.1,48.1,4.1
				c0.8,0.1,1.4,1.2,2,1.8c-23.1,4-48-0.5-71.5,3.9c0-0.5-0.1-1.1-0.1-1.7C736,704.6,742.9,701.3,750.3,699.2L750.3,699.2z
				 M818.4,719c-31.1,18.5-62.5,14-95.3,1.2c23.3-5.1,45.5-1.8,67.5-3.9c10-0.6,20.8-3.2,30.2,1.1C820,718,819.2,718.5,818.4,719z
				 M968.1,608.7c5.4,35-11.6,59.3-33.1,83C942.9,662.5,956.5,636.8,968.1,608.7z M958.6,611.7c-15,28.7-27.8,55.6-36.9,85.7
				C913.8,660.2,929.8,634.7,958.6,611.7L958.6,611.7z M972.5,1591.5c-9.9-9-19.9-18-30.4-26.3c-8.6-6.9-14-14.1-13.4-26.3
				c0.5-11.9-3.4-23.9-3.2-35.8c0.2-7.6-6.9-16.6,3.4-23.3c25.1-18.2,17.7-89.7-11.4-101.2c-17.2-2.2-25.4,29.1-27,42.9
				c-3.2,22.9-3.3,44.1,15.2,61.3c3.3,3,9.2,7.3,8.6,9.8c-0.8,17.1,2.2,33.2,4,50.2c-20.9-14.2-40.8-30.4-61.3-45.5
				c-2.1-1.6-6.5-1.5-5.7-5.6c1.9-9.5-1.6-18.1-3.6-27c-1.4-6.3-6-15.9-3.6-18.2c7.7-7.3,9.4-15.7,8.9-24.9
				c-1.2-20,0.2-41.2-19.2-54.7c-5.7-3.9-11.1-9.5-19-1.2c-20.8,20.2-26.6,76.3,8.7,83.4c4.1,0.7,9.6,3.7,11,7.1
				c0.9,2.7,12.6,34,5.9,30.1c-28.2-19.7-59.9-33.2-89-51.5c-8.7-5.2-20.3-5.5-26.8-13.9c-20.1-26.2-46.6-39.2-80.3-38
				c-49.6,3.4-2.6,51.4,21,58.2c18.5,7.4,37.1,2.7,55.7-2.2c9.3-1.5,18.6-0.9,28,4.9c40.2,23,80.5,45.6,117.5,73.7
				c-9-1.2-24.9,3.5-30.6-2.6c-16.5-24.8-57.6-33.2-81.9-17.7c-18.1,8.2-16.8,22.8-0.2,32c21.6,14.6,45.2,17.4,69.2,9
				c8-2.3,11.6-12.6,21-10.3c9.6,2.4,19.2,1.1,28.8,1c4-0.1,7.7-2,11.5,1.1c27.9,20.2,55.4,40.9,79.9,65.3
				C968,1600.4,980.3,1597.7,972.5,1591.5L972.5,1591.5z M909.6,1473.7c-16.8-16.7-15.4-53.4,0-83.8V1473.7z M630.3,1391.9
				c30.7-3.6,54.7,4,77.5,23.4c-26.3-10-51.3-18-78.8-23.3L630.3,1391.9z M720.2,1433.2c-27.4,2.9-71.7-1.2-83-29.3
				c20.3-1.6,64.7,17.3,84.1,29.2L720.2,1433.2z M830.6,1442.6c-26-10.4-27.8-44-14.1-67.9C821.2,1399.3,827.4,1419,830.6,1442.6
				L830.6,1442.6z M840.2,1436.1c-5.4-21.2-10.9-43-16.4-64.8C841.5,1387.6,848.3,1415.4,840.2,1436.1L840.2,1436.1z M808.9,1531.1
				c-19.2,5.5-35.7-1.2-51.6-11.4c18,3.8,36.2,4.6,54.3,7.1c2.8,0.4,6.2-3.2,8.4,1.1C816.3,1528.8,812.6,1529.9,808.9,1531.1
				L808.9,1531.1z M752.6,1508.8c21.1-14.1,49.5-14.8,74.7,8c-25.3-1-49.9-3.2-74.7-8.1V1508.8z M921.1,1463.2
				c-2.7-26.4-6.4-51.6-5.2-78.4c20.8,22,26.2,64.3,6.8,88.2c-3.2-2.9-1.2-6.6-1.5-9.9V1463.2z M854.5,1356.8
				c28.2,15.2,71.6,9.8,96-13.3c4.3-4,5.4-12.3,14.3-11.2c1.4,0.2,7.2-5.3,3.3-6.2c-9-2.1-14.6-8.5-21.9-12.5
				c-18.5-9.4-43.2-11.8-62-2.8c-11.4,4.7-50.2,34.3-29.8,45.9V1356.8z M869.8,1332.8c18.3-20,50.5-26.4,73-9.9l-1.6,1
				c-25.7-0.9-48.9,4-72,10.7c0.2-0.7,0.2-1.5,0.6-1.9L869.8,1332.8z M864.6,1347.2c26.3-10.2,52-13.2,81.1-11.9
				c-23.4,18.3-56,25.5-82.9,14c0.6-0.9,1-2,1.8-2.2L864.6,1347.2z M421.1,858.7c-14.4,7.4-27.3,10.2-43.1,14
				c14.9-0.5,25.9,6.3,39,1.5c12.9-4.7,26.8-7,40.5-8.8c8-1.1,15.9-6.1,24.4-2.4c-17.4,11.2-37.4,13.5-56.5,18.7
				c6.5,5.2,17.7,7.2,42.5,5.2c14.7-1.2,28.3-9.7,45.7-7.7c-15.9,7.5-30.1,13.3-44.5,16.5c25.1,17.2,52.5-8.6,78.6-5.5
				c-8.3,13.1-29.6,13.4-43.9,18c41.7,20.8,47.6-3.6,83.1,0.5c-10.8,9.2-27.5,11-40.7,15.5c35.5,28.1,58.6-1.8,92.1,2.7
				c0.4,4.2-4.1,5.4-6.4,5.9c-15,3.1-29,10.1-44.8,10.6c26.5,27.5,58.6,0.6,90.8,6.7c-17.6,8.2-34.9,11.2-52.8,13.3
				c13,12.4,27.6,10.5,43.1,8c12.7-2,25.8-1.5,38.7-2.1c0.4,0,0.9,0.7,1.4,1.1c-13,10.2-37.8,8.6-56.3,11.7
				c33.4,15.2,67,1.8,98.6,11.8c-14.8,6-29.4,5.3-44,5.4c-6.4,0.7-13.9-2-19.4,2c22.3,28.3,57.9,8.8,86.8,17.7
				c-16.5,8-37.3,5.7-55.1,6.2c21.8,25.9,53.8,15.6,80.2,23.9c-7.1,6.8-33.8,0.8-45.6,2.3c8.6,14.2,22.3,18.3,37.3,17.4
				c12.5-0.7,24.5,5.3,37.1,2.5c0.3-0.1,1,1.7,1.4,2.6c-13.9,7.3-29.5,2.4-44.1,2.9c-1.5,0-3-1-3.7,0.8c18.6,24.3,51.1,10.6,74.4,24
				c-7.7,6-18.2,3.1-27.1,2.3c-6.7-0.9-13.7,1.2-20.3-2.1c11.1,8.7,15.2,25.3,35,23.9c13.8-1,28.1,4.4,42.8,7
				c-15.8,9.8-31.5-0.5-46.6,2.9c14.7,28.5,53.4,16.2,74.2,38.4l-52.3-10.2c14.9,26.6,51,18.5,68.3,39.4
				c-14.5-2.1-29.5-5.2-43.1-11.4c-0.9-0.4-2.2-0.2-3.3-0.2c7.2,14.8,19.8,26.7,24.2,43.3c0.4,1.2,1.5,2,0.1,3.3
				c-8.8,3.5-20.5-23.3-26-29.2c-57.4-69.4-118.9-136.8-193.7-187.7c-126.4-91.4-278.7-135.9-431-160.3c-6.4-2-20.4-6.7-18.3-11
				c1.5-3,4.4-3.9,6.8-2.8c15.1,6.5,31.5,7.4,47.3,9.3c21.8,2.6,43.1,9.3,64.8,9.8C379.8,867.1,398,857.2,421.1,858.7z M881,1251.4
				c-3.6-5.8-12-11.9-10.3-19.3c6.2,1.7,10,8.4,15.1,12.2c6.9,7,15.3,13,21.3,20.7C903.3,1277.2,885,1255.6,881,1251.4z
				 M867.2,1258.2c8.6,6.5,18.2,12,25.9,19.4c-6.7,11.4-18.8-5-24.6-9.9c-2.8-3.2-5.9-6-5.3-10.8
				C864.6,1257.4,866.2,1257.5,867.2,1258.2L867.2,1258.2z M859.3,1278.5c4.5,5.3,8.7,10.8,14.3,14.6c0.6,0.4,0.7,2.6,0.6,2.7
				c-2.1,0.8-4.4,2.3-6.4,2c-8.4-2.2-28.6-27.1-29.3-34.5C847.9,1265.7,853.8,1272,859.3,1278.5L859.3,1278.5z M820,1288.6
				c4.7-3.5,8.4,3.9,12.8,6.4c4.8,2.8,23.8,19.7,11.8,22.6c-8.6-3.2-11.1-11.6-17.3-17.1C823.7,1297.4,817.6,1290.4,820,1288.6z
				 M823,1214c-15.3-20.8-34.8-39.5-47.4-61.9l2.8-0.7c21.6,13.8,34.2,36.8,50.1,56.2c1.7,2.2,4.1,4.6,0.5,7.7
				C826.2,1218,824.4,1215.7,823,1214L823,1214z M821.6,1610.1c-43.9-35.9-96.4-59.8-145.6-87.3c-15.1-9.7-37-8.1-46.3-26.6
				c-6.5-13-22.5-22.3-16.9-40.6c0.4-15.8-6.7-31.4-15.5-44.8c-7.4-10.3-25.1-19.3-32.7-15.2c-8.2,8.5-10.7,21.8-8.3,33.8
				c10.8,52,47.2,34.4,60.5,66.9c-18.6-3.6-37.7-12.5-56-18.5c-17.8-7-36.8-9.4-54-17.1c-6-2.7-14.5-0.5-17.8-8.6
				c-3.2-8-6.7-15.8-9.2-24c-1.9-6.3-8.7-11.5-6.5-18.1c8.3-21.2,16-69.5-15-74.7c-21.5-1.2-28.9,23.5-22.7,43.1
				c4.1,13,13.5,21.5,22.4,31.4c9.6,10.6,14.1,25.8,20.6,39.2c1.8,3.5,0.9,4.6-3.4,3.7c-23.3-5.6-48.1-7.5-70.7-14.8
				c-5.9-2.8-13.1-38.9-11.1-45.4c5.8-19,3.4-37.5-7.1-54.1c-24.5-27.2-50.2,15-23.6,47.1c11.5,16.2,28.4,28.6,29.2,51
				c-14.7-2-29.6-4-43.9-7.8c-8.3-2.3-19.3,2.7-24.7-7.9c-4.3-8.6-11-17.1-11.8-26c-3.7-20.9,6.3-53.8-14.3-67.2
				c-5.5-2.7-2.4-3-0.5-5.1c23.1-16.1,8.1-42.8-3.1-60.9c-9.2-15.4-20.6-30.2-32.7-43.7c-2.8,10.1,11.9,29.4,18.5,37.4
				c6.6,7.3,8.6,13.3,0.4,21.9c-7.2,7.5-16.1,10-24.9,12.8c-21.3,9.3-13.6-21.7-28.6-20.8c-4.9,2,0.6,9.2,1.4,12.7
				c4.4,12.8,9.7,25.4,12.6,38.5c4.1,25.8,22.7,14.3,20,22.4c-11.8,40.5,46,46.1,51,80.3c-22.1,0.9-45.1-6-67.3-5.4
				c-37.9-2.1-26.4-32.8-20.3-57.9c2.7-17.1-1.8-31.5-12-44.5c-4.4-5.6-12.7-6-17.6-9.6c-9.3-7-16.4-16.6-19.3-28.2
				c-6.5-15.5-14.1,15.9,15.6,32.9c-15.1-3-7.7,17.1-25.4-13.5c-1.8-3.2-1.6-9.9-6.1-8.1c-4.1,2-0.8,11.8,2.1,15.2
				c8.9,11.8,15.2,26,12.9,40.8c-9.9-10.4-16.6-23.8-25.4-35.3c-1.1-1.5-3.4-2.2-5.1-3.3c-1.9,8.8,13.9,30.7,20.9,36.6
				c19.4,19,42,37.1,47.8,65.4c0.3,2.2,5.2,7.5,0.1,7.7c-16.9,0.6-33.9-0.4-50.9-0.7c-18.6,1.7-36.1,1.8-54-4.2
				c-26-6.8-77.1,5.3-71.3,39.4c10,36,56,11.4,75.7-3.2c9-6.7,11.5-20.7,27.6-19.9c26.9,1.2,54-1.6,83.3,2.5
				c-13.6,5.4-19,19.5-34.1,20c-9.1,0.3-18.1,4.1-27.2,6.2c-14.2,3.2-23.8,13.7-34.6,22.2c-11.2,8.8-10.2,23.8,1.3,32
				c28.1,17.1,62.3-8.3,75.1-33.9c5.8-11.5,3.1-26.5,17.4-35.1c10-6,18.9-11.9,30.7-10.8c37.3,3.7,69.2,7.1,107.4,13.3
				c-13.9,6.4-19.8,19.5-34.5,19.8c-24.6,4.9-63.7,13.4-74.3,38.4c-5.3,14.9,7.6,29.8,24.2,29.1c26.9-1.1,44-18.9,56.1-39.8
				c9.2-14.7,25-43.7,43.1-45.6c31.9,7.7,65.4,12.2,97.2,18.1c-13,9-24.6,20.1-43.1,20c-24.2-2.6-87.6,27.9-51,54.8
				c26.3,14.4,63.7-8.2,74.6-32.7c3.1-9,3.5-19.5,13.2-25.2c19.8-16.2,22.2-14.1,45.2-5.3c36.5,9.7,72.2,20.3,107.1,35
				c-29.8,20.3-39.8,7.8-70.4,10.5c-18.8,3.3-35,10-48.1,23.9c-14.4,15.7-6.6,27.1,13,28.5c23.6,5.3,49.9-3.1,67.8-19
				c9.4-10,12.5-25.7,29.1-29.1c7.9-1.6,17-10.6,22.5-8.4c66.3,25,126.8,62.3,187.5,98.5C822.7,1620.1,827.1,1614.6,821.6,1610.1
				L821.6,1610.1z M596.5,1464.6c-20.5-7.4-38.4-31.8-30.4-57.5C573.9,1427.8,588.1,1445.5,596.5,1464.6z M604,1456.7
				c-11-18.4-21.8-36.7-32.6-54.8C588.1,1403.2,606.7,1439.1,604,1456.7z M468.9,1397.9c-5.7,20.1-29.4-24.8-25.3-36.8
				c1.7-4.6,2.1-14.5,11.8-15.6C475.1,1343.7,471.7,1385.5,468.9,1397.9z M384.8,1394.9c0.1,3.3-1.9,2.1-3.6,0.9
				c-12.1-8.4-21.7-34.5-18.3-48.7c2.8-13,18-7.6,19.6,2.4c2.5,9.2,3.5,18.8,5.2,28.2C388.8,1383.9,384.6,1389.1,384.8,1394.9
				L384.8,1394.9z M282.3,1291.1c0.3-4.5,5.5-9.7,9.8-12.5c2.3-1.5,2,4.2,3.2,6.4c3,5.1,3.9,10.5,4.3,18.7
				c-0.3,4.3-5.3,7.9-10.1,11.3c-2.5,1.8-1.9-2-2.2-2.8C285.2,1305.2,281.9,1298.1,282.3,1291.1z M256.5,1330.9
				c-9.9,3.4-2.1-15-9-28.2c-3.8-7.1,15.3-0.9,24.2-7.3c6-3.1,4,3.7,4.9,5.8C283.8,1317.1,274.6,1331,256.5,1330.9L256.5,1330.9z
				 M302.5,1386.9c-3.2,11.7-34.6-29-31.3-35.6c0.3-7.8,3.4-15.9,12-15.6c8,0.2,15.6,3.3,16.4,15.1c0.5,7.7-0.7,16.3,4,23.3
				C301.6,1378.6,301,1382.7,302.5,1386.9L302.5,1386.9z M114.9,1430.2c-11.2,10.7-55.2,41.9-65.9,18c-3.8-11.8,4.3-16.8,12.4-20.7
				c17.4-7.4,40.2-12.7,57.1-2C117.4,1427.1,116.2,1428.7,114.9,1430.2L114.9,1430.2z M210.8,1378.7c0.2,2.2-1.5,1-2.2,0.2
				c-13.2-13.9-22.9-29.9-24.6-49.3c-1-17.5,23.9-15.1,26.1-0.7c1.4,7.9,7.8,15,4.5,23.5C217.4,1361.9,209.9,1369.6,210.8,1378.7
				L210.8,1378.7z M198.8,1461.7c-15.9,56.5-100.5,48.9-54.9,15.7c15-12.4,34.2-14.7,52.3-19.3
				C198.9,1457.4,199.3,1459.9,198.8,1461.7L198.8,1461.7z M283.8,1519.2c-8.9,3-17.3,1.2-22.9-6.1c-6.3-8.3,1.4-14.4,6.3-18.6
				c18.1-15.4,41.1-17.5,64-21.6C320,1494,306.5,1511.5,283.8,1519.2L283.8,1519.2z M446.1,1497.2c-24.7,55-100.2,36.2-58.8,9.3
				c16.2-11.2,35.5-13.2,54-17.1C445.9,1488.4,448.5,1492.2,446.1,1497.2L446.1,1497.2z M566.4,1529.9l-63.1,24.9
				C509,1538.7,547.5,1526.4,566.4,1529.9L566.4,1529.9z M501.1,1562.3l77.2-27C569.9,1559.5,524.7,1573.6,501.1,1562.3
				L501.1,1562.3z M789.9,1302.2c-1.4-3.1-0.6-3.4,3.2-3.2c8.1,5.3,15.3,12.1,21.1,19.9c3.5,3.5,9,5.5,8.5,12.1
				c0.6,3.6-3.4,4.4-5.6,3.2c-3.3-3.5-6.7-6.7-10.2-10.1C800.4,1317.6,794,1310.9,789.9,1302.2L789.9,1302.2z M782.4,1198.3
				c8.2,8.8,13.4,20.3,20.7,29.9c-1.9,3.1-3,6.6-6.7,3c-12.7-11.6-21.1-26.5-31.5-40c-3.3-5-7.1-10.1-8.7-16
				C769.1,1176.3,774.7,1190.2,782.4,1198.3L782.4,1198.3z M775,1327c-1.7-2.1-1.5-5.7-2.5-9.7c10.8,8.2,20.4,17.9,28.3,28.9
				c1.7,4.4-2.6,6-5.6,4C788.3,1342.7,781.4,1335,775,1327z M772.5,1241.6c-0.6-6.9-50-55.7-26.2-47.2c3.3,1.1,7.5,6.6,11.7,12.5
				c7.3,10.2,16.5,19,21.9,30.6C782.7,1243.9,775.2,1248.5,772.5,1241.6L772.5,1241.6z M771.3,1356.5c-0.8,1.9,0.8,4-1.8,4.6
				c-5.8,1.1-7.6-5.5-10.5-9c-5.5-9-13.5-16.8-15-27.6c3.7,0.3,5.5,3.1,7.6,5.5C758.9,1338.3,768,1345.5,771.3,1356.5L771.3,1356.5z
				 M762.3,1122.9c5.1,4.4-2,10.5-5.8,5.1c-14-16-30.6-29.3-46.4-43.4c-4.1-3.7-10.5-5-11.6-13.4
				C726.6,1081.2,744.4,1102.1,762.3,1122.9L762.3,1122.9z M754.5,1251c2.5,8.3-4.6,10.6-7.2,5.3c-2.3-9.8-30-38.4-24.4-42.3
				C730.8,1207.7,752.8,1246.6,754.5,1251z M737,1361.8c-7.9-10.1-16.6-24.3-16.8-28.6c2-8.3,29.5,29.9,32.3,33.6
				c1.2,2.4-1.2,7-4.6,5.9C745.8,1372.1,741.5,1367.6,737,1361.8z M688.9,1092.3c7.2,5.3,58.9,43.2,46.9,50.9
				c-2.1,2-3.9-0.1-5.3-1.5c-15-16-32.6-30.1-45.4-47.9L688.9,1092.3z M711.3,1239.3c3.5-3.7,5.9,1.5,7.8,3.2
				c2.7,2.4,18.6,20.1,7.3,18.2C721.9,1260.7,708.8,1241.9,711.3,1239.3L711.3,1239.3z M707.1,1158c-10.4-14.2-25.5-23.5-36.7-36.8
				c4.6-10.7,42.8,27.2,44.7,34.3C713.1,1159.9,710.6,1164.1,707.1,1158z M711.9,1358.4c1.3-1.2-4.3-7.8-8.1-11.1
				c-31.1-27.1-61.1-55.3-94.6-79.6c-72.9-49.8-158.4-75.6-238.8-110.4c-13.2-5-26.6-9.7-39.9-14.4c-7.9-2.8-16.7-3.4-23.5-9.1
				c-32.1-27.1-57.2-62.7-69-103.1c-16.1-41.5,13.1-59.7,0.6-74.8c-22.8-24.9-41.2-55.1-44.7-89.6c-0.1-1.8-1-4.5-3.2-2.2
				c-26,29.7-9.4,74.8,5.8,106.2c17.5,25.2,27.9,18.9,28.8,55.8c9.1,29.5,21,57.5,42.2,80.7c1,1.2,2.6,2.3,0.8,3.5
				c-29-17.7-51.7-49-70-78.5c-26.4-46.5-44.1-97.4-60.8-148.1c-1.3-3.8-6.9-7.9-3-11.8c17.6-19.6,31.3-44.8,31.7-71.3
				c-0.2-4.1-0.1-8,2.2-11.4c16-23.8,26.1-49.4,24.6-78.5c-0.3-5.1-2.2-13.5-7.4-12.9c-5.7,0.7-2.2,7.2-0.6,11.3
				c-1.3,26.2-8.2,51.1-23.2,73.3c-0.5-3-4.5-4-2.8-8.3c3.7-9,6.1-18.4,6.1-28.3c-0.5-7.8,2.9-27.1-8.3-27.8
				c-0.7,0.1-1.8,2.2-1.6,2.8c7.6,16.4-0.7,31.7-3,50.6c-3.8-15.4-2.7-25-11.2-36.7c-2.8-4.6-8.7-12.6-14.6-8.3
				c0.1,4.7,3.4,7.8,5.8,11.5c6.7,10.3,7.9,22.6,10.5,34.3c1.4,6.5-7.4,3.8-10.6,7.7c-14,16.6-16.4,36.6-18.6,56.7
				s13.2,34.8,17.1,53.3c8.4,35.7,23.7,69.5,36.4,103.8c13.1,24.2,23,49.7,40.6,70.7c4,5,0.9,6.8-2,8c-19.1,5.2-41.2,1.8-53.4,22
				c-5.3,8.6-9.4,17.2-7.9,27.3c4,24.4,30.9,46,29.6,70.5c-23.7,62.8-91,48.7-74.2,111c10.6,54.9-35.3,65.7-18.7,80.8
				c14,12.4,42.9,16.7,60.3,10.7c14.5-5.7,17-20.5,21.8-33.1c2.3-4.5,4.9-10.8-3.7-10.6c-8.6,0-17.1-2.3-24.6-6.5
				c-9.7-5.2-22.7-8.4-21.7-22.3c2.6-40.6-17.7-42.4,25.1-67.8c30.5-22.2,51.6-55,59.2-92c1.9-10.5,4.5-21.8,13.9-28.8
				c10.1-7.5,22.6-8.3,34.4-10.5c8-1.5,16.3-3.8,23,4.3c13.3,18.5,33.6,10.2,37,26.6c3.1,14.7,4.9,34.6,19.8,42.2
				c3-9.2-8.3-26.7-10.1-37.4c-0.8-2.9-4.5-6.5-1.4-9.5c2.9-2.3,20.2,7.8,18.9,12.5c0.2,12.8,6.9,23.4,12.5,34.4
				c1,2,5.4,2.4,8.3,3.5c-1.4-10.3-8-19.7-10.3-30c-0.4-2.6-5.8-9-0.9-9.9c5.9-0.4,16,3.2,17.3,7.3c5.5,13.7,12,51,29.6,51.4
				c-7.1-17.9-15.4-33.9-20.4-53.4c7.6,12,24.4,8,27.9,19c4.5,18.2,14.4,33.7,25,48.9c3.4,4.2,8.6,2.4,5.1-2.6
				c-6.2-13.7-12.5-27.4-18.9-41c-0.9-1.8-1.4-5.3,0.7-4c8.8,5.7,20.8,5.9,26.3,17.3c7.6,15.2,12.2,34.1,28.4,43
				c2.9-6.2-3.3-11.2-5.2-16.9c-4.3-8.5-8.6-17.1-13-25.8c5,1.4,10.6,1.5,14.1,4.3c5.7,4.4,14.9,3.2,17.7,12.6
				c5.2,15.3,12.3,41.9,27.2,49.6c1.9-6.5-3.9-12.6-5.5-18.9c-4.2-10.2-8.3-20.5-11.8-31c3.4,1.1,7.5,1.5,10.1,3.6
				c5.5,4.3,15.4,1.9,17.5,10.2c4.9,19.1,12,36.9,25.5,51.4c0.8,0.9-0.7,4.8,2.5,3c4.8-3-0.5-8.4-1.5-12.2
				c-5.7-13.5-11.4-27-17.2-40.8c29.4,13.5,59,28.7,84.7,48.7c7.5,7.2,4,18.4,7.9,27.3c5,10.9,5.1,25.8,16.5,32.6
				c-1.5-16.3-8.2-33.1-11.4-48.7c37.8,16.7,21.3,54.6,46,78.1c4.3-12.2-8.1-36.3-11.1-50.4c5.2,4.2,9.6,7,13.2,10.7
				c5.3,5.4,13.8,7.3,15.3,17.1c2.3,15.3,9.2,29,18,41.6c2,2.7,6.8,1,5.3-3.1c-4.7-12.1-8.9-23.9-13.5-36.3
				C701.5,1354.1,705.3,1363.5,711.9,1358.4L711.9,1358.4z M222.1,984.8c-16.6-16.9-26.2-38.9-32.4-61.5c-2-7.2,0.8-15.1-3.3-21.9
				c1.4-6,3-6.7,4.6-1.2c10.9,21.5,20.4,43.8,40.6,59.3c4.8,3.7-3.1,9.8-3.8,15.4C227.6,978.4,224.2,981.5,222.1,984.8z
				 M129.9,864.8c-10.3-22.3-6-48.2,4-70c3.1-6.4,7.8-11.1,15.3-9.5C170.9,794.7,140.8,852.6,129.9,864.8L129.9,864.8z
				 M139.3,1362.1c4.3-6.8,10.1-1.7,15.3-0.9c1.4,0.2,1.1,0.5-2.6,6.4c-4.8,9-10.5,18.8-21.3,21.6l-4.8-0.7
				C128.7,1379.1,134.4,1370.6,139.3,1362.1L139.3,1362.1z M120.7,1349.1c20.5,7.4,4.2,15.8-0.1,30.3c-6,9.8-15,4.9-21.9,2.5
				c-25.7-9.3,9-29,11.3-44.4C112.6,1342.9,115.5,1347,120.7,1349.1z M241.8,1112.8c-39.1-2.8-56.7,25.3-59,60.9
				c-6.9-32-48.2-56.9-7.6-81.4c10.2-5.8,23.5-4.8,34-11.2c17.4-10.6,14,12,23.5,14.9c5.4,2.2,10.1,9.6,13.7,14.7
				C244.9,1111.4,243.3,1112.9,241.8,1112.8z M683.6,1178.6c-5.6-5.6-10.1-12.4-15.6-18.2c-2.3-2.4-5.4-5.4-4-7.6
				c2.2-3.5,4,1.5,6.2,2.2c11.8,4.1,18.5,14.6,24.3,24.6C691.2,1189.5,687.2,1184,683.6,1178.6z M690,1057.6c-1.8,1.6-3,5.2-6.7,2
				c-16.1-13.5-32.3-26.9-48.6-40.3c-2-2.4-15.6-9.4-10.3-12.1c15,1.6,24.7,11.2,34.9,19.4c10.4,8.4,20.2,17.6,30.3,26.3
				C691.6,1054.6,691.5,1056.1,690,1057.6L690,1057.6z M674.1,1199.1c-4.7,0-25.4-17.7-24.9-20.9s2.7-4.4,5.8-2.1
				c8.1,3.5,14,11.3,20.9,16.9C677.3,1195.1,677.9,1198.9,674.1,1199.1L674.1,1199.1z M625.6,1042c17.7,7.2,33.4,18.1,42.8,35.1
				c-0.7,2.4-3.8,1.9-5.3,1.1c-13.4-10.4-26.7-21-39.9-31.6C617.9,1042.2,619.9,1038.1,625.6,1042L625.6,1042z M655,1210.8
				c0.5,13.5-12-0.6-13.9-5.7C640.6,1198.7,655.5,1207.4,655,1210.8z M603.3,1059.6c20.1,5.5,31.5,22.6,47.1,33.9
				c2.3,3.2,0.4,11.5-4.8,5.5C637,1090.1,602,1069.6,603.3,1059.6L603.3,1059.6z M624.8,1118.3c-9.5-9.3-22.3-16.5-29.5-27.5
				c0.6-1.4-1.2-3.3,1.8-2.5c14.4,3.9,24.7,13.2,33.3,24.7C633.1,1116.2,627.6,1121.2,624.8,1118.3L624.8,1118.3z M582.3,1111.8
				c-2.3-2.6-9-6.3-4.7-9.8c3.2-2.6,9.1,2.2,12.7,5.2c7.4,6.2,14.4,12.9,21.4,19.6c3.3,4.1,2.8,5.9-2.8,7.5
				C598.5,1128.4,589.9,1120.6,582.3,1111.8L582.3,1111.8z M608.4,995.1c-1.6,2.4-3.9,4.3-7.2,2.5c-18.3-9.6-36.7-19.2-55-29
				c-1-0.5-1.3-2.4-1.8-3.7l6.2-2.7c19.6,7.1,38.2,16.7,55.3,28.5C607.3,991.8,610.1,992.5,608.4,995.1L608.4,995.1z M584.6,1018.4
				c-3.9-3.8-41.6-19.9-33.1-24.6c9.3,0.8,46.7,14.9,39.3,26.4C588.3,1022.9,586.5,1019.6,584.6,1018.4L584.6,1018.4z M568,1131
				c3.2-11.4,15.5,5.2,18.8,9.3c1,1.3,1.2,4.6-5.1,3.3C577.5,1141.3,572.4,1136.6,568,1131z M568.9,1308.9c4,16.7,10.3,33.1,11.9,50
				c0.5,1.7,1.6,3.2,3.1,4.3c0.2,0.1-0.2,1.1-0.3,1.6c-9.4-1.8-13.7-19-16.7-27.2c-2.8-9.9-5.5-19.8-8-29.8c-0.9-3.4-3.1-1-3.7-0.7
				c-3.4,1.9-9.7,5.1-9.4,6.4c4.7,21.3,14.2,42.3,17.7,63.5c-9.3,11.9-23.2-49.9-25.8-54.8c-5.5,26.1-16.2,51.5-18.6,77.8
				c0.1,2.7-0.5,4.8-4.4,4.2c-4.9-0.7-4-8.7-3.8-13.8c0.9-21.7,7.6-42.1,12.7-63c7.8-30,38.5-34.6,63.5-43c7.6-1.4,7,4.9,7.4,7.4
				c2.5,15,4.9,30,9.5,44.5c1.3,4.9,3.9,7.7,2.7,13.3c-12.3-14-18.4-31.8-23.7-49c-0.8-2.7-2.5-5.8-3.8-5.1
				C573.4,1298.6,565.8,1299,568.9,1308.9L568.9,1308.9z M558.2,1021.6c7.9,4,20.3,7,20.1,19.3c-1.6,0-3.5,0.6-4.7-0.1
				c-12.5-8-26.3-14.6-37.9-23.8C544.8,1012.2,552.8,1017.9,558.2,1021.6L558.2,1021.6z M571.4,1157.8c0.4,1.4-2.2,6.1-3.4,4.9
				c-3.5-4.3-14.3-8.4-12.3-15.1C563,1148.6,569.2,1150.8,571.4,1157.8L571.4,1157.8z M531.5,1032.5c14,0.6,22.6,9.3,32.3,15.9
				c2.4,1.6,1.8,4.8,0.4,7.2c-1.8,3-3.3,0.3-4.7-0.5c-10.7-6.5-23.3-10.8-31.5-20.7L531.5,1032.5z M525.2,1053.3
				c8.2,4.3,18.4,9.8,26.7,18c0.3,4.8-7.6,5.3-10.4,3.2C537.1,1071,501.8,1051.5,525.2,1053.3L525.2,1053.3z M522.8,1091.8
				c0.2,0.7-2.2,3-2.4,2.9c-5.1-3.2-11-5.3-14.4-10.7c0-0.1,2-1.4,2.9-2C515,1084.2,521,1085.3,522.8,1091.8L522.8,1091.8z
				 M522,953.6c-3.2,4.9-4.4,3.2-9.5,1.3c-3.8-5.5-66-23.5-35.8-24.5C482.8,931.8,526.5,945.6,522,953.6z M475.9,956.2
				c13.1,3.8,26.6,7.5,36.3,18.7c3.4,3.2-1.5,6.9-4.5,5.8c-10.7-8.5-23.8-12.3-35.8-18.1c-1.9-0.9-5-3.7-4.7-4.3
				C469.1,954.6,472.6,957.9,475.9,956.2L475.9,956.2z M504.8,1110.5c-3.5,7.1-10.8-1.1-15.6-3l7.1-2.9
				C500.5,1105.5,503.5,1107.1,504.8,1110.5L504.8,1110.5z M473.2,982.5c10.3,3.7,23,4,30.3,15.8c1,1.7,1.9,2-0.2,3.3
				c-1.5,1-1.6,3.4-4.5,1.8C494.8,1000,449.2,982.8,473.2,982.5L473.2,982.5z M471.3,1005.5c6.6,3,18.1,3.4,23.7,14.2
				c0.5,1.1,2.2,2.7-0.1,3.7c-1.4,0.6-3.3,1.6-4.3,1.1c-8.5-3.9-16.9-8-25.2-12.3C458.1,1007.7,462.1,1003.3,471.3,1005.5
				L471.3,1005.5z M456.7,1027.8c8.4,1.5,26.7,5.9,21.9,16.5c-7.5,3.1-16.1-6.3-23-9.2C449,1032.5,452,1029.6,456.7,1027.8
				L456.7,1027.8z M446.1,1058.8c5.2,0.8,10.8,1.9,12.5,7.4c0.8,2.6-4.4,3.1-5.8,2.6c-4.6-1.6-10.1-3.2-11.5-8.4
				C440.6,1057.7,444.5,1059.8,446.1,1058.8L446.1,1058.8z M445.7,929.8c0.1,0.3-2.8,1.2-4.5,1.9c-7.2-3-63.5-18.5-60-24.2
				c1.3-3.1,4.6-3,7.4-2.2c8.3,2.5,16.6,5,24.8,7.8c9.5,3.2,18.9,6.7,28.3,10C445.1,924.2,445,927.2,445.7,929.8L445.7,929.8z
				 M428.4,1085.8c0.3-7.1,16.3-0.1,16.4,4.6c0.5,3.7-0.3,5.7-2.2,4.5C437.7,1092,430.2,1092.7,428.4,1085.8L428.4,1085.8z
				 M383.8,932.8c2-3.3,5-0.6,7.6-0.5c14.6,0.4,27.5,7.3,41.2,11.4c1.9,0.6,3.2,3.4,5.2,5.8c-2.1,1.4-4.1,3.8-5.2,3.4
				C423.5,948.7,385.8,940.1,383.8,932.8L383.8,932.8z M426.4,978.8c-10.8-4.1-21.3-8.7-31.9-13.2c-2.1-0.9-5.9-1-5.2-4.1
				c0.7-3.3,4.4-2.8,9.7-2.4c9.7,3.6,27.5,3.8,33.7,17.5C430.6,977.5,428,979.4,426.4,978.8L426.4,978.8z M418.8,1000.8
				c-9.2-3.1-18.2-6.8-27.1-10.6c-2.1-0.9-5.7-1.7-4.6-5.3c1.2-4.1,5.8-2.6,7.6-2.4c7.7,1,32.5,7.4,32.1,16.6
				C425.5,1003.9,420.9,1001.5,418.8,1000.8L418.8,1000.8z M385.1,1008c1.1-1.1,2.4-2,3.7-2.8c11.4,2.9,22,6.1,29.9,14.4
				c4.9,3.3,1.1,7.1-3.7,5.4C410,1021.7,384.5,1012.7,385.1,1008z M379.2,1044.6c22.9-11.2,23.6,10.1,13.8,6.5
				C388.1,1049.7,382.4,1049.8,379.2,1044.6L379.2,1044.6z M296.7,901.1c-1.8,0.6-3.6,1.3-5.3,2.2c10.2,17.8,32.6,3.2,38.7,13.1
				c1.3,5.9-6.9,0.9-10.2,4.2c-3.1,3-11.9-2.9-12.4,3.2c-1.2,19.3,30.9,12.9,41,22.4c-10.1,7.2-22.5-0.6-33.3-2.1
				c0.5,4.4-2.1,9.5,2.6,12.9c10,7.8,22.3,9.3,34.1,12.7c-6.6,6.2-17,3.5-24.7,0.7c-3.3-1.5-6.6-5.6-10-3.5
				c-4.4,2.8-1.5,8.7-2.5,13.1c7.6,9.1,25.3,14.6,35.9,21.4c0.5,0.3,0.4,1.7,0.6,2.6c-17.7,3.4-36.5-11.8-49.9-22.2
				c-4.9-4.2-0.4-9.7-2.2-13.3c0.7-14.3-3.1-26.6-8.1-38.6c-1.5-5.1-9.6,6.5-13.3,5c-12.6-1.2-5.5,5.8-4.1,9.5s4.4,6.8,6.4,10.3
				c8.7,6.4,1.3,7-5.2,3.1c-14.9-10.7-20.2-27.3-25.7-43.4c-10.7-28.2,9.5-23.6,26.4-21.4c7,0.3,14.1,0,21.2,0.1
				c2.5,0,6.1-0.8,6.2,3C303,899.6,299.7,900.4,296.7,901.1z M296.4,1180.2c0.8,5.6,13.6,27.5-0.7,16.9c-9.9-12.2-12-27.2-17.3-41.6
				C284.5,1142,294.5,1175.6,296.4,1180.2L296.4,1180.2z M271,1189.5c1.4,3.6,2.9,7.1,4.6,10.7c-2.2,8.1-11,0.5-11.8-3.4
				c-3-6.9-13.3-29.6-2.6-33.5c4.2-0.9,4.4,3.7,4.6,5.6C266.6,1175.9,268.4,1182.9,271,1189.5z M253.2,795.4
				c1.7,19.5-14.4,35.8-28.6,47.7c-3.5,2.9-8.7,7.5-13,2.4c-2.2-3.1,1.5-4.4,3.2-5.7c13.8-10.6,23.5-24.7,32.2-39.5
				C248.3,798.3,251.1,797,253.2,795.4z M231.1,1194.6c-0.8-3.8-5.4-17.8,0.6-18.3c3.8-0.5,4.6,3.7,5.2,6.1
				c1.9,8.7,5.1,17.1,9.5,24.9c1.6,2.1,2.5,4.8,2.4,7.5c0,0.2-1.5,0.5-2.6,0.9C236.4,1213,233.9,1203.1,231.1,1194.6z M232.2,777.6
				c1.4-2.8,4.2-4.9,6.3-7.3c0.7,1.2,1.4,2.5,1.9,3.4c-5,23.2-19.9,41.8-37.6,56.3c-4.3,2.4-17.8,14.9-21.7,9.9
				c-1-1.5-2-3.3,0.9-5.3C203.3,820.1,220.6,800.5,232.2,777.6L232.2,777.6z M221,1236.2c-9.9-10.8-15-23.2-14.2-38.3
				c1.4-6.1,8.1-1.5,7.7,2.2c0.5,12.6,8.7,21.7,13.7,32.3C231.7,1238.5,224.5,1241.8,221,1236.2z M212.9,767.2
				c-1,19-23.8,48.4-44.7,53.9c-7.1-4.3,5.2-8.7,7.8-11.6c14.4-11.5,23.2-27.4,31.2-44c1-2,2.1-5.8,5.5-4.6
				C217,762.5,212.9,765.2,212.9,767.2L212.9,767.2z M205.6,1258.4c-4.4-5.1-22.6-40-14.8-43.4c4-1,5.7,1,6.7,3.4
				c3,11.2,7.8,21.9,14.1,31.7c2.8,4.4,6,7.6,6.9,13.2c-0.6,1-1.2,2-1.8,3C212.9,1263.6,208.1,1262,205.6,1258.4L205.6,1258.4z
				 M197.1,1274.8c2.2,4.1,6.5,7.3,6.8,12.2c-8.3,4.8-32.6-30.3-22.7-33.3C188,1259.1,191.7,1268,197.1,1274.8L197.1,1274.8z
				 M75.3,333.2c2.2-4.6,1.7-13.9,6.5-13.4c39.4,5.7,81.7-15.8,87-56.5c2.7-5.8-4-15,0.6-16.2c18.3-4.8,32.3-14,42.1-30.6
				c1.8-3.1,0.6-10.9,10.2-10.1c40.4,9.4,72.1-19.9,63.7-61.5c-1-3.5,6-1.2,7.9-1.4C310,145.8,321.7,161,336,169
				c35.8,25.6,116.3,47.6,129.3-13.6c0.4-4.1,1.5-11.4,3.2-11.7c17.2-3.1,30.8-10,35.7-29.6c3.5,23,14.6,36,35.2,45.5
				c5.1,2.4,14.1,0.7,15.2,8.2c3.3,22.3,31.3,38.6,52.2,30c11.6-4.7,23.7-6.8,36.1-2c37.7,17.5,75.6-22.8,56.2-58.9
				c-3-7,0.5-10,4.3-13.6c1.7-1.4,4.1-4,5.6-3.6c49.2,28.8,118.4,8.8,149-38c18.7,40.4,74.4,73.8,117.9,53.3c2.7-0.5,2.7-4.9,0-6
				c-2.2-1-5.5,0.2-7.3,0.7c-32.2,7.7-63.4-9.5-86.8-30.5c-28.3-22.9-4.8-56.1-9-85.9c-9.6-29.1-9.8,24.1-11.6,30.6
				c-2.9,22.9-13.3,40.8-31.2,54.3c-30.8,23.3-64.9,32.9-102.6,20.2c-6.9-1.1-19.9,0.5-14-12.2c1.6-4-1.5-16.5,11.3-10.6
				c12.4,5.8,25.5,5.8,38.1,0.8c32.6-12.9,63.3-44.4,64-81.2c0-2.7-0.2-6.4-3.2-6.3c-2.9,0-4.1,3.3-4.6,5.9
				c-7.1,43.3-57.5,94.1-102.3,66.8c-10.1-7.2-10.2,26.8-28.1,41.7c-28.1,27.8-67.5,38.5-106.3,34.9c-14.9-1.3-29.4-4.1-42.9-9.8
				c-31.9-11.1-37-80.3,8-72c7.8,2,14.7,13,26.6,0.4c20.7-31.6,102.3-10.2,71.8,28.5c-9.4,8.3-33.8,16.9-42.2,4.8
				c-4.1-6.8-1.2-15.2,5.8-20.7c2.5-2,8.8-2.2,5.2-7.4c-2.8-3.9-7.3-1.1-10.2,1.1c-9.3,7-14.8,15.8-11.7,28.2
				c5.1,19.6,29.7,17.5,44.8,11.9c75.1-32.9-20.3-102.4-64.2-61.9c-3.6,2.7-7,9.6-13.1,6.9c-17.1-7.7-32.3-4.6-46.9,6.7
				c-10.3-37.2-57-48.9-82.6-20.7c-13.4,15.1-6.1,4.4-29-1.7c-30.5-8.9-58.9,19.7-54.8,48.6c0.5,3.2-0.9,4.7-2.8,5.5
				c-24,7.9-47.4-21.3-41.2-44.7c4.8-12.1,2.9-59.3-13.7-58.5c-2.7,1.2-2.3,4.4-0.7,7.6c12.8,26.2,8.1,61-19.5,74.4
				c-20.9,15-23.7-2.1-44.1-0.6c-2.4,0.2-2.4-1.3-1.5-2.9c12.9-22.9,19.8-66.2-7.4-80.5c-13.3,1.6,13.6,16.8,7.2,46.5
				c-2,14-6.9,27.4-14.4,39.4c-4.8,7.8-12,4.1-18.3,3.4c-2.6-0.3-7-2-7.2-3.5c-2.6-20.7-18.2-28.4-34.9-34
				c-20.9-7-32.9-2.5-45.8,15.5c-1.7,2.4-3.9,2.3-6.2,2.1c-14.1-1-27.2,3.2-39.4,9.3C-6.3,108.3-3.3,233.4,82.5,214
				c4.5-1.3,9.9-11,16.7-0.4c26.8,46.8,64.2,21.7,61.6,49.5c-8.3,51.4-117.4,67.9-103.7,4.7c3.7-9.4,8-20.5,20.2-18.2
				c10.9,2,15.4,11.4,13.2,23c-0.3,1.3,1.2,4.3,1.8,4.2c2-0.1,5-0.5,5.9-2c8.8-13-2-34-17.5-35.9c-39.6-0.8-49.8,56.9-16,73.9
				c4,2.2,6.2,4.5,4.4,9.6c-8.3,23.6-32.7,50.9-60,40.2c-2.3-1-4.2-3.4-6.7,0c-2.5,3-0.5,5.3,2.5,6.8
				C32.7,386.5,64.3,358.2,75.3,333.2z M565.9,167.2c38,5.7,81.1,4.5,111.6-21.6c3.6-3.6,8.4-7.3,13.2-8.3c4.2-0.8,3.5,5.9,3.8,8.2
				c5.5,40.7-24.7,51.2-58.8,38c-26-4.4-54.6,20.6-70.8-13.8C564.4,168.3,562.8,166.6,565.9,167.2L565.9,167.2z M393.2,62.4
				c33.1,2.8,27.2,28.8,36.8,28.4c4.2-1,3.3-5,3-8c-0.6-5.6-9-11.3-4.2-15.7c26.9-34.2,86.3-17.5,70.6,31.8
				c-2.9,9.6-5.2,19-12.9,25.7c-29.4,26.5-50.1-21.5-85.9-4C348.1,137.9,342.1,64,393.2,62.4z M291.4,80c1.8-1.9,3,1.1,3.5,2.4
				c4.3,24.7,29.5,40.2,52.4,32.9c7.4-2.3,7.2,5,10.1,7.8c28.4,27,58-10.5,87.5,14.8c4.3,3,14.3,0.3,12.1,10.4
				c-8.9,52.2-78.9,36.8-110,14.6c-16.8-11.6-31.1-27.9-52.5-27.1c-19.4-4.1-16.3-27.7-33.3-35.9C274,96.2,284.2,90.3,291.4,80z
				 M147.8,236.6c-43.5-6.2-36.7-52.6-56.4-38C61.4,217,24.6,197,23.1,162.3c-4.8-43.2,32.3-91.1,79-78.4c5.5,1.8,7.3-5.8,9.7-10.6
				c6.4-13.1,28-15.5,41.7-7c11.1,6.8,21.2,12.5,19.9,28.1c1.5,15.5,27.5-5.4,38.8,23.9c4.3,10.8,0.8,21.8-10.2,29.9
				c-12.6,9.3-25,18.6-40.6,8.6c-8-5.1-10.2-2.4-15.1,3.8c-10.7,13.6-26.6,13.7-37.3,1.5c-14-23,5.7-59.4,33.9-37.9
				c2.6,2.2,3.7-0.3,5-1.2c2.7-1.8,0.7-3.7-0.6-5.3c-8.7-10.9-27.8-11.5-40.1-2c-15.4,11.7-14.6,38-6.8,51.4
				c10.9,18.7,33.6,18.4,48.3,4.8c5.7-5.3,9.3-4.9,15.7-2.9c19.7,6,45.2-8.1,55.2-26.5c10.2-18.1,0.4-29.9-8.2-44
				c32.9-14,63.5,23.8,65.5,54c6,32.3-30.8,54.3-59.5,41.2C200.2,184.9,210.4,244.2,147.8,236.6z"/>
		</g>
	</g>
</g>
<g>
	<g id="Layer_1_2_">
		<g transform="matrix( 1, 0, 0, 1, 0,0) ">
			<g>
				<g id="Layer0_0_FILL_1_">
					<path d="M52,1548v15l-37,37h946l-37-37v-15H52 M52,52V37.7L14.3,0H0v1600h15l37-37v-15V52 M924,52V37.7L961.7,0H14.3L52,37.7
						V52H924 M976,0h-14.3L924,37.7V52v1496v15l37,37h15V0z"/>
				</g>
			</g>
			<g>
				<path id="Layer0_0_1_STROKES_1_" class="st5" d="M961,1600h15V0h-14.3L924,37.7V52v1496v15L961,1600H15H0V0h14.3h947.4 M52,52
					V37.7L14.3,0 M15,1600l37-37v-15V52h872 M924,1548H52"/>
			</g>
		</g>
	</g>
</g>
</svg>
