<svg xmlns="http://www.w3.org/2000/svg" xmlns:xlink="http://www.w3.org/1999/xlink" viewBox="0 0 976 1600">
<style type="text/css">
	.st0{fill:#FFFFFF;}
	.st1{clip-path:url(#SVGID_2_);}
	.st2{fill:#333333;}
	.st3{fill:#D81E1E;}
	.st4{fill:none;stroke:#333333;stroke-width:2;stroke-linecap:square;stroke-miterlimit:3;}
</style>
<g id="Paper_Backing">
	<path class="st0" d="M960,22v1556c0,3.3-2.7,6-6,6H22c-3.3,0-6-2.7-6-6V22c0-3.3,2.7-6,6-6h932C957.3,16,960,18.7,960,22z"/>
</g>
<g id="Wikipedia_Cropped">
	<g>
		<defs>
			<path id="SVGID_1_" d="M960,22v1556c0,3.3-2.7,6-6,6H22c-3.3,0-6-2.7-6-6V22c0-3.3,2.7-6,6-6h932C957.3,16,960,18.7,960,22z"/>
		</defs>
		<clipPath id="SVGID_2_">
			<use xlink:href="#SVGID_1_"  style="overflow:visible;"/>
		</clipPath>
		<g class="st1">
			<path class="st2" d="M736.1,1501.2c-69.3-7.2,13.9-58,43-42.5c6.6,13,5.9,5.1,14.9,10C784.5,1491.3,752.8,1500.8,736.1,1501.2z
				 M611.1,1445.3c-55.2-6.2,12.4-59.4,41.6-53.2c19.3-0.3,12.5,3,20.3,13.7c2,0.9,2.9,3.2,2.1,5.3c0,0,0,0.1-0.1,0.1
				C665.8,1432.2,634.1,1445.6,611.1,1445.3L611.1,1445.3z M491.2,1377.2c-57.2,3.9-11.5-46.8,23-42.2c6.2,2,36.5-2.9,32.5,10.2
				c-4.6,4.8,5.3,9.7,0,13.8C529.7,1371.2,511.5,1377.2,491.2,1377.2L491.2,1377.2z M796.3,1362.5c-22.5-3-48.3-93.4-12.5-81.2
				C801.9,1293,833.7,1360.7,796.3,1362.5L796.3,1362.5z M648.4,1306.2c-27.8-18.3-51-55.7-36.4-84.8c-1.7-3.6-0.2-8.7,4.5-7.7
				c28.9,12.3,50.8,54.3,34.2,80C649.1,1298.1,656.4,1305.2,648.4,1306.2L648.4,1306.2z M771.4,1113.7c-17-27.4,17.3-78.2,40-64.9
				c16.2,24.4-10.7,51.3-24,62.5C780.8,1113.4,779,1107.8,771.4,1113.7L771.4,1113.7z M623,1051.8c-34.3-5.1-53.1-20.2-65.9-49
				c-1-3-0.8-6.9,2.9-7.5c5.6-1.6,5.5-9.4,12.9-8.5C596.3,983.9,658,1033.6,623,1051.8z M692.7,1043.9
				c-19.2-21.3,9.4-63.7,23.1-76.6c5.9-6.7,12.1,2.4,18.7-2c19.1,17.8-1.7,63.3-24.4,77.8C701.7,1044,703,1037,692.7,1043.9
				L692.7,1043.9z M597.4,910.7c-78.9-5.7,14-67.9,48.8-42.7C664.8,899.8,622,910.9,597.4,910.7L597.4,910.7z M450.8,886.5
				c-39.4-17.2,23.8-72.2,49-70.9C535.8,832.8,475.4,887.8,450.8,886.5z M341.7,879.4c-19.2-15.3,25.5-96.1,53-66.9
				c17.1,21.8-14.1,51.1-31.7,62.2C355,883.4,352,869.5,341.7,879.4L341.7,879.4z M806.6,856.9c-24-27.2-10.8-101.8,31.4-111
				c19.8,32.6,6.1,76.3-14,100.1C802.5,848,817.7,850.9,806.6,856.9L806.6,856.9z M218.8,852.7c-7.2-1.8-0.9-11.1-10.4-14
				c2.4-27.9,40.2-41,66.5-41.6c20,4.7-0.4,6.9,21.6,17.3C290.3,848.1,247.3,852.8,218.8,852.7L218.8,852.7z M721.9,792.3
				c-29.8-0.4-42.1-162.7,17-87.4c14.5,24.4,13.6,56.4-0.6,78.5c-3.5,4.5-10.7-0.7-12.6,6.1C725.1,791.2,723.6,792.3,721.9,792.3
				L721.9,792.3z M295.3,767.9c-21.8,0-37.1-13.2-52-26c-8.6-42.5,65-16.7,80.5,3.8c1.4,1.7,1.1,4.3-0.6,5.7
				c-0.2,0.1-0.4,0.3-0.6,0.4C316.1,767.6,313.3,767.7,295.3,767.9L295.3,767.9z M587.6,720.3c-41-11-66.1-48.2-64.1-78.1
				c18.5-18.2,44.8-0.5,55.2,18.7c6.4,14,26.5,35.9,12.2,48.9C589.8,713.6,594.2,719.8,587.6,720.3L587.6,720.3z M565.3,608
				c-21.3-1.3-34.9,0.4-44.4-22.8c8.6-27.2,60.7-24.6,79.5-1.8c-3.4,4.1-1.5,7.7,1,11.5C596.4,606.4,577.8,607,565.3,608z"/>
			<path class="st3" d="M154.9,1298.1c-75.4-13.4,25.5-57,51.5-63.5c8.7,0.2,7.1,10.2,4.4,15.8
				C205.9,1274.1,182.4,1299.3,154.9,1298.1z M315,1289.9c-35.8-8.1,3.8-67.5,23.3-75.2C357.8,1224.8,338.4,1291.1,315,1289.9z
				 M400.9,1257.6c-31.3-4.1,6.4-68.8,24.3-76.2C440.4,1202.9,429.1,1253.2,400.9,1257.6L400.9,1257.6z M219,1164.8
				c-20.1-3.3-40.7-8.4-55.9-27.5C142.9,1080.3,256.6,1153.8,219,1164.8z M300.6,1110.8c-19.6-3.5-68.4-57.1-32.3-70.3
				C288.8,1050.8,312.5,1091,300.6,1110.8L300.6,1110.8z M386.2,1071.7c-55.7-30.3-36.3-112.6-5.5-64.5
				C387.5,1026.3,399.4,1051.2,386.2,1071.7L386.2,1071.7z M260.4,611.5c-18-0.6-43.5-6.5-39-30.8
				C235.4,545.9,338.2,614,260.4,611.5z M758.4,570.7c-100.3,2.7,16-61.8,36.2-23.4C801.6,568.5,771.2,568.6,758.4,570.7
				L758.4,570.7z M251,533.7c-21.8,1.3-64.6-13.7-48.1-40.6C217.8,475.7,306.1,538,251,533.7z M404.6,526.8
				c-18.8-10.5,28.3-42.5,40.3-48.9c12-6.6,26.3,2.7,26,16.9C469.3,523.4,426.1,520.3,404.6,526.8L404.6,526.8z M572.5,499.7
				C503.4,493,485,390,546.7,448C552.4,458.2,592.3,495.1,572.5,499.7z M736.8,494.7c-87.6,2.1,51.4-80.5,55.6-23.9
				C786.3,493.5,756,493.5,736.8,494.7L736.8,494.7z M233.8,438.5c-68.1,6.5-85-62.4-35.3-42.2C206.2,402.1,252.4,429.6,233.8,438.5
				z M371.5,435.2c-15.1-14.4,31.7-57.7,46.9-51.8C483.9,391.3,399.8,440.5,371.5,435.2z M596.4,401.5
				c-32.2-1.7-92.2-61.1-48.1-83.2c31.9,3.1,47.5,43.7,52.1,72C602.2,393.3,602.6,401.8,596.4,401.5z M729.5,401.2
				c-44.2-6.9,51.3-69.7,66.6-42.9C812,391.3,750.2,398.2,729.5,401.2z M330.2,349.2c-21.8-8.6,22.5-51.8,32.8-54.8
				c12.7-7.6,32.3-2.6,32.7,14C385,331.3,354.5,345.9,330.2,349.2L330.2,349.2z M198.1,339.4c-22.6,0.8-89.5-42.7-49.7-58.8
				C159.3,278.8,233,341.9,198.1,339.4z M656.3,308.5c-18.2-13.4-14.2-50.3-11.4-67.2c2.1-12.5,37.1-45.9,40.7-16.6
				C689.6,254,674.9,289.9,656.3,308.5L656.3,308.5z M258.6,284.9c-78.5-71.7,19.7-141.2,12.9-57.2
				C266,245.7,272.1,272.5,258.6,284.9L258.6,284.9z"/>
			<path d="M973.9,1524.6c-34.9-42.3-81.9-73-126.9-104c-7.4-4.7-18.5-8.4-20.8-15c-4.4-12.6-13.5-23.7-8.1-40.7
				c10-33.4-9.5-72.2-37.4-92.2c-10-6.9-10.5-1.1-13.8,4.4c-3.5,5.7-5.7,12-6.6,18.6c-3.8,28.1,7.1,49.9,25.8,70
				c6.2,6.7,18.5,5.6,20.2,17.2c0.8,5.3,1.9,10.8,6.3,15.7c-12-2.1-20.9-8.4-30.5-12.8c-12.1-5.5-24.5-10.2-36.9-14.7
				c-9.5-3.5-19-6.8-28.5-10.3c-10.3-3.9-24.8,0.3-30.4-14.4c-3-15.9-18.5-26.1-22.9-41.7c-4.1-15.7,0.4-32.3-3.9-48.5
				c-5.2-19.8-16-34.4-33-44.9c-8.8-5.4-18.9-10.1-23.2,4c-10.2,34.5,7,72.9,34.8,94.9c6.3,4.6,15.5,2.2,19.6,8.8
				c6,10,12.7,19.5,20.1,28.5c0.6,0.7,0.5,2,0.8,3c-12.2,0.2-24.4-4.1-36.7-5.4c-23.5-3.6-47.3-5-71-4c-3.3,0.1-7.1,1.6-9.5-0.7
				c-19.5-18.5-43.6-12-65.5-10.3c-17.9,1.4-31.5,14.7-37.4,32.6c-1.8,5.4-4.4,12.9,5.5,16.7c28.4,8.8,61.4,5.3,85.1-13.2
				c5.3-4.2,10.1-12.2,15.5-12.5c49.8-3.3,99.8,4.9,147.5,19c-0.5,0.7-0.8,1.8-1.4,1.9c-13.1,3.2-21.1,17.3-38.5,13.1
				c-20.3-4.9-41.2-1.6-60.5,9.1c-12.2,4.1-39.7,39.5-24.1,48.4c31.2,14.6,67.1-0.2,89.3-24c8.7-8.9,8.3-24.3,23.4-28.8
				c10.1-3,19.3-14.6,28.5-14c14.3,0.9,27.5,8.1,40.3,14.1c26.4,12.5,53.1,24.8,77,41.8c-8.7,6.4-19.9,8.4-29.7,12.8
				c-6.8,2.6-14.4,8.5-20.3,7.2c-16.3-3.6-31.9-6.4-48.9-3.7c-21.1,3.5-36.9,12.7-45.1,32.4c-1.8,4.3-7.8,11.5,0.7,15.5
				c32.3,18.5,68.3,5.3,94.5-17c7.1-5.6,5.3-17.5,16-20.5c8-2.3,15.5-7.3,23.5-8.7c9.6-1.6,15.8-14,29.7-4.1
				c23.5,16.8,47.3,32.9,68.5,52.5c10.6,9.8,23.7,17.1,32.1,29.4C971,1536.9,979.6,1530.9,973.9,1524.6z M774.2,1282.1
				c3.7,26.9,13.9,51.5,22.2,76.3C774.5,1341.9,765.8,1312.8,774.2,1282.1z M807.7,1355.1c-9.4-22.1-17.7-44.3-23.9-69.8
				C799.8,1300.2,816,1345.2,807.7,1355.1L807.7,1355.1z M610.9,1240.8c-0.5-3-2.3-5.6,0.2-8.4c14.5,23.2,23.5,45.1,37.4,69.7
				C626.7,1285.3,614.8,1265.5,610.9,1240.8L610.9,1240.8z M652.1,1286.6c-7.2-15.3-17.4-28.2-23.3-43.5
				c-2.9-9.1-10.9-16.3-13.5-25.5C641.8,1228.7,654,1258.8,652.1,1286.6L652.1,1286.6z M471.4,1357.4c19.4-23.2,46.1-19.4,72.2-15.5
				c-0.1,0.3,0,0.8-0.2,0.9c-2.3,1.3-4.7,2.6-4.9,2.7c-26.4,1.3-46.3,9.6-69.3,15.5C469.8,1359.8,470.6,1358.6,471.4,1357.4z
				 M467.5,1370.6c25.9-6.9,50.7-12.5,76.8-14.8C521,1372.5,495.9,1376.5,467.5,1370.6z M663.7,1397.1c0.7,0.2,1.3,0.6,1.9,1
				c-0.9,0.9-1.7,2.2-2.8,2.6c-24.3,9.1-44.5,24.6-69.8,31.9C602.6,1405.1,638.6,1392.3,663.7,1397.1z M643.3,1434.1
				c-13.3,5.8-27.8,8.8-43.8,6.2c20.3-8.2,40.1-15.6,58.3-26.3c4.2-2.5,8.8-4.1,13.6-4.6C665.5,1421.6,654.8,1429.1,643.3,1434.1
				L643.3,1434.1z M775.1,1461.2c0.8,0,1.5,0.8,2.3,1.2c-17.9,9.9-39.3,14.3-58.5,22.1c-1.6,0.6-3.6,0.4-6.1,0.6
				C728.5,1462.1,751.4,1460.4,775.1,1461.2L775.1,1461.2z M716.5,1494.1l74-23.3C769.7,1490.7,746.6,1503.4,716.5,1494.1
				L716.5,1494.1z M570.9,1099.3c27.3-2.4,54.5,1.2,81.5,4.3c12.3,1.4,25.8,2.5,36.3,10.5c14.8,11.2,26.5,25.5,39.1,38.9
				c83.4,83.6,155.5,177.6,238.9,261.2c3.8,2.9,9.8,1.6,4.3-4.1c-47.3-64.2-103.6-120.6-153.9-182.3c-18.5-20.4-37.6-40.4-56.6-60.4
				c-1.2-1.3-0.8-1.2-0.1-2.7c3.9-8.7,6.5-18.1,11-26.5c3-5.7,3.1-15.5,9.8-16.4c21.6-5.2,44-37.7,41.1-60c-0.7-7.4-0.1-16-7.2-20.6
				c-28-14.3-55.9,31.1-56.2,55.5c-1.1,15.2,6.7,29.3-0.9,46.1c-7.9,17.5-11.4,12.2-19.7,2.4c-12.7-15-26.6-28.8-41.7-41.3
				c-7.7-6.4-14.3-14.1-5.9-26.3c6.9-10.1,8-24.5,22-29.2c25.8-9.9,51.4-73.6,21.8-90.2c-9.3-4.8-16.9,2-24,6.7
				c-14.1,9.5-21.8,24.1-27.4,39.6c-4.3,11.8-5,23.8-2.8,36.7c1.1,6.6,8.8,10.5,6.1,17.5c-3.1,8.1-6.9,15.9-10.2,23.6
				c-6.5-5.8-13.5-11.7-20-18c-5.2-4.9-14.7-8.5-14.5-15.2c0.6-23.8-13.9-38.9-28.4-53.8c-12.4-12.8-29.5-15.7-46.2-13.2
				c-15.6-1-21.9,1.9-16,21.2c9.4,29.5,31.5,48.6,61.8,54.1c7.2,1.4,17-1.2,21.4,2.7c13.8,12.3,25.5,26.8,34.2,36.2
				c-76.2-17.7-160-1.2-234.4,20c-7.9,3.1-13.3,11-20.5-2.5c-25.5-39.4-9.5-87.5-34.3-121.1c-42.4-27.5-41.7,47.3-16.4,64.8
				c7.5,6.7,18.6,10.8,23.5,18.8c8.7,14.2,13.6,30.7,21,45.8c2.7,5.5-2.5,4.5-3.3,4.6c-17.1,3.3-32.8,10.8-49.2,16.2
				c-8.2,2.7-15,9.5-22.6-2.6c-8-12.6-23.7-19.2-23.6-38.3c0.1-24-10.9-44.5-28.3-61.4c-35.2-28.2-37.3,33.5-16,48.5
				c9.8,8.9,19.9,17.3,30.1,25.6c13.9,11.2,24.7,26.5,39.9,37.9c-19.2,5.8-35.5,19.3-53.7,28c-4.5,2.5-11.8,7.9-13.2,6.7
				c-21.6-15.7-29-18-40.9-43.9c-12.3-18.2-49.8-48.8-69.5-27c-7.1,7.9-4,16.1,0.4,24.4c5.2,9.9,15.2,12.8,23.5,18.5
				c18.8,12.8,44.5,5.2,61.9,21.7c4.5,4.3,9.6,8,14.4,12c1.7,1.4,0.1,1.3-0.9,2.1c-7.8,6.1-15,13.1-23.3,18.4s-11.8,18-26,15.7
				c-29.4,3-58.2,18.2-81.1,36.4c-5.3,3.8-11.4,10.7-8.3,19.5c22,48.1,96,11.1,100-31.8c1-6.7-2.1-16.1,3.1-20
				c40.6-31.3,85.3-56.3,131.7-77.9c-2.1,9.5-6.3,18.1-8.1,27.7c-1.7,8.9-4.9,19.3-11,25.4c-20.3,20.2-40.3,39.8-38.3,71.5
				c1.2,14.6,17.5,21.8,30.2,14.8c22.7-14.6,26.5-48.3,24.5-72.9c-0.6-5.9-6.5-9.8-3.6-16.7c4.5-10.8,6.5-22.7,11.2-33.3
				c3.6-8.1-0.6-19.9,14.3-23.3c18.7-4.3,36.6-12,55.9-18.9l0,0c1.3-0.5,2.6-0.9,3.9-1.4c-5.8,11.7-6,20.9-8.6,32.1
				c-5,16.4-16.7,29.5-26,43.7c-13.3,17.1-27.7,69.2,10.4,60c29.8-10.8,38.5-62.2,23.8-87.5c-3.3-4.9-1.2-10,0.5-15.2
				c2.5-8.1,5-16.3,5.5-24.6c0.5-9,4.5-12.1,12.3-13.7C489.9,1115.6,529.5,1101.8,570.9,1099.3z M810.9,1052.7
				c5.2,26.3-9.9,41.1-26.2,55.6C793.1,1090.5,801.5,1072.6,810.9,1052.7L810.9,1052.7z M801.5,1049.7l-30.1,60
				C766.6,1079.7,787.9,1053,801.5,1049.7L801.5,1049.7z M734.5,969.4c8.6,11.4-0.8,54.5-26.5,70.4
				C717.2,1015.1,725.9,991.9,734.5,969.4L734.5,969.4z M691.2,1025.8c-4.2-18.6,34.8-73.4,31.8-52.8c-0.7,2.1-1.1,4.4-2.3,6.2
				c-13.4,18.2-15.2,43-28,60.7C689.6,1035.9,691.6,1030.4,691.2,1025.8L691.2,1025.8z M580.8,1030.2c-9.2-8.6-16.6-19.2-20.2-30.9
				c23.6,13.1,40.2,32.6,62.4,48.5C605.6,1044.7,592.4,1040.1,580.8,1030.2L580.8,1030.2z M568.7,992c21.5-7,60.9,26.4,61.8,48.6
				C611,1023,590.4,1006.7,568.7,992L568.7,992z M387.3,1052.5c-0.4,5.1-0.7,10.1-1.1,15.2c-3.9-3.4-7.7-6.9-11.6-10.3
				c-12.5-9.8-34.1-53.4-11.1-59.9C378.5,992.5,388.7,1041.6,387.3,1052.5z M296,1105c-14.5-6-52.7-49.9-29.4-60.9
				c22.7,12.1,31.5,38.6,34,62.6C299,1106.3,297.5,1105.7,296,1105z M215,1160.6c-11.8-2.5-58.8-16.5-49.2-37.3
				C179.7,1104.5,244.8,1165.9,215,1160.6z M208.9,1243.4c-5.4,17.3-11,34-28.5,43.8c-17.7,9.7-41.3,10.6-49.8-5.4
				c2.4-10.5,12.2-11.6,18.3-16.8c15.8-13.7,36.7-16.3,54.6-25.6C206.3,1238,210,1238.1,208.9,1243.4L208.9,1243.4z M342.2,1229
				c-1.8,14-3.4,28-9.1,41.4c-7.1,19.2-30.9,21.4-28.1,0.4c0.2-10.9,6.3-20.9,13.8-30.4C323.6,1232.8,341.5,1204,342.2,1229z
				 M411.2,1249.1c-4.4,4.3-11.4,6-15.9,2.8c-10.7-13.5,16.9-57.1,28.9-66.7C431.4,1205.3,427,1233.9,411.2,1249.1L411.2,1249.1z
				 M205.5,343c2.5-0.3,4.2-2.5,7.7-1c15.3,6.8,30.9,12.7,46.3,19.2c6,2.5,15.1,4.4,16.9,8.9c10.3,25.7,15.2,53.3,26.3,78.9
				c0.1,0.3-1,1.7-1.3,1.6c-17.3-5.9-35.2-10.5-51.6-18.2c-13.6-6.3-19-22.6-32.4-30.6c-11.5-7-21.9-15.7-35.9-16.7
				c-20.3-0.9-22.9,25.8-11.2,37.8c18.4,23.1,49.1,19.5,74.5,19.3c14.9,2.5,29.3,9,43.3,15.3c7.5,3.4,17.6,2.6,21.2,13.8
				c6.1,19.1,13.8,37.6,20.7,56.4c1.5,4.2,4.5,10,2.9,12.5c-1.9,3-6.4-1.9-9.8-3c-5.2-1.7-11.4-1.6-15.7-4.5
				c-10.2-6.8-23.4-1.5-33.5-12.3c-15-16.9-73.1-63-80.8-19c-1.9,32.4,43.5,41,68.4,35.8c20-7,40.2,5.1,59.4,10.1
				c6.4,2.3,15.6,0.5,18.9,7.1c1.6,5.2,28.7,58.2,18.5,54.4c-15.7-2.6-31.4-5.3-47.1-8.1c-5.5-1-13.7-0.4-15.9-3.7
				c-14.4-22.1-35.7-29-60.3-31.5c-16-1.5-24.7,15.4-18.7,28.3c9.2,19.5,41.6,29.7,62.3,20.4c6.3-2.8,13.4-7.3,19.6-6.5
				c16.6,1.9,33,6.1,49.5,9.5c7.1,1.5,18.6,1.1,20.5,5.2c9.1,19.1,18.7,37.9,28.7,56.4c13.7,25.2,29.3,49.4,49.9,69.6
				c-4.9,3.4-10.5,3.8-16.2,4.9c-13.6,2.4-26.8,7-40.5,9.4c-25,9.3-22.2,7.2-46.5-3.8c-6.6-3.3-12.5-7.8-16.1-15.7
				c-17.3-31-65.8-37-96.6-23.4c-4.1,1.9-10.1,6.5-6.1,9.9c8.7,7.4,14.5,17.2,23.4,24.6c16.1,13.5,32.9,19.9,53.6,19.5
				c27.5-5.8,21.5-15.5,51.6,0.3c-7.5,4.8-16.6,7.7-25,10.5c-12.7,3.4-22.8,14.3-38.5,9.7c-32-9.3-59,1.4-81.5,24.7
				c-13.5,13.3-17.6,34.6,6.2,37.9c31.3,6.7,70-0.7,85.2-32.3c3-6,2.1-14.5,10.7-17.5c35.6-12.9,70.1-26.5,106.9-36
				c-5.3,5.9-9.9,11-14.4,16.2c-3.2,3.7-6.1,10.4-9.5,10.6c-19.2,1.2-32.7,11.7-45.4,24.5c-14.9,15-18.3,33.7-17.5,53.4
				c0.2,5.7-0.6,17.4,9,14.6c28.3-7.5,63-30.5,63.7-63.3c-0.3-10.9-4.4-21.9,5.8-31.1c13.3-10.4,17.7-29.6,36.8-30
				c38.8-7.6,80.6-5.4,117.2,9.6c-15.2,10.5-30.5,21.1-46,31.5c-2.5,1.7-5.9,4-8.3,3.4c-9.1-2.3-18.2-0.6-25.8,2.6
				c-27,11.3-45.8,30.5-53.4,59.7c-3.5,13.6,0.3,20.3,12.7,20.2c32.8-0.7,78-28.4,75-65.7c-0.4-4.5,0.8-7.6,4.5-10.2
				c12.7-9.1,25.3-18.4,38.1-27.4c4.2-2.6,12-10.7,16.8-9.4c17.6,8,34.4,17.9,50.8,28.1c24.8,18.6,50.7,33.4,72.3,56.7
				c-16.2-2.8-29.4,7.8-44.7,0.2c-7-4.1-14.7-6.9-22.7-8.2c-30.6-4.7-55.1,7.5-74.7,30c-2.6,3-11,7.9-1.7,14.6
				c29.4,22.3,90.5,23.9,101.6-18.9c3.4-5.2,24.7-6.4,31.4-7.5c9.2-0.9,17.1-6.2,25.6,2.3c57.5,56.7,101.7,123.7,152.4,186.1
				c34.1,44.5,66.8,90.1,102.2,133.7c0.7,0.9,2.5,1,3.8,1.4c-8.7-40.1-42.6-69.2-63.6-103.3c-33.9-46.9-70.7-91.6-104.8-138.4
				c-5.3-7.8-13.4-13-8.1-25.7c6.3-15.1,7.9-32.2,13.1-47.8c8.8-39.6,33.1-29.9,43.2-75.6c3.2-18.1,7.3-53.2-8.2-66.2
				c-20.3-13.9-46.6,22.8-51.7,40.3c-7.5,23.8-8.2,46.9,1.6,70.5c2.3,5.6,11.1,7.8,8.5,14.6c-8.1,21-12.2,43.1-18.5,64.4
				c-57.8-63.2-35.9-42.1-47-121.5c-3.9-19.8,12.3-16.1,17.3-48.7c6.8-30.1-7.1-87.6-47-82c-6.4,1.4-10,7.6-12.2,13.1
				c-13.1,33.4-8.6,74.3,16.8,100.8c6.7,6.7,14.3,11.7,14,24c-1.4,17.7,5.6,36,4,53.6c-6.2-4.8-12-10.3-17.2-16.2
				c-12.5-15.1-33.4-21.6-40.4-42.7c-21-63.3-25.8-130.8-24.8-197c-3.1-22.6-1.4-21.8,19.8-29.2c51.4-31.3,72.2,6.7,119-12.7
				c15.9-5,26.5-26.5,10.3-37.5c-18.2-13.9-37.3-9-55.9-1.1c-11.6,5-19.5,16.7-30.2,21.6c-19.5,8.9-39.5,17-58.7,26.6
				c-3,1.5-5,0-4.8-4.2c0.7-13.7,0.4-27.4,1.6-41c0.5-5.6-2.1-12.7,5.7-16.4c8.4-4,16.5-8.8,24.8-13.2c7.9-4.2,16.8-13.2,23.5-11.8
				c25.4,5.5,49.8,8,75.1-0.7c30.3-11.4,29.5-48.2-6.4-52.5c-25.7-0.8-45.1,13-62,29.3c-16.1,15.5-35.6,25.5-53.2,38.5
				c-1.7,1.3-4.4,1.1-6.7,1.6c0-17.7,1.5-35.3,1.5-53c-0.5-11.7-1.2-25,12.8-28.2c22.4-6.6,36.8-27.2,63.7-24.9
				c25,5.5,83-11.1,81.3-43.4c-12.2-32-54.5-16-73.9,1.1c-10.2,8.4-16.8,20.3-26.7,28.2c-15.9,12.7-35.1,21.6-52.5,32.1
				c-6.3-3.8-1.7-15.2-1.6-21.4c1.7-17.7,2.7-35.4,3.1-53.1c0.3-10.5-0.4-22.2,3.8-31.3c17.8-27.6,37.6-57.5,34.2-92.4
				c-1.1-11.7-10.8-24.7-18.6-22.9c-49,8.8-50.8,71-30.5,106.9c1.9,3.7,6.9,7.6,6.2,10.4c-5.4,22.1-3.8,44.8-6.8,67.1
				c-0.9,6.6-3.4,13.6-1,21.1c1.4,4.3-2,10.1-3.2,15.2c-66.5-41.2-15.8-54.5-64.7-100.3c-22.4-24-60.2-10.7-47.2,27.8
				c6,22.8,22.8,37.4,43.6,47.6c12.5,6.1,28.7,1.8,39.1,14.8c8.8,11.8,29.1,15.1,28.6,33c-2.3,26.3-3.4,52.8-5.1,79.1
				c-0.2,2.4,3.9,4.9-0.3,7.4c-3.5,2.1-3.9-2.4-4.7-3c-18.5-16.5-40.6-28.7-53.8-51.3c-12-20.2-23.3-42-46.1-53
				c-8.1-3.9-16.9-5.6-23.9,3.1c-20.1,27.4,22.7,63.6,47.4,70.6c9.6,3.2,21,0.1,28.5,5.1c16,10.5,30.1,23.8,44.8,36.2
				c2.9,2.5,9.1,1.2,8.6,8c-0.8,10.5-1.3,21.1-1.2,31.6c0,5.3-2.7,4.3-5.9,4.2c-16.6-0.5-27.8-13.1-42.2-18.7
				c-18.9-7.3-37.6-12.8-56.3-1c-64.1,43,55.2,71.3,83.6,30.6c6-2.2,13.6-1.1,20.2,0.3c0.7,0.1,1.1,2.3,1,4.9
				c-4,13.5,0.5,20.8,1.5,33.9c-3.5,37,0.9,73.6,4.9,110.3c-12.8-14.8-39.4-17.9-37-43.7c-11-29.6-26.5-74.2-66.6-72.5
				c-32.6,0.2-21,31.4-12,49.9c11.6,24.2,35.8,48.5,64.3,46c1.8-0.2,2.7-3.6,5.7-0.7c8.7,8.7,18.4,16.3,29,22.7
				c7,4.3,16,8.5,19.4,15.1c6.8,13.2,5.6,29.4,12.6,43.1c0.4,0.8-0.1,2.2-0.2,3.3C603.1,770.6,540.5,739.9,473,746
				c-9.4,3.3-15.1,7.5-21.4-5.6c-33.3-50.7-63.3-103.5-86.4-159.7c-2.7-7.4-13.5-16.9,0.2-25c11.3-4.3,19.1-19.3,29.5-22
				c24.3-6.2,78.4-4.9,82.7-36.1c1.7-9-1.7-15.1-6.3-21.1c-17.8-18.6-41.3,3.3-56.2,15.3c-11.5,10-17.1,24.8-27.8,35
				c-10.1,9.6-22.4,17-33.6,25.3c-6.5-16.9-13.7-34.2-19.9-51.9c-3.9-11.1-15-23.8,2.3-33.2c13.9-7.6,21-24.3,40.3-25.7
				c24.6-1.8,48.5-7.5,65.3-29.5c6.4-8.3,10.8-14.7,5.6-24.5c-22.8-31.4-69.6,2.5-82,29.5c-2.7,5.3-0.9,13.9-4.6,17.3
				c-12.1,11.1-25.7,20.5-40.9,32.1c4.3-6.9-1.6-8.1-2.7-11.8c-5.6-17.8-11.6-35.5-17.4-53.2c-11.1-21.9-0.5-22.4,13.4-36.4
				c8-8.6,19-7.5,28.5-11c19.7-6.7,65.5-26.7,60.9-52.7c-21.1-40.9-69.5,3-79.7,29.4c-3.3,7.2-0.8,16.3-7.2,22
				c-7.7,7-16.3,13.1-24.3,19.9c-6.6-15.1-9-31.9-13.7-47.7c-4.4-17.6-9.9-34.1-5.5-53.5c6-26.3,21.1-78.6-14.9-89.7
				c-8.7-1.8-17.4,2.2-24.1,8.2c-21.1,18.8-12.1,53.6,0.6,74.7c6.5,10.8,18.8,19,23.9,28.8c9.6,18.7,11.9,40.6,17.2,60.8
				c0.2,0.8-0.4,1.8-0.6,2.6c-6.8-3.1-13.6-6.3-20.1-9.9c-14-8.1-31.3-8.2-43.3-22c-15.4-17.5-30.5-35.8-51.6-47.6
				c-6.6-3.7-23.9-2.5-26.2,3C118.7,318.8,176.6,345.5,205.5,343z M234,434.5c-17.6-0.5-33-2.7-47.1-9.7
				c-12.3-6.1-17.1-22.4-8.3-27.9c12.5-8.4,51.1,25.6,56.4,37.2L234,434.5z M266.4,526.7c-15.9,7.7-40.1,0.7-55.3-8
				c-6.4-3.8-5.8-10.4-8-14.9C203.7,474,259.1,517.3,266.4,526.7L266.4,526.7z M285,603.1c-0.7,1.8-1.7,2.2-2.8,2.1
				c-17,1.7-32,5.2-48.8-4.2c-12.1-5.3-12.6-29.5,3.5-26.1C250.8,576.8,284.8,585.7,285,603.1L285,603.1z M314.4,760.8
				c-25.7,10.4-53.7-5.3-69.8-24.4c22.6,3.8,45,14.4,67.5,20.5C314.3,757.6,317.1,757.8,314.4,760.8L314.4,760.8z M249.4,725.7
				c11.8-8.9,56.7,4.7,71.3,22.5L249.4,725.7z M211.5,836.3c6.8-21.8,48.2-41.6,69.7-32.7c-23.5,8.7-45.5,18.2-65.7,31.6
				C214.1,836.2,212.9,838,211.5,836.3z M292.7,817.9c-14.4,28.5-45.5,30.4-73.8,30.8C220.9,843.5,298.8,806.9,292.7,817.9
				L292.7,817.9z M385.5,809.5c-8.1,6.6-37.7,50.3-43.8,65.9C337.7,847.4,364.8,807.3,385.5,809.5z M361.1,870.6
				c-0.6,0.3-4.6,7.6-5.5-0.1c-0.2-1.7,4-3.5,5-5.8c8.8-17.7,20.2-34,33.8-48.3C400.5,838.4,377,862.2,361.1,870.6L361.1,870.6z
				 M441.8,873.2c-3.2-18.2,37.1-54.4,58.8-53.6L441.8,873.2z M447.8,882.3l61-54.8C502.7,855.4,467.9,885.5,447.8,882.3
				L447.8,882.3z M644.4,871.6L572,887.8C592.7,868.7,621.2,860.5,644.4,871.6z M646,887.4c-9.4,21.4-59,24.1-76.2,12
				c25.6-4.5,51.9-13.9,78.1-15.8C647.3,884.9,646.6,886.1,646,887.4z M838.3,749.9c8,33.1,7.1,64.7-17.3,93.5
				C826.4,811.3,836.1,781.3,838.3,749.9z M805,784.4c4.3-12.4,11.7-25.7,24.1-31.2c-6.1,33.3-16.8,66.1-22.6,99.7
				C796,830,797.9,807.2,805,784.4z M706.1,692.5c5.3,31.9,10.4,63,15.8,95.8C702.4,767.5,692.8,735.8,706.1,692.5L706.1,692.5z
				 M723.7,731.1c-3.1-14.5-5.2-28.9-9.3-43.3c16.3,3.5,29.4,31.7,30.7,47c1.2,14.7-2.9,28.3-6.4,42.1c-0.5,1.8-3,3.1-4.6,4.7
				C730.6,764.9,727.2,748,723.7,731.1L723.7,731.1z M727.2,553.8c16.4-9.9,50-26.7,63.7-4.9c3.7,8.7-4,11.8-9.2,13.6
				c-19.8,6.3-42,3.5-60.5-0.7C723.2,559,724.6,555.3,727.2,553.8L727.2,553.8z M714.8,479.3c18.5-13.4,45.5-35.1,68-19.7
				c12,8.8,2.3,20.9-8.4,25.4c-20.6,6.9-42.8,7.3-63.6,1.3C707.7,485.6,712.5,481,714.8,479.3L714.8,479.3z M768.3,357.8
				c8.6-2.5,17.2-4.2,25,3.4c5.1,4.9,3.1,8.5-0.2,12.6c-12.6,15.6-31,18.3-48.9,20.9c-8,1.1-16.5,5.6-24.4-0.9
				C732.2,377.2,747.7,363.9,768.3,357.8L768.3,357.8z M649.2,287.7c-4.2-15.2-3-30.4-0.3-45.7c1.5-8.4,19.2-25.9,27.5-24.8
				c7.7,1,3.8,8.9,6.4,13.1c1.2,2,0.2,5.2,0.2,7.9c-2.3,21.1-11.6,40.1-21,58.7c-2.8,2.1-4.7,9-6,7.3
				C652.4,299.7,650.7,293.4,649.2,287.7z M590,394.7c-74.1-15.6-63.3-123.8-4.8-42.7c6.5,12.7,6.7,26.7,11.4,39.7
				C600.7,402.6,591.7,394.9,590,394.7z M575.1,494.7c-26.7-1.4-51-19.1-61.3-44.8c-1.9-4.8-4.8-14.6,6.9-15
				c12-0.5,16.5,8.8,23.2,15.8c12.2,12.7,20.1,28.3,31,41.9C575.2,493.1,575.3,494.6,575.1,494.7L575.1,494.7z M596.6,582.3
				c-24.6-2.7-48.3-1.2-72.1,1.2C538.8,568.9,555.7,561.8,596.6,582.3L596.6,582.3z M540,600.9c-4.5-0.5-8.4-3.1-10.6-7
				c22.6-1.7,45.8-1.7,68.1,1.7C579.2,606.5,559.7,605.1,540,600.9z M525.3,645.8c19.6,26.4,38.6,48.7,62.3,70.5
				C551.2,706,535.3,680.9,525.3,645.8L525.3,645.8z M592.4,702.8c-21.8-19.1-40.2-41.2-59.8-63.2c21.6-4.3,33,8.5,42.8,23.5
				C582.4,675.3,591.3,688.7,592.4,702.8L592.4,702.8z M403.5,520.3c10.9-16.9,25.7-29.7,43.3-38.9c25.6-9.1,28.6,30.5-2.9,33.8
				c-12.8,1.7-25.4,4.9-38,7.5C404,523.2,402.5,522.1,403.5,520.3z M395.8,395.3c7.9-9.6,33.6-10.6,42.2-1.6
				c2.3,2.4,0.5,4.6-1.1,6.9c-14.7,23.5-39.8,28.2-65.4,30.7C374.5,415.3,386.6,406.3,395.8,395.3L395.8,395.3z M328.9,339.4
				c30.7-69.2,85.1-41.4,52.8-18.5c-12.5,10.2-26.8,18.1-42.1,23.4C334.8,344.8,323.6,348.2,328.9,339.4L328.9,339.4z M260.6,277.3
				c-0.2,1.3-1.3,2.4-2,3.6c-17.8-15.9-41.1-66.9-14.4-83.5c5.9-2.9,14-7.7,19.2,1.6c2.7,4.9,4,10.4,5.8,15.4
				C266.4,235.8,263.5,256.5,260.6,277.3L260.6,277.3z M143.1,286.1c12.5-10.1,54,37.6,61.6,48.1c-24.7,1.3-51.2-11.7-63-36.3
				C140.2,294.4,138.9,288.5,143.1,286.1z"/>
		</g>
	</g>
</g>
<g>
	<g id="Layer_1_2_">
		<g transform="matrix( 1, 0, 0, 1, 0,0) ">
			<g>
				<g id="Layer0_0_FILL_1_">
					<path d="M52,1548v15l-37,37h946l-37-37v-15H52 M52,52V37.7L14.3,0H0v1600h15l37-37v-15V52 M924,52V37.7L961.7,0H14.3L52,37.7
						V52H924 M976,0h-14.3L924,37.7V52v1496v15l37,37h15V0z"/>
				</g>
			</g>
			<g>
				<path id="Layer0_0_1_STROKES_1_" class="st4" d="M961,1600h15V0h-14.3L924,37.7V52v1496v15L961,1600H15H0V0h14.3h947.4 M52,52
					V37.7L14.3,0 M15,1600l37-37v-15V52h872 M924,1548H52"/>
			</g>
		</g>
	</g>
</g>
</svg>
