<svg xmlns="http://www.w3.org/2000/svg" xmlns:xlink="http://www.w3.org/1999/xlink" viewBox="0 0 976 1600">
<style type="text/css">
	.st0{fill:#FFFFFF;}
	.st1{clip-path:url(#SVGID_2_);}
	.st2{fill:#333333;}
	.st3{fill:#FF970D;}
	.st4{fill:#D81E1E;}
	.st5{fill:none;stroke:#333333;stroke-width:2;stroke-linecap:square;stroke-miterlimit:3;}
</style>
<g id="Paper_Backing">
	<path class="st0" d="M960,22v1556c0,3.3-2.7,6-6,6H22c-3.3,0-6-2.7-6-6V22c0-3.3,2.7-6,6-6h932C957.3,16,960,18.7,960,22z"/>
</g>
<g id="Wikipedia_Cropped">
	<g>
		<defs>
			<path id="SVGID_1_" d="M960,22v1556c0,3.3-2.7,6-6,6H22c-3.3,0-6-2.7-6-6V22c0-3.3,2.7-6,6-6h932C957.3,16,960,18.7,960,22z"/>
		</defs>
		<clipPath id="SVGID_2_">
			<use xlink:href="#SVGID_1_"  style="overflow:visible;"/>
		</clipPath>
		<g class="st1">
			<path class="st2" d="M0,1604c-7.7-3-7.6-587.7,0-590.7c25.7-6.4,46.2-30.3,74.5-36.8c5.5-3.2,19.7-1.2,18.7-10.7
				c7.1-13.5,29.3-15.3,41.5-19.1c3.3-0.7,5.4-3.9,4.7-7.2c-0.1-0.4-0.2-0.8-0.4-1.2c11.6-16.7,40.9-19.5,57.4-27
				c119.4-37.6,259.2-48.5,373.4-17.5c6.1-8.1,19.7,7.8,25.3-2c34.2-7.9,76.6,20.4,110.8,32.9c11.7-8.6,10.5-5.1,24.1-1
				c5.5,0,5.8-7.8,12-6.5c24.7,7.7,48.8,17.3,73.3,26.4c56.3,21.4,110.2,51.5,160.7,81.3c11.5-0.9,0.2,571.2,4,575.2
				C980.9,1611.9,4,1599.8,0,1604z"/>
			<path class="st3" d="M934,673.8c-74.5-9-130.3-62.8-204.5-74.2c-32.6,27.7-78.9,34.1-121.2,36.9c-6.1-2.1-55.3-8.5-38.9-17.1
				c9.1,0.2,82.6-13.3,48-23.7c-47.2-3-95,13.5-143.1,4.3c-45.9-13.1,49.5-20,55-27.1c-1.5-12.6-10.7-17.4,9.9-19.8
				c46.2,8.3,8.8-14.5,36.9-20.8c22,3.7,21.2,13.8,30.7-10.7c7.9-8.3,16,2.3,23.8,3.8c10.5,0.4,2.1-31.8,29.1-9.9
				c12.7,10.3,15.9-24.3,39.6-8.3c47.8-27.3,11.1,17.4,50.4-45.2c11.5-14.1,31.5-13.8,45.2-7c8.1-2.3,15.6-6.7,23.6-6.9
				c16.4,1.4-6.4,21.4,6.1,26.2c4.4,1.6,5.3,6.6,7.2,9.8c19.7,28.4-45.7,17-9.2,44.2c1.4,15,25.4,10,26.1,25.2
				c0.1,4.2,4.3,5.9,8,5.8c12.2-0.1,22.4,4,22.7,16.9c7.6,5,18.3,3.9,21.7,14c-0.8,25,12.3,10.6,20.8,28.5c1.8,7-8.3,8.8-8.2,15.1
				c8.8,12.9,29.4,16.2,35.5,30.9l0,0C955.3,674.7,939.8,673.5,934,673.8z M532.3,533.8c-53.7-3.7-96.5-39.3-145.4-55.5
				c-19.7-5.6-44.1-21.8-64-16.4c-36.7,29.3-88.3,38.3-132.5,31c-64.9-13.8,11.4-15.3,31.7-25.9c27.7-28.5-117,2.1-131.5-4.1
				c-44.1-2.2-34.2-16.9,1.9-21.5c15.4-6.7,44.1,4.6,31.5-21.6c7.9-14.5,27.8-0.3,38.5-6.6c1.6-8.6-2.6-20.8,11.9-20.6
				c22.7,4.1,20.7,13.2,30.8-10.9c8.8-8.9,16.9,5.3,25.6,3.7c2.7-1.1,4.3-3.9,4-6.8c2-20.1,19.9-4.7,27.9,0
				c11.2-7.7,20-22.3,35-11.4c7.4-1.8,13.4-13.6,22.5-8.9c2.8,1.7,6.5,0.8,8.2-2c0.2-0.4,0.4-0.8,0.6-1.2
				c21.5-61,49.3-34.3,85.9-46.5c15.6-0.8,1.9,16,4.1,22.9c3.7,3.9,9.5,6.4,10.5,12.3c17.1,23.5-17.6,17.3-21,32.8
				c0.9,6.1,9.4,5.4,11.6,10.9c4.2,3.4,1.3,11.1,8.3,11.5c17-1,13.9,15.9,23.5,20.5c8.3,0.5,23.8,1,24.8,12.4
				c1,12.6,26.9,6.7,23.7,26.1c-0.1,18.3,34.6,7.6,11.6,36.3C520.6,505.6,575.7,532.8,532.3,533.8z M946.3,327.8
				c-74.1-5.8-136.8-71.6-209.8-72.1c-35.1,29.6-90.4,39.2-133.8,30.9c-59-13.4,17.6-16,33.7-25.2c31.9-28.8-118.8,1.4-132.2-4.5
				c-43.6-2.2-33.5-17.2,2-21.5c16.7-7,43.7,4.8,31.7-21.8c6.4-17,40.8,6.9,38.9-13.1c-3.6-5.4,4.2-15,11.4-14.1
				c8.6-0.9,15.8,7.9,23.7,4.8c5.5-15.7,10.6-25.2,28-12.3c18.3,6.5-2.8-34.9,36.8-6.4c11.1-7.7,20-22.3,34.9-11.5
				c8.5-3.6,15.2-14,25.7-7.9c20.5-29.3,28.8-50.1,54.2-48c14.1,4.3,25.4,0.8,39.1-2.8c10.4,0.1,4.7,12.9,2.3,18.2
				c-2,7.6,19,20.7,14.3,27.2c1.5,11.3-34.7,14.3-19.2,26.6c2.2,0.4,7.3,7.1,8.2,12.3c3.3,10.1,25.7,7.3,24,20.6
				c3.1,12.8,24.7,1.7,29.4,14.8c2.2,3.7-0.6,10.5,6.1,11c25.2,3.5,12.8,18.9,21.6,27.1c7.3,2.6,20.6,10.3,15.5,19.3
				c-2.6,2.3-7.6,4.1-7.2,8.5C934.3,299.6,989.9,326.7,946.3,327.8L946.3,327.8z"/>
			<path class="st4" d="M453.8,714.3c-14.6-9,40.4-79.9,56.7-81.5c11.8-11.6,88.3-9.3,76.4,8.9C536.8,656.3,495,683.2,453.8,714.3z
				 M51.7,574.4c-14.7-9,40.8-80.3,57.1-81.9c10.7-11.3,90.8-9.1,76,9.4C134.9,515.7,92.3,543.9,51.7,574.4z M465.6,368.6
				c-14.9-8,41-80.6,57-81.8c10.3-13.9,101.9-4.9,72.5,9.9C546.7,312.2,505,337.8,465.6,368.6z"/>
			<path d="M976.4,1028.5c-4.6,5.3-31.6-20.2-39.8-22.6c-62.5-34.3-129.1-65.1-197.4-84.5c61.8,31.8,114.2,79.4,151.8,137.9
				c-50.3-54.6-104.7-110.8-176-136.7c0.3,3.7,3.8,3.6,6,5.1c44.3,30,72.9,73.1,102.5,116.6c-3.6,0.1-13.8-9.3-16.4-12.9
				c-17.9-25.1-37.8-48.7-59.5-70.5c-34.6-33.7-101.6-63.9-149-67.3c64.7,25.1,118.7,72.1,156.9,129.6c4.1,4.7-0.7,10.2-4.1,3.7
				c-31.8-36.3-63-74-106-97.7c-24.2-12.1-44.8-28.1-72.1-33.7c40,19.8,73.5,48.3,102,82.3c7.7,9.5,14.8,19.4,22.2,29.2
				c1.6,2.1,0.3,3.5-1,4.7c-0.3,0.3-2.2-0.7-2.9-1.5c-29.2-34.5-60.6-67.1-98.7-91.8c-69.9-47-155.8-42.1-235.8-34.9
				c-74.8,8.5-147.7,19.6-216.4,53.8c36-3.8,66.9-2.7,101.1,6.8c52.2,9.9,100.5,34.4,135.3,75c2.7,4-4.8,3.7-6.4,1
				c-45.7-49.1-114.9-68-179.3-76.3c-27.3-1.1-72.7,6.5-96.4,21.4c81.8-9.8,177.1,2.8,235.9,65.4c-41.5-34.3-94-48-146.1-56.2
				c-66.1-10.8-126.6,2.9-180.1,43.3c-1.7,1.1-3.7,2.8-5.2,1c-0.8-1.4,0.1-4,0.9-5.2c7.1-9.8,18.2-14.7,27.5-21.8
				c108.5-86.3,248.5-117.4,384.4-123.4c140-6.9,281.3,15,410.1,71.2C851.9,952.1,972.7,1005,976.4,1028.5z M972,1362.8
				c-150.5-28.4-309,31.4-426.1,124.9c-22,18.7-79.8,69.8-79.9,97.8c8.2-1.8,14.4-17,21.4-22.6c27.8-29.6,56.6-57.8,89-82.3
				c34.7-28.3,79.6-39.3,123-45.2c56.3-9.1,113.3-0.1,166.5,17.7c-0.7-1.8-0.9-4.5-2.1-5.2c-11.9-6-23.9-11.4-36.7-15.2
				c-58.6-14.9-119.7-15.1-177.6,2.7c32.5-22.9,77.7-23.2,116.4-28.8c53.5-5.5,106.9,1.9,157.6,19.3c1.2,0.4,3-0.8,4.5-1.2
				c-21.8-17.8-55.3-21.1-82.8-25.6c-12.8-1.4-26.1,0-38.5-2.9c-12-2.8-23.4,0.3-35.2-0.6c-10.3-0.8-20.8,2.1-31.2,3.3
				c-0.9,0.1-1.9-0.8-2.8-1.2c71.5-31.4,156.1-40.2,233.8-28.5C976.1,1371.4,976.7,1363.7,972,1362.8z M973.8,1158
				c-93.1-78.4-219.3-104.7-338.4-106.7c-98.1-3.7-203.7,6.7-284.5,66.3c-102.8-10.4-212.7-8.4-307.4,37.5
				c-14.6,7-34.5,10.8-42,26.8c0.1,1.8,4,3,4.7,2.6c6.6-4.9,15.3-5.4,21.9-9.4c15-9.2,31.8-10.3,48-11.6
				c54.4-8.2,109.9,3.6,159.2,28.4c4.2,2.3,6.5-0.8,2.7-3.3c-45.5-34.7-105.2-40.8-160.4-35.3c48.2-20.4,101-24.9,152.2-28.8
				c15.1-4,27.4,2.4,40,6.3c72.5,24.8,122.6,69.8,165.3,131.3c2.3-5.1-1.3-10.8-3.6-15.3c-36.3-56-88.7-102.6-153.4-122.6
				c27.3-3,51.4,11.2,74.7,22.8c50.6,25.1,89.3,69.3,124.6,112.6c4.6,8.5,12.1,3.4,5-3.9c-31.3-45.7-65.8-82.6-113.9-114
				c62.4,22,115.2,60.6,166.4,101.3c3.9,2.7,7.2,0.6,2.8-2.7c-44.2-47.3-101-83.6-161.3-106.7c106.6,19.7,211.5,60.4,288.9,139.1
				c1.3-3.4,1.2-5.6-1.1-7.8c-26.3-26.3-52.2-53.7-85.3-71.3c-64.1-39.4-137.2-59.3-210.4-73.8c1.8-2.2,3.2-5.5,5.5-6.5
				c46.6-22,96.9-39.7,148.2-45.6c100.7-13.9,224,63.8,287.8,138.4c1.3,1.5,3.1,3.6,5.5,1.8c6.3-2.5-9.6-17.4-11.6-21.1
				c-52.3-58.8-121.8-101.7-197.5-123c50.1-3.7,98.1,13.2,143.2,33.3c64.2,24.4,116.1,70.9,165.7,117.1c3.3,3.3,7.8,9.8,11.6,6.4
				c4.8-4.3-1.1-8.6-5.1-11.9c-59.7-62-132.5-114.5-215.4-141.1c74,6.3,146.9,29,212.8,62.9c17.8,9.5,34.7,20.7,51.7,31.5
				c2.5,1.6,3.2-0.2,4.7-0.4C974.9,1160.3,974.7,1158.7,973.8,1158z M453.2,377.7c11.1-40.4,31.6-83.6,72.6-100.1
				c36-12.3,75.3-9.7,111-24c-11.1,2.4-22.3,0.8-33.5,1.6c-30.3,2-61.2,8.3-91.5,7.1c-13.4-1.7-40.8,1.9-44.4-15.9
				c2.3-13.8,60.5-20.6,73.3-20.1c-6.3-2.2-9-6.8-8.3-12.8c3.2-15,28.8-14.5,39.9-8.8c0.6,0.3,2.5,0.9,2.2-1.4
				c-5-28.9,20.5-20.5,37.8-13.1c-2.3-26.7,17.6-24.4,33.7-12c-4.7-25.3,16.6-26.3,27.8-11.2c8.5,11.7,10.2-30.4,38.8-8
				c2.1,1.9,2,0.3,2.2-1.6c3.1-8.7,20.2-17.1,22.8-3.8c10.7-29.3,34.4-67.2,69.8-48.6c8.3,0.1,23.5-12.4,30.5,0.3
				c0.7,1.2,1.3,3.3,0.7,4.3c-11.1,25,44.5,35.4-10.5,58.1c4.9,5.1,12.3,8.3,13.3,17c0.4,3.4,5.2,0.7,8,1.5
				c9.1,2.7,13.9,6.9,13.6,16.9c0,12.3,29.1-5.7,32,21.6c0.6,5.4,7.2,3.6,10.8,5.6c8.6,4.9,12.5,10.9,10.3,20.8
				c-0.6,2.6,2.4,2.8,4.2,3.6c9.5,4.1,19.8,7.5,18.4,21c-0.8,7.1-7.4,7.2-12,10c78.3,43,35.1,60.3-28.1,36
				c-53.5-17.2-100.3-49.6-154.5-64.4c-7.2-2.2-11.5,6.6-16.3,10.4c-35.8,27.6-81.6,24.4-123.5,32.8
				c-51.2,13.9-99.2,39.1-137.4,76.4C464.5,381.5,451.9,388.4,453.2,377.7z M834.3,281.8c-41.4-40.7-78.8-56-109.8-49.8
				c3.7,2.9,7.7,5.8,11.4,8.9s6.8,8.8,11,9.7C778.2,257.2,804.3,269.1,834.3,281.8L834.3,281.8z M899.9,285.1
				c-15.7-5.8-32.3-5.4-48.7-5.9c-2-0.1-6.1-1.4-5.8,1.2c0.5,3.7,1.4,8.5,5.6,10.4c35.2,13.6,68.2,37.5,108,31.8
				C946,301.8,921.5,293.7,899.9,285.1L899.9,285.1z M884.1,258.7c-17-0.1-34-0.1-48.7,9.8c7.9,5.1,18.2,0.2,27,0.9
				c18.3-1,36.5,2.8,52.9,11c5.6,2.8,10.7-0.7,15.1-4.2C923.3,259.8,899.7,259.5,884.1,258.7L884.1,258.7z M885.5,236.5
				c-21.5-0.1-43.9,7.3-59.8,21.9c2.7,2.6,2.6,2.3,10.2-1.1c24.1-11.9,49.1-8.5,74.6-6.8C909.5,237.2,895.7,236.4,885.5,236.5
				L885.5,236.5z M852.1,219.8c-15.2,4.7-26,16-38.1,25.2c-1.2,0.9-4.4,1.7-2,3.7c8.4,13.3,20.8-20.4,66.9-21.8
				c2.7-0.1,5.3-1.4,7.9-2.2c-1.7-1.9-3.2-4.9-5.2-5.4C872.8,217.8,862.5,215.2,852.1,219.8z M833.1,197.6
				c-16.3,8.8-28.1,22.3-39.5,36.4c-0.8,1-2.1,1.8,0.1,2.9c4.3,2.1,8.4,4.5,12.9,7c-0.6-7.6,7.6-8.3,11-13.3
				c6.8-10.3,18.5-15,29.7-20c3.1-1.4,9.6,0.8,9-4.1C855.5,198.9,840.2,193.8,833.1,197.6L833.1,197.6z M826.3,178
				c-24.2,2-35,29.1-43.5,47.9c-0.7,1.9-3.3,3.3,0.2,4.8c2.7,1.2,4.8-0.4,5.7-2.5c7.6-17.5,22.1-28.4,37.2-38.6
				c2.1-1.4,7.7-0.9,6.2-3.8C830.6,182.6,827.6,177.7,826.3,178z M833.1,132.4c-10.1,11.4-17.7,26.4-34.3,29.4
				c-2.3,0.3-3.9,6-5.6,9.3c-0.2,0.4,0.8,1.5,1.3,2.3c12.1-5.3,23.7-10,34.9-15.4c9.5-4.6,21.6-9,7.8-22.3
				C835.8,134.2,835,130.5,833.1,132.4L833.1,132.4z M778.4,132.8c7.6,0.7,10.8-8.5,21.5-3.3c7.3,4.6-1.3,14.3,2.1,21.3
				c17-7.6,25.1-24.6,30.7-41.2C833.7,95.6,784.7,128,778.4,132.8L778.4,132.8z M745.8,153.5c19.8-11.1,32.4-32.7,55.2-43.5
				C775,104.8,755.6,120.9,745.8,153.5z M739.2,176.8c-0.1,0.3,0.6,0.8,1,1.3c8.2-5.8,16.6-14.9,27.3-12.6
				c9.4,2.8,3.5,12.1,6.3,18.3c11.8-11.2,17.7-27.7,20.4-43.3c1.1-4.3,0.3-4.7-6.8-1.3C769.2,147.9,747,155.6,739.2,176.8
				L739.2,176.8z M725.2,197.1c-5.1,4.5-11.9,9.2-16,14.4c-2.6,4.7,7.2,4.5,8,8.1c0.3,1.4,1.3,5.2,4.6,5.2
				c16.8-5.6,33.7-5.6,49.6,1.7c1.3,0.6,3,1.6,3.2-1c1.8-18.5,15.5-30.6,24.2-45.9c-21.8,0.3-28.5,22.9-37.3,39.5
				c-0.7,1.2-3.1,2.5-4.2,2.1c-2.5-0.7-1.4-2.8-0.6-4.5c5.7-13.1,11.8-28.6,8.2-42.9C750.4,177.1,737.4,188.5,725.2,197.1
				L725.2,197.1z M708.6,201.6c10.5-9.5,19-14.7,22.3-24.3c1.9-5.5,7.3-10.5,4.2-17c-3.6-12.6-18.8,1.2-19.5,8.8
				C713.5,178.5,716.5,188.8,708.6,201.6L708.6,201.6z M689.2,210.9c4.7-1,11,4.7,13.3,0.6c6.1-11.1,7.3-25,6.3-37.4
				c-2.2-5.1-0.3-14.4-9.9-12.8c-7.7,1.3-12.7,7.4-15.6,14.4C678.2,188.5,687.7,199.1,689.2,210.9L689.2,210.9z M653,175.1
				c1.8,8.5,17.1,42,29.2,37.5c-1.1-11.6-7.8-24.4-11.3-36c-2.5-6.7-7.5-11-15.2-9.5C650.2,168.2,654.6,173,653,175.1z M620.6,192.1
				c4.9,8.6,13.9,11.8,20,18.5c2.5,2.8,1.5,10.1,8.5,8.4c5.4-1.6,10.8-3,16.2-4.7c1.2-0.4,2.1-1.5,0.7-3.1
				c-9.9-11-18-23.8-31.5-30.9c-3.6-1.9-8.2-6-12.3-2C618.3,181.9,617.2,186,620.6,192.1L620.6,192.1z M584.5,204
				c6,10.8,18.1,10.2,27.3,15c16.5,14,12,9.3,31.1,1.1c-11.5-8.5-49.2-39.3-61.8-26.1C577.7,198.8,582.8,200.8,584.5,204z
				 M594.5,244.7c-24.5-17.9-59.1-10.2-87.4-5.5c-9.5,2.1-19.9,2-29.1,9.3c38.1,10.1,74.8,0.4,112.9-1.7
				C592.2,246.8,593.4,245.5,594.5,244.7L594.5,244.7z M616.2,231.5c-20.6-8-40.9-20.8-63.9-20.3c-10.9,0.3-14.8,3.6-4.1,11.8
				c8.4,7.8,19.2,3.9,28.8,5.1C590.2,229.8,602.2,245.1,616.2,231.5L616.2,231.5z M672,239.6c11.5-6.1,21.7-19.8,37.9-11.4
				c0.3,0.2,1.1-0.6,1.7-0.9c-22.3-15.9-81.5,4.6-102.8,18.1C629.8,244,651.8,249.6,672,239.6L672,239.6z M584,278
				c15,0.1,25.5,10.3,39.4,8.5c37.8-5.7,83-5,111.2-35.1c-2.5-1.4-5.5-4.4-7.2-3.8c-9.9,3.2-17-17.1-33.4-10.3
				C659.4,258,625,272.2,584,278z M495.3,312.9c5.2-0.8,8.5,3.5,12.7,4.7c5.6,1.5,6,12.4,12.4,8.4c24.5-14.3,50.4-25.7,77.5-34.2
				C561.5,274.9,521.6,282.3,495.3,312.9L495.3,312.9z M465.5,364.6c16.9-12.5,27.1-24,45.2-32.4c-8.4-5.5-17.5-20.4-26.8-3.5
				C478,339.7,472.5,351,465.5,364.6L465.5,364.6z M574,612.7c17.2-2.7,33.9-7.8,50.8-12.9c-11.7,3.2-23.6,0.1-35.3,2.1
				c-16.4,3.4-33.9,0.2-50.2,3.7c-13,2.3-26.3,3.2-39.5,2.5c-13.3-1.1-40.9,2-44.2-15.8c2.1-13.3,61-21.1,73.4-19.8
				c-14.5-5.8-8.7-22.6,5.1-23.9c14.3-5.6,30.8,6,28.6,0.7c-10.2-16,12-24.9,24.7-17.9c4.2,2.1,9.5,1.6,13.1,6
				c-1.5-28.1,16.4-26.1,34-13.2c-5.5-24.6,16.7-26.6,27.7-11.1c9.1,11.1,10.5-30.8,38.8-8c2.3,1.9,1.9,0.1,2.1-1.8
				c2.9-8.4,20.2-16.8,22.6-4.3c11.6-27.8,34.5-66.9,69.8-48.3c16.4-1.4,34.2-16.8,29.3,12.5c-1.5,8.3,5.1,9.1,7.9,12.9
				c16.7,19.5,4.6,30.4-16.3,37.4c5.2,5.3,12.4,8.5,13.5,17.2c0.4,3.2,5.2,0.6,8.1,1.5c8.7,2.7,13.9,6.6,13.4,16.5
				c-0.6,13.6,26.3-6.7,32,21.5c1.1,6,8,3.7,11.9,6.3c7.5,5,11.5,11.1,9.5,20.3c-0.4,1.8,0.5,2.3,4.1,3.9c9.3,4,19.4,7.2,18.3,20.6
				c-0.6,7.5-7.4,7.5-11.9,10.4c13.2,6.7,44.1,24,41.3,40.2c-14.1,17.3-51.3,0-69.5-4.3c-53.2-17.3-100-49.3-154-64.2
				c-7.7-2.4-11.7,7.2-17.6,11c-43.1,31.8-98.8,21.5-146.8,39.1c-34,12.5-65.9,31.1-95,52.8c-7.9,5.8-15.3,12.3-22.2,19.3
				c-3,3.1-6.1,4.3-9,2.8c-4-2-0.8-5.8,0-8.5c6.7-25.5,16.6-49.7,34.4-69.5C499.5,621.3,539.5,617.4,574,612.7z M498.8,678.5
				c-8.4-7.4-19.3-19.8-27.5-2.9c-5.3,10.9-10.9,21.7-17.4,34.7C470.3,698.5,481.2,686.5,498.8,678.5L498.8,678.5z M585.9,637.8
				c-36.5-16.9-76.4-9.5-102.8,21.3c5.2-1,8.3,2.9,12.1,3.9c6,1.5,6.9,12.9,13.2,8.9C532.8,657.7,558.8,646.2,585.9,637.8
				L585.9,637.8z M822.6,628c-38.8-38.7-77.8-56.1-110.3-50.4c4.4,3.6,8.5,7.3,13,10.6c3.6,2.7,4.9,8,10.1,8.8
				C766.9,602.9,792.6,615.2,822.6,628z M888.3,631.1c-15.8-5.9-32.6-5.5-49.1-6c-2,0-6.1-1.5-5.7,1.3c0.5,3.7,1.4,8.4,5.7,10.4
				c34.9,13.7,68.3,37.5,107.7,31.8C934.4,647.8,909.5,639.8,888.3,631.1L888.3,631.1z M874,604.7c-17.5-0.3-35.2-0.1-50.8,9.4
				c6.1,8,31.6-2.1,38.7,0.9c16.2,2.9,29.3,4.7,41,11.2c5.4,3,11,0.4,14.1-3.2C924.1,610.8,882.4,603.2,874,604.7z M873.8,582.5
				c-21.7,0-44,7.2-60.1,22.2c4.2,8.1,7.3-0.1,10.9-1.7c24-11.8,48.8-7.9,74.1-6.6C897.1,583.3,884,582.3,873.8,582.5L873.8,582.5z
				 M840.1,565.8c-15.2,4.7-26,16-38.1,25.2c-1.2,0.9-4.4,1.7-2,3.7c8.4,13.3,20.7-20.4,66.9-21.8c2.7-0.1,5.3-1.4,7.9-2.2
				c-1.7-1.8-3.2-4.8-5.3-5.3C860.7,563.8,850.5,561.2,840.1,565.8L840.1,565.8z M820.9,543.8c-16.3,8.6-27.9,22.2-39.2,36.1
				c-0.8,0.9-2,1.4-0.2,3c21.5,17.1,18.4-20,63.4-29C844.4,545.8,828.3,539.9,820.9,543.8z M811.4,524.8
				c-20.9,1.2-33.2,30.6-40.5,47.2c-0.6,1.6-3.3,2.8-0.1,4.5c2.9,1.5,5.1-0.2,6.1-2.4c8.1-19.5,27.6-32.6,43.6-42
				C818.1,528.8,815.7,523.7,811.4,524.8z M821.2,478.9c-5.9,4.1-9,12-14.4,17.1s-12.2,8.8-18.4,13.1l-2-2.1
				c-1.7,3.9-4.4,7.4-4.8,11.7c11.8-3.7,24.4-7.9,34.6-14.5c5.5-3.8,22.6-2.8,12.4-17.8C826.7,483.6,825.5,475.9,821.2,478.9z
				 M765.7,479.3c9.3-0.9,12.6-8.6,22.2-3.7c7.3,4.6-1.3,14.2,2.1,21.3c17-7.6,25.1-24.6,30.8-41.1
				C821.3,441.7,772.9,473.9,765.7,479.3L765.7,479.3z M732.8,502.1c4.6-5.6,9.4-8.5,13.8-12c13.6-10.5,23.8-25.1,39.8-32.8
				c1.5-0.7,1.7-2.1-0.2-2.1c-12.1-0.4-25.3-1.3-33.2,9.4C745.1,475.5,737.3,487,732.8,502.1z M727.4,523.4c1.1-0.4,2.5-0.5,3.3-1.2
				c6-5.9,13.5-8.8,20.3-11.4c13.7,0.9,8.7,11,10.6,18.9c10.6-8.5,15.3-22.3,18.8-34.8c0.8-3,4-12.5,0.1-11
				C760.6,491.9,734.3,500.1,727.4,523.4L727.4,523.4z M713,543.1c-5,4.4-11.6,9.3-15.8,14.1c-2.5,4.4,5.7,5.1,7.3,7.7
				c1.1,1.8,1.8,5.8,5.2,5.8c16.7-5.5,33.5-5.5,49.4,1.5c1.4,0.6,3.2,1.7,3.4-0.5c1.6-18.7,15.6-30.9,24.3-46.4
				c-3.5-0.2-8.4-1.6-9.3-0.3c-5.9,8.6-17.2,12.4-20.2,23.5c-1.3,4.9-4,9.5-6.3,14.1c-1.2,2.5-3,6.2-5.9,4.3c-3.3-2-0.5-5.4,0.8-7.7
				c6.2-11.7,8-24.3,8-37.2C755.1,511,716.9,540.6,713,543.1z M699.5,544.1c7.5-5.8,15.8-11,19.2-20c2.1-5.7,7.4-11.2,4.3-18
				c-3.6-12.5-19.2,2-19.5,9.7C701.7,525,704.5,535,699.5,544.1L699.5,544.1z M677.7,556.7c0.3,1.5,7.4,1.6,11.4,2.1
				c1.4-0.1,2.2-2.1,2.6-3.3c4.1-8.8,12.1-49.6-4.7-48c-7.9,0.3-13,7.3-15.7,14.6C666.5,534.7,675.2,545.2,677.7,556.7z
				 M663.5,558.4c0.6,1.1,4.3,0.3,6.6,0.3c0.3-0.7,0.4-1.6,0.3-2.4c-2.4-7.2-4.7-14.5-7.6-21.6c-3.5-8.6-3.4-20.1-14.7-21.7
				c-6.9-0.1-6.5-0.1-7.2,5.2C638.6,537.1,655.6,545.2,663.5,558.4L663.5,558.4z M608.7,538.4c4.4,7.9,12.4,11,18.3,16.7
				c3.3,3.2,2.5,11,11.2,9.6c4.1-1.2,9.5-2.6,14.9-4.3c1.2-0.4,2.4-1.5,1-3.1c-10-11.1-18.2-24.1-31.9-31.2c-3.5-1.8-8.1-6-12.3-1.7
				C606.1,528.4,605.5,532.5,608.7,538.4L608.7,538.4z M572.5,550c6,10.8,18.1,10.2,27.3,15c16.5,14,12,9.3,31.1,1.1
				c-11.5-8.5-49.2-39.3-61.8-26.1C565.7,544.8,570.8,546.8,572.5,550z M582.6,590.7c-24.8-17.9-59.1-10.3-87.5-5.5
				c-9.5,2.1-19.9,2-29,9.3c38.2,10,74.8,0.4,112.9-1.7C580.2,592.8,581.4,591.4,582.6,590.7L582.6,590.7z M604.3,577.5
				c-17.8-6.4-58.2-30.4-74.7-16.3c8.4,15.5,21.2,12.2,35.5,12.9C578.2,575.7,590.2,591,604.3,577.5L604.3,577.5z M638.9,592.7
				c7.1,1.5,16-5.8,24.2-9c10.9-4.3,19.3-17.4,33.8-9.6c0.6,0.3,1.8-0.4,2.7-0.7c-23.2-16.7-81.7,6.5-107.2,19.7
				c6-0.7,8.4-1.3,10.7-1.1C614.9,592.8,626.6,590,638.9,592.7L638.9,592.7z M569.9,623.5c16.8,1.2,26.5,9.3,41.2,8.9
				c37.5-4.1,78.4-5.9,109-31.3c9.3-7-13.5-7-17.7-13.2c-6.7-5.8-15.8-8.7-24.7-2.3C644.9,605.6,611.6,618.5,569.9,623.5
				L569.9,623.5z M417,1446.1c-48.9-40.9-106.4-75-169.4-87.7c-26.6-3.1-52.7-10.5-79.4-12.2c77-12.9,154.7,7.2,225.7,37
				c25.8,9.7,50,22.4,71.6,39.6c13.8,9.8,24.3,24.7,40,31.5c-48.7-79.3-219-129-308.9-123.3l-0.4-1.7c73-21.8,148.8-35,225-37.6
				c26.6-1.2,53.3,0.8,79.9,1.9c20.9,0.3,44,8.1,64,3c-32.2-10.2-67.7-11.8-101.6-14.4c-18.9-2.6-37.7-1.1-56.3-0.2
				c-89.4,4.1-178.5,19-261.9,52.3c-51.6,24.6-115.8,46.3-144.6,98.1c23.7-9.3,40.2-36,65.6-43c75.6-24.2,145.5-5.3,214.9,27.6
				c34.9,15.4,67,37.1,92.9,65.3c8.3,10,19.3,17.7,29.1,26.3c5.6,4.9,8.8,12.3,16.7,14.5c-72.8-102.2-203.6-176.4-332.6-148.4
				c56.6-34.2,123.5-12.6,183.3,0.1c74.4,22.7,140,68.7,189.7,128.2C481,1514.3,421.1,1447,417,1446.1z M525.5,309.3
				c4.6-0.5,9.7,0.4,9.6-6c0.1-4.9-2.6-6.2-6.8-6.3C522,295.5,520.8,309.4,525.5,309.3z M516.4,642.9c-4.3-0.1-5.6,2.6-5.6,6.7
				c-0.3,3.8,0.6,6.7,4.5,5.4c4.4,0.3,7.7-0.4,7.8-5.7C523.2,644.5,520.6,643,516.4,642.9z M41.6,574.6
				c35.3-111.8,89.2-87.3,181.3-113.9c-0.1-0.5-0.2-1-0.3-1.5c-41.8,2.8-84,9.9-125.8,9.1c-11.8-0.8-24.9,0.4-36.4-6.4
				c-32.2-20.6,55.1-30.5,66.4-29.3c-6.8-3-10.1-7.7-7.9-14.8c6.2-13,28-12,39.3-7c0.5,0.2,2.2-0.9,2.2-1.3
				c-3.9-28.9,20.4-20.8,37.9-13.1c-2.3-26.7,17.6-24.6,33.7-12.1c-4-25.6,16.5-26,27.8-11.1c8.5,11.6,10.8-30.8,38.8-8
				c2.1,1.9,2,0.5,2.3-1.5c3.6-9.3,21-17.8,23.1-2c8.8-31.3,34.7-68.3,69.5-50.5c8.4,0.1,23.3-12.3,30.5,0.3
				c0.7,1.2,1.3,3.3,0.8,4.3c-11.8,23.9,45.2,36-10.6,58.1c4.9,5.2,12.3,8.3,13.3,17c0.4,3.5,5.2,0.7,8,1.6c9,2.7,14,6.8,13.6,16.9
				c-0.1,12.4,29.1-5.7,32.1,21.6c0.7,5.5,7.5,3.6,11.2,5.8c8.3,4.9,12.1,11,10,20.7c-0.6,2.7,2.3,2.8,4.1,3.6
				c9.5,4.1,19.8,7.4,18.4,21c-0.7,7.1-7.3,7.2-12,10c14.4,5.6,65.8,40,28.6,47.2c-61.6-1.6-114.5-38.5-169.9-60.9
				c-13.5-5.9-27.3-10.8-41.5-14.8c-7.2-2-11.4,6.7-16.1,10.4c-35.8,27.7-81.6,24.4-123.5,32.8c-21.1,5.3-41.6,13.1-60.9,23.1
				c-27.4,14.2-54.3,30.1-76,53c-2.4,2.6-5.9,6-8.8,5.9C31.1,588,40.7,577.2,41.6,574.6z M422.3,488.5
				c-34.5-30.1-66-56.6-112.2-50.9c4.5,3.6,8.8,6.9,13,10.4c3.3,2.8,6,7.9,9.5,8.6C365.7,463.3,389.7,475.5,422.3,488.5z
				 M485.9,491.1c-15.7-5.8-32.3-5.5-48.7-5.9c-2-0.1-6.1-1.4-5.8,1.2c0.4,3.7,1.4,8.5,5.6,10.5c35.1,13.6,68.2,37.4,108,31.8
				C532,507.8,507.5,499.7,485.9,491.1L485.9,491.1z M454.8,464.3c-11.8-0.1-23,3.9-33.6,9.6c4.6,7,20.3-0.3,28,1.2
				c18.2,0.1,35.9,2.9,52.4,11.5c5,2.6,10.3-0.2,13.4-3.3c3.5-3.6-1.1-7-4-9C493.9,462.4,474,464.5,454.8,464.3L454.8,464.3z
				 M471.7,442.5c-21.7-0.1-43.9,7.3-60,22c3.8,7.4,6.5,0.6,10.2-1.1c24.1-12.4,49.4-8.2,74.9-7.1
				C494.8,443.2,481.9,442.3,471.7,442.5L471.7,442.5z M437.8,425.8c-14.9,5-25.6,16-37.6,25.1c-1.3,1-4.4,1.7-2.3,3.6
				c8.4,13.7,21-20.5,67.4-21.7c2.5-0.1,5.1-1.3,7.6-2c-1.8-1.9-3.4-5-5.6-5.5C456,422.9,445.7,422.3,437.8,425.8L437.8,425.8z
				 M417.7,404.8c-15.9,8.2-26.6,21.6-37.6,34.8c-0.7,0.9-2.8,1.8-0.8,3c4.4,2.6,8.9,4.8,13.4,7.1c-0.9-7.5,7.5-7.8,10.7-12.7
				c6.8-10.7,18.7-15.2,29.9-20.4c3-1.4,10.2,0.8,8.9-4.4C439.8,403.1,426.2,400.4,417.7,404.8L417.7,404.8z M412.5,385.6
				c-23.4-3.4-34.7,28.9-43.3,45.5c-0.7,1.5-4.8,3.9-0.1,5.6c3.3,1.2,4.5-1,6-3.8c9.1-18.8,26.2-30.4,43.7-40.7
				C416.7,389.8,415,386.4,412.5,385.6L412.5,385.6z M419.2,338.9c-5.9,4.1-9,12-14.4,17.1s-12.2,8.8-18.4,13.1l-2-2.1
				c-1.8,3.9-4.3,7.4-4.9,11.7c11.8-3.6,24.4-7.9,34.6-14.4c5.5-3.8,22.8-2.6,12.5-17.8C424.7,343.7,423.4,335.9,419.2,338.9
				L419.2,338.9z M364.6,338.7c7.5,0.6,10.4-8.2,21-3.4c7.7,4.5-0.9,14.2,2.1,21.4c17.2-7.4,25.2-24.3,31-40.8
				C418.7,301.6,371.2,333.8,364.6,338.7L364.6,338.7z M331.8,359.5c19.8-11.2,32.4-32.7,55.2-43.5
				C361,310.7,341.8,326.7,331.8,359.5L331.8,359.5z M325.4,384.6c18.8-15.3,28.6-22.3,34.4,5.1c10.2-8.8,15.2-22.1,18.5-34.6
				c0.8-3.2,3.8-12.6,0.4-11.4C359,351.9,330.4,360.6,325.4,384.6L325.4,384.6z M311,403.1c-5,4.3-10.8,9-15.5,13.5
				c-3.6,4.9,5.2,5.6,7,8.3c1.1,1.8,1.8,5.8,5.2,5.8c16.7-5.5,33.5-5.5,49.4,1.5c1.4,0.6,3.2,1.7,3.4-0.5
				c1.6-18.7,15.6-30.9,24.4-46.4c-3.5-0.2-8.4-1.6-9.3-0.3c-5.9,8.6-17.2,12.4-20.2,23.5c-1.3,4.9-4,9.5-6.3,14.1
				c-1.2,2.7-3.3,6.4-6.3,4.1c-2.5-1.7-0.1-5.2,1.1-7.5c6.3-11.6,8.1-24.3,8-37.2C353.1,371,314.9,400.6,311,403.1z M297.5,404.2
				c7.5-5.9,15.8-11,19.1-20c2.1-5.7,7.4-11.1,4.4-18c-3.6-12.5-19.2,2.1-19.5,9.6C299.7,385,302.5,395,297.5,404.2L297.5,404.2z
				 M275.1,416.9c4.6-1,10.9,4.7,13.3,0.5c6.1-11,7.2-25.1,6.3-37.4c-2.1-5.1-0.2-14.4-9.9-12.8c-7.7,1.3-12.7,7.4-15.5,14.4
				C264.2,394.5,273.7,405.1,275.1,416.9L275.1,416.9z M238.3,382.5c1.7,15.9,15.5,24.3,23.6,36.1c0.7,1,4.4,0,6.7,0
				c-2.5-12.3-7.7-24.4-11.8-36.4c-2.5-6.4-7.5-10.6-15.1-9.1C235.9,374.4,240.6,379.3,238.3,382.5L238.3,382.5z M206.6,398.3
				c4.4,8,12.4,11,18.3,16.7c3.3,3.2,2.5,10.9,10.8,9.8c1.9-1.4,20.7-3.1,16.1-7.7c-7.1-8.1-32-41-43.8-32.7
				C204.2,388.1,203.4,392.2,206.6,398.3L206.6,398.3z M168.7,407.9c4.1,5.9,8.7,11.9,16.1,12.1c20.4,4.1,17.9,22.9,44.3,6.3
				c-12.4-8.8-48.1-38.7-61.9-26.4C164.8,402.8,166.7,405.1,168.7,407.9L168.7,407.9z M180.4,450.9c-5.2-6-25.9-11.9-34.4-11.4
				c-25.3,1.7-59.7,2.2-82.1,15C102.8,463.2,142.5,457.4,180.4,450.9L180.4,450.9z M202.2,437.5c-17.4-6.4-58.6-30.5-74.6-16.3
				c8.8,15.8,21,12,35.5,12.9C176.2,435.8,188.2,451.1,202.2,437.5L202.2,437.5z M255.4,447.2c15.4-8.4,21.6-19.2,42.2-13.6
				c-20.5-17-81.9,6.4-103.7,17.7C215,449.8,235.1,455.2,255.4,447.2L255.4,447.2z M168,483.5c16.8,1.3,26.6,9.3,41.2,8.9
				c21-3.7,42.7-2.3,63.4-9.1c5.6-0.8,60.3-22.3,44.5-28c-16.6-2.4-26.9-22.8-44.3-7.6C240.8,466.1,208.4,478.8,168,483.5z
				 M81.6,518.7c4.7-0.3,8.1,3.5,12.1,4.7c5.6,1.7,6.5,12.5,12.4,8.7c24.4-14.2,50.7-26.2,77.8-34
				C148.2,480.2,107.9,488.3,81.6,518.7z M51.7,570.4c16.4-12.4,27.8-23.1,45-32.2c-8.4-6.3-18.5-20-27.1-3.3
				C64,546,58.5,557.1,51.7,570.4z M111.4,515.3c4.7-0.5,9.8,0.4,9.7-6c0.1-4.8-2.5-6.3-6.6-6.4c-4.5-0.1-5.7,2.7-5.6,6.6
				C108.9,512.4,108.5,515.3,111.4,515.3z"/>
		</g>
	</g>
</g>
<g>
	<g id="Layer_1_2_">
		<g transform="matrix( 1, 0, 0, 1, 0,0) ">
			<g>
				<g id="Layer0_0_FILL_1_">
					<path d="M52,1548v15l-37,37h946l-37-37v-15H52 M52,52V37.7L14.3,0H0v1600h15l37-37v-15V52 M924,52V37.7L961.7,0H14.3L52,37.7
						V52H924 M976,0h-14.3L924,37.7V52v1496v15l37,37h15V0z"/>
				</g>
			</g>
			<g>
				<path id="Layer0_0_1_STROKES_1_" class="st5" d="M961,1600h15V0h-14.3L924,37.7V52v1496v15L961,1600H15H0V0h14.3h947.4 M52,52
					V37.7L14.3,0 M15,1600l37-37v-15V52h872 M924,1548H52"/>
			</g>
		</g>
	</g>
</g>
</svg>
