<svg xmlns="http://www.w3.org/2000/svg" xmlns:xlink="http://www.w3.org/1999/xlink" viewBox="0 0 976 1600">
<style type="text/css">
	.st0{fill:#FFFFFF;}
	.st1{clip-path:url(#SVGID_2_);}
	.st2{fill:#333333;}
	.st3{fill:none;stroke:#333333;stroke-width:2;stroke-linecap:square;stroke-miterlimit:3;}
</style>
<g id="Paper_Backing">
	<path class="st0" d="M960,22v1556c0,3.3-2.7,6-6,6H22c-3.3,0-6-2.7-6-6V22c0-3.3,2.7-6,6-6h932C957.3,16,960,18.7,960,22z"/>
</g>
<g id="Wikipedia_Cropped">
	<g>
		<defs>
			<path id="SVGID_1_" d="M960,22v1556c0,3.3-2.7,6-6,6H22c-3.3,0-6-2.7-6-6V22c0-3.3,2.7-6,6-6h932C957.3,16,960,18.7,960,22z"/>
		</defs>
		<clipPath id="SVGID_2_">
			<use xlink:href="#SVGID_1_"  style="overflow:visible;"/>
		</clipPath>
		<g class="st1">
			<path class="st2" d="M0,1604c2.9-58.4-33.3-654.7,22.3-654.9c60.4-31.8,127.6-57.8,193.8-72.2c21.1-4,41.7-12,63.7-9.9
				c14.3-1.9,34.3,12.4,43.3,1.5c1.5-4.3,9.2-3.3,8.1-9.4c12.1-10.2,35.9-5.5,51.4-8c14.3-5,47.3,18.2,56,1.5
				c44.8-1.2,91.6,5.2,136.5,13.1c38,2.2,80.5,22.1,111.1,33.7c4-1,3.2-7.2,7.7-7.2c10.7,3.2,21.2,7.3,31.6,11.6
				c95.8,37.4,181.3,89.8,252.2,161.6c6.8,1.8,0.2,171.8,2.4,175.7c0.2,8.1-0.2,349.5,0,358.9C981,1611.9,3.9,1599.8,0,1604z"/>
			<path d="M992.8,1246.6c-1.8,5.6-12,2.4-16.8,3.8c-29.8,3.3-60.3,0.5-89.6,6.8c-95.7,15.2-187,50.3-267.4,104.3
				c98.9-8,199.2,10.4,289.9,49.8c13.3,5.8,25.2,14.6,37.6,22.3c1,0.7,0.9,3.2,1.3,4.9c-2.1,0.1-4.7,1-6.2,0.1
				c-19.9-12.6-41.3-22.9-63.6-30.5c-19.3-6.4-38.5-13.6-58.7-17.2c-25.3-6-50.3-14.1-76.5-15.6c-48.2-2.4-97.6-10-144.9,2.4
				c-7.7,1.9-14.1,9.2-25,16.7c78.8-24.8,260.3,18.9,321.7,72.5c-1.4,0.6-3.3,2-4.2,1.5c-19.9-10.1-39.3-21.4-59.7-30.3
				c-16.5-7.2-34.1-12.1-51.5-16.8c-62.7-11.8-130.1-34.2-193.5-19c8.6,5.1,19.6,2.8,29.1,4.2c51.6,3.4,101.4,19.3,148.9,39.2
				c15.3,6.2,29.6,14.7,42.5,25.2c8.3,7.5,22.5,11.7,25.3,23.8c-81.1-53-170.6-81.9-269.4-79.8c-32.2,3.3-52.4,34.1-73.9,54.8
				c-32.6,33.6-60.7,72.5-85,112.6c-1.3,3-2.6,5.9-6.1,6.8c-13.4-22.8,76.4-123.4,96.2-142.2c12.3-12.3-4.7-11.3-7.4-13.1
				c-67.1-44.1-143.7-74.6-223.9-82.5c-17.8-2.3-36-3.9-53.9-2.9c-10.2,0.6-20.6-5.3-29.9,2c57.6,22.1,106.6,64.7,143,114.2
				c9.2,14.2,29.9,42.5,26.6,59.1c-41.1-81-136.9-181.2-236.6-166c71.2,22.6,143.4,79.4,169.4,150.4c2.6,8.6,6.1,17.3,9.5,25.8
				c0.4,0.9,2.2,2.6-0.4,2.8c-1.3,0-2.5-0.6-3.2-1.6c-10.5-19.1-18.2-39.8-31.3-57.6c-8.3-11.3-16.6-22.6-26.3-32.9
				c-35.9-36.3-79.8-65.6-128.3-81.1c-14.4-4.7-29.6,2.9-43.7,8.2c-17.3,6.4-35,12-50.4,22.7c-6.3,4.4-11-4.8-2.5-7.9
				c126-76.3,306-60.4,433.5,5.4c98.1,53.2,39.9,57.8,132.9-9.7c82.2-65.5,179.4-111.1,283-129.9c40.4-8.1,81.5-13.3,122.7-11.3
				c4.4,0.4,8.7,1,13,1.8C991.1,1243.4,993.1,1244.3,992.8,1246.6z M25.9,951.8c63.7-33.5,131.7-59,202.2-73.5
				c39.5-13.1,82.3-6.6,120,9.2c67.5,25,117.7,76.9,164.5,129.4c-42.9-73-105.8-120.6-185.6-147.5c45.6,3.9,86,29.6,125.6,51
				c49.1,28.3,92,64.8,132.4,104.1c2.4,1.9,7.5,0.6,3.5-2.5C524.7,943,432.6,887,335.1,859.3c65.9-15.3,130.1,13.8,184.4,49.1
				c57.2,35,100,88,137.5,142.8c-43.6-96.4-120.8-155.8-216.5-195.1c57.4,0.3,116,9.2,173,20.6c48.5,12.1,90.2,38.5,132.6,63.6
				c75.7,44.2,139,106,187.1,179.1c2.9,3.8,4.8,12.1,10.1,10.2c3.7-1.3-0.7-7.6-3-11.2c-32.9-53.8-74.4-102.6-123-143
				c-37.5-31.8-81.8-52.8-124.5-76.5c0.4-0.9,0.7-1.8,1.1-2.7c71.5,26.9,142.9,58.7,204,105c26.7,21.2,52.2,43.8,77,67.1
				c1.5,1.3,3.6,3.3,5.5,0.8c1.7-2.3,2.1-4.8-0.3-7.5c-21.4-23.7-44.6-45.6-69.5-65.5c-66.1-52.1-144.3-89.4-224.3-114.9
				c-69.4-19.2-140.5-33-212.4-38c-32.2,1.4-64.5-3.6-96.4-1.3c-84.4,6.3-169.6,21.2-249,51.3c-24.7,9.1-49.8,17.1-73.3,29.4
				c-18.9,11-71.8,24.7-65.2,52C-6.1,978-2.6,970,0,968C7.3,960.7,16.7,956.3,25.9,951.8z M436.5,1060.9c93,27,180,71.3,256.5,130.7
				c6.2,5,12.6-1.7,5-6.8c-153.8-127-361-184.7-558.7-169.2c-43.9,5.2-88.5,12.6-129.8,29.6c-6,2.8-1.2,10-5.4,13.5
				c16.6,5.2,34.7-1.3,51.8,0.7c81.3,3.6,160.5,36,219.8,92.1c3.6,3.7,9,0,4.4-3.6c-25-32.1-61.8-51-97.8-68.3
				c-49.4-25.5-103.8-31.3-158.8-28.7c79.5-24.9,163.2-29.2,246.1-23.6c34.8,1.5,58.1,33.1,83.5,53.4c23.8,21.8,42.5,47.2,58,75.2
				c12.6,20.1,15.4,44.9,27.8,64.5c-7.7-77.5-64.2-147.3-130.1-187.1c17.1-5.5,94.4,46,105.9,61.3c28.1,27.4,51.1,59.3,75.1,90.4
				c16.7,22.6,28.4,48.3,41.5,73c0.8,1.6-0.5,6.2,3.3,4.4c3.5-1.6,0.7-5.2-0.1-7.6c-28.3-75.4-78.9-142.9-141.3-193.5
				c94.8,44.3,175.3,119.4,227.6,209.9c2,3.4,5.1,1.7,7,1.2c2.6-0.7,0-2.7-0.6-3.8c-16.6-27.6-31.5-56.6-52.5-80.8
				c-50.2-58.3-112.1-105.3-181.1-139.2C408.3,1050.9,422,1057.5,436.5,1060.9z"/>
		</g>
	</g>
</g>
<g>
	<g id="Layer_1_2_">
		<g transform="matrix( 1, 0, 0, 1, 0,0) ">
			<g>
				<g id="Layer0_0_FILL_1_">
					<path d="M52,1548v15l-37,37h946l-37-37v-15H52 M52,52V37.7L14.3,0H0v1600h15l37-37v-15V52 M924,52V37.7L961.7,0H14.3L52,37.7
						V52H924 M976,0h-14.3L924,37.7V52v1496v15l37,37h15V0z"/>
				</g>
			</g>
			<g>
				<path id="Layer0_0_1_STROKES_1_" class="st3" d="M961,1600h15V0h-14.3L924,37.7V52v1496v15L961,1600H15H0V0h14.3h947.4 M52,52
					V37.7L14.3,0 M15,1600l37-37v-15V52h872 M924,1548H52"/>
			</g>
		</g>
	</g>
</g>
</svg>
