<svg xmlns="http://www.w3.org/2000/svg" xmlns:xlink="http://www.w3.org/1999/xlink" viewBox="0 0 976 1600">
<style type="text/css">
	.st0{fill:#FFFFFF;}
	.st1{clip-path:url(#SVGID_2_);}
	.st2{fill:#333333;}
	.st3{fill:none;stroke:#333333;stroke-width:2;stroke-linecap:square;stroke-miterlimit:3;}
</style>
<g id="Paper_Backing">
	<path class="st0" d="M960,22v1556c0,3.3-2.7,6-6,6H22c-3.3,0-6-2.7-6-6V22c0-3.3,2.7-6,6-6h932C957.3,16,960,18.7,960,22z"/>
</g>
<g id="Wikipedia_Cropped">
	<g>
		<defs>
			<path id="SVGID_1_" d="M960,22v1556c0,3.3-2.7,6-6,6H22c-3.3,0-6-2.7-6-6V22c0-3.3,2.7-6,6-6h932C957.3,16,960,18.7,960,22z"/>
		</defs>
		<clipPath id="SVGID_2_">
			<use xlink:href="#SVGID_1_"  style="overflow:visible;"/>
		</clipPath>
		<g class="st1">
			<path class="st2" d="M0,1604c-2.5-3.5-18-720.4,5.8-712.8c23.9-17.5,50.8-30.3,79.5-37.7c7.5-23.3,112.4-48.6,141.6-46.8
				c10.6,1.6,12.7-1,17.9-8.5c37.4-9.2,79.7-15.3,118.9-15.6c95.4-8.6,195.6-4.3,287.6,19.2c14.6,5.1,27.1,15.4,41,21
				c6.1,0.7,4.7-8.3,9.9-8.5c22.8,6.3,41.6,17.8,62.1,28.4c4.8-1.2,8.5-5.4,13.9-2.2c71.5,24.8,136.2,78,197.9,117.4
				c11.4-0.9,0.2,378.9,4,382.9c0,1,0,258.1,0,259.2C981,1611.9,3.9,1599.8,0,1604z"/>
			<path d="M976.4,1341.8c-79.7-24.3-164.4-27.5-245.8-9.4c12.5,0.5,22.3,1.8,32.1,1.2c43.4,1.6,87,11.2,126.4,29.5
				c20.3,8.8,39.5,19.6,58.8,30.2c1.9,1.1,5.1,2.7,4.7,6.2c-37.9-8.1-69.5-36.3-107.8-45.1c-22.8-4.5-95.4-21.6-112.6-10.9
				c57.4,7.5,112.8,25.8,163.3,54.1c5.8,3,13.1,6.6,16.2,16.2c-54-29.5-108.5-52.6-168.4-60.4c39.1,10,78.1,24.9,110.7,49.1
				c2.6,2.2,10.3,4.5,6.9,7.8c-4.6,4.3-11.3-1.3-15.7-4.2c-24.2-16.2-51.1-27.1-78.2-36.5c-44.3-15.7-94.5-26.4-138.8-5.7
				c-53.7,19.3-103.9,45.2-148.8,80.8c68.4-23.1,143.1-25.9,214.3-15.4c15,3.3,49.2,7.4,59.1,17.3c-63.8-8.6-128.6-20.2-193.5-11.4
				c-96,3.1-173.8,73-216.4,154.7c-15.6,7.4,3-24.9,6.4-28.3c36.4-60.6,91-104.3,149.3-142.7c2-2.6,16.7-8,10.1-10.5
				c-47.8-29.4-97.8-56.6-154-65.3c-31.6-7-63.5-12.7-96-12.1c-7.5,0.7-25.1-2.2-29.9,1.8c49.7,11,98.2,32.8,135.3,69.5
				c14.4,14.8,35.3,27.2,43.2,46.4c-23.3-13.5-41.7-37.3-63.8-53.8c-28-23.4-61.9-40.3-97.4-49.3c51,19.3,88.2,62.8,117.5,107
				c-4.7,5.1-36.4-37.1-42.4-42.6c-24.5-26.9-55.1-55.9-91.9-60.8c31.4,19.4,56.3,47.4,77.9,77.1c3.2,5.3,14.3,17.6,10.6,23.3
				c-2.1,1.7-3.6-1-4.6-2.3c-17.1-24.1-34.7-47.8-56-68.3c-30.6-28-72.9-48.7-115.4-35c-38.1,13.9-72.3,24-105.5,49.6
				c62.9-22.7,124.5,1.4,174.7,39.8c4.1,3.5,17,14.7,17.3,18.8c-67.6-46.6-124.3-80.1-208.1-43.9c-4.2,1.7-9.2,3.3-13.8,1.2
				c-2.7-1.1-0.3-3.4,1-4.2c43.1-32.9,90.3-60.3,143.6-72.8c116.7-27.5,246-5.9,347.1,58.5c17.2,10.8,18.5,21.1,36.9,4.6
				c100.9-53.1,216.2-91.1,331.1-84.5C903,1314.9,948,1315.4,976.4,1341.8z M121,855.4c107.7,0.4,216.6,45.3,292.2,122.5
				c4.2,4.3,14.8,8.8,5.6-1.6C367.1,915.2,294,876.1,217,857.2c-36.3-9.2-74.2-10.2-111.8-10.3c-5,0.3-9.8,3.5-15,1.3
				c36.4-15.4,74.3-31.3,113.4-36.6c68.7-4.4,138.4,12.5,202.6,36.1c28.1,11.3,52,29.8,76,47.7c63.4,44.1,125.7,96.7,158.9,168.2
				c0.7,2.9,7.2,5.1,7.3-0.2C606.3,976.6,549.5,930.2,472,876c58.5,24.7,110.5,64,155,109c24.2,26.4,44.3,56.5,66.1,84.8
				c2.2,2.9,6.2,7.2,9,5.4c3-2-1.8-5.2-3.3-7.5C660.7,1005.4,612.7,949,551,909c33.8,13.9,63,38.7,93.5,58.9
				c45.6,31.8,81.6,74.1,121.8,112.3c13.1,12.4,23.1,28.2,35.2,41.8c1.7,2,4.6,8.2,7.6,5.4s-1.5-6.3-4.2-9
				C684.2,949.2,456,808.8,245.9,801.9c57.8-14.8,117.3-15.9,176.4-19.1c15.9-1.5,31.8,1,48-1.1c13.2-1.7,27.2,2.3,40.8,3.3
				c46,5.4,94.4,6.1,138.5,20.4c81.7,33.8,138.2,110,170.4,190.2c4.3,11.2,7.7,22.8,13.2,33.3c4.4,8.4,6.5,18.4,15,25.7
				c-19.8-67-44.7-130.4-91.4-183c25.2,24.6,49.5,49.5,71.1,77.1c27.2,34.5,44.4,73.9,61.2,113.7c0.7,1.7,4.3,3.7,5.8,3.2
				c1.7-0.6-0.5-2.7-1.1-4.3c-20.9-61.4-51.3-119.1-97.8-165.1c-28.2-31.5-56.6-56-94-78c72.9,23,122.5,80.2,171.6,135.2
				c23.8,26.4,38.8,57.5,54.6,89.3c0.5,2.6,4.8,10.3,6.3,4.3c-1.5-6.7-5.1-11.1-7.2-16.6c-18.1-44.7-44.8-84-78.6-118.2
				c-23-25.8-48.1-50.1-77.3-68.9c55.7,19.4,107.6,51.2,156,85c9.5,4.4,41.5,40.7,46.3,36.1c7.3-6.3-33.6-38.2-39.3-42.9
				c-61-46-130-79.8-202-104.6c-44.1-17.7-92.1-27.3-138.9-32.8c-96.2-19.7-195.8-15.8-292.8-3.3c-87.2,10.6-174.1,33-251.4,75.6
				c-11.4,5.8-52.7,28.6-49.6,39c6.1,5.7,44.4-27.7,57.9-29.4C78.1,858.8,99.7,857.5,121,855.4z M448.6,1109.3
				c83.5,2.2,169.5,14.8,247.1,48.6c21.4,9.4,43.2,19.7,60.1,37.2c2.2,2.4,5.9,2.6,8.3,0.4c0,0,0.1,0,0.1-0.1
				c2.9-2.4-0.6-4.7-2.2-6.4c-57.5-50.4-137.6-68.3-211-81.7c-35.2-6.4-71.6-8.2-107.4-8.3c-6.3,0.2-13.1,1.8-19-1.5
				c-83.8-55.6-182.5-84.3-282.2-92.1c-28.4-1.5-57.4-2.8-85.4,5.6c-8,2.1-61.8,16.5-45,24.2c7.8,4,14.4-2.4,21.7-2.2
				c45.3,1,91.1,9.8,133.2,26.5c17.3,5.8,34.1,18.5,52.6,18.6c-0.8-1.2-1.3-2.9-2.4-3.5c-11.4-6-22.6-12.6-34.4-17.5
				c-44.2-20.7-92.3-29.8-140.8-33c131.6-24.2,251.4,9.4,366.9,73.2c-13.1,5.8-25.1,4-36.6,5.2c-44.8,4.3-89.6,9.7-133.8,18.7
				c-80.4,19.9-158.1,57-220.3,112.1c-4.8,4.5-14.8,9.4-11.6,15.7c5.2,8.4,9.4-2.4,14.1-5c35.3-19.7,64.3-58.1,107.5-58.9
				c86.6,0.4,170.8,31.3,246.9,70.7c18.4,9.5,34.4,23.3,54.1,30.2c-88.3-70.1-189.7-104.9-301.5-110.7c36.8-16.5,75-33.9,115.1-40.7
				c21.9-3.5,42.4-12.3,66.2-8.3c67.3,5,131.1,28.7,189.4,62.2c19.3,10,35.5,25,56.5,31.6c-64.2-52-136.1-88-219.9-102.8
				c65.2-2.4,126.7,24,185.2,49.8c17.4,8.5,34.3,18.1,51.2,27.4c2.7,1.5,6-1.1,8.2,2.1c4.2,3.8,6.2-4.3-0.5-6.6
				c-43.3-28.1-90.8-49.4-139.7-65.7c0.2-0.7,0.3-1.3,0.5-2c46.8,7.2,93.3,18.4,137.2,36.4c19.2,7.1,36.6,21,55.8,26.7
				c-41.7-36.1-97.3-55.2-150.3-68C479.4,1116.4,440.9,1112.9,448.6,1109.3z"/>
		</g>
	</g>
</g>
<g>
	<g id="Layer_1_2_">
		<g transform="matrix( 1, 0, 0, 1, 0,0) ">
			<g>
				<g id="Layer0_0_FILL_1_">
					<path d="M52,1548v15l-37,37h946l-37-37v-15H52 M52,52V37.7L14.3,0H0v1600h15l37-37v-15V52 M924,52V37.7L961.7,0H14.3L52,37.7
						V52H924 M976,0h-14.3L924,37.7V52v1496v15l37,37h15V0z"/>
				</g>
			</g>
			<g>
				<path id="Layer0_0_1_STROKES_1_" class="st3" d="M961,1600h15V0h-14.3L924,37.7V52v1496v15L961,1600H15H0V0h14.3h947.4 M52,52
					V37.7L14.3,0 M15,1600l37-37v-15V52h872 M924,1548H52"/>
			</g>
		</g>
	</g>
</g>
</svg>
