<svg xmlns="http://www.w3.org/2000/svg" xmlns:xlink="http://www.w3.org/1999/xlink" viewBox="0 0 976 1600">
<style type="text/css">
	.st0{fill:#FFFFFF;}
	.st1{clip-path:url(#SVGID_2_);}
	.st2{fill:#5D4E8C;}
	.st3{fill:#333333;}
	.st4{fill:#FFEB5C;}
	.st5{fill:#D81E1E;}
	.st6{fill:none;stroke:#333333;stroke-width:2;stroke-linecap:square;stroke-miterlimit:3;}
</style>
<g id="Paper_Backing">
	<path class="st0" d="M960,22v1556c0,3.3-2.7,6-6,6H22c-3.3,0-6-2.7-6-6V22c0-3.3,2.7-6,6-6h932C957.3,16,960,18.7,960,22z"/>
</g>
<g id="Wikipedia_Cropped">
	<g>
		<defs>
			<path id="SVGID_1_" d="M960,22v1556c0,3.3-2.7,6-6,6H22c-3.3,0-6-2.7-6-6V22c0-3.3,2.7-6,6-6h932C957.3,16,960,18.7,960,22z"/>
		</defs>
		<clipPath id="SVGID_2_">
			<use xlink:href="#SVGID_1_"  style="overflow:visible;"/>
		</clipPath>
		<g class="st1">
			<path class="st2" d="M431,1283.9c-56.6-7.8-114.1-13.1-170.7-18.7c-19.3-5.2-77.4,9.7-47.4-25.7
				c133.3-197.3,208.4-387.6,242-623.2c13.5-65.9,16.1-141.2,21.3-211.5c7.8-24.6-9.7-87.1,16-84.7c70.9,0.8,145.1-3.2,216.9-6.5
				c28.9-3.5,26.9,2.2,23.9,28.4c-4.7,46.8-9.4,93.9-14,140.7c-16.3,199.7-63.4,398.5-143.8,581.7c-27.3,58.9-57.2,117.2-96.6,168.8
				C461.9,1249,456.7,1283.7,431,1283.9z"/>
			<path class="st3" d="M546.4,1581.7c-66.8-1.8-67.7-18.3-89.9-71.1c-39.8-0.3-84.5-56-50.7-94.5c4.7-14.8-24.2-11.3-30.3-24.7
				c-16.4-17.5-13-40.5,10.5-50.1c7.8-17.5-9.8-34.2,21.7-54.6c12-5.8,26.4,7.5,38.1-1c8.9,4.8,15.5,14.9,30.8,13.9
				c26.1,0.4,41.2-32.2,63.9-18.4c0.8,15.7-8.8,35.6,1.3,49.6c12.8,19.3,34.7,16.7,51.4,8.3c15.3,0.2,18-33.7,26.5-38.4
				c13.9,10.9,33.5,49.6,51.5,50.3c42.4,1.2,42.3-41,49.2-69.5c12.9,10.1,22.7,26.7,42.5,25c10.4-10.1,26.6-23.1,23.1-42.6
				c-3.7-7.3-8.8-19.3,2.9-19.9c18.7,7.8,44.3,7.8,56.3-10.5c-0.4-11.3,1.2-21.7,2.2-32.1c-0.7-4.9-7.9-4.5-9.1-8.8
				c-2.7-13.8-27.8-30-17.2-37.3c39,6.8,61.2-9.2,45.6-49c34.3-13.1,97,6.4,96.5,52.3c0.4,6.7,5.4,9.2,11.8,11.9
				c11.9-5.1,2,116.6,5.1,119c0.3-0.4-0.4,83,0,86.7c0,2.2-1.8,4-4,4c-14.9-0.2-29.9,8.3-44.9,6.4c-23.4,0.5-41.2-8.6-56.6-22.7
				c-15.1,0-30.8,13.8-46.4,2.9c-14.8-0.8-59.2-56.9-59.2-33.5c2.1,17.9-4.2,28-15.9,39.6c-2.4,1.9-3,5.3-1.4,7.9
				c17.2,25.1-16.6,60.1-41.4,58.5c-4.8-1-10.8,1.3-9.6,7.1c5.5,21.8,4.9,43.3-13.3,62.9c-15.6,17.3-37.5,10.4-57.5,9.9
				c-3,0-5.5,2.2-5.9,5.1C617,1558.7,575.7,1580.7,546.4,1581.7L546.4,1581.7z M134.4,1234.7c-27.7-0.2-55.2-16.3-53.2-47.3
				C34,1185,7.4,1134,29.4,1090.8c8.6-14.6,22.3-18.8,33.2-20.8c13.1-7.6-13.9-29.4,8.1-54.4c28.3-37.8,73.1-18.7,104.5,0.1
				c3.3,0,6-2.7,6-6c0-0.1,0-0.2,0-0.3c0.9-33.8,39.9-47.7,64-27.1c39.2,28.2,12.3,23.6,49.7,7.8c59.3,14.7,33.5,39.6,12.3,77.3
				c-8.3,7.3-5.2,25.5-19,29.2c-10.6,28.1-28.8,57.2-44.5,85.2c-7.5,17.3-20.4,28.1-39,30.5C180.2,1223.1,158.5,1234.3,134.4,1234.7
				L134.4,1234.7z M835.5,1070.2c-6.7,0.5-9-6.9-6.3-12.7c-2.9-27.8-36-36.1-58.7-26.9c-11.5-0.5-16.1-17.5-34-17.7l0,0
				c-9.7-9.6-20,0.4-12.7-19.8c4.4-10.5-12.2-14.3-15.6-24.3c-14.6-4.8-41.2,9.6-47.9,23.1c-5.6,3.4,3,8.5,4.7,11.9
				c-0.6,2.3-7.4-9.2-7.9-9c-1.8,1.3-4.3,0.9-5.7-0.9c-0.3-0.4-0.5-0.9-0.7-1.4l0,0c4.6-37.2-37.3-30.6-22.4-52
				c10.7-32,20.5-64.7,29-97.6c9.4-36.6,19.6-106.5,73.1-84.2c38.2-50.8,112.4-41.8,108.1,31.4c10.4,13.9,42.8,5.5,42.3,45.5
				c4.9,23.2-45.8,59.3-25.7,64.7c18.1,0.3,31.2,10,38.1,27.9c8.7,18.7-8.4,33.4-18.6,47.2C918.9,1013.2,878,1058.3,835.5,1070.2
				L835.5,1070.2z M377,909.3c-58.3-44.9-121.6,9.5-182.2-22.7c-12.5-6.3-6.2-24.3-18.4-26.9c-39.3,7-58-46.2-21.2-62.1
				c16.2-14.8-34.6-17-40.5-27c-21.5-15.4-29.5-68.4,2.6-75.7c3.1-1.2,4.6-4.7,3.4-7.9c-0.2-0.5-0.5-1.1-0.9-1.5
				c-25.6-29-27.8-93.5,10.8-116.3c23.9-14,33.7,19.7,49.8,28.2c37.4-72.8,79.7,27.5,94.3,65.4c12.5,13.1,23.9-33.4,61.8-13.5
				c20.4,10.5,3.5,33.8,28.9,40.4c41.8,26.9,17.2,96,38.1,137.3c3.3,14.1-9.5,28.2-11.5,40.5C394,875.5,383.1,908.5,377,909.3z
				 M847.4,642.8c-43.6-3.3-93-41.3-134.5-7.5c-2.6,2-6.9-0.4-6.3-3.7c6.4-44.2,8-84.7,13-129.1c2-29.7,31.9-51.1,50.8-68.9
				c27.7-27.2,62.5-13.9,62.5,25.1c35.8-8.9,101.2-19.7,108.2,33.8c3.8,10.6,27.8-1.9,38.8,17.7c-4,6.9,8.8,79.4-8.4,76.2
				c-16,17.8-48.3,20.4-73.3,18.6c-2.9,0-5.3,2-5.9,4.9C884,635.2,868.4,640.8,847.4,642.8L847.4,642.8z M470.4,381.9
				c-76.5-111.3-164.3-75.8-32.9-112.5c14.9,1.3,112-37,104.2-18.1c-18.8,19.5-13.7,62.5-34.7,70.8
				C451.3,308.8,491.2,359.2,470.4,381.9L470.4,381.9z"/>
			<path class="st4" d="M677.4,1348.3c-18.2,5.7-59.4-46.8-32.8-50.6c26.2-3.9,32.2-35.6,27.3-57.7c-11.7-5.9-25.6-10.1-31.8-25.5
				c-12.6-12.2-17.5,21.3-31.8,21.8c-5.4,2.7-2.8,9.7-4.8,14.6c-4.2,24.1,20.8,39.8,12.7,54.9c-5.2,20.3-26.1,39.3-47.8,39.2
				c-20.3,1.5-36.5-27.6-28.7-48c3.5-9.2-3.6-18,11.2-20.9c19.5-4.9,31.8-15.3,36.6-30.8c0.9-12.2-32.3-17.2-23.8-57.1
				c28.2-53.1-38.1-9.6-19.8-53.8c3.4-12.1,17.9-15.3,23.6-25.1c-9-11.5,4.5-20.7,7.3-32.4c3-20.9,26.5-10.3,35.5-0.5
				c0.9,19.3-22.2,20.8,0,40c5.9,6-10.8,21.6-8.4,33.4c-11.2,32,1.5,72.3,34.2,46.8c1.7-18.5,9-36.7,12.1-53.7
				c-9.5-13.4-7.2-32,11.4-32.8c20.1,1.6,71.4,47.6,42.1,69.3c-7.3,10.1,13,24.1-5,46.6C714,1259.1,737.6,1339.2,677.4,1348.3z
				 M475.7,1297.9c-42.1-1.5-20.1-28.1-4.4-47.4c16.1-14.3,22.1-51.6,48.5-46.6c2.1,0.6,3.4,2.8,2.8,4.9c-0.2,0.7-0.6,1.4-1.1,1.9
				C474.1,1259.4,559.8,1285.4,475.7,1297.9z M811.7,1246.8c-19.6,2.7-78.9-38.1-61-54.6c29-18.1,6.4-34.3,11.3-54.4
				c3.2-1.2,5.5-4.4,4.3-7.9c-4.1-11.5-41.6,7.1-34.5-10.9c5.7-3.6,11.8-7,13-12.2c3.7-9.5-7.6-19.8-11.6-28.9
				c-6.5-11.4-28-1.1-39.3-5.8c-11.1-12-20.8,8-32.2,9.8c-4.5-1.4-20.1-7.7-17.2-15.6c3.6-19.8,20.9-51.5,44.2-47.2
				c37.2,12.8,13.9-2.1,49-4c33.9,5.3,25.2,28.2,17.4,47.4c19.1,9.9,23.9,1.9,44.7,21.3c25.4-6.8,59,14.2,67.7,35.8
				c12,30.6-25.3,39.3-48,32.6c-19.6,1.7,28.2,45,21.2,62.4C842.1,1233.4,830.5,1246.9,811.7,1246.8L811.7,1246.8z M642,1035.8
				c-9.8-8.1-8-27.3-19.7-34.9c-2.7-2.2-13-6.8-10.5-10.4C631.3,905.8,668.3,1008,642,1035.8z M199.3,377.3
				c-21.7,3.4-40.1-15.3-26.1-35c4.7-13.4,34.9-16,25.7-29.8c-34.9-37.8,64.2-57.6,85.1-42c13.3,10,30.4,12.5,45.6,16.2
				c4.6-1.5,13.8-2.5,12,5C334.3,331.3,235.2,376.1,199.3,377.3L199.3,377.3z M436.6,267.3c-95,0.8-154-99.1-32.4-57.7
				c17.1,12.5,20.5,34.2,38.7,46.9c19.7,12.9,10.9-28.3,12-37.8c-2.1-29.6-7.1-73.8,29.9-86c43.2,14.9-5.6,104.5-23.7,127.7
				C439.1,260.8,454.7,267.3,436.6,267.3L436.6,267.3z M486.6,259.3c-3.8,0.1-5.5-5.2-2.3-7.3c33.3-22.8,72.1-51.4,83.5-92.3
				C632.7,82.5,686.6,205.1,486.6,259.3L486.6,259.3z M642,239.5c-83.2-1.4-22.1-13.3,11.8-37.3c14.8-8.9,26.9-27.2,46-22.6
				c20.9-4,69.9,24.9,35.3,43.9C706.2,239.8,675,238.6,642,239.5z"/>
			<path class="st5" d="M755.8,1303.1c-46.6-8.7-57.8-75.4-51.8-112.4c5-25.9,16.6-31.3-5.8-56.3c-6.3-4.3,1.6-13.9-7.2-15.9
				c-19.1-3.5-32.7-15.7-48,0.1c-9.7,6.4,5.3,19.9,2.6,28.8c0,19.5-9.9,36.5-15.6,53.1c12,10.8,20.4,40.4,37.8,40.3
				c2.6-0.2,6.2,1.6,6.7,4.8c3.4,68.4-82,67.8-68.9-4.3c6.5-11.3,23.3-15.2,24.1-32.4c1.3-4.6-3.8-8.9-8.1-7
				c-40,4.5-18-58.4-8.3-77.2c0.8-19.9-23-12.9-1.7-46.4c-7.5-14.4-30.4-30.2-17.1-48.2c6.8-20.2,15.2-50.8,33.5-18.1
				c8.7,14,11.6,35.5,11,55.1c-0.8,10.1,17.1,7.4,19,15.7c8.8,7.5,32-13.7,52.8-7.8c18.8,0.7,31,11.7,32,30.1
				c0,9.7-14.9,9.1-15.9,17.9c1.4,7.7,11.9,6,17.2,10.3c24.3,10.1,26.3,51.7,1.8,62.1c-15.2,9.3,28.3,31.8,32.5,48.1
				C794.2,1267.8,782.3,1301.3,755.8,1303.1z M535.8,1278.3c-43.6-0.4-25-51.3-14.8-73.9c-24.4-10.4-4.9-10.9,2.8-33.5
				c15.7-30.6,8.7-18.3,32.5-10.6c14.7-1.3,13.6,8.2,4.6,16.1c-1.6,10.2,3.8,23.3,3,35.1c-1.1,13.4,13.9,21.9,24.4,31.7
				C585.7,1264.6,557.9,1278,535.8,1278.3L535.8,1278.3z M803.1,1079.8c-11.5-1-17.3-11.9-28-13.3c-11.4-1.3-23.6-3.5-12.3-17.3
				c1.4-15.8,11.2-23,26.5-20.7C826.5,1024.4,844.3,1078.7,803.1,1079.8L803.1,1079.8z M653.5,1038.2c-14.7-19.8,15.7-70,45.1-67.2
				c23.5-3,20.2,46.4,6.1,50.4C683.1,1011.2,666.9,1021,653.5,1038.2z M247.8,421.1c-26.4-1.4-19.3-31.9-9.1-48.1
				c30.7-21.7,66.8-36.7,96.2-63.1C361.9,312.5,271.5,426.7,247.8,421.1z M356.1,287.2c-27.5,3.1-121.4-20.1-65.8-53.9
				c44.6-18.9,78.6,27.2,119.6,29.9C460.7,272.4,371.3,288.7,356.1,287.2z M680.8,282.9c-46-1.9-88.8-16.9-132.3-31.9
				c-9.5-6.4,6.8-7.4,5.8-13.9c2.1-6.6,11.8-8.9,16.7-13.3c21.9-16.1,50-27.3,55.5-56.9c1.1-9.9,8.5-12.8,15.9-15
				c32.3-16.3,58.2,13.3,29.2,38.7c-16.7,11.4-31.5,21.3-48.4,29c-64.7,34.5,82.2,6.9,94.5,26.7C749.2,269.1,701,285.1,680.8,282.9z
				 M450.6,261.4c-67.6-39.6-50.1-157.4-8.1-95.2C452.5,193.2,462.4,239.9,450.6,261.4z M470.3,258.8c-12.8,0.2,31.7-56.2,27.6-76.2
				C527.3,61.8,652.8,153.9,470.3,258.8z"/>
			<path d="M982.6,1293.6c-25.4-15.6-49.3-30.8-74.3-47.6c19.6-5.8,36.1-16.8,55-24.4c3-1.3,6.7-2.8,6.7-5.4
				c-0.5-5.1-6.5-3.9-10.5-2c-17.3,7.6-34.5,15.3-52,22.4c-3,1.2-6.6,4.7-10.5,1.5c-14.7-12.1-29.5-24.3-44.1-36.6
				c-0.6-0.5-3-0.4-0.5-2.5c26.2-23.9,53.1,5.4,81.8,4.2c4.9,0.2,4.8-4.6,0.8-6c-3.3-1-6.8-1.2-10.1-2.2c-12-3.9-24-8.1-36-12.1
				c9.3-8,40.6-11.9,42-19.8c-4.9-9.7-69.9,20.4-80.5,25.2c-2.2,1.1-5.7,8.2-8.6,2.5c-5.7-11.1-12.1-21.7-20.5-31.5
				c32.5,6.9,68.1-8.8,50.2-46.9c-0.6-1-3.6-5,0.9-5.2c19.6-0.7,39-0.8,57.4,8.2s28.1,22.9,29.3,43.4c0.5,9.7,8.5,13.1,16.2,16.1
				c1.2,0.2,2.3-1.2,3.2-1.9c1.7-1.8-0.7-2-1.4-2.8c-2.8-3.3-9.5-3.8-9.5-8.5c3.1-50.3-55.4-69.8-96.7-62.5
				c-2.9,0.3-5.2,5.3-8.2,2.1c-15.2-18.8-41-20.3-33.5-24.2c22.3-7,46.4-16.5,60.7-36.3c13.1-19.9,15.5-46.9-7.6-64.2
				c-1.6-1.2-1.8-2.5,0-4c37.7-26,11.1-80.5-29-76.5c-0.5-0.1-0.6-3.5,0.8-5.3c26.7-27.4,44.3-56.3,15.1-92.2
				c-10.3-8-33.6-3.3-27.5-27.6c-5.5-55.3-73.5-64.7-104-23.6c-8.3,21.1-13.3-13.2-50,10.3c-1.8,1-3.1,1.3-2.6-1.2
				c2.6-12.8,5.3-25.7,8.1-38.5c4-18.9,10.3-37.3,12.3-56.8c0.6-6.2-1.8-14.8,4.2-18.9c35.5-28.8,74.2-10.1,111.7,1.6
				c29.7,10.5,71.2,0.4,76.8-35c7.5,4.4,14.8-0.7,22.3-0.3c20.8,0.8,40.7-5.4,55.4-20.4c1.5-2.2,2.5-5.3,0-8c-3.6-4-5.4,1-6.8,2.5
				c-27.3,30.1-80.5,10-80.2,22.5c-0.9,11.6-7.4,19.2-16.6,25.5c-49.1,29.6-101.4-44.4-161.8,0.9c11.2-88.8-3.1-58.1,80.1-31.2
				c4.3,1.2,9.6-3.6,3.2-5.9c-20.6-9.7-40.3-18-61.8-26.7c8.8-3.3,26.2-18.5,33-13.5c27.3,22.9,58.1,41.4,91.3,54.7
				c7.1,5.2,10.1-3.5,3.8-6c-10-2-17.4-9-26.4-12.3s-15-10.5-23.8-14c14.7-0.8,27.2,0.8,41.3,3.1c2.2,0.3,5.9,1.2,6.4,0.3
				c1.4-2.5-1.4-4.8-3.1-5.3c-17.5-7.2-36.3-5.8-54.4-7.2c-8.5-0.8-16.2-9.6-24.5-14.3c-3.8-2.2-1.3-3.3,0.2-3.9
				c23.1-5.7,60.3-15.2,82.5-5.7c11.5,6.3,22,14.3,32.8,21.8c9.8,6,25,19.7,36.7,12.5c-1.3-1.2-2.5-3-4.1-3.5
				c-19.5-6.6-34.8-19.9-54.7-32.9c20.9,0.5,89,12.5,98-4.8c-0.5-3-3-4.2-6.6-2.8c-42.6,8.2-83.3-6.7-126.8-3.5
				c24.6-10.7,45.1-16.3,64.3-33.7c2.9-2.5,8.8-3.6,6.3-8.2c-2.8-4.9-7-0.2-9.6,1.7c-13.7,10.3-28.9,18.2-45.2,23.6
				c5.2-13.4,11.8-26.3,19.8-38.3c1.6-2.5,2.9-4.9,0.9-6.8c-6.8-4.7-19.7,24.3-23.5,29.5c-4,7.4-3.3,17.8-12.2,22
				c-18.4,8.7-37.9,14.7-58,17.8c-3.1,0.5-5.8,4.2-9,1.4c12.8-23.2,21.4-49.7,26.8-75.9c1.6-6.4-6.6-9-7.4-1.9
				c-2.7,17.5-8.8,33.9-16.3,50c-6.7-9.7-9.1-20-11.7-30.3c-0.7-2.2-3-3.4-5.1-2.7c-2.2,0.7-3.4,3-2.7,5.1c0,0.1,0.1,0.3,0.1,0.4
				c5.2,9.1,4.7,20.1,10.7,28.9c5.6,8.3-1.4,28.8-10.8,33.5c-11.3,5.7-22.6,11.7-33.9,17.7c1.1-18.3,4-36.8,6-55.1
				c1-8.1-0.3-18.3,4.1-24c17.8-21.5,52.8-72.4,85.2-61.1c10.2,4,18.2,20.1,13.6,30.4c-1.3,2.9-0.5,6.7-0.6,10
				c2.8-1.5,4.6,2.1,8.3,0.7c33-16.5,94.1-21.7,103.3,25.4c1.2,20,22.1,1.7,33.6,15.4c4.5,7.6,11.5,0.9,5.5-4.8
				c-7-5.9-15.3-9.6-24.7-9c-1.5,0.1-4.1,1.3-4.2-1.9c-6.3-52.2-77.6-56.3-113.7-32.3c9.3-32.7-17-55.8-48-41.1
				c-24.3,12.6-40.5,34.1-58.4,55.5c6.8-53.9,8.8-107.8,10-162c0.2-4.4-1.1-6.5-5.9-6.1c-9.8,0.7-19.5,1.3-29.3,1.6
				c-22.6-1-44.2,2-66.5,3.9c-35.1,3-71.1,2.1-106.3,6c-6.6,0.6-7.2-0.9-5.2-6.3c6.4-17.2,12.5-34.5,19.3-51.5
				c1-2.6,2.2-9.3,5.8-7.1c23.6,12.8,48.9,21.9,75.2,27.2c28.6,5.5,60.2,12.5,88.6,2.2c18.2-7.7,22-14.5,16-29.6
				c-3.3-8.5-12.9-9.3-19.7-13.5c13.8-5.1,31.1-8,39.7-21c12.6-27.8-31.7-44.2-53.1-40.5c-3.7,0.4-12.1,4.6-7.1-6.4
				c8.3-24.5-27.9-32.7-46.6-22c-7.5,3.8-10.8,4.1-13.4-4.9c-11-20.5-41.8-9.2-55.2,3.7c-7.5-38.2-49.6-27.4-64.7-2.8
				c-1.2-0.8-1.4,5.1-4.3,0c-6.9-19.5-28.2-20.4-40-3.8c-6.5,9.4-11.2,19.5-14.8,34.3c-1.3-10.4-6.4-14.8-8.5-20.4
				c-4.2-11.1-19.7-15.5-28.8-7.7c-19.3,16.7-14.7,37.3-10.2,58.4c-19.2-12.8-77.9-21.7-69.5,17c1.1,3.8,0.9,5-4.1,5
				c-15.5,0.1-31.6-3-46.1,6c-10.5,6.5-18,14.2-13.5,27.9c0.7,2.1,0.5,2.2-3.5,2.2c-28.3-2.7-109.9,13.9-68.9,52.9
				c2.2,2,1.8,2.6-0.5,4.1c-19.1,10.5-47.6,31.2-25.6,54c14.6,13.4,41.6,8.5,59.7,3.4c1.1,11.5-7.7,19.9-3.9,32.4
				c2.6,10.7,16.2,20,26.2,14.9c14.4-7.4,28-15.8,39.6-27.6c25-25.5,43.1-55.2,55.1-88.8c2.1-5.8,3.8-15.7,12.9-12.5
				c44.3,19.1,78.4,55.3,106.2,93.9c5.9,7.8,1.4,16.6,0.6,25c-1.2,13-0.3,26-1.5,39.1c-7,121-30.7,241.9-61.6,358
				c-15.6-43.4,8.4-109.7-45-131.4c-3.1-1.2-3.8-3.3-4-6.6c-1.6-38.1-48.3-49.7-73.2-12.4c-2.9,4-3.5,1-4.1-0.5
				c-2.7-6.7-4.8-13.6-7.7-20.2c-10.3-35.6-61.1-115-87-49.2c-0.6,1.9-2.8,1.4-3.8,0.2c-4.5-6.2-9.1-12.3-13.4-18.6
				c-8.6-12.7-31.9-15.7-43.7-6.1c-35.8,29.2-32,87.6-5.8,121.3c-3.5,1.9-7.3,4.1-11.2,6c-29.3,16.6-15.7,66,7.8,81.1
				c13.6,7,27.3,13.4,43.3,16.6c-44.3,15-30.1,75.2,15.5,71.2c9-1.7,5.9,18.7,14.4,24c51.7,43.9,117-13.6,171.6,16.5
				c5.8,3.2,18.1,3,14.9,15.3c-10.1,30-25.2,58.1-37.6,87.2c-0.2,0.4-2.5,0.4-2.6,0.2c-13-17.5-37.2-26.7-56.8-13.8
				c-2,1.2-2.8,7.3-5.7,3.7c-8.8-10.9-20.9-16.9-32.1-24.5c-26-16.5-64.3,10.7-61.5,39.9c-20.8-12.5-39.4-27.8-66.8-23.2
				c-20.1,3.3-36.2,10.6-45.3,28.8c-6.5,12.9-13.3,26.8-7,41.7c3,6.9-0.1,8.4-4.8,8.8c-27.5,2.5-38.9,38.2-36.7,57.7
				c2.5,28.6,19.7,61.9,50.8,65.2c8.5,1,12,2,10.9,11c5.8,28.5,35.8,39.6,61.9,37.6c29.3-1,52.7-19.1,79.5-27.5
				c-1.8,16.8-41.6,47.8-12.9,57.4c66.8,4.7,128,15.4,195.8,17.7c-20,13.1-22.7,29.8-18.7,48.8c0.3,1.4,0.5,3-2.1,3.5
				c-38.1,16.6-17.8,63.6,17,70.2c5.2,1.1,7.1,3.7,2.6,9c-27.8,33.4,1.8,83.5,38.7,95c32.1,5.4,13.9,10.5,24.8,33.7
				c29.7,64.1,143.4,48,162.5-16c2-10.2,5.2-7.7,12.1-6.3c28.1,9.6,57.1-6.4,66.6-34.2c7.2-15.3,2.8-30.3,1.3-46.2
				c35.8,1.6,66.6-34.9,51.5-68.6c11.7-10.7,16.7-24.2,18.2-39.4c0-5.5,13,8.8,14.8,10c18.1,17.2,46.1,39.2,71.7,24.9
				c15.9-11.7,20,26.4,83.9,19.6c9.4-0.8,21.7,0.3,25.8-12.7c0.5-2.5,0.8-6.1-3-4.6c-6.1,5.5-13.5,7-21.4,8
				c-57.8,8.7-60.9-25.3-80.3-21.4c-12,4.3-23.3,11.1-37.4,3.2c-21.9-12.2-41.9-25.9-54.8-47.8c-2-3.5-8-9.2-4.3-12
				c11.1-8.2,22.8-25.2,18.7-41.4c-17.3-34.5,23.8,9.4,48.6-18.1c2.7-2.6,2.7,0.1,2.7,2.1c0,27.5,5,54.6,8,81.8
				c-0.6,5.4,5.2,2.3,5.9-0.1c-1-19.5-3.3-38.9-3.3-58.4c13.8,14.4,19.9,34.1,29.3,51.4c1.1,2.2,2.5,2.9,4.2,1.8
				c1.2-1,1.7-2.6,1.5-4.1c-4.5-14.8-10.5-29-18.9-42c-4.8-7.4-12.7-13.1-16.3-20.9c-5.4-11.7-0.5-25-2.2-37.6
				c-0.3-2.5,0.5-5.1,0.7-7.7c5.3,4.2,11.5,8,16,13c8.4,10.6,24.1,13.9,27.7,29.2c9.3,31.5,21.9,83.3,44.6,106.3
				c0.9-1.7,2.9-3.8,2.5-4.9c-5.9-13.7-12.1-27.3-18.5-40.7c-0.7-1.5-1.4-2.6-0.5-3.7c0.3-0.3,2.4,0.4,3.3,1.1
				c8.9,7.2,19.4,12.4,26.5,21.9c3.4,3.1,11.1,13.9,16,9.2c2-1.5,0.5-3-0.6-4c-11.4-15.6-26.1-27.3-42.7-37c-3-1.8-7.7-0.4-9.1-5.1
				c-3.8-14.1-9.6-27.7-11.7-42.2c24,15.2,48.1,30.6,72.6,45C980.1,1300.2,989.7,1298.6,982.6,1293.6z M832.2,1091.1
				c24.2,9.3,54.4,49.8,13.5,58.4c-27.9,3.9-49.7-11.9-74.3-18.8c14.8-5.7,26.3-17.4,30.7-31.9c3.4-3.8-4.5-15.9,9.9-12.1
				C818.4,1088.3,825.7,1087.9,832.2,1091.1z M699,1128.7c8,1.5,16,5.3,22.9,3.8c8.4-1.8,13.8,1,20.7,4.3
				c21,10.2,21.1,36.9,8.1,51.4c-7.4,8.2-35.3,4-42-5.3C723.3,1160.6,713.5,1146.7,699,1128.7z M667.5,1089
				c20.8-15.6,70.5-16.6,71.6,15.1c-10.1,21.7-58.5,9.8-75.4,1.7C668,1100.9,661.5,1093.4,667.5,1089z M697.5,1068.9
				c-1.1-0.1-2.1-0.4-3.1-0.9c1.2-2.3,1.9-5.1,3.6-6.9c9.1-9.4,16.3-18.8,18-33c0.8-6.5,11.7-9.1,22.3-9c27.7,3.9,26.1,31.9,3.2,44
				C727.6,1072.6,712.3,1068,697.5,1068.9L697.5,1068.9z M708.8,1012.3c-1.6,9.6-8.8,2.9-12,2.2c-19.4-4.4-34.3,3-43.3,19.7
				c-0.5-24.3,15.4-60.3,46.5-59.1C717.7,976.5,709.1,1000.8,708.8,1012.3L708.8,1012.3z M668.2,1029.3c7.8-9.3,31.7-9,36.2,1
				c3,6.6-3.4,11.5-6.6,16.6c-8.7,13.6-22.1,22.5-35.4,30.7c-2.3,1.4-9.8-5.5-14.7-8.8C650.9,1054.1,658,1040.5,668.2,1029.3
				L668.2,1029.3z M657,1095.4c0.6,21.8-46.3,33.4-49.9,3.9C606.5,1073.2,659.5,1067.6,657,1095.4L657,1095.4z M641.8,1146.2
				c-2.3,17.8-4.2,32-12.4,44c-3.6,5.2-9.8,10.7-16.7,8.3c-22-12.9-3.2-54.2,4.4-72.1c1.3-2.8,3.9-1.4,5.7-1.2
				c6.5,0.7,14.3-0.2,16,8.8C639.7,1139.2,642.7,1144.2,641.8,1146.2L641.8,1146.2z M648.5,1153.3c9.3,18,19.9,28.5,36.3,32.7
				c28.2,0.2,14.7,43.3-5.6,47c-14.9,4.2-30.5-7.2-36.7-22.8C634.8,1190.6,648.2,1175.1,648.5,1153.3L648.5,1153.3z M600.7,1200
				c6.6,10.2,16.4,8.1,25.8,5.5c0,21.3-26.6,37.6-46.3,25.3c-8.8-5.2-17-31.4-12.8-41.1c15.2-46.4,13.2-21,31.9-46.3
				C594.7,1165,589.5,1182.7,600.7,1200z M644.8,1020.5c-0.2,3.7-1.8,7.4-2.8,11.3c-4.9-18.9-10.2-30.4-26.3-40.4
				c2.2-9.2,5.3-18.3,9.1-27c5.3-6.4,15.9,2.9,17.9,8.2C647.7,988.2,645.6,1004.5,644.8,1020.5L644.8,1020.5z M624.6,1013.8
				c6.4,12.9,11.8,26.3,9.9,43c-1.1,2.8,3.2,10.8-1.4,11.5c-8.6,1.2-19.8,10.9-26.4-4.3c-2.1-4.8-6.5-8.4-9.6-12.8
				c-7.4-10.7,2.8-18.7,4.6-27.9c0.7-3.6,1.9-7,3.6-10.2c2.1-3.9,1.9-11.4,6.3-11.3C617.9,1002,621.9,1008.3,624.6,1013.8
				L624.6,1013.8z M596.8,1072.4c3.5,2.6,12.3,2.7,9.5,8.6c-3.6,7.8-7.4,17.4-19,18c-6.7,0.4-13.1,3.2-20.2,1.4
				c4-7.8,9.4-14.9,11.4-22.8C582.2,1064.2,589.1,1066.7,596.8,1072.4L596.8,1072.4z M590.8,1108.7c12-3.9,11.3,7.7,17.3,10.9
				c-2.6,13.6-29,34.9-42.2,36.1c-6.8-1.9-14.7,1.4-20.2-6.3c-4.1-5.7-0.1-9.7,1.7-13.3C556.1,1117.9,573.8,1114.2,590.8,1108.7
				L590.8,1108.7z M557.8,1164.2c2-0.2,4.2,0.7,6.2,1.1c-12.2,17-27,33.2-51.5,31.4c11.3-13.3,16-29.5,25.4-42.5
				C542.8,1160.2,548.9,1164.8,557.8,1164.2L557.8,1164.2z M518.8,1207.8c-17.1,16.3-21.5,49.4-11.6,60.9c12.3,14.3,0.1,15-7.8,18.8
				c-12.1,5.9-24.4,9-37.8,3.6c-13.9-5.6-5.6-12.5-1.3-18.7c13.3-18.8,27.8-36.9,40-56.3C505.4,1208.1,510,1205.4,518.8,1207.8
				L518.8,1207.8z M515.8,1227.3c5.7-22.1,27.9-26.3,42.5-39.7c0.5,19.1,0.3,44.4,21,52.7c9.4,4,3.3,6.9,1.6,10.9
				c-8.3,19.5-51.8,31.2-63.7,16.3C507.4,1255.3,512.5,1240.9,515.8,1227.3L515.8,1227.3z M545.2,1284.9c0-5,5.7-4.5,8.4-5.3
				c17.8-5.3,31.7-14.4,37.6-33.1c1-3.3,5-4.1,8-3.2c4.3,1.2-0.3,3.1-0.1,4.7c2.1,15.1,0.6,31.5,12.7,43.5c6.7,6.6,0.3,11.6-1,16.9
				c-7.5,30.4-58.7,49.3-68.1,10C540,1306.4,545.1,1296,545.2,1284.9L545.2,1284.9z M611.3,1272c-4.2-9.3-3.2-20.1-1.7-30
				c0.5-3.2,6.5-5.7,10.2-8.3c8.2-5.7,11.7-14.1,14.3-25.4c3.9,18.5,20.4,35,36.6,37.9C675.4,1279.8,631.3,1318.8,611.3,1272
				L611.3,1272z M647.9,1301.6c22.2-6.3,31.1-29.8,29.4-50.7c-0.2-2.4-2.6-5.9,2-7.9c9-4,18.6-12.7,23.3,4.7
				c4.2,15.6,10.8,30.6,10.4,45.5c3,32-30.3,70.8-58,40.7c-6.1-8.7-12.7-17.3-15.4-27.5C638,1300.1,645.5,1302.2,647.9,1301.6
				L647.9,1301.6z M698.1,1176.6c-28.4,6.8-44.1-28.9-52.1-50.2c-2.3-5.8,8.4-12.3,13.1-12.5C677,1114.7,726.2,1159.4,698.1,1176.6
				L698.1,1176.6z M733.9,1122.4c17.2-7.9,19.4-23.3,8.6-37.2c-4.2-5.9-10.7-9.6,2.5-13.7c12.9-3.9,37.1-0.4,45.5,10.1
				c8,10-2.8,32.7-17.8,37.1C760.1,1122.7,746.9,1123.9,733.9,1122.4L733.9,1122.4z M783.5,1032.7c18.5-2.2,36.1,6.4,39.8,23.6
				c1.3,15.7-7.9,16.2-15.9,18.9c-11.8,4-16-9.2-25.5-10.4c-3.9-0.5-7.7-3.9-11.3-3.5c-16.4,1.7-3.9-7.7-2.2-14.4
				C767.7,1035.8,772.8,1032.7,783.5,1032.7L783.5,1032.7z M731.3,764.8c3.5,2.6,7-6,9.5-9.5c19-27,52.7-31.8,77.8-15.3
				c14.6,11.5,17,39.6,15.8,57.5c-0.4,5.4,4.7,3.9,7.4,3.3c17.8-3.5,37.4,16.3,35.4,34.5c-2.1,26.3-22,41.5-35.5,61.6
				c-5.2,4-0.2,9.3,5.2,8.1c37.4-7.8,62,40.4,28.2,62c-4.2,2.6-8.6,5.9-8.5,10.6c0.1,3.8,4.8,4.8,8.9,6.1
				c11.8,3.8,16.9,26.9,13,39.4c-7.7,24.7-30.8,30-48.9,42.4c-12.8,3.4-5.2-7.7-5.9-10.5c-5.5-22.6-31.5-38.4-53.3-30.8
				c-8.2,2.8-14.7,4.9-20.3-5.2c-4.1-8.2-15.2-6.7-22.8-10.2c17.5-11,19.9-14.3,39.8-7.3c14.7,1.5,72.6,18.7,79.4,5.2
				c-0.2-3.3-4-1.7-6.3-1.8c-26.7-0.1-52.3-7-77.9-13.3c1-1.5,1.7-3.7,3.1-4.3c28-10.4,51.3-29,77.1-43.3c2.1-1.2,5.2-3.5,3.6-6
				c-4.2-8.6-49.1,28.7-58.5,28.5c6.3-12.9,14.5-24.9,22.1-37.1c1.7-2.6,0.5-3.6-0.7-3.9c-1.8-0.5-5-0.6-5.7,0.5
				c-7.7,11.2-16,22.2-22.1,34.3c-7.7,15.5-21.8,21.7-35.8,28.6c-10.1,4.9-19.6,11-30,15.4c8-27.1,25.8-75.7,46.2-94.4
				c11.1-11,26.4-13.4,40.1-19.1c6.5-4.2,38.8-20.7,34.7-28.8c-4.3-3-53.7,37.3-40.5,17c5.1-8.2,38-39.6,30.7-47
				c-1-0.5-4.1,1.8-5.5,3.5c-19.4,24.6-39.2,48.8-60.3,72.1c-1.5-1.1-3-2.2-4.5-3.3c16.1-47.7,31-98.5,22.7-149.1
				c-0.3-2.3-2.1-2.2-3.8-2.3c-3.2-0.1-2.5,2.3-2.2,3.8c3.7,27.9,0.7,56.3-8.6,82.8c-1.5-19.4-8.1-37.9-7.4-57.3
				c0.1-1.9,0.4-4.8-2-4.9c-11,2.4-0.2,60.7,4.4,69.3c5.4,13.7-3.8,22.7-5.5,33.9c-1.6,8.2-5,16.5-8.6,24.2
				c-1.2-0.8-2.8-1.4-3.4-2.5c-6.4-11.1-12.5-22.5-19.1-33.5c-4.2-7,1.1-12.7,2.6-18.5c4.1-16.1,6.6-32.6,2.8-48.8
				c1.3-3.6,1.7-7.1-1.5-9.9c-3.3-1.4-6.3,8.9-5.2,11.8c4.7,18.1-3.2,33.8-5.1,51.5c-8.5-13.1-11.3-27.4-17-40.4
				c-1.8-4-2.1-12.5-6-10.6c-6.1,2.9-1.3,10.7-0.1,15.8c9.9,32.9,24.3,65.7,46,92.5c4,4.7,0.4,8.1-0.7,11.2
				c-4.3,9.7-7.8,20.5-14.6,28.7c-9.9-16.7-11.4-38.1-22.3-54.2c-7.7,6.5,13.6,53.8,19.1,63.1c3,5-2.7,13.1-6.9,18.1
				c-1.9,2.3-5.1-2.7-6.9-5.1c-8.3-10.8-16-22-24.6-32.5c-3.6-4.4-1.2-9-0.7-12.3c3.2-20.3,0.7-40.4-0.8-60.6c0.1-8.3-10-6.3-8,1.5
				c3.7,17.5,1.4,35.3,1.8,53c0,1.1-1.5,2.3-2.3,3.5c-8.8-7.8-13-20.5-20-30.1c-1.6-3.9-4.8-6.2-6.8-1.2c5.8,24.4,27.1,43,39,65.1
				c5.6,9.8-5.9,5.2-7.5,5.9c-14.2,4.8-23.6,13.9-32.4,25.4c-0.8-50.1-38.8-27.2-20.8-52.5c11.8-41.5,24.9-82.7,35.2-124.6
				c3.5-12.4,6.4-25.4,12.2-36.7C689.6,762,712.6,751.4,731.3,764.8z M715.3,249.5c16.9,10.2,6.8,21.3-7.3,25.2
				c-54.7,12.9-105.3-11.2-158.3-27.5c16.6-0.8,29-9.9,43.6-8c27.3,3.5,54.8,5.6,82.3,2.9C689.7,240.7,703,240.4,715.3,249.5
				L715.3,249.5z M695.9,183.3c17.1,1.5,35.3,1.8,45.4,19.3c11.6,19.2-36.5,27.9-48.5,30.3c-13.5,2.7-27.2,2.3-43.2,2
				c-13,2.8-28.3-3.6-43.7,0c-0.6,0.1-1.4-0.9-2.1-1.4c16.9-9.5,36.3-15.6,52.3-27.9C669.7,198.3,678.9,181.4,695.9,183.3
				L695.9,183.3z M630.4,167.3c1.2-10.1,10.7-10.4,17.3-12.9c28-10.5,45.1,8.8,21.6,32.9c-33.7,23.6-70.1,42.9-111.1,49.7
				C585.5,216.1,623.2,203.8,630.4,167.3L630.4,167.3z M596.4,141.4c23.1-9.3,34.5,14.5,23.1,32.9c-28,43.7-85.3,66-133,80.9
				c35.5-24.6,72.2-51.1,85-94.4C574.8,150.5,586.2,144.8,596.4,141.4L596.4,141.4z M507.4,161.3c32.9-70.8,127.9-12.2-37.1,93.5
				C494.9,224.1,498.5,195.3,507.4,161.3L507.4,161.3z M457.5,180c2-15.6,6.6-31.2,21-41.1c3.3-2.3,7.4-3.6,10.4-0.8
				c5.1,4.8,11.5,9.3,9.9,18c-7.2,37.3-15.3,70.6-40.8,101.7C463,229.6,455.6,206.8,457.5,180z M413.8,159.1
				c2.4-3.2,7.7-7.9,9.8-7.1c30.7,18.6,26.7,73.2,27,105.4C425.3,235.6,394,191.6,413.8,159.1L413.8,159.1z M340.1,213.7
				c2-10.4,13.9-11,23.8-11.2c14.1-0.3,26.3,6.2,39,10.8c8.1,2.9,9.4,12,13.2,18.1c7.5,12,17.5,21.4,27.5,31.3
				C418.9,266.1,337.8,244.5,340.1,213.7L340.1,213.7z M195.3,298.2c0.7-25.1,53.6-26.9,73.7-29.5c7.7-2.1,12.5,6.8,19.8,9.8
				c8,3.3,16,7,24.5,8.3c7.4,1.1,14.5,6.5,22.5,2.4c0.4-0.2,1.4,0.6,2,0.9c-31.7,21-76.3,29.6-114.6,24.5
				C212.4,312.8,197.2,313.8,195.3,298.2z M310.5,362.4c-11.2,16.1-23.5,31.7-40.3,42c-9,5.5-17.6,17.8-30.5,10.3
				c-13.4-8.7-3.2-28.6,2.3-39.5c5.3-8,15.3-9.1,23-13.5c26.1-13.9,48.5-30.4,72.3-48.6C330.3,330.5,321.3,347.1,310.5,362.4z
				 M238.3,364.5c-18.2,7.4-37.4,11.7-57.3,6.4c-8.7-2.3-11.1-17.3-4.6-26.2c8.2-11.1,20.5-16.9,31.9-22.6c5.6-2.8,15,2.7,22.7,2.8
				c15.1,0,30.8,1.2,45.2-2.3c19.7-4.8,40.4-8.5,57.6-20.7c0.7-0.5,1.7-0.5,5.2-1.4C307.2,327.9,274.8,349.6,238.3,364.5
				L238.3,364.5z M345.9,282.8c-16.6-1.8-73.9-8.1-68.5-32.5c9-21.4,41.5-16.4,60-14.5c8.8,1.4,16.3,10.4,24.7,15.3
				c18.8,12.4,39.2,14.5,61,19C397.1,277.8,372.1,285.1,345.9,282.8z M435.3,335c-18.1-17.2-39.4-33.7-61.9-43.3
				c0.7-0.9,1.5-2.4,2.3-2.4c22.1-0.9,42-10.5,62.9-16.1c29.9-8,61-10.9,89.6-23.9c2.7-1.2,6.5-0.2,10.1-0.2
				c-11.2,18.5-19.2,38.4-23.1,58.9c-3.3,17.6-14.6,5.9-21.6,8.5c-5.7,2.1-12.8,0.1-19.1,0.6c-4.6,0.4-2,4.9-2.1,6.8
				c-1.1,17.5,2.1,35.2-1.9,54C460.3,362.3,448.5,347.9,435.3,335z M330.9,886.6c-45.2-7-91.4,22.2-133.9-3.3
				c-10.9-5.5-7.6-29.3-18.3-27.9c-43.4,8.1-57.3-49.2-11.8-56.4c8.5-0.6,17-2.5,25.4-4.3c1.2-0.3,2.3-3.2,2.6-5.1
				c0.6-2.8-1.7-2.5-3.6-2.6c-26.1-2-51.7-5.2-74.6-19.7c-11.7-7.4-19.6-35.5-17-48.4c3.2-15.6,15.2-17.7,25.4-23.4
				c14.9-6.2-33.9-27.1-16.6-89.4c3.9-20,27.1-48.1,46.4-29.7c9.1,9.9,17.1,20.7,25.6,31c1.5,1.8,2.8,4.6,5.9,3.4
				c3.6-1.3,2.4-4.6,2.7-7.3c-0.4-19.3,12.9-38.8,32-23c32.5,22.3,35.6,62.5,55.7,92.9c10.8,11.4,13.6-38.7,58.1-20.3
				c6.6,2.8,9.6,10,9.4,14.9c-0.4,31.3,37.5,17,40.5,60.5c2.5,22.9,3.2,46.1,6.6,68.9c5.6,27,14.3,30.9,0.8,59.5
				c-0.6,1.8-2.6-0.4-3.7-1.4c-11-10.2-22.5-20-32.7-30.8c-5.9-6.3-0.9-14.8,0-21.9c2.1-17,1.4-33.7-0.1-50.5
				c-1.2-8.2-1.1-43.5-12-42.9c-3.4,1.1-0.9,3.7-0.7,5.5c5.2,33,6.4,66.5,3.7,99.8c-8.1-6.5-16-12.7-23.8-19
				c-3.3-2.7-6.6-4.8-4.1-10.7c3.2-7.5,2.3-16,1.7-24.2c-2.3-10.5,0.4-87.7-11.2-83.6c-4.3,1.5-0.7,4.5-0.6,7
				c0.6,19.6,0.8,35.6,2.6,56.1c-8.2-13.1-15.3-24.3-22.4-35.5c-1.9-3.7-6-4.5-9.3-2.1c14.4,32.9,36.7,42.5,30.7,82.4
				c-20.9-13.7-38.8-32.3-57.9-48.5c-6.7-6.1-3.8-15.8-5.2-23.8c-6.9-34.6-11.7-73.4-30-103.3c-2.3-0.5-6.6-1.8-4.7,3.7
				c9.4,23.6,16.6,47.8,20.5,73.1c1.7,11.9,7.6,23.8,5.2,36.1c-29.6-29.7-55.6-63.7-83.8-94.9c-4.5-6.1-7.8,0.6-4.9,5.2
				c27.1,32.4,51.8,68.4,82.8,97c-20.5,9.7-35.3-3.6-51.3-13.1c-10.4-6.2-21.1-11.6-31.9-17.2c-1.2-0.6-3.1,0.4-4.7,0.7
				c11.4,17.4,35.3,20,50.8,35.2c-18.9-3.2-37.4,3.5-55.5-3.1c-3.6-1.3-9.4-3.5-10.4,1.1c-1.3,5.7,4.9,5,9,6.1
				c22.5,6.1,45.4,4.6,68.1,2.9c9.5-0.7,19.5,1.1,28.9-2.8c5.4-2.2,8.9,2,12.3,5.5c16.2,16.6,35.3,29.8,52.9,44.6
				c1.9,1.6,3.6,3.6,0.1,5.1c-7,3-14,6-21.2,8.3c-9,2.9-16.8-3.1-25.3-4.3c-12.2-1.7-24.3-4.3-36.5-6c-2.9-0.4-8.9-3.9-8.3,2.3
				c0.6,6.5,8.6,4.5,13.1,5.9c12.8,3.9,26.8,2.8,39.9,9.8c-23.5,4.5-45.2,11.9-68.9,13c-2.1,0-4.3,2-6.4,3.1c2.7,1.5,5.5,4.5,8,4.2
				c23.7-2.7,47-6.6,70.1-13.3c11-3.6,21.8-8,32.2-13.2c10.2-5.2,17.6-4.6,25.4,3.3c5.2,5.2,11.1,9.8,16.7,14.6
				c-17,10.3-34.8,19.4-54,25.4c-15.9,5-32.2,9-48.4,13.1c-2.5,0.6-4.1,1.3-4.3,3.8c0.9,8.7,51.1-8.2,58.7-10.1
				c18.9-5.5,36-14.6,52.8-24.7c2.6-1.6,3.9,0.2,5.1,1.3c12.6,11.6,25.9,22.5,37.1,35.3c6.7,9.1-7.2,24.9-7.9,35.6
				c-0.3,2.8-1,4.5-4.9,1.7C361,894.7,346.5,890,330.9,886.6z M203,1208.7c-31.9,14.4-70.7,34.6-103,11.2
				c-7.8-5.5-17.4-15.1-13.2-29c1.8-5.9-2.2-9.8-8.4-9.8c-60.6,4.2-75-104.9-10.3-108c21.9-3.3-19.5-20.2,6-55.4
				c12.4-19.8,46.4-24.4,65.6-16.3c14.7,6.2,26.3,19.2,43.3,20c1.9,0.1,6,1.6,4.2-3c-6.4-16.9,3.3-30.8,15.7-37.6
				c14.2-7.8,27.5-4.6,40,4.7c10.4,7.8,21.6,14.8,28.4,26.6c2.2,2.5,7.1-0.3,7.7-3.1c5.5-24.4,27.8-13.2,42.1-2.9
				c14.8,8.7,4.1,17.9,0.3,26.8c-5.2,11-9.6,18.8-15.2,30.6c-4.7-15-4.1-28-10.7-40.5c-5.6,0.3-5.4,7.8-4.2,11.5
				c2.3,12.2,6.8,24.1,7.5,36.3c0.6,10.1-5.4,20.7-15.2,23.1c-6,1.5-12.5-7.3-17-13.4c-16.7-24.5-35.7-47.4-51.7-72.2
				c-0.8-1.2-1.4-4.5-3.9-2.7c-12.6,7,28.6,47.4,31.8,58.4c-21.7,1.8-42.7-7.6-62.6-15c-0.9-0.4-2.4,0.7-3.7,1.1
				c15.7,14.1,37.1,20,58.3,21.1c10.7,0.2,17.8,7.1,25.7,14.7c14.7,14,4.6,15.8-6.5,18.9c-21.1,9.1-26,5-46-2.7
				c-24.4-6.3-45.1-20.4-66.8-32.1c-14.1-7.5-26.5-18.2-39.5-27.7c-2.7-2-5.5-2.4-7.6-0.4c-3.1,3,1.3,3.8,2.5,4.9
				c14.1,12.4,29,23.9,44.6,34.4c-11.3-2.9-22.6-5.8-33.9-8.9c-1.2-0.3-2.6-1.8-3.2,0.1c-0.3,1.1,0.4,3.7,1.2,3.9
				c15.9,5,30.4,14.4,48.3,12.8c11.3-1,18.9,9.6,29,13c5.6,1.9,11,4.3,16.4,6.8c2.9,1.3,6.8,0.8,8.6,4.4
				c-40.4,12.2-84.6,6-126.4,7.5c-9.4,0-18.8,0.2-28.3,0.1c-2.4,0-2.9,1.7-2.9,3.2c0,2.7,2.3,2.6,4.4,2.8c25.4,3,50.5,1.3,76,2.3
				c-17.2,10-33.3,18.7-51,23.6c-1,0.3-2.6,2.2-2.4,2.8c2.2,9.3,33.7-6.8,38.7-10.3c27-19.2,59.5-19,91-20
				c-17.3,17.6-36.3,33.6-56.6,47.6c-6.9,5.4-15.4,11-20,18.6c6.3,4.7,51.2-32,57.9-38.1c-0.3,15.9-6.5,30.8-11.1,46.2
				c-0.7,2.3-1,4.2,1.6,4.4c6.6,0.6,7.3-5.4,8.4-9.3c14-76.1,26.6-68.6,94.4-89.5c-11.8,24.1-25.9,47.2-38.9,70.7
				c-5.1,8.9-10,18.7-17.4,25.3C219.7,1206,210.2,1205.3,203,1208.7z M355.1,1271.1c-44.6-5.2-89.4-10.3-134.3-12.2
				c-14.6,1.3-16.6-1-6.5-14C277,1144.5,339.5,1042.7,382.1,932c21.9-59,36.9-120.7,50.4-182.1c33.2-137.6,48.4-279,50.4-420.4
				c-0.1-5.1,3.7-5.3,9.3-5.3c17.9,0,38.4,0,58.9,0c58.7-2,117.3-4.4,175.9-7.2c3.7-0.2,3.9,1.2,3.6,4.3c-2,20.5-2.5,41.3-6,61.6
				c-7.1,80.6-16.7,160.8-24.7,241.3c-10.4,63.2-25,125.7-42.3,187.4c-35.8,140.2-86.4,278.7-167.5,399.3
				C421.7,1301.1,468.5,1279.7,355.1,1271.1L355.1,1271.1z M764.2,1349c-9.3,26-25.4,19.6-16.1,33.7c16.4,27.8-22.3,61.4-50.3,50.4
				c-2.7-0.9-4,0.7-3.3,4.1c2.1,10.5,5.1,21.1,5.2,31.6c0.3,19.3-15,50.7-42.5,48.2c-10.4-1-20.9-1.3-31.4-2.1
				c-3.4-0.3-5.5,1.4-5.6,4.3c-2.5,34.3-46.6,59.5-77.9,58.4c-98-2.7-59.6-68.3-85.8-71c-29.8-1.6-56.8-28.4-58.7-57.7
				c-2.1-13.3,8.1-25.1,14.7-36.6c0.9-2.7,4.3-4.8,2.4-8.1c-1.7-3-4.9-1.3-7.3-1.3c-32.6-0.7-56.6-45.9-18.6-58.7
				c11.5-4.7,2.2-12.1,1.8-17.9c-1.1-16.4,6.8-28.4,19-36.4c4.5-2.9,13.7,1,20.7,2.3c11.7,4,14.2-7.5,18.3,0.1
				c19.6,21.3,55.5,7.1,73.1-10.8c1.9-2.2,10,1,15.2,1.8c-1.2,12-7.5,24.2-2.8,36c2.2,5-1,7.4-11.8,9.5c-12.3,2.3-22.6-4.8-34-7
				c-14.5-2.9-29.4-3.7-44.2-2.3c-4.6,1.6-21.6-1.2-21.7,4.4c-1.6,5.9,36.1,1.9,41.8,3c13-0.1,24.8,4.8,38.5,8.7
				c-33.9,11.4-64.7,22-96.9,35.8c-4.9,1.6,0.3,5.9,3.1,5.3c34.3-11.4,67.1-23.8,101.9-34.1c-15.9,21.8-35.6,38.2-55.5,54.5
				c-1.1,0.9-4,1.5-2,3.3c9.5,9.9,59-43,64.6-53.3c4.9-6.9,12.8-16.7,22-12.4c14.9,25.2,42.3,4.4,34.6,22.9
				c-3.2,7.6-6.8,15.3-8.3,23.4c-2.4,12.9-13.6,13.3-22,17.8c-14.5,7.9-29.4,15-43.6,23.4c-13.5,8-25.8,17.8-37.5,28.4
				c-4.1,2.8-26.4,30.4-10.2,23c8.6-7.8,14.3-18.2,24.4-24.7c11.5-7.5,22.6-15.8,35.8-25.1c-12.5,18.5-20.7,36.7-33.8,51.6
				c-1.7,2.9,1.8,8.4,5.3,4.6c8.6-9.5,14.4-21.1,22.5-30.7c9.4-11.2,8-29.8,25.4-35.5c8.8-2.9,16.8-8.3,27-13.6
				c-11.8,40.6-21.7,79.1-30.7,120c-0.5,2.7-2.6,7.7,2,8.5c7,1.3,6.6-6.2,7.5-9.6c7.2-23.4,9.4-49.6,18.2-71.9
				c6.8,19,7,41.7,8.1,62.3c0,4.9-1.8,10.6,4.6,13.3c5.7-15,3.8-54.1-2.8-69c-9.5-21.2-1.7-40.1,4.4-59.6c0.8-2.6,3-1.3,4.4-0.1
				c9.1,7.7,18.2,15.5,27.3,23.3c2.7,2.3,2.2,5.3,1.9,8.2c-1.9,7.9-0.3,72.4,10.4,68.5c3.3-0.8,2.1-3.4,1.8-4.8
				c-3.8-20.3-5.3-41.6-3.5-61.9c18.3,16.7,32.2,37.9,45.8,58.8c24.6,5.3-38.6-66.9-44.7-70.5c-11.2-10.6-21.4-22.9-36.2-29.3
				c-3.6-1.5-4.1-4.5-3.1-7.7c3.2-10.3,6.4-20.7,9.9-30.9c1.6-4.6,6.6-4.4,10.2-5.2c1.2-0.3,3.9,4,5.1,6.5
				c5.1,10.7,10.2,21.4,14.8,32.4c2.1,3.7,3.5,23.7,9.5,20.5c0.6-2.9,2.7-5,1.9-8.7c-10.4-56.4-35-41.7-11-74.7
				c1.5-4.5,2.5-9.1,3.9-14.2c5.6,7.7,9.5,16.6,16.3,21.7c10.1,7.6,8.8,17.2,9,27.1c-0.4,7.2,7.1,65,16.7,59.3c4.7-3.7-0.1-9-1.2-13
				c-6-21.2-5.1-36.7-10.4-59c21.8,24.2,37.5,40.5,62.6,57.7c0.4,0.3,1.8-0.4,2.6-0.9c5.6-5.9-18.4-20-22.1-24.7
				c-6.5-6.1-13.1-12.1-20-18.5c19.1,1.7,28.7-9.1,38.4-22.3c10.2-14,9.1-29.3,9.8-46.7c8.3,14.6,19.2,21.8,34.1,24.1
				C762.3,1310.4,768,1340.9,764.2,1349z M771.2,1292.5c-33,25.8-54.4-30-63.2-53.8c-2.8-9-3.3-18.8-0.3-27.8
				c2.1-6.2-0.5-11.6-0.5-17.6c11.7,5,24.1,8.1,33.7,15.1C765.2,1226.1,798.5,1264.8,771.2,1292.5z M802.9,1241.7
				c-23-5.5-37.3-21.4-51-38.7c-11-10.1,33.6-11,12.3-58.8c-0.4-0.9-0.7-2.7-0.4-2.8c1.6-0.8,3.8-2.1,4.9-1.6
				c15.2,8.2,32.5,12,44.5,26.2C839.3,1190.7,852.3,1250.9,802.9,1241.7L802.9,1241.7z M970.1,397c9-0.6,6.5,22.4-6.3,20.9
				c-9.2,0.2-10-7.3-9.5-13.3C955,394.5,963.7,397.2,970.1,397z M940.6,64.7c2.4-11.2,31.4-11.6,28.3,11.2
				c-0.4,4.9-7.4,7.7-14.3,7.7C942.5,83.7,940.1,73.7,940.6,64.7z M943,272.5c-1-11.9,18.1-18,20.3-6.3
				C965.6,280.7,943.2,285.7,943,272.5z M963,697.3c0.7,9.2-4.5,13.4-12.4,12c-8.6-1.6-7.5-10.4-8.3-16.7c-0.9-7.6,6-8.4,11.1-7.9
				C960.2,685.4,963.9,690.1,963,697.3z M955.4,157.3c-9-0.5-15-0.9-14.6-9.2c0.3-6.6,1-14.3,9.2-14.9
				C963.9,130,968.6,158.3,955.4,157.3L955.4,157.3z M969.2,1585.7c-0.6,5.8-2.5,11.5-9,11c-5.1-0.4-11.6-1.9-11.2-9.7
				C948,1572.8,969.5,1570.6,969.2,1585.7z M944.2,1491.5c-2.1-11.3,5.8-14.1,13.5-14.2c8,0,8.3,8.1,9.6,14
				c-0.3,11.2-9.4,7.1-14.7,8.4C946.9,1501.2,945.1,1496.7,944.2,1491.5L944.2,1491.5z M925.6,1439.9c0-4.8,1.9-11.5,10.8-11
				c4.6,1.3,12.2,0,12.5,8.7C950.3,1453.3,926,1455.1,925.6,1439.9L925.6,1439.9z M943.9,1536.5c-0.1,17.8-22.3,17.1-22.3-0.6
				C923.7,1520.1,944.4,1523.1,943.9,1536.5L943.9,1536.5z M925.6,334.9c17.4-1.6,20.6,21.9,5.5,24.4c-5.1,0.3-12.5,0.7-12.8-8.3
				C918.2,343.8,917.8,336.7,925.6,334.9z M912.7,839.4c0-16.9,21.3-16,20.4,0.5c0.6,8.2-4.4,11-11.2,11
				C914.4,851,913.5,845,912.7,839.4z M931.3,210.2c2.4,18.1-22.5,13.3-21.2-1.5C910,194.9,932.6,195.8,931.3,210.2z M906.9,16.1
				c0.4-7.1,2.2-12.5,11.3-11c7.4-1.7,12.5,3.6,12.1,9.1s0.4,15-10.3,14.9C911.3,29,906.3,25.6,906.9,16.1z M910.6,671.1
				c-13.8,1.1-11.9-22.6,0-22.1c6-0.2,9.6,3.6,9.4,9.6C919.6,664.9,919.4,672,910.6,671.1L910.6,671.1z M906.1,747
				c17.8-2,12.1,27.1-3.4,26.2c-10.9,0.8-9.2-9.2-8.9-13.2C894.1,754.4,896.2,745.9,906.1,747z M896.4,106.6
				c0-5.6,2.7-11.1,7.3-10.4c4.3,0.7,12.8,1,12,9.3c-0.5,5,1.2,13.1-8.5,11.3C900,116.9,896.4,113.9,896.4,106.6L896.4,106.6z
				 M915.1,299.3c0.2,7.4-2.5,12.7-9.5,12.5c-14.4-1.1-11.8-22.3,2.9-20.9C915.5,290.6,914.8,295.6,915.1,299.3z M903.4,1497.7
				c0.5,7.7-5.8,10.7-11.3,10.8c-10.4-0.1-11.6-25,2-21.5C903,1485.7,903,1492.2,903.4,1497.7z M882,154.9c16.9-1.3,21.8,29,3.9,26
				c-10.1,1.4-14-4.7-13.7-13.2C872.4,162.1,872.5,154.4,882,154.9z M879.1,254.9c-8-0.2-10.9-5.1-10.3-13c0.5-6.5,3.5-9,12.8-9.1
				C891.8,232.8,892.2,257.1,879.1,254.9L879.1,254.9z M885,1569.5c-0.2,7.2-4.5,9.7-12.4,9.7c-5.1,0.8-6.5-3.7-6.3-8.2
				C865.5,1559.4,887.7,1555.9,885,1569.5z M860.3,374.4c-0.7-9.7,6.3-11.3,13-11.5c5.7-0.3,6.9,5.1,8.2,9.7
				c2.9,10.4-5,11-11.5,12.2C866.1,385.6,860.2,378.6,860.3,374.4z M851.4,59.1c-2.2-15,26-13.4,25.3,0.9
				c0.7,8.9-5.4,14.4-17.8,13.5C854.9,71.5,852.3,65.1,851.4,59.1z M869.2,699c0.3,16-25.3,13.3-23.9-1.9
				C845.7,683.6,871.3,682.1,869.2,699z M867,1442.5c-0.8,5.9,0.1,13.6-8.5,14.4c-7.9,0.8-16.9,1.3-15.6-11.6
				c0.3-7.2,3.9-14,10.6-14.6C859.8,1430,868.3,1432.3,867,1442.5z M861.1,293.3c0.2,15.2-22.3,14.7-22.2,1.1
				c0.3-7.6,1.3-13,9.5-12.5C855.8,282.3,861.3,284.4,861.1,293.3z M839.1,206.8c7.1,1.4,11.1,4.5,10.1,11.4
				c-0.4,6.2-0.8,13.1-7.7,12.4c-7.2-0.8-16.2-3.2-16.2-12.8C825.4,210.3,829.7,204.9,839.1,206.8L839.1,206.8z M845.1,1532.8
				c0.5,14-21.2,13.2-20,1C823.6,1521,846,1520.6,845.1,1532.8L845.1,1532.8z M819,11c-0.6-17.6,22.1-13.9,22,1.4
				c-0.1,6.6-2.7,10.8-9.7,8.6C823.3,21.8,818.3,19.4,819,11z M803,105.2c-2.2-9.5,4.8-8.8,10.5-8.2c4.5,0.5,11.1,0.3,10.3,7.8
				c-0.7,6.7-1.8,13.8-11.6,12.3C805.7,116,801.3,113.1,803,105.2L803,105.2z M818,1485.3c0.7,14.5-26.2,13.9-20.8-1
				c1.3-4.9,0.5-11.7,2.8-12.5C815.8,1469.8,818,1477.2,818,1485.3z M804.5,1584.3c1.2,16.4-22.3,18-19.3,3.2
				C781.5,1573.8,804.8,1569.6,804.5,1584.3L804.5,1584.3z M791.5,239.4c9,0,12.8,6.9,12.4,15.9c-0.3,8.2-7.9,6.8-12.3,7.3
				C778,263.5,776.8,238.6,791.5,239.4z M764.6,54.1c-1.3-18.9,20.7-20.5,22.8-3.5C792.1,66.1,762.9,66.8,764.6,54.1z M771.5,1534.9
				c-0.5,5.6-0.3,12.6-8,12.8c-6.5,0.2-12.7-3.4-12.3-10.9C750.3,1523.1,772.4,1518.1,771.5,1534.9L771.5,1534.9z M725.7,115.1
				c8.4,0.3,12.9,5.3,11.2,14c0.5,5,0.8,10.1-5.5,10.7c-9.6,0.9-15.7-3.8-16.3-13.5C714.7,119.7,718.9,114.9,725.7,115.1z
				 M706.2,17.8c-0.5-8.8,5.5-11.9,13.3-11.6c6.3,0.2,12.9,1,12.5,9.8C734,35,709,35.8,706.2,17.8z M711.8,1578.6
				c2.1,14.9-20.3,17.3-21.1,1.2C688.2,1564.2,712.6,1561.7,711.8,1578.6z M665,77c0.8-7.7,5.8-10.2,16.2-10.3
				c7.5-0.7,10.2,6.8,9.4,14.9C690.2,100.3,661.9,94.6,665,77z M639.6,37.8c-1.3-12,25-9.8,22.3,6.1c-0.4,7.1-5.3,10-11.8,9.1
				C637.2,54.1,640.6,43.4,639.6,37.8L639.6,37.8z M532.7,16.9c-0.2-5.9,2.4-8.6,10.3-7.7c4.1,1.3,13.1-0.2,13.6,8.9
				C558.4,38.6,530.5,37.9,532.7,16.9z M480.2,71.7c-0.9-10,6.1-15.5,14.2-16.3s9.1,7.8,10.9,14.3C502.6,82.4,483.4,85.2,480.2,71.7
				z M428.9,1560.8c-3.2,3.4-0.2,12.8-8.1,12.7c-6.9-0.1-17.5,0.9-15.8-12c1-7.4,2-15.3,12-15.7
				C426.3,1545.6,428.8,1551.9,428.9,1560.8z M398.8,66.7c-1.9-16.1,21.7-19,20-3.5c-0.5,5.8-1.2,12.4-10.3,12.1
				C401.2,75,398,72.2,398.8,66.7z M378.2,14.7c-0.2-9.3,6.5-12.3,14.5-11.6c8.1,0.7,7.3,8.4,7.4,13.4c0,6.3-4.5,10-12.6,9.2
				C380.2,26.7,378.3,20.6,378.2,14.7L378.2,14.7z M374.9,1522.7c0.1,11.3-9.4,12.3-17.2,13c-5.5,0.5-7-4.7-6.7-9.2
				C348.5,1508,374.7,1508.3,374.9,1522.7L374.9,1522.7z M343,107.9c7.5,0,10.1,4.8,10.2,14.4c0.1,4.1-2.2,8.4-10,7.8
				C329.8,130,329.2,106.8,343,107.9z M351,1587.2c2.8,17.8-21.7,13.7-22.2-0.7c-1.8-14.3,9.3-12.4,16.5-11.8
				C352.7,1575.3,349.4,1583.8,351,1587.2z M318.7,46.4c0.5-6.6,1.7-11.6,9.1-11.4c17.2-0.9,20.1,26.8,1.3,24
				C320.7,58.7,319.9,52,318.7,46.4z M300.9,164.6c0-5.6-0.1-11.4,4.9-11.1c5.6,0.3,14.9-2.3,14.5,9.3C320,170.5,317,175,309,175
				C300.4,175.1,301.7,168.4,300.9,164.6z M314.6,1460.4c-0.1,5.5-1,12.5-10.4,10.8c-6.9-1.2-11-4-10.3-11.4
				c0.6-6.5,1.8-12.7,11-10.7C314.8,1446.9,314.7,1454.9,314.6,1460.4L314.6,1460.4z M313.1,1538.7c1.9,15-18.3,11.7-17.7,1.7
				c0.3-4.9,2-11.4,9.9-11.5S312.2,1534.8,313.1,1538.7L313.1,1538.7z M262.9,16.4c0.3-14.8,23.2-14.7,21.8-0.3
				C285.1,31.4,263.9,30.9,262.9,16.4z M245.1,113.4c-0.2-4.4-0.5-10.3,6.7-10.4c8.5-0.2,15,2.9,15,12.3
				C267.3,129.9,244.3,127.2,245.1,113.4L245.1,113.4z M245.1,171.4c-1.2-10.6,17-19.8,19.5-6.8c-0.6,7,4.2,18.7-10.8,16.4
				C245.4,182.6,244.9,176.8,245.1,171.4L245.1,171.4z M259.7,1466.4c0.7,6.5-4.6,6.7-9.9,6.9c-7.1,0.2-9.8-4.2-9.6-9.7
				c0.1-5.8,3.3-10.1,10.4-8.4C260.9,1452.9,259.2,1461.5,259.7,1466.4L259.7,1466.4z M255,1562c1.2,7.2-4.6,8.8-10.2,8.9
				c-6.6,0.1-7-6.2-7.7-10.7C235.1,1548.7,256.5,1549.6,255,1562z M226.8,202.4c7.9-0.5,11.7,2.7,10.2,10c0.5,6.2-0.9,10-7,10.8
				c-9.4,1.3-9.7-6.6-10.7-12C218.7,207.5,221.1,202.8,226.8,202.4z M205,72.7c0.4-4.2-1-10.3,6.2-9.5c5.8,0.6,12.9,1.7,13.5,9.1
				C227.7,87,201.8,88.8,205,72.7z M193,154c-0.7-9,5.2-10.8,13-11.2c7-0.8,7.7,5.7,7.8,10C214.6,168.4,192.5,171.5,193,154L193,154
				z M213.6,1504.1c2.1,15.9-23,14.2-20.1-1.1c0.3-5.6,3-11.9,11-10C214.1,1491.5,213.3,1499.4,213.6,1504.1z M202.8,1584.6
				c3.1,15.1-21.7,21-20.3,3.8c0.7-5.7,1.5-12.1,10.1-11.5C198,1576.6,202.4,1578.4,202.8,1584.6L202.8,1584.6z M181.5,1426.2
				c0.4-5.3,2-11.7,10.8-11.5c8.6,0.2,8.2,5.6,8.8,11.2c0.8,7.7-4.3,7.5-10.1,7.1C185.3,1434.9,181.2,1430.8,181.5,1426.2z
				 M167.5,21.1c0.3-5.3-0.3-12.7,6.6-14.3c9,0.5,13.5,4.7,13.8,11.9C189.5,32.8,165.1,36.6,167.5,21.1L167.5,21.1z M187,503.3
				c2.4,18.5-24.4,16.7-23.7,0.4c-0.2-5.1-1.5-11.9,8-13C182.2,489.3,188,491.7,187,503.3L187,503.3z M174.2,209.3
				c-8.4,0.4-7-5.1-7.4-11.2c-1-5.1,2.1-7.9,7.9-8c7.3-0.2,8.6,5.3,9.1,10.7C184.4,207.3,180.3,208.9,174.2,209.3L174.2,209.3z
				 M173.7,236.7c13.4-0.5,9.3,20.5-2.7,19.4c-5.7,0-8.9-2.2-8.2-6.6C163.1,240.6,166.1,236.9,173.7,236.7L173.7,236.7z
				 M157.2,121.8c-1.9-14.7,19.8-14.3,19.3-0.6c0.2,4.1-0.4,12.1-8.1,10C160.4,131.9,157.6,127.1,157.2,121.8z M157.8,1468.3
				c-2.8,14.8-20.4,13.3-19.7-2.1c-0.8-8.3,5.3-11.1,11.9-11.1C158.2,1455.2,156.4,1462.9,157.8,1468.3L157.8,1468.3z M128.5,924.7
				c0.8-9.6,2.7-15.5,10.7-15.6c8.7-0.2,9.1,6.5,10,12.9c0.9,6.9-4.1,9.2-8.5,8.5C136.1,929.8,126.7,932.7,128.5,924.7z M134.1,1385
				c-5.6-0.8-13,0.2-13.1-8.6c-0.1-7.4,2.9-14.6,11.2-15.2C145.3,1358.6,150.1,1389,134.1,1385z M119.3,55.2
				c-2-16.6,25-16.4,23.9,1.5c-0.6,9.9-10.6,8.8-16.7,9.9C119.8,67.7,119.5,59.5,119.3,55.2z M133.5,209
				c-12.5,3.2-15.4-17.5-3.4-16.8C140,190.5,144,212.9,133.5,209z M139.1,465.5c-0.3,6.9-2.4,11.6-10.9,11.8
				c-6.6,0.1-8.9-4.2-8.8-8.8C117.6,456.6,141.6,450.7,139.1,465.5z M136,1510.8c-1.2,6.7,0.2,16.2-10.3,16.4
				c-8.3,0.2-6.6-7.6-7.1-9c-2.1-13.2,3.5-14,10.9-13.4C133.6,1505.2,136.8,1506.4,136,1510.8z M127.8,1584.7
				c0.3,8-3.4,13.7-10.4,14c-12.9,0.5-16.6-25.4,3.7-21.8C127.1,1577,128,1580.5,127.8,1584.7L127.8,1584.7z M99.4,122.1
				c-2.7-16.5,23.9-13.6,22.3-2.3c-0.6,6.3-0.8,14.6-11.7,13.2C101.1,135.2,99.8,127.4,99.4,122.1z M90.7,870.4
				c-0.3-13.1,19.3-15.4,19.3-0.4C111.8,883.8,89.6,885.9,90.7,870.4z M108.8,501.9c-0.5,4.8-1.5,10.3-4.8,11
				c-9.4,0.5-11.8-3.4-11.7-8.4C90.4,493.5,109.1,490.6,108.8,501.9z M97.7,1444.7c-12.4,0.5-14.9-25.2-1.5-23.3
				c5.5,1.1,12.9,3.1,10.9,11.7C108.3,1440.9,103.3,1444.7,97.7,1444.7z M90.9,256c0.4-4.5-1.1-10.2,6-9.8
				c6.1,0.3,12.8,0.8,14.6,9.4c-2.3,3.5-0.5,10.7-6.8,10.3C99,265.5,89.9,267.2,90.9,256z M86.9,317.8c0.7-6.8,5.1-10.2,11.2-10.6
				c9.5-1.2,9.2,23.4-3.1,17.8C88.7,326.2,86.3,323.7,86.9,317.8L86.9,317.8z M92.6,927.8c-1.2,17.5-23.8,8.9-23.4-5.4
				C69.2,907.3,94.9,914.8,92.6,927.8L92.6,927.8z M87,1358.8c-11.7-0.7-12.1-24.2,1.1-23.7C104.2,1334.1,101.1,1360.1,87,1358.8
				L87,1358.8z M71.2,37.6c-4.5-13.9,17-14.1,16.8-1.5C90.7,50.4,67,52.8,71.2,37.6z M87,1539c1.8,14.4-24.3,13.1-23.9-2.6
				C63.6,1521,88.6,1524,87,1539z M67.1,662c-0.2-13.7,18.1-14.6,18.4-1.2c0.5,9.5-6.9,9.1-11.4,9.9C69.2,671.5,66.8,666.3,67.1,662
				z M83.1,189.7c2,17-19.7,13.9-19.5,0.4c-0.3-3.5,1.4-9.3,6-9.4C76.4,180.4,84.5,180.5,83.1,189.7L83.1,189.7z M55.1,97.9
				c-0.3-17.3,23.4-17.5,22.6,0.1C77.7,114.4,53.7,114.2,55.1,97.9L55.1,97.9z M66.4,607.2c-16.2,0.5-13.7-24.4,1.2-22
				C77.1,585.9,78.7,609.1,66.4,607.2L66.4,607.2z M53,797c-1.5-12.6,20.4-17.8,19.8-3.7c-0.5,6.2-2.4,12.9-11.1,11.8
				C55.6,805.5,52.5,802.9,53,797z M62.8,544.7c-5.4-1.2-14.2-0.2-13.9-10.3c0.2-5.1,1-9.3,5.8-10.4C70,523.4,72.4,544.5,62.8,544.7
				L62.8,544.7z M54.8,1374c17.6,0.7,16.5,25.3-4.2,23.8c-6.4-1.1-5.8-6.8-6.2-11.2C43.8,1379.5,47.1,1374,54.8,1374L54.8,1374z
				 M64.3,1286.2c2,13.3-5,14.9-11.4,14.6c-15.8-1.8-11-26.6,4-24.5C65.3,1276.5,63.8,1284.3,64.3,1286.2L64.3,1286.2z M40.8,285.7
				c1.8-13.4,21.2-13.3,19.5,1.9C60.5,299.8,40.3,297.9,40.8,285.7z M57.1,1466.4c0.6,15.5-22.2,15.5-20.2-0.3
				C36,1452.9,58,1454.3,57.1,1466.4z M45.3,461.9c-7.5-0.3-12.6-3.1-11.6-9c0.5-11.9,8.2-12.7,13.8-13.6
				C60.3,439.3,59.3,463.3,45.3,461.9z M34.7,979.3c1.5-4.9,2.2-10.3,9.2-10.6c8.8-0.4,7.5,6.9,7.9,11.5c0.7,7.2-6.2,8.3-10.9,8.5
				C35.6,989,35.5,983.5,34.7,979.3z M33.7,674.6c5.9,0.8,7.6,4.3,7.5,7c0.1,10.9-6.2,10.7-11.9,11.5
				C17.2,695,20.9,670.7,33.7,674.6L33.7,674.6z M30.4,148.9c6.4,0.4,8.1,5.2,8.6,10.5c1.8,11.1-7.5,10.5-13.1,11.2
				C12.3,169.4,16.3,146.9,30.4,148.9z M37.7,1584.3c-0.4,11.4-24.5,6.7-22.1-5.9c0.5-6.8,5.7-11.3,12.7-11
				C36.4,1567.8,36.6,1574.7,37.7,1584.3z M37.3,348.2c-0.1,9.1-4.4,12.9-11,12.7c-8.4-0.3-7.4-7.1-7.3-12.9
				C17.6,334.8,38.9,337.2,37.3,348.2z M14.9,50.2C13.2,34.6,33.8,35.7,34,48.1C35.4,59.4,11.9,65.1,14.9,50.2L14.9,50.2z
				 M21.9,898.8c-8.8,0-7.9-8.3-7.5-13.3c0.6-8,7.6-10.3,14.6-10.5C41.6,874.7,40.1,899.6,21.9,898.8L21.9,898.8z M14.4,1517.3
				c-6,1.2-6.1-5-6.2-9.5c-0.1-7.7,5.7-11.1,12.3-11.5C33.8,1497,28.5,1518.6,14.4,1517.3z M9.1,1039c-2.9-14.3,20.1-13.8,18.6-0.8
				C28.8,1049.7,5.6,1051.3,9.1,1039z M6.8,1339c0.2-7.2,3.7-10,10.4-10s11.8,1.5,9.7,9.8C30.9,1354.8,5.7,1354.6,6.8,1339z
				 M6.3,233c-1.3-14.9,20.3-13,20.7-2.2C27.7,251.3,4.3,245.3,6.3,233z"/>
		</g>
	</g>
</g>
<g>
	<g id="Layer_1_2_">
		<g transform="matrix( 1, 0, 0, 1, 0,0) ">
			<g>
				<g id="Layer0_0_FILL_1_">
					<path d="M52,1548v15l-37,37h946l-37-37v-15H52 M52,52V37.7L14.3,0H0v1600h15l37-37v-15V52 M924,52V37.7L961.7,0H14.3L52,37.7
						V52H924 M976,0h-14.3L924,37.7V52v1496v15l37,37h15V0z"/>
				</g>
			</g>
			<g>
				<path id="Layer0_0_1_STROKES_1_" class="st6" d="M961,1600h15V0h-14.3L924,37.7V52v1496v15L961,1600H15H0V0h14.3h947.4 M52,52
					V37.7L14.3,0 M15,1600l37-37v-15V52h872 M924,1548H52"/>
			</g>
		</g>
	</g>
</g>
</svg>
