<svg xmlns="http://www.w3.org/2000/svg" xmlns:xlink="http://www.w3.org/1999/xlink" viewBox="0 0 976 1600">
<style type="text/css">
	.st0{fill:#FFFFFF;}
	.st1{clip-path:url(#SVGID_2_);}
	.st2{fill:#333333;}
	.st3{fill:#FFEB5C;}
	.st4{fill:#D81E1E;}
	.st5{fill:none;stroke:#333333;stroke-width:2;stroke-linecap:square;stroke-miterlimit:3;}
</style>
<g id="Paper_Backing">
	<path class="st0" d="M960,22v1556c0,3.3-2.7,6-6,6H22c-3.3,0-6-2.7-6-6V22c0-3.3,2.7-6,6-6h932C957.3,16,960,18.7,960,22z"/>
</g>
<g id="Wikipedia_Cropped">
	<g>
		<defs>
			<path id="SVGID_1_" d="M960,22v1556c0,3.3-2.7,6-6,6H22c-3.3,0-6-2.7-6-6V22c0-3.3,2.7-6,6-6h932C957.3,16,960,18.7,960,22z"/>
		</defs>
		<clipPath id="SVGID_2_">
			<use xlink:href="#SVGID_1_"  style="overflow:visible;"/>
		</clipPath>
		<g class="st1">
			<path class="st2" d="M270.3,1282.4c-26.6,1.7-30.3-23.2-44.1-36.3c-25.4,16.8-63.9,0.1-67.4-29.9c-8.5-17.4,20-59.7,4.9-62.2
				c-25.2,2.5-56.2-32.7-27.8-53.1c3.8-2.2,5.2-7.6,1.5-10.6c-33.7-30.8,9.8-65.9,33-86c11.3-14.9,7.8,38.8,34.2,39.2
				c6.4,9.3,10.6,2.1,18,4.9l0,0l0.4,0.3c12.4,6.6,18.1-17.2,29.2-19.4c8.3,0.2,2.9-11.8,9.9-12.3c13.7,3.5,27.6,35.5,41.6,22.3
				c19.5-8.3,25.7-32.4,25.6-55.8c5.5-13.7,19.6,17.5,28.6,19.3c16.3,11.8,49.6,45.1,22.3,61.8c-4.3,3.1-1.8,8.4,1,11.5
				c33.8,55.4-47.2,58.2-34.4,71.2c33,26.4,28.5,94.4-22.1,89.8C308.4,1256.7,310.6,1280.6,270.3,1282.4z M543.3,835.3
				c-24.4-3-55.1-1.6-73.3-17.2c9.1-9.2,17.8-14,11.1-35.3c-1.4-22.8-40.4-27-36.6-40.3c12.5-6.8,7.5-11.4,3.5-22.4
				c-5-22.8-30-19.2-46.4-27.6c4.8-13.3,16.2-20.8,2.5-37c-13.9-30.3,7.5-84,47-86.5c27.1,7.9,18-5.6,34.6-17
				c6.6-26.9,21.5-59.1,23.9-84.8c7.5-51-34.8-109.1-4.9-98.1c18.9-0.1,29.6,14.9,44.9,21.8c24.1,2.5,50.8,8,70.9,19.9
				c-48.8,31.9-72.1,78.6-90.3,134.4c-5.2,12.7,19,12.5,20.5,24.3c2.1,4.7,9.4,4.4,11-0.5c8.7-32.2,38.7-76.1,81.6-62.4
				c24.7,3.9,43,19.1,44,44.2c29.7-2.8,76.8,23,60.9,60.3c-0.5,12.5-28.7,21.9-18.8,33.3c37.7,31.7-3.1,86.6-43.9,87
				c-65.8-0.7-8,16.5-28.7,56.2c-11.2,27.3-38.9,10.5-57.8,6.7C593.5,822.3,574.9,837.3,543.3,835.3L543.3,835.3z M150.6,653.9
				c-13.6-11.9-43.8,2.6-42.9-14.1c-1-22-40-13.9-33.3-55.1c15.4-63.5,43.4-12.2-17.2-71.1c-25.6-27-21.8-78.9,15.1-90.6
				c-7.5-25.8-0.4-57.4,26.9-69.8c28-17.8,46.4-3.6,63.9,17.6c32.7-27.2,84.1,0,91.4,37.8c18.2,50.5-13.8,52.7,45.7,36.3
				c31-1.2,60.7,25.7,45.8,55.5c-1.1,7.7-14,18.4-3.4,23.4c49.5,21,5,78.2-23.4,95.5c-14.2-23-35-33.9-55-2.8
				c-12.1,19.6-17.5-34.8-57.3,11.4c-9.7,9-23.8-20.7-44.5-1.2C152.5,630.6,162,653.5,150.6,653.9z"/>
			<path class="st3" d="M817.8,1604c-5.5,0.1-3.7-7.8-4-11.1c3-38.2-39.8-58.3-64.2-74c-14.8,3-43.2,0.9-50.7-11.6
				c-0.2-6.2-6.8-5.8-11.4-6.3c-24.4-12.8-32.3-45.6-52.5-62.5c-8.3-2.3-19.1-5.1-24.9-11.3c-1.9-9.5-10.8-5.8-17.7-5.7
				c-48.8-3.2-44.9-60.9-104.5-59.7c-9.1-2.2-27.9,10.1-32.1-1.6c-0.7-3.2-3.9-5.3-7.1-4.6c-0.4,0.1-0.8,0.2-1.2,0.4
				c-30,14.2-52.1-16-80.1-19.8c-9.8-4.9,4.5-10.5,9-12.8c23.4-10.2,45.3-28.2,70.1-32.6c53.2,16.7,116.8,29.7,161.2,69.1
				c44.9,15.8,89.9,35.3,116.5,78.4c37.7,31.7,83.9,36.7,117.5,80.5c19.1,19.8,32.2,48,43,81.1C887.8,1608.7,820.1,1602,817.8,1604z
				 M294.9,1033.9c-36.4-2.6-24.9-49.1-57.6-52.7c-14.1-1-22.8-42-33.7-25.2c-3.6,13.8-11.7,23.2-23.8,27.9
				c-7.4,20.2-14.5,37.1-41.1,36.9c-79.8-13.8-9.9-78.8-68.8-53.7c-49.9-2.3-54.3-65.2-20.7-89.8c-24.7-18.8-29.6-55,3.4-72.2
				c4.2-2.4,3.4-9.1-1.1-10.7c-32-12.8-15.3-58.6,17.3-58.8c3.3-0.1,5.9-2.8,5.9-6.1c0-0.5-0.1-1-0.2-1.5
				c-9.6-23.8,21.5-25.2,33-36.3c-0.6-8.5-13.3-13-9.6-22.8c4.9-28.4,37.3-18,56.4-15.5c4.4-15.1,2.6-32.7,23.9-32.5
				c17.3,0.3,38,22.4,33.2,38.8c-1.1,2.9,0.2,6.2,3,7.5c5.7,3.3,11.2,9.2,10.4,18c7.1,27.5-23,51.7-31.8,21.2
				c-15.6-11-42-24.4-61-10.8c-12.2,12.1-5.1,33.7,14.6,38.6c5.4,1.9-0.1,8.2,3.8,11.3c9.1,6.4,25.9-11.2,31.9,3.8
				c10.8,11.6,5,20.5-2.9,28.4c-4.9,4.4,2.1,8.4,0.7,12.8c-10.2,15.5-4.2,36.6-2.8,53.6c14,29.1,60.5,11.3,55.5-23
				c-1.9-7.5,2.8-9.5,6.7-14.2c-2.4-20.4-33.9-39.4-5-55.2c17.2-5.9-4.3-21.2,15.8-27.9c7.3-4.9,23.7-3.7,24.3-14.2
				c7.8-13.5,27.5-17.7,41.5-22.7c9.3-4.1,26.8-0.8,25.8-15.1c11.2-9,19-26.9,34.6-25.2c23.8-3.5,48.2,31.5,17.8,45.2
				c-4.1,3.9-13.1,2.6-12.2,10.1c3.9,33.7-52.6,22.4-50.8,39.4c6,9.9-24.5,17.2-11.4,26.7c18.3,8.4,33.8,21.8,44.6,38.7
				c3.7,5.8,11,0.7,16,5.3c26.4,13.7,19.7,15.8-5.2,18.8c-3.9,0.6-10-6-14.1-1.9c-5.5,20.6,9.4,48,14.2,68.3
				c6.2,14.4,14.5,39.1-10.6,25.4c-34.5-21.3-41.2-62.5-68.6-89.7c-7.3-10.9-20.3,7.2-37.3-9.6c-23.9-6.6,12,52.4-3.2,68.4
				c-2.6,6.7,6.9,7.7,6.9,14.1c5.5,16.3,11,42.8,26.6,50.9c16.8,12.3,38-0.7,38.5,16.3C332.8,996,324.9,1033.1,294.9,1033.9
				L294.9,1033.9z M108.1,845.8c-44.6,16.7-62.8,97-3.2,99.8c46.1-9.6,42.5-27.2,57.9-66.3c2.1-22-47,14.1-48.8-28
				C113.8,848.2,111.2,845.8,108.1,845.8z M70.3,789.2c-0.5,23,38.4,34.5,53.6,18.5c-5.7-13.4-17.7-28.5-0.5-42
				c4.8-6.7,19.6-8.3,18.1-18c-7.5-9.6-24,1.9-35.1-0.8C91.5,756.9,63.8,768.4,70.3,789.2L70.3,789.2z M458.9,817.9
				c-22.9,1.9-18-37.9-62.9-60.1c-10.4-10.2,44.5-11.8,50.4-8.8C477.3,757.4,502.4,814.6,458.9,817.9L458.9,817.9z M274.1,666.9
				c-28.4-7.3-13.4-60.3,7.8-65.7C341.6,590.6,304.5,656.5,274.1,666.9L274.1,666.9z M697.7,421.5c-26.3-1.4-72.3-5.1-97.1-20.6
				c0.7-10-14.1-3.1-15.2-10.9c26.2-13.4,57.9-11.7,79.5-31.8c17.8-18.2,66.4-22,60,13.4C786,391.4,742.4,427.4,697.7,421.5z
				 M543.6,387.8c-33.1-19.3-72.6-68.8-58.2-109.6c4.2-10.8,10.3-8.8,16.9-3.3C523.5,288,555.1,380.2,543.6,387.8z M561.3,382.3
				c-10.6-6.9,12.4-41.6,16.9-53.1C635.2,234.4,688.7,305.1,561.3,382.3L561.3,382.3z M474,368.8c-44,0-81.6-11.6-113-44
				c-18.4-17-14.3-43.7,9.8-44.5c37.2-2,50,32.1,73,56.6C445.3,346.1,508.7,368.7,474,368.8z"/>
			<path class="st2" d="M0,1604c-11,1-0.5-155.2-4-159c2.5-9.2,10.4-0.6,15.4-0.1c138.3-4.6,137.9-80.2,205.5-81.9
				c14.9-0.1,77.4,7.8,80.8-5c62.3-47.1,94.6,3.5,156.1,9.6c80.7-21.9,82.3,47.8,145,61.8c31.3,1,51.8,30.9,66.3,56.7
				c37.5,52.2,128.4,25.4,150.9,99.7C870.5,1632-4,1590.7,0,1604z M0,1425.5c-8.2,2.4-4.6-121-1.3-120.8
				c4.8-0.8,16.3-15.8,14.5-20.8c-1.8-4.7,2.2-11,2.9-15.4c8.4-42.9,31.3-74.5,43.3-116c10.6-47.9,36.2-84,50.1-130.7
				c2.6-9,13.2-2.8,19.1-0.7c23.6,3.8,10,18.3-1.2,24.9c-8.7,15.8,1.3,38,10.4,50.3c-12.1,12.5-14.9,21.2-16.3,38.4
				c-0.6,4.9-7.1,5.8-6.3,11.1c0.9,5.9-4.4,10.8-6.8,14.9c-9.2,14.6-6.8,35.7-14.9,50.2c-6.3,7.8,7.1,17.2,0.6,26.7
				c-3.8,12.8,4.2,23.4,0.8,40.5c2.6,15.9,21-3.8,27.9-5.6c2-1.9,5.3-3.4,8.5-2.6c4.9-0.9,7.1-5.6,13.1-5.9
				c37.8-14.9,17.8-18,55.2-9c50.5-8.2-37.9,44.2-46.1,51.4c-3.7,3.4-11.2-2.7-13.8,3.7c-16.3,23.1-46.6,35.1-66.8,53.6
				C62,1395.5,16.7,1399.9,0,1425.5z"/>
			<path class="st4" d="M663.5,1263.3c-53.2-9.7-121.7-47.1-162.3-86.9c-13.3-18.6-69.9-46.7-49.4-71.2
				c57.8-42.9,17.6-38.5-8.6-84.7c-66.5-97.3-14.7-27.5-72.8-17.6c-19.3-3.1-36.9-25.4-43.6-41.8c-44.2,9.2-62.9-35.1-67.5-77.4
				c-1.6-15.8,1.1-32.5-6-46.8c-2.4-4.4-9.9-16.1-1.3-18.2c9.8,6.3,17.2,16.1,25.6,14.7c7.5,1.2,15.3-9.5,20.3,1.9
				c20.8,23.7,28.5,47.1,38.2,69.4c4.4,1.5,9-0.5,11.9,4.7c6.4,14.2,37.1,27.4,37.7,8.9c2.7-25.2,23.1,23.2,28.6,28.9
				c16.8,26,38.4,53.9,61.8,75.7c5.7,6.9,32,34.5,27.2,10.2c-18.9-19.6-39-40.8-57.9-63.8c-30.4-40.8-55.6-87.6-78-131.4
				c8-9.8,31.2,2.3,37-10.4c-7-14.1-30.3-15.8-42.3-31c-10.7-14.8-45.5-27.5-29.6-47.6c14.2-21.8,49.8-18.4,53.6-47.5
				c44.8-29,100.6,46.2,18.5,49.5c-22.6,12,49.6,37.4,31.7,61.6c-23.6,23.4,9.4,16.8,24.1,19c100.1,14.5,192.4,39.8,274.3,101.8
				c60.9,46.2,113.5,101.6,148.2,172.9c10.4,23.1,18.5,46.6,27.6,70c2,14.2-18.9,9.3-28,8.7c-14.3,1.1,3.1,14-5.1,17.5
				c-60.4,14.8-120.3,5.6-181.1-6.4C676.7,1203.9,684.1,1254.1,663.5,1263.3z M748.2,1166.7c-22.2,14.2,29.4,17.8,36,18.6
				c19.2,0.1,58.3,18.4,71.1,2.1C852.9,1174.7,767.4,1174.3,748.2,1166.7z M207.4,1042.7c-23.4-2.4-32.4-34.8-26.3-54.9
				c6.3-10.4,23.6-18.1,22.1-31.8c0.5-3.3,1.4-6.8,4.8-7.5c3.6-0.1,5.6,3.3,6.8,6.6c2.9,18.8,25.5,28.2,39.2,32.8
				C260,1016.3,236.9,1042.6,207.4,1042.7z M105.9,944.7c-61.2-2.3-36.2-83.2,1.4-99.4c1.8-0.1,5.8,0.3,7.1,9.8
				c4.4,27.5,32.9,18.1,50.4,13.7C160.2,898.7,141,943.6,105.9,944.7L105.9,944.7z M203,857.1c-43.5-5.9-23-65.2-11.3-90.3
				c1.4-2.7,0.6-6.1-1.9-7.8c-15.8-27.8-4.3-13.4-35.4-22.9c-31.6-3-37.4-46.9-1.7-45c28.3-1.4,38.2,34.9,65.3,27.2
				c11.5-2.3,5.5-22.6,13.3-30.1c-51.7-83.6,27.1-100,27.8-48.7c1.1,16.3-8.1,24,12.7,29.1c7.3,5,10.5-5.8,15.3-9.4
				c14.4-17.3,61.6-60.1,77.7-22.4c-4.7,37.2-70.3,57.5-95.5,62.3c-7,12.7-16.6,20.6-28.4,27.4c1.1,14.1-2.7,28.1-18.7,33.2
				c-9.7,11.5,12.9,33.8,11.3,53.2C232.6,831.6,226.7,857.9,203,857.1z M102.3,814c-18.3,0.2-32.1-12.8-31-31.2
				c1.3-28.7,45.3-33.4,68.2-37.4c3.6,0.1,5.1,5.2,2.1,7.2C74.2,796.3,158.5,808.2,102.3,814z M752.9,468
				c-9.3,2.8-106.1-34.8-89.6-47.8c29.6,5.7,65.2-7.3,91.9,7.5C775.9,437.9,779.2,468.2,752.9,468z M906.5,435
				c-34.9-0.1-56.5-39.4-45.3-71.3c4.4-7.6,16.1-16.4,1.3-20.5c-60-34.1,4.2-109.1-55.5-87.3c-5.6,3.2-8.2-1.8-13.1-2.8
				c-10.4,3-2.9,19.9-21.2,21.6c-32.2,14.6-60.2,2.3-86.6-17.4c-26.9,13-64.5,4.9-73.9-24.7c-11-29.5,8.2-48.8,33.3-57.3
				c8.6-75.3-79-33.2-120.4-23.9c-6.3,1.3-17.6,1.5-13.6,11.8c-10.5,33.6-57.8,37.6-80.4,12.3c-2.4-2.3-6.2-2.3-8.5,0.1
				c-0.5,0.5-0.9,1.2-1.2,1.8c-22.5,26.3-79.3-5.9-67.2-40c3-23.6-27.6,15.1-41.7,11.9c-21.4,4.7-46.2-12.1-48.5-32.5
				c-5.3-15.9-24.7,2.9-36.9,0.5c-72.2,0.4-42.1-92.2,1.6-112.2C224.1-20.8,969,4.6,976-4c11.4-0.8,0.1,391,4,395.1
				C957.4,404.4,937.2,434.7,906.5,435L906.5,435z M570.8,389c-3-0.1-7.1-0.1-7.6-3.8c-3-13.5-15.5,5.9-18.1-7.9
				c-8.4-44.8-19.2-87.9,10.3-123.9c9.6-8.3,27.5-5.9,29,8.8c19.8,26.1-46.1,130.1-16.8,117c20-16,40.5-30.9,57.3-49.7
				C723.4,268,711.5,376,570.8,389L570.8,389z M379.9,386.7c-22-1.1-44.3-2-65.1-13.2c-32.4-15.2-43.2-53.8,2.4-51.9
				c50-0.7,74.4,41.7,124.9,44.1C458,379.1,389.5,386.7,379.9,386.7L379.9,386.7z M507.5,371c-27.2-3.8-55.1-23.9-70.6-41.4
				c-15-12.5-43-71.2-0.8-55.6c22.3,10.8,43.9,35.3,56.8,61.2C493,346.2,528.3,369.9,507.5,371L507.5,371z"/>
			<path d="M969.3,391.7c-8.9,11.3-21.6,18.1-31.9,27.6c-57.3,45.5-101-50.3-59-65c3.7-1.1,6-5.4,4.6-10.1c-1.4-4.5-5.3-3-8.4-3.3
				s-7.4,0.7-9.7-0.9c-46.4-30.7-34-105.4,25.8-102.8c31.5,4.9,64.9,41.8,44.5,73.5c-5.6,8.1-12.4,14-22.5,12.1
				c-20.7-3-35.5-29.7-21.5-46.6c1.8-2.5,7.4-4.3,4.5-7.8c-5.4-3.4-13.5,6.2-16.7,10.5c-10,16.6,2.3,37.1,14.3,46.6
				c54.7,35.5,93-60.2,16.8-94.7c-4.6-2-12.7-3.1-13.2-5.9c-3.7-38,33.5-66.8,68-74.4c2.9-0.6,9.8,1.2,9.8-5.1c0-3.4-4.4-3.1-7-3
				c-30.3,1-58.9,19.8-73.7,46.1c-15-32.9-48.3-25.1-34.6-39.2c30-26.1,30.6-97-22.3-87c-25.7,10.7-31-29.8-85.9,5.7
				c-2.9,1.9-2.8,8.2-7.7,6.5c-20-9.5-31.2,4.9-36.7-5.8c-4.3-7.8-11.4-13.5-20.6-13.7c-26.3-0.6-50.9,5.1-72.3,21.4
				c-1.5,1.2-2.1,2.3-3-0.8c-3.7-11.4-13-15.7-23.7-18.9c-12.9-3.9-24.8,2.3-37.2,2.2c-13.7-0.1-26.9,0.7-36.9,12.3
				c-2.1,2.5-0.2,7.8-6.3,7.8c-13,0-29.1,13-32.7,25.7c-11.1-7.8-24-1.6-35.9-4.4c9.7-8.1,7.2-24.7-3.4-31.8c-6.4-4.3-15-3-19.9-7.9
				c-17.9-19.4-30-17.5-53-10.9c-14,0.7-31.9,0.9-38.9,15.6c-2.7,5.2,2.6,6.6,5,9.6c2,2.5,5.3,2.4,7.1,5.9c3.6,7,7.9,13.6,9,21.5
				c11.9,47.6-64.5,60.1-75.8,16.2c-1.1-5.3-0.9-13.3-9.4-12.4c-7.6,0.9-15,2.8-22.1,5.7c-39.6,9.7-61.6-25.1-44.6-60.7
				c10.3-18.9,23.8-34.6,42.8-45.3c2.8-2,2.7-6.2-1.5-4.9c-9.7,0.6-17.2,6.3-23.5,12.3c-49.9,38.1-48.4,126,30.6,110.5
				c4.8-1,13.1-9.3,18,4.5c12,33.3,59,40.6,85.6,15.6c-0.2,38.9,50.8,63.6,82,40.6c1.8-1.4,2.8-1.8,5-0.2
				c22.9,22.1,65,19.6,82.7-7.7c4.5-7.5,3.3-20.5,17.8-19.5c28.8-2,53.6-22.4,84.1-16.1c10.7,1.9,19.9,6.6,22.1,16.6
				c1.2,5.5-1.7,13.2-10.8,17.1c-55.6,31.5-13.1,107,45.6,95.5c5.2-1,11.3-7.3,16.6-2c9.1,9.1,21.3,11.7,32.2,16.8
				c18.8,7.8,52,1.5,66.8-13c2.8-2.9,5-10.3,9.8-8.3c8,3.4,14.8-2.4,22.3-0.8c1.3,0.3,2.8-0.8,4.3-1.2c0,1.9,0.6,4.2-0.2,5.8
				c-11.5,29.2,9.2,63.3,32.3,81.1c3.2,2.3,2.4,4.1,0.4,6.5c-17.5,23.5-5.2,55.6,14.1,74.5c8.9,8.4,31.4,17.2,43.4,13.6
				c25.7-8.7,51.6-25.6,60.6-51.8C973.2,391.2,970.2,390.6,969.3,391.7z M882.9,196.5c-0.1,9.4-15.3,30.8-24.2,34
				c-1,0.4-3.8,2.1-2.2-1.6c7.2-27.4-3.6-44.5-23.8-61.7C851.2,158.6,882.9,179.4,882.9,196.5z M829.8,75c-1-2.2,7.3-3.3,11.1-3.6
				c17.5-1.4,28.1,9.8,28.1,33.4c-0.7,19.8-23.2,59.1-49.2,58c-4.3-0.5-4.8-2.6-1.8-6.5c9.3-11.6,12.9-25.9,16.9-39.8
				C839.1,102,836.1,88.5,829.8,75z M760.4,72.2c22.1-10.8,49.3-15,61.4,12.1c10.3,26.6-1.8,55.4-19.5,75.4c-6,6.4-19.1,4.2-27,11.4
				c-1.8,1.7-2,6.6-8,3.1c-9.2-5.3-2.3-8.3-0.5-13.2C793,96.8,733.2,81.1,760.4,72.2L760.4,72.2z M571.6,63.2
				c13.8-3.5,31.6,10.9,31.4,25.2c-0.2,10.6-19.4,24.5-27.1,19c-1.5-1.1,0-7.9,1.5-11.6c5.7-13.1-1.5-21.4-10.1-30.3
				C568.7,64.7,570.1,63.6,571.6,63.2L571.6,63.2z M526.5,71.1c16.7-6.8,45.3,2.2,42.3,18.2c-1.6,12.7-7.1,24.2-20.6,27.2
				c-10.4,2.3-4.6-8.5-6.5-12.7c-4.6-10.1-8-19.6-20.9-20.9C513.1,81,522.6,72.4,526.5,71.1z M420.6,73.1
				c21.8,7.8,13.2,29.2-11.7,22.6C414.8,89.2,417.1,80.8,420.6,73.1L420.6,73.1z M407.9,73.4c0.7,11.9-8.6,19.5-18,25.5
				c-5.5,3.9-11.2,9.9-18.7,9.6c14.9-17.6,23.5-39.9-1-54.5C386.2,49.5,407.1,59.4,407.9,73.4L407.9,73.4z M351.8,91.1
				c-5.2-9-10.9-17-19.4-23.1c10.3-11.8,34-9.4,40.1,4.2c5.9,12.8-3.5,21.8-12.1,28.2C346.3,110.8,353.5,93.8,351.8,91.1z
				 M498,176.8c-50,38.4-71.5-32.1-79.7-2.4c-3.5,11.1-14.8,7.5-22.6,7c-39.1-0.3-55.6-49.8-14.3-64.4c14.1-7,30-7,44.6-11.9
				c10.4-3.7,5.2,5.1,2.9,10.1c-9.5,18.9,12.5,38.1,31.5,32.5c8.4-2.5,15.7-4.6,21-11.9c3.3-3,1.2-5.8-2.5-6.3
				c-9.4,7.3-26.5,15.6-36.9,4c-7.6-7.8-5-23.4,7.8-22.5c22.5-0.1,38.4,11,50.3,28.4c1.3,1.9,1.2,3.4,0.1,5.4
				c-1.6,2.9-2.6,6.3,0.7,8.7C513.8,163,505.3,170.8,498,176.8z M503.5,126c-5.2-7.9-11.8-13.9-20.8-17.1c-0.5-0.2-1.1-1.6-1-1.7
				c7.3-7.9,14.1-17.2,25.7-17.8c12.1-1.4,22.9,8.8,23.8,20.8c-0.4,14.8-9.3,20.6-20.6,23.2C508.9,133.8,505.4,128.9,503.5,126z
				 M611.7,126.9c-32.4-0.7-60.9,17-92.5,21.8c-5.3,1.2-2.2-5.6-8.7-7c10.3-0.1,17.3-0.1,21.5-7.3c3.7-6.3,10.7-7.3,16.8-8.1
				c11.6-1.4,20.1-12.3,32.8-10.1c12.2,2.2,20.9-3.8,27.4-12.9c3-4.2,2.8-10.7,6-14.5c8.1-9.7,19.8-14.2,31.6-17.4
				c72.7-19.5,40.7,26,63.4,16c41-19.7,60,37.6,47,67.7c-1.6,5-3.6,9.6-9.7,7.7c-14.6-6.1-28.7,6.1-26.1-4.6
				c8.9-44.1-61.3-57.4-63.9-35.3c-13.8-9.1-28-7.8-40.5,3.1C615.7,127,613.4,127,611.7,126.9L611.7,126.9z M680.5,151.4
				c-2.5-12.5-8.2-21.4-19.3-27.7c29.4-14.5,74.7,31.2,33.8,50.4c-3.4,1.5-11.4-3.7-15.2-7.8C676.4,162.7,681.8,157.1,680.5,151.4
				L680.5,151.4z M632.2,132.9c-1.5-1-2.9-2.1-4.3-3.2c16.5-10,42.1,6,41.1,27c0.6,13.4-11.7,9.7-20.5,11
				C654.9,151.9,645.8,140.7,632.2,132.9L632.2,132.9z M790.1,244.9c-6.5,0.8-11.3,0.9-7.4,10.1c5.5,13-8.1,14.7-14.3,17
				c-25.4,11.3-57.2,2.8-76.4-17c-2.6-2.9-5.8-2.8-8.5-1.4c-56.4,30.5-102.6-53.4-42.2-70.7c16.5-3.3,38.6-10.3,50,7.1
				c1.7,2.5,8.3,2.7,9.4-0.2c5-13.6,17.3-14.7,28-16.2c13.5-1.9,26.6-0.2,34.9,14.4c1.9,3.3,11.5,2.3,17.5,3.1
				C809.9,194.1,826.4,240.1,790.1,244.9L790.1,244.9z M812.2,251.1c-2.9-0.2-5.8,1.1-10.3,2c43.6-21.4,12.9-68.6-24.3-71.1
				c7.5-13.8,39.5-13.3,49.8-3.7c11.2,10.6,21,21.2,19.7,38C846,227.9,827.8,252.1,812.2,251.1L812.2,251.1z M898.9,1120.8
				c-37-90.6-108.5-163.6-189-217.3c-46.4-28.2-98.4-48-150.6-62c1.1-0.8,2.1-2,3.3-2.3c54.9-10.6,25.4-52.5,50.8-36.2
				c45.7,25.8,68.3-37.1,39.5-65.8c35.1,1.1,75.7-4.3,91.6-39.8c7.7-16.4,9.7-34.3-3.4-48.5c-16.9-16.8,16.1-23.5,15.8-48.1
				c0.8-24.4-19.3-45.8-43.9-52.6c-8-1.8-23.7,7-24.5-8.5c1.7-17.5-14.3-29.5-28.5-34.2c-55.6-22.7-88.2,13.3-103.8,63.3
				c-7-18.2-25.7-13.4-17.2-32.8c14.2-40.7,60.9-149.2,116.3-108c26.8,18.5,55.4,36.1,87.8,42.5c48.2,11.7,38.9-44.7,0.3-50.3
				c11.1-6.6,17.4-16.7,13.6-29.3c-2-8.7-7.3-14.5-17.1-16.4c-5-1-18.7,1-8.8-12.1c0-11.8-21.5-23.7-32.1-20.3
				c-2.9,0.9-6.4,0.3-9.6,0.4c0.2-1.1,0-2.5,0.6-3.2c6.1-6.6,6.9-14.1,2.9-21.9c-10.8-18.7-35.6-8.4-51.5-2.7
				c11.6-16.5,1.2-41.1-20.8-34c-11.6,4-19.5,12.9-29.1,20.2c1.7-19.5,4.4-35.1-7.8-51.8c-8.6-13-31.3-5.9-40.6,11.5
				c-8.4,15.7-8,33-10.3,52.9c-3.7-16.1-12.3-30.6-24.5-41.7c-5.1-4.7-9.6-11.7-17.9-7.7c-15.9,7.1-12.3,22.1-14.4,35.7
				c-0.8-0.3-2-0.4-2.4-1c-10.4-15.9-26.4-24.3-42.8-32.4c-8.8-4.4-19.2,1-22,10.2c-0.9,2.9-0.7,10-3.4,8.7
				c-35-24.1-82.4-4.6-49.5,39.8c-109.2-41.3-96.1,71,25.7,64.3c16.3,0,31.9-4.3,47.8-7.6c9-1.9,15.9-9.2,25.4-9.2
				c7.2,0,14.5-0.3,21.6,0.5c2.3,0.3,4-4.6,7.3,0.4c7.6,11.7,10.3,24.7,13.9,37.7c15,41.4,3.5,85.6-13.6,124.6
				c-6.5,14.4-8.6,30.4-33.3,28.3c-40.8-3.2-57.9,48.5-55.2,83.6c-7.9-9-27.1-1.2-26-7.6c2.4-24.8-24-27-42-19
				c19.3-20.3,44.5-34.8,42.7-67.5c-1.1-14.5-7-29-20.5-34.8c-1.8-0.8-5-0.9-2.5-4.6c37.4-55.6-38.7-96.2-79.3-61.3
				c-4.1-13.1-1-27.2-6.2-40.2c-5.7-14.2-9.1-29.2-22.1-39.7c-17.1-13.6-37.6-21.9-59.3-16.9c-8,1-16.6,14.8-24.7-0.4
				c-8.3-15.4-22.7-17.4-37.9-15.1c-31.9,4.8-59.4,36.8-50.9,69.9c0.9,3,10,9.8,0.8,11.9C6.2,443,43.2,524.7,85.9,545.2
				c1.5,0.8,4.8,2,1.2,4.6c-15.6,11.2-19.5,26-18.8,45.1c-1.1,36,47.4,33.5,31.4,58.8c-10.5,17-9.8,22.2,5,36.4
				c-16.9,5.8-39.2,11.6-37.3,34.3c0.2,2.4,5.6,7.4-0.5,8.3c-23.2,3.4-40.6,16.4-36.1,42.4c1.9,11.2,6.9,19,18.3,22
				c1.1,0.3,2.7,1,3,1.9c0.7,2-1.4,1.6-2.5,2.1c-25.1,11.2-35.9,49.6-13.6,68.5c7.5,6.3,6.5,9.8-0.4,15.7
				c-39,38.2,9.6,115.2,58.3,75.8c-5.7,16.1-5,30.6,4.7,44.9c6.1,7.5,12.8,7,7.5,15.2c-14.8,44.2-43.7,83.5-52.5,129.7
				c-5.1,30.4-26.1,53.3-32.5,82.8c-7.6,22.5-11.4,46.2-21,68c-1.2,2.2-1.6,5.1,0,6.7c2.9,3.2,4.3,2.1,5.5-1.3
				c6.8-18.4,22.6-20.9,37.4-9.4c7.2,7,15.3,1.7,7.5-6.3c-18.8-17.6-37.8-1.1-33-13.3c5.8-19.5,11.4-39,17.8-58.3
				c3.4-10,4.7-23.4,21.9-18c17.6,5.5,40,17.1,33.3,34.3c-6.9-1.9-21.9-16.2-25.8-5c-1.4,5.9,25.6,7.3,25.8,20.2
				c1.8,17.3,1.5,35-5.3,51.8c-2.7,5.9,4.8,11.8,6.5,3.2c5.6-15.1,18.2-22.6,31.5-29.2c2.4-1.2,5.1-5.1,7.7-2.8
				c13.6,12.1,10.5,38.1-7.7,47.4c5.6-5.5,3-10.4,2.3-14.4c-1-5.3,0.1-15.1-8.1-14.1c-4.8,0.6-0.8,8.4-0.7,13.1
				c0.5,10.9,3.2,21.5-9.4,27.7c-10.5,5.2-18.8,14.4-28.8,20.7c-0.5-1.3-1.3-2.6-1.4-3.9c0.1-5.6-7.7-27-14.9-23.7
				c-5.6,8.5,20.2,30-1.5,49.2c-8.7,12-70.8,35.7-59,48.3c8.3,0.9,11.1-9.6,18.8-11.6c12.3-5.3,24-11.9,34.8-19.7
				c14.5-10.1,24.2-25.2,37.9-35.9c30.1-22.4,60.9-44.4,91.7-65.8c14.3-9.1,27.4-19.3,38.7-31.9c1.9-2,4.4-2.2,5.1,0.9
				c15.7,43.3,81.3,34.3,92.2-9.6c6.2-23.2,29.6,5.3,46.2-30.2c14.8-28.9,6.2-58.4-15.1-77.7c0.5-1,2-2.2,2.9-2.1
				c28.6,1,52.2-38,35.7-61.8c-11.7-14.2,7.9-16,6.1-32.2c0.1-16.5-12-26.7-21.5-38.4c0.4-0.8,1.1-1.3,1.9-1.6
				c16.1-1,22.9-11.4,26.1-25.6c0.5-1.3,2.4-3.6,3.7-1.3c17.2,30.2,38.3,58.2,60.8,84.7c3.2,3.6,9,10.6,8.4,11.2
				c-6.9,7.4-13.7,16.3-22.5,20.3c-16.3,7.4-24.5,27.4-13.4,38.6c17.2,17.4,32.4,36.8,51.5,52.4c42.9,40.5,122.3,84.9,181.9,87.8
				c3.8-0.1,7.9,0.6,9.3-3.2c6.4-17.8,11.8-35.9,18.6-53.5c1.8-4.7-2.7-15.6,8.3-13.2c60.6,11.6,124.1,16,184.1-0.6
				c10.8-3.2,27.2-4.9,24.5-20.6C914.8,1162.5,906.9,1141.5,898.9,1120.8L898.9,1120.8z M753.2,431.1c14.4,8.4,20,24.1,9.8,30.2
				c-28.4,10.1-75.3-22.8-99.6-37.2c17.1,1.7,34.4,1.9,51.5,0.6C728.5,423.6,741.2,424.1,753.2,431.1z M741,382.2
				c17,8,9.5,29.9-7.5,31.7c-43.1,9.7-87.9-2-128.9-12.9c36.7,1.1,79.8,0.6,112.7-20.9C723.8,375.8,733.3,378.9,741,382.2z
				 M710.3,350.2c6.7,1.8,12.7,6.2,10.4,14.3c-2.8,9.6-12.3,12.7-20.3,16.2c-35.5,15.3-73.3,14.6-111,9.3
				C666.4,381.2,672.1,339.7,710.3,350.2L710.3,350.2z M657.7,317c11.8-4.5,36.8-1.4,25.8,16.3c-25.3,36.5-75.3,46.2-116.4,51.4
				c21.2-17.1,42.7-32.5,60.7-52.5C634.9,324.4,646.2,319.1,657.7,317z M626,288.9c44.3,6.2-51.4,80.9-64.7,89.4
				C574.8,346.7,588.5,296.9,626,288.9z M541.5,306.9c0.5-19,4.3-57.7,32.2-53.5c4.6,0.5,5.9,6.2,6.9,9.9
				c9.9,31.8-14.8,82.1-27.5,110.7c-2.6,5.4-3.3,6.4-4,2.6C542.6,354,540,330.4,541.5,306.9L541.5,306.9z M489.2,279.4
				c2-6.6,6-5.5,10.3-1.5c30.9,28.2,32.8,67.9,44.1,105.9C510.4,358.8,477.1,323.2,489.2,279.4L489.2,279.4z M412.8,378.7
				c-119.1,25.8-174.2-80.3-60.7-46.5c27.8,13.6,52.4,34.8,89.9,37.5C429.4,373.7,421.3,377.3,412.8,378.7z M421.9,357.8
				c-22.6-6.4-80.8-37.9-65.5-66.2c6.5-9.8,18-7.5,28-5.1c14,3.4,27.1,10.6,33.3,23c15.1,26.1,32.6,43.9,63.1,55.2
				C458,365.3,440.1,363.1,421.9,357.8L421.9,357.8z M440,326.9c-10.6-12.8-20.3-26.3-22.7-43.1c-1.3-9.1,6.4-11.7,16.9-6.3
				c20.5,10.5,35.6,27.5,47.5,46.2c9,14.8,15.1,31.6,29.2,43.1C487,366.9,455.5,344.6,440,326.9z M492.4,537.9
				c27-56.5,28.4-104.8,2.9-161.9c-0.2-0.9,0-1.8,0.4-2.6c21-4.2,34.7,12,50.8,20.5c3,1.4,6.5,3.3,9.5,2.9
				c22.7-3.6,39.4,11.2,60.4,14.7c-52.5,26.2-71.2,81.4-90.2,132.5c-1.2,3.9-8.8-0.8-12.9-1.7c-7.7-2.1-14.5-0.3-22-0.2
				C491.6,540.7,491.9,539.3,492.4,537.9L492.4,537.9z M404.9,625.9c4.8-27.4,24.4-60.8,57.3-51.2c6.7,2.1,13.3,0.6,16-8.4
				c9.8-22.3,35.4-14.2,53.4-8c10.4,3.5,15.7,9.7,17.9,20.1c4.3,13.6,11.3,9.9,13.5-1.4c7-19.6,15.2-38.5,28.2-54.9
				c22.3-25.4,102.6-13.3,88.5,31.1c-5.3,16.1,20.6-11.2,46.3,11.6c33.7,18.6,23.7,54.3-5.9,70.1c-5.7,2.8-3.3,10.4,2.5,10.8
				c22.9,6.5,20.9,45.3,6.3,59.5c-11.6,12.2-26,20-43.8,21.9c-12.6,1.4-25.1,1.5-37.6,1.7c-6.1,0.5-4.8,8.7-1.3,12.1
				c14.1,13,13.3,28.7,7,44.9c-9.7,21.9-36.3,12.7-51,1.2c-7.9-7.1-12.8,0.4-10.2,8.8c0.9,54-86,33.2-117.8,22.1
				c16.1-6.8,14.3-24.1,11-36.5c-5.2-20.2-22.4-26.8-37.8-36.2c11-8.5,26.9-10.4,38.2-18.7c12.3-7.9,22.9-4,31.8,2.8
				c5,3.8,5,13.6,8,20.3c7.4,16.8,14.3,34,26.1,48.4c3.7,6.1,10.7,2.9,6.1-4.3c-2.7-3.3-36.8-66.2-25-60.4
				c29.3,9.8,59.1,25.6,90,26.6c-1.3-7.2-40-17.1-49.1-20.4c15.4-7.4,28.9-16.6,45-21c4.9-2.1,14.9-4.7,15.6-10.7
				c-22.7,0-44.3,13.4-63.7,23.8c-11.7,6.8-17.4-2.9-25.9-3.8c-7.9-0.9-15.3-6.3-23.8-7.4c-3.3-0.4-6.3-2.9-9.4-4.5
				c14.5-15.2,36.3-19.8,54.2-30c6.7-3.3,12.5,1.6,19.1,1.2c39.6-3.3,79.7-1.5,118.9-8.5c2.1-0.3,6-1,5.2-4.4
				c-1.3-5.1-6.3-4.2-9.5-3.3c-13.3,3.5-26.9,2.5-40.4,3.6c-22.6,1.9-45.3,2.8-67.9,4c-2.1,0.1-6.3-1.4-6.2-1.9
				c0.2-3.2,3.6-3,5.7-4.3c32.9-21.5,67.5-40,100.2-61.7c3.1-1.8,5.9-4.1,8.3-6.8c2.6-8.9-4.6-7.1-8.9-2.7
				c-21.2,13.4-41.5,28.5-64.4,39c0.8-2.5,1-5.4,2.5-7.3c12-14.3,24.5-28.2,36.4-42.6c2.6-3.1,10.4-5.8,5.3-11
				c-4.6-4.7-8.1,3-10.3,5.3c-16,16.9-34.9,32.5-43.9,54c-7.8,18.5-26.5,18.6-37.8,30.2c11.7-39.8,30.4-77.3,55.1-110.7
				c2.2-3.1,5-8.1,1.7-10.6c-2.9-2.2-5.1,2.8-7.1,5.4c-29,34.8-48.3,75.5-60.7,118.8c-2.8,8-12.2,9.3-19,12.7
				c-18.2,9-36.7,17.4-54.6,28.9c0-19.9-0.3-38.9,0.2-57.9c0.1-4.3,6.2-3.1,9.2-5.2c9.5-8.1,47.8-32.8,47.4-43.6
				c-3.2-3.6-4.7-0.5-7,1.3c-15.3,11.9-30.6,23.5-46,35.2c-2.3,1.3-2.3-1.8-2.3-3.2c2.8-18.4,5.8-36.8,8.3-55.2
				c0.4-2.5,2-7.5-1.8-7.6c-5.6-0.2-5.1,6.4-5.8,9.6c-5.7,29.6-11.3,56.4-12.8,87.1c-13.7-20-25.1-37.2-37.1-57.3
				c-2.9-3.9-6,2.1-4.7,5.3c5.1,15.1,16,27,22.8,41c5,10.4,15.5,17,18.8,28.3c2.5,8.8,1,18.2-2,26c-1.7,4.6-10.5,6.6-16.2,9.5
				c-21,10.8,3-30.7-58.9-35.9C430.9,663.8,394.6,655.9,404.9,625.9L404.9,625.9z M364.8,793.5c-9-8-17-17.3-26.6-24.2
				s-6.2-11.6-1.4-19.7c12.5-21,24.5-2.1,34.5,1.1c20.5,6.5,37.8,20.5,52.3,36.5c5.5,6,15.1,12.8,9.2,23.4
				c-3.4,6-9.5,10.2-18.7,10.7C396.1,816.6,379.5,806.7,364.8,793.5z M394.1,824.5c-6.9,0.8-12.5-0.5-17.7,2.2c-1.2,0.6-5-0.9-5-1.1
				c0.5-4.1,1.4-8.2,2.2-12.3C381.1,816.3,386.1,820.1,394.1,824.5L394.1,824.5z M251,996.8c0.9,37-56,62.5-66.2,17.5
				c-1.4-8.6-2.5-17.4,0.1-25.2c1.7-5,9.3-7.8,13.2-12.4c5-5.8,8.9-12.5,9-20.6c0-1.2,0.9-2.4,1.3-3.6c6.5,16,19.3,34.8,38.5,36.4
				C254.5,989.5,249.2,994.7,251,996.8z M358.2,724.8c-43.7,16.2-15.5-22-79.3-15.6c24.1-16.5,47.9-22.9,75.7-24.3
				c12.8,0.2,22.2,6.4,23.9,17.7C380.1,715.2,368,720.4,358.2,724.8L358.2,724.8z M390,702.2c10.8-9.4,45.2,1,51.7,16.4
				c11.2,32.5-58.3,34-75.8,19.5c-2.1-1.3-4.9-1.2-8.7-2.1C372.9,728.3,386.5,720.6,390,702.2z M195.2,768.9
				c0.9-2.8,17.9-2.8,19.5,0.2c7.9,14.1,12.1,29.4,14.6,44.5c-1.5,20.4-6.6,43.5-31.9,39c-8.9-1.5-11.8-9.4-14.5-17.8
				C174.7,810.3,188.1,790.3,195.2,768.9z M216.7,722.1c34.8,0.2,20.5,38.5-12.6,36.8c-6.1-0.5-16-1.1-16.9-13.1
				C186.3,733.3,201.8,721,216.7,722.1z M198.4,862.9c26.1,1.8,41.4-20,38.7-48.2c11.7,17,14.9,35.8,18,54.8
				c3.3,19.9-15.9,49.5-33.6,49.3c-19.2-2.2-23.7-32.2-27.7-48.8C192.8,866.3,191.4,862.7,198.4,862.9z M226,765.3
				c-0.7-1.8,6.9-7.1,11.1-10.2c11-8.1,18.1,2,25.3,7c21.7,12.3,53.6,51.9,16.5,65.7C250,821,235.2,790.8,226,765.3L226,765.3z
				 M252.1,727.7c16.8-6.1,33.3-14.7,52.1-8.6c11.6,3.7,21.8,9.8,23.3,22.9c0.7,12.1-15.1,14.1-24.5,13c-20-0.7-38.3-8-56.9-14.3
				C243.3,734.4,245.6,729.3,252.1,727.7z M278.3,762.7c32.4,1,59.9,15,80.1,41.6c3.7,4.9,8.7,13.4,1.8,20.5
				c-13.6,12.6-41.8-0.2-51.8-12.3c-4.2-4.5-3.7-13.1-6-19.6C297.5,779.8,288.1,770,278.3,762.7L278.3,762.7z M265.6,656
				c-7.8-18.1,1.9-46.1,17.8-51.2c10.7-4.2,18.7-1.5,25.4,6.9c6.1,7.8-0.6,14.4-3.4,20.6c-5.4,12.1-18,18.1-26.3,28
				C275.1,665.2,268.4,662.6,265.6,656L265.6,656z M265.6,669.9c17.3,7-1.6,31.2-11.8,42.4c-6.1,6.2-11.8,11.5-21.4,4.9
				C217.5,708.7,247.9,660.8,265.6,669.9L265.6,669.9z M243.2,665.7c-4.2,2.4-9,13.5-11,11.7c-9.1-11.7-17.3-28.5-14.9-43.8
				c1.3-10.3,5.5-19.1,23.9-18.6c6.5,0,13.2,8.5,13.7,24.5C255.3,650.3,256.2,661.1,243.2,665.7L243.2,665.7z M221,684.9
				c-1.3,11.2,5.4,28.9-14.3,31c-9,0.9-9-7.6-9.9-11.9c-2.2-10-6.2-21,3.6-30.1C209.8,665.1,221.3,673.7,221,684.9z M207.4,659.3
				c-2.2,4.9-12.6,5-16.6,9.5c-4.1,11.8-8.1,6.5-14.1,1c-9.6-8.7-18.5-16.8-15.7-31.5C171.1,605.7,215.6,641,207.4,659.3
				L207.4,659.3z M194.2,719.1c1.8,1.8-0.4,1.8-1,2.3c-2,1.6-5,2.6-5.9,4.6c-7.8,17.5-20.9,8.3-32,6.1
				C104.1,718.6,144,664,194.2,719.1L194.2,719.1z M174.4,747.2c2.8-0.5,3.4,3.1,4.9,4.7c12.4,12.9-0.9,20.4-6.7,27.6
				c-9,11.3-21.8,19-36,21.6c-7.1,1.3-14.1-2.5-16.8-9.2C111,764.4,153.8,751.1,174.4,747.2L174.4,747.2z M120.2,806.1
				c-41.6,19.8-64.3-34.8-23.4-46.5c13.9-3.8,28-9.2,42.4-10.2C106.2,773.8,100.3,791.4,120.2,806.1L120.2,806.1z M125.8,823.2
				c9.1-22.7,31.2-8.9,50.8-34.1c-6.1,13.4-9.4,28.6-4.9,41.2C187,878.1,89.6,891,125.8,823.2L125.8,823.2z M176.7,863.5
				c1.7-2.8,0.1-10.5,6.5-8.1c4.3,1.7,0.3,7.5,1.2,9.4c1.9,38.2,39.8,88.7-4,114.4c-21.5,11-38.6-5.8-36.3-28.7
				c0.4-21.2,12.4-37.9,17.6-57.1C164.5,882.8,170.8,873,176.7,863.5L176.7,863.5z M239.1,977.7c-18.1-9.9-23.1-27.2-26-45.7
				c-0.4-2.7-1.5-5.8,4.1-3.3c14.4,5.9,34.5-11.1,40.5-25.5c4.9,16.3,8.9,32.9,19.5,46.7c1.9,2.5,1.5,4.8,1.9,8.6
				C278.5,976.5,254.5,986.4,239.1,977.7L239.1,977.7z M264.2,987.5c11.6-3.6,17.8-11.4,21.8-22.9c3.2-9.3,8.2,1.2,12.7,1.2
				c6.1,0.1,11.7,3.7,18.5,1.8c8.5-2.4,5.7,6.3,7.5,10c0.9,14,0.6,36.7-14.7,47.2c-23.8,17.2-42.1-12.4-49.1-33.1
				C259.2,987.6,263.4,987.7,264.2,987.5L264.2,987.5z M292.6,951.5c-19.2-18.6-26.8-42.5-29.3-68.1c-1.6-16.2,1.1-32.9-6.4-48.2
				c-2-4-4.6-7.5-4.9-12.5c10.6,11.6,21.9,19.2,38,11.7c3.7-1.7,3.9,2.7,5.2,4.3c17.1,20.8,30.8,43.5,35.9,70.6
				C339.1,939.5,326.7,974.7,292.6,951.5L292.6,951.5z M325.8,867.8c-7.8-13.3-15.6-26.5-26.6-37.6c-3.6-3.6,0.8-6.7,2.7-9
				c3.6-4.2,5.5,1.7,6.9,2.8c13.2,10.7,27.5,17.5,44.9,14.9c4.3-0.7,3.3,3.1,2.9,2.8c4.1,25.2,12.3,47,19.4,69.2
				c1.2,3.8,5.5,8.1,2.1,11.3C351.8,919.3,338.3,887.9,325.8,867.8L325.8,867.8z M422.6,772.5c-6.8-6.1-14.5-10.8-24.2-18
				c17.7,2.4,31.1-7.7,46.6-1.8c21.6,8.1,36.6,29.8,31.5,51.4c-2.7,11.2-28,14.9-31.6,1.6C441.5,791.9,433.1,781.9,422.6,772.5
				L422.6,772.5z M365.6,653.4c2.3-4.4,7.3-1.5,10.9-2.5c12.8,0.3,24,4.6,28,17.3c3.6,11.3-6.3,16.6-14.2,21.9
				c-5.6,3.8-7.5-1-10.8-4.1c-9.3-9.9-21.1-11.5-34.1-11.5C350.9,666.2,361,662.7,365.6,653.4L365.6,653.4z M344.6,626
				c31.8,1.8,7.1,36.2-8.6,42.2c-17.4,9.8-35.8,17.8-53.8,26.4c-0.7,0.3-2-0.7-3.1-1c8.1-7.8-0.5-19.8,6.8-27.5
				C302.5,648.5,318.5,629.3,344.6,626L344.6,626z M92.5,619c-23.3-13.9-18.4-61,9.6-66.3c3-0.7,8.5,0.3,8.6-3.6
				c0.2-6.4-7.5-6.3-10.9-7.5c-16.8-6-28-18.8-39.7-30.8C38.9,488.8,36.2,436,73,429.1c5.3-1.3,8.1-2.4,4.4-9.6
				c-20.4-35.8,29.6-87,65.5-64.5c9.9,5.5,10.8,21,18.8,22.1c3.8,0.4,5.4-1.7,7.9-4.5c19.7-19,51.8-5.7,68.1,11.1
				c6.6,6.6,9.4,17.3,13.1,26.4c8.6,15.8,2.5,45.4,12.7,56c2.4,1.7,4.7-1.1,6.1-3c25.3-32.5,93-5.4,72.7,36c-1.3,8.7-18,24-3.4,27.9
				c14.3,2.5,24,17.5,22,31.5c-3.6,26-24.9,38.8-40.3,56.1c-0.8,0.9-2.1,1.5-2.6-0.9c-2.8-12.4-12.6-19-23.3-20.1
				c-16.9-1.9-27.6,11-36.2,24.3c-9.1-16.8-36.8-16.9-45.7,0.7c-0.3,0.7-2.6,1.2-2.6,1.1c-2.4-5.3-5.3-10.5-6.9-16.1
				c-0.9-3.3,3.4-4.4,5.4-6.5c10.3-11,20.5-22,30.2-33.5c2.9-3.4,6.2-3.2,9.1-2.9c22.7,2.7,45.1,0.1,67.4-3.2
				c4.7-1.9,17.9,0,17.3-6.7c-0.6-2.4-3-2.5-5.7-2.2c-26.5,4.1-53.3,5.5-80,4.2c10.2-15.2,20.4-29.9,30-45
				c2.5-5.1,11.2-18.4,9.6-23.2c-1.9,0.5-4.8,0.5-5.6,1.7c-7.6,11.4-14.4,23.2-22.2,34.4c-10.7,15.5-22.2,29.4-33.1,45
				c-3.5-22.1-1.4-43.1,2.9-63.9c1.5-7.3,4.4-14.2,6.4-21.4c2.2-7.4-5.5-6.6-7.9-1.3c-11.6,27.3-16.4,56.4-11.2,85.1
				c2.8,15.9-9.1,19.1-14.4,27.6c-3,4.8-4.9-3.1-5.6-4.8c-7.9-18.1-15.8-36.2-22.2-54.8c-1.6-4.7,1.7-11.4,3.7-16.9
				c10.3-28.3,18.2-57.1,22.1-87.1c-0.3-5.7,9-27.1-0.2-27.1c-3.1-0.3-1.9,1.7-2.3,3.2c-6.9,38.1-17.8,75.4-29.3,112.3
				c-0.9-0.8-2.1-1.3-2.5-2.3c-5.4-14.8-11.8-29.5-15.8-44.7c-2.8-10.4,7.2-18.9,8.2-29c1.3-13.2,5.6-26.3,1.9-39.8
				c-0.9-6.2-7.4-4.9-6.6,1.2c0.2,17-2.1,33.5-9,50.6c-7.3-23.1-14.1-44.9-21.2-66.5c-0.5-1.4-1.1-5.1-3.9-4c-2.4,0.9-2.8,3-2.3,6.4
				c9.3,46.4,25.9,88.3,40.6,133.7c-23.3-18.2-44.3-34.7-66.2-53.5c-1.8-1.5-4.2-2.3-5.7-0.6c-3.2,9.8,48.5,49.5,58.7,54.3
				c28,17.6,31.5,48.3,44.3,74.8c-30,2.2-30-15.5-38.9-35c-3.6-6.8-22-28-29.4-23.6c-1.9,1.3,0,2.3,0.7,3.2
				c7.3,9.2,17.7,15.8,22.1,27.4c1.6,6.8,8.4,12.9,7.6,19.9c-13.9-1.5-26.5-7.7-39.6-11.7c-2-0.7-4.5-0.1-4.5,2.3
				c-0.1,5.6,5.3,6.3,8.7,7.5c19.2,6.3,38.5,12,57.9,17.7c24.1,2.6,17.1,0.8,30.2,22.4c-16.5-14.7-30.4-12.6-42.9-3.5
				c-14.4,9.5-0.8,33.1-13.4,24.5c-8.4-3.1-17-6.2-26.1-3.6c-4.8,1.4-9.9,0.7-9.2-3.8C114.2,624.8,100.5,623.9,92.5,619z
				 M101.9,669.8c2.7-13.3,13.4-17.8,26.6-17.1c18,1.1,30.4,12.4,42.6,23.8c4.8,6.4,17,12,13.8,21.2c-16.6-9.4-33.6-18.9-52.8-6.3
				c-3.1,2.1-11.1-3.4-16.9-5.2C107,683.7,100.3,677.9,101.9,669.8L101.9,669.8z M89.1,705.5c8.5-3.5,17.5-6.9,27.2-6.5
				c19.3-3.7-10.8,25.6,29.2,39.1c-22.2,2.3-63.3,16.1-68.1-15.7C75.9,714,82.4,708.3,89.1,705.5z M41.7,755.2
				c3.3-7.9,13.3-11.5,22.5-14.6c16.3-4.5,15,13.3,33,8.5c-18.3,8.7-35.9,19.9-30.8,41.1c0,0.1-5,2.8-7.4,2.3
				C37.5,788.3,35,770.8,41.7,755.2z M32.8,839.5c-2.4-14.4,17.3-29.4,29.7-35.3c11.5-5.4,12.3,4.1,16.6,7.4
				c12.4,10,25.6,8.4,39.6,4.2c-4.1,24-26.8,33-41.2,49.2C60.3,882.5,30.3,865.3,32.8,839.5z M68,963.1
				c-52.3-4.5-46.6-83.9,0.9-83.7c-11.1,27.7-9,61.1,26.3,68.6C87.6,955.5,80.7,964,68,963.1z M72.8,915.6
				c-4.1-27.8,12.3-44.8,28.8-62.4c8.4-9,8.3-0.3,9.2,4.4c5.4,23.5,32.7,26.3,51.4,14.3c-12.6,23.3-13.2,49.7-37.8,62.9
				C106.8,946.2,76.5,939.9,72.8,915.6L72.8,915.6z M98.8,974.5c0.3-7.5,7.2-14.8,7.1-24.4c0-1.6,9.3-4.1,14.5-4.8
				c6.2-1.3,10.8-5.1,16.2-7.9c-3.2,23.6-2.8,41.3,21.3,53c3.6,2,14.5-0.6,14.3,1.8C160.5,1034.7,96.4,1017.7,98.8,974.5z
				 M85.3,1205.6c-9.8-9.2-22.7-14.5-36.1-14.9c15-28.1,18.7-59.3,30.2-88.6c6.7-4.8,26.9,13.9,33.6,7.6
				c-1.8-10.7-17.4-13.2-25.9-16.4c-3.7-1.3-2.6-2.5-1.4-4.2c13.7-20.1,19.2-43.6,27.7-65.9c2.5-6.5,7,1.6,10.6,0.2
				c0.3-0.1,0.9,1.1,1.5,1.2c25,3.5,6.3,13.4,0.3,16.8c-8.7,10.9-6.3,41.2,5.7,51.3c2.3,1.9,3.7,3.6,0.8,5.6
				c-17.7,12.1-9.5,22.6-15.4,37.8c-8.4-5-16.3-10.9-24.5-16.3c-3.9-2.5-7.7,0.1-8.9,3.2c-0.5,2,2.6,3.1,4.7,4.3
				c7.1,4,13.8,8.7,20,13.9c7.8,6.9-0.4,12.3-3.1,17.7c-7,13.8-9.2,28.7-11.7,43.5C92,1209,89.8,1209.7,85.3,1205.6z M98.9,1280.9
				c6.3-54.7-4.4-76.9,20.7-132.5c6.2-21.3,13.7,14.1,45.6,10.7c-15,25.4-21.5,57.8-2.4,82.6c1.5,2.1,5.7,3.8,3.8,6.5
				C145.2,1260.2,119.5,1263.1,98.9,1280.9L98.9,1280.9z M202.4,1266.6c-16.9,12.4-34,24.5-51.2,36.5c-3,2.1-2-1.3-2-2.3
				c0-25.7-18.7-31.5-4.1-32.6c9.9-6.3,22.4-7.5,31.6-16.2c6.9,6.1,15.3,5.9,23.2,7c3.9-0.5,10.1-4.3,11.2-1.2
				C212.4,1261.7,205.7,1264.1,202.4,1266.6L202.4,1266.6z M386.6,1045.1c2.7,20.9-25.9,13.1-6.1,36.8c17.7,26.4-17.3,61.7-45,49.2
				c-4.1-0.7-6.3,3.4-2.9,6.6c12.6,12.5,23.3,26.7,31.7,42.3c3.7,6.8-2.1,33.4-8.1,41.3c-9.1,11.8-21.5,12.4-34.5,11.8
				c-10.2-0.5-5.1,11.7-8.9,17.5c-5.2,13.4-18.9,24.1-33,27c-20,4.5-36-6.1-42.5-23.8c-2.9-12.3-9-14.7-20.1-8.2
				c-20.6,12.1-51.8-5.9-54.3-29.6c-2.1-20.6,2.6-38.9,12.6-56.4c5.8-9.1-1.5-13.1-9.5-10.1c-9.3,4-30.3-7.1-35.5-19
				c-11.5-24.6,28.7-28.7,8.3-43.9c-15.1-11.5-8.6-40.7,3.6-51.8c5.1-5.5,11.2-10.3,17.2-15.2c4.8-3.9,11.9-4.8,14.6-13.9
				c3.1,20.4,8.7,36.4,29.3,41.9c-6.8,4-49,15.7-44.7,22.4c2.7,4.6,9.6,0.5,13.6-1.7c14.8-7.9,31.3-10.7,46.6-16.9
				c0.4-0.2,1.2,0.6,1.8,0.9c-1.5,2.6-2.5,6-4.7,7.8c-17.9,14.5-30.3,33.9-45.3,51c-1.9,3.4-12.4,9.8-9.3,13.4
				c2.1,1.3,5.3,1.8,7.3-0.5c8.4-9.2,16.8-18.6,25-28c2.6-3,3.2-8,8.2-8.7c2.4,14.5-2.8,28.3-5,42.5c-0.3,1.6-2.3,5,2,5.4
				c6.1,0.5,7.1-4.8,7.8-8.5c2.8-15.9,6.9-31.4,5.4-48.3c-0.6-6.3,10.3-13.8,16.3-20.4c7.9-8.1,15.1-17.3,23.8-24.4
				c2.6,23.2,3.2,46.8,4.4,70.2c0.3,9.3-9.1,13.9-13.1,21.3c-16.5,26.7-30.3,54.4-40.5,84.2c-0.9,2.8-4.8,7.6,1.1,8.7
				c4.4,0.8,5.4-5,6.6-8.1c11.5-32.8,29.3-61.3,47.3-90.9c1,12,1.2,23.6,3.1,34.9c2.1,12.6-3.1,21.8-10.5,31.1
				c-8.3,10.4-11.3,23.4-15,35.9c-0.4,1.4,1.8,3.5,2.8,5.3c1.6-1.7,3.9-3.2,4.6-5.2c4.6-13.5,9.2-26.8,19.1-37.6
				c5.3,17.5,6.5,35.4,8.9,53.1c0.7,3.9,1.3,10.9,5.2,12.6c4.9-2.7,3.1-7.7,2.7-11.5c-6.6-32.9-7.8-67-9.5-100.4
				c17.1,21.4,33.3,41.4,51.6,61.3c2.5,3.5,7.8-3,4.9-5.8c-17.7-22.7-34.9-45.8-53-68.2c-8-9.8-6.6-20.9-7.6-31.8
				c-1.3-23.8-5.3-47.3-3.1-71.3c13.6,11.6,27.1,23.2,40.8,34.6c2.9,2.4,0.5,4.5,0.4,6.9c-0.8,19.6-1.4,39.4,10,56.9
				c2.3,6.3,9.3,3,6.3-3.5c-7-15.7-11.3-33.8-7.1-50.9c8.2,1.4,36.1,38.2,40,30.7c1.7-1.8,0.8-3.8-1-5.6
				c-15.1-15.9-31.9-30.6-46-47.3c14.5-6.1,30.8-3.3,46-3.9c2.1,0,5,0.4,4.9-2.7c-4.6-8.7-27.6-4.2-36.9-5.7
				c11-13.4,14.9-28.6,14.1-47.4C349.2,1007.6,379.2,1016.2,386.6,1045.1L386.6,1045.1z M388.9,992.2c-4,4.8-9.6,7-19.8,6.8
				c-10.5-1.7-18.3-12.8-28.2-21.3c-12.9-11-5.4-19.8-0.5-30.5c6.1-12,2-25.2,1.4-37.8c9.7,10.1,17.6,22.2,32.5,21.1
				c13.8-0.6,12.5,9.6,15.5,16.2C396.6,961.6,401.3,977.3,388.9,992.2L388.9,992.2z M684.8,1202c-5.9,18.5-11.3,37.1-18.3,55.2
				c-1.9,5-8.5-0.2-12.5-0.9c-56.8-11.8-107.5-44.1-150-82.8c-18.2-19.1-43.1-33.6-54.3-58.3c-1.5-3.6,4.3-6.2,7.2-8.8
				c8.2-8.3,18-14.9,25.4-23.9C533.4,1143.7,612.6,1182.3,684.8,1202z M872.4,1200c-97.2,17.2-206.3-4.7-291.7-53.7
				c-86.3-50.9-153.4-139.1-191.7-230.7l1.4-0.7c69.7,128.5,195.1,219.6,333.8,261.2c31.2,11.1,64.6,12.6,96.8,20.3
				c17.8,2.7,38-2.4,55.1,2.3C874.9,1199.3,873.7,1199.7,872.4,1200z M906.4,1180.5c-14.3,4.5-29.1-1.1-43.6-2
				c-19.8-2.3-39.7-4.3-59.5-6.9c-56.6-6.2-110.9-24.1-163.5-45.1c-76.2-36.2-138.3-94.9-191.3-159.7
				c-25.1-34.5-47.3-71.8-66.9-109.8c-2.9-5.6-2.5-12.9-10.3-18.1c80.8-12.3,146.2,4.4,222.5,26.4c98.5,31.7,185.8,95.9,246.3,179.7
				C872.5,1083.8,892.3,1133.2,906.4,1180.5L906.4,1180.5z M891.4,1528.2c-15.9-17.2-35-24.1-58.1-13.7
				c-18.8,3.3-36.7-17.4-55.8-8.6c-22,8.1-43.3,16.1-66.4,5c-2.9-1.4-8.6-1-8.1-4.5c0.4-3,4.6,0.3,7.1,0.6
				c12.3-4.7,24.4-11.8,38.5-10c24.1,2.5,39.1-24.5,62.8-23.2c14.5,0.4,70.9,16,77.5,3.2c-0.1-2.6-2.8-5.3-5.6-3.8
				c-5.3,2.7-10.3,0.5-15.3-0.2c-24.4-1.4-54.6-15.1-77.2-4.7c-16.4,8.3-30.4,22.1-50.9,18.9c-3.1-0.5-6.3-0.1-9.3,1.1
				c-13.5,6.2-27.2,11.1-42.4,8.8c-5.3-0.8-6.7-6.2-10.7-8.5c28-7.1,42-33.2,60.7-53c15.7-18.4,22.6-7.4,35.2,6.9
				c1.8,1.5,6.1,0.7,5.7-2.3c-3-12.8-24-17.1-2.9-26.7c15-7.1,28.1-12,44.3-2.8c34.4,21.8,52.4-1.7,34.4,0.5
				c-36.6-1.3-37-31.9-84.4-5c-22.2,16.3-17.5-5.8-43.2-4.8c-41.5-2.2-73.3,56.8-114.1,23.2c22.1-8.3,45.6-14.4,64.3-29.6
				c32.4-24.9,72.8-55.6,112.1-24.3c2.4,1.8,3.7-0.7,5-1.8c1.7-1.5,0.2-2.7-1-4.1c-41.6-38.4-91.5-2.9-125.5,24.5
				c-20.6,13.7-43.9,23.6-68.3,27.8c-24.9,3.9-38.8-12.4-52.8-29.9c58.1,14.8,68.9-53,128.3-21.3c4.2,2.1,7.8-1.6,4.3-5.1
				c-62.6-46.9-86.8,45.6-146.9,11.4c-20.2-11.9-39.2-17.6-61.6-12c-3.9,1-10.1,2.9-11-0.3c-1.3-4.2,5.5-3.4,8.4-5.5
				c1.4-0.9,2.8-1.7,4.4-2.4c36.2-20.8,57.5-0.6,91.5-17.1c8.2-3.9,15.3-9,18.8-14.5c6.4-9.8,32-17.2,44.2-16
				c21.9,2.1,39.5,13.7,58.6,22c4.8,2.5,16.3,4.2,17.9-4.3c-23.8-1.5-40.6-22.4-64.9-25.4c-47.9-8.6-52,11.7-86.3,32
				c-7.8,3.4-16.4,4.3-24.7,2.7c-30.1-5.4-56.4,9.3-81.7,21.1c-32.1,13.1-48.5-16.7-78-20c51.4-25.7,75.5-48.8,136.5-40.7
				c4.5,1,6.9-5.4,2.3-6.7c-72.8-13.8-94.7,20.8-153.7,43.3c-38.6,9.1-74.1,37.2-115,30.2c-21.4-3.3-41.9-5.3-61,7.1
				c-42.2,36.1-54.4,52.7-112.6,65.3c-18.2,4.7-37.1,6.8-55.6,10.4c-2.2,0.4-5.8,0.4-5.8,3.9c0,12.4,78.9-8.1,89.3-11.3
				c59.9-13.2,79.7-72.3,124-66.8c11.3,1.4,22.7,1.4,34,2.2c11,0.8,22.8-3.8,32.6-1.3c40.6,6.4,78.7,25.9,111.8,50.3
				c36.1,28.4,74.8,8.1,115.4,25.7c27.3,10.6,50.5,29.7,68.9,52.2c9.9,13.8,21.7,25.9,36.4,35.2c14.3,9.1,32.2,6,46.4,15.6
				c13.9,9.4,25.4,20.3,31.1,36.6c2.5,4.5,5.5,13.9,11.4,11.7c-4.7-32.1-27.7-59.6-61.1-64.6c-28.2-3.6-44.2-25.5-60.5-45.9
				c-28.7-31.7-69.1-56-112.4-59.5c-16.1-1.2-32.6,1.9-48.2-4.1c-19.8-7.5-35-22.6-53-33.1c-21.3-13.6-44.7-21.2-69.1-26.8
				c84.6-54.8,96.4,25.4,178.5,8c55.3-10.6,68.1,59.8,119.5,64.1c37.9,4.9,45.2,27.1,63.8,55.3c49.4,63.4,115.6,12.9,151.3,101.4
				c0.5,1.4,2.8,2.3,4.5,2.9c4.6-1.2,0.9-10.1,0.3-13.1c-11.8-27.2-30.3-47.6-58.9-57.8c45.4-19.4,44,9.1,79.7,1.3
				c7.9-2.4,15.5-6.8,24.4-3c14.9,6.2,24.4,19.6,37.7,27.8c4.3,3.1,11.8,0.4,6.6-5C902,1538.2,896.5,1533.3,891.4,1528.2
				L891.4,1528.2z M664.8,1471.6c-6.6-9.2-10.2-20.4-20.7-27.6c38.4-3.3,65.6-51.7,103.5-25.3c-19.5,6.1-28.4,22.9-39.8,37.6
				c-9.1,12.1-22.2,20.5-37,23.9C669.5,1480.5,666.8,1474.5,664.8,1471.6L664.8,1471.6z M764,1094.3c-11.9-30.3-8.6-80.2-39.3-98.4
				c-22.3-9.6,0.5-15.7,4.4-42.5c0.3-2.2-2-6.8-4.1-8.4c-16.4,9.3-14.4,40.7-39.3,22.7c-3.3-2.1-2-2.9-0.6-5.5
				c5.8-9,18.1-18.9,10-31.4c-2.2-1.1-3.2,1-4.4,2.2c-16.8,17.6-29.8,38.9-50,53.4c-1.9,1.4-3.7,6.2-5.6,3.7
				c-2.7-3.5-5.8-10.9-4.1-12.9c9-10.9,19.2-20.8,29.2-30.9c5.3-5.4-1.7-7.5-2.9-11c-2.5-8.4-28,23.7-37.2,24.4c0.9-5.9-13-7.9-4-16
				c7.8-6.2,31.5-32.4,24.4-41.9c-4.4-6.8-30.1,24.2-35.6,28c-2.8,4-13.3-13.1-15.7-15.6c-12.4-18-31.8-26.3-52.4-21.2
				c-7.6,1.9-16.3,7-15.7,14.5c0.6,7,8.8,2,13.8,1.5c19.5,0.4,29.2,15.7,40.2,28.3c3.1,3.5,13.8,7.9,0.6,14.5
				c-13.4,6.8-25.6,16.1-38.8,23.6c-5.2,2.9-13.6,0-15.7,8.2c-6.5,34.2,51.4-3.3,61.2-10.9c4.8-3,7.1-11.2,13.3-9.3
				c3.4,1,6.2,7.5,6.9,11.8c0.4,2.1-4.3,5.6-7.2,7.6c-10.8,7.4-21.9,14.3-32.7,21.8c-4,2.8-0.9,6.3,0.7,9
				c6.5,8.6,31.7-11.8,39.6-15.1c3.2-1.8,5.9-8,9.9-4.8c3.4,2.8,10.6,7.8,4.8,12.9c-13.7,12-27.8,24-43.4,33.4
				c-8.5,5.1-4.3,9.8-2.7,13.7c8.8,12.7,44.7-25,55.3-30c1.2,5.6,5.2,14.5,3.2,16.2c-12.6,10.6-26.1,20.1-40.3,28.5
				c-8.9,5.2-5.5,12.1-3.6,17.1c2,6.2,8.6,3.5,12.9,0.6c12-7.8,23.8-16.2,35.2-24c2.2,18,4.5,36.7,6.7,55.4c0.2,1.9,0.7,3.9,2.1,4.6
				c9.4,1.7,9.7-44.2,8.1-51.5c-1-7.1-3-17,0.6-21.2c11.3-13.2,25-24.4,37.8-36.3c3.2-2.9,8.1-8.5,9.8-7.7
				c11.5,5.5,23.5,11.6,29.4,23.5c5.8,11.6,11.2,23.4,12.8,36.9c7.7,31.2,14.8,65.3,41.8,85.9c2.3,2,4.9,1.4,7.5,0.9
				C777.1,1135.3,769.6,1114.9,764,1094.3L764,1094.3z M663,1009.4c-5.6,5.2-11.6,10.1-17.8,14.6c-1.7-5.2-6.5-10.8-2.2-15.7
				c6.5-7.6,13.9-14.3,22.1-19.9c4.8-3.2,9.4,2.6,13.4,4.8C673.3,998.8,668.3,1004.3,663,1009.4z M770.8,232.2
				c3.9,4.9-2.8,8.7-4.9,10.5c-10.4,8.7-21.5,16.7-36.3,16.5c-17,2-28.4-7.1-37.7-19.8c-7.4-10.2,3.3-32.3,16.8-36.4
				c11.8-3.8,24.5-3.8,36.2,0.1c9.2,1.5,6.6,12.4-2.8,8.3c-13.2-5.9-25.5-2-36.3,6c-7.6,5.7-1.4,20,8.4,25.9
				c18.9,11.5,32.1-1.8,46.5-9.4C764.5,231.9,768.2,229,770.8,232.2z M720.6,1046c2.9,11.2-43.8,14.3-52.6,26.5
				c-10.9,5.8-12.1-26.8,11-29.8C687.9,1041.2,720.2,1037.4,720.6,1046z M554,1572.6c1.5,4.8,6.5,23.5,0.6,24.7
				c-3.5-0.1-4.9-5.4-5.5-8.4c-5.3-27.8-22.3-46.2-46-60.4c-44.9-27.7-102.3,17.3-139.6-31.1c-18.3-17.9-46.8-18-70.9-20.4
				c-20.6-2.2-35.8,7.7-46.8,23.3c-41.4,60.5-116,12.7-171.7,44.1c-14.7,5.8-64.2,29.8-72.8,11.8c2.2-6.3,7.9-1.9,9.3-2.6
				c56.2-10.2,91.1-42.4,152.4-32.3c82.1,13.7,66.7-64.3,136.8-54.3c34.6,0.9,67.7,14.7,91.5,40c2.6,2.4,7.2,3.2,11,3.6
				c19.1,2.4,37.8-1.7,56.8-3.4C500.1,1504.4,539.7,1534.9,554,1572.6z"/>
		</g>
	</g>
</g>
<g>
	<g id="Layer_1_2_">
		<g transform="matrix( 1, 0, 0, 1, 0,0) ">
			<g>
				<g id="Layer0_0_FILL_1_">
					<path d="M52,1548v15l-37,37h946l-37-37v-15H52 M52,52V37.7L14.3,0H0v1600h15l37-37v-15V52 M924,52V37.7L961.7,0H14.3L52,37.7
						V52H924 M976,0h-14.3L924,37.7V52v1496v15l37,37h15V0z"/>
				</g>
			</g>
			<g>
				<path id="Layer0_0_1_STROKES_1_" class="st5" d="M961,1600h15V0h-14.3L924,37.7V52v1496v15L961,1600H15H0V0h14.3h947.4 M52,52
					V37.7L14.3,0 M15,1600l37-37v-15V52h872 M924,1548H52"/>
			</g>
		</g>
	</g>
</g>
</svg>
