<svg xmlns="http://www.w3.org/2000/svg" xmlns:xlink="http://www.w3.org/1999/xlink" viewBox="0 0 976 1600">
<style type="text/css">
	.st0{fill:#FFFFFF;}
	.st1{clip-path:url(#SVGID_2_);}
	.st2{fill:#333333;}
	.st3{fill:#FFEB5C;}
	.st4{fill:#D81E1E;}
	.st5{fill:none;stroke:#333333;stroke-width:2;stroke-linecap:square;stroke-miterlimit:3;}
</style>
<g id="Paper_Backing">
	<path class="st0" d="M960,22v1556c0,3.3-2.7,6-6,6H22c-3.3,0-6-2.7-6-6V22c0-3.3,2.7-6,6-6h932C957.3,16,960,18.7,960,22z"/>
</g>
<g id="Wikipedia_Cropped">
	<g>
		<defs>
			<path id="SVGID_1_" d="M960,22v1556c0,3.3-2.7,6-6,6H22c-3.3,0-6-2.7-6-6V22c0-3.3,2.7-6,6-6h932C957.3,16,960,18.7,960,22z"/>
		</defs>
		<clipPath id="SVGID_2_">
			<use xlink:href="#SVGID_1_"  style="overflow:visible;"/>
		</clipPath>
		<g class="st1">
			<path class="st2" d="M429.4,1536.9c-31.7,2.4-48.9-25.1-65.6-43.1c-10.9,6.8-22.1,5.2-33.3-0.6c-60.6-22-11.9-92.8-5.6-130.8
				c-19.8-3.5-47.6,7.3-66.7-7.3c-17.5-11.1-22.5-26.4-14.8-45.4c-6.1-30.8-48.4,48.4-66.4,48.1c-63.2-47.9-26.4-157.1,55.6-160.9
				c38.1-7.9,39,6.4,74.2-16.6c7.1-3.4,12.1,2.4,16.2,7c28,17.7,59.9-2.4,68.8-33c1.5-4.2,8.2-2.6,7.7,1.9
				c-4.5,31.2,14.7,54.5,41.2,62.7c31.2-7.2,35.7-37.1,49.2-58.3c16.6,34.6,43.5,91,89.4,51.4c5.8-6.6,8.8-4.6,13.3-1.9
				c21.3,15.5,64.8,50.6,38.3,81.6c-2.3,2.4-2.4,6.2-0.1,8.7c19.7,31.2-4.1,70.7-38.6,70.5c-12.5,4.1-31.5-24.6-34.9-5.1
				c10,30.6,9.6,93.7-24.9,99.1c-7.4,2-21.3-10.2-30.2-7.2C497.7,1494.6,472.8,1540.8,429.4,1536.9z M112.8,1165.1
				c-43.5-3.5-22.3-28.6-74.6-10.4c-13.3,0.9-32.8-0.1-42.3-11c3.2-3.9-6.2-200.1,3.5-200.2c24.2-39.6,51.3-18.1,81.4-40.9
				c26.4-18.7,66-5.9,90.8,13.9c16.9,7.5,1.2,23.2,6,36.7c4.6,15.8,24.1,15.9,38.7,23.9c-7.5,17.8-48.9,20.9-46.3,42.3
				c-27.3,53.8,34.7,41.9,28.5,65.1C185.3,1118.8,153.4,1163.2,112.8,1165.1z M833.2,1093.3c-41.2,1.5-67.5-36.5-85.2-67.1
				c39.7-17.2,17.9-64.2-16.8-75.3c-7.8-9.6,7.8-6.3,13.4-7.5c16.8-21.8,31.4-29.5,22.3-48c-5.3-24-48.7-19.9-45.1-31.2
				c17.9-17.3,4-29.3,11.3-41.8c23.5-22.3,43-56.1,78.8-58.8c16.7-2.2,27.1,14.7,41.8,17.1c26.3-8.1,60,18.8,59.6,46.7
				c6,15.5,28.7-7.8,40.2-8.4c7.7-0.6,22.5-15.3,26.3-5.3c-0.6,30.5,0.4,154.1,0,181.9c-8,9.3-27.8,13-37.6,14.9
				c-14.4,3.1,2.2,35-13.6,44.8c-10.3,12.2-28.8,13.2-44.4,10.3C867.4,1079.2,853.7,1093.9,833.2,1093.3L833.2,1093.3z M218,886.1
				c-21.6-1.8-35.7-18.3-36.6-41.4c-0.5-3.2-3.4-5-6.5-5c-22.7-2.1-25.9-35.1-11.6-46c11.9-14.7-47-19.3-56.3-36.5
				c-23.5-23.1-0.4-52.5,22.5-62.4c-26.6-35.9-26.6-108.1,30.1-116.4c32.1-9.9,61.7,45.3,69.8,27.2c2-19.9,28-26.9,44.1-26.4
				c77.7,24.5-5.4,142.5,102.6-22.8c4.8-16.5-18.4,2.1-21.7-30.3c-13.9-10.6-27.2-24.3-32.6-40.6c-26-10.6-47.7-38.4-78.5-43.8
				c-14.2-7.5-36.2-2-49.9-5.8c4.5-39.5,40.5-103.1,87.7-71.2c12.5,7.5,18.4,23.2,28.1,33.5c23.3-4.5,55.1-15,76.7,4.6
				c17.3,9,20.6,31.7,34.3,40.9c21.3-32.2,17.5-99.1,15-135.6c13.3-26.3,47.2,15.7,66.4,18.6c21.1,14.9,56,12.5,72,31.7
				c-20.9,29.2-57,51.9-80.2,81.2c-30.5,35.1-57.7,75.3-81.3,115.3c-16.3,32.7-41.7,61.8-54.1,95.4c15.8,10,28.3,24.7,20.6,45.4
				c3.5,15.8,43.7,2.6,23.4,50.3c-2.5,5.4-8.2,0.8-11.7-1.1c-27.7-16.9-45.7,23.9-33.8,46c-1.8,21-27-11.7-39-1.6
				c-19.9,5.4-18.5,32.9-22.3,49.5c-15.3,4-41.1-9-55.9,6.6C225.1,853.3,236.3,883.7,218,886.1z M603.7,556.6
				c-41.1-0.6-84.3-20.7-113.7-44.7c-10.4-16.8,45.3-56.1,70.1-60.9c25.9-7.4,48.5-2.5,72.8,5.8c20.7-4.4,44.1-7.5,64.2,0.8
				c25.2,10.2,54.9,24.2,61.4,48.2c-13.7,26.2-50,43.5-73.1,43.3C657.2,542.5,631.6,554.9,603.7,556.6z"/>
			<path class="st3" d="M551.9,1222.4c-43.4,5-55.8-80.9-68-56.3c-4.1,21.2-19.3,46.5-43.5,49c-61.8-11.4-43.1-106.8-14.7-135.3
				c0.1-6.2,4.5-16.5-4.7-17.4c-17.5,1.4-14.4-28.2-27.8-15.2c-30.2,66.2-58.7,31.7-67.5,57.7c-56.1,95.3-158.5,68.8-80.7-33.4
				c2.9-10.3,27.5-16.6,16.4-27c-25.8-15.4-5.1-59.5,18.3-67.4c27,16.3,52.9-15,50.6,20.2c17,24.9,54.3-0.8,72.2-16.7
				c13.4,2.9,15.9-10.7,22.6-19.9c4.4-11.3,20.6-28.5,25.8-9.4c3.1,24-3.5,58.8,7.3,78.3c4.2,1.8,5.1,7.6,6.7,11.7
				c2.2,12.8,13.6,20.9,21.1,30.6c6.2,1.4,12.5-5,18.6-3.8c4-0.3,8.6,2.6,11.8-1.2c2.1-22.9,0.2-47.8-10.6-69v0.3
				c-1-4.4,5.3-8.6,0.5-12.7c-12-11.4-20.5-24.9-27.3-36.7c-4.5-6.9,0.4-12,6.5-16.6c8.6-13,21.1-3.6,30.3,1.5
				c22.8,8,54.3,20.9,61.5,46.7c6.4,10,7,0.5,23,9.8c20.5,10.6,72.8,22.8,70.5-9.4c6.5-20-11.9-18.4,0.4-36.9
				c-11.2-10.5-34.7-9.5-51.6-17.7c-15.1,1-9.4-13.7-17.6-19.9c-19.8-35-47.3-11-62.8-28.9c-22.6,1.7-49.7,35.5-66.2,10.4
				c3.4-15.9,28-31.1,23.7-47c-2.2-10.8,3.2-21-2.8-34.8c-12.3-17.5-34.3-8.6-47.8,4.6c-5-2.7-12.4-0.6-10.8,6.3
				c3.8,10.5,3.9,21.9,0.3,32.5c-5.7,11,9.7,25.4,10.9,37.2c3,9.9-13.1,12.8-15,19.9c-2.3,19.7-21.6,16.4-36,18.6
				c-27.5,4.5-54.3,2.4-78-14.5c-9.4,6.7-21.1,6.5-32.6,8.1c-7.7,0.9-6.2,12-12,16.1c-10.5,8.8-2.8,31.8-21.4,32.5
				c-78.2,26.8-103.7-47.2-19.7-66.8c11.6-4.8-27.3-58.6,34-61.9c52.8,3.2,52,36.3,112.6,39.7c20.2-8.6-28.3-29.7-0.1-62.5
				c-22.8-15.7-37.9-55-7.3-71.2c30.4-6.9,46.7,30.7,58.3,54.8c1.1,2.8,4,4.3,6.9,3.7c12.5-26.6-0.3-61.2,40.8-76.8
				c41.5-10.2,21.5,35.8,35.8,41c14.5-9.3,54.5-25.1,53.8,6.4c3.6,24.3-31.4,43.8-18.5,53.8c26.6,6.5,4,37.3,22.7,31.7
				c31.7-28.8,185.2-88.7,153.1,4.1c-5.9,14.1,19.8,10.2,26.8,17c24.8,12.2,19,48.3-9.1,55.6c-6.2,3.6-18,1.6-19.3,10
				c15.7,15.4,48.5,21.8,45.7,53c-1.9,35.8-40.4,15.3-58.9,21.4c1.1,15.6,21.3,26.9,16.8,46.8c-10.9,77.9-101.6,21.3-125.6-21.1
				c-20-13.5,4.4,40.9-45.9,47.1c-14.8,9.9,17.8,30.8,20.8,46.1C590.2,1165.4,595.3,1221.6,551.9,1222.4z M628.2,357.2
				c-33.2-3.2-75.7-1.2-101.5-24.1c2.2-8.7-7.3-8.9-12.8-6c-4.4-1-7.4-8.6-12.8-3.6c-23.3-13-37.7-68.7-43.8-97.2
				c-17.6-132.1,73.5-99.8,45.3,70.5c-5.4,61.9,49.4-24.4,58.9-43.9c11.8-25.9,27.2-67.5,60.2-69.5c53,17.4-2.5,80.7-31.5,97
				c-16.8,15.6-47.6,25.1-56.7,44.9c10.7,9.9,46.3-4.1,54.1-2.2c45.5-0.6,72.8-29.8,113.8-35.4c38.1-5.4,72.9,29.9,25.2,52.5
				C696,355.2,660.2,356.2,628.2,357.2L628.2,357.2z M449.5,301.8c-101.1-11-229.1-188.3-83.1-110.4c25.7,14.1,30.9,41.1,46.3,62.2
				C415.9,266.3,463.8,296.6,449.5,301.8z"/>
			<path class="st2" d="M116.5,1604c-11.7-2.7,7.1-16.1,8.3-22.7c73.9-106.2-4.7-118.1,24.4-187.3c13.9-20.4,36.9-33.5,49.1-52.9
				c8.1-7.3,49.6-65,42.6-26.3c-6.4,12.9,9.4,32.4-9.2,41.3c-24.1,26.5-57.3,49.6-41.6,93.7c15.6,35.9,2.9,96.3,38,55.8
				c6.7-9.3,14.4-4.9,18.4-12.4c1.1-4.3,4.8-6.4,9.5-8.5c12.4-4.5,33.4-35.6,44.6-26.2c2,20.9,21.2,30.9,7.8,35.1l-20.5,14.6
				c-3.3,1.4-8.4-0.2-9.6,4.8c-2.3,12.6-14,14.8-19.4,22.1C194.8,1630.3,272.1,1599.1,116.5,1604z"/>
			<path class="st4" d="M345.8,1192.9c-52-0.2-34.3-80.5-7.6-98.3c39.9,5.8,49.2-54.9,62.9-50c4.8,15.3,29.3,17.9,19.6,32.3
				C398.6,1119.8,404.4,1183,345.8,1192.9z M638.2,1187.5c-42.2-11.3-68.3-54.3-78.4-91.9c11.9-7.7,26.6-9.2,29.5-27.1
				c0.8-3.5,2.7-5.4,5.5-5.3C637.4,1073.9,708.8,1163,638.2,1187.5L638.2,1187.5z M206.2,1072.8c-46.9,2.4-52-51.1-18.2-73.1
				c16.8-23,85.5-30.2,79.1-49.3c6.6-30,45.8-46.3,70-27.5c16.3,7.8,35.5,1.4,50.7,8.5c65.6-21.6,20.9,4,57.7-37.7
				c7.8-7-4.6-18.2-3.9-27.7c-7-25,0.1-63,32.2-67.1c42.6,6.6,11.3,64-1.5,83.3c-5.2,8.7,10.8,14.4,16.3,18
				c25.1-12.8,58.5-19.3,87.1-13c33.6,7.4,23.7,34.5,37.1,44.2c41.8-8.9,89.8,63.7,29,69.5c-22.9-2.7-57.7-13.4-68.5-32.3
				c-2.5-12.4-22.8-12.9-22.9-26.7c-19.9-8-42.2-11.8-59.7-18c-18.4,19.5-21.9,14.6-6.2,37.3c83.4,122.2-29.2,157-31.5,12
				c-0.5-12.7,2.8-33.6-15.3-33c-20.4,24.3-87.1,105.5-108.4,45.4c-4.5-11.1-33.7,4.1-51.1-9.6c-21.4,12.6-40.7,44.1-25.5,63.4
				C265.9,1058.9,221.9,1072,206.2,1072.8L206.2,1072.8z M382.5,878.7c-113.7,3.8-101.6-154.5-9.8-58.1
				C351.3,851.3,397.2,871.8,382.5,878.7z M568.6,858.8c-3.5,0.1-6.9-4.3-4.3-7.6c9.8-17.9-28.3-25.8-7.2-41.6
				c19-35.1,85.8-56.1,100.3-8.1C648.8,826,590.2,842,568.6,858.8z M728.6,405.6c-21.5,6.2-165.9-30.9-143.5-52
				c44.3,11.5,91,3.4,133.8-8.1C766.4,343.3,790.4,409.8,728.6,405.6L728.6,405.6z M528.4,329.1c-19.3-5.9,92.8-58.4,99.7-81.7
				C727.7,180.5,756,324,528.4,329.1z M505.7,322.6c-12.9-1.2,4.6-76.4,5.8-92.2c-3-30.9,57.1-111.1,69.4-46.3
				C574.3,235.7,547,290,505.7,322.6L505.7,322.6z M486.7,319.2C309.9,206.1,416.5,78,458.4,235.6
				C454.4,258.7,500.6,314.8,486.7,319.2L486.7,319.2z M380.2,293.7c-48-1.1-153.2-14.9-157.5-71c23.8-29.3,89.2-11,109.3,15.1
				C340.5,254.5,447.1,298.6,380.2,293.7z"/>
			<path d="M976,995.8c-1.2-0.5-2.7,0.3-4.2,1c-9.4,4.8-19.4,8.8-29.9,9.8c-10.7,1.1-11.6,5.2-9.7,15.1c6.9,27.5-16.4,46.8-43,40.6
				c-17.7-4.6-11.5,16.2-46.9,25.9c-49.2,7-62.2-26.7-88.7-57.8c-2.1-2.5-2.7-3.5,0.3-4.8c27.2-7.8,22.6-40.8,8-58.7
				c-7.2-9.8-18.5-13.9-28.9-19.5c14,3.7,29.8-10.2,42.8,5.5c6.2,7.4,18.5,9.7,22.3,18.7c4.5,10.8,10.1,21.2,14.1,32.2
				c6.2,16.9,18.2,29.9,27.2,44.9c1.6,3.5,10.4,4.1,8.7-1.2c-15.8-21.3-28.8-44.5-38.7-69.2c29.4,17.5,52.1,36.7,81,53.6
				c1.7,1.1,3.7,2,4.7,0.1c0.6-1.1-0.1-3.8-1.1-4.7c-17.8-14.2-35.2-25.8-54.3-39.6c11.8-2.3,22-0.1,31.7,1.6
				c11.5,2,23.9,0.4,34.6,7.2c6.3,3.9,13.6-3.8,3.5-6.5c-17.3-8.4-36.4-7.7-54.7-10.8c-8.5-1.5-19,3.2-25.8-0.3
				c-15-7.8-28.3-19-42.3-28.8c-8.3-3.7-7.1-6.6,2.5-7.1c18.7-2,37.3-4,56-5.9c13.5-1.4,27.4-5.6,40.2-3.4
				c19.5,1.9,78.3,34.1,93,23.3c-22-11.4-49.7-12.7-71.8-25.4c3.4-4.1,9.1-1.7,13.7-3.4c14.3-5.2,28.8-9.8,42.9-15.4
				c4.3-1.5,12.3-0.9,11.4-8.1c-0.3-3.7-5.3-2.2-7.7-1.4c-22.9,7.4-45.2,17.2-69.3,18.5c17.4-26.1,48.8-43.5,67.4-67.5
				c-12.3,0.5-56.2,40.3-65.1,51.9c-4.5,6-8.2,14.9-16,16.4c-18,3.6-36.4,5.4-54.3,7.8c6.9-12.9,21.2-17.8,30.4-28.8
				c3.5-7.5,34-17.8,27.5-25.1c-3-3.8-4.7,0.5-6.6,1.8c-16.8,11.7-33.5,23.3-48.4,37.4c-13.7,20.2-27.9,17-50.5,20.1
				c64.2-97.2,23.4-38.4,109.7-88.2c6.2-1.7,1.6-8.4-3.9-5.6c-17.3,8.5-34,18.2-55.3,22.4c6.3-9.5,41.9-40.4,34.8-46.7
				c-2-2.5-3.8,1.8-5.2,3.4c-20.6,22.4-42.7,43.7-59.5,69.3c-1,1.6-3,2.4-4.6,3.6c-0.3-1.9-1.5-4.6-0.7-5.5
				c3.7-3.9,1.2-8.5,1.4-12.4c1.4-24.5,1.8-49,2.3-73.5c2.4-6.8-5.1-6.1-5.9-0.3c-4.8,24.3-2.6,49.5-5.8,74
				c-1.2,12.1,7.1,24.7-2.4,36.2c-9,13.7-17.7,30.6-33.4,23.4c41.5-25.1,10.9-68-28.4-69.3c21.9-28.4,4.5-28.5,10.7-41.2
				c25.5-23.3,51.2-69.5,92-54.2c10.5,4.5,15.7,16.8,32.2,12.8c20.3-5,53,20.5,49.1,47.9c-0.7,5,1.2,12.6,8.3,8.3
				c17.9-10.8,37.8-16.8,56.7-25.1c4.2-1.3,4-7.8-1.2-6.1c-12.1,1.3-22.5,9.3-33.9,10.2c-5.5,0.5-15.9,24.8-21.3-3.3
				c-4.5-23.1-24.9-36.9-49.3-41.2c-10.6-1.8-20.3,1.4-31.4-8.1c-19.5-16.8-64.3-2.1-78.2,20c-8,12.8-19.5,23.4-29.3,35.1
				c-1.6,1.9-2.1,0.6-2.9-0.4c-10.3-13-51.4-16.7-66.1-8.5c5.3-11.3,3.3-21.4-4-29.7c-21.3-24.1-62.8-20-85,2.1
				c8.6-45.5-33.7-41.3-61-21.7c20.1-66.2-74.8-64.6-76.3,31.1c-5.8-7.1-9.6-15.8-13.8-23.8c-5.2-11.2-19.2-17.9-10-36
				c9.5-18.1-4.6-33.3-24.1-35.4c-4.1-0.5-3.5-3.7-2.5-6c6.6-16.7-2.4-36.6-19.3-42.7c-1.8-0.6-4.1-0.7-1.9-4.3
				c12.5-19.8,24.2-40.1,36.9-59.8c18.1-34.4,31.3-48.7,69.8-59.6c8.7-3.1,16.8-10.2,27.7-3.3c20.5,13,41.7,25,65.8,30.8
				c23.3,5.6,46.4,9.9,70,1.8c6.6-2.3,12.8-6.6,20.7-5c20.8,4.2,41.5,3.8,61.6-3.5c19.1-6.9,33.4-20.7,46.8-35.2
				c13.5-17.4-18.2-33.7-28.9-43.2c-20.7-16.4-45.6-23.5-72.2-22.5c-10.9,0.4-23.2,6.5-32.2,3c-22.3-8.6-43.7-11-67-5.4
				c-24,5.7-43.8,17.5-60.6,35.1c-11.3,11.9-18.8,27.6-33.4,36c-9.9,5.7-21.1,9.1-32.9,13.9c34-58.5,79.8-106.5,128.8-152.1
				c8.2-7.8,14.7-16.2,28.4-5.1c11.8,9.6,28,13.3,42.2,19.7c36.9,13.7,76,21.6,115.2,15.4c43.2-14.9,16.2-59.3-18.5-63.2
				c10.3-7.5,21.9-14.5,23.9-26.8c2.7-16.6-14.5-32.4-32.4-32.5c-9-0.1-18,0-27,0c3.9-7,7.8-13.2,11-19.6c6.4-12.8-2.6-34.1-16-38.5
				c-16.4-5.5-31.7-0.7-46.8,5.6c1.8-10.9,6.8-20.8,4-32.8c-12.4-34.3-44.6-20-62.2,2.1c6.6-20.2-2.8-50.7-24.3-48.6
				c-27.4,4.2-39,32.7-49.3,54.5c-2.1-24.2-7.1-66.4-39.7-66.7c-7.9,0.6-11.5,5.9-15.4,12.5c-7,11.8-3.7,25.4-8.4,37.9
				c-4.5-5.8-9.7-10.6-12.8-16.6c-8.5-16.3-35.9-22.7-46.5-10c-8.6,9.8-6.1,22.1-6.3,34c-21.3-15.5-47.2-36.5-75.6-31.4
				c-13,3.1-15,26.4-3.8,38.2c1.8,1.9,3.4,6.7,0.2,7.3c-5.3-1.4-10.6-2.7-15.9-4.3c-17.4-5.2-34.6-8.7-52.4-1.5
				c-50.2,21.3,9.8,61.6,37.3,70.7c45.1,20.7,94,20.4,142.5,17.6c4.8,0,13.3,3.3,13.6,5.9c9,48.6,1.5,91-8,140.6
				c-12.9-40.5-54.9-67.8-95.7-53.7c-4.8,2-10.3,8.7-17.2-1.5c-29.9-56-88.6-42.1-110.9,15.9c-2.6,11.1-3.2,23-10.7,32.9
				c-4.4,4.1-5.2,15.3,4,13.4c56.8-25.6,130.4,41.4,159,86.3c8,12.7,26.6,24.2,8.3,44.4c-15.2,16.8-26.4,37.1-39.8,56.4
				c-0.9-36.2-28.5-79.1-69.5-57.9c-9.6,5-20.6,9.3-21.5,23c-0.1,1.4-1.7,6.5-4.6,2.9c-39.4-52.3-111.6-37.4-116.6,30.2
				c-2,21.1,4.1,40.4,18.4,56.7c1.4,1.5,2.6,3.7,0.1,4c-31.6,5.3-40.9,52.2-15.1,70.1c16.6,11.1,35.3,16.8,55.7,23.7
				c-5-0.4-4.9,2.8-6.5,4.4c-13,13.7-9,41.4,8.4,47.7c19.1,5.1,9.6,49.7,53,48.5c2.2-0.2,4.4-0.6,6.5-1.2c1.2-0.3,3.9,4.6,5.6,7.2
				c1.2,1.8-0.7,1.5-1.7,1.8c-15.7,5.3-32.3,8.5-44.8,20.9c-0.7,0.7-3.1,0.9-3.7,0.3c-11.5-11.1-25.3-18.2-40-24
				c-44.7-18.4-61,12.8-99.2,17.3c-18.2,0.7-32.8,9.6-40.3,27.1c-1.6,3.4-3.2,7.8-0.6,11.3c2-2,4.7-3.7,5.8-6.1
				c16-37.4,50.8-13.8,76.4-38c26.4-17.3,60.3-4.9,83.7,12.4c5.3,4.1,12.4,7,8.1,16.4c-11.3,24.1,14.1,42.1,37.3,43.4
				c-20.6,9.9-64.8,54.7-80.3,22.8c-3.2-8.3-1.9-18.9-5.1-28c-6.3-16-9.1-36.2-23.2-47.5c-3.6,9,4.3,15.6,6.4,23.6
				c2.6,15.5,11.4,30.3,12.5,45.8c-27-14.3-52.5-32.2-78.9-47.8c-2.6-1.6-5.7-4.5-7.9-1.7c-1.8,2.4,2,5,4,6.3
				c33,22,64.5,41.4,97,65.1c-18.3,2-33.8,9.4-51.8,12.1c-8.6,1.6-13.6-7.2-20-11.7c-15.6-10.8-32.6-19.3-50.5-25.2
				c-3-1-8.8-5.5-10.7-0.2c-1.4,3.9,4.6,5.2,8.1,6.8c20,8.8,40.1,17.2,56.9,31.8c-18.3,3.6-36.9,4.4-55.1,7.6
				c-3.3,0.7-10.5-1-10.1,4.4c0.3,5.1,6.3,3.2,9.9,2.8c16.7-1.8,33.6-3.2,50.1-6.2c10.2-1.9,21-0.1,30.6-5.5c0.8-0.5,2.8,0.7,4,1.4
				c1.8,1.2,0.2,2.1-0.4,3.2c-2.9,5.1-5.1,10.8-8.8,15.2c-8,9.4-8.5,25.1-25.5,27.2c-18.1,2.3-35.8,7.4-52,16.5
				c-28.7,20.3,49.3-12.4,54.5-9.6c-7.5,14.1-20,25.7-29.6,38.6c-1.4,1.7-1,2.4,0.4,3.9s1.8,1.1,2.9-0.1c18.7-18,34-38.2,48.6-59.6
				c8.3,19.6,21.3,36.9,25.1,58.6c0.6,2.9-2.1,9.8,4.3,8.9c13.4-7.7-14-56.3-19.9-67.2c-1.6-2.9-5.3-5.7-3.6-9.2
				c8-16,15.4-32.4,37.4-33.3c4.5-0.2,6.4,0.4,7.3,4.2c5.7,22,6.4,44.9,10.4,67.3c0.8,4.8-0.7,11.2,5.1,14.5
				c3.7-12.4,0.8-25,0.5-37.4c-0.2-9.7-1.1-20.1-4.8-28.7c-2.8-6.4-1-12.6-3.4-18.4c-1.1-2.7-1.3-2.6,12.4-8.8
				c2.4-1.2,4.7-2.7,7.4-3.1c-12.8,17.2-7,45.5,13.5,54.4c5.1,1.8,17.1,0.2,14.7,11.8c-16.2,45.2-73.3,108-119.2,60.2
				c-2.1-2.1-4.6-4-7.4-2.7c-9.5,4.5-18.9,9.3-29.8,9.5s-21.9,1.5-31.9-5.2c-7-6.4-12.3,3.5-4.2,7.3c38.8,21.4,63.2-12.4,76,7.8
				c25.3,24.1,67.6,4.6,88.3-17.9c15.4-16.7,32-34.5,34.5-58.5c0.5-3.4,1.8-6.5,5.9-6.8c13.1-1.1,24.2-6.8,36.2-11.6
				c-69.7,83.4-12.5,150.2,67.6,67.4c-4.6,8.7-4,18.2-4.9,27.3c-0.5,5.6,6.6,12.6-3.2,16.2c-11,4.1-19.6,14-33.1,12.5
				c-37.8-1.4-77.9,7-105.4,35.3c-33.9,36.7-34.6,102.8,5.2,134.2c12.7,5.8-27.3,19.9-31,50.9c-7.3,32.3,16.9,59.2,13.8,91
				c-1.6,31.9-19.6,57.6-34.5,84.3c-2.4,4.4-7.8,9.9-3.6,13.4c4.5,3.8,7.2-3.1,9.3-6.8c11.8-19.4,24.5-38.4,31.8-60.2
				c1.9-5.5,3.1-9.7,10.9-8.5c6.8,1.1,13.7,1.4,20.2,4c3.7,1.9,8.9-2.9,5.1-5.7c-9.2-3.8-18.6-7-28.9-6.2c-2,0.2-2.8,0.3-2.9-3
				c-0.5-18,13.1-6.8,21.4-13.6c-7.3-8.5-26.2,0.4-20.1-19.1c-7.3-26.9-24.7-55.8-8.2-83c8.3-13.5,22.4-20.9,31.3-33.3
				c9.4-15.5,17.5-3,27.9,4c2.4,1.9,1.2,3.9-0.2,5.5c-24,21.6-36.6,46.8-25.3,78.6c-5.9-3.7-12.1-3.4-18.7-2.6
				c-1.6,0.2-3.9-2.2-5.4,0.5c-2.6,4.7,0,7.5,4.6,6c28.2-3.8,25.4,19.3,30.1,39.2c2.8,5.7,0.8,47.3,12.4,33.7
				c6.6-7,14.9-12.5,21.6-19.4c10.2-10.5,16-9,18.7,5.4c0.2,11.8,11.4,19-0.3,27.4c-0.5-7.1-1.7-13.1-6.3-17.7c-2.8-2.7-6,0.4-5.6,3
				c7.5,14.4,6,28.3-2.9,41.4c-1,1.5,0.6,9.9-7,4.6c-12.8-8.1-34.8-22.1-50-14.6c1,1,1.9,2.8,3,3c10.2,1.4,20,4.9,28.8,10.3
				c7.9,5,23.3,5.5,15.7,21.9c-6.2,12.7,6.4,16.6,8.5,2.1c11.9-39.9,39.6-71.8,73.1-95.5c3.3-2.7,6.2-8.3,13.1-5.3
				c13.7,5.9,27.4,13.8,43,5.1c0.8-0.2,1.7,0.1,2.3,0.6c10.5,17.3,21.7,32.4,43.6,38.2c46.4,16.7,91.8-20.8,95.2-66.5
				c0.3-3.3-0.3-7,2.7-8.5s5.9,1.8,8.9,2.6c57.3,20.1,59.6-68.3,46.3-103.4c39,36.4,91.7-7,80.2-52.8c-14.1-23.6,3.3-15.5,3.5-37.4
				c-2.9-25.7-20.4-41.4-38-57.6c-6-5.5-19.7-4.5-16.2-19.2c2.6-10.7,1.5-22-1.1-33.2c56.5,63.9,111.3,8.3,67.5-56
				c29.2,8.7,67.1,7.1,73.9-28.3c1.9-20.8-0.8-40-18.6-54.7c28.2-1.8,37.8,13.9,51.4,34.3c12.6,15.2,23.2,30,43.9,36.8
				c25.8,8.5,46.5,3,67-12.2c5.2-3.8,6.3-13.5,15.8-11.3c15.8,3.7,29.6-1.2,41.8-10.8c8.1-6.4,12.1-30.2,7.5-40.5
				c-1.1-2.5-2.8-4.3,2.1-5.1c11.6-1.9,23.4-4,32.7-12.2C977.2,1001.2,979.4,997.7,976,995.8z M747,514.7
				c-20.2,20.2-44.8,34.3-73,29.2c-25.5-4.6-46.8,8.9-70.3,8.7c-38.8,0.4-68.1-18-103.2-35.1c21.8-3.5,39.6-7.3,58.3,2.2
				c15.9,8.1,33.5,13,50.5,19.1c2,0.7,5.3,1.8,6.3-2.4c1-4-2.3-4.8-4.4-5.3c-19.2-4.4-33.6-14.2-52.6-19.6
				c38.5-2.8,73.2-4,111.3-2.1c28.3,1,56.5-3.2,84.7-3.9C754.6,510.7,749.8,511.9,747,514.7L747,514.7z M561,454.8
				c22.8-5.5,43.9-4.9,65.3,4.6c7.2,3.2,18-0.7,27-2.5c38.3-5.8,74.6,15.7,100.4,42.2H649.1c16.3-7.4,29.4-16,44.5-20.1
				c2.7-0.7,1.8-3.8,1.2-4.5c-6.5-9.8-46.9,20.2-59.7,22.4c-9.2,3.4-20.3,1.6-30.6,1.8c-15.7,0.2-31.3,0-46.5,0
				c11.5-8,24.1-16.9,36.7-25.8c3-2.1,8.5-3.4,6.3-8.2c-0.8-1.8-1.8-2.5-2.9-2.5c-19.1,10.6-37.1,23.2-53.6,37.6
				c-5.7,5.3-13,2.6-19.5,3.8c-11.8,2.3-23.9,2.9-35.1,4.2C508.5,484.3,529.1,462.5,561,454.8z M749,883.9
				c24.1,13.3,13.5,42.3-8.6,48.2c-37.2,14-78.7,5-114.8-8.9c-4.6-2.1-12.2,0.5-14.2-5.4c-3.2-9.5,7-10,11.7-14
				c1.8-1.5,4.3-2,6.3-3.2C665.1,881.7,710.1,865.4,749,883.9z M492.5,1076.6c23.1-22.8,69.5,46.1,79.2,64.6
				C621.4,1257.5,472.3,1247.6,492.5,1076.6z M326,971.8c-5.8,8.7-17.9,7.8-28.2,6.6c-16.8-2-27.2-12.9-26.7-27.9
				c0.4-10.7,18.1-26.6,28.2-30c13.8-4.6,24-0.9,35.8,5.8c12.2,7,27,4.4,41.9,4.7C356.5,941.9,338.6,952.9,326,971.8z M313.9,1021.6
				c-11.6,11.3-24.5,20.3-41.2,21.2c-12.5,0.7-19.7-7.9-19.7-27.1c1.4-8.1,12.3-22.9,19.9-30.7c9.6-12.2,15.1,10.1,48.7-1.7
				c1.3-0.3,2.7-0.9,3.3,1.5C328.7,999.4,324.4,1011.3,313.9,1021.6L313.9,1021.6z M382.5,874.7c-15.6-5.2-31.5-3.7-45.7-9.8
				c-57.9-28.8-34.6-114.3,31.1-45.3c2.7,2.2-2.3,4.8-3,7.7C359.6,846.8,368.8,860.8,382.5,874.7z M405.3,894.1
				c4.3,2.4,9,4,13.3,6.4c3.2,1.8,9.8,1.5,8.8,6.1c-1.5,6.7-4.3,12.3-14.1,12.8c-30.9,1.6-70.8,13.4-92.9-15.7
				c-6.6-10-1.2-22.7,10.8-24.7C356.3,872.7,382.8,882.6,405.3,894.1z M322.8,865.7c2.1,1.5,4.4,2.7,7.5,4.5
				c-14,4.1-29.4,18.5-20.9,36c4.2,8.6-7.5,5-10.7,6.1c-24.1,7.9-48.2-4.3-60.6-23.3c-7.2-11-5.5-22.9-0.4-33.3
				C257.2,827.4,302,849.2,322.8,865.7z M365.5,947.2c17.1-10.5,36-17.9,55.7-21.7c2.6-0.5,4.1-0.1,4.3,2.1
				c0.4,5.4,7.6,10.5,4.4,14.8c-20.5,25.3-42.5,53.9-76.4,60.3c-11.3,2.1-20.5-5.9-20.5-20.9C334.9,965,350.8,956.3,365.5,947.2z
				 M499.8,922.5c-2.5-0.8-5.6-3.3-4.8-7.2c1.4-6.2-5.8-14,7.3-17.5c32.8-9.2,89.5-22.1,100.1,22.7
				C602.4,956.5,521.9,929.3,499.8,922.5z M514.6,937.5c25.3,7.6,79.1,34.2,51.4,65.5c-4.8,4.4-11-0.3-15.5,2.5
				c-31.4-7.6-53.4-31.5-68.2-58.8c-4.1-7.2,3.6-8.5,6-11.9C497.8,922.2,506.5,935.2,514.6,937.5z M489,893.4
				c-2.8,1.1-7.8-2.7-11.3-5c-2.2-1.4,0.4-3.1,1.3-4.4c10.4-15,18.2-31.8,32-44.5c15.5-14.1,43.9-14.2,49.2,6.4
				C547.3,874.7,515,881.7,489,893.4z M485.9,911.9c3.7,30.7-53.8,44.2-51,3.1C436.3,891,481.9,883.4,485.9,911.9L485.9,911.9z
				 M478.4,1073.5c1.9,18.8-3.8,49.7-26.2,50.8c-8.8,0-13.1-8.5-17.4-16c-7.8-13.6-5.5-27.7-3.6-41.8c0.5-4,4.8-1.6,7.3-3.2
				c11.4-6.8,13-19,18.7-29.8c5.2,12.2,7.9,25.7,19.7,33.2C480.5,1069.4,477.1,1072,478.4,1073.5L478.4,1073.5z M437.3,948.1
				c0.6-1,3.6-1.3,5.3-0.8c7.2,1,3,11.7,4.1,16.8c-1,30.2,17.2,85-23.8,94.2c-26.2-1-16.1-47.6-10.7-64.2
				C417.6,976.6,429,963.4,437.3,948.1z M352.5,1013.7c4.3-5.4,14.9-5.5,22.4-8.7c11.3-4.8,19.9-13.6,29.9-21.2
				c1.6,9.4-4.9,16.7-6.4,25.3c-1.9,11-2.1,22.6-7.2,33.2c-9.8,20.6-23.6,44.3-48.2,47.7c-15.2-0.9-22.1-12.1-17.7-26.8
				C330.8,1044.6,340.7,1028.4,352.5,1013.7z M334.4,1101.1c1.9-4.1,5.9-1.6,9-1.9c28.6-3.3,43.2-28.6,54.6-51.9
				c0.9,0.9,2.3,1.7,2.6,2.8c2.2,7.6,7.1,12.5,14.4,15.4c8,3.2,2.3,8.4,1,11.9c-6.6,17.1-12.5,34.2-17.7,51.8
				C372.5,1228.1,276.6,1194.6,334.4,1101.1L334.4,1101.1z M404,1151.2c1-21.4,8.4-41.5,15.8-61.9c4,18.9,6.8,38.4,28.5,43.4
				c12,2.8,23-1.6,29.8-14c4.1,23.3,6.2,45.7-5.3,66.8c-13.4,23.1-34.4,36.3-55.4,12.5C402.4,1185.7,402.5,1167,404,1151.2
				L404,1151.2z M477.1,1053.6c-14.6-25-19.4-52-20.2-81.1c-1.1-5.2,2.1-12.6-1.6-19.6c-1.1-2,1.5-1.6,2.5-2.1
				c13.1-6,18.1,2,23.1,12.3c6.8,14,15.6,27,22.1,41.1c7.8,17,12.3,35.2,5.3,53.5C503.9,1069.3,485.5,1066.8,477.1,1053.6
				L477.1,1053.6z M553.8,1089.3c-14.4-2.2-20-14.8-28.8-23.8c-10.6-11-1.6-23.9-4.7-35.8c-2.5-11.6-6.6-22.4-11-33.2
				c14.7,9.1,30.9,15.3,47.4,21C593.8,1031.6,598.7,1081.9,553.8,1089.3L553.8,1089.3z M555.1,947.4c13.8-1.1,25.7,1.7,37-2.4
				c15.3-4.3,10.8-13.3,33.8-8.2c14.7,3.3,27.8,8.3,35.8,22.1c7.6,13.2,4.3,32.3-6.3,35.9c-25.2,7.7-48.7-7.7-70.6-18.1
				C571.8,966,578.4,957.5,555.1,947.4L555.1,947.4z M691.1,817c17.3-0.7,37.5,12.9,35.4,27.7c-1.6,11.1-5,22.7-21.7,22.5
				c-35.1,0.1-67.1,17.3-95.7,36.5c-1.4,0.9-2.9,1.9-3.7,0.5c-13.7-23.5-35-24.8-59-24C590.8,850.7,636,818.5,691.1,817z
				 M598.4,779.7c19.8-7.8,49,0.7,55,21c-2.5,12.4-13.2,15.2-22,19.5c-21.8,10-42.4,23.1-63.1,34.5c-2.3-1.2,0.5-1.5,0.7-2.3
				c5.7-26.7-20.7-24.4-13.3-34.9C568.2,802.9,579.7,787.3,598.4,779.7z M507.1,782.5c9.8-15.2,23.9-22.9,42.1-23.5
				c30.1,1.1,3.6,49.1-8.6,58.2c-15.6,10-20.5,2-41.4,20.7C507.1,810.1,486.1,806.5,507.1,782.5z M478.5,730
				c4.7-1.8,10.2-2.5,14.6,0.3c21.9,15.7,5.1,48.7-3.5,67.7c-9.9-12-32.3-5.3-43.6,8.7C442,779.5,446.4,742.3,478.5,730z
				 M442.9,847.5c1.3-17.8,5-34.2,23.5-42.8c11-5.1,24.2,2.5,24.5,14.6c0.7,23.3-10.5,42-22.2,61c-4.6,7.5-11.6,2.5-16.1,6.5
				C446.4,874.8,443.4,861,442.9,847.5z M442.6,888c1.3,3.1-8.8,10.8-9.3,9.9c-23.3-11.2-46.1-23.2-57.5-48.5
				c-6.6-14.5,0.3-29.5,14.6-29.3C419.4,824.5,433.1,863.9,442.6,888L442.6,888z M434.8,831.8c0.3,1.5-1.4,3.4-1.7,5.2
				s-0.1,3.6-0.1,9.3c-8.4-16.9-26.1-37.6-43.5-35.4c-13.9,0-29.5-13.9-30.2-27.9c-0.7-13.3-2.8-27.7,13.5-34.8
				C405.2,740.2,430.1,806.7,434.8,831.8z M749,360.1c25.4,16.1,13.3,43-14.7,41.5c-13.7,0.1-27.3-0.1-41-2.5
				c-38.7-6.5-77.7-17.6-109.5-41.6c35.7,9.5,72.9,5.4,108.8-0.6C714.4,349.2,728.5,344.6,749,360.1z M722.8,293.5
				c31.3,3.6,28.7,33.5,2.1,43.2c-61.2,24.6-133.1,21.2-194.5-2.2c42.4-6.1,83.7-7.4,123.3-24.2
				C681.7,294.8,689.1,287.8,722.8,293.5L722.8,293.5z M693.5,240.7c8.1,7.8,6.5,22-2.2,33c-39.7,43.4-107.7,45.1-162.9,51.4
				c25-12.1,44-28.1,65-41.2c14.4-9.1,27.2-20.6,37.8-34C644.3,233.5,680.6,228.3,693.5,240.7z M597.3,199.3
				c32.4-30.2,51.9,4.2,36.8,31.8c-12.2,18.2-27.9,33.8-46.1,46c-25.2,15.8-45.1,36.5-74.1,46c21.9-20.5,38.2-43.2,51.2-68.3
				C575,235.8,580.3,214.3,597.3,199.3L597.3,199.3z M511.1,258.2c0.3-15.1,5.6-28.8,7.7-43.2c2-23.3,51.5-82.7,58.1-30.7
				c-5.7,49.6-34.5,101.4-71.2,134.4C502.7,299.1,511.4,278.8,511.1,258.2L511.1,258.2z M459.9,173.3c4.9-39.8,34.4-21.4,38.9,7.2
				c8.9,30,3.9,60,0.7,90.4c-1.1,17.3-1.1,32-1.1,49.8C471.6,274.8,453.5,226.5,459.9,173.3L459.9,173.3z M408.4,166.9
				c14.1,2.9,20,14.9,28.6,24.1c20.6,21.9,13.9,52.8,26,77.5c7.6,15.7,16,31,23.7,46.7c-42.3-25.7-85.4-72.8-95.6-121.1
				C391.1,173.1,397.7,164.8,408.4,166.9L408.4,166.9z M317.3,283c-23.1-1.6-137.9-50.6-72.2-70.1c21.7-2.6,41.6,3.6,62.1,9.3
				c11.1,3.1,14.9,12.4,22.2,18.6c21.6,19.8,45.1,32.4,70.4,48.4C371.3,290.3,344.2,289.6,317.3,283z M404.9,281.6
				c-33.7-16.3-64.7-37.2-86.1-68.6c-39.5-57,15.4-37.8,45.6-18.1c24.7,13.7,29.9,40.8,45,61.1c11.5,15.6,24.9,29.7,40,41.8
				C432,293.5,418,288.7,404.9,281.6L404.9,281.6z M364.5,541.3c-7.5-9.7-6.9-20-6.2-32c2.1-30.4,4.1-63.3-9.1-91.9
				c-1.1-1.7-1-4.9-3.7-4.1s-3.6,3.4-2.7,6.5c3.6,12.9,7,25.8,7.2,39.3c0.2,12.3,1.7,24.5-0.7,36.8c-0.5,6.6,2,14-1.3,20.8
				c-16.4-14-23.2-34.2-31.2-53.4c-14.2-32.2-36.6-65.3-68.6-82.1c-4.9-2.4-8.1,5.1-3.2,7c14.5,8.3,26.7,20,35.7,34.1
				c-19.4-3.2-36.5-18.3-56.9-14.6c19.7,18.5,65.1,16.1,76.6,41.7c4.1,8.8,8.3,17.6,12.4,26.4c0.4,0.8-0.2,1.9-0.3,2.9
				c-30.7-28-70.6-51.9-114-44.5c-4.4,1.2,0.5-3.8,0.9-5.3c10.4-63.4,65.4-100.1,103.3-31.6c11.2,19.2,37.6-21.5,80.6,8.6
				c16.3,12.4,25.8,28.2,30.9,46.7c2.3,8.2-3.8,16.8-7.1,24.9c-10.5,23.5-15,45.9-30.6,67.6c-0.2-7.5,22.4-144.2,2.5-110.9
				c0.6,16.6-1.6,32.9-3.9,49.3c-2.7,18.9-4.2,37.9-6.4,56.8c-0.1,1.3-1.4,2.5-2.2,3.7C365.8,543.2,365.2,542.2,364.5,541.3z
				 M315.7,655.7c73.7-105.5,139.9-214.1,123.4-348.1c-0.4-3.3,0.3-2.8,4-3.3c18.5-2.2,27.9,13.4,41.9,19.5
				c25.5,12.3,52,22.4,79.2,30.1c9,4.8,5.1,7.2-0.9,12.3c-14,11.7-26.9,24.8-40,37.5c-46.7,42.6-82.7,95.7-114.9,149.6
				c-17.5,30.9-36.6,60.2-54,91.1c-4.9,7.7-16,2.1-22.4,8.4c-3.1,3-7.3,5-11,7.2c-1.4,0.8-1.8,4.2-4.4,2
				C314.6,660.5,314.2,657.7,315.7,655.7z M224.3,876.6c-0.7,8.7-11.1,5-15.8,3.3c-31.8-11.6-14-43.9-33.4-44.2
				c-19.7-1.4-22.4-35.6-4.4-41.8c13.9-5.5,5.6-10.1-3.6-13.1c-22.9-7.2-67.9-17-65.6-47.7c4-15.5,10.1-29.8,29.6-31.1
				c8.4-0.6,8.9-6,4.2-11c-59-65.4,20.5-157.3,82.9-77.3c7.4,11.6,12.6,7.8,14.5-4.1c1.3-14.3,10.9-21.8,22.7-24.1
				c47.5-13.5,52,35.1,51.5,66.5c1.1,7.2-3.6,34.4,6,35.1c2.4,0.1,1.8-1.7,2.1-3.1c4.6-25.7,41.3-39,57.3-16.3
				c9.9,12.3-1.2,28,1.3,40.5c2.5,3.5,9.9-1.4,14-1.3c4.5,0.3,7.9,4.3,11.1,7.3c9.5,8.3,2.9,20.8-0.5,30.7
				c-34.5-24.5-59.5,16.7-45.4,47.9c0.2,3.1-2.4,1.7-4.1,1c-10.2-5.3-19.2-13-32.7-7.9c-19.5,6.5-20.2,24-22.1,40.3
				c-6.6-15.2-12.8-12-3.3-29.2c15.9-31.5,31.8-62.9,44.9-95.7c2.6-5.5-3.4-8.7-4.8-2.6l-29.1,59.1c-3.4-9.8,5.5-47.8-0.5-49.1
				c-15.6,26.2,1.6,63-20.1,89.3c-0.7,0.9-0.3,2.6-0.7,6.2c-9.1-15.9-18.7-29.5-24.7-44.6c-2.7-6.8,2.2-16.5,3.1-25
				c4.3-30.7,4.6-61.5,4.2-92.3c0.1-8.6,1.5-17.5-5.7-25.2c-1,22.6-2,44.5-3,66.5l-2.2,0.5c-3-9.9-6.1-19.7-9.1-29.7
				c-1.8-5-1.1-16.5-8.8-15.3c-3.1,1.4-1.2,4.5-0.5,6.9c4.4,15.8,6,33.2,13.8,47.1c10.6,18.8-1.6,35.8,0.1,53.8
				c-24.7-39.2-42.1-86.5-79.2-115.7c-1.7,6.1,15.2,23.2,18.7,30.5c6.8,10.3,13.4,20.7,19.6,31.3c2.1,3.6,7.9,5.6,5.7,11.5
				c-13-10-26.1-19.9-38.9-30.1c-1.8-1.4-3.3-2.3-5.2-1.3c-2.9,1.6-0.3,3,0.5,4.3c7.8,13.6,21.1,21.4,33.5,28.9
				c17.7,11.5,31.3,28,38.3,46.7c-2.5-0.2-5.4,0.3-7.6-0.7c-28.6-12.8-59.9-16-89.4-25.7c-2-0.7-4-1.6-4.7,1.3
				c-1.8,8.3,54.3,19.5,63,21.1c1,0.2,1.9,1.5,2.8,2.3c-4.8,4.4-39.5,9.5-35.2,16.1c3.8,6,38.4-9.8,45.8-11.9
				c6.6-2.4,13.4,4.4,20.4,5.8c21.6,4.4,21.8,26.4,32.8,39.5c1.4,1.7,7,5.9,3.3,7.2c-5.8,2-12.3,3.9-19.4-0.1
				c-14.4-7-29.8-21-46.7-17.9c5.3,8.5,27.1,14.2,37.6,20.4c-13.3,0-25.9,0-38.5,0c-6.9,0.7-14.9-2.3-20.8,2.3
				c11.6,10.3,74.5,5.7,92.9,5c6.1-0.5,7.2,8.7,10.9,13.2c1.4,1.9,2.6,3.9,3.8,5.9C255.8,827.4,225.1,834.6,224.3,876.6z
				 M185.2,953.9c-12.2-29.6,28.6-43.2,50.3-50.4c5.3-1.8,7.4,4.6,11.2,6.8c8.6,5,16.8,9.9,27,10.8c7.4,1.4-13.9,18.4-13,35
				c-0.8,8.2-9.7,6.3-14.9,8.4C226.4,971.4,197.4,972.2,185.2,953.9z M202.2,1068.7c-42.8-3.7-41-43-11.5-66
				c21.3-18.4,48.4-27.8,74.2-36.2c-3.3,5.4,9.3,6.7,3.6,11.7c-13,11.4-23.2,24.7-24.9,41.8c-0.7,7-0.4,16.3,6.3,22.5
				c3.3,3,3.8,5.5-0.5,8.7C235.2,1061.4,220.1,1070.2,202.2,1068.7L202.2,1068.7z M267.3,1155.7c-24.2,13.3-47.3,3.3-46.4-19.7
				c0.5-25.8,14.8-43.5,27.4-62.3c22.6-33,57.4-15.6,79.5-56.7c2.8-4.4,2.4-12.5,11.5-8.1c1.4,0.7,4-0.1,4.2,2.2
				c-13.4,20.8-45,61.9-17.9,84.3C313.9,1120.4,292.1,1142.1,267.3,1155.7L267.3,1155.7z M178.9,1353c-4.1,3-9-5.1-11.2-8.8
				c-11.6-19.4-22.5-39.5-18.6-63.5c8.6-64,64-84.3,121.9-83.5c-11.4,15.3-23.5,29.5-24.1,49.4c-0.1,3.4-1.1,1.8-2.8,0.8
				c-13.4-7.4-26.7-14.9-40.3-21.9c-2.5-1.3-7.3-2.8-9,1.4c-1.9,4.8,3.6,4.3,5.9,5.9c12.7,8.9,28.5,12.5,40.5,22.8
				c-7.8,2.7-79.3,27.4-72.8,33.8c3.9,4.6,8.5-0.1,12.1-1.2c9.8-2.3,18.5-8.8,28.2-10.9c-2.5,13-10.9,25.1-15.8,37.6
				c-1,2.2-2.9,4.9,0.3,5.4c6.7,3.3,23-39.6,24.8-46.3c1.1-4.2,10.6-6.3,16.4-9.2c18-8.9,14.3,8.6,18.1,16c0.6,1.2-6.2,6.8-10,9.6
				C218.2,1308.3,203,1335.5,178.9,1353z M199.3,1347.9c9.1-15.6,25.3-28.2,36.5-42.8c8.5,4.2-6.6,10.8,1.8,34.4
				c2.1,7.3-6.8,12.2-12.2,15.8c-2.5,2.4-2.7,9.4-7.1,7.1C211.3,1358.9,205.4,1353.1,199.3,1347.9L199.3,1347.9z M221.6,1505.2
				c-4.7,3.7-9.3,7.5-15.2,12.3c3.2-28.6-9.7-53.5-14.4-80.7c-10.3-35.7,27.6-56.9,46-81.9c9.4-10.8,13.3,2.6,18.2,5.1
				c22.2,11.5,46.4,9.3,68.2,1.1c-12.6,19.5-18.8,41.5-27.2,62.4c-1.4,3.5-1.8,7.4-1.4,11.2c2.5,19.5-14.3,24.1-25.3,33
				C254.5,1480.4,238,1492.7,221.6,1505.2L221.6,1505.2z M307.7,1489l-22.3,15.9c-1.4-4.9-2.4-17.6-9.4-15.7
				c-5,2.4-1.5,7.5-0.7,10.6c2.1,8.5-4.3,23.7-12.6,26.6c-2.9,1-1.4-1.8-1.6-2.8c-0.3-1.4,0.4-3.3-0.3-4.4
				c-3.4-5.9-5.1-12.4-8.9-18.4c-6.8-10.7,6.6-11.3,10.9-15.5c10.1-9.7,22.2-17.5,33.4-26c6,10.7-1.6,13,12.5,28
				C310.7,1489.4,308.3,1488.6,307.7,1489L307.7,1489z M590.3,1213.2c21.1,15.8,61.3,47.6,37.7,75.7c-4.3,4.8-3.5,9.3-0.4,13.7
				c10.5,14.4,6.6,29.2-0.1,43c-14,26.8-44.9,27.1-64.4,5.9c-4.2-2.8-7.9-8.3-12.7-9.6c-0.6,1.2-1.7,2.7-1.4,3.9
				c2.6,12.9,5.5,25.8,8.1,38.7c6.7,27-0.9,94-41.8,71.3c-14.9-7-20.3-3.5-20.3,13.1c0,24.2-23.1,56.5-46.2,61.8
				c-31.6,9.3-66.8-8.3-77.9-39.9c-1.6-4.6-7.4-5.6-9.2-3c-7.9,11.1-17.1,6.7-26.1,3.2c-10.9-4.3-23.2-7.5-26.9-20.8
				c-12.9-40.4,12.8-81.3,29.7-117c1.6-2.7-0.4-3.6-1.3-5.1c-1.3-2.1-2.5-0.3-3.6,0.5c-31.2,25-112.2,7.9-83.5-43.4
				c8.5-16.7,21.6-15.1,8.9-34.3c-12.6-36.8,16.5-73.9,49.6-86.8c6.6-2.8,8.7,4,12.1,6.5c29.6,20.2,65.8-2.5,75-34.7
				c-3,27.8,8.2,50.4,31.1,61.1c13.9,3.8,12,15.5,12.9,24.7c-11,14.6-88.8,5.1-109.5,6.6c-14.6,0.4-29.1,1.6-43.7,0.1
				c-0.6-0.1-1.5,1.9-2.2,2.9c12.7,8.8,29.8,3.3,44.1,5c20.5,1,41.1-0.4,62.7,1.5c-34.1,12.1-64.4,25.1-92.2,47.9
				c-0.8,0.6,0,3.5,0,5.3c1.9-0.1,4.3,0.5,5.7-0.4c13.9-9.6,27.6-19.6,43.3-26c22.4-8.7,45.1-17,67.7-24.9c-0.3,1.8,0.1,4.1-0.9,5.4
				c-13.8,18.9-25.9,39.1-43.3,55.1c-2.3,2.1-13.5,15.1-3.5,12.1c18.9-14.2,33.4-34,47-53.3c8-11.3,8.8-25.4,25.4-26.6
				c4.5,26,9.6,37.5-7.8,60.3c-25.9,44-49,89.7-82.2,128.9c-1.3,1.7-5,5-1.8,7.3c4.5,6.6,32-36.4,37.4-41.3c5.6-5,6.2-13.4,13-17.2
				c-3.3,18.8-6,37.9-13.4,55.7c-3,7.5,6.7,5.7,7.6,0.3c17.2-34.3,10.5-75.9,35.1-107.1c4.9-7.1,8.9-14.9,13-22.6
				c0.8-1.5,0.8-4.3,2.8-3.6c1.6,44.3-5.2,91.3-8.8,136.3c-1,10-3.9,19.8-5.7,29.7c-0.5,4.9,4.6,5.6,6,1.1
				c11-31.5,11.4-60.8,14.7-95c7.6,21.8,14.6,41.2,21,61c1,3.2,3,4.4,4.8,3.9c9.3-3.5-15.8-66.7-21.2-74.8c-3.9-6.8-1.5-13.3-1.4-20
				c0.3-15.8,0.1-31.7,0.1-49.1c26.4,31.7,46.4,64.2,67,99.1c0.8,1.4,2,4.4,4.9,2.1c4.4-3.6,0.2-7.3-1-9.6
				c-6.3-11.9-13.5-23.4-20.4-35c-13-22-25.3-44.8-44.7-62c-9-10.6-4.4-24.3-7.8-36.7c-2.6-8.8,2.8-9.1,8.8-6.6
				c16.7,7.1,33.4,14.3,49.6,22.3c2.3,1.1,2.8,7,3.2,10.7c2,19.8,8.1,38.3,16.2,56.3c3,8.1,11.7,5.3,6.3-3
				c-5.2-14.6-12-28.7-12.4-44.7c-0.6-4.5-2.7-9-3.3-13.6c13.5,0.5,68.6,40.7,72.8,30.7c1.8-3-3-4.4-5.3-5.9
				c-26.3-18.2-56.6-28-84.3-43.3c31.1-3.1,61.4,1.4,92.3,4.2c2.7,0.4,5.6-0.3,5.6-3.3c4.5-8.9-74.4-8.3-84.3-10.6
				c-38.1,3.4-30.3,2.1-64.7-10.7c-3.4-0.8-6.4-27-3.7-27.2c24.5-6.3,35.2-32.2,41.8-54.8c4.3,16.5,12.5,30,21,43.6
				c14.6,23.4,54.8,27.7,71.6,6.3C585.7,1210.2,587.8,1211.5,590.3,1213.2L590.3,1213.2z M650.1,1179.2c-3.6,2.2-8,3-11.9,4.3
				c-40-10.6-59.1-49.7-74.7-83.9c-3.1-6.8,23-1.4,29.7-30.1c0.5-1.9,0.7-3.3,3.8-1.6C634.8,1086.1,690.1,1140,650.1,1179.2
				L650.1,1179.2z M716.2,1042.7c12.7,23,4.7,62.7-28.7,58.2c-50.5,0.4-79.4-53.4-106.8-88.4c-6.5-9.5,3.5-15.2,3.8-23.1
				c0-1.3,9.4,2.5,14.1,4.5c13,5.8,25.9,10.8,40.6,11.9c8.9,0.6,15.9-4.3,23.6-3.7C675.7,1004,710.7,1029.7,716.2,1042.7
				L716.2,1042.7z M728.3,1016.4c-16.1-2.3-29.7-10.3-43.6-17.6c-6.3-3.3-14.2-5.2-10.3-16.8c9.7-29.2-25.6-26.8,15.8-31
				C771.6,947.7,789.2,1029.4,728.3,1016.4L728.3,1016.4z"/>
		</g>
	</g>
</g>
<g>
	<g id="Layer_1_2_">
		<g transform="matrix( 1, 0, 0, 1, 0,0) ">
			<g>
				<g id="Layer0_0_FILL_1_">
					<path d="M52,1548v15l-37,37h946l-37-37v-15H52 M52,52V37.7L14.3,0H0v1600h15l37-37v-15V52 M924,52V37.7L961.7,0H14.3L52,37.7
						V52H924 M976,0h-14.3L924,37.7V52v1496v15l37,37h15V0z"/>
				</g>
			</g>
			<g>
				<path id="Layer0_0_1_STROKES_1_" class="st5" d="M961,1600h15V0h-14.3L924,37.7V52v1496v15L961,1600H15H0V0h14.3h947.4 M52,52
					V37.7L14.3,0 M15,1600l37-37v-15V52h872 M924,1548H52"/>
			</g>
		</g>
	</g>
</g>
</svg>
