<svg xmlns="http://www.w3.org/2000/svg" xmlns:xlink="http://www.w3.org/1999/xlink" viewBox="0 0 976 1600">
<style type="text/css">
	.st0{fill:#FFFFFF;}
	.st1{clip-path:url(#SVGID_2_);}
	.st2{fill:#333333;}
	.st3{fill:#FFEB5C;}
	.st4{fill:#D81E1E;}
	.st5{fill:none;stroke:#333333;stroke-width:2;stroke-linecap:square;stroke-miterlimit:3;}
</style>
<g id="Paper_Backing">
	<path class="st0" d="M960,22v1556c0,3.3-2.7,6-6,6H22c-3.3,0-6-2.7-6-6V22c0-3.3,2.7-6,6-6h932C957.3,16,960,18.7,960,22z"/>
</g>
<g id="Wikipedia_Cropped">
	<g>
		<defs>
			<path id="SVGID_1_" d="M960,22v1556c0,3.3-2.7,6-6,6H22c-3.3,0-6-2.7-6-6V22c0-3.3,2.7-6,6-6h932C957.3,16,960,18.7,960,22z"/>
		</defs>
		<clipPath id="SVGID_2_">
			<use xlink:href="#SVGID_1_"  style="overflow:visible;"/>
		</clipPath>
		<g class="st1">
			<path class="st2" d="M763.8,1420.8c-23.2,3.7-37.8-22.1-56.7-21.8c-39.3,34.8-81.7-21.2-93.4-55.3c-7.6-11.2-6.7-31.7-18.8-37.7
				c-34.8,24.6-50.1,11.6-72.4-16.1c-24.5,26.8-81.5,42.1-107,5.8c-33-59.5,31.5-110.9,72.9-138.5c8.4-29.2,29.9-52.8,44.8-76.3
				c12.6,19.2-8.8,74.8,28.2,77.2c26.6,1,18-34.8,30.3-41.8c14.7,9.1,15.4,30.6,26.9,42.9c6.9,6.8,19.6-1.2,28.4-0.8
				c9.2-5.3,6.3-25,5.4-36.2c2.9-13.5,24.1,14.5,34.5,13.6c34.6,6.4,27.2-37.2,11.1-57.1c-9.5-21.8,42.8,18,52.5,10.8
				c11.1,0.2,22.1,7.4,29.4,19.2c30.4,39.3-36.5,67-1.3,80.7c46.3,26.3,39.1,61,25.4,98.4C846.4,1331.4,832.2,1418.8,763.8,1420.8z
				 M172.9,1242.3c-25,1.1-43-26.6-47.9-47.8c-43,8.3-84.9-41-58.5-79.2c2.8-9.3,24.2-10.9,26.9-21.6c-9.3-21-4.5-52.7,14.8-67.5
				c18.1-17.5,43.7-4.8,63.3-6.5c3.2-12-0.3-28.6,6.7-38.6c5.9-25.1,38.1-23.8,58.1-14.5c10-14.6,25.4-26,45.8-18.7
				c28.4,2.2,20.6,38.3,53.8,41.5c18.3,4.8-8,21.9,1.6,32.5c8.7,13.5,33.4,8.9,43.6,21.6c2.1,9.3-7.9,22.9-3,27.4
				c2.7,9.9,36.9,10.7,28.3,26.2c-3.5,31-31.2,61.2-65.4,61.6c-8.3,16.6-10.5,31.7-35.7,31.8c-23.2,4.8-42.1-6.8-59.2-19.4
				C229.7,1194.6,214.2,1242.4,172.9,1242.3L172.9,1242.3z M957.5,967.3c-24.9-4.3-40.5-14.9-67.5-6.2
				c-40.3-2.6-77.4-22.9-111.8-42.3c-31.7-15,31.1-25.9,32.8-46.8c-0.5-7.4,7.3-9.1,7.7-15.2c-4.8-18.1-54.7-3-31.6-29.3
				c14.5-51.5,61.9-119.3,122.4-84c14.9-16.5,41.1-25.9,63.8-25c15.3-12.4,2.9,130.6,6.7,128.9C973.7,863.2,998.2,978.8,957.5,967.3
				L957.5,967.3z M279.1,885.4c-19.8,2.8-40.9-9.5-58-20.7c-54.2,24.9-100.6-16.6-53.6-64.2c-8.3-9.5-26.5,0.2-37.9-1.4
				c-18.1,0.5-47.7-20-50.6-38.2c-3.2-54.7,5.8-14.8-19.5-54.7c-16.1-57,25.3-68.9,69.8-60.6c11.3-12.1,23-18.1,36.3-16.1
				c40.1-0.9,51.4,43,60.3,27.7c5.1-13.6,20.8-25.9,35.8-26.1c27.6-1,23,34.7,29.8,52.5c21.9-3.7,35-6.3,40.9,21.6
				c14.1,35.1,0.4,70.4-2.6,104.8c-6.5,6.3-14.2-4.7-20.4-7.2c-21.7,0-17.5,32.6-11.8,49C313.6,885.8,323.9,885.7,279.1,885.4z
				 M607.3,714c-57.6-52.2-86.4-135.1-115.4-202.6c-4.6-1.5-9.5,4.2-13.6-0.6c-27.1-35.5-77.8-1-109.6-26
				c-47.1,26.2-182-28.4-182.4-77.2c31.9-13.2,75-17.9,110.8-21.6c27.8,0,47.4,12.8,73.3,2.4c38,2.5,39.1,46.6,77,51.4
				c22.5,19.7,44,38.4,27.7-7.9c-12.5-46.1-26.4-94-67.2-123.8l0,0c-4-2.4-3.4-6.5,1-9.2c32.9-37.4,33.9,13.7,70.2,13.5
				c26.5,1.9,53.3-58.6,71.6-17.9C515,350.5,502.1,438.5,533.9,501c20.4-19.1,22.9-53.7,52.6-76.4c8.8-10.5,28.1-18.1,43.2-10.1
				c10.2-4.1,22.3-14.6,35.1-12.5c27.6-4.2,32.4,32,55.4,20.5c48.7-5.5,100.1,7.5,134,44.8c44.7,40.4,13.8,31.3-22.9,47.6
				c-70.8,21-62,69.6-133.2,29.9c-46.4,24-74.5-32.3-117.9-35.9c-15.1-9.8-27.2,6.3-32,19.1c-3.6,3.8-10.7,5.6-6.6,12.7
				c17,55.4,52,103.8,83.9,151.5C634.9,699.1,613.6,712.1,607.3,714z"/>
			<path class="st3" d="M634.3,1158.7c-25.2-3.4-25.6-39.7-44.5-48c-7.7,2.2-3.8,12.9-4.8,18.4c-0.6,32.8-43.5,37.3-45.7,3.7
				c-5.1-41.1,1.6-85.9,9.2-127.1c11-29.8-6.1-7.2-3.4-37.3c-0.2-12.6,1.1-25.3,4.5-35.1c-0.6-7.2-6.4-14.2-5.6-22.3
				c-5.1-21.9-3.1-50.2-20.4-64c-20.5-23.6-42.7,15.3-44.5,34.2c-6,39.9,24.1,77.3,52.8,106.7c0,5.4,12.9,6.9,6.5,12
				c-25,23.6-51.8,46.6-78.8,66.3c-20.2,23.3-106.9,27.9-75.9-20.7c8.1-15.8-37.5-7.6-44.7-23.8c-8-7.6-1.7-15,1.2-21.7
				c-1-6.8,11.5-8.4,18-5.5c25.3,6.7,56.1,1,81.8-4.1c57.9-8.4,51.5-9.6,7.6-41.2c-22.4,29.1-111.5,7.3-139.3-17.2
				c-18.5-15.9-19.1-45.6,8.6-43c6.8,0,8.8,2.2,9.4,2.9c14.7,14.3,44.6,38.9,68.4,32.6c1.4-2.3,1.2-5.3-0.6-7.3
				c-10.4-10.6-15.5-24.9-17.9-39.2c-25.3-21.8-57.1-59.6-39.8-100.2c3-19,24.7-39.5,37.5-16c5.2,4.7,5,17.4,13.4,17.9
				c15.3-21.6,18.7-51.2,46.1-59.1c32.9-8.6,27.5,36.3,33.2,56c1.4,5.6,7,4.3,11.2,4c20.5-2.5,22.9,24.2,35.2,32.1
				c10.4-4.4,8.1-21.9,15.8-30.6c3.8-11.5,17.5-11.6,17.9-21.6c-10.6-48.8,24.4-93.9,61.7-41.1c14.5-18,51.8-39.9,69.1-9.4
				c13.2,13-11.8,48.3,10.9,40.3c52.1-50.3,63.5,6.4,43.3,52.5c-5.2,13.1-9.3,32.8-19.2,41.5c-8.8,3.2-3.5,13.9-10,21.9
				c-47.2,79.1,78.3-45.6,103.9-19c41,47.8-116.2,92.2-149.9,82c-6.1-8.7-13.6,8.5-18.8-2.2c-5.2-5.4-2-18.2-12.1-16.6
				c-10.8-5.3-26,2.8-30,14.2c2.2,26.2-24.8,36.5-30.9,57.5c3.2,6.3,9.2,2,14,0.9c15,11.5,15.3,41,27.7,56.9
				c10.1,35.6,49.3,55.9,47.2,95.4C653.3,1146.2,649.1,1158.7,634.3,1158.7z M391.6,786c-7.8,0.3-5,8-5.7,12.9
				c-13.5,23.5-5.5,52.5,8,72.3c14.4,5.3,26.7,15.5,38.7,23.3c6.4-1,9.7-9.2,17.2-7.4c15.4-5.8-12.2-39.7-3-57.6
				c1.9-6.5-3.4-8.1-7.8-10.5C428.6,802.1,411.7,790.8,391.6,786z M615.3,823.8c14.3-2,14.7,18.7,25.4,20.7
				c15.8-17.4,7.7-69.9-14.2-77.2c-17,1.4-18.8,2.2-25.4,17.8c-6.3,6.7-3,18.7-11.4,22.9c-10.3,2.7,0,17.7-7.3,22.3
				c-5.7,3.2-2.1,13.1,4,13C596,839.4,602.2,822.4,615.3,823.8L615.3,823.8z M743.3,1088.6c-58.1-15.2-101-67.7-130.9-116
				c-5-8.3,6.3-12.3,10.4-17.2c4.8-3.3,6.7-11.7,12.9-10.7c41.4,16,90,35.4,136.4,31.3c7.2-1.5,13.7,2,18.7,5.6
				c27.8,13.8,38.4,53-1.2,55.5c-12.3,3.6-27.9-7.6-39.5-1.8C747.2,1048.3,781.2,1080.7,743.3,1088.6L743.3,1088.6z M477.9,312.7
				c-24.2-0.5-43.3-40.6-57.6-26c-13.6-1.6-21.3-2.7-33.7-4.2c-23.3-3-44.2-12.7-64.7-21.9c-26-7.5-67.5-62.3-21.8-66.1
				c63.3,3,80.9,65.2,114.8,72.1c5.6-8.4-6.1-21.6,2.2-30.9c2.7-4,9-7.8,4.4-12.9c-38-71.5,44.6-70.4,32.9,3.3
				c-0.7,4.9,1.3,10.9,1.9,16.2c-0.2,3.8-4.8,7-1.3,10.9C462.7,265.8,489.3,304.4,477.9,312.7z M499.6,303
				c-9.5-15.1,14.4-64.3,24.2-82.4c22.5-34.6,41.4-6.4,50.6-18.2c2.5-49.6,113.1-91.2,72.8-16.6c-22.7,22.7-47.5,44-72,59.7
				c-4.8,1.3-10-6.9-14.1,0C547.9,266.5,522.5,289.2,499.6,303L499.6,303z M693.5,300.7c-3.3,2.7-117.2-19.3-94.7-28.3
				c45.4-1.6,87.3-34.7,127.9-10.1C753.1,287.9,719.4,304.1,693.5,300.7L693.5,300.7z"/>
			<path class="st2" d="M760.9,1604c-11.5-4.3,19-43.4,18.8-55.9c11.2-24.9,19.9-56.2,19-83.8c-0.4-15.3-11.7-27.2-14.4-41.9
				c8.4-9.3,24.5-11.5,33.1-27.6c1.8-3.8,4-8.2,7.2-7.7c13.7,0,11,51.7,26.9,30.6c14.3-86.8,15.3-176.1,13.3-263.7
				c-1.2-29.8-7.3-67.8-23.2-96.4c-15.3-13.6-24.7-30.6-26.7-49.9c-4.1-13.7-16.2-21-30.3-28.4c-8.7-12.3,27.3-8.1,20.6-34.7
				c-0.1-20.2,41.4,12.9,55,11.3c9.9,2.6,12.7,2.9,11.5,13.5c33.2,95.5,40.6,196.4,39.3,297.4c-3.3,35.8,7.7,69.9,7.6,105.6
				c-12.1,45.7-39.8,90.2-58.6,135c-2.8,11.8-14,19.8-13.3,32.3c-6.5,20.7-17.9,40.8-20.5,62.3
				C826.9,1606.6,762.6,1602.8,760.9,1604z"/>
			<path class="st4" d="M466.3,1139.4c-42.8-7.7-8.9-60.9,7.7-79.3c4.5-14.2,79.1-59.6,63.1-69.6c-97.9-68.4-42.3-201-5-126.4
				c12.9,35.7,13.9,84.4,10.8,123.4c-6,7.6,5.8,8.7,5.8,14.7C541.8,1056.2,526.3,1125.8,466.3,1139.4z M692.7,1136.3
				c-57.4-15.2-81.2-86-103-133.3c-4.2-21.3-3.2-25.1-24.6-15.7c-11.9-7.9,16.4-23.3,20.2-32.8c12.9-11.6,5.5-40.6,25.4-44.8
				c17.6-3.9,22.3,9.2,27.4,21.2c20.7,2.6,42.7-1.2,63.4-3.1c35.6-11,88.4-28.2,103.3,20c-19.6,62-128.3,8.1-170.5-3
				c-7.8,5.8-26.2,16.9-22.8,27c18.9,33.3,36.4,56.7,61.7,77.8C696.2,1064,735.6,1126.5,692.7,1136.3z M392.2,995.8
				c-28.2-2.2-96.6-1.5-86.6-48.3c17.2-14.3,64.1,19.3,95.4,13.9c27.8-1.4,54.4-5.5,79.4,10.7C491.9,986.5,404.3,995.7,392.2,995.8z
				 M393.4,929c-116.1-22.2-120.6-183-58.7-100C344.9,844,403.6,919.4,393.4,929z M694.7,894.7c-16.7-3.9,17.3-39.5,18.7-51
				C764.9,729.8,870.6,815.2,694.7,894.7L694.7,894.7z M430.6,890.8c-11.2-3.1-18.1-16.3-30.3-18.8c-52-40.3-4.1-128.9,43.1-45.9
				c3.9,7.6,2.2,17,3,25.2c-2.4,9.7,17.3,28.5,6.5,34.5C443.9,877.9,438.8,890.2,430.6,890.8z M639.8,846.2
				c-9.5-8.7-11.8-25.2-24.9-22.9c-11.7-2.8-14.3,14.6-23.7,17.8c-12.6-26.4,30.2-110.5,52.2-53.3
				C646.8,805.5,653.8,833,639.8,846.2z M513.5,811.4c-4-0.6-6-5-7.9-8.4c-6.9-32.2-40-16.6-36.2-38.2c12.9-73.7,78.3-69,71.7,2.9
				c-11.2,8.6-18,20.5-22.4,38.6C517.8,809,516.3,811.2,513.5,811.4z M644.7,336.4c-27-2.8-105.8-35.2-98.8-64.7
				c37.7-34.1,133.1-112.9,178.6-66.5c11.9,41-83.5,57.5-112.3,64c-45.6,11.6,34.1,17.7,39.8,33.7
				C664.1,314.4,661.5,335.6,644.7,336.4L644.7,336.4z M324.7,333.7c-60.3-7.6-18.8-58.6,20.8-59c21.8-1.2,43.5,9.9,66.3,10.6
				C439.5,295.5,335.4,337.6,324.7,333.7L324.7,333.7z M487.7,310.9c-14.7-16.6-19-41.7-26.7-55.9c-10.5-19.9-11-91,25.7-74.3
				c5.4,5.2,11.6-1.1,10.6-7.2c-6.7-38.5,54.5-77.8,48.9-18.1c-12.3,38.3-23.8,68.2-45.4,94.4C495.6,269.1,501.2,295.8,487.7,310.9
				L487.7,310.9z M415,273.9c-105.2-72.1-20.9-155.4,5.9-44.1C399.3,242.4,428,268.7,415,273.9z"/>
			<path d="M980.4,958.6c-1.4-1.9-3.6-1.9-5.5-0.5c-26.7,17-42.9-12.2-67.3-4c-43.8,10.6-87.7-17.9-125.4-37.8
				c-26.8-12.3,10.8-6.8,32-40.6c1.5-2.4-0.2-13.9,8.6-8.7c15.2,9.1,29.6,19.5,44.5,29c2.1,1.3,5.6,0.3,8.4,0.4
				c-0.5-8.9-41.2-30.1-51.1-38.5c10-1.7,19.3-3.8,28.6-4.8c8.7-0.9,17.5-6.9,26.2-0.1c16.6,17.5,25.2,8.7,18.1,35.4
				c-1.5,12.3-9.3,23.9-14.4,35.8c-1.1,4.1-4.5,8.4,1.2,10c3,2,3.4-1.3,4-2.7c7.8-17.7,16.9-34.9,19.5-55.1
				c13.2,15.1,26.2,29.7,35.7,47.1c1.6,2.9,3.9,10.3,8.5,7.5s-0.4-7.6-2.3-11.3c-15.6-27.7-35.7-51.7-61.4-70.2
				c1.7-0.9,3.6-2.7,5.1-2.5c6.7,1,13.9-3.7,20,3.9c9.1,11.3,23.6,14.8,36,21.3c4.7,2.4,12.4,9.1,17,1.7c2.6-4.4-6.2-5.6-9.1-6.8
				c-14-5.6-26.5-13.3-39.7-22c17-1.2,32.9,0,48.8,1.5c3.5,0,10.4,2.8,12-1.3c0.3-2.6-0.7-3.7-2.2-4.1c-37.1-7.9-72.4-4.3-110.1-0.1
				c12.7-8.4,23.7-15.9,34.9-23c6.4-4.1,11.3-13.7,18.7-12.3c8.1,0.9,43.5,8.1,45-2c0-5.6-32.9-3.1-39.2-4.7
				c7.4-10.7,14.2-20.5,21-30.3c1.7-2.5,0.5-4.5-1.6-5.9c-1.5-1-2.7-0.4-3.9,1.4c-15.9,20.5-33.8,42.9-57.3,54
				c4.6-7.9,6.2-53.6-6.8-51.6c-3.1,0.5-1.9,2.9-1.7,4.3c2.5,17.9,9.8,42.6-4.6,56.1c-13,11.9-29,21-48.1,21.6
				c-9.1,0.3-15.2-8.4-24.5-7.7c-25,2-6.7-10.6-4.4-15.5c3.6-7.8,3.3-16.7,6.7-24c17.3-38.4,59.7-82.6,103.5-56.1
				c3.7,2.2,10.4,11.3,14.3-2.3c3.3-11.6,37.8-23.6,49.2-19.3c2.7,1.1,7.4-0.2,9.5-3.3c0.8-0.9,0.7-2.4-0.2-3.2
				c-0.4-0.3-0.9-0.5-1.4-0.6c-22.7-4.1-43.2-0.8-59.4,17.2c-2.8,3.1-4.5,6.2-9.7,1.7c-10.7-9.2-24.6-11.5-37.4-8.5
				c-29.8,7.1-50.3,27.5-66.4,52.4c-4.7,7.2-3.4,16-17.8,8c-16.6-9.3-32.6,3-47.4,13.1c4.2-13.9,5.4-28.3,9.9-42
				c4-12.6-8.5-31.5-21.7-32.1c-20.7-1.8-30.8,12-43.4,25c-0.2-0.5-0.8-1.2-0.6-1.6c3.4-7.7,4.5-15.5,4.6-24.1
				c0.3-22.5-16.5-40.1-39-36.6c-10.8,1.7-16.6,3.1-23.2-8.4C606,644.4,516.2,548,566,515c46.2-10.1,72.1,50.3,118,40.5
				c6.4-1.6,12.3-9.8,18.2-5.7c43.5,35.4,60,7.2,98.1-15.1c18-9.2,36.9-15.8,55.6-22.9c9.7-3.7,19.5-9.5,30.8-6.7
				c6.4,1.6,10.2-1.9,12.2-7.2c1.9-5.2-3.1-6.6-6.2-8.5c-31.3-19.7-52.3-52.2-89.6-62.9c-26.5-9-54.5-12.3-82.3-9.8
				c-26.6,8.8-18.4-30.3-70-18c-11,2.7-19.7,14.4-33,8.4c-37.5-6.9-70.1,62.4-82.8,91.6c-17.2-65.7-19.3-136.2,18.2-195.1
				c2-3.2,3.1-3.6,6.6-1c20.5,14.8,41.7,29.8,66.6,36.1c8.4,2.8,18.5,5.8,26.6,1.1c30.4-15.2-5-41.5,10-38.6
				c14.5,3.5,29,6.7,43.9,3.9c28.8-1.8,45.7-19.5,25-44c-9.3-10.9-23.1-9-36.1-10.6c7.5-5.6,17-6.8,23.3-13.4
				c7.3-7.6,16.9-16,13.3-26.7c-7.2-21.5-34.4-30-56.4-22.3c-10,3.6-20.3,6.6-30.7,9c53.8-65.6-37.5-80.9-70.4-7.8
				c-2.3,3.9-2.2,13-6.3,11.1c-13.9-6.4-25.3-3.1-36.8,5.6c3-6.7,6.5-12.6,8.4-18.9c4-14.1,12.3-26.9,11.2-42.5
				c-1.2-16.7-13.3-28.7-27.1-25.4c-11.2,2.7-28.7,25.5-29.3,37.4c-0.4,8.4,1.4,17.1-2.4,25.1c-18.5-21-28.3-5.3-38.4,9.6
				c-1.6-14.3-13.7-27.3-25.6-28.1c-15.4-1.1-16.9,12.3-22.3,21.5c-20.8-27.1-55.4-9.3-47.4,23.4c0.4,1.4-0.2,3.2-0.4,4.8
				c-100.2-69.3-115.2,30.8-19.6,59.7c-53.1,0.9-79.3,66.5-9.7,65.1c21-1.6,38.5-11.6,57.1-19.8c5.9-2.6,10-16.6,21.6-5.2
				c40,38.1,53.8,91.6,66.7,143.3c-8.6-8.3-17-16.3-27.7-21.1c-7.8-3.5-17.9-4.8-23-10.6c-9.1-10.3-15.6-22.6-26.6-31.9
				c-8.6-7.2-33.5-12.3-42.5-5.6c-4.4,3.3-8.6,2.6-13.3,1.1c-30.5-9.8-61.9-6.9-92.6,0.5c-21.5,4.2-42.6,11.1-64.9,10.9
				c-4.1,0-8.4,4-6.7,8.5c8.1,29.4,34.7,45.9,60,59.6c37.3,18.2,78.9,36.3,120.9,26.4c4.5-0.9,8.4-6.7,14-2.6
				c16,11.9,35.1,12.2,52.6,8.9c26.3-5,60.5,10.9,70.3,35.4c13.3,33.2,27.5,66,44.8,97.2c9.9,17.8,21.5,34.7,32,52.2
				c11.2,12-25-2.5-30.1,42c-30.4-45.3-65.8-12.6-74.3,29.4c0.4-18.5-5.3-41.5-26.8-41.4c-33,3.5-50.2,38.7-52.3,68.9
				c-12.7-35.8-23.5-43.2-45.8-30.8c1.6-27.1-4.2-87.7-43.3-76.4c-1.3,0.4-5.6,3.9-6.2-1.4c-1.7-18-1.2-44-23.5-47.8
				c-18.7-3.4-34.7,6.2-44,22.9c-1.8,3.3-1.8,14.8-9.1,1.7c-13-23.1-56-36.4-81.9-18.1c-3.9,2.8-5.4,12.5-14.2,7.8
				c-11.7-6.3-42.6-3.1-51.7,4.8c-26,22.8-23.7,62.6,4.8,82.5c1.3,0.9,4.1,1.3,2.8,4c-7.9,15.8-2.9,30.8,5.6,43.6
				c19.6,30.4,59.4,34.1,91,21.3c-55.6,29-26.3,90.5,30.5,77.8c41.3-15.9,15.9,23.7,90.2,13.3c-9.4,12.7-1.7,35.9,16.2,51.7
				c-5.4,1.7-10.4,3.7-11.4,12.3c-2-6.2-6.4-5.4-9.5-7c-16.4-8.6-41.3-2.6-50.7,12.4c-1.9,3.1-2,6.1-7.6,3.5
				c-40.8-21.8-69.6,19.1-59.9,56.3c-51.9-17.7-93.2,8.4-84.7,64.4c0.6,3.7,10.9,10.1-0.2,14.9C53,1108.3,44.1,1145.6,62,1171
				c11.7,20.7,30.9,29.2,53.6,27.6c9.9-0.7,9.3,4.7,10.3,10c16.6,51.2,79.2,47.5,102.1,3c6.4-12.6,13.4-24.8,18-38.2
				c21.3,27.9,82.4,33.6,95.6-3.2c0.1-20.2,8.4-0.3,34.1-18.1c36-20.7,26.3-52.2,42.8-65.2c15.2-1.4,27.1-8.6,39.7-15.8
				c-7.1,15.6-18.1,29.4-17.3,47.9c0.1,15.8,9.7,25.2,25,25.3c10.4,0.1,17.9-6.9,26.8-10.7c-4.7,7.3-3.3,18.5-10.8,22.8
				c-32.7,22.3-78.9,57.3-81.8,100c-5.6,73.6,75.9,85.7,121,41.2c1.6-1.5,2.8-2.3,4,1.4c8.4,28,51.7,32.1,68.9,10.9
				c0.6-0.8,2.6-2.9,2.5-0.7c-0.5,7.2,4.2,12.2,6.4,18.3c4.7,13,7.3,27.7,14.9,38.7c11.3,16.2,20.8,34.3,41.3,43.2
				c15.9,6.9,33.5,8.5,45.8-3.2c12-14.3,22.5,27.7,65.2,20.7c7.5-1.1,9.4,0.2,14.1,7.3c21.1,36.5,5.3,77.4-8.5,113.3
				c-2.8,9.2-25.5,49.6-20.3,53.9c6.8,1.3,9.1-6.9,10.8-12.2c6.3-13.1,13.3-25.9,17.3-40c13.1,5.2,32.3,15.9,45.3,6.9
				c-1.3-1-2.6-2.8-4-3c-8.9-1.2-17.6-3.2-26.1-5.9c-7.4-2.4-12.6-4.9-11.2-7.7c7.4-15.6,9.1-33,14-49.4c2.4-8.1-4.9-22.6,12.7-23.9
				c3.1-0.2,8.7-6.5,8.3-12.1c-0.3-4.6-4,1.6-5.6-0.8c-1.9,2.4-15.5,12.4-15.8,6.5c0.5-11.9-5.3-21.4-11.4-30.9
				c-8.2-10.9,14.7-5.7,31.2-32.2c1.4-2,2.6-7.8,4.9-4.9s6.1,8,3.9,13.2c-1.6,7.8-21.6,20.4-18,24.7c1.8,2.5,3.4,0.9,5.1,0
				c7.7-4.3,14-9.8,17.2-19.1c0.9,11.3,8.9,21.9,8.2,32.2c-2.9,15.7-8.7,30.9-13.4,46.3c-0.6,1.9-3.5,4.2-0.8,5.5
				c35.3-26.4,39.2-192.8,41-240.9c-0.8-10.1,24.4-1,32.1-6.3c0.9-0.3,5.6-3.8,5.7,1.4c4.6,16.1-16.9,3-16.9,13.8
				c1.2,8.8,18-4.5,17.2,4.3c-3.3,35.2,7.3,69.2,7.5,104.1c2.4,13-10.8,17.6-15.4,4.3c-0.7-2.1,1.6-6.3-2.3-5.9s-4,4.5-4.1,8
				c0,3.9,3,5.4,4.8,8c3,4.4,12.8,3.7,11,8c-17,37.5-35,74.9-52.1,112.2c-4.5,7.2-3.5,18-14.8,21.1c-14.5,5.9-38.7-5.7-40.2,0.5
				c-1.5,3.2,2,4.1,3.7,4.6c11.4,3.3,22.8,7.8,35.1,3.5c1-0.2,2-0.2,2.9,0c-4.9,19.3-14,37.7-19.9,56.8c-1.3,3.4-2.2,8.9,2.3,10.7
				c7.5,6.8,17.9-39.8,20.8-45.1c16.6-44.7,36.3-87.8,57.8-130.2c8.7-19.6,22.1-38.2,20.6-60.9c-12.5-82.4-4-165.7-13.6-248.3
				c-3.5-50.8-19.2-98.7-34.2-147c-0.6-2.2-2.7-8.8,3.3-7.6c23.8,7.3,34.4-8.4,50.5,0.7c14.2,7.8,36.2,12,47.7-1.3
				C979.5,961.7,982.3,960.9,980.4,958.6z M784.1,926.9c25.9,14.1,19.4,39.9-9.3,44.1c-44.8,4.1-87.1-13-129-26.2
				c-2.5-0.8-7-1.5-6.3-4.7c3.2-10.5,25.5-1.1,34.2-5.5c25-2.3,49.6-6,73.2-15.4C760.6,913.9,772.5,919.4,784.1,926.9z
				 M698.8,1131.1c-48.4,5.4-89.7-91.6-105.3-129.5c-5.2-14.1-2.8-23.1,11.8-28c1.6-0.5,2.5-0.9,3.8,1.3
				c14,25.1,30.2,48.3,51.3,68.3c14.1,13.3,31.5,24.1,39.1,43.7C705.2,1098.4,714.4,1123.8,698.8,1131.1z M543.6,1062.3
				c2.8-6.8,6.2-73.2,15.2-64.2c5.3,12.4,7.8,25.4,10.3,38.6c2.6,16.1,9.9,31.4,10,47.9c1.4,21,10.9,67.6-20.2,68.1
				c-21.6-4.2-18.4-44.8-16.2-61.5C544.3,1081.7,541.6,1071.6,543.6,1062.3L543.6,1062.3z M480.3,968.4
				c-16.8-10.8-32.6-23.1-40.1-42.8c-3.3-8.5-6.5-17.5-2.4-26.1c6.8-14.5,17-6.6,27.3-3.8c15.2,4,11.1,18,15.3,27.1
				c12.7,25.8,23.9,46,47.5,65.6C510.9,984.7,494.8,977.9,480.3,968.4L480.3,968.4z M502.6,989.8c-21.6,12.3-46.6,15.4-69.9,23.9
				c-20.6,7.5-40.2,20.9-64.2,17.4c-10.5-1.5-19.5-5-26.8-12.3c-7.1-7,2-13,2.6-19.5c0.3-3.4,8.1-2.5,12.7-1c12.8,4,26,3.2,39,2.6
				C418.7,1002.5,491.5,977.7,502.6,989.8L502.6,989.8z M381.4,885.4c-1.2-4.7,2.5-6,4.5-8.4c5.8-8,26.8,9.9,33.9,12.9
				c16.3,9.9-5.2,24.1,21.3,57C415.5,933.9,388.8,914.5,381.4,885.4z M393.4,925c-105.8-27.1-110.8-142.1-74.3-110
				c17.7,23.9,36.7,47.1,51.7,72.6C378,899.7,382.7,913.5,393.4,925z M492.4,926.8c-9.4-20.1-10.9-40.3-2.8-60.2
				c3.4-8.3,7.2-20.5,21.3-19.8c11.8,1.3,14.7,11.5,17.7,20c14.2,36.8,9.4,77.2,11.9,115.4c0,1.5-1.3,3.1-2,4.7
				C517.7,972.7,504.2,949.2,492.4,926.8L492.4,926.8z M537.6,862.8c-5.7-16,13.6-39,30.7-31.5c18.2,11.4,18.2,53.8,7,70.9
				c-1.9,3.3-4.2,2.5-6.2,3.4c-8,3.5-15.1,7.8-19.5,17.8C546.4,901.6,544.8,881.7,537.6,862.8L537.6,862.8z M549,965
				c-1.1-21.2,8.2-62.8,37.4-49.3c18.1,19-20.8,57.3-36.8,67C548.7,976.8,549.1,970.8,549,965L549,965z M590.8,858.6
				c-0.6-10.8,5.3-19.7,13.3-26.2c19.8-16.2,30.1,13.6,30.9,29.4c3.4,14.6,0.6,28.2-6.2,41c-2.8,9.8-15.5-7.6-28.8,9.9
				c-4.3,6.1-6-6.6-12.4-6.1C574.5,904.2,596.3,896.4,590.8,858.6L590.8,858.6z M668.3,848.9c6.7-5.8,14.7-9.1,20.5-9.8
				c38,2.5-9.9,54-21.4,66.1c-7.3,7.4-15.7,13.7-23.6,20.6c-2,1.8-2,0.6-3.2-1.1c-8.5-12.5-0.4-23.4,1.8-35.4
				C645.9,871.8,655.8,859.7,668.3,848.9L668.3,848.9z M647.2,860c1.4-12.8,3.8-24.2,3.8-35.6c-0.1-22.7,14.9-33.1,32.1-42
				c5.3-2.7,12.6-3.6,16.5,1.2c5.2,8.8-2.3,21.9-4,31.7C685.9,841.4,672,825.3,647.2,860z M642.9,824.6c0.1,5.8,0.8,11.8-3.2,17.7
				c-5.9-24.3-35.7-34.2-47.5-4.9c4.4-23,3.3-37.4,16.4-54.9c5.2-6.4,11.5-11.3,19.7-8.9C643.8,779.3,643.4,810.8,642.9,824.6
				L642.9,824.6z M626.2,944.9c-16.1,19-37.7,30.6-61,38.3c7.8-8.8,15.8-17.3,23.3-26.3c13.2-12.6,7.5-40.5,22.9-43.4
				C630.3,908.8,638.3,931.8,626.2,944.9z M578.6,1043.5c-4.2-16.3-5.5-33-9.1-49.2c-0.6-2.8,0.7-5.4,2.2-4.8
				c3.3,1.2,6.7-6.3,9.2,0.2c4.8,12.4,8.2,25.6,14.2,37.3c12.1,23.5,22.4,48,39.5,68.8c8.8,10.7,18.1,22.4,14.7,38.6
				c-1.4,7.2,1,16.1-10.5,19.6c-9.6,2.9-13.6-3.4-17.5-8C596.8,1117,587.4,1079.6,578.6,1043.5z M665.3,1034.9
				c-6.5-6.1-60.6-67.2-46.9-69.6c4.6,1,3.7-11.6,10.7-3.7c24.6,26.2,56.4,45.3,88,62.1c16.2,5.1,30.2,15.5,35.8,32
				c1.7,4.4,6.6,8.2,4.3,12.9C753.2,1113.5,679.6,1049.1,665.3,1034.9z M726.6,1017.9c-37.4-13.5-66-40.4-97-63.6
				c5.2-11.3,11.8-2.4,17.1-0.4c18,6.8,36.1,13.2,55,17.2c24.3,6.1,48.3,13,73.6,8.6c16.4,2,32.8,18.5,37.5,33.8
				C811.3,1049.5,746.4,1027,726.6,1017.9L726.6,1017.9z M804.8,850.8c7.9,3.1,6.9,11.3,2.9,18.3c-23.9,35.8-79.5,49.6-119.7,55.8
				c-8.6,0.7-17.2,1.4-25.8,2c-1.8,0.1-4.3,1.1-1.5-2.7c10.1-13.3,23.9-20.6,38.8-27.5c23.6-11,45.8-24.7,66.3-40.7
				C776,848,791.5,845.6,804.8,850.8L804.8,850.8z M769.8,793.8c37.5-1.5,12.4,41.1-4.9,51.3c-22.8,16.3-45.2,35.7-71.5,45.3
				c11.7-24.6,26.4-49.5,39-74.2C739.7,803.9,754,796.2,769.8,793.8L769.8,793.8z M679.3,772.1c6.8-22.7,51.7-59.3,59.4-19.1
				c-4.8,30.2-12.5,57.8-25.5,85c-1.5,3.3-1.9,2.7-3.5,0.9c-6.8-9.3-19.6-5.9-7.3-17.6c5.3-12.2,7.5-25.5,6.5-38.8
				c-0.8-9.2-19.3-13.5-29.4-8C679.4,773.6,679,772.7,679.3,772.1z M638.5,701.1c14.2-4.3,27.5-3.1,35.3,10.7
				c12.4,22.4-14.7,63.4-22,90.2c-2.7-22-16.1-39.2-28.2-39.1c-15.7,7.3-10.4-4.4-10.5-11C611.2,731.4,615.2,706.5,638.5,701.1z
				 M829.7,511c-24,9-46.5,20.5-66.7,36.6c-14.8,11.8-26.2,14.5-44.3,1.5c-10-7.2-18.4-10.5-29.3-6.9
				c-37.4,21.6-67.1-37.5-112.5-37.7c19-13.1,41.2-17.5,63-23.5c11.3-3.3,20.5,3.6,23.4,15.1c2.8,10.1,11.5,34.2,23.1,35.8
				c0-2.3,1-5.8-0.1-6.9c-10.2-9-9.9-23-18.3-34.3c26.3,15.4,52.3,26.4,79.1,36.2c2.7-0.3,7.8,1.9,7.6-1.7
				c-0.4-5.8-7.1-6.4-11.5-8.1c-26.4-9.3-50.7-23.1-75.3-36.2c-1.7-0.9-4.4-2.5-4.3-3.7c0.1-2.5,2.9-1.8,4.8-2.1
				c26.1-4.3,52.3-3.2,78.6-1.6c13.9,0.8,22.7,10.3,33.1,17.3c4,1.9,28,18.4,29,11.3c3.3-3.6-30.1-19.6-34.3-23.3
				c33.3,3.8,66.2,7.7,98.8,17.1C858.5,501,844,505.7,829.7,511z M549.2,486.4c11.6-24.4,41.5-82,75-69.2c11.4,5.1,16.4-6.6,25.1-9
				c20.8-5.7,37.5-0.7,49.9,16.7c6.5,9.2,15.1,2.5,21.6,1.4c10.9-1.8,21.4-0.9,32-0.2c12,0.7,24.5,0.2,35.5,5.6
				c16.4,8.1,36.7,9.5,48.7,25.2c8.4,11,21.7,16.3,30.1,27.9c-45.6-11.5-91.6-17.5-138.7-22.5c15-6.3,30.8-10.7,46.8-13.2
				c6.5-1.9,15,0.6,19.7-5c-11.9-9.4-41.6,1.9-55.5,5.8c-17.2,5.8-33,13.8-52.8,14.1c-29.4-1-57.8,9-85.4,18.5
				c16.8-23.8,40.3-40.9,65.8-54.3c1.8-1.2,5.7-2.5,3.5-5.3c-8.8-8.8-60.7,32.7-67.1,42c2.4-9.5,0.9-19,1.8-28.3
				c0.3-3.3,3.2-7.6-1.6-8.2c-4-0.5-6.8,5.5-6.4,8.3c1.5,10.4-2.5,20.2-1.1,30.8c1.4,27.7-44.3,29.2-52,59.2
				C536.9,514.8,536.7,513.9,549.2,486.4z M653.8,326.8c-13.2,21.7-90.5-28.8-104.2-41.8c34.9,0.9,72.4-4.2,99.3,20.6
				C654.8,312,657.7,319.5,653.8,326.8z M724.4,265.6c7.2,4.9,8.3,14.2,6,21.9c-18.4,19.1-78.2,5.3-101-4.3
				c-8.3-3.2-17.6-4.1-30.2-6.9C644.4,275,684.6,242.3,724.4,265.6L724.4,265.6z M616.6,154.5c13.3-7.1,38.1-12.1,35.9,10.3
				c0.7,21.6-60.5,63.9-78.9,76.8C572.4,206.5,583.9,173.1,616.6,154.5z M594.2,237.8c25.6-18.9,101.7-65.8,126.8-30.5
				c6.3,10.8-2.4,16.2-8.5,21.3c-47.6,32.4-107.6,39.6-163.6,45.9C562.2,259.4,578.2,248.7,594.2,237.8z M501.3,173.9
				c-0.7-46.8,47.3-64.9,41.1-19.5c-8.2,31-22.5,57-37,85.9C505.3,216.6,499.2,195.5,501.3,173.9L501.3,173.9z M527.3,222.8
				c10.3-19.4,48-26.8,38.5,5.5c-13.4,31.1-39.6,51.2-66.1,70.7C507.1,272.4,512.1,245.7,527.3,222.8L527.3,222.8z M461.4,200
				c3.5-15.8,20.2-29.6,27.1-8.1c14,37.8,8.1,76-0.8,115.1C473,272.1,451,238.1,461.4,200z M477,305.8c0.4,0.9,0.6,1.9,0.8,2.9
				c-22.3-2.1-84-59.6-50.4-75.6C453.4,248.3,466.9,278.4,477,305.8z M420.9,176.1c6.6-6.4,13-4.1,17.6,1.6
				c18.2,20.2,9.2,41.4,13.7,65.1c-6.4-9.4-16.4-14-25.3-20.3C417.3,216.1,410.1,184.8,420.9,176.1z M369.2,188.6
				c1.7-4.3,5.6-8.6,10-8.5c22.7,0.5,29,25.8,38.4,42.2c0.7,1.3,1.4,3.8,0.8,4.3c-15.7,12.7-9.3,27.2-3,43.2
				C393.2,246.9,358.2,224.5,369.2,188.6L369.2,188.6z M323.5,256.9c-68.2-37.6-46.5-91,38.5-31.4c8,4.8,12.1,15.4,19.1,22.4
				c9.5,9.6,19.6,18.6,30.2,26.9c3,2.4,4.4,7.1,9,8C386.4,280.1,353.6,272.5,323.5,256.9z M350.8,324c-60.2,22.6-79.8-34.2-1.1-46.1
				c6.2-1.5,13.8,3.7,20.9,5c14.1,2.6,28.4,4.6,43.9,7C394.3,304.5,373.5,316.4,350.8,324z M238,399c33.4-8.2,68.9-14.5,101.9-1.6
				c9.5,3.6,15.3-2.2,22.9-4c24.9-5.3,41.4,17.1,52,36c7.1,10.9,21.1,6.8,30.2,13.7c16.5,12.7,35,26.3,38,48.6
				c-14.5-16.2-31.7-26-49.9-35.1c-10.6-5.3-23.9-4.2-32.2-13.1c-10-10.8-18.7-22.9-27.8-34.6c-1.5-1.9-3-4.2-5-3.5
				c-8.6,7,16.8,29.7,20.8,36.6c-38.9,1.3-64.2-31.7-101.3-36.5c-2.1-0.3-3.7,0.1-3.8,1.7c0.2,1.7,1.2,3.1,2.7,3.8
				c15.9,5.9,33,11.2,46.3,22c-50-5.5-92.1-9.6-142.5-25.3C209.3,404.2,223.7,401.8,238,399z M481.5,508.3
				c-23.8-32.4-63.6-11-96.3-19.4c-1.1-0.2-2.8,0-3.3-0.6c-7.6-9.6-15.5-9-26-3.7c-47.1,16.9-141.5-28.4-168.1-70.3
				c37.6,16.2,76.2,18.2,117.3,25c-10.6,3.1-55.3,5.4-52.6,11.8c0.1,3.1,3.2,2.1,5.2,1.9c21-2.5,41.8-5.1,62.4-11.1
				c9.9-2.9,22.2,2,33.4,3.8s22.3,3.8,33.4,6.4c-1.2,1-2.5,2.8-3.7,2.8c-19.9-0.1-36.5,10.7-54.6,16.4c-2,0.6-5.2,6.4-1.7,7
				c20.6-5.3,40.4-14,61.7-17.5c37.4-6.2,77,16.1,95.6,48.1C483.3,508.6,481.9,508.8,481.5,508.3z M560.2,646.4
				c-24.8-39-44.6-81.1-58.7-125.2c-14.1-52-22.3-106.7-44.6-156.1c-11.4-23-24.6-44.9-46.4-60c-1.1-0.8-2-0.8-0.3-2.2
				c4.1-3.1,8.4-6.2,11.9-10c12.6-13.4,15.2,3.8,21.3,7.6c14.4,8.9,27.9,20.5,46.1,14.1c14-5.5,25.1-18.8,37.8-26.7
				c2.8-1.5,5.3-8.4,10.2-2.9c4.6,5.2,15.3,7.4,4.8,18.7c-38.4,54.8-34,129.4-18,191.5c15.3,75,55.9,140.7,100.2,202
				c-5.8,2.6-8.8,8.1-13.3,11.2c-7.4,5.1-7.9-4.1-11.4-7.2C582.4,686,572.6,665.1,560.2,646.4z M549.8,728.1
				c4-34.7,42.7-39.6,51.1-4.5c2,13.6,2.1,27.3,2.8,40.9c0.7,13.3-9.7,20.2-11.6,31.2c-0.6,3-0.7,6.3-3.3,8.5
				c-0.6-0.7-1.7-1.3-1.7-2c-1.9-17.8-12.6-31.2-27.7-40.1c-3-0.9-8.9-1-8.9-1.8C549.8,749.5,548.8,738.6,549.8,728.1z M552.7,769.7
				c20,3.4,28,30.5,28.2,48.7c3.3,27.9-17.7-27.5-51.2,28.3c-3.4-3.2-9.6-6.2-9.7-9.6C518.8,816.7,526.9,770.3,552.7,769.7z
				 M473.2,766.2c6-17.2,8.9-38.2,28.7-49.6c10.4-5.9,28.2,4.5,31.1,17.5c2,8.9,4.7,17.7,7.4,26.5c0.8,2.6-0.9,3.3-2.2,4.3
				c-14.7,10.7-18.8,26.9-24.8,42.5c-1.4-1.9-3.3-3.7-4.2-5.8C495.5,762.9,469.7,782.1,473.2,766.2L473.2,766.2z M465,789.7
				c27.6-19.8,39.7,19.8,43.8,41.3c1.9,6.8-5.3,5.3-8,6.9c-16.7,9.7-22,25.8-25.8,43c-0.6,2.6,1.4,7.8-1.6,7.5
				c-4.3-0.5-10-3.2-11.9-6.7C446.8,855.8,444,813.1,465,789.7z M396.4,776.4c1.7-24,43-79.9,60.6-37.8c3.3,12.8,0.9,26.4,5.6,39
				c-12.4,10.1-16.8,24.1-20.3,38.9C417.8,778.6,391.3,791.2,396.4,776.4L396.4,776.4z M389,803.1c12.8-23.1,44.3,10.9,50.8,24.9
				c3.4,6.7,1.7,15.8,2.6,23.8c1.1,10.2,5.7,19.2,10.5,30.1c-7.3-7-13.7-1-16.2,1.6c-8.2,8.5-12-1.3-15.3-3.7
				c-6.3-4.5-12.4-8.9-19.9-11.5C382.2,861.8,377.8,818.3,389,803.1z M351.7,757.1c18-11.3,28.8,26.5,30.5,40
				c-11.2,19.7-9.3,44.4,2.1,64.2c0.6,1.4,2.6,2.8,0.4,4.2c-6.6,4.2-13.9,12.3-19.1-1c-4.7-12.1-15-20.1-21.1-31.1
				c-9.6-17.2-14-34.4-4.7-53.8C343.6,771.8,344.4,762.4,351.7,757.1L351.7,757.1z M240.5,872.5c-10.4-6.4-16.7-17.3-29.4-8.5
				c-37.1,20.4-88.8-24.9-40.9-54.9c7.9-4.3,16-8.4,22-15.3c-3.3-1-6.7-2.9-9.9-2.7c-16.9,1-33.7,2.3-50.5,4
				c-31.2,0.9-61.3-33.8-47.7-66c0.7-1.8-6-7.4-10.2-9.7c-18-13.7-18.1-43.5-4.7-60.8c13.3-16.1,37.3-13.7,55-6.6
				c9.2,2.3,17.4-22.4,40.9-18.5c28.9,3.3,42.3,13.3,54.7,41.3c0.3,1,2.5,1.4,3.9,2.1c6.2-15.6,7.5-30,24.5-38
				c17.9-9.5,32.8-0.4,35.2,20.1c1,9.1,1.6,18.1,1.8,27.2c0.1,4.7,3.7,6.2,7.1,4.5c22.9-11,29.2-8.9,36.4,15.6
				c4,13.6,6.3,27.6,6.7,41.8c0.6,20.4-11.5,38.7-8.5,59.3c0,0.2-1.4,1-1.7,0.9c-10.1-6.6-20.3-13-30.1-20
				c-5.8-4.1-4.6-23.3,0.2-30.8c8.3-12.8,11.1-27.9,15.6-42.2c0.8-2.5,2-8.3-1.3-8.6c-4.6-0.5-5.1,5.4-6.5,8.9
				c-5.6,12.7-8.7,27.3-15.4,39.2c-5.4-6.5-21.8-79.6-33.6-73.3c-4.3,2-0.4,7.1,1.2,10.1c14.5,28,21.1,59,29.3,89
				c-22.5-4.7-28.6-27.5-40.6-42.8c-7.4-8.8-30-42.9-40.4-42.2c-0.6,1.5-0.4,3.2,0.4,4.5c14.7,21,33.7,39.9,45.8,62.4
				c-21-10.4-42-21.5-61.8-33.9c-5.7-3.7-7.2-13.6-10.9-20.5c-8.4-15.9-17-31.7-25.6-47.5c-1.1-1.9-3.5-2.6-5.4-1.5
				c-0.2,0.1-0.5,0.3-0.7,0.5c-2,1.7-0.4,3.7,0.8,5.9c3.4,6,5.6,12.7,8.8,18.8c4.1,7.8,8.6,15.4,13.5,22.7
				c3.3,4.9,2.4,11.9,8.5,15.4c-30.6-12.8-58.4-31.7-91.3-37.8c15.3,12.3,33.6,18.3,50.5,26.9c23.8,13.4,49.5,24.7,71.6,40.6
				c-29.9,2.1-60.2,3.6-90.1,1c-23.2,9.3,56.2,8.8,60.1,8.6c14-0.3,27.9-3,41.5-2.5c14.7,0.6,26.2,13.1,40,18.7
				c3.1,2.2,18.6,5.2,12.1,10.1c-10.7,8.9-21.9,21.3-36.4,12.1c-9.5-5.2-20.5-4.5-30.1-8.8c-3.3,0.2-6.4,6.8-0.9,7.9
				c12.9,3.6,25.7,7.3,38,10.9c-17.8,11.2-36.3,22.9-56.8,31.2c-3.4,1.4-6.8,4.5-5.4,7.8c2,4.8,5-0.3,7.3-1.1
				c25.7-9.3,48.6-23.6,71.2-39.2c-0.5,5.6-2.4,11-1,15.3c3.9,11.8-2.6,22.3-2.3,33.6c-0.9,5.5,5,5.9,6.4,0.6
				c6.4-17.6,6-35.5,4.6-53.9c-0.3-3.9,8.1-9,13.3-12.6c4.8-3.3,7.6,2.8,11.4,4.3c14.8,5.7,0.9,12-0.3,17.5
				c-3.1,13.7-0.3,26.5,3.5,39.3c2.9,9.8,8.6,17.9,14.2,26.1c1.2,1.8,0.3,1.9-1,1.9C284.6,880.4,261.4,885.2,240.5,872.5z
				 M299.2,898.7c0.7-4.5,20.5-8.1,24-4.2c29.2,35.4,80.5,33.6,114.3,61.7C399.8,962.8,294.9,952.9,299.2,898.7z M308.6,950.2
				c2.9-3.4,6.5-5.5,11.8-3.1c25.6,11.4,52.3,17,80.4,18.4c38.7,0.4,39.4-9.5,78.2,10.4c-46.7,13-91,22.5-137.6,9.6
				c-14.7-3.5-27.4-8.5-33.1-24.1C306.9,957.4,305.8,953.4,308.6,950.2z M401.5,1101.1c-2.6,20.1-26.4,51.1-46,51
				c-15-0.1-21.3,2.5-23.9,17.9c-2.3,13.4-16.6,15.1-27.3,16.5c-18.3,2.4-35.6-1.7-49.8-15.1c-3.1-2.9-5.1-11-9.8-7.8
				c-6.9,4.6-10.3,13.6-11.5,21.6c-9.1,32.3-59.3,74.9-88.6,39.8c-8.2-8.3-14-19-13.6-31.4c0.2-6.7-1-7-7.7-5
				c-16.9,5.1-42.1,0.2-54.5-23.5c-13.2-22.5-6.4-52.3,19.8-60.4c12.3-4.8,8.6-13.1,5.8-20.9c-6.2-17,1.7-43.3,16-54.3
				c24.8-24.2,78.1,11.5,68.7-9.8c-7.9-17.8,2.1-55.7,25.3-55.7c25.4-2.6,31.7,19,38.1,3.2c6.9-20.4,29.1-18.7,46-13.9
				c7.5,0.8,9.7,7.5,12,13.6c6,15.7,18.9,22.1,33.9,26.3c9.6,2.7,0.4,7.1-0.4,9.1c-11.7,28.7,15.4,32.8,37,37.7
				c-12.2,5.1-23.8,10.8-36,14.5c-6.6,2-10.2-6.7-16.3-8.5c-17-4.8-14.9-22.2-21.7-33.7c-8.2-13.8-15-28.3-22.6-42.4
				c-0.5-0.9-1.2-3.9-3.8-2.4c-9.8,1.6,24.4,55.6,25.6,65.5c-3.5-0.9-7.5-1-10.5-2.7c-24.2-13.8-50.4-22.6-76.4-32
				c-3-1.1-5.3-0.2-6.4,1.9c-1.5,3,1.9,2.7,3.4,3.3c21.8,9.8,43.8,16.9,64.7,28.9c-21,6.6-43,9.6-65,8.7c-1.9-0.1-5.4-1.8-5.4,2.7
				c-0.1,4.1,3,3.2,5.3,3.4c25.3,2.7,49.7,1,73.7-9.3c6.5-2.8,14.4,4.5,21,9c3.8,3.8,31,11.6,16,15.8c-14.8,2.1-26.9,11.5-40.8,14.9
				s-26.9,15.7-41.2,10.8c-31-9.2-61.5-22-93.8-25.1c-7.2-1.7-9.3-5.5-16.4,1.5c1.1,1,2,2.5,3.2,2.8c12.1,2.6,24.3,4.6,36.3,7.6
				c22.5,6,41.4,12.2,64.7,18.5c-40.7,14.4-77.2,26.7-115.6,43.5c-1.4,0.6-2.2,2.4-3.3,3.7c1.9,0.7,4.2,2.5,5.7,1.9
				c16.4-5.7,32.7-11.7,48.9-17.8c3.4-1.3,7.1,1.7,10.8-0.9c-11.4,14.1-22.7,28.2-34.3,42.1c-1.6,2-0.9,3.1,0.3,3.9
				c2.9,2,6.8,1.5,9-1.3c11.7-13.8,25.5-26.6,33.8-42.2c8.6-16.2,24.2-13,36-19.5c2-1.1,4.3-1.4,7.3-2.3
				c-14.9,31.9-30,61.1-49.1,90.1c-1.8,3-6.6,6.5-2.5,9.3c5,8.5,39.9-57.1,44.7-63.5c7.1-12.4,11.7-26.3,18.9-38.7
				c4.1-7,13.9-5.8,20.9-8.8c24.4-8.1,47.5-19.5,71.9-28.1c1.1-0.2,2.2,0,3.2,0.5c0.1,2.1,0.4,4.4-0.5,6.2c-4,8.4-7.5,17.1-10.4,26
				c-2.6,7.7-13,5.8-19.7,8.9c-7.7,3.2-46.3,28.6-45,35.8c1.5,1.9,3.6,0.8,5.6-0.4c17.1-11.6,32.9-25.5,53.1-32
				c-7.2,19.1-18.4,36.3-27.8,54.4c-0.8,1.6-3,3-0.3,4.3c13.4,3,42.5-71,49.1-84.3c7.9,13.7,15.9,25,21.7,38.9
				c2.7,6.6,10.9,4.4,7.3-2.8c-12.2-43-55.9-48.8,10-74.4c-9.4,21.6-7.3,32.1,15.5,38.7C407.9,1088.9,402.6,1092.3,401.5,1101.1
				L401.5,1101.1z M457.1,1063c-13.4,10-28.9,15.5-45.6,17.9c-21.9,0.7-43.7-17.3-22.1-36c10.9-11.9,25.8-17.1,40.7-21.9
				c24.8-9.1,49.9-17.1,75.9-21.9c6.4-1.5,13.3-2,19.2-4.8c4.3-2,6.3,2,10.4,0.7C510,1021.1,485.2,1042.4,457.1,1063L457.1,1063z
				 M467.5,1135.1c-0.8,0.3-1.7,0.3-1,0.2c-38-6.8-3.5-56.1,10.5-72.6c20.3-22.7,43.8-42.7,67.6-61.4c-3,15.1-5.7,30.4-7.7,45.8
				C530.1,1085.6,506.6,1123.4,467.5,1135.1z M490.9,1307c-38.7,15.7-81.4,0.8-80.9-45.6c3.2-45.8,40.5-66.2,70.2-96.4
				c-6.2,21.9-7.7,40.8,0.4,60.1c-7.4-1.4-57.2,2.7-51.3,14.8c2.5,4.3,5.9-1,9.1-1.5c12.7-2.2,25.4-4,41-6.4
				c-8.3,6.1-57.2,57.9-47.9,61.8c3.5,2.9,5.9-2.1,7.9-4.4c8.4-9.9,16.5-20.1,25-30.4c2.1,11.3-1.6,22.4,2.5,33.1
				c1,6,5.4,3.2,6.1-0.9c0-12.2-0.7-24.4-0.7-36.6c0-9.1,7.8-13,14-16.8c2.5-1.5,5,4.7,6.8,7.8c4.5,7.8,13.2,10.2,19.7,15.4
				C524.3,1281.2,513.8,1299.5,490.9,1307z M782.3,1413.5c-42.9,16.8-64.5-29.9-76.7-18.6c-36.9,34.5-77-20-88.4-52.8
				c-6.2-13.8-10.8-28.3-16.5-42.4c-1.8-4.4-4.7-3.2-7.5-0.1c-32.1,35.7-69,3-67.9-34c0.5-7.5-2.7-11.5-8.9-14.2
				c-40.9-19.1-36-70-20.4-104.5c7.9-24.6,28.9-37.9,37-62c1.4,28.1-8.5,71.5,27.8,77.1c18.1,1.6,28.9-21.1,28.4-37.3
				c-0.2-1.3,1.4-2.9,2.2-4.4c5.7,4.6,7,12.5,11.2,18.2c5.1,7.8-2.7,12.8-4,19.1c-1.7,8.3-5.3,16.3-8.2,24.4
				c-2.6,7.2-9.9,7.4-15.5,8.7c-18.4,4.3-35,12.6-51.7,20.9c-2.6,2.3-15.2,5.7-12.9,9.2c1.2,2.4,3.9,3,6.5,1.9
				c21.5-9.9,43-19.6,66-25.5c-0.5,24.4-13.3,47-14.1,71.8c-0.3,3-4.6,7.5,0.6,8.2c4.1,0.5,4.7-5.3,5.8-9.3
				c10.6-38.9,21.2-77.3,34.5-115.3c47.5,79.3,13.3,19.4,9.2,122.9c-0.3,3.6,1.5,5.4,5.1,5.7c4.6,0.3,2.8-3.2,2.9-5.2
				c2-22.3,4.8-44.4,12.2-65.7c0.7-1.5,2.5-2.8,3.7-0.6c7.3,12,14.6,24,21.8,36c0.5,0.9,0.3,2.3,0.3,3.4c0.7,23.1,0.3,46.3,2.4,69.3
				c1.4,15.6,6.3,31,9.8,46.4c1.5,4.8,6.7,1.8,5.8-2.4c-7.7-33.8-8.8-68.2-9.5-102.8c27.3,43.5,61.2,82,103.5,108.9
				c0-1.5,0.5-3.5-0.2-4.3c-17.7-19.1-39.3-36-54.5-56.8c3.2,0,6.5-0.6,9.4,0.3c17,5.5,34.9,8.5,50.8,17.3c0.8,0.4,2.5-0.8,3.8-1.3
				c-10.9-20.1-57.9-19.4-76.8-29.6c-12-7.6-17.7-26.9-27-38.3c-5.7-6.6-1.4-8.3,4-8.4c27.5-0.6,55-0.7,82,5.6c2.3,0.5,5-0.6,7.4-1
				c-3.8-13.5-79.1-16-92.6-12.3c-16.8,2.8-18.2-10.7-23.6-18.3c-12.4-17.6-21.7-37.2-32.6-55.8c9.5-1.5,18.8-2.8,28-4.4
				c11.2-1.9,16.1,8,23.5,12.7c18.9,12.2,39.2,21.5,59.8,30c2.4,1.2,5,2.5,6.4,0.1c1.5-2.6-0.5-4.9-3.1-6.3
				c-23.5-12.9-47.5-20.5-68.2-38.5c11.5-1.8,80.3,4.6,77.2-4.5c-0.1-2.6-2.8-3.7-5.8-3.7c-28.4,0.1-56.7,0-85.1,0.1
				c-10.2,0.8,1.5-8.9-3.8-29.4c49.7,45.5,78.7,1.7,44.1-46.8c16.2,10.2,31.3,18.3,50,18.7c22.3,0.5,39.8,32.7,30.4,52.7
				c-4.2,8.7-9.3,16.9-15.3,24.4c-19.5,23.4,55.7,23.5,45.2,86.5c0.6,8.6-18.2,26.2-12.5,30.3C834,1323.7,836.9,1393.8,782.3,1413.5
				L782.3,1413.5z M858.8,1282.8c-2.6,45.2-5.3,91.4-13.3,135.6c-4.8-12.6-8.4-25.2-15.3-36.6c7.8-34.8-0.6-66.7-20.2-96.8
				c-4-7.1,5.1-12.5,7.6-18.9c12.7-33.7-11-68.3-41.1-82.1c-12.9-6.6-0.3-10.9,2-14.4c19.2-29,21.3-61.1-15.9-78.7
				c-7.8-3.7,0.3-6.8,0.9-9.2c4.1-14.6-3.5-37.5-16.3-46.4c14.7,5.3,29.7,6.3,45.2,6.2c12.7-0.4,23.2-14.4,31.5,0.2
				c23.9,31.9,32.9,67.6,34.7,106.9C861,1193.1,861.5,1238,858.8,1282.8L858.8,1282.8z M882.6,1021.4c2.6,12.8-13.8,7.5-20.1,13.1
				c-2.6,1.5-8.8,0.4-6.6,4.8c0.9,1.9,2.8,2.5,5,2.5c10.4,1.4,29.9-16.9,27.6,1.3c13.3,63,20.4,128.1,17.5,192.5
				c-0.7,7.7-9.8,2.5-14.8,4.9c-4.5,2.2-10.4,1.5-15.7,1.5c-3,0-6.5,0.1-6.5-5c-0.3-57.3,6.2-117.1-19.4-170.6c-3-5.9,5.4-4.6,8-4.9
				c5-1.1,24.6-4.7,24.6-10.1c-0.4-2.8-5.9-2.9-8.6-1.8c-8.7,4.4-18.6,5.2-28,4.9c-6.3-0.2-7.5-9.6-12.6-13.3
				c-24.2-23.9,1.7-42.5-46.6-65.4c19-4.8,24.2-17.7,23-34.5c19.3,7.9,36.9,15.8,58.7,21.3c-11.6,5.7-22.2,11.4-33.2,16.2
				c-3.6,1.6-7.6,2.2-9.8,5.8c3.4,12.8,35.3-10.8,42.9-13.4C873,988.1,877.9,1004.7,882.6,1021.4L882.6,1021.4z"/>
		</g>
	</g>
</g>
<g>
	<g id="Layer_1_2_">
		<g transform="matrix( 1, 0, 0, 1, 0,0) ">
			<g>
				<g id="Layer0_0_FILL_1_">
					<path d="M52,1548v15l-37,37h946l-37-37v-15H52 M52,52V37.7L14.3,0H0v1600h15l37-37v-15V52 M924,52V37.7L961.7,0H14.3L52,37.7
						V52H924 M976,0h-14.3L924,37.7V52v1496v15l37,37h15V0z"/>
				</g>
			</g>
			<g>
				<path id="Layer0_0_1_STROKES_1_" class="st5" d="M961,1600h15V0h-14.3L924,37.7V52v1496v15L961,1600H15H0V0h14.3h947.4 M52,52
					V37.7L14.3,0 M15,1600l37-37v-15V52h872 M924,1548H52"/>
			</g>
		</g>
	</g>
</g>
</svg>
