<?xml version="1.0" encoding="UTF-8" standalone="no"?>
<svg
   viewBox="0 0 976 1600"
   version="1.1"
   id="svg12"
   xmlns:xlink="http://www.w3.org/1999/xlink"
   xmlns="http://www.w3.org/2000/svg"
   xmlns:svg="http://www.w3.org/2000/svg">
  <defs
     id="defs12" />
  <style
     type="text/css"
     id="style1">
	.st0{fill:#FFFFFF;}
	.st1{clip-path:url(#SVGID_2_);}
	.st2{fill:#5D4E8C;}
	.st3{fill:#333333;}
	.st4{fill:#FFEB5C;}
	.st5{fill:#D81E1E;}
	.st6{fill:none;stroke:#333333;stroke-width:2;stroke-linecap:square;stroke-miterlimit:3;}
</style>
  <g
     id="Paper_Backing">
    <path
       class="st0"
       d="M960,22v1556c0,3.3-2.7,6-6,6H22c-3.3,0-6-2.7-6-6V22c0-3.3,2.7-6,6-6h932C957.3,16,960,18.7,960,22z"
       id="path1" />
  </g>
  <g
     id="Wikipedia_Cropped">
    <g
       id="g8">
      <g
         id="g7">
        <defs
           id="defs1">
          <path
             id="SVGID_1_"
             d="M960,22v1556c0,3.3-2.7,6-6,6H22c-3.3,0-6-2.7-6-6V22c0-3.3,2.7-6,6-6h932C957.3,16,960,18.7,960,22z" />
        </defs>
        <clipPath
           id="SVGID_2_">
          <use
             xlink:href="#SVGID_1_"
             style="overflow:visible;"
             id="use1" />
        </clipPath>
        <g
           class="st1"
           clip-path="url(#SVGID_2_)"
           id="g6">
          <path
             class="st2"
             d="M505.6,1290c-29.1-10.8-40.9-52.1-61.5-74.5c-40.2-65.1-78.6-132.1-104-204.1      c-69.4-173.5-107-363.3-122.5-550.6c-2.1-36.3-5.2-72.3-9.9-108.4c1.3-10-9.3-31.8,4.5-33.3c80.6,6,162.2,4,243.2,10      c11.4-5.9,5.4,83.1,9.4,94.8c2.4,68.6,8.5,138.3,21.7,205.7C520.3,868.9,600.3,1057,734.9,1258c5.8,9.8-4.1,11.7-10.7,10.7      C651,1271.8,578.2,1281.7,505.6,1290L505.6,1290z"
             id="path2" />
          <path
             id="path4"
             class="st4"
             d="m 256.1,958.3 c -7.6,-0.4 -10.4,-9.5 -12.6,-15.4 -20.1,-36 -18,-82.8 -25.5,-121.5 -43.3,16 -80.6,48.3 -131.3,53.8 -13.1,0.9 -56,17.4 -56.3,-1.5 23.5,-42.4 60,-75.7 96.9,-105.7 19.6,-21.1 65,-36.8 14.2,-51.3 -36.9,-15.9 -92.1,-43.6 -103.8,-79.8 43.1,-21.3 94.8,-7.5 138.8,-4.3 4.8,-27.1 7.5,-57.1 19.4,-81.7 4.7,-6.7 16.4,-43.9 25.2,-31.3 7,78.9 16.6,157.8 33.7,229.2 14.7,41.4 22.1,86 35.9,128 0.3,20 -21.2,71.3 -34.6,81.5 z m 582.9,598 c -21.2,-31.1 -0.2,-105.7 14.7,-136.8 19.6,-24.9 -47,-14.1 -59.5,-20.5 -41.5,-10.6 -88.3,-15.7 -121.4,-46.7 34.4,-41.3 100.1,-62.2 152.7,-63.6 29.2,6.3 -22.6,-68.7 -22.8,-93.6 -15.2,-50.6 -21.4,-101.3 -26.3,-153.6 1.2,-8.8 8.9,-1.8 11.8,2 65.5,49.8 105,118.4 144.9,186.4 11.3,17.2 39,-43.1 47,-25.5 -0.4,50.9 -0.1,109.5 0,160.8 -3.3,3.3 6,100.4 -4,100.8 -21.4,-29.7 -12.6,-40.3 -36.6,-1.1 -29.9,40.3 -57.6,69.7 -100.5,91.4 z m 34.3,-974.7 c -6.3,0.7 -6.9,-11.7 -8,-17 -6.4,-38.4 -14.2,-77.3 -8.3,-116.8 -0.5,-9.4 12.4,-39.7 -5.1,-36 -35.3,21 -73.6,31.7 -114.4,40.7 -22.9,3 -195.6,32.9 -144.5,-13.2 30.1,-45.2 65.2,-75.8 106.4,-106.9 15.5,-20.3 94.9,-52 80,-64.6 -47.8,-24.1 -109.5,-59.4 -142.7,-99.2 54.7,-32.3 135.3,-20 196.8,-7.1 21,8.5 17.8,-5.8 11.8,-20 -7.6,-37.4 -19.5,-73.7 -21.7,-112 0.7,-24 -8.4,-100.6 27.2,-55.2 44.3,45.4 90.9,94.4 116.3,153.4 18,16.9 11.7,59 12.9,82.4 -0.9,25.5 0.4,67.8 0,93.8 -2.3,8.8 4.3,177.6 -2.4,184.8 -32,29.2 -67.9,76.6 -104.3,92.9 z"
             style="fill:#333333;fill-opacity:1" />
          <path
             class="st5"
             d="M282.4,1604c-2.3-0.1-4.2-2-4.1-4.4c0-0.2,0-0.4,0.1-0.6c1.5-36.3-22.5-3.2-34.5,5      c-15.9-0.3-43.6,0.1-59.3,0c-3.7-2.5-41.6,6.2-31.5-7.7c5-17.8,37.5-53.1,1.4-51.3c-53.3-11.4-110.7-22.4-156.9-52.2      c-9.9-9.6-46.9-31.8-34.6-45.6c39.8-20.4,85.7-24.3,130.2-23.4c112.8,11.2,52.9,8.1,39.6-70.3c-19.6-66.8-30.1-139.5-54.6-202.5      c9.5-6.1,19.8,7.3,27.4,12.1c56.1,41.8,99.7,95.9,141.6,151.7c12.3,8.6,23.3,53.8,38.7,38.5c41-52.3,94.5-83.7,154.7-120.2      c28.7-3.7-34.7,171.9-47.1,187.8c-6,7-2,16.2,8.1,13.7c22.1,0,43.6,4.4,64.1,8.9c32.9,5.8,66.6,18.5,97,30.6      c7,14.1-37.1,28.3-47.3,35.9c-146.1,77-243.4,12.6-194.4,87.6C328.2,1609.9,285.8,1601.8,282.4,1604z M653.6,1110      c-88.5-140.6-129.2-296.9-159.9-460c-19-60.6,40.5-1.5,59.9,14.4c22.7,12.1,57.5,90.4,69.2,78.3c41.3-71.2,136-94.1,204.8-127.9      c17.9,5.8-39.3,110.8-50.1,125.9C664.6,901,706,804.4,840,887.6c38.8,22-58.8,35-72.2,40c-25.9,6.2-54.3,2.8-79.5,6.5      c-6,22.4,4.7,55-3.8,79.2C678.1,1045.5,673.7,1085.7,653.6,1110z M137.6,470.7c-15.6-27.3,0.3-70.8,5.6-101.7      c22.7-45.1-58.7,12.2-144.4-18H-1c-60-10.3,31.6-60.8,51.8-75.2c66.8-32.2,43.2-15.7,18.9-76.7C61.3,179.9,2,40.2,39.1,48.1      C88,68,149.1,117,182.3,153.9c6,4.6,14,23.1,21.4,11.1c1.5-21.9,113.1-185.2,104.1-100c0.2,45.7,16.8,86.4,13.9,132.8      c0.6,11.8,14.9,3.6,22.5,5c35.3,1.6,65.9,14.4,99.5,22.3c43,14.4-72.5,75.1-90,81.8c-25.6,9.7-58.7,21.5-85.3,8.2      c-8.1,7-55.3-5-62.6,2.5c-0.9,12.1,5.3,24.5-1.7,37.3c3.8,14,6.8,30,6.2,45.9C196.3,432.4,164.3,458.3,137.6,470.7L137.6,470.7z      "
             id="path5" />
          <path
             d="M979,1249.8c1.6,3.3-1.3,6.7-3.4,9.5c-15.2,20.5-30,41.4-44.6,62.2c-3.9,4.4-6.5,0.3-7.9-3.3      c-18.9-42.4-39.5-84.2-61.3-125.2c15.9,45.7,36.8,90.6,54.8,135.8c1.6,3.9,1.5,6.4-4.1,6.3c-41.3-1.6-83.1,1.2-124,4.8      c36.1,7.9,73.9,10,110.9,9c15.3-0.7,33.2-1.3,19.4,16.9c-10.7,32.7-28.5,63.1-34.3,97.2c67.5-102.1,32.3-126,90.6-3.8      c0.9,1.8,1.2,4.1-0.7,5.3c-3,3.6-13.8-21.4-16.8-25.1c-23.4,52.3-66,95.8-117.2,120.8c-17.2,7.2-13-9.1-13-15.1      c0.3-22.8-2.9-45.5,3-68.4c17.4-90.3,57.9-63-36-72.4c-17.6-1.9-146.5-33.8-122-59.4c42-42.8,103.7-60.4,162.3-60.9      c-34.9-55.2-46.8-121.1-57.3-184.5c-3.7-21.9,0.4-44.7-6.2-66.4c3.7-20.6,77.7,61,83.9,69.4c13.5,16.8,26.4,33.9,37.2,53      c13.6,23.7,32.8,45,42.7,71c1.8,4,3.2,2.2,5,0.7c10.3-8.7,20.8-17.4,30.9-26.4c2.6-2.3,4.8-1.6,7.5-1.4      c-9.5,16.3-26.9,27.2-39.5,41.2c-2.4,2.3-4.8,1-5.6-1c-39.2-74.4-86.8-146-152.9-198.8c7.3,79.6,19.6,156.9,55,228.8      c2.7,5.3,4.5,11.3,9.2,15.8c4.7,5.6-6.9,7.2-10.8,7.2c-19.8-1.1-39.4,1.9-58.3,6.4c-35.9,8.5-69.1,25.7-96.6,50.2      c-11.5,7.5,54.9,30.5,61.7,31.6c33.4,11.9,68.3,16.3,103.4,19.4c1.7,0.2,2.8-1.8,5.3-1.2c17.9,4.2,17.4,3.9,6.9,23.8      c-16.7,33.1-21,71.7-21,108.4c0.1,6.3,0.5,12.8,2.2,18.8c1.1,3.9,4.4,0.1,6-0.7c37.3-20.8,68.3-52.8,92.8-87.3      c26.4-36.6,14.3-39.3-2.4-75.2c-14.6,36.2-36.3,69.4-58.5,101.9c-1.5,2.3-3,4.9-6.5,3.3c-3.9-1.7-0.9-4.7-0.5-6.4      c5.9-25,12.2-50.1,23.3-73.3c6.7-14,8.8-30,18.9-42.6c2.2-2.7,1.1-8.3,4.3-11.7c-20.4-4-44,0.6-65.4-1.8      c-15.5-0.8-30.8-4-46.2-6.3c-12.4-1.8-24.8-3.7-37.1-5.4c-3-0.4-7.5,0.8-6.8-4c5.5-15.9,124.5-14,145.1-14.2c2.3,0,3.2-1,2.4-3      c-9.2-22.3-18.4-44.5-27.7-66.8c-18.3-43.6-36.4-87.2-55.1-130.6c-0.9-2.1-1.7-3.7,0.8-5s4.7-0.6,6,1.7      c36.1,60.6,67.3,123.8,99.2,186.6C935.4,1302.8,972.2,1243,979,1249.8z M976.9,1280.3c-3.1-0.6-4.7,2.2-6,4.6      c-10.3,17.9-20.7,35.8-30.7,53.9c-3.2,5.8-3.4,10.6,5.8,10.3c10.2-1.5,22,2.9,31-2.7c-5.8-11.5-33.7-0.7-28.2-8      C952,1331.3,986.6,1281.5,976.9,1280.3L976.9,1280.3z M976,1365.2c-1.4-0.9-3.7,0.5-4.8-0.1c-5.7,1.8-28.1-1.6-23.1,8.1      c9.1,15.9,12.3,36,25.4,49.2c4.9-7.2-12.8-38-15.8-47.1c-1-2.3,0.3-2.1,1.7-2.1C965.4,1372.4,982.2,1376.4,976,1365.2      L976,1365.2z M635.9,176.6c44.1,37.7,88.6,77.1,144,96.9c-53.7,25.1-99.3,63.9-143.6,102.4c-20.3,20.1-37.1,43.6-54.1,66.7      c-11.3,15.4-10.7,19.6,7.1,22.4c39.2,8.5,78.4,0,117.6-3.8c53.3-4.5,105-21.4,151.4-47.4c0.2,1.1,0.8,2.4,0.4,3.3      c-6.4,12.7-6.5,26.9-7.2,40.2c-2.4,38.5,0.7,78.6,11.8,115.8c1.9,5-1.1,15.9,8.5,14c7.5-1.5,14.1-7.9,20.8-12.7      c31.2-23.8,61.5-49.7,83.5-82.3c1.7-2.6,2.3-6.3-1-8c-3.4-1.9-5.1,2.7-7,4.9c-6.5,8-12.3,16.7-19.2,24.3      c-5.1,6.8-75.6,73.5-77.6,62c-7-41.9-16.5-84.3-10.4-126.9c2.4-13.1,3.3-26.6,5.1-39.8c0.3-2,0.2-3.5-1.5-4.8      c-9.4-3.6-25.5,14.3-36.4,16.3c-13,4.2-25.4,10.4-38.5,14.5c-65.1,19.6-137,31.3-204.5,21.5c47.8-71.9,116.2-126.9,190-170.6      c10.1-6.9,27.9-10.6,4.8-21.9c-49.8-20.8-90.9-57-134.9-87.5c-6.1-4.5-6.7-8.9,2-11.1c54.4-16.2,112-15,167.2-3.8      c14.6,1.6,28.5,10.1,43.4,6.7c-1.3-9.6-6.1-18.2-8.5-27.4c-3.7-15.3-6-31-10.5-46c-11-42.7-16.6-89.2-6.8-132.2      c14.1,11,25.3,25.1,37.9,37.7c21.3,20.6,40.5,43.3,57.1,67.9c14.4,18.7,27.9,39.2,36.5,61.2c2.2,6.1,10.6,10.7,10.6,17.5      c-0.1,2.5-1.1,4.9-2.7,6.8c-9.9,12.9-20.6,25.2-30.7,37.4c-17.6-28.4-28.7-59.4-43-89.4C887,82.3,883,60.5,871.9,41.8      c-4.8,3.7-8.5,7.7-7.1,14.6c3.4,16.7,3.5,33.8,7.7,50.5c3.7,14.5,3,30.2,6.8,44.7c7.3,27.8,11.8,56.6,25.4,82.4      c2.7,11.9-17.3-1.6-22.1-2.4c-48.5-20.6-98.7-38.1-150.8-46.3c-11.9-1-23.9-0.5-35.8-0.1c-1.5,0.1-3.1,3.7-4.1,6      c-0.2,0.5,1.8,2.6,3.1,3.1c29.5,12.6,60.2,22.4,89.5,35.2c23.3,11.1,45.9,23.7,68.9,35.4c20,10.2,20.1,10.1,8,20.5      c-18.4,15-35.4,31.4-56.4,43c-49,34.6-102.8,60.5-156,87.8c-2.1,1.1-5.8,3.6-5.6,4.1c1.3,3.3,4.7,3.1,7.7,2.8      c89.6-20.6,179.2-56.3,251.1-114.3c2,8.9-1,18.8,1.3,27.4c2.9,11.1,1.9,22.1,0.6,32.7c-1.6,12.6,0.4,25.4-2.8,38      c-1.9,7.6-0.7,16-1.7,23.9c-2.5,33.2-13,65.4-13.1,98.9c7.4-0.3,11-7,13.6-12.8c7.8-16.7,17.5-32.5,23.2-50.3      c18.2-53.9,32.2-110,28.9-167.4c5.9,2.2,18.5,14.2,23.8,11.1c3.3-1.1,2.2-3.4,1-4.8c-4.9-8.8-15.3-10.2-23.4-14.5      c-5.3-2.8-8-0.4-8.3,4.5c0.9,75.3-15.8,147.7-50.3,215.7c1.6-23.4,9.4-44.3,11.8-67.4c0.9-16.5,20.9-157.3-10.9-140.6      c-60,50.2-130.4,77.3-204.4,101.7c5.2-4.6,6.7-6.9,8.8-7.6c25.6-9.5,48.1-24.8,71.5-38.4c37-23.7,75.3-45.7,105.1-78.5      c5.4-5.3,1.8-10.4-3-13.1c-14.1-8.1-28.4-15.8-42.9-23.2c-38.2-20-76.3-36.9-117.7-50.3c15.9-6.1,29.2,3.6,44.7,5.1      c21.8,2.8,42.3,10.5,62.9,17.1c25.2,8.1,49.5,19.2,74.2,28.8c10.3,5.9,21.8,1.7,17.8-11.6c-7.1-25.1-15.5-49.9-21.6-75.2      c-3.9-27.4-11.5-54.2-14.5-81.7c-2.4-1.8-1.6-4.1-0.1-6.4c11.7,39.2,31.5,77,50.1,114c8.8,15.8,13.7,17.9,26.2,5.6      c6.6-6.6,12.6-13.8,17.8-21.6c4.3-6.4,13.3-13.3,9.6-21.8c-8.5-19.2-17.5-38.4-28.9-55.9C919.6,40.6,881.6-6.2,835.8-43.7      C811.1-56,820.8,6.4,819,18.7c-1.2,47.6,14.3,94,25.5,139.8c-5.6,1.3-9.5-3.5-14.8-3.6c-16.6-0.6-32.3-6.6-48.8-8.8      c-21.5-2.9-42.8-3.7-64.3-3.4C703,142.8,603.6,151.7,635.9,176.6z M973,225.4c2.9-3.7,4.2-8.5,5.9-12.8c0.2-0.3-1.6-1.4-2.9-2.6      c-11.1,8.8-19.2,20.6-28.3,31.4c-3.6,4.8-8.6,11.1-0.8,17c9.5,6.5,18.4,15,29.1,19.2c12.5-6-12.1-14.3-15.4-18.9      c-3-2.9-10.9-5-8.3-9.1C957.9,240.8,966.3,233.7,973,225.4z M956.6,876.3c-12.6-0.6-11.4,23,1.6,21.4c6.5,0.2,12.4-1.9,10.6-11      C971.2,876.1,963.1,876.6,956.6,876.3z M959.8,1019.4c-6.5,1-16.9-1.3-15.2,8.1c0.8,13,7.3,17.2,15.5,16.4      c10.9-1.2,6.3-11.4,7.6-17.7C968.6,1021.8,963.1,1018.9,959.8,1019.4z M947.8,664.1c-18.8,0.5-15.7,34,3.7,28.9      c9.4-2,10-10.3,11.6-17.8C961,667.4,955.2,663.9,947.8,664.1z M959.6,742.7c-0.3-11.1-11-8.7-16.1-8.8c-5.9-0.2-8.6,7.8-8.5,14      c0.1,7,1.9,13.7,11.5,13.4C959.2,760.9,959.9,751.9,959.6,742.7z M945.3,597.9c-14.1,0.7-16.9,30-0.2,27.1      c13.4,1.9,11.9-10.3,13.2-16.2S952.7,596.5,945.3,597.9z M947.1,841c13.4,1.7,15-24.1,1.1-23.2c-8,0.3-14.4,1.7-13.2,11.5      C933.9,838.9,940.2,840.6,947.1,841z M923.2,975.7c0.3,4.9,2.2,11.4,8.9,11.1c6.4-0.3,14-1,12.6-12.2c-2.1-3,1.7-11.1-7-11.5      S922.6,966.1,923.2,975.7L923.2,975.7z M921.1,916.7c1.1-15.8-21.7-13.1-21,1c-0.1,6.7,3.8,10.2,9.8,10      C916.7,927.5,919,921.5,921.1,916.7L921.1,916.7z M911.1,735.6c0-15-2-16.7-16.7-16.6c-10.6,0.1-7.3,9.3-8,14.5      c-1.5,10.6,7.4,11.4,14.6,11.4C906.3,745,910.8,740.9,911.1,735.6L911.1,735.6z M895.9,1048.3c14.3,0,15.8-29.7-2.1-25.3      c-12.5-2.4-11.7,8.2-12.3,14.7C880.6,1047,890.3,1048.7,895.9,1048.3L895.9,1048.3z M882.5,787.3c-1.6,14,23.3,14,22.3,0.7      C904.6,774,881.9,767.8,882.5,787.3L882.5,787.3z M881.4,977.5c7.5-0.2,9.3-6,10.3-15.8c1-4.6-4.6-5.8-10.1-5.7      C867.5,954.9,866.8,979.6,881.4,977.5L881.4,977.5z M873.4,657.6c-15.1,1.4-13.6,26.8,1.8,25.2      C893.6,684.7,888.2,656.6,873.4,657.6L873.4,657.6z M850.1,849.3c6.9,0,7.5-7.3,7.8-12.4c0.5-8.8-6.5-10.3-13.3-11      c-9.6-1-10.5,5.1-9.6,11.5C833.8,850.3,843.4,849.3,850.1,849.3L850.1,849.3z M560.7,1490.3c-73.9,49.4-162.8,71.8-251.2,71.1      c5.5,11.4,10.3,23.2,15,34.9c0.1,4.5-3,9.1-6.7,3.7c-13.2-27.9-27.3-55.5-38.5-84.3c-1.4-3.7,2-6.8,6.1-6.7      c55.3-1.2,103.6-8.8,160-17.1c-54.7-1.6-108.6-5-163-0.2c-5.4,0.4-3.8-4-3-5.6c30.7-57.1,74.1-106.1,105.4-163.1      c-7.3,1-7.8,8.3-11.6,12.1c-28.2,29.2-51.4,62.8-77.5,93.9c-8,10-16,20-24,29.9c-11,13.5-13.1,13.4-20.2-2      c-25.3-51.7-42.6-107.6-77.2-154.3c22.4,53.3,38.6,108.9,61.3,162.2c2,5.3,7.9,11.7,4.3,15.8c-4.6,5.3-13.7,3.6-20,1.9      c-12.4-3.3-24.8-0.7-37.3-3s-25.8-4.8-37.9-3.7c-21.6,1.9-42.9-3.8-64.7,0c55.6,12.8,111.7,21.4,167.7,31.7      c3.6,0.6,3,2.6,1.6,4.6c-21.8,29.1-40.4,62-64.5,88.7c-0.3-2.3-1.9-5.5-0.9-6.9c17.9-26.5,36.5-52.5,54.3-79      c-3.6-1.3-7.3-3.5-11-3.7c-28-1.7-54.7-9.9-82.1-14.6c-33.5-7.6-69.5-11-100.9-25.1c8.2-8.4,52.3-5,65.1-4.1      c40.6,3,80.9,4.2,121.3,8.8c-4.1-19.2-15.5-36.7-21.5-55.6c-8.5-22.9-15.3-46.5-24.4-69.2c-18.1-43.4-36-86.9-55.2-129.8      c-0.7-1.5,0.1-3.6,0.3-5.5c56.3,71.2,96.2,156.8,132,240.6c51.3-55,91.6-119.3,146.4-170.4c1,17.3-12.2,32.1-20,46.5      c-29.7,54-69.3,99.9-101.8,152.2c47-5.2,92.9-1.5,139.8-1.9c12.9,1.2,28.5,1,40.5,5.4c-13.4,11.8-33.4,8.8-49.1,14.9      c-40.8,8.3-83,8.6-124.5,13.7c-3.6,0.4-2.1,2.5-1.3,4.3c4.5,10.4,8.8,20.8,13.5,31.1c1.8,4,5.8,2.7,8.9,2.4      c86-5.3,176.8-24.4,246.5-77.1c-1.2-0.9-2.3-2.4-3.5-2.5c-13.3-1.2-24.4-8.6-36.5-13c-43.6-13-88.9-25.9-134.8-22.7      c-1.2,0.1-2.9-1.8-3.9-3.1c-1.4-1.7,0.8-2.4,1.4-3.6c32.3-61.2,54.2-128.4,61.3-197.3c-56,33.5-114.9,68-155.5,120.3      c-7.2,9.1-13.5,8.9-19.9-1.3c-7.9-12.7-16-25.4-25.1-37.2c-33.1-41.4-63.4-85.9-104.4-120c-14.1-13-29.1-24.9-44-37      c-3.6-2.2-10.7-7.9-14.3-6.6c10.5,19.5,16.4,41.5,23,62.8c5.3,14.7,5.4,31.2,8.8,46.6c3.5,16,8.1,31.7,12.3,47.5      c11.2,36.9,16.1,76,38.2,108.6c2.6,4.2,9.6,7.1,6.6,13.9c-0.8,1.8-4.2,4.2-5.2,3.7c-23.4-5.1-47.8-9.4-71.7-8.8      c-11.4,0.1-23.4,0.6-34.7,0.2c-20.5-0.7-39.4,5.5-58.7,9.8c-12.5,1.8-23.8,7.3-35.1,13c-4.1,1.9,0.2,4.9,1,6      c32.4,44.7,87,58.5,137.3,73.1c22.8,5.3,46.1,10.7,69.3,13.1c12.6,2.8,4.5,10.3,2.4,15.4c-5.6,13.6-12.1,26.8-18.4,40.1      c-1.2,2.8-5.4,3.8-7.4,1.4c22.5-76.9,45.6-31.6-62.2-63.5c-48-11.5-97.9-33-126.8-75.2c-6-10.3,2.2-23.6,16-26.6      c11.8-2.5,23-7.6,34.7-10.6c29-9.1,59.1-6.9,89-5.7c17.8,0,35.2,2.9,52.5,6.4c3.1,0.6,6.1,0.1,2.6-3.8      c-23.5-29.8-29.3-67.9-37.8-103.8c-8.6-28.4-14.3-57.3-20-86.4c-7.6-29.9-13.8-60.3-31.5-86.6c-0.8-1.1-0.3-4.6-0.1-4.6      c3.4-0.4,7.6-1.8,10.2-0.4c72.5,39.9,127.2,103.6,173.8,170.8c9.6,13.2,18.7,26.5,26.5,40.8c1.6,3,3.6,1.4,5-0.5      c19.2-29.5,48.9-48.5,76.2-69.7c26.2-18.8,52.7-36.9,82.1-50.3c3.2-1.8,3.9-3.5,1.2-7.3c-21.4-31.2-39-65.1-57.9-97.8      c-37.3-73.6-68-149.2-90.7-228.8c-5.4,16.4-20.7,63.8-36.6,67.9c-32.1-13.7-40.6-101.9-40.3-134c3-7.2-4.3-3.5-7.6-0.7      c-45.1,33-99.5,49.4-154.5,55.8c-9.3,1.4-17.8-0.2-26.3-2.5c-7.7-2.1-1.8-9-0.8-10.8c33.2-57.2,85.3-101,137.2-140.6      C113,710.9,60.6,687.9,30.6,639.9c-4.5-13.1,51.9-20.5,61.1-19.8c17.4-0.5,35.8-0.8,53.5,4.2c7.8,2.2,16.3,4.2,24.3,4.1      c7.3,0,4.4-9.4,4.6-13.3c2.3-37.7,16.7-74,40.3-103.5c3-3.2,0.9-11.7,0.3-17.7c-0.9-9.9-2.7-19.8-3.8-29.7      c-2.1-14.9-1.9-30.4-4.9-45c-8.5,12-72,81.1-78.9,46.4c-7.5-35.8,5.6-71.6,13-106.4c2-10.4-7.1-1.8-9.5-1.3      c-43.1,9.4-88.4,9.6-130.8-3.5c-9-2.4-17.7-5.7-26-9.9c-5.8-3-2.6-9.6,0.4-12.5c8.6-8.3,17-17,25.7-25.3      c24.4-26.1,57.7-41,90.1-54.7c6.1-2.9-2.3-7.9-4-10.5c-33-55.6-55.5-118-63.2-182.3c-4.9-12.1-1.2-26,15-18.2      c63.2,26.4,118.9,71.3,160.4,125.4C217.5,109.9,256.9,63.7,305.4,30c9.2-6,7.4,27.8,7.3,32.1c1.3,44.7,16.4,87.9,14.3,132.6      c0,3.2,0.8,4.8,4.1,4.1c43.5-5.6,84.9,13.2,125.5,25.6c25.5,8.6-53.3,64.7-64.5,69c-16.6,8.7-32.9,17.8-51.5,24.8      c39.5,2.4,77.1,4.5,116.3,4.4c14.9-0.1,10.4,10,10.8,17.4c0.8,15,0.8,30.1,1.5,45.1c3.8,72.9,10.7,145.6,19.6,218      c1,15.6,14.4,15.5,23.2,21.2c45.2,27.3,78.3,69.2,104.5,114.6c1.4,2.2,5.1-2,8.6-8.2c7.4-13,18.8-22.3,29.6-32.5      c9.8-9.1,19.5-18,30.9-24.6c26.9-15.8,55.1-29.3,84.3-40.5c22.3-8.4,45.4-14.9,63.5-31.7c4.4-3.2,11.9,2.5,8,8.1      c-6.2,17-11.7,34.2-18,51.1c-23.7,65.3-65.8,122-111,174c-3.2,3.3,1.8,1.8,1.8,3.2c44.1,1.1,83.2,21,120.8,41.9      c8.6,4.2,14.3,11.7,21.9,17c2,1.4,5.3,2.9-0.7,6.8c-50.2,27-108.5,38.5-165,34.4c-2.3-0.5-0.2,7.2,0.5,10.8      c3.9,19.7,3.6,39.3-0.1,58.9c-5.3,29.5-9.9,59.7-23.3,86.7c-6.4,14.3-8.3,26,1.4,39.9c20.1,31.8,38.3,64.8,58.2,96.7      c11.6,16.7,31.5,45.7-5.4,45.3c-51.5,2.3-102.4,9.2-153.5,14.7c-20.5,2.7-41,5.2-61.4,7.9c-13,1.7-18.7-8.4-25.2-16.3      c-8.7-10.6-16.1-22.2-24.3-33.1c-1.9-2.6-3.5-5.2-3.6-12.1c-8.5,68.7-24.3,131.5-59.2,190.8c58.3,3.4,116.7,17.1,169.1,43      C574.8,1476,573.4,1482.6,560.7,1490.3L560.7,1490.3z M494,630.4c12.6,64.9,25.3,129.9,42.3,193.9c1.5,5.5,0.7,12.9,6.5,16.3      c11.8,6.8,23.9,13,36.1,19.5c-9.8-28-13.6-58.8-25-86.3c-8.2-21.8-16.8-43.6-28.8-63.9c-1.3-2.5-0.6-5.6,1.6-7.3      c4.8-0.8,9.8,7.7,13,10.9C568,752.1,593,792.9,608,838.6c52.1-60.7,107.5-119.7,172.7-166.6c2.4-1.6,4.3-2.5,6.2,0      c2.9,3.8-1.1,7.1-2.5,8.4c-17,15.7-34.8,30.6-50,48.1c-12,13.8-26.2,26.1-35.8,41.3c-23.1,31.4-49.7,60.8-69.3,94.5      c26.5,1.6,53.2,0.7,79.6,6.5c4.2,0.5,91.1,17.4,67,22.3c-18.8,2.1-38.1,0-57.2,1.7c-33.3-1.9-66.3-1.5-99.4,2.3      c-1.6,0.1-2.4,0.1-1.3,2.3c23,46.6,31.5,100.1,32.1,151.6c-2.6-2.4-5.1-5-7.4-7.6c-12.2-38-24.3-78.2-45.7-112.7      c-3.5-6.7-3.9-7-8.9,2.9c-3.5,7-11,13.8-7.9,22c20,52.5,47.7,100.5,73.5,150.5c20.7-46.3,33.2-99,29.6-150.2      c-1.1-7.9-5.6-18.1,2.4-24.8c7.5-6.2,17.2-0.3,26.1-1.7c43-2.8,85.7-8.5,125.5-26.2c11.9-2.8,10.8-6.5,0.8-12      c-38.8-21.5-80.1-39.5-124.6-44.6c-5.3-0.8-13,1.6-16.2-4.3c-2.9-5.2,3.9-6.4,6.5-9.3c54.5-62.5,101.9-134.2,124.6-214.3      c-70.3,35.2-157.3,52.9-201.6,124.8c-4.5,7.4-12.2,14.8-16.8,2.8c-26.8-48.8-65.9-95.1-116.1-120.2      C493.9,627.5,493.9,629,494,630.4z M565.2,917.5c2.8,7.8,5.9,15.5,9,23.5c4.4-9.2,8.4-18.3,13.2-27.1c0.5-1,1.4-8.3,5.5-3.4      c20.5,23.1,28.8,49.5,42.4,78.1C632,956,624,927.8,608.6,900c-8.9-15.2,2.6-10.6,9.2-11c10-0.6,20-1,30-1.2      c20.3-0.2,40.4-4.1,60.8-1.4c9.2,1.2,18.8,1.4,30.2-2.3c-38.5-8.6-72-10.8-110.1-12.6c-6.5-0.5-20.7,2.4-8.2-12.1      c4.7-5.4,8.2-11.9,12.4-17.7c12.4-17,24.6-34.3,37.6-50.9c5.9-7.5,12.7-14.3,18.3-27.3c-121.3,118-49.9,121.5-132.7-12.6      c0.6,6.6,0,9.4,1.1,10.9c6.8,9.1,8.8,19.9,11.8,30.3c6.2,21.6,12.3,43.2,17.3,65.1c0.8,3.7,6.2,8.6,0.7,12.6      c-5.8,4.3-9.5-1.7-13.8-3.9c-9.2-4.7-18.1-10-27.9-13.3c1.3,4.7,1.7,10,4.1,14c1.7,2.9,6,4.7,9.4,6.1      c18.6,7.5,22.1,17.8,11.9,34.1C568.7,910.3,563.5,912.5,565.2,917.5L565.2,917.5z M556.6,881.7c-0.9-0.4-1.8-0.6-2.7-0.9      c-1.9,6.7,5.4,17.1,7,24.1C571.5,894.2,568.5,886.8,556.6,881.7L556.6,881.7z M206.3,400.7c0.2-11.7-1.6-23.5-2.7-35.7      c-90.2,137.2-25.8-15.5-1.7-60.5c-14.3,1.5-25.9,7.9-38.8,9c-35,4.3-69.6,11.7-104.9,13.2c-9.8,1.2-19-4.1-28.5-0.6      c-10,5.2-15.3-5.9-5.2-10.6c49.5-23.2,101.8-39.6,156.5-43c-7.3-2.7-135.4-190.7-99.8-168.4c47.7,45.8,82.3,104.3,130.9,149.1      c8.7-33.9,20-67.7,35.2-99.6c6.9-15.3,14.5-30.2,22.4-44.9c6.9-10.9,16.3-7.3,9.7,4.2c-1.1,1.9-1.8,3.9-2,6.1      c-0.4,14.3-7,27.2-9.4,41c-6.3,35.3-18.2,70.2-18.5,106.3c17.4-6.9,34.7-13.7,53.2-17.8c6.9-2.4,114.7-18.1,89.8,2.1      c-44.4,11.6-88,26.7-129,47.6c4.4,5.5,7.8,14,13.4,15.9c9.5,3.1,19.5,3.8,29.4,2.2c53.5-9.3,102-38.1,140.7-75.7      c9.1-8.9,3.7-9.6-4-11.6c-38.6-8-77.8-28.6-117.8-19.6c-7.1,2-8.6,0-7.8-5.7c1.5-12.1,2.5-24.1,0-36.2      c-4.4-25.5-6.8-51.8-11.7-77.1c-2.8-16.4-0.4-32.3-2.8-48.3c-43.4,30.8-76.4,76.3-95.7,125.9c-6.5,24.2-18.9-4.6-27.5-11.3      C139,113.5,91.7,75.4,37.1,51.4C22,37.6,41.2,113.5,43.5,118c15.3,45.1,31.1,91.6,58.1,131.2c5.3,7,1.3,8.3-3.2,9.5      c-42.9,13.6-80.9,40.8-112.3,72.4c-4.7,4.9-8.7,9.8,2.5,12.6c11.6,3,22.7,7.5,34.7,8.7c17,1.6,34.1,3.6,51.1,4      c23.5-1,47.2-6.6,70.1-12.1c7.6-2.7,10.2,2.6,8.2,8.9c-11.6,35.9-19.6,74.2-15.3,111.9c0,2.6,1,1.2,2.3,0.5      C166.6,451,192.7,428.1,206.3,400.7L206.3,400.7z M201.8,325.3c-7.3,10-10.6,22.9-15.6,34.3c-4.1,11.1-11.9,20.8-13.1,34.3      C188.3,373.1,209.9,353.3,201.8,325.3L201.8,325.3z M207.5,310.7l54.3,2.9c-8.1-7.8-13.7-15-2.6-21.3      c34.9-21.2,69.6-30.5,109.7-43.7c-42.1,3.8-78.6,10.4-116.7,26c-5.9,2.1-14.8,4.2-13.1-8.2c2.1-15.4,3.6-30.9,6.2-46.2      C249.7,193.5,260,168,263,141c-19,37-31.1,77.2-42.4,117c-0.7,2.5,0.4,8-5.2,8.3c-10.6-1.1-16.4-16.9-24.9-22.9      c-34-32.8-59.5-70.2-89.2-107.5c-0.1,2.1-0.5,3.1-0.1,3.7c24.3,42.3,50.2,83.5,80.4,121.9c20.3,15.3-4.8,19.4-18.9,21.5      c-42.5,5.7-84,15.8-122.4,35.8c31.5-0.9,62.8-4.2,93.8-9.7c19.3-2.8,38.5-5.1,57.1-11.5c5.6-2,13.4-3.1,18.6,1.1      C214.1,302.3,208.2,306.6,207.5,310.7L207.5,310.7z M286.6,877.6c-12.9-41.4-21.9-84.1-34.4-125.7c-26.7,21.7-55.3,42.4-86.3,58      c-13.7,5.4-59,31.5-70.2,26.6c-0.3-0.2,0.2-1.9,0.7-2.3c20.4-18,45.7-29.6,66.8-46.5c23.1-19.8,49.6-37.7,69-61.1      c-18-4.2-124.6-47.5-125-62.8c0.4-0.9,2.1-2,2.9-1.7c42.7,10,84.7,24.6,128.4,29.7c-10.8-56-15.4-112.4-21.5-171.8      c-20.7,34.2-33.5,66.7-34.4,106.2c0,4.4,2.7,16.3-9.8,12.2c-17.9-6.5-37.1-5.5-55.7-8.7c-17.5-2.5-34.7,1.5-52.1,2.4      c-8.8,0.5-17.1,4.1-25.7,8.4c39.3,45.4,76.4,62,130.5,84.7c3.8,1.8,8.4,4.3,2.6,9.3c-49.3,44-107.5,82.8-139.2,142.5      c18,3.2,35.4-2.3,52.6-5.7c47.8-7.4,89.8-33,130.9-57.2c1.9-1.1,2.9-4.3,6.1-2.5c2.8,1.6,2.2,4.2,2.1,6.6      c-0.8,46.2,5,94.8,28.3,134.9c5.3,4.1,6.3-3.8,7.2-5.5C268.1,930.4,288.5,895,286.6,877.6L286.6,877.6z M239.3,701.5      c-31.2-6.1-62.7-13-93.7-20.8l-0.4,1.4c27.1,14.7,56,25,85.2,34.5c4.8,1.6,11.2,5.5,13.4-2.1C244.8,710.6,244,703.1,239.3,701.5      z M224,747.7c-24.9,22.6-51,43.6-79,62.3l0.6,1c31.9-14.1,61.4-33.3,89.3-54.3c9-7.2,18.9-13.1,12.2-27      c-0.6-1.1,0.3-3.8-2.3-1.4C237.8,734.7,231.1,741.4,224,747.7z M447.4,1213.2c13.4,19.5,26.7,38.9,40.7,57.9      c5.9,7.9,8.5,17.3,22.6,14.2c16.5-3.6,33.8-3.7,50.7-5.5c55.4-6.5,110.8-13.9,166.7-15.1c1.3,0,6.9,1,3.5-4.6      c-57.5-93.3-117-186-158.9-287.6c-45.3-105.7-67.9-219.3-88.4-332.1c-19.3-99-25-200.1-26.8-300.6c0.1-1.1,3-6.3-2.4-6.7      c-46.7-2.7-93.5-4.4-140.2-5.9c-34.2-1.6-68.9,0.1-102.8-4.1c-1.4,0-3-0.5-2.8,2.2c0.9,8.9,1.4,17.8,2.3,26.7      c11.4,108.2,19.6,216.8,35.8,324.4c17.7,82.2,40.7,163.4,63.1,244.3C344.5,1022.9,388.5,1122.4,447.4,1213.2z M844.8,753.7      c2.3-12.8-23.5-12.9-22.6,4c-0.7,11.7,9.3,11,15.3,10.8C845.7,768.3,843.8,759.2,844.8,753.7z M808.8,953.2      c-12.5,1.7-10,24.6,1,23.9c12.6,0.3,14-6.8,13.8-14.2C823.3,953.2,815.7,951.8,808.8,953.2L808.8,953.2z M783.8,1422.9      c-17.5,0.5-22.7,29.4,1.3,24.6C796.9,1448,799.5,1419.8,783.8,1422.9L783.8,1422.9z M779.7,797.1c-14.4-0.3-11.5,23.3,1.1,24      C797.6,819.2,795.7,796.3,779.7,797.1L779.7,797.1z M770.9,1565.1c-19.6-0.2-23.7,22.5-4.8,26.1c8.5,0.9,13.8-2,13-11.7      C779.1,1570.3,776,1564.5,770.9,1565.1L770.9,1565.1z M774.5,1498.4c0.4-5.4-3-11.3-9.9-10.3c-7,1-15.5,2.6-15.4,12.2      c0.1,9.3,7.3,12.1,16.5,13C773.2,1511.9,774.1,1504.4,774.5,1498.4L774.5,1498.4z M761.4,110.6c7.3-0.1,10.5-6.9,9.6-15      c1.9-10.7-4.3-13-13.8-12.1C738.8,86.6,742.8,112,761.4,110.6z M712.1,1426.9c-6.5,1.3-6.4,8.1-6.5,12.2      c-0.3,9.1,6.4,12.2,17.3,12.3c10.1,0.9,10-10,9.6-16.6C731.7,1420,720.5,1425.1,712.1,1426.9L712.1,1426.9z M714.4,50.7      c10.9-0.5,13.2-10.1,14.2-18.1c0.8-5.9-4.6-9.6-12.8-9.8C701.4,24.4,694.7,53.1,714.4,50.7z M708.1,1529.4      c-9.4-0.2-9.8,8.4-9.8,15.1c-0.1,9,7.3,9.8,15.9,10.9c7.5-3,6.3-10.8,5.4-17.2C718.7,1532.7,712.2,1529.5,708.1,1529.4z       M677.8,1480.9c-14.1-1.4-15.6,21-3.7,21.7c6.7-0.2,13.7-3.1,13-10.9C687.2,1483.9,684.4,1480.7,677.8,1480.9z M668.9,1418.8      c2.6-18.5-24.4-17.1-22.9,0.1C644.8,1434.3,671.3,1434.8,668.9,1418.8z M637.3,102.9c23.3,2.9,23.2-23.6,3.9-25.7      c-10.8-2.2-10,8.4-11.8,14.1c-1.3,4.9,1.6,10,6.5,11.4C636.4,102.7,636.8,102.8,637.3,102.9z M641.9,1559.3      c-17.5-1.6-14.3,26.9,0.3,26.8C654.9,1587,658,1559.8,641.9,1559.3z M609.9,1450.4c-7.4-0.8-12.8,4-12.7,11.5      c0.1,5.6,4.4,9.2,12,9.3c6.5,1.1,6.1-5.3,6.5-9.8S615.4,1451,609.9,1450.4L609.9,1450.4z M589.9,1514.6      c-12.3-1.2-12.7,24.5-0.6,23.5C606.5,1538.8,607.6,1514.2,589.9,1514.6L589.9,1514.6z M573.4,94.8c15.5,1.5,11.1-27-2.7-25.6      C558.5,70,556.1,95.1,573.4,94.8z M567.3,209.7c8.7-0.1,15.3-4.8,13.8-14.6c0.2-9.2-4-13.2-11.6-14.3      c-10.8-1.5-11.6,5.9-12.3,12.9C556.3,201.3,557,209.8,567.3,209.7z M538.5,1395.6c2.4,13.1,22.8,11.8,22.7-2.2      C560.2,1377.9,533.9,1376.7,538.5,1395.6z M532.6,46.1c19.4,1.5,20.6-28.4,3.3-25C517.9,15.9,518.3,46.4,532.6,46.1z       M526.8,1545.2c-19.8,0.5-18.5,28.8,0.3,27.8C542.2,1573.4,542.9,1544.8,526.8,1545.2L526.8,1545.2z M481.9,108      c10.5,0.4,11.1-7.8,11.7-17.2c-1.7-8.7-10.1-7.6-16.7-7.6c-7.7,0-7.1,8.1-7.5,12.4C468.8,103.2,474.7,107.8,481.9,108z       M466.9,1575.4c-6.3,0.3-12.7,4.7-11.9,14.3c-1.8,7.5,3.1,9.6,7.9,10.2C481.9,1604.6,485.7,1575.5,466.9,1575.4L466.9,1575.4z       M442.5,62c15.1-1,17.4-27.1,0.9-26.5C429.3,34.6,425.3,63.7,442.5,62z M424.9,169.9c13,0,17.8-29.7,4-28.9      C410.7,138.4,405.9,172.2,424.9,169.9z M389.5,94.6c16.6-0.8,13.7-24.2-2.9-24.4C373.5,71,375.7,97.3,389.5,94.6L389.5,94.6z       M368.9,43c16.6,3.2,15.2-23.5-1.7-21.5c-6.7,0.6-7.6,8.2-8.3,14.3C358.1,43.6,363.2,43.4,368.9,43z M370.5,119.2      c-12.3,0.1-11.7,23.9,1.3,21.6C384.7,139.2,382.5,118.8,370.5,119.2L370.5,119.2z M263.7,1539.2c-1.3-3.7-3.2-9.8-8-4.2      c-17.1,19.8-33.5,40.1-50,60.3c-1.1,1.3-1.3,3.1-0.7,4.7c2.3,4.5,4.4,3.3,6,0c13.6-16.8,26.9-33.9,40.6-50.6      c1.4-1.7,4.2-7.8,6.4-3.9c4.9,8.9,7.6,18.9,12.1,31c-8.8,4.6-16.1,14.1-24,20.5c-5.2,4.3-0.7,8.5,4.6,5.3      c7.7-5.8,14.9-12.2,21.6-19.1c8.4,8,1,14.5,10.1,15.7c4.3-0.1,1.3-3.1,0.6-5C279.2,1574.8,270.3,1557.3,263.7,1539.2      L263.7,1539.2z M235.9,35.6c10.6-0.1,8.8-9.2,10.1-16.3c-0.5-7.3-7.5-10.5-12.2-9.7C220.9,11.8,220.8,37.1,235.9,35.6z       M210.8,982.8c6.4,0.7,6.7-5.7,7-9.9c0.6-8.6-4.5-12-12.7-11.9c-7.1,0.1-7.9,4.8-8.2,10.1C196.1,981.5,204.2,982.2,210.8,982.8z       M206.3,85.4c9.2-1.8,10.4-10.3,10-15.9c-0.4-6.1-7.8-10-14.2-10.4c-8-0.4-11,6.1-11,12.7C191.2,81.4,199.7,82.6,206.3,85.4z       M190.7,1027.2c-10.7,1.8-9.5,23-1.3,21.6C203.8,1051.6,205.5,1024.9,190.7,1027.2z M176.5,30.5c13,1.5,14.3-24.1,0.7-22.7      C167,7.9,160.3,29.3,176.5,30.5z M154.5,933c-6.9,0.5-6.7,7.6-7,11.3c-0.7,8.6,5.8,11.1,13.5,10.8c7.5-0.3,5.6-6.7,6-7.7      C170,932.7,162.3,932.5,154.5,933z M144.1,71.3c8.4-0.7,9.3-7.3,9.8-13.3c0.8-9-7-11.2-13.1-11.9      C125.2,46.4,129.8,70.9,144.1,71.3z M133,1004.2c1,10,18.6,12.4,17.9-0.5c0-4,0.5-10.5-5.9-10.4      C139.6,993.3,132.9,993.8,133,1004.2z M125.8,1059.1c-10.8,0.4-8.4,25.6,4.4,22c8.2,1.2,10.4-3.9,11-10.8      C142,1058,133.7,1058.4,125.8,1059.1L125.8,1059.1z M112.3,914.8c-8.8,0.1-8.9,5.8-9.1,7.4c-0.5,9.5-0.5,15.3,6.4,14.6      c5.7-0.5,13-2.5,13.8-8.9C124.3,921.3,122,914.7,112.3,914.8z M87.4,975.9c5.4-0.6,12.8,0.6,11.9-11.1c1.9-12.6-20-12-19.6,0.5      C80,969,79.4,976.8,87.4,975.9z M87,524.4c8.4-0.6,7.5-10.1,7.9-13.7c0.2-8.4,1.8-13.6-7.1-14C66.6,495.5,65.9,527,87,524.4z       M69.4,22c-0.2,8,7.8,9.3,14.1,9.4c7.8,0,9.4-6.3,9.4-12.5c0-8-3.9-12.6-13.1-11.8C67.2,4.7,69.5,15.8,69.4,22z M71.1,1026.2      c0.7,7.3,6.7,9.4,12.6,9c6.3-0.4,5.4-6.3,5.7-12.8c2.1-8-4.2-8.1-11-7.5C71.3,1015.6,70.6,1020.9,71.1,1026.2L71.1,1026.2z       M55.9,1342.9c0.3,7.9,3.6,13.2,11.6,12.2c11.3,0.7,11.3-7.4,11.3-13.6C77.2,1324.3,53.8,1324.1,55.9,1342.9z M51.1,1058.9      c-12.5-0.2-11.9,20.1,0.3,20.4C62.2,1077.9,63.7,1058.1,51.1,1058.9L51.1,1058.9z M43.7,910c-6.9-0.5-8.4,6.8-8,9.8      c0.6,4.8-0.3,14.2,10.1,11c10.7,2.7,9.6-5.8,10.2-11.6C57,910.1,49.6,910.5,43.7,910z M31.6,1200c0.8,4.2-1.6,14.5,9.1,10.9      c9,1.5,11.9-2.6,12.6-10.9c1-11.1-7.7-11.1-13.8-11.6C32.9,1187.8,30.6,1195.3,31.6,1200L31.6,1200z M30.9,460.5      c15.3,2.3,20.9-27.4,3.5-27.6C19.3,432.1,17.6,458.9,30.9,460.5L30.9,460.5z M10.6,526.9c1.8,5.6,0.4,14.7,9.6,13.8      c14.3-1.4,18.9-11.3,16.6-24.6c-1.2-6.8-8.4-6.4-12.4-6.3C14.3,509.8,12.6,518.6,10.6,526.9z M22.7,980.9      c-9.2-0.6-8.9,7.2-9.3,12.3c-0.3,3.6,0.5,9.9,7.5,9.9C38.6,1005.3,40.9,980.5,22.7,980.9z M16.6,1286.2      c5.9,0.2,16.6-0.4,14.4-12c1.3-10.6-6.1-14.2-13.5-14.8C3.4,1258.4,4.4,1285.4,16.6,1286.2z M22.6,1119.2      c-4.4,0.5-11.8-2.3-11.8,7.8c1.5,4.7,1.2,11.9,9.6,12C32.3,1140.6,35.8,1118.3,22.6,1119.2L22.6,1119.2z M6.2,1367      c1.2,12.5,20.3,12.9,20-0.2C27.2,1351.9,4.6,1351,6.2,1367z"
             id="path6" />
        </g>
      </g>
    </g>
  </g>
  <g
     id="g12">
    <g
       id="Layer_1_2_">
      <g
         transform="matrix( 1, 0, 0, 1, 0,0) "
         id="g11">
        <g
           id="g9">
          <g
             id="Layer0_0_FILL_1_">
            <path
               d="M52,1548v15l-37,37h946l-37-37v-15H52 M52,52V37.7L14.3,0H0v1600h15l37-37v-15V52 M924,52V37.7L961.7,0H14.3L52,37.7       V52H924 M976,0h-14.3L924,37.7V52v1496v15l37,37h15V0z"
               id="path8" />
          </g>
        </g>
        <g
           id="g10">
          <path
             id="Layer0_0_1_STROKES_1_"
             class="st6"
             d="M961,1600h15V0h-14.3L924,37.7V52v1496v15L961,1600H15H0V0h14.3h947.4 M52,52      V37.7L14.3,0 M15,1600l37-37v-15V52h872 M924,1548H52" />
        </g>
      </g>
    </g>
  </g>
</svg>
