<svg xmlns="http://www.w3.org/2000/svg" xmlns:xlink="http://www.w3.org/1999/xlink" viewBox="0 0 976 1600">
<style type="text/css">
	.st0{fill:#FFFFFF;}
	.st1{clip-path:url(#SVGID_2_);}
	.st2{fill:#333333;}
	.st3{fill:#FFEB5C;}
	.st4{fill:#FF970D;}
	.st5{fill:#D81E1E;}
	.st6{fill:none;stroke:#333333;stroke-width:2;stroke-linecap:square;stroke-miterlimit:3;}
</style>
<g id="Paper_Backing">
	<path class="st0" d="M960,22v1556c0,3.3-2.7,6-6,6H22c-3.3,0-6-2.7-6-6V22c0-3.3,2.7-6,6-6h932C957.3,16,960,18.7,960,22z"/>
</g>
<g id="Wikipedia_Cropped">
	<g>
		<defs>
			<path id="SVGID_1_" d="M960,22v1556c0,3.3-2.7,6-6,6H22c-3.3,0-6-2.7-6-6V22c0-3.3,2.7-6,6-6h932C957.3,16,960,18.7,960,22z"/>
		</defs>
		<clipPath id="SVGID_2_">
			<use xlink:href="#SVGID_1_"  style="overflow:visible;"/>
		</clipPath>
		<g class="st1">
			<path class="st2" d="M862.8,1604c-15.5,0.3,38.5-45.2,34.2-72.1c1.9-10.6,9.3-1.4,13.2-8.1c19.2-10.9,47.9-7.5,65.7-23
				c9.7-2.9,1.4,96.6,4,99.2C981.7,1610.7,866.2,1600.7,862.8,1604z M0,1604c-7.5,4.1-6-76.8,0-72.8
				c62.8-20.2,123.3-37.4,189.3-50.5c20,9-18.7,45.7-7.6,57.9c15.5,11.2,36.4,11.2,53.8,4.8c89.9,26.8,43.7-62.9,67.2-72
				c68.6-5.8,151.3-13.5,222.4-6.9h0.1c43.1-1.4,7.9,18.7,34.9,28.2c23.5,12.1,1.8,27.1,44.6,27.8c31.2,1.6,22.2-36.8,39.5-39.6
				c36.9-0.8-43.7,91.7-48.8,112.9C608.7,1622.4,4.2,1594.6,0,1604z M629.9,768.6c-27.1-34.7-20.5-89.1-29.1-129.1
				c-24.3,3.7-157.5,48.4-95.9-15.7c79.2-106.3,107.7-17.3,46.4-145.7c-15.5-38.2,89.6,20.8,98.2,32.6c6.8,5.7,14.4,9.8,20.1,17.1
				c1.3,4.7,6.2,12.6,12,6.8c16.5-13.9,141.7-66.4,139.3-31C806.3,529,777,553,747.3,570.3c-5,3-2.8,9.2,1.5,11.6
				c29.5,21.7,46.4,55.7,58.7,88.6c4.1,6.6,1.5,15.3-8.3,12.9c-32.8-4.9-59.5-23-87.7-36.1C687.1,685.1,672.7,736.6,629.9,768.6z
				 M831.9,448.6c-28.7-9.4-42.4-84.8-55.4-74.5c-14.4,9.5-110.2,105.9-102.3,60.7c-3-58.4,47.6-119.2,4.6-107.7
				c-167.9-1.9-57.9-64.8,27.3-78c11.6,1.9,21.3-1.1,15-14.7c-5.7-29.1,4.4-57.1,7.5-85.5c5.3-64.9,83.8,66.5,84.3,90.7
				c4.1,9.3,2.8,26,13.4,29.4c15.8-2.2,39.9,13.2,44.8,27.9c4,6.3-3.9,12.1,1.8,17.2c6.3,3.3,16.4,27.9,1.4,27.1h0.1
				c-8.1-0.9-16.3-0.9-14.6,9.9C859.8,379.8,855.6,427.3,831.9,448.6L831.9,448.6z M368,410.3c-23-4.8-53.1-89.8-65.8-75.1
				c-4.3,17.6-108.8,84.8-96.8,43c43.9-131.8,47-51.2-56.6-114.4c-87.9-39,74.1-70,104.9-72.3c3.8-9.1-18.5-115.3,5-94.8
				c99.5,88.1,13.3,96.3,137.8,42.1c25.4,39.6-19.6,99.8-46.3,136.8c8.6,16.1,29.4,31.7,2.2,43.5C341,335.5,402.8,334.7,368,410.3
				L368,410.3z"/>
			<path class="st3" d="M836.1,610.5c-15.8-10.8-7.3-60.2,1-83.7c1.1-13.3,26.6-36.3,7.5-39.2c-15,7-96.3,7.9-84.4-16.4
				c19.3-23.4,45.7-55.6,66.2-24.3c13.4,10.5,29.2-33.6,29.8-43.8c-0.3-11.1,8.2-25.4,18.2-12.5c15.6,12.8,24.1,27.9,21,46.6
				c4.7,18.3,8.5,37.5,5.5,56.5c3.6,15.9,9.2,33.5,12.1,50.9C909.4,571.4,861.8,601.8,836.1,610.5L836.1,610.5z M553.3,314.1
				c-15-29.6-32.5-67.1-59.1-90.2c-2.9,0-5.4,2.1-5.9,5c-4.2,23.4-13.7,44.1-24,65c-24.1,13.1,0-39.5-16.6-41.9
				c-24.8,12.6-64.1,26.3-90.6,18.5c-1.5-5.9,6.7-6.6,8.4-12.5c3.2-8.1,15.7-10.6,14.4-21.1c11.1-22,25-43.5,25.1-71.7
				c-0.5-11.4,7.3-25.3-8.9-28.4c-9.8,1.6-33.8,21.2-43.1,11.3c-15-20.3-44.7-84.1-30.5-108.9c45.8,30.6,104.9,40,144.6,80.6
				c18.9-27.8,21-74.4,47.4-98.5c40.3,26.8,39.7,86,44.5,125.4c30.9-7.2,70.8-9.8,100,11.4c16,27.7-71,68.7-91.9,79.6
				C566.8,258,568.9,301.2,553.3,314.1z"/>
			<path class="st4" d="M783.1,1604c-59.2-0.5-128.5,0.2-188.3,0c-4.4-0.2-5.1-5.7-1.7-8.1c9.5-7.8,11.7-19.9,18.8-29.8
				c18.7-20.8,26-45.8,42.8-70.1c16.4-27.3,28.3-58,49.2-81.7c3.4-8.5,5.9-21.3,13.2-25.4c3.2-0.2,5.6-2.8,5.6-6
				c0.7-20.6,15.4-35.3,25.5-49.4c4.1-23.7,20.2-44.9,31.6-64.3c-0.3-19.5,15.5-37.1,19.6-54.4c7.5-5.4,7.3-19.3,12.8-27
				c0.8-7.8,9.8-9.8,9.5-17c-0.3-19.8,13.2-36.2,19.6-54.1c8.6-12.9,10-33.2,21-43.3c10.2-7.1,0.8-23.2,10.9-35.9
				c8.5-16.4,13.8-37.3,23.1-52.4c0.9-19.6,11.6-41,23.6-54c-0.6-29.3,11.2-56.1,18-83.5c-3.3-7.8,8.5-15,6.2-22.2
				c-2.7-8.3,1-18.3,1.1-27.2c1.1-3.4,5-6.1,2.3-10c-3.3-11.4-5.2-28.4,0.2-38.6c3-1.3,4.4-4.7,3.2-7.7
				c-11.1-25.4-7.1-44.1-0.2-60.7c-12.1-27.2-16.3-50.3-16-83.5c-25.3-42-27-102.3-33.2-152.4c-2.9-19.3-3.6-37.2,0.1-57.4
				c-2.8-11.3-9.7-5.1-10.1-21.8c-3.3-16.4-7-30.5-6-47.8c-10-14.4-18.6-33.1-17.9-52.9c-10.1-15.7-23-35.1-24.1-55.8
				c-9.9-14-20.1-31-20.9-50.3c-8.8-11.1-17.4-21.1-16.8-40c-24-28.7-27.4-74.6-39.9-111.9C744.7-13.2,811.8-0.8,816.6-4
				c8.6,4.6,5.3,19.3,6.2,29c-0.2,3.2,2.2,5.9,5.3,6.3c8,5.3,7.3,19.3,9.2,28.2c22,25,46,60.6,51.7,96.3c5.1,9.9,19.7,21.3,22.6,2.4
				c-3.5-11.1-2.7-23-1.2-35.6c1.3-19.4,2.7-39.4,9.6-57.3c-6-16.1-1-35,3.3-53.2c1.2-5.9-7.6-13.5,1.5-16h38.8
				c16.3,8-18.2,19.3-6.4,29.7c7.5,15.8-14.6,40.4-3.9,53.9c9.9,19.7-3.9,48.2,3.3,67.5c13,71.1,34.8,146.8,8.4,217.4
				c-14.1,40.5-17.2,77-1.4,116.4c20.8,56.7-19.6,124,16.5,176.8c-1.8,140.8,2.8,314.7-1.6,456.8c-4.7,12.9,2.9,17.9-10.9,32.3
				c-13.4,22.5-19.9,51.7-35.4,71.6c1.6,22.3-12,39.2-15.5,59.9c-1.4,5.2-10.2,2-9.8,9c-1.3,25.6-10.4,54.8-25.7,74.7
				c-6.1-0.3-6.5,6.6-6.1,11.1c-9.5,13.1-23-20-26.6-28.5c-9.8-6.3-22.3-11.1-31.7-21.2c-24.4-29.1-19.3,49-31.1,59.5
				c4.5,26,11.3,53.2,18,78.6c-0.9,10.1-14.6,5.3-20.3,3.5c-9.9,9.2-28.3,7.5-39,13.5c-3,5-9.7,5.3-15,5.4c-2.6,0-4.9,1.7-5.7,4.1
				c-1.7,5.2-10,6.3-13.4,10c-9.3,16.7,56.8,27.7,67.6,36.6c60.8,3.6,52.5,7.3,32.6,55.9C818.1,1609.1,793.1,1603.3,783.1,1604z
				 M261.8,1547.1c-9.4,0.8-18.8-1.5-26.8-6.5c-28.1,10.3-69.2,5.5-45.4-33.8c2.1-28.3,29.4,2.1,43.4-13.6c6.5-6,8.1,3,13.9,3.5
				c12-7.5,24.9,7.5,36.5-2.4c15.4-2.8,2,32.5,3.4,41.4C285.3,1543.4,270.5,1541,261.8,1547.1z M610.8,1516.9
				c-4.3,0.2-8.1-6.7-12.7-2.6c-8.2,5.5-29.4-2-25.2-13.7c1.7-12.3-24.9-8.3-24.9-23.8c2.7-9.8,11.5-15.9,15.8-25.1
				c6.8-12,8.4-4,14.5,1.8c9.9,1.9,8.3,10.3,15.9,11.7c3-0.9,5.4,0.9,7.2,3.2c6,3.6,10.8,8.6,16.7,11.1c4,0.2,9.2-3.8,11.8,0.6
				C630.1,1491.1,624.5,1516.3,610.8,1516.9L610.8,1516.9z"/>
			<path class="st5" d="M840.6,1604c-6.4-1.7-21.9,2.7-27.4-1.8c-1.5-22.3,14.9-41,17.7-59c-38-12.7-85.8-13.4-121.6-37.8
				c18.1-27.1,59.7-34.5,89.8-39.5c11.1-10.8-5.1-29.3-4.2-48c-11.1-144.9,27.5-100.7,92-16.9c21.4-21.6,35.3-58.6,66.1-73.3
				c18.7,16.5,5.4,52.3,3.4,75.1c2.6,13.8-22,44.9-0.9,47.6c31.8,4.6,23.7-1.1,24.5,30.4c-2.4,6.2,4.7,25.8-4,28
				c-18.7-3.9-39.3,10.9-59.1,10.7c-6.5,2.3-20.5-7.4-20.5,5c4.5,32.2-24.6,54.2-36,77.6C859,1606.1,843.4,1603.1,840.6,1604z
				 M861.7,934.6c-11.4-22.3-5-75.5,5.5-97.3c11.5-26.4-93.2,35.7-147.6,17.5c-14.2-13.5,6.3-37.5,15.2-48.1
				c10.2-25.1,88.6-55.1,74.8-66c-21.3-17.6-44-38.5-45.1-61.6c10.6-5.3,28,6.4,38.8,4.2c16.5-1.7-9.5-26.8,9-24.8
				c21.5-2,43.2,8.7,65.1,11.1c8.1-21.3,20.6-82.3,45.9-79.4c11.4,16.4-4.4,33.4,8.2,42.7c13.7,32,7.8,67.5,12.3,101.1
				c4.6,13.3-7.1,15.2-0.7,29C942.9,833.1,934.6,896.2,861.7,934.6z M508.5,591.5c-15-11.3-25.7-116.9-53.2-94
				c-15.7,11-146.4,69-128.4,24.5c11.3-45.3,24.9-76.9,57-114.7c12.1-11.1,23.3-21.9,7.3-35.4c-3.9-13.7-49.8-51.8-39.5-55.7
				c33.1-10.1,63.6-11.6,96.4-6.7c24.6-7.4,27.8-43,40.7-67.4c-1.6-15.5,14.1-10.4,19.2-0.5c35.2,34.7,40.2,72.9,54.9,110.5
				c37.7,25.2,62.2,70.1,85,108.4c-6.7,17-75.1,6.5-94,3.5c-7.6-1.5-7.7,7.5-8.1,12.7C540.1,514.2,532.9,562.4,508.5,591.5z
				 M797.3,187.8c-10.8-4.2-18.9-22.2-25.7-31.6c-10-7.4-21-27.7-34.6-25.8c-8,5-5.8,28.2-16.1,26.6c-30.9-6.8-70.8-21.3-93.4-47.8
				c19.3-27.7,92-27.3,103.3-48.7c-7.9-17-4.5-42-14.2-59.5c-0.4-2.3,1-4.5,3.3-4.9c0.2,0,0.5-0.1,0.7-0.1
				c76.6,1.4,29.3-16.6,64.3,86c0.8,5.1-8.8,7.1-4.4,13.1c7.4,8.8,10.2,17.3,18,23.8C808.1,144,830.1,170.4,797.3,187.8z"/>
			<path class="st4" d="M216.1,1496.1c-7.4,0.8-25.2-2.7-19.6-11.7c7.7-16,11.1-32.9,13.1-50.3c2.3-19.5,4.7-36.9,4.9-53.2
				c0.5-45.1-7.4-59.5-14.5-126c-6.2-57.6-5.3-93.8,1.5-130.5c1-5.2,1.9-9.6,2.5-12.5c-21.2-13.3-50.5-36.6-67-74
				c-13.7-31.1-10.1-52.6-8.9-105.4c3-135.6-14.1-148.8,1.1-214.4c6.6-28.7,20.6-59.3,47.9-95.5c-20-41.1-14-37.7,21.1-18.7
				c23.5-13.2-42.5-56.3-59.3-63.7c-15-7.4-15-14.6-5.4-22.9c2.7-1.9,3.3-5.7,1.3-8.4c0-0.1-0.1-0.1-0.1-0.2
				c-20.4-26.6-32.2-57.4-33.2-90.5c8.1-18.5,30.2,59.9,42,65.3c3.8,5.3,10.2,1.6,11.5-3.5c13.5-31.8,4.6,46.3,50,85
				c6.6,8.5,34.6,34.5,33.6,9.3c-16.2-24.5-37.6-46.1-50.8-73c-4.6-8.2,5.2-10.3,8.9-15.9c-3.5-17.1-18.5-30.8-22.2-49.1
				c-22.5-95.6,37.5,67,57.6,24.5c14.1-4.8,4,28.3,5.2,36.6c-1.1,25.7,11.8,59.7,29.4,75.4c33.4-8.2,52.4,25,79.4,35.2
				c27.2,8.3,54.9,14.7,83,19.1c5.2-3.2,13.1,39.8,5.3,37.8c-3.6,1.2-4.7,5.1-3.6,8.5c-12.6,25.8-63.2,13.2-88.6,23.5
				c-20.5,5.2-47.5,12.6-73.8,22.9c-66.5,36.3-18.3,170.4,60.1,153.8c95-8.5,192.4-37.5,287.2-16.5c45.2,10.1,88.5,26.7,134.7,31.8
				c25.6,7.3,57.2-10.4,73.8,9.4c0.1,2.3-0.2,5.2-1.2,8.4c-3.1,9.8-11.3,14.8-13.9,16.2c4.3,9.3,8.7,18.7,13,28
				c-6.8,1.9-15.1,5-24,10c-13.7,7.8-23.1,17.1-29,24c-2.2,5-4.3,9.9-6.5,14.9c3.5,106.7-93.1,148.4-45,210
				c8.3,14.4,23.5,28.2,9,41.9c-14.6,26.6-24.8,55.4-37.8,82.8c-14,31.1-28.1,63.4-38,96.2c-8,14.8-5.2,40.8-24.9,45.7
				c-29.3-5-20-9.4-33.9-19.2c-14.1-1.2-27.9-18.2-14.9-29.4c18.9-47.7,33.9-104.3,31-155.2c0.1-37.1-6.9-72.5-41.1-91
				c-12.4-6.4-28.8-16.6-44.9-32.7c-11-10.9-19.1-21.8-25-31c-17,3-34.7,5.7-53,8c-33.1,4.2-64.5,6.7-94,8c-4.3,0.3-8.7,0.7-13,1
				c-7.7,45.8-14.9,92.9-21.3,141.5c-9.7,72.4-17,142.4-22.5,209.7c-6,14.7-32.2,9.6-43.6,3.2
				C238.6,1494.3,228.1,1495.7,216.1,1496.1z"/>
			<path d="M976,335.8c2.8-17.3,4.6-34.7,6.9-52c2.4-18.1-3.2-35.6-5.9-53.3c-2.2-14.2-2.7-29-6.5-42.8
				c-12.8-56.3-16-115.8-5.6-172.6c6.8-30.5-18.2,7.9-24.1,14C934,37.6,927,46,919.8,54.6c3.4-14.8,2.9-29.8,8.2-43.9
				c2.8-6.6-5.5-12.1-7.2-1.6c-6.7,19.8-9.5,40-10.9,61c-1.7,30-6.5,57.6-9.5,88.3c-13.3-35.8-29.7-66.5-49.7-98.2
				C839.1,41.2,831.4,20.7,824.1,0c-2-6.9-9.8-4.3-7.1,2.5c6.7,37.1-8.2,69.9-16.8,107c-12.4-36.7-21.8-68.3-31-104.8
				c-0.5-2.3-0.5-4-3.5-3.9c-8.8,1.8,4.2,32,4.5,38.9c2.5,14.6,7.2,28.8,10.9,43.2c-16.5-21.7-25.6-48.9-36.2-74
				c-1.1-2.8-2.8-7.4-6.3-6.4c-7.9,3.1,8.5,29.8,9.3,37c4.9,15.4,14.2,28.7,21.2,43c4.9,9.9,10.1,19.9,18.4,27.9
				c-26.9,3.6-53.4,0.8-80.3,0.6c-13.6-0.8-27-4.1-40.9-3.3c-7.4-0.7-10.6,6.2-2.3,7.3c18.1,1.9,36.2,4.5,54.4,5.8
				c23.9,1.2,44.2,1.5,68.8-0.2c-10.8,7.9-11.5,17.3-19,26.8c-10.2-8-17.3-22.8-31.4-22.5c-7.3-0.2-5.3,10.7-10,14.6
				c-4.3,3.6,2.3,15.2-8.3,12.9c-31.7-7.6-62.3-21.7-87.1-43.3C661,88.7,697.1,81.8,730.7,71c2.8-0.9,7.7-1,6-5.7
				c-7.1-19.6-10.4-39.8-11.7-60.4c-0.4-4.5-6.7-6.1-6.6-0.2c-4.1,11.3,0.8,22.5,1,33.8c0.1,5.2,0.2,12.1,4.7,17.1
				c0.3,0.3,5.7,5.5-0.1,7.3C691,73,655.9,80.2,627.6,101.3c-4.6,3.4-9.3,7.6-0.9,15c14.3,12.6,29.5,23.2,46.2,31.2
				c15.8,11.1,54.3,7.5,45.8,35.5c-6.1,20-5,39.6-1.8,59.6c0.4,2.5-0.9,2.2-2.7,1.6c-23-6.9-44.7,10-65.8,12.3
				c-22.9-6-48-9.2-68.9-20.3c32.6-15.4,69.4-32.9,86.8-67.3c1.7-3.3,5.5-10.4-1.3-13.8c-10.9-5.5-21.5-11.3-33.4-15.3
				c-39.2-15.5-74.4,11.6-70.3-1.6c4.5-41.7-7-87.8-36.9-118c-24.4-21.2-55.8,75.7-57.9,93.7C433.9,64.7,366.8,69,325.5,32.3
				c-24.1-27.1-6.5,54.8-3,62.9c6,18.2,11.5,36.2,23.3,51.6c1.2,1.5,6.3,4.8,1.9,8.1c-6.2,4.7-12.9,8.7-19.2,13.3
				c-2.2,1.6-2.5,1.7-3.9-0.8c-14-23.4-48.7-75.3-75.8-80.2c-10.5,4.1-3.4,24.3-4.4,33.3c0.9,22.3-0.8,44.9,6.4,66.6
				c0.3,1,1.5,3.6-1.9,3.1c-41.1-3.1-105.5,14.4-134.5,44.7c-2.4,2.6-6.8,5.8-2.5,9.7c34.8,28.8,77,51.6,122.9,54.7
				c-8.8,8-16.1,16.9-19.6,27.7c-6.5,20.4-11.7,41.2-17.1,61.9c-0.7,2.8-1.5,7.9,3.2,7.9c39.1-2.8,76.8-22.6,99.8-54.3
				c1.4-3.2,6.4-5.4,8-0.9c14.3,26.6,28.5,53.3,53.3,72.3c1.3,1,10,0.8,4.7,7.8c-22.6,30.7-36.6,66.7-46,103.4
				c-3.6,12.6,0.3,18.3,13,17.9c40.6-3.5,80-15.4,115.8-34.9c5-2.8,13.9-22.1,21.9-1.3c12.5,27.4,21.6,56.1,29.6,85.1
				c0.9,2.4,4.4,5.8,6.3,5.8c17.9-7.2,39.9-89.6,40.1-113c10.6,25.5,20,48.6,36.7,67.8c-27.3,10-50.7,29-69.6,50.5
				c-9.5,13-35.8,39.2-32.5,55.3c0.9,5.1,6,2.5,9.2,2.8c36,1,77.1-2.1,109.4-20.2c-2.7,12-3,24.4-0.8,36.6c2.1,12.8,1,25.6,3.6,38.6
				c3.7,18.5,13.5,34.7,17.5,52.9c0.9,4,3,11.7,9.3,7.3c34.3-32.2,63.4-72.9,76.7-118.5c0.9-3.3,1-8.5,8-4
				c7.6,5,14.6,11.3,23.8,14.1c5.7,1.7,13.3,5,15.4,9.7c11.6,25.3,24.3,49.3,49.5,63.9c1.3,1,5.1,4.4,2.8,5.5
				c-38.9,17.8-76.5,45.4-94.4,85.3c-3.3,7.5-5.4,21.5,2.5,24.1c49.8,15,102.3-1,147.8-21.5c-12.9,26.3-13.3,55.1-11.5,83.7
				c0.1,6.4,0.2,14.9,4,18.8c8.7,9,15.9-1,22.3-5.5c14.2-10,26.5-22.4,39.3-35.9c-25.2,84.7-59.5,165.7-93.8,247
				c-21.8,54-43.4,108-70,159.8c-28.8,57.7-59.4,114.7-92.3,170.3c-3.8,5.8-9.2-1.8-14.1-0.7c-0.1,0-1.3-2.2-1-3
				c15.4-35.3,25.2-72.8,41.3-108c13.5-31,27.1-62.1,38.8-93.8c5-13.4,21.7-24.4,9.6-42.7c-5.7-8.7-10.3-18.3-15.9-27.3
				c-36.3-50.8,37.7-54.3,49-167.2c2.9-23.5,15.1-62.8,40.7-69.5c17.1-0.6,25.3-17.6,10.3-28.7c-8.4-5.8-4.8-8.4,1.1-13
				c22.2-13.9,11.4-38-12.9-38.3c-21.5-0.3-42.9-0.2-64.4-3.4c-30.8-5.5-60.8-13.8-90.7-22.8c-31.9-7.2-62.5-16.5-95-17.7
				c-8.6-0.9-17.9,1.7-25.8-0.7c-9.4-2.7-18.5-1.3-27.3-1c-38.5,1.9-76,14.3-114.1,19.1c-26.8,1-83.7,13.6-103.9-3.3
				c-27.7-23.6-41.5-53.1-37.3-89.8c1.2-10.2,3.5-20.5,13.8-26.3c42-23.8,91.4-28,137.4-40.5c14.3-2.8,30.1-3.1,38.5-17.3
				c58.6-87.6-61.7-44.2-107.7-87.5c-36.8-34.8-63.1-14.5-73.6-37.8c-26.7-47.4-1.2-86.3-26-100.4c-3.6,3.8-2.4,11.9-8.1,13.1
				c-1.8,0.5-5.1-3.5-7.3-5.9c-16.4-19.6-30.5-41.2-40.3-64.9c-1.5-4-5.2-6.7-9.5-6.8c-9.4,1.2-3.8,19.5-3.5,26
				c3.2,18.4,8.2,36.5,14.8,54c4,8.4,19.3,18.1,1.8,28.7c-0.7,0.4-0.6,2.5-0.5,3.8c7.6,31.5,39.7,49.9,55.4,76.9
				c-12.7,9.1-21.9-15.2-30.7-21.8c-13.4-14.5-23-30.5-28.7-48.1c-4.2-12.2-5.4-25.9-6.3-39.4c-10.4-3.8-15.9,9.3-21.4,15.6
				c-14-25-29.7-49.2-36.7-77.3c-0.6-2.6-2-4.8-5.6-4.4c-11.7,2.4-9.8,18.8-9,27.9c2.1,31.3,15,62,30.4,87.9
				c-8.6,11.5-8.3,18.7,4.7,26.9c22.2,14.1,43.2,30.1,62.7,47.7c1.9,1.7,2.7,4.7,4,7.1c-0.8,0.1-1.9,0.5-2.2,0.1
				c-7.7-9.2-19.6-12.3-28.3-20c-2.3-2.3-5.9-2.5-8.6-0.7c-9.3,5.9,5.5,32.3,9.2,40.3c2.3,4.2,4.6,8.8-0.9,14.2
				c-29.5,32.4-47.7,73.5-52.1,117.1c-5.2,49.2,11.2,97.3,7.8,146.3c-6.1,38-9.4,77.2-0.8,115.2c8.8,38.3,30.1,72.1,62.2,95.7
				c5.9,4.4,18.9,6.4,13.7,18.6c-9,25.6-8.3,53.9-9.6,80.9c0.3,42.8,9.6,84.2,18.4,125.8c3.5,20.3,0.4,40.9,0.1,61.3
				c-0.2,11.7,0.4,24-2.7,35c-3.3,11.6-4.1,23.1-5.5,34.8c-0.5,4.1,0.8,10.7-6,11.9c-39.2,5.1-77.1,16.6-115.4,26
				c-26.6,6.7-53.1,14-77.3,27.2c-4,2-2.1,9.8,4.3,6.8c23.3-8,46.2-17.2,70.4-22.3c17-3.6,33.6-9.2,50.4-13.4
				c20.1-5,40.4-9.4,60.7-13.8c1.6-0.3,6-1.8,5.2,1.6c-1.9,8.5-4.2,17.1-7.9,25c-11.7,25.1-11.3,27.3,5.5,34.8
				c10.9,4.9,21.5,6.9,33.3,4.6c6.1-1.2,11.8-6.3,18.5-2.6c19.2,10.7,49.6,0.5,57.9-19.4c1.5-3.6-1.6-6.6-0.9-9.3
				c2.8-11.3,1.4-22.7,2.5-34c0.4-3.7-2.9-10.1,3.1-10.7c24.1-2.4,48.3-4.1,72.5-5.6c13.3-1.7,182.8-10.2,169.6,6.5
				c-5.7,9.9,1.8,12.8,7,16.9c6.1,4.8,17.1,4,16.5,16.1c2.2,11.7,17.1,12.7,26.6,14.2c18.4,4.4,32.9-3.9,40.3-21.8
				c2.7-6.4,0-23.6,17-13.7c-18.2,35.6-41.3,68.6-60.6,103.6c-1.5,2.8-2.4,6.6-0.7,8.6c2.6,3,4.8-2.2,6.6-3.5
				c9-7.4,10.4-19.2,17.1-27.9c2.5-3.2,4.5-7.6,7.9-9.1c2.3-1.1,2.9,3.9,4.2,6.3c6.3,11.4,12.3,23.3,19.5,34.2
				c2.7,3.3,8.8-1.1,5.8-5c-7.7-13.5-15.6-26.8-22.8-40.5c-2.3-4.4-0.8-9.8,3.5-12.3c3.8-2.2,3.6,3.1,5.3,4.9
				c2.7,2.8,4.5,6.5,7.1,9.5c10.9,12.6,21.9,25,30,39.7c1.2,3.7,8.3,9.3,10.6,3.8c-7.7-18.1-21.3-33.8-33.8-49.2
				c-5.2-5.9-15.6-11.2-12.6-20.2c3.5-10.5,10.9-19.6,18.3-32.1c-3,10.8,2.9,16.4,6,22.1c14.7,26.4,30.6,52,43.6,79.4
				c1.3,2,3.7,2.8,5.9,2c6-2.1-3.4-16.3-4.9-20.3c-15.4-29.6-34.8-58.4-48.4-88.4c8.5-11.1,13.6-23.9,20-36.2
				c23.8,40,30.3,86.9,44.9,130.3c1.6,4.3,4,8.9,8.9,9.3c2.3,0,1.3-3.4,1-4.7c-7.6-27.8-14.7-52-22.8-80.5c10,8,23.2,6.3,28.3,18.3
				c10.2,23.9,25.3,45.5,34.1,70.1c0.7,3.3,3.3,7.1,7.1,5.8c10-5.1-30.1-68.9-34.9-80c5.7,2.7,9.9,4.8,14.1,6.6
				c3.3,1.4,8.4,0.1,10,4c5.9,14.6,15.9,26.3,25,38.9c5.3,7.2,12.9,14.2,11.2,24.8c0.6,5.6,10.6,3.1,10.2-2.1
				c3.4-19.1,9.6-37.1,21-53c0.7-1,0.3-3,0.1-4.4c-0.2-2.1-1.9-3.6-4-3.7c-12.3-1.6-24.7-3.1-37-5.4c-29.3-5.3-56.9-15-84.1-27
				c21.6-19.8,50.5-29.3,79-33.5c8.7-1,18.6-1.8,14.8-14.8c-3.6-12.7-6.3-25.7-8.1-38.8c-4.3-28.4-1.5-56.7,2.4-84.9
				c0.1-0.8,1.5-1.4,2.4-2.2c15.2,53.6,36.6,106.3,66.2,154c3.1,5.6,7.7,11.4-4.9,10.9c-34.1,5.5-68.8,6.6-103.5,6.6
				c-4.8,0.3-5.8,5.1-0.3,5.2c34.8,3.6,69.9,3.3,104.3-3.9c1.3-0.2,4.5-1.1,3.3,2.3c-11.1,29.5-22.4,58.9-33.2,88.5
				c-1,2.5-3.8,7,0.1,8.8s4.8-2.6,6.2-5c12.1-29.4,21.6-59.9,33.5-89.5c0.9-2.4,2.1-8.4,5.3-6.2c29.7,26.6-1.3,69.7-22.1,92.5
				c-4.6,4.6,0.5,9.7,4.9,5c66.7-58.6,4.2-107.9,83.7-19.4c3.1,3.5,6.9,5.8,11.4,5.7c1,0,0.5-3.5-1.1-5.4
				c-13.6-15.6-27-31.4-40.7-46.9c-11.4-11.8,10.3-11.3,17.7-12.4c5.4-0.6,46.4-11.4,40.8-17.8c-1-1.2-2-2.6-4.9-1.4
				c-17.7,6.7-36.1,11.4-54.8,13.9c-7.2,2-29-9-22.8-16.6c7.4-3.9,100-4.2,83.3-18.2c-29.2,6.8-59.6,7-89.5,9.5
				c10.2-21.3,20.6-42.5,31.6-63.4c5.8-10.8,12.7-21.1,15.2-33.4c2.6-4.9-2.4-6.4-4.3-1.7c-16.9,30.3-33.1,60.4-49.2,91.2
				c-26.9-50.2-54.6-102.2-68.3-157.8c20.2,10.3,53.4,51.9,65.6,72.4c2.6,4.8,3.5,12.4,10.7,12c5.8-0.3,6.7-7.7,8.9-11.8
				c13.1-24.4,30.8-46,52.1-63.6c1.6-1.3,4.8-4.2,5.6-1.3c2.3,8,5.6,17,3.9,24.6c-2.6,27.2-5.6,54.3-14.5,80.5
				c-1.4,3.7-11.5,12,0.5,14.5c7.7,1.7,15.7,2.4,23.4,4.2c4.3,1.9,13.5,0.3,6.7-5.4c-4.9-1.8-10.4-2.4-15-4.7
				c-3.2-1.6-10.5-0.3-9.2-4c9.8-32.8,21.7-72.9,12-106.5c-2-5.9-1-15.9-11.3-11.2c-31.8,17.8-48.2,45.2-66.2,78.7
				c1.6-9.7-6.2-13.2-3.5-19.5c9.8-22.9,20.5-45.4,29.7-68.5c12.1-30.9,20.8-63.1,31.5-94.5c11-26.6,19.3-55.6,33.5-80.5
				c7.3-10.3,3.3-19.3,0.2-29.4c-14.3-45.1-0.5-93.2-13-138.9c-4.7-22.6-12.8-44.1-21.4-65.4c-3-7.5-9.8-14.7-9.7-21.9
				c0.1-9.9,5.2-19.7,8-29c14.4,16.4,25.6,35.5,32.8,56.1c0.4,1.5,1.7,2.7,3.2,2.9c6.6-0.5,0.4-12.3,0-16.2
				c-6.1-19.8-17.4-36.5-33-50.9c-4.3-3.9,1.7-7.5,0.8-11.4c0-0.2,3.5-1.9,4.1-1.4c6.8,5.2,14.1,9.8,19.4,16.9
				c5.2,10.5,14.3,6.2,10.9,0.3c-5.9-7.2-11.8-14.4-18.2-21.2c-4.1-4.3-14-2.5-13-12.3c0.7-6.6,1.3-13.2,2-20.3
				c8,6.5,15,12.4,22.3,17.9c3.6,1.6,7-1.4,4.6-5.3c-25.4-25.3-29.3-19.8-26.8-57.9c8,9.1,15.7,17.7,23.3,26.4
				c1.2,1.3,2.3,1.7,3.5,1.3c2.3-1,4.2-3.4,2.1-5.7c-18.9-21-37.8-55.5-28.3-82.7c7.7,13.3,12.1,32.5,26.2,40.8
				c3.5,0.5,3.5-3.4,2.4-6.5c-28.1-53.4-44.3-83.4-39.2-146.2c2.2-22.2,6.1-44.8,5.3-67.2c-0.8-13.9-4.9-27.7-7.3-41.5
				c-11.1-61.3-13.9-62.5,11.3-120.7c4.7-13.3,9.8-26.7,12-40.4c4.9-26.1,1-52.9,6.4-79.2c1.9,15.7,8.8,30.6,8.8,46.1
				c-1,12.3-3,24.7-3.9,36.9c-4.2,41.5-25.3,81.5-24,123.7c1.4,13,8.5,25.3,11,38.4c21,64.8-15.3,124.7,13.6,177.6
				c1.2,2.2,2.9,4.4,5.3,2.7c4.1-2.6-0.6-6.5-1.6-9.4c-11.5-24.9-8.9-56.3-4.8-82.9c4.1-18,3.8-36.2,1.4-54.3
				c-1.7-13.3-3.2-26.7-6.8-39.9c-3.2-11.8-9.9-22.6-9.7-35.3C956.7,400.9,971.5,369.4,976,335.8z M212.6,533.4
				c-7-11.3-15.4-22-21.2-33.9c-3-6.2,6-7,9.7-9.8c1.9-1.4,4.6,0.3,2.3-4.2c-14.1-24.6-26.4-45.7-31-74.9c13.8,25,26,44.8,46.6,63.3
				c3.3,3,5.9,1.3,16.1-10.5c-0.6,12.1-0.3,22.7-1.8,33.4c-0.9,23.9,7.5,50.8,23.3,69.2c0.4,0.4-0.5,3-1,3.1
				c-4.9,0.6-11.6,7.1-13.9,2.7C234.1,557.3,221,547.2,212.6,533.4z M209.5,1540.6c-5.9,1.7-12.3,0.5-17.2-3.3
				c-15.4-11,1.1-20.3,1.3-30.4c0.1-8.8,3.4-11.7,12.3-6.3c3.6,2.2,9.7,0.4,14.5,0.4c-3.3,11-6.3,21.3-9.4,31.6
				C210.2,1535.3,212.8,1539.7,209.5,1540.6L209.5,1540.6z M230,1536.1c-1.1,3.7-4.9,5.9-8.7,4.8c-0.2,0-0.3-0.1-0.5-0.2
				c-4.9-1.6,0.2-4.2,0.5-6c2.2-11.4,5-22.8,8.4-33.9c0.8-2.5,5.3-3.8,8.1-5.7c0.5,0.8,1,1.6,1,1.6
				C235.7,1510.6,233.2,1523.4,230,1536.1L230,1536.1z M234.1,1490.1c-11,1.7-22.3,3.8-33.3-1c-2-0.9-1.6-1.3-0.8-2.7
				c9.7-15.4,10-33.3,12.8-50.4c2.9-18.1,4.4-36.5,5.7-54.8c4.6-51.8-14.5-101.4-18.1-152.9c-1-12.7-1.9-25.7-2.4-38.2
				c-0.7-18.9,5.8-38,6.3-57c0.2-11.9,2.6-12.1,15-8.1c12.4,2.5,9.1,9.6,9.8,19.8c-2.3,55.4,12.2,117,22.1,172.9
				c8.8,31.6,5.3,63.3-0.4,95c1.6,23.7-4.1,47.9-6.2,71.7C244,1489.7,237.3,1489.6,234.1,1490.1L234.1,1490.1z M270.8,1503.6
				c-5.3,11.8-4.3,24.5-6.1,36.8c-0.8,5.3-6.4,1-8.7,2.6c-29.5,1.4-5.2-19.6-5.4-34c-0.7-21.8,13.6-3.5,19.2-7.7
				C270.2,1502,271.1,1503,270.8,1503.6L270.8,1503.6z M282.7,1535.2c-0.2,1.5-4.5,3-7.1,3.3c-1,0.2-1.1-2.6-0.8-4.6
				c1.6-10.2,3.1-20.4,4.1-30.6c0.5-4.7,5-3.5,6.9-5.9C286.9,1510.7,283.7,1523.6,282.7,1535.2L282.7,1535.2z M467.7,1453.1
				c-55.1,0.8-110.9-1.4-164.8,11.3c-2.6,0.8-2.9-1.6-2.5-3.2c5.7-24.5,4.6-49.4,4.6-74.2s6-48.7,11.7-72.8
				c10.4-45.1,17-91,22.3-137c1.4-11.2,2.8-22.4,4-33.7c0.4-3.9,3.2-2.8,4.7-2.3c13.1,4.7,25.5-1,38.2-2
				c32.5-1.8,64.8-6.3,96.1-15.2c5.1-0.7,10.7-5.4,15.6-3.9c-1.8,10,6.8,15.6,11.6,22c10.5,14.1,24.4,24.8,38.3,35.5
				c14.6,11.1,32.3,18.6,42.4,35c7.8,12.6,8.7,27.1,9.8,41.3c3.3,38.6,0.5,77.4-10.6,114.6c-4.5,26.3-11.5,52.2-27.4,74.1
				c-4.6,6.3-5.7,16.4-13.7,16.7C519.3,1456,493.6,1452.8,467.7,1453.1L467.7,1453.1z M591.1,1400.5c11.4-32.8,17-67.4,21.5-101.8
				c1.2-8.9,1.4-18-0.6-27.1c0-37.7-6.3-73-42.9-93.6c-23.2-15.1-49.6-33.1-63.8-57.8c0-2,1.6-3.8,6.5-5.3c13-4,25.5-9.2,38.3-13.8
				c1-0.2,2.1,0.1,2.9,0.8c16.5,19.5,33,39.1,49.3,58.8c19.7,23.5,29.1,51.8,39,80.1c14.7,35.9-2.5,73.7-11.3,108.9
				c-11.1,33.8-23.5,67.3-35.8,100.6c-3.3,7-9.9-0.9-13.2-3.2c-13.2-9.2,1.5-16.3,3.5-24S588.7,1408,591.1,1400.5L591.1,1400.5z
				 M555.8,1482.5c-10-8.4,2.9-12.2,5-18c2-5.4,6.2-10,9.7-15.3c0.3,3.6,2.7,6.7,6.2,7.8c14.2,4.9,7.8,10.9,3.7,20.2
				C573.4,1492.4,565.3,1490.5,555.8,1482.5L555.8,1482.5z M597,1509.7c-4.6,5.9-12.1,0.5-17.7-1.5c-3.6-1.3-4-5-1.1-9.3
				c6.6-9.6,12.1-19.9,18.1-30c2.4,2.1,4.2,5.7,8.5,6.7c5.7,1.3,5.9,5.3,3.9,9.7C605.1,1493.6,602.5,1502.8,597,1509.7z
				 M625.2,1488.6c-2.5,5.9-5,12-6,18.3c-0.9,5.4-5.6,3.7-7.2,5.8c-3.3,0.5-3.7-0.8-3-2.8c2.8-8.1,5.5-16.2,8.4-24.2
				c1.5-4,6.1-2.1,8.8-3.9C627.7,1484.4,626.3,1486.3,625.2,1488.6L625.2,1488.6z M634.6,1465.1c-5,12.9-15.5,5.1-23.6,3
				c-12-3.2-10.9-9.6-6.2-19.7c21.1-44.7,36.8-91.6,48.1-139.6c4.5-18.4,8.5-37.3,6.1-56.5c-1.3-10.7-8.2-19.2-12.2-28.8
				c-6.6-15.9-9.3-33-18.8-48.2c-28.1-47.3-71.7-83.4-99.3-130.8c-15.9-25.3,0.7-34.2-20-55.4c-0.7-0.8-3-1.3-3.3-0.9
				c-1.1,1.5-2.9,4-2.4,5c7.6,14.4,5,30.8,9.2,45.9c4,14.6,11.5,26.8,21.3,37.8c11.7,13.1,2.7,15.7-7.7,18.1
				c-26.1,6.2-51.1,16.6-78,20.4c-32.5,4.5-65.2,6.7-97.9,9.6c-2.9,0.2-6.1,3.9-5.8-4.5c0.7-21.8-1.9-43.5-3.3-65.2
				c1.8-7.4-6-5.2-6.2,1.1c-0.2,73.7-11.1,146.8-23.1,219.4c-7.5,42.1-20.7,83.5-18.8,126.8c0,24.1-1.9,48.2-5.9,71.9
				c0.4,4.8,4.5,12.4,0.3,13.8c-10.9,3.5-23.2,5.9-33.3-2.1c4.4-21.9,7.7-49.1,8-72.6c0.5-18.3,5.3-36.6,5.1-55.2
				c-3.7-61.4-21-121.1-25.3-182.4c-2.7-38.9,0.5-77.9,6.1-116.3c0.4-2.9,0.9-7.7-1.9-7.9c-9.3,0-10.4,32.5-12.9,40.4
				c-1.1,6.6-1.2,13.3-2.2,19.9c-0.6,4.3-4.4,0.9-4.8,0.7c-20.3-12.6-43.6-21.7-58.4-41.2c-16.4-21.6-31.2-44.7-35-72.2
				c-8.4-35.1,1.4-70,2.9-105.2c0.4-107.3-37-158.7,40.3-259.8c5.1,7.2,32,49.4,41,41.4c2.2-1.8,0.6-3.5-0.4-4.7
				c-20.3-22.2-39.5-48.8-47-77.6c18,8.5,34.1,22.3,51.4,32.7c2.8,1.9,5.5,3.8,9,2.9c8.4-6.7-19.4-20-23.8-24.1
				c-4.6-3.8,13.4-2.2,3-12.8c-20.3-21.9-40.4-43.6-68.9-55.5c-8.5-3.5-15-10.3-1.8-17.7c4.8-2.7,3.9-6.5,0.9-10.2
				c-20.6-25.8-32.8-56.6-34-89.8c11.4,26.4,21.6,52.6,40.5,74.4c5.6,6.1,6.4-2.8,8.9-5s3.4-6,6.3-11.4c0,47.2,30.3,84.5,64.8,112.2
				c5.3,4,13-4,19.8-6.2c16.5-5.3,31.8-10.6,50-3c18.8,7.9,29.8,26.6,49.5,32c13.4,3.7,26.7,7.9,40.2,11c14.2,3.3,28.6,5.5,42.9,8.2
				c0.3,0.1,0.9,0,1,0.1c1.9,9.8,3.8,19.6,5.1,29.5c-17.4,4.5-40.6,1.6-58.3,8.8c-1.4,0.5-5.2-0.1-4,2.8c4.4,6.4,36-1.7,45.4-0.9
				c3-0.2,8.7-3.2,9.5,2.6c0.9,6.7-6.2,5.7-9.8,6.9c-5.9,1.9-12,3.4-18.2,4.3c-45.3,3.7-89.8,14.1-132,31
				c-69.6,32.3-23,179.2,61.9,161.5c80.4-9.4,161.1-25,242.2-24.2c61,6.4,118.2,32.8,179.1,39.5c18.8,1.5,37.8,2.3,56.7,0.3
				c5.7-0.6,11.9,1.7,13.7,6.5c2.2,9.7-19.8,15.2-16.8,25.6c0.5,3,2.6,6.2,6.8,9.8c11.4,9.6,6.4,14.7-5.8,17.8
				c-14.4,2.9-23.7,14-34.5,23.1c-2.7-11.6-7.1-19.9-14.6-29c-9-4.8-7.6,8.1-4.3,12.4c15.5,30.8,4.6,66-1.8,97.9
				c-8.5,33-25.1,61.5-44.5,88.9c-8.8,12.5-7.7,40.1,2.7,54.5c5.8,8,9.3,18.6,16,25.7c12.3,13.2-0.5,20.5-4.6,30
				C688.2,1325,657,1393.2,634.6,1465.1L634.6,1465.1z M781.5,1537.8c12.7,1.2,25.2,3.7,37.4,7.4c7.8,2.8,0.3,8.8-0.6,12.7
				c-1.7,7.8-5.5,15.2-8.5,22.9C805.7,1567.8,780.2,1547.3,781.5,1537.8L781.5,1537.8z M954.9,29c-6,41.6-19.7,82-42.7,119.1
				C917.5,104.7,910.7,57.1,954.9,29z M910.4,199.6c0.6-22.3,1.3-42.4,17-60.1c12.6-16.7,14.4-37.5,21.9-56.4l2.4,0.1
				c5.7,82.2-15.9,43.9-19.6,114.3c-1.2,13.6-7.1,25.9-10.1,39c-3.2,48-7.9,94.5-24.3,140.6C877.5,315,902.4,260.4,910.4,199.6z
				 M909.8,754.1c-31.1-23.5-54.4-52.3-88-70.5c-10.6-4.8-8.9-13.2-12.9-21.1c21.8-0.5,42.4,3.8,62.2,11.3
				c23.1,10.9,4-41.3,48.7-81.9c10.2,20.7-0.9,40.1-4.5,60.2c-2,11.1-2.1,22.6-4.4,33.7c-3.8,18.5-0.3,37.3-3.5,55.8
				C906.7,745,908.6,748.8,909.8,754.1z M912,585.6c-54.1,54.4-26,92.1-53.7,74.2c-16.8-2.7-33.3-7.9-50.8-6.2
				c-1.8,0.2-4.9-5.9-6.3-9.5c-8.7-22-21.1-41.5-39-57.2c-3.9-3.4-7.9-6.8-11.8-10.1c-2.8-2.4-0.9-3.4,1.2-4.6
				c28.8-17.6,62.8-36.8,73.5-71c2.8-11.1,17.3-3.4,25.3-12.9c-21.9,40.5-39.3,81.8-21.2,126c3.8,8.5,10.6-0.7,14.6-2.1
				c27.1-8.9,47-29.7,66.5-49.6C917.8,557.3,915.3,583.4,912,585.6z M901.8,560.1c-6,6.4-67,61.7-68.7,41.6
				c-0.6-22.8-3.3-49.1,7.7-73.5c5.6-15,12.7-30.1,23.1-42.9c1.3-1.7,1.5-3.1,0.7-4.3c-2.2-5.5-33.2,7.7-41.5,6.9
				c-19.6,2.3-39.2-2.3-57.8-8.1c-6.5-1.1-3.4-4.2-1.8-6.2c11.4-15.5,24.7-29,42.8-36.6c6.8-2.8,8,5.3,12.4,7.6
				c0.7,3.7,10.3,7.9,8.6,9c-12.7,7.5-32.7,3.8-41.9,17.2c1.9,0.7,4,2.3,5.6,1.9c16.4-3.8,32.4-8.8,49.2-10.5
				c17.8-1.8,35.6-4,53.6-3c6.7,0,1.9,22.4,4.3,28.2c0.8,4.7-5.5,10.7-8.8,16.1c-12.8,20.9-25.7,41.8-38.2,62.9
				c-1.1,1.8,0.2,5.1,0.3,7.7c2-1.3,4.7-2,5.8-3.8c14.5-21.5,26-47,41.6-66.7c5.2,13,6.1,28.3,9.9,42.1
				C910.5,552.2,905.7,556.6,901.8,560.1L901.8,560.1z M652.5,460c-12.8-30.2-32.7-55.9-53.2-81c-8.3-10.1-16.8-20.5-29.2-26.5
				c-2.2-1.1-1.4-2.8,0.7-4c13.2-7.7,25.5-18.2,39.7-22.5c9.3-2.8,21.2,3.2,32,5.3c17.3,3.7,34.6,4.7,52,0
				c-14.8,34.1-25.3,70.1-27.2,107.2c-0.7,6.1,0.4,12.4,3.3,17.9c6,8.9,23.1-9.4,30.8-13.4c-10.4,28.4-18.8,54.6-27,81.8
				c-21.5-21.4-44.2-38.9-75.1-51.7c19.3,0.2,33.3,0.2,51.4-3.8C659.9,467.4,653.3,461.9,652.5,460z M844.4,247.3
				c-7.2,4.6-13.7,10.4-20.5,15.7c-5.6-21.7-6.5-44.2-20-62.9c-1.7-2.3-1.8-4.1,0.8-6.5c4.9-4.9,8.4-11.3,12.5-16.9
				c13.6,19.2,19.3,43.3,29.4,64.5C847.4,243.3,847.5,245.3,844.4,247.3z M852.2,253.2c2.9,8.6,5.5,15.2,9.1,24.6
				c-6.6-5.5-13.6-7.6-19.5-11.3c-7.8-4.9,2.7-5.4,3.5-8.6C845.9,255.9,849.8,254.7,852.2,253.2L852.2,253.2z M826.2,273.8
				c7.7-4.8,17.6,2.3,24.2,7.3c10.2,6.9,16.1,7.5,18.1,20.7c1,2.3-2.6,3.4-5.8,2.5c-21.7-6.6-43.9-2-66.4-3.5
				C806,291.8,814.9,280.8,826.2,273.8L826.2,273.8z M835,397.5c-6.9-29.7-18-61.5-38-84.4c17.6,0,36.9,0.6,56.1-0.2
				c15.8-0.6,23.9,6,24.9,21.6c0.7,4-6.1,2.3-8.4,2.4c-12-2.4-13.8,3.2-13.8,14c0,18.3-1.1,36.5-6,54.7c-3.5,13-10,24.1-15,36.1
				c-1.6,3-3.1,4-5.7,0.6c-21.9-19.8-33.3-47.3-42-74.9c-1.5-4.4-4.2-4-6.7-1.9c-31.2,25.1-57.5,52.1-91.1,74.7
				c25.1-44,52.7-80.1,85.1-117.4c9.6-11.3,14.2-9,22.7,4.8c9.1,14.8,16.6,30.6,22.1,47.1c3.6,7.9,3.8,26.1,12.5,29.4
				C835.2,403.8,835.7,400.2,835,397.5z M889.7,428.6c-9.3-5.6-18.4-11.7-28.8-15.4c-1.1-0.4-1.7-2.4-1.9-2.7
				c2-11.3,1.9-30.7,14.6-15.1c4.7,3.7,7.7,9.7,12.4,13.4c6.1,4.8,4.2,11.6,6,17.5C892.5,427.7,891.8,429.9,889.7,428.6L889.7,428.6
				z M894.8,450.2c-3.1,1.8-5.9-0.9-8.5-0.9c-16.8,1-33,0.8-49.6,4.1c7.7-11,14.2-21,18.4-32.4c0.6-1.6,9,1.5,13.7,4.4
				c6.4,4.1,12.7,8.7,19.7,11.3C895.9,439.5,891.7,446.3,894.8,450.2L894.8,450.2z M865.6,380.4c-1.8-10.2-0.4-22.1-1.2-32.7
				c0-1.1-1-2.5,0.9-2.5c5.2,0.1,14.5-0.4,14.8,1c3.9,17.2,6.5,34.8,9.8,54.4C881.1,392.2,874.7,384.7,865.6,380.4L865.6,380.4z
				 M685.1,524.1c10.2-28.7,17.2-59.2,29-87c6.7-12.3,20.3-18.8,29.6-29.4c9.6-10.8,22.2-18.9,33.4-28.2c2.8-3,4.7-2,5.6,1.5
				c3.5,17.4,13.2,32,21.5,46.9c-18,7.9-74.7,51-33.1,62.5c-17.8,9.4-39.1,12.5-57.4,22c-9.8,4.2-18.8,9.9-28.5,14
				C685.2,525.8,685.1,525,685.1,524.1z M893,165.7c26,26.2-12.8,106.8-10.8,142.8c-3.1-9-6.3-17.9-9.1-27
				c-4.3-14,0.7-27.7,2.8-41.3C880.9,215.4,886.7,189.8,893,165.7z M883.9,146.7c3.5,25-8,48.3-12.8,72.4
				c-2.7,11.8-4.5,23.7-6.8,36.4c-5.9-13.6-13.3-26-16.4-39.4c-0.1-38.3,26.8-73.1,16.9-113.1C871.6,120.4,880,132.5,883.9,146.7
				L883.9,146.7z M841.3,72.4c0.3-1.2,0.7-2.4,1.2-3.5c0.5,0.4,1.4,0.7,1.5,1.2c3.3,14,20.3,22.8,15,37.4
				c0.3,34.5-11.8,61-18.5,92.4C810.2,153,841.4,121.4,841.3,72.4z M812,100.8c7.1-22.2,10.7-42.2,15.6-65.6
				c15.9,41.7-4.5,76.9-8.2,114.7C809,137.5,807.5,114.1,812,100.8z M780.9,141.8c3.8-7.1,8.8-13.6,13.9-21.4
				c6.1,14.5,12.6,28.6,17.6,43.1c0.9,2.5-5.1,7-7,11c-9.8,20-13.3,2.2-18.4-3.1C778.3,158.4,769.9,157.3,780.9,141.8L780.9,141.8z
				 M664.1,262.6c15.2-5.3,30.4-9.6,46.3-9.6c17.2,1.6,19.7-2.6,14.5-19.8c-4.4-14.7,0-29.6,1.6-44.4c2.5-19.9,4.7-37.7,11.4-57
				c44.5,38.4,65.5,80.1,79.3,135.3c0.3,0.9,0.2,1.9-0.3,2.6c-9.9,9.1-18.9,19.8-30.3,26.6c-7.3,4.4-6.1-6.9-7.2-10.3
				c-9.3-32.1-18-64.6-22.3-97.8c-0.4-3.9-2.2-12-7.3-9.2c-0.4,3.8-1.1,7.8-0.5,11.5c6.1,35.2,12.2,70.5,23.3,104.6
				c-43.9-11.8-90.8-10.3-134.8-0.1c-2.4,0.4-3.5,2.6-2.8,5c0.8,2.7,3.2,3.6,5.6,2.9c42.7-9.9,88.8-8.9,131.1,2.1
				c2.5,0.7,3.4,2.4,2.1,3.9c-14,16-28.9,31.3-41.7,48.2c-21.2,27.3-41.2,55.6-55.1,87.3c2.9-30.6,6.8-60.8,17.1-89.8
				c0.1-8,19-31.3,4.6-31.8c-36.6,1.7-74-0.3-107.6-16.5C610.8,283.9,636.7,272.5,664.1,262.6z M630.6,261.8
				c3.2-0.6,2.7,1.9,0.4,3.2c-18,8.9-33.3,21.5-47,36.1c-12.7,12.4,21.2,15.5,13.8,21.8c-10.6,5.4-21.1,10.9-31.9,16.1
				c-5.1,2.4-6.8-0.5-6.8-12.1c-1.7-8.1,4.8-15.2,7-23.5C583.9,229.5,549.3,244.7,630.6,261.8z M556.7,305.2c-0.2,1.4-1.7,2.6-3.4,5
				c-8.3-40.3-41.3-64.5-59.2-100.4c21.4,12.7,41.2,20.7,63.6,29.9c10,3.9,5.9,12.6,5.6,18.1C562.4,273.6,559.2,289.4,556.7,305.2z
				 M335.1,105.1c-7.3-19.9-13-40.3-12.5-61.8c31.9,26.6,76.7,30.8,111.2,54.7c14,8.4,21.9,22.1,34.7,30.9c2.9-4.7,7.1-9,8.4-14.1
				c7.4-30.4,19.5-59.4,35.8-86.1c1.8-3.3,1.1-5.1,5.2-0.4c31.5,31.8,37.8,79.5,34.2,122.4c-0.3,4.6,4.8,4.8,6.8,3.8
				c14.3-7.1,30-9.8,45.3-10.6c10.4-0.6,21,5.9,31.8,8.1c7.9,1.6,14.6,5.6,20.9,9.6c4.9,3.1-1,8.6-3.2,11.4
				c-21.3,27.6-51.5,45.7-83.7,57.7c-8.9,3.1-16.2-3.9-23.8-7.1c-13.6-5.7-26.9-12.2-42.6-19.5c19.9-4.2,119.2-11.5,117.2-29.8
				c-0.8-1.1-3.8-1.7-5.3-1.1c-25.2,10.3-52,12.6-78.6,15.9c-10.5,1.3-21.1,4.1-31.5,3.6c-4.1-0.2-0.5-8.1,0.5-11.4
				c6.7-29.9,12.1-60.5,11.2-91.1c0.1-4.9,2-12.7-5.1-12.3c-4.9,0.3-3.1,8.5-3.5,13.1c-1.7,36.6-10.4,70-15.8,106.7
				c-45.9-30-91.3-59.1-129.9-98.1c-2.9-2.7-8.1-6.1-10.5-3.6c-3.4,3.7,2.8,5.6,4.9,8.1c9.7,11.6,20.1,22.5,32,31.8
				c-7.1,1.6-29.1,15.6-32.9,9.9C346.6,133.5,340.3,119.5,335.1,105.1z M460.5,248.2c0.5-1.1-1.5-4.6-2-4.5c-3.8,0.4-8.1,0.5-11,2.6
				c-24.7,15.6-52.7,24.5-82,21.3c-1.5-0.2-3.2,1-4.8,1.6c8.4-4.1,8.6-15.8,18.6-18.6c35.1-8.9,69.3-24.4,102.7-37
				c10.8,7.6-15.1,73.9-23.4,79.6c-0.7-0.7-1.6-1.8-1.5-2.7C458.5,276.3,454.6,261.9,460.5,248.2z M387.8,286.2
				c-5.4-3-11.1-5.3-18.2-8.6c29.7,0.5,54.8-6.8,78.7-21.3c-0.4,15-1,30.1,2.5,45c0.3,1.7,0.7,3.2-2.8,3.5
				C425.4,306.8,406.6,296.5,387.8,286.2L387.8,286.2z M405.3,302.8c-41-1.1-24.7,18.4-42.1-18.1L405.3,302.8z M348.7,317.4
				l-23.4-45.9c10.9-5.2,55.6,36.3,27.8,40.9C350.9,312.8,348.2,313.5,348.7,317.4L348.7,317.4z M409.1,162.2c0.1-3,0.3-6,0.4-9
				c18.2,10.1,32.4,25.6,51.4,34.6c7.2,3.5,13.2,9.5,19.6,14.2c-17.2,10.3-36.5,16-55,23.8C341.2,259.1,410.2,230.8,409.1,162.2
				L409.1,162.2z M175.9,210.8c24.2-6.8,49.2-14.4,74.4-13.2c4.1,0.3,8.5,3.4,11.9-0.7c3.2-3.9-2-6.1-2.7-9.2
				c-2.2-10.3-5.6-21-4.8-31.2c0.9-11.1-3.1-21.6-1.4-32.3c1.2-7.5,0.5-15.1-1.9-22.2c-0.4-1.2,1.4-3.1,2.2-4.7
				c17.6,14.9,33.1,32,46.2,51c6.8,9.6,13,19.7,19.1,29.8c3.2,5.3,7.4,3.9,10.2,1.4c3.6-6.4,71.7-46.9,69.5-33.4
				c5.3,46.6-19.9,87.1-48.3,121.5c-3.7,4.3-8.8-3.3-14.3-3.4c-17.4-5.6-26.6-7.2-10.4-20.4c16.1-22.6,33.2-44.6,50.2-66.6
				c2.5-3.2-1.1-2.8-1.7-4c-1-2.2-3.6-1.3-4.5,0.1c-19.9,24-37.7,50.2-58,73.7c-7.8-19.4-24.8-97.5-41.6-103.7
				c-0.1,2.5-1.3,5.5-0.3,7.5c14.7,32.3,26.7,67.5,32.7,101.9c-3.5,0-7.2,0.4-10.4-0.7c-15.5-5.6-31.8-7.4-47.7-11.1
				c-39.5-7.1-75.4-9.4-116.3-5.4C144,223.5,159.5,216.6,175.9,210.8z M368.7,405.3c-0.4,2.3-2.5-0.4-3.1-1
				c-24.2-22.8-39-52.9-55.6-81.1c-2.7-4.7-5.1-0.2-5.6,0.8c-8.6,16.8-23.1,28.2-37.3,39.5c-14.4,11.5-31.6,19-49.9,21.7
				c-6.6,3.7-12,4.9-7.9-5.6c9.7-24.9,11.3-53.4,31.7-73.8c8.4-8.5,4.3-14.2-7.1-14.7c-40.6-4.6-74-25.2-108.7-45.4
				c58.1-6.6,115.8,5,172.8,15.5c6.5,1.1,4.4,5.1,2.5,8.2c-9.8,15.9-19.3,32-31.2,46.4c-10.7,12.9-20.9,26.2-31.4,39.1
				c-1,4.2-11.2,5.5-5.6,10.4c4.1,3.7,9.1-3.1,12.3-6.8c26-27.6,49.2-57.4,67.4-90.7c21.5,31.8,33.3,69.3,43.2,106.3
				c1.4,5.1,8.6,3.7,6.7-2.1c-2.1-13.2-2.7-26.6-8.9-39c9.1,8.5,21.4,15.2,20.9,29.1C373.4,376.5,370.8,391,368.7,405.3z
				 M542.1,471.9c-2.3,20.9-4.3,41.9-11.9,61.8c-8,17.6-9.4,38.5-21.7,53.8c-10.1-33.9-19.6-67.9-38.5-98.1
				c-4.8-8.2-11.9,1.8-16.8,4.7c-18.9,11.4-39.2,20.6-60.2,27.3c-16.6,5.2-33.7,7.6-50.2,13c-4.1,1.3-10.1,1.3-13.4-0.9
				c-2.9-1.9,0.8-7.1,1.4-10.8c9.4-41.2,27.7-81,56-112.7c6.2-6.5,13.7-12.9,17-20.8c2.9-7.1-5.3-13.6-9.3-19.6
				c-12.9-17.4-24.2-36.3-41.7-49.6c107.6-33.1,93.3,41.2,139.5-75c1.3-3.3-0.9-9.5,2.9-9.3c3.4,0.2,6.9,5.1,9.7,8.5
				c23.9,26.5,41.1,57.9,48.1,92.9c4.5,15.3-10.3,15.6-17.3,21.5c-8.4,6.9-18.8,11.3-28.2,17c1.1-26.4,6.2-52.3,0.1-78.9
				c-1.9-9.7-0.6-20-6.1-28.9c-0.9-1.4-1.4-3.7-3.4-2.3c-1.4,1-2.9,3.5-2.6,4.9c7.1,34.4,7.5,70.1,3.5,104.8
				c-0.4,3.6-1.8,0.8-2.8,0.3c-24.9-12.5-75-46.7-101.1-45.1c12.1,15.7,35.8,16.7,52.1,26.9c14.9,8,30.3,15.6,43.5,25.9
				c4.6,3.5-5.5,9.1-9,11.5c-30.4,20.4-57.2,44.9-84.5,69c-6.2,6.5-51.6,42.9-45.4,48.6c3.1,2.9,5-0.3,7.2-2.3
				c45.5-39.8,88.2-83,139.4-115.7c2.5-1.8,2.2-0.2,2.4,1.5c4.1,26.6,5.7,53.5,6.8,80.3c0.9,15-2.9,30.4,1.5,45.1
				c9,6.2,5.8-53.8,5.8-60c0.5-23-0.6-44.9-6.4-67.9c33.3,10.7,60.4,30.8,91.8,45c3.4,0.9,6.2,8.7,9.5,2.8c2.1-3.7-4.7-7.4-8-9.3
				c-28.8-16-56.2-35.3-87.7-45.5c11.6-11.7,27.8-19.8,41.9-28.6c16-12.8,81.1,89.2,87.9,104.9c-30.7,4.8-62,3.8-92.3-2.9
				C543.3,457.4,542.8,465.8,542.1,471.9L542.1,471.9z M382.8,368.1c14.9,13.8,14.4,19.6-3.9,39
				C380.1,393.3,384.3,381.3,382.8,368.1z M712.8,642.6c-11.8-6.5-9.9,5.5-11.3,9.5c-14.8,42.5-39.7,80.7-71.6,112.5
				c-4.2-15.7-13.4-29.4-15.6-45.4c-1.6-11.5-4.3-22.9-5-34.5c-1.2-17.5-1.7-35-1.3-52.5c0.1-4,1-8.1-2.7-8.9
				c-5.1-1.1-3.5,5.3-5.8,7.7c-7,7-16.4,9.6-25.5,11.7c-26.2,4.6-54.1,13.9-80.7,9.6c-5.2-1.5,0.8-8.5,2.7-10.8
				c25.7-35.1,56.6-67.3,97-85.2c5.5-2.6,0.4-7.6-1.4-9.8c-18.3-23.1-28.8-50.2-39.4-77.1c43.9,5.5,82.4,31.3,114.2,60.9
				c3.7,4.8,1.6,31.7-3.9,33.3c-2.2,0.7-7.1-5.2-9.7-8.8c-8.3-11.4-20.8-18.3-30.2-28.2c-7.2-7.6-15.4-13.4-23.8-19.4
				c-2.3-1.6-4.1-6.1-7-3.5c-3.9,3.5,0.7,6.4,2.9,8.4c20,18.6,40.3,36.9,61.2,55.9c-30.6,8.8-124.8,37.4-134.3,67.2
				c3.9,5.7,8-1,10.2-2.8c37.8-29,83.7-40.1,127.6-57.5c-8.8,47.4-16.6,93.3-24.4,140.5c-0.5,4-1.8,9.9,3.4,11.2
				c6.4,1.6,5.8-6.2,6-8.5c6.2-45,16.6-89.1,23.1-134c1.9-8.2,7.3,0.9,9,1.9c30.2,17.5,60,36,86,59.5c2.7,2.4,6,2.3,7.6,0.8
				c2.4-2.3-1-4.1-2.5-5.7c-26.4-29.5-61.3-47-94.4-67.1c30.7-21.5,69.5-31.3,101.6-51.1c5.4-1.4,2.2-6.1-2.4-3.8
				c-31.5,14.5-64.3,26-95.1,41.7c-3.8,1.8-2.4-2.7-2.1-3.6c3.3-10.6,6.7-20.9,18.7-25.6c10.7-4.2,20.8-9.8,31.4-14.1
				c28.7-11.2,58.3-23,89.8-20.1c18.4-0.9-44.9,57.1-51.9,58.4c-62.3,36.7,1.2,1.5,41.5,118.7C812.1,695.7,719.4,647.7,712.8,642.6z
				 M707,1495.3c-7.6-14.7-9.4-32.1-21.4-44.6c-1.8-4.8,11.7-20.4,14.9-27.3c1.4,22.8,12.8,41.2,18.9,61.2
				C721.3,1490.6,710.2,1490.4,707,1495.3z M737.3,1478.5c-3.1-0.1-6.7,4.3-9.7-1.6c-9-17.7-13.8-36.5-19.1-55.4
				c-3.4-12,6.4-17.6,7.6-26.8c0.3-2,2.5-2.7,3,0.8c6.7,21.1,12.3,42.6,18.5,63.8C738.4,1464.8,745.9,1476.8,737.3,1478.5
				L737.3,1478.5z M764.4,1468.8c-4,1.7-8.7,2.1-12.4,2.9c-8.1-28.8-20.4-55.9-25.1-85.6c-1.7-17.6,10.9-28.8,17.5-42.9
				c-1.3,31,13.8,58,24,86.1c3.5,10.6,6.9,21.4,8.2,32.3C777.3,1468.2,768.8,1466.9,764.4,1468.8L764.4,1468.8z M799.6,1462.4
				c-12.2,5.2-12.6-4.1-14.7-12.8c-4-17.2-11.2-33.3-17.9-49.6c-10.6-23.7-19.9-51.8-12.2-77.8c7.7-14.5,14.3-28.6,22.3-43.1
				C769.8,1342.3,784,1402.6,799.6,1462.4L799.6,1462.4z M807.6,1282.5c-1.7,9.3,0.4,20.8-1,29.7c-17.8,6.7-10.3,24.2-15.7,36.2
				c-3.5,7.8-0.9,16.2-3.7,24.3c-3.1-35.2-1.9-70.2-3.5-105.4c-1-12.1,9-22.7,13.6-34.2c1.3-3.2,4.5-5.7,3.2-14.3
				C810.1,1242.4,810.6,1262.2,807.6,1282.5L807.6,1282.5z M819.3,1320.2c-5.1-4.4-2.3-10.9-2.6-16.3c-0.8-17.4,2.1-34.9,0.6-52.4
				c-4.6-39.6-19.6-28.7,2.3-70.2c11.2,10.6,10.1,25.3,12.8,38.6c1,5.1-2.2,10.9-2.6,16.5c-4,34,3.4,67.3,10.2,100.3
				C833.3,1331.3,826.1,1326,819.3,1320.2L819.3,1320.2z M870.9,1372.9c-26.2-25.5-25-64.8-32.7-98.3c-1.7-23.7,4.4-48,1.2-71.9
				c-2-11.3-8.9-19.7-12.8-29.8c-3.8-9.8,2.5-16.8,5.4-24.6c10.2-23.6,20.7-48.2,31.3-71c3.8,37.4-8.4,76.6-9.2,114.6
				c-0.9,30.6,6.9,59.8,12.5,89.5C871.3,1311.5,871.1,1342.3,870.9,1372.9L870.9,1372.9z M888.2,1340.8c-2.3,4.4-3.9,9.2-7.2,17
				c2-50.2-9.1-95.4-16.4-144.2c-3.8-27.2,3.3-53.3,4.6-79.9c0.7-13.5,2.2-27,2.8-40.5c0.8-17.8-5.4-36.2,4.6-53.9
				c7.4-13.1,11.4-28.2,17.5-44c6.5,36.2,0.8,68.3-3,103.1c-0.9,34.1-4.6,68.2-0.7,102.4C897.5,1247.8,914.4,1296.6,888.2,1340.8
				L888.2,1340.8z M915.2,1265.7c-1.3,3.2-1.6,6.8-2.6,11.7c-3.4-33.1-12.3-63.7-14-95.6c-2.4-43,2.5-85.5,7-128.1
				c2.1-23.8-1-46.3-5.4-69.3c0.4-14.9,9.5-28.2,14.6-43.5c-0.5,35.2,5.5,66.9,11.6,100.9c4,37.2-5.3,74.3-3.6,111.6
				C917.4,1208.4,941.2,1212.8,915.2,1265.7L915.2,1265.7z M947,948.2c24.4,55.8-0.8,118.8,25.3,173.8c4.6,9.4-4.5,15.7-8.3,22.8
				c-10.9,20.3-19.5,41.5-28.1,63.5c-6.5-44.5-2.4-88.6,1.6-132.8c2.3-17.3,0.7-34-2.7-50.7c-8.5-42.8-15.1-85.1-7.4-128.8
				C936.8,913.3,940.4,931.3,947,948.2z M935.9,816.1c-2.6,52.1-30.8,87.9-74.2,114.5c-0.4-33-5.9-68.8,13-98.3
				c1.3-2.4,1-5.4-0.8-7.5c-3-3.6-7.3-2.6-10.1-1.6c-26,8.7-50.7,22.1-78.2,25.6c-10.2,1.6-20.7,4.1-30.8,3.3
				c-7-1.6-37.8,5.8-35.5-5.9c2.1-33.4,48.7-68.6,76.5-83.4c8.2-4.2,16-9.2,24-13.8c2.9-1.7,2.8-4.2,0.4-5.8
				c-22.7-14.9-43.6-36.7-52.5-61.5c1.9-2.3,5,0.4,7.7,1.1c10.2,2.9,20.5,4,31.2,4.7c16.6,1.1,26.3,15,38.2,24.3
				c19.3,15.6,39.3,31.1,57.5,47.8c-31.8,14-148.6,48.7-158.8,76.7c1.9,3.1,5,1.5,7.5,0.2c36.9-21.3,76-37.3,116.1-51.5
				c13.2-5,26.5-10,39.8-14.8c1.7-0.6,4.2-1.5,5.4-0.7c2,1.3-0.5,3-0.7,4.5c-1.4,32.8-10.3,65.3-21.4,96.2
				c-1.8,7.2-11.2,17.7-8,24.5c3.2,0.5,6.3-1.2,7.7-4.1c16.5-36.5,31.9-75.9,30.8-116.5C943.8,789.4,940.7,793,935.9,816.1z
				 M939.4,766.8l-1.4,8c-5.8-5.7-18.4-12.3-2.3-15.5C942.5,758.8,937,764.6,939.4,766.8z M937.9,703.8
				c-1.2,39.2,14.9,41.3-17.4,50.8c-7-20-1.5-42.2-1-63c2.6-18.6,3.7-38.3,8.8-56.2c0.9,0.9,2.3,1.7,2.5,2.8
				C934.9,659.8,937.3,681.8,937.9,703.8L937.9,703.8z M966.7,222.2c-15.3,16.6-10.3,37.4-11.8,56.9c-1.9,24-7,47.7-15.1,70.4
				c-6.5,18.4-18.5,35-20.4,54.8c-1.9,26.7,7.2,53.4,11.7,79.6c7.6,35.7,4,66.9-1,103.8c-9.7-45.5-22-83.9-23-129
				c-8.3-41.9-2.6-83.5,13.6-122.7c6-31.4,9.3-64.1,11.2-96.4c0.1-13.8,8.3-27,9.6-41.5c1.6-17.3,1.5-35.2,11.2-50.5
				C957.4,171.9,962.1,197.9,966.7,222.2L966.7,222.2z M665.6,901.7c4.1-15.5,46.4,8.2,53.7,9.1c6.9,3.6-2.5,12.2-6,12
				c-13.6-3.1-27.1-7.1-40.5-11C667.8,910.3,665.1,904.7,665.6,901.7z M679.2,940.7c-10-3.2-20-6.5-30-9.6c-9.6-3.2,1.9-6.6,4.3-8.3
				c6.2,1,40.2,6.4,35.7,13C686.7,939.1,684.1,942.3,679.2,940.7z M585.2,890.3c1.8-4-0.7-10.7,6.6-11.4c19-1.2,39.4,2.2,54.7,13.5
				c-3.7,3-3.5,9.1-8.4,11c-16.3-5.6-33-5.9-49.3-8.9C587.3,894.3,584,893.2,585.2,890.3L585.2,890.3z M643,953.2
				c1.8,10.9-21.1,3-27,2.7c-13.2,0.4-3.7-11.8,4.2-10.7C625,946.6,641.3,948.9,643,953.2z M614.6,920.8c-13.1-0.8-26.1-2.4-39.2-4
				c-1-0.1-2.6-2.6-2.3-3.6c2.2-7.6,11.2-6.3,17.4-6.2c0-0.3,0.1-0.6,0.2-0.9c9.5,1.7,19.1,3.1,28.5,5.1c1.5,0.3,2.5,3,3.8,4.7
				C620.2,917.6,617.3,920.9,614.6,920.8L614.6,920.8z M584,944c-0.3,3.2-3,3.3-5.6,3.1c-5.9-1.7-32.3,1-31.3-6.3
				c1.7-8.5,7.9-5.3,16.7-5.9C566.8,936.7,584.8,934.9,584,944z M516.2,877c12.8-5.5,28.9-7.9,46.8-5.1c4.5,1.8,7.7,6.4,5.9,11.8
				c-2.3,9.3-28,4.4-37,7.5C524.7,893.1,504.8,883.5,516.2,877z M537.6,914.7c-9,1.7-18.4,1.7-27.7,2.4c-4.5,0.3-10.1,0.5-10.5-4.7
				c-0.4-8.2,24.8-10.7,29.9-9.5c6.8,1,17.8-3.3,19.2,5C549.3,914.8,541.5,914,537.6,914.7z M521.1,937.9c-0.5,7-10,7.5-17,7.7
				c-6.9-0.8-20.4,6.1-23-3.2c-1.9-7.8,20.7-11,26.1-9.4C512,934.6,521.7,929.3,521.1,937.9z M432.4,892.5c-3-7.1,21.5-12.4,26.8-14
				c6.2-0.7,32-4.9,33.5,2.1c-5.4,16.3-32.7,11.8-42.6,16.3C441.3,897.5,436.3,896.2,432.4,892.5L432.4,892.5z M475.7,911.3
				c1.7,8.3-6.4,6.1-9.6,7.1c-10.6,3.1-21.7,4.6-32.6,6.7c-9.7,1.5-10.9-7.2-1.6-10.4C439.4,911.9,473.4,900.5,475.7,911.3
				L475.7,911.3z M411.6,899.3c1.1,2-0.3,5.8-4.2,6.8c-14.6,3.7-29.3,7.5-43.9,11.3c-5.6,0.9-8.1-1.2-8.6-6.9
				c-1-10,7.3-10,12.8-11.3C379.3,897.7,405.7,884,411.6,899.3L411.6,899.3z M272.7,628.5c3.2-10.8,17.9-11.3,27.6-14.1
				c5.8,2.8,17.2-1.5,14.4,11.5c-1.1,5.2-25.6,12.9-30.8,10.3C279.7,634.1,271,634.6,272.7,628.5z M186.5,701.1
				c-2.3,6.8-5.1,13.5-7.2,20.5c-1.2,3.8-1,9.6-6,8.9c-5.2-0.7-4.6-6.4-4.3-10.4c-1.1-10,5.1-17.2,8.9-25.1c1.6-3.2,5.7-2.9,7.9-1.5
				C188.4,695,187.4,698.5,186.5,701.1z M153.4,695.2c-4.4-6.6,25.9-48.4,22.9-24.8C173.6,674,162,715.3,153.4,695.2z M172.6,752.8
				c-1.4,7.1,1.2,28.4-4.6,31.6c-11.5-3.4-7.5-24.5-4.5-33.1C165.4,747.1,175,744.9,172.6,752.8L172.6,752.8z M155.3,727.5
				c-2.3,5.8-1.2,25-9.7,27.2c-13.2-5.7-1.5-25.8,0.6-35.7c0.6-1.8,2.2-5.1,5.4-3.8C156.5,717.2,154.8,721.8,155.3,727.5
				L155.3,727.5z M148.7,776.7c-0.1,7.9,7.3,34.3-3.7,34.9c-6.4,1.9-6.7-17.6-8.4-21.2C138.1,781.5,138.4,762.2,148.7,776.7
				L148.7,776.7z"/>
		</g>
	</g>
</g>
<g>
	<g id="Layer_1_2_">
		<g transform="matrix( 1, 0, 0, 1, 0,0) ">
			<g>
				<g id="Layer0_0_FILL_1_">
					<path d="M52,1548v15l-37,37h946l-37-37v-15H52 M52,52V37.7L14.3,0H0v1600h15l37-37v-15V52 M924,52V37.7L961.7,0H14.3L52,37.7
						V52H924 M976,0h-14.3L924,37.7V52v1496v15l37,37h15V0z"/>
				</g>
			</g>
			<g>
				<path id="Layer0_0_1_STROKES_1_" class="st6" d="M961,1600h15V0h-14.3L924,37.7V52v1496v15L961,1600H15H0V0h14.3h947.4 M52,52
					V37.7L14.3,0 M15,1600l37-37v-15V52h872 M924,1548H52"/>
			</g>
		</g>
	</g>
</g>
</svg>
