<svg xmlns="http://www.w3.org/2000/svg" xmlns:xlink="http://www.w3.org/1999/xlink" viewBox="0 0 976 1600">
<style type="text/css">
	.st0{fill:#FFFFFF;}
	.st1{clip-path:url(#SVGID_2_);}
	.st2{fill:#333333;}
	.st3{fill:#FFEB5C;}
	.st4{fill:#D81E1E;}
	.st5{fill:none;stroke:#333333;stroke-width:2;stroke-linecap:square;stroke-miterlimit:3;}
</style>
<g id="Paper_Backing">
	<path class="st0" d="M960,22v1556c0,3.3-2.7,6-6,6H22c-3.3,0-6-2.7-6-6V22c0-3.3,2.7-6,6-6h932C957.3,16,960,18.7,960,22z"/>
</g>
<g id="Wikipedia_Cropped">
	<g>
		<defs>
			<path id="SVGID_1_" d="M960,22v1556c0,3.3-2.7,6-6,6H22c-3.3,0-6-2.7-6-6V22c0-3.3,2.7-6,6-6h932C957.3,16,960,18.7,960,22z"/>
		</defs>
		<clipPath id="SVGID_2_">
			<use xlink:href="#SVGID_1_"  style="overflow:visible;"/>
		</clipPath>
		<g class="st1">
			<path class="st2" d="M451,1653c-15.4-11.8-18.4-34.9-26.8-51.7c-12.6-21.8,1.2-55-13.2-65.9c-60.6,29.6-125.9,39.8-194.2,39.4
				c-21.4-6.5,39.6-65.6,49.7-76.4c81.1-81,115.9-33.9,39.7-125.6c-12.5-11-90-159.9-61.6-161c81.6,24,156.9,86.7,211.6,145.6
				c47.6-16.1,115.5-61.3,143.3-110.7c1.9-4.4,9.2-4.3,10.3,0.5c12.5,43.3,4,82.6-9.7,121.8c1.9,16.4-52.5,75-32.8,76.4
				c48-8.3,98.2,3.2,144.5,16.5c17.6,33.5-118,68.3-145,74.2c-17.2,10.6,34.2,38.6,41,49.8c14.7,11.6,46.5,36.8,13.5,45.8
				c-33.6-17.5-58.5-54.4-88.3-76.2c-17.3,15.3-25.4,48.9-44.8,66.5C476.1,1632.1,468.6,1654.7,451,1653z M102.8,886.8
				c-9-4.1-1-21.1-3.1-29.5c-4-35.7,14.7-72.7,18-103.4c-11.5-5.4-26.8,3-39.4,3c-24.2,5-50-1.4-72.7,3.8
				c-17.5,12-6.7-40.4-9.5-45.1c24.3-32.4,60.5-65.8,93.7-85.3c2.7-1.6,3.8-5,2.3-7.9C78.9,603,16.6,407.2,48.3,415.6
				c69.8,28.3,109.3,83,150.2,138.3c15.9,21.4,32.3-27.8,49-36.3c17.9-15.2,98.9-92.6,113.3-69.7c5.1,71.2-26.2,139.5-54.5,199.4
				c39.3,10.6,78.6,21.1,115.1,48.6c13,12.8,58.3,37.3,54.5,53.6c-35.7,15-78.2,19.4-116.2,23c-29.8,9-120.7-22.9-130-8.1
				c-0.6,14.3-0.2,23.4-16.1,13.5C202.4,786.1,133.2,875.5,102.8,886.8z"/>
			<path class="st3" d="M0,1604c-11.1-33.2-0.4-234-4-276.2c5.1-6.1-7.5-119.2,4-124.8c28.1,30.3,39.9,94.7,40.8,144.3
				c-1,5.2,3.2,10.9,8.7,8.2c59.6-21.2,121.7-32.4,184.2-40.4c25.5,0.4-26.8,54.4-35.5,65c-9.2,17.8-101.8,66.5-84.7,75.6
				c25.5,12.2,158.7,116.4,77.2,115.3c-166.5-17.1-130.3-109.3-180.6,27.2C12.7,1604.6,3.8,1604.3,0,1604z M576.8,1222
				c-36-10.6-167.6-128.3-53.9-87.5c14.6-5.8,46.5-9.3,43.3,14.8C567.6,1166.7,587.4,1211.3,576.8,1222z M376.4,1207.7
				c-9.8-10.2,10.1-42.1,5.8-59c5.5-12.7-8.3-52.7,5.3-53.2c8,1,15.9,8.1,18.8,13.5c3.1,6.4,9.9,0.4,14,0.4c6.7,1,13.3,2.5,19.7,4.6
				C483.5,1125.3,393.1,1199,376.4,1207.7z M564.5,1052.7c-21.2,1.2-31.7-20.3-49.3-30.2c-13.1-5.3-10.5-14.7-18-18.1
				c-10.6,0.8-54.3-17.5-27-22.2c13.3-13.7,34-21.6,49.6-34.6c57-33.7,131.5,1.3,186.1,23.8c23,10,36.6,17.5,5.6,30.4
				C666.5,1027.4,614.7,1042.4,564.5,1052.7L564.5,1052.7z"/>
			<path class="st4" d="M356.2,1234.7c-61.8-43.4-84.9-111.5-107.8-180.1c-41.5,33.9-72.9,83.3-101.7,128.3
				c-19.5,4.8-33.7-27.9-13.6-37.7c99.1-134.7,136.6-67.9-5-138.3c-9.4-9.4-42.6-15-39.6-29c32.2-22.7,72.8-33.1,110.6-42.5
				c88-7.8,8.1-43.5,31-169.7c19-25.4,120,90.3,132.9,107.1c3.3,4.8,7.8,3.6,12.3,0.4c21.1-13.3,44.8-19.3,67.8-26.7
				c60.1-18.6,109.3-15.3,172.2-9c6.2,0.7,6.3,8,1.7,11.9c-35.5,63.5-100.6,94.3-154.4,138.8c52.6,36.6,116.7,78.8,155.4,127.4
				c-69.3,34.8-156.8,10.5-227.2-18.3c-3.1-1.2-6.6,0.2-7.8,3.3c-0.3,0.8-0.5,1.7-0.4,2.6C385.9,1145.5,381.5,1203.4,356.2,1234.7z
				 M829,968.8c-19.8-32.7,10-134.7,21.3-173c51.6-131.4,0.1-12.4-229.1-46.9c-9.3-4.1-39.1,0.7-35-13.7c38-31.8,72-63.5,117.8-86.6
				c40.2-21.1,81-37.7,125-49.6c13.1-5.6-4.3-17-8.3-23.5C803.1,560.1,722,409,758.5,407.8c75.5,21.6-5.8-5.9,117.7,43.3
				c33.5,14.3,62.2,35.3,93.1,53c3.7-1,10.2-3.5,10.7,2.5c-0.2,91-0.1,196.7,0,287.7C938.2,855.6,886.3,922,829,968.8z M303.4,429.9
				c-16-41.7-3.5-94.9-1-142.1c-4.5-16.8,31.6-102-9.5-78.3c-57.4,16.3-111.2,45.3-167.6,56.1c14.3-72.7,73.8-126.8,135.6-166
				c12.4-14.6-50.6-36.1-62.8-51.1c-18.5-11.5-35.8-32-55.4-43.6c-5.2,0.1-5.4-9,0-8.8c81.5,0.1,213.1-0.1,294.6,0.1
				c5.7,5.6,227.8-11.8,217.6,7.2c-180.6,123.3-163,12.9-48.8,190.4C629,230,639.2,272.1,649.5,313c-4.4,14.9-33-18.5-42.2-20.6
				c-47.3-34.3-101.8-58-154-80.9C421.6,294,379,373.1,303.4,429.9z"/>
			<path d="M976,802c-26.4,52.4-67.1,96.4-107.6,138c-14,12.4-26.5,30.3-44.8,36.5c-1.9-1.6-4.5-2.2-4.8-6
				c-4.9-81.1,17.6-161.5,49.4-235.1c-91.2,28.4-191.8,32-284.9,9.4c-8-2.1-4.4-8.8-0.3-12.2c23.2-19.3,44.7-40.5,69.4-58.2
				c26.8-19.2,55.6-34.2,85.5-47.8c24.6-11.1,49.2-23.5,75.4-28.1c22.8-4,14-9.7,5.4-19.3c-40.7-49-66.8-108.6-75.1-171.8
				c-0.3-1.3,1.7-3,2.7-4.6c1.1-1.8,2.4-1.9,4.6-1.3c34.6,9.5,69.2,19.6,102.2,33.6c42.7,17.5,84.7,37.8,119.7,68.5
				c3.6,3.5,0.5,4.4-3.1,6.6c-64.2-44.5-136.3-78.6-211.8-98.4c-11.3-2.1-3.3,9.4-3,12.3c11.1,64.8,46,122.9,88.1,172.4
				c-4.3,2.2-8.4,5.4-12.9,6.5c-43,11.6-84.7,28.5-124,49.2c-43.7,21.9-80.5,54.9-117.1,86.3c89.8,19.7,188.1,16.3,275.9-12.2
				c8.5-4.4,17.5,1.3,11.8,10c-30.4,71.4-52.3,150.5-48.6,228.3c2.9,1.4,2.2-2.5,3.6-3.3c28.1-22.8,52.5-50.1,75.9-77.7
				c21.6-25.5,44.8-50.1,59.7-80.4C972.4,788.3,980.8,793.5,976,802z M840.6,495.5c41.9,38.4,86.5,73.2,132.5,106.4
				c2,1.4,4.2,3.2,6.1,0.7c1.4-2,0.1-4.6-2-6.2c-19.2-13.3-35.7-30.5-55.4-43c-41.8-29.3-76.2-67.2-118.9-95.3
				c-1.7-1.2-3.8-2.5-6.2-0.2c-4.9,8.3,10,21,14.8,26.4c42.1,41.3,81.5,85.4,125.8,124.4c1.1,0.9,4.1,2.9,1.2,4
				c-19.1,7-38.2,13.8-57.5,20.1c-65.9,20.8-134.4,40.5-195.8,71.5c10.8,7.7,24.8-0.7,36.4-1.7c54.4-9.4,108.7-19.9,161.7-35.5
				c27-7.1,53.8-14.7,80.8-21.6c4.5-0.9,2.4,1,1.3,2.9c-30.6,55-62.4,109.7-84.6,168.8c-10.5,26.3-21.2,52.6-31.8,78.8
				c-0.5,1.3-1.6,4.3,1.4,4.9c1.9,0.4,3.7,0.7,5-2.3c3.8-9,8.2-17.7,13.1-26.1c24.9-37.6,46-77.6,72-114.4
				c9.4-17.2,21.5-32.1,33.4-47.4c2.4-3,5-6.8,2.5-11c-1.4-0.2-4.5,1-5.4,2.1c-30.9,40.9-59.3,84.5-85.3,128
				c8.7-31.7,25.2-63.2,41-92.7c16.7-30.3,31.7-61.6,49.1-91.5c1.7-3.1,4.7-6.7,1.2-9.6c-1.4-1.8-2.9-0.9-4.7-0.2
				c-76.3,22.4-154.3,38.6-232,55.6c0.8-2,2.5-3.6,4.6-4.3c19.6-6.7,39.2-13.2,58.8-20c47.6-15.5,95.2-31.4,142.6-47.8
				c18.1-4.8-7-16-11.5-21.9c-35.3-37.1-72-72.8-109.1-108.2l2.3-2.5C832.3,489.6,836.8,492.2,840.6,495.5z M731.8,994.7
				c-50.6,32.6-106.9,49.1-165.2,63.4c17.4,17.6,37.6,32.5,52.2,52.4c5.7,8.1,2.1,11-8.3,14.7c-69.6,20.3-37-18.4-27,91.8
				c12.7,39.4-76.9-34.5-82.4-42.5c-13.1-13.5-23.9-29-31.9-46.1c-3-6.4-9.5-0.8-13-4.6c-7.4,30.1-33.5,50.9-54.7,71.8
				c-22.2,19.3-27.7,10.3-40.3,40.9c-6.6,9.7-11.3,0-13.4-2c-51.6-47.4-92.1-107.5-97.2-178.6c-29.8,29-56,61.4-80,95.2
				c-8.8,6.4-21.3,48.5-32.6,37.9c-7.6-6.2-15.7-11.5-19.9-21.4c-3.6-8.5,4.3-10.6,7-14.8c25.5-38.4,58.9-71.1,92.5-102.5
				c5.2-3.8-6.3-4-8.5-5c-45.3-10.1-84.6-36-124.6-58.6c-12.9-6-1.8-11,5.7-15.4c15.8-8.1,30.7-18,47.8-23.1
				c33.2-10.1,66.5-19.8,101.2-23.1c2-0.2,2-1.4,0.9-3.1c-10.4-24.3-13.3-51.1-16.8-77.1c0-20.9-0.1-41.4-7.2-61.4
				c-1-3.8-3.3-1.9-4.4-0.2c-10.1,14.5-19.5,29.5-30.2,43.5c-3.5,9-89.2,87-88.4,59.8C88,712.4,180.5,761.5,17.9,765
				c-6.5,0.8-15.2-1-15.3-7c-0.1-5.2,8.9-2.8,13.9-3c33.3,1.1,66.2-1.9,99-7.8c9.3-2.2,12.8,1.7,8.1,10.5
				c-16.7,39.6-21,82.3-20.8,125c41.1-25.5,73.6-62.5,100.9-101.6c13.6-16.7-1.7-27-3.4-40.2c-0.7-5-5.8-8.3-5.7-14.2
				c0.1-2.5-2.7-5-4.2-7.5C168,750.5,152,785.8,139.1,822c-1.3,3.4-2.1,8-6.5,6.7c-3.8-1.2-1.8-5.8-1.3-8.7
				c2.3-14,4.4-28.1,7.8-41.9c8-24.5,14.5-50.2,27.4-72.7c1.1-7.8-59.4,2.1-67.5,2.8c-25.4,3.4-49.1,12-72.2,22.7
				c-9.4,4-3.3-8.9,0.3-10.7c35.9-25.6,78.2-45.6,122.5-49.3c7.1-0.7,14.4-0.2,21.5-0.2c2.2,0,1.9-1.4,1.4-2.7
				c-18.1-57.7-49.5-109.6-74.8-164c13.5-2.7,28.6,31.5,36.3,41.1c25.1,34.3,39.9,74.6,62.2,110.6c19.4-58.8,58.1-106,101.3-148.9
				c4.2-4.4,8.8-8.4,13.1-12.6c1.2-1.2,2.2-3.3,4.3-1.8c1.8,1.4,2.6,3.5,1.1,5.7c-20.7,29.4-41.7,58.5-59.2,90
				c-14,24-24.8,49.5-33.8,75.7c-0.5,1.5-0.2,3.2-4.2,4.5c59.4,2.5,115,21.1,168.8,44.7c11.9,5.3,25,8.5,35.1,17.4
				c5.2,3-0.8,8.7-5.2,6.1C354.4,713,285,695.4,217.2,705.8c5.9,14.9,12.1,30,17.8,45.3c2.4,6.4,8.6,4.6,12.5,5.4
				c36.6,6.8,74.6,14.4,111.8,12.1c38.5-3.7,78.7-7.9,114.5-22.5c-33.2-35-74.9-63.8-119.9-81.7c-12.7-5-26.6-7.4-40.2-9.2
				c-16.5-2.4-17.5-3.9-8.3-19.4c25.4-45.5,45.8-94.5,50.5-146.8c0.9-13.9-1.6-27.8,1-41.7c0.5-2.5-0.7-3.3-3.1-2
				c-53.2,28.9-104.9,66.5-138.4,117.7c-2.9,5.1-14.9,0.7-20.1-6.6c-9.6-13.4-19.8-26.3-29.7-39.5c-32.3-42.3-72.2-79.6-122.2-99.1
				c3.4,59.6,19.1,118.8,40.1,174.5c3.7,11.3,8.9,22.1,14.3,32.7c2.9,5.6-2,6.8-4.1,7.9c-36.8,20.4-65.1,51.4-93.2,82
				c-0.7,1.2-1.5,3.7-3.5,1.3c-1.6-1.9-2.8-3.5-0.8-6c23.9-33.4,55.3-60.5,90.3-82.1c7-4.1-2.4-10.1-4.2-14.8
				c-10.7-28.6-22.6-56.7-29.7-86.7c-8.9-37.3-16.3-75.1-17.8-113.5c-0.7-9.6,6.1-7,9.4-5.5c70.7,26.7,118,86.4,160.9,146
				c1.4,2,2.9,6.2,6.7,0c34.7-51.8,86.9-91.6,142.9-118.3c4.9-2,10.3,2.6,10,6.9c3.6,61-7.2,105-32.1,160.6
				c-40.5,82.4-24.6,16.2,74.3,78.1c25.4,14.7,47.2,33.7,68.5,53.6c3.7,3.7,5.5,8.9,4.9,14.1c-0.4,3-7.1,4.8-11,7
				c-24.1,11.9-50.2,15.1-76.4,17.9c-44.2,9.3-87.8,0.6-131.7-4.4c38,23.3,68.9,53.1,95.8,87.9c9.3,11.8,10.5,20,23,7.4
				c35-17.3,72.9-27.5,111.2-34c40.9-7,81.8-1.2,122.8,2.5c37.3,6.8-50.6,90.3-64.7,98c51-1,101.6,8.6,147.7,30.1
				c13,6.1,25.6,13,37.7,20.6C744,987.4,735.4,992.6,731.8,994.7z M214.8,718.6c-1.7-6.6-14.2-14.1-0.6-20.7
				c4.7-2.3,10.6-2.7,16-2.8c40.2-2.5,80.6,1.5,119.5,11.9l0.3-1.3c-43.3-15.5-88-29.6-134.6-28.7c-5.3,0.3-5.3-4.1-4.1-7.4
				c16.4-43.2,35.8-85.4,61.8-123.8c-30.1,32.1-51.9,70.8-69.3,111.1c-2.2,5-5.3,8.8-10.4,10c-4.3,1.1-2.2-3.5-3.2-5.3
				c-12.3-22.7-24.3-45.6-38-71.3c1,4.8,1,6.6,1.7,8c11.7,21.6,16.7,45.8,26.6,68c1.3,3,5,9.6-2.8,10.7
				c-37.9,3.8-75.4,7.7-109.2,27.6c6.1-0.7,11.9-0.4,17.2-2c26.5-8,54.2-7.1,81.4-7.9c7.5-0.9,7.4,5.8,6.9,7.4
				c-6.5,23-17.6,40.1-21.6,65c14.3-18.7,17.8-38.6,34-55.2c10-13.3,12.5,0.8,15.9,10.5c6.9,17.9,12.5,36.3,18.6,54.4
				c0.3,0.8,1.5,1.3,2.3,2c3.4-6.1,1.4-14.4,2.5-21.4C226.6,743.2,218.1,731.6,214.8,718.6z M285.6,1014.9
				c8.2-6,16.3-12.1,24.5-17.9c9.5-7.5,15.1-8.4,12.8,5.3c-0.2,33.6,4.3,66.3,9.2,99.3c2.3,12,4,24.1,4.9,36.3
				c0.1,3.1,4,4.5,3.8,0.5c-7.5-234.3-35.3-132,130-71.3c-38.5-25.2-80.2-47.6-113.6-79.4c-3.1-3.8-14.5-9.8-7.2-14.7
				c39.3-25.1,81.7-45.5,123.1-66.8c-41.7,11.5-80,33.2-118.2,53.3c-6.9,4.2-14.3,11.2-20.6-2.2c-19.5-35.3-38.7-71-56.8-107
				c-1.3,0.8-1.6,1.5-1,3.2c11.7,36.5,25.3,72.4,39.1,108.2c1.1,3,0,6.5-3.3,5.2c-8.9-3.8-18.4-2.7-27.4-3.2c-33.2-2-66.9-1.6-99,8
				c1.4,1.2,3.3,1.7,5.2,1.4c37.4-4.4,75-0.4,112.4,2.5c3.4,0.5,9.5-0.5,10.6,5.2c0.3,1.7-1.5,4.7-3.2,5.8
				c-41.7,25.4-78.2,58.5-113,92.5c-19.9,19.8-40.6,39-55.8,62.6c-5.6,8.8-25.7,15.9-9.3,31.9c3.4,3.3,8.1,8.6,11.6,6.2
				C181.1,1117.8,227.8,1058.9,285.6,1014.9L285.6,1014.9z M439,1117.9c-2.9-0.8-5.7-2.2-8.6-2.3c-6.4-0.3-15.2-7.9-16,7.6
				c-1.4,11.8-5.4,25.3-11.4,35.8c-14.5-14.5,23-48.6-17.5-59.7c2.9,35.6,1.8,69.6-9.2,104.4c25.5-18.4,48.6-37.2,64.7-64.1
				C444.1,1134.4,459,1123,439,1117.9z M562.3,1150.2c-1.3-4.8,1.7-14.3-8.1-15c-8-0.4-16.1-0.3-24.1,0.2c2.6,7.8,23.1,29,17,35
				c-2.4,1.8-4.2-1.8-5.7-3.5c-6.6-7.8-13.2-15.7-19.4-23.8c-2.5-3.2-3.8-7.2-8.6-8c-10.7-1.8-21.3-3.9-32-5.8
				c-0.7-0.1-2,0.2-2.1,0.6c-0.3,0.9-0.2,2,0.3,2.8c6.5,8.6,13.4,16.9,19.6,25.6c10.7,14.9,25.6,25.2,40.1,35.8
				c11.9,8.7,23,18.8,37.5,23.9C573.1,1195.4,567.9,1172.5,562.3,1150.2L562.3,1150.2z M510,1024.9c-50.3-40.3-82.6-24.9-26.1-59.7
				c51.4-29.2,97.8-68.3,129.9-118.4c0.8-1.3,4.9-5,1-5.5c-16.4-2.1-33-3.7-49.5-4.1c-64.8-3.5-130.6,8.1-187.9,39.3
				c-5.8,3.6-11.2,6.4-17.5-1.3c-32.6-41.7-70.3-79-115.1-107.7c-8.2-5.5-10-6-10.8-1.3c-9.5,52.9,1.8,105.4,13.2,157
				c0.4,2.3,0.9,5.7-1.7,6.3c-15.1,3.4-30.5,5.9-45.5,9.7c-36.9,8.4-72.5,19.8-105.6,38.5c-1.3,0.8-2.4,1.9-3.3,3.1
				c0.5,0.8,1.1,1.4,1.8,1.9c31.1,14.7,116.8,75.5,146.9,47.2c18.8-16.7,37.7-34,61.3-46.1c-35.7-5.3-71.9-6.1-107.8-2.6
				c-13.4,1-26.6,3.9-39.9,5.6c-3.4,0.4-7.6,0.5-10.3-1.1c-2.8-10.5,24.9-16.5,32.5-19.5c41.9-15.1,85.7-10.8,129.2-9.2
				c-14.4-33.3-26.4-67.9-36.8-102.9c-4.5-15.3-10.5-30.5-11.1-46.8c0-4.9,3.5-7.5,5.1-1.7c27.5,46.2,49,95.9,75.5,142.8
				c1.7,3.2,3.6,11.2,8.9,7.8c40.5-25.2,85.2-42.3,128.9-60.9c14.3-5.7,28.8-12,44.8-11.6c5.1-1.6,7.6,0.3,2.7,4.9
				c-54.6,31.6-110.8,58.6-166.1,89.3c53.1,44.7,113.8,79.4,176.4,109.4c4.2,1.7,11,3.3,9.5,9.8c-1.3,5.9-5.7,0.2-7.7-0.3
				c-37.7-6.9-71.5-24.6-106.4-39.5c-31.2-14.5-56.9-35.2-85.7-54.6c2.5,59.8,9.9,118.9,4.1,178.6c-0.3,2.2-0.5,2.7-2.9,2
				c-9.9-2.9-6.4-12.7-8.6-18.8c-7.7-20.9-10.3-43.2-13.2-65.3c-5.2-30.1-9.3-60-7.4-90.6c0-2.1,1-4.3-3-2
				c-15.6,9.1-29.7,20.4-43.4,32c-4.3,3.6-12.3,6.2-11.2,13.8c7.4,70.5,45.8,132.6,98.9,178.2c21.2-40.3,26.4-86.3,22.1-131.1
				c-0.2-2.9-5.2-13.9,7.1-8.9s24.9,10,37.4,14.6c60.2,23.2,126.2,30.6,188.6,11.5c1.7-0.5,3.5-2.4,2.2-3.6
				C579.6,1083.2,547.5,1051,510,1024.9L510,1024.9z M465.2,987.2c17.5,15.4,41,15,62.8,13c31.3-3.1,62.7-5.2,94-7.9
				c0-0.3,0.1-0.6,0.1-1C570.3,984.5,517.2,981.5,465.2,987.2z M726.7,987.9c-40.2-27.3-162.2-71.7-204.3-37.2
				c-12.8,11-28.6,18.4-42.6,27.1c61.3-3.4,122.3,2.3,183.1,13.5c-51.1,11.9-103.2,14.3-156.4,20.2c36,20.8,38.2,48.6,81.6,32.4
				C635.8,1029.6,685.5,1017.2,726.7,987.9L726.7,987.9z M718.5,1460.7c-48.4-21-103.3-29.9-155.4-19.5
				c21.6-25.6,37.5-54.5,46.4-87.1c10.5-35.7,16.3-73.2,5.2-109.3c-1.5-11.1-12.6-20.3-16.8-4.1c-25.6,50.3-77.7,73-122.3,102.7
				c-8.8,5.8-14.3,16.6-26.5,1.7c-53.1-60.4-120.8-109.2-196.3-137.4c-6-2.2-12.6-2.5-18.3-5.8c-4.1-2.4-4.5-0.2-1.4,15
				c16.3,79.9,56.3,153.5,112,213c2.5,2.8,0.8,3.9-0.9,4.9c-15.1,8.8-29,19.3-43.1,29.6c-125.9,89.4-40.2,108.1-131.1,27.8
				c-16.4-13.8-31.7-28.7-51.6-37.6c-1.7-1.1-4.6-3.7-1.8-5.5c33.9-22.8,68.1-45.4,95.8-76.1c14.4-16.4,26.1-34.2,36.6-53
				c3.4-6.2,1.6-9.5-6.4-9.2c-12.9,0.4-25.5,2.8-38.3,3.8c-52.2,7.1-105.1,16-154,36.1c-2.5,1.1-5.7,1.2-5.2-3.6
				c3.4-22.3-1.2-45.5-4.4-67.8c-5.5-21.6-12.5-43-23.9-62.4c-3-5.1-3.8-15.4-12.1-13.3c-5.5,2-0.4,9.6,1,12.8
				c23.5,43.6,32.4,93.3,31.5,142.4c0.1,4.6,0.9,7.9,6.8,4.4c5.4-3.3,11.2-6,17.2-8.1c57.9-16.2,117.3-31.8,177.3-35.5
				c-29.1,54.6-79.7,91.9-130.7,124.6c-5,3.7-8.1,10.4,0.2,13c40.7,23.1,76.2,54.3,104.2,91.8c6,8.8-6.4,11.8-5.2,18.9
				c-55.8-1.6-110.6-21.2-159.1-48.8c-5.5-3.3-11.1-3-12.6,3.7c-5.6,25.3-19,47.2-29.5,70.3c-1.2,2.7-1.3,5.2,0.8,7
				c1.8,1.5,3.7,1.5,4.6,0c3.8-6.5,8.6-12.6,11.5-19.5c5.9-14.2,16.1-26.7,17.2-43.1c0.2-3.4,1.2-15.6,12-8.2
				c107.2,64,249.5,66.8,360.4,10.1c1.4,19-1.6,38.8,5.4,56.8c6.3,18.2,13.4,36.3,23.4,53h10c-21.2-32.4-32.5-70.5-30-109.4
				c0-2.8,1.4-6.8-2.1-8c-14-3.9-33.8,14.8-49.5,16.9c-49,16.6-100.8,22.6-152.6,22.3c-3.4,0-2.6-1.7-1.5-3.3
				c34.1-55.3,85.4-97.4,140.6-130.7c1.4-0.8,4.7-2.5,1.7-6.1c-36.1-43-72.3-87-92.4-140.1c-10.4-22.8-14.8-47-25.1-69.9
				c-2.1-12.8,28.8,2,34.3,5c67.9,34.7,131,78.7,180.8,136.8c1.8,2.2,4.1,3.8,7.2,1.8c49.9-35.1,111.2-58.8,140.6-115.8
				c0.5-1,2.4-1.9,2.9-0.1c12,39.5,3.9,81.4-9.7,119.2c-8.7,25.2-22.6,48.2-39.6,68.9c-3.7,4.5-6,10.2,1.6,12.1
				c6,1.5,12.9,0.6,19.2-0.4c16.4-2.6,32.8-2.2,49-0.4c28.5,3.6,56.6,9.6,84.1,17.9c0.3,0.1,3.5,1.3,1.4,3.2
				c-8.2,7.4-15.6,16.3-25,21.6c-39.1,19-80.8,33.6-123.5,42.1c-2.5,0.5-6.2,1.3-7.7,0c-13.8-12-27.3-24.3-42.7-38.2
				c22.9,1.9,43.3-1.3,63.8-2.6c23.3-1.6,46.8-3,69.7-8.6c4.7-1.1,3.2-6.3,6.5-7.9c-1-1-2-2.5-3.2-2.8c-23.7-5-47.9-5.4-71.8-9
				c-28.1-4-57.2-1.5-85.7-3.1c33.8-40.8,72.1-81.7,88.2-133.9c0.7-2.1-0.2-4.4-2-5.7c-2.4-1.8-2.2,1.5-3.2,2.3
				c-8.2,6-10.5,16.3-17,23.6c-27.7,33.4-60.7,61.4-92.8,90.4c-2,1.8-3.1,0.2-4.1-0.7c-48.5-47.6-98.3-93.8-144.3-143.9
				c-4-4-9.9-3.6-4.9,2.7c36.5,55.5,78.6,106.9,121.5,157.6c2.3,2.8,0.7,3.2-1.8,4.2c-30.3,11.7-60.6,23.1-90.7,35.4
				c-20.7,8.4-38.9,21.4-57.5,33.6c-1.8,1.2-5.7,1.5-4.3,4.8s5.5,3,8,2c13.4-5.9,26.8-11.3,41-15.1c37.7-12.2,76.1-21,114.2-31.7
				c1.8-0.6,12.1-11.3,11.6,1c-0.9,17.7-3.3,35.4-3.4,53.3c1.2,10-3.7,64.7,6.5,64.6c3.8-0.3,3.9-3.7,3.5-6.5
				c-3.6-21-1.1-42.4-2-63.6c-0.5-18.5,0.7-36.9,3.6-55.2c0.2-2.1-0.5-4.1-2-5.7c-1-0.9-3.7-0.4-5.5,0.1
				c-14.4,4.2-28.8,8.8-43.3,12.8c-28.6,7.6-55.7,13.7-84.3,22.6c11.3-10.6,25.3-12.6,37.6-18.2c25.5-11.5,51.6-21.7,77.5-32.4
				c3.4-1.4,5.5-2.4,2-6.5c-21.9-25.9-43.9-51.8-64.7-78.6c29.5,19.2,51,48.6,77.6,71.7c1.2,1.1,1.9,4.5,5.3,2.3
				c32.4-22.3,60.7-49.7,87-78.8c-6,17-18.3,30.1-29.2,44.1c-12,14.4-22.9,29.8-36.7,42.7c-3.3,3.1-8.5,6.1-6.9,11.7
				c1.8,6,8,4.3,11.6,3.4c13.9-3.8,27.8-1.3,41.6-0.9c34.1,1.3,68.3,4.3,102.3,7.8c-13.7,5.7-28.2,3.2-42.3,4.8
				c-26.4,3.1-53.2,3.3-79.8,4.4c-14-0.3-17.8,3.6-5.1,11.5c35.8,35.6,75.2,67.3,112.2,101.6c3.1,2.8,6.2,5.5,9.3,8.3
				c3.5,3.2,8.7,5.4,4.1,12.2c-9.3,14.1-16.4,4.1-23.3-1.9c-43.3-39-84.9-79.3-123.1-123.4c-2.4-2.6-4.9-3.1-5.8,1.8
				c-1,5.9-2.9,11.6-3.8,17.5c-4.1,28.4-8,56.9-11.9,85.4c-0.4,2.2-0.9,5.4,1.2,6.9c11,7.8,16.1-88.8,18.9-99.4
				c12.6,12.4,25.3,24.6,37.6,37.1c2.4,2.4,5.9,7.1,5,8.8c-16.1,36.1-39.6,67.3-67,95.6h12c13.4-15.6,28.5-31,39-49
				c6.5-10.1,12.4-20.6,17.9-31.2c5.1-9.8,7.7-9,13.4-2c19.7,23.7,44.8,42.4,67.2,63.4c5.1,4.6,10.3,8.6,18.5,3
				c16.4-10.8,13-23.9,0.2-33.2c-20.6-19.3-41.1-39.2-61.2-58.4c53.2-13.5,112.6-28.1,152.6-68.4
				C721.8,1469.7,727.1,1465.2,718.5,1460.7z M130.8,272.2c55.8-22.2,114.9-35.6,169.5-60.8c12.4-3.9,8.8,1.5,6.4,10.2
				c-10.3,39.1-12.1,79.8-15.6,119.8c-3,26.9-0.8,53.4,3.3,80c1.3,14.6,4.3,17.3,14.2,10.2c69.1-50.4,118.1-127.4,144-208.2
				c1.9-5.5,3.4-5.8,7.1-4.2c62.2,30.2,127.2,57,181,101.9c6.3,5.5,16.4,8.5,12.1-4c-3.6-31.8-15-62-25.2-92.2
				C603,173,570.6,123.9,526.8,86.1c-0.7-0.7-11.7-3.5,0.6-7.9c44.5-16.5,85.5-41.7,125.7-67c5.8-2.2,9.7-16-0.5-11.2
				c-40.6,29.3-86.2,49.8-131,71.4c-3.7,1.9-13.1,1.7-9.9,9c7.1,16,21.8,26,34.4,37.2c12.3,10.8,20.9,24.3,30.5,37
				c35.7,47.6,56.4,101.3,69,159.4c-39.4-27.7-75.4-53.1-118.1-73.3c-21.5-10.9-44.9-17.8-65.4-31c-8.6-5.6-14-3.6-17.4,6.7
				c-23.9,82.4-76,154.3-141.4,209.5c-8.4-74.1,3.1-148.3,15.5-221.5c2.5-11.9-25.2,1.3-30.5,2.4c-53.8,17.3-106.2,39-160.1,56
				c20.1-69.2,75.1-124.2,136-160.5c4-2.2,12.2-8.8,4.3-13.4c-40.4-23.5-79.5-49.5-113.9-81.2c-3.2-2.9-6.7-6.9-11.8-6.9
				c-25.7-0.9,110.1,92.4,118.9,93.5c-47.3,21.7-93.5,71.9-120.8,115.3C135.5,219.3,98.6,284.5,130.8,272.2z M228.3,6.6
				c49.4,27.4,99.1,54.8,152,74.9c0.2,0.1,4.6,1.5,1.1,3.4c-27.9,15.4-56.8,29.1-84.3,45c-26.6,17-51.1,37.4-75.4,57.5
				c-2.4,2-6.6,6-3.8,10.6c1.3,2.1,4.6,1.7,6.8,0.3c51.7-30,106-55.3,159.3-82.5c1.5-0.7,5.3-3.4,4.7,1.2
				c-7.9,50.6-21.4,101-34.4,150.4c-9.4,24.3-15.6,49.5-25.1,73.7c-0.6,1.4,0.2,4.2,1.4,5.3c2,2,2.4-1,3.5-1.9
				c16.6-20.9,23.5-48.5,35.5-72.1c22.9-51.9,41.5-105.7,55.6-160.7c0.5-2.3,1.3-3.7,4-1.6c47.4,32.3,87.8,73,133.6,107.2
				c2.9,2.3,5.8,7.8,10.3,5.5c8.3-3.7-14.2-25.2-17.1-29.7c-38.6-40.8-71.2-87-116.5-121.3c34.2-9.5,67.9-21,99.3-37.8
				c13.1-6.2,24.7-15.5,37-23.5c4.4-1.9,8.6-6.8,1.7-7.8c-15,5-27,18.2-41.8,24c-19.2,8.8-37.7,19.2-58.1,25.6
				c-13.9,4.3-27.4,9.9-41.2,14.6c-2.4,0.8-6.3-1.7-7.2,2.4c-0.8,3.7,1.8,5.7,4.8,8.2c15.2,12.7,30.6,25.2,44.6,39
				c21.8,23.3,41.2,48.8,62.9,72.3c-37.1-24.2-66.9-59.4-105.2-82.3c-14.2-9.2-15.4-8.1-19.4,8.1c-12.8,54.4-35.4,105.6-54.4,158
				c12.1-53.3,27.1-105.9,35.2-160c9.8-21-40.1,10.3-46.1,12.3c-35.9,18.7-67.7,34.5-105.1,52.1c45.7-42.2,102.4-62.2,153.7-93.4
				c-1.5-1.4-2.8-3.4-4.6-4.2c-11.8-4.9-23.9-9-35.5-14.3c-28.1-12.9-56-26.3-83.9-39.7c-14.7-7.1-29.3-14.5-44-21.6
				c-1.7-0.8-4-0.3-5.9-0.5C226.9,4.2,227.3,6,228.3,6.6z M438.4,44.4c41.4-2.9,83.3-14.4,117.2-38.8c1.2-0.9,4.2-1.3,2.6-3.5
				c-6.4-3.2-17.8,6.4-24.6,8.3c-8.7,4.5-96.6,38.7-94.6,24.6c2-8.9,2.6-18,2-27.1c-0.3-3.9,1.4-8.5-2.7-11
				c-2.3,3.4-3.8,6.4-3.9,10.9c-0.1,8.2-2.7,16.3-3.4,24.6C430.8,37.7,428,44.2,438.4,44.4z M252.3,3.2
				c44.9,22.8,92.4,39,139.3,56.9c3.5,1.3,11.9,6.1,13.8-3.4c1.8-9.1,2.8-18.4,3-27.7c-0.4-6.7,4.8-32.4-5.3-32.2
				c-2.3-0.1-2.1,1.5-2.1,3c-0.6,12-1.3,24-2,38.2c0,0.4,1.1,4.2-0.2,5.5c-2.6,2.6,2.2,11.9-7.8,8c-18.9-7.4-38.1-14.1-57.2-20.8
				C306,22.5,282.1,5.7,253.8-0.9C250.8-1.4,246.1,3.4,252.3,3.2z M10.9,1539.6c6.8-23.2,13.7-46.3,20-69.6
				c2.9-10.5,3.2-12.3,5.9-10.1c25.6,18.5,98.1,78.1,126.9,74.9c-0.5-2.5-1.9-4.7-4.1-6.2c-18-14-36-28.2-53.4-42.9
				c-18.9-16.7-38.6-32.9-56.4-50.9c20-10.9,41.9-18.9,61.3-31.3c26.8-15.2,53.4-30.9,80-46.4c3.9-1.8,5.8-9.4,0.4-9.8
				c-27.2,9.7-53.1,22.9-80.2,32.6c-31.1,8.9-60.5,22.7-90.4,33.8c-1.4-32.6-8.4-64.6-12.3-97c-0.6-3.6-4.5-1.9-7.4-1.9
				c-2.7-0.2-2.9,1.6-2.3,3.5c3.6,30.4,15.2,59.2,14.4,90.4c0.1,5-0.2,16.3,12.5,10.8c9.6-4.1,19.4-7.9,29.1-12
				c24.8-10.1,50.6-18,76-26.7c-23.1,17.7-50.5,27.6-75.3,42.5c-30,7.6-8.2,23.4,6.3,35.6c19.5,16.6,39.4,32.8,59.2,49.2l-0.8,1.1
				c-30.6-17.5-59.7-36.2-85.6-60.1c-9.2-7.6-9.4,14.4-11.8,19.3c-7,25.6-11,52.1-23,76.2C-3.4,1563.7,9.1,1548.3,10.9,1539.6z"/>
		</g>
	</g>
</g>
<g>
	<g id="Layer_1_2_">
		<g transform="matrix( 1, 0, 0, 1, 0,0) ">
			<g>
				<g id="Layer0_0_FILL_1_">
					<path d="M52,1548v15l-37,37h946l-37-37v-15H52 M52,52V37.7L14.3,0H0v1600h15l37-37v-15V52 M924,52V37.7L961.7,0H14.3L52,37.7
						V52H924 M976,0h-14.3L924,37.7V52v1496v15l37,37h15V0z"/>
				</g>
			</g>
			<g>
				<path id="Layer0_0_1_STROKES_1_" class="st5" d="M961,1600h15V0h-14.3L924,37.7V52v1496v15L961,1600H15H0V0h14.3h947.4 M52,52
					V37.7L14.3,0 M15,1600l37-37v-15V52h872 M924,1548H52"/>
			</g>
		</g>
	</g>
</g>
</svg>
