<svg xmlns="http://www.w3.org/2000/svg" xmlns:xlink="http://www.w3.org/1999/xlink" viewBox="0 0 976 1600">
<style type="text/css">
	.st0{fill:#FFFFFF;}
	.st1{clip-path:url(#SVGID_2_);}
	.st2{fill:#333333;}
	.st3{fill:#FFEB5C;}
	.st4{fill:#D81E1E;}
	.st5{fill:none;stroke:#333333;stroke-width:2;stroke-linecap:square;stroke-miterlimit:3;}
</style>
<g id="Paper_Backing">
	<path class="st0" d="M960,22v1556c0,3.3-2.7,6-6,6H22c-3.3,0-6-2.7-6-6V22c0-3.3,2.7-6,6-6h932C957.3,16,960,18.7,960,22z"/>
</g>
<g id="Wikipedia_Cropped">
	<g>
		<defs>
			<path id="SVGID_1_" d="M960,22v1556c0,3.3-2.7,6-6,6H22c-3.3,0-6-2.7-6-6V22c0-3.3,2.7-6,6-6h932C957.3,16,960,18.7,960,22z"/>
		</defs>
		<clipPath id="SVGID_2_">
			<use xlink:href="#SVGID_1_"  style="overflow:visible;"/>
		</clipPath>
		<g class="st1">
			<path class="st2" d="M558.8,1262.8c-15.3-5.9,6.9-40.3,7.9-52.6c17.2-53.5,38.3-97.1,74.2-143.7c1.3-15.3,54.3-15.2,68.1-16.3
				c3,2.5,7.1,1.3,9.3-1.7c9.6-7.3,24.3-8.8,35.7-7.7c11.4-5.6,20.7-15.3,34.2-14.3c7-2.1,13.7-11.1,21.7-9.8
				c8.7-2.3,8.8-14.2,21.2-14c17.2-3,49.6-41,62.6-35.2c5.5,15.7,18.3,33.3,20.6,49.2c-9.7,8.4-51.8-12.7-40.9,13
				c15.6,59.7,38.7,152,18.1,205.3c-56.3-27.2-81.4-79.8-112.9-135.6c-9.8-14.5-37.7,42.8-51.6,48.7
				C678.5,1195.6,619.2,1233,558.8,1262.8z M620,1020.4c-57.8,0-115.7-8-169.9-28c-2.7-23.3,61.6-37.4,80.2-48.7
				c51.5-22.9,112.9-26.7,167-35.3c0.3-22.5-18.7-47.9-12.1-67.5c21.6,5.3,74.1,26.4,57.9,56.1c-14.8,11.5-24.1,29.5-35.5,45.7
				c-3.5,3.5-9,8.6-10.6,14.3c-2.3,11.1-16.4,11.6-16.8,21.3C669.5,1010.1,653.3,1022.2,620,1020.4z M629.6,509.9
				c-20-11.6,19.5-135,34-157.4c7.8-11.7,8.6-23.6-8.7-20.1c-37.2-1.8-73.3-9-109.9-14.7c-60.1-7-41.7-20.7-0.1-42.5
				c36.1-21.6,74.8-34.2,115.1-42.9c19.5-9.3-39.3-37.8-41.9-47c-28.2-23.6-56.3-63.9-68.2-98.8c-2.4-7,2.2-8.7,7-7.3
				c73.3,13.9,144,35.4,195.4,91.1c2.5,2.1,6.3,1.8,8.5-0.7c0.2-0.3,0.5-0.6,0.7-0.9c19.8-34.9,46.2-65.7,77.6-90.7
				c3.7-4.7,13.1-7.2,13.8,1.4c28,186.9-89.4,190.8,111.2,156.5c11.1-2.3,15.1,33.6,0.9,35.4c-32.9-3.8-69.1,3.1-102,4.7
				c-14,2.6,22.8,78.4,22.7,96.1c3.4,12.4,25.8,110.1,0.9,97.3C720.8,297.8,865.7,372.7,629.6,509.9L629.6,509.9z"/>
			<path class="st3" d="M292.2,1604c-29-21.3-70.4-30-100.3-53.7c-14.6-5.7-36.5-30.9-50.6-24.7c-18.8,27-42.2,51.2-63.8,75.7
				c-2.8,4.4-13.5,3.6-17.2,1.3c-3.9-5.2-8.3,0.3-12.2,1.4c-5.8-0.7-20.2,2.8-15-8.5c-8.7-28.5,35.1-149.7-24.7-87.7
				c-2.2,4.7-11.5,6.7-12.4,0.1c3.1-4-6.1-50.6,5.1-47.6c9.6,7.1,20-1.1,29.8-3.8c6.9-4.7,29.8-4.3,24.6-16.8
				c-16.1-23.2-35.6-43-50.3-67.5c-2-6.2-7.9-5.9-9.3-11.1c-0.8-1.2,0.1-26.2,0.8-26.3c3.3-3.2-8.9-72.2,5.8-64.6
				c32.1,22.8,74.5,50.2,99.5,73.4c4.9,4.2,10-1,11.1-6c12.8-56.7,48.6-123,88.2-171.6c37.3-41.1,23.4,133.9,21.2,148.7
				c0.4,8.6-9.8,34.9,6.9,30.2c30.3-7.4,61.4-11.7,93-14.8c24.4-0.3,215.8,1.3,133.2,41.4c-33.1,24-55.9,43.2-97.7,62.5
				c-10.6,12.1-108.3,24.2-69.7,41.2c51.9,25.3,104,75,126.9,122.5C423.9,1612.4,294.2,1600.1,292.2,1604z M218.2,619.3
				c-11.4-8.6,31.5-67.3,34.1-85.1c72.2-149.7,46.8-38-159.9-103.2c55.6-44.4,117.6-74.7,189.4-99.7c8.1-15.4-38.9-60.5-49.5-75.9
				c-13.6-20.2-35.8-32.9-52.1-49.9c5.9-22.4,74.2,4.5,89.5,10.2c134.5,58.3,74.6,150.6,156.1,27.8c13.5-13.1,68.6-84.4,57.7-30.2
				c-10.6,175-93.1,158.3,70.5,159c34.5,5,46.5-14.7,42.6,27.9c-9,10.2-31.8-2.5-45.2-0.6c-25.2-0.4-52.3-9.3-81.5-2
				c14.2,58.8,56.5,115.8,69.7,175c-42.4-5.8-95.7-40.6-130.8-69.1c-16.6-1.2-34.7,35.4-56.5,47.3
				C311.4,582.2,266.1,602.1,218.2,619.3L218.2,619.3z"/>
			<path class="st4" d="M107.8,1346.7c-41.6-12.6-8.3-141.3-52-107.1c-18.5,10-36.8,18.7-55.8,27.5c-7.5,0.7-2.7-19.7-4-23.1
				c-1.3-125.7-0.3-259,55-375.1c14.9-20.1,15.7-50.3,33.2-59.1c27.4,49.2,34.1,109.2,49.6,163.1c10.3,17.2-4.4,106.8,28.4,67
				c44.8-37.7,87.3-65.3,141.7-73.8c68.2-25.8-21.7,94.7-29.5,115.9c-98.9,127-31.7,25,51.9,187.1c-13.7,19.7-50.6,5.3-72.5,6
				c-34.8,6.2-22.4-19.6-26-39.8c-3.5-6,3.3-10.1,0-15.4c-1.9-2.7-0.9-6.4-0.3-9.7c3.7-8.5-4.1-17.2-3-25.9
				c-10.4-50-27.5-10.1-44.6,8.3c-3.4,2.9-5.2,10.7-10.7,12.6s-2.8,7.5-5.4,11.7c-17.3,63.1-67.6-16.9-58.4,37.5
				C108.6,1284.3,129.7,1321.1,107.8,1346.7z M976,1099.2c-32.5-35.4-58-81.3-79.2-124.6c-1-4.9-3.3-12.5-10-9.2
				c-123.5,87.3-260.2,114.1-236.2,70.2c25.8-47.2,59-91.8,91.3-134.2c3.7-8.9,32.5-28.2,13.1-33.8c-36.3-8.4-66.4-29.5-98.2-47.1
				c-21.3-12.5-48.8-22.3-62.7-43.8c47.6-48.5,128-52.2,192.6-35.4c21,6.1,5.2-24.5,9.9-35.2c1.8-30.5,5.7-61.5,13-90.9
				c7-14,12-84.3,34-66c52.2,54.5,60.8,130,72.3,202.5c5.3,54.9,40.9-28.2,61.3-33c5.8,0.2,1.4,28.9,2.7,31.8
				c-7.5,16.2-30,27.5-33.5,45c6.5,8.8,28.8,6.9,33.5,15.1C976.7,860.9,986.9,1066.9,976,1099.2z"/>
			<path d="M985.2,1019.8c-15.3-27.5-28.6-56.4-42-84.9c-10.2-29.3-18.6-58.1-28.6-87.9c17.7,12,36,21.2,54.4,30
				c1.7,0.8,3.7,4.2,5.6,0.4c1.4-2.7,0.1-5-2.7-6.5c-18.5-10.6-36.9-21.5-55.7-31.7c-3.4-1.8-7.2-7.1-10.8-4.3
				c-2.9,2.1,0.2,7,1.4,10.6c16.5,52.1,29.9,105.6,58.6,152.6c-24.9-30.4-42.5-65.3-58.6-100.8c-7.3-14.9-10.3-32-21.3-44.9
				c-35.7,32.9-70.7,68.6-111,96.4c26.7-32.3,55.9-61.7,83.2-93.3c3.9-4.7,11.3-7.8,10.9-14.9c-0.3-5.4-6.6-4.5-10.1-5.5
				c-58.5-15.5-114.6-28.8-172.7-47c16.7-3.5,31.3,3,47.6,4.9c22.5,3.3,45.4,5.1,67.4,10.5c128.4,20.9,59.3,27.3,45.5-118.7
				c10.9,38.2,23.4,74.5,40.9,110.1c8,17.7,9.6,17.8,22.4,4c20.5-26.3,43.6-50.6,65.5-75.7c3-3.2,3.2-7.3,0-9.5
				c-3-2.4-5.7,1.5-7.5,3.5c-14.1,16.1-29.4,31.3-42,48.6c-10.1-41-11.2-86.4-26.4-127.1c-14.2-31-23-66.6-48.5-90.7
				c-12.6-11.3-21.9-9.9-26.1,1.3c-20.1,57.5-38.5,119-31.8,180.2c3.3,11.6-5,5.5-8.5,5.2c-68-13.7-133.5-14.5-188.9,32.9
				c-4.5,3.2-10.3,7-3.5,14.8c5.7,6.7,12.1,12.7,19.2,17.8c12.4,8.8,26.2,15.3,39.1,23.2c11,6.6,25.3,10.3,27.2,27.9
				c1.4,13.7,7.1,27,11.3,40.3c3,9.7,5.1,18.2-10.2,15.3c-20.7-1.7-40.5,4.9-60.7,7.9c-29.5,4.1-57.5,13.4-85.3,23.7
				c-14.5,5.8-124.3,46.8-75.9,61c38,12,76.7,23.3,116.4,25c23.4,2.2,47.1,0.5,70.7,0.6c1.9,0,5.2-0.7,3.9,3.1
				c-11,39.2-36.5,71.3-55.9,106.5c-21.7,41.4-38.3,87.1-45.4,133.4c-0.1,1.4,1.7,3,2.8,4.4c0.2,0.2,1.4-0.1,1.9-0.4
				c12.4-8.3,26.4-13.8,39.6-20.2c27.7-14.6,54.3-30.2,78.3-50.2c6.4-6.3,16-9.2,23.1-14.8c10.2-8.1,19.3-17.5,29.1-26.1
				c17-15,32.4-31.4,44.1-51c6.4-13.4,11.7-13,14.7,0.7c4.5,16.7,15.7,29.7,24,44.1c9.4,18,80.9,110.3,97,77.5
				c7.9-71.7-4.2-142.5-25.1-211c12.2,3.3,26,2.3,38.3,5.2c10.3,2.5,11,14.2,15.8,21.4c12.2,18.1,25.5,35.5,39.8,52
				c1.2,1.4,2.8,4.9,5.7,2.5c2.4-1.9,2.2-4.7,0.3-7.3c-28.8-38.2-55.3-78.2-75.2-121.8c-2-4.4-0.1-18.9-13.1-12.3
				c-20.6,10.5-37.6,26.5-58,37.5c-30.6,16.3-61.2,33.2-95.7,39.3c-9.5,0.9-18.5,5.6-27.9,7.4c-15.2,2.8-30.7,4.3-45.9,7.1
				c-4.2,0.8-6.6-0.6-8.3-3.2c-0.9-1.4-0.2-4.4,0.6-6.4c3.1-7.4,5.7-15.2,10.1-21.8c30.4-46.6,62.5-92.4,97.7-135.5
				c10.2-9,11-17.6-4.2-21.2c-35.5-8.2-65.6-29.3-97.1-46.6c-20.5-11.3-42.1-20.7-58.5-38.1c-1-1.1-4.2-1.8,0.3-4.3
				c43-28.3,68.9-41.4,121.7-37.7c24.2-0.9,47.4,4.9,70.8,9.9c4.6,0.8,13.2,0.5,11.7-6.4c-12.4-26.8,4.5-107.5,12.2-137.4
				c4.2-17.5,9.6-34.7,16.1-51.4c1-3.7,3-3.1,8.3,0.8c14.4,10.7,21.8,25.7,28.4,41.7c17.3,37,33.2,74.9,35.4,116.3
				c0.5,9,3.6,17.9,4.2,26.9c1.2,18.7,14.5,38.6-5,55.3c-2.6,2.2-6.1,10.9-9.6,0.6c-3.1-8.6-6.6-17.1-10.7-25.3
				c-22-44.6-27.4-95-44.2-140.8c-16.3,14,11.5,152.1,26.5,171.2c1.6,3,2.3,7.6-4.1,6.7c-59.1-7-117.6-22.2-177.2-23.8
				c-7.5,0.2-10.3,7.9-3.4,11.6c7.2,3.2,14.5,6,22.1,8.3c50.8,14.3,101.9,28.5,152.5,43.4c-37.8,40.1-73.5,84.5-112.5,123.9
				c-5.5,4.2-2.5,10.8,3.8,5.1c50.5-28.3,94.8-65.9,135.2-107.2c1.6-1.6,4.1-3.4,3.9,0.7c6.5,25.7,20.7,48.7,32,72.6
				c16.5,30,31.5,62.3,57.4,85.5c2.6,2,5.9,6,9,4.1C988.4,1027,987.5,1023.3,985.2,1019.8z M801.5,1023.2c16.2-8.2,14,8,17,14.3
				c15.3,32.4,26.4,66.7,37.1,100.9l-1.6,0.4c-22.6-35.1-42.5-71.9-59.4-110C794.2,1028.1,798.8,1024.5,801.5,1023.2z M748.9,1043.6
				c-37.4,43.8-72.5,85.6-115.4,120.5c20.5-26.7,41-53.4,61.5-80.1c8.5-11,16.4-22.6,26.1-32.5
				C727.5,1045,737.9,1047.7,748.9,1043.6L748.9,1043.6z M659.2,1059.4c16-0.3,31.6-4.7,47.3-5.9c-29.2,40.7-60.4,80-89.1,121.2
				c-2.7,3.8-6.5,8.2-4.2,13.9c4.7-2.3,10.2-3.7,13.8-7c41.5-36.7,81.5-75.2,115.9-118.8c11.5-14.1,22-29.9,43-32
				c5.1-0.5,2.5,2.4,3.2,3.7c23,47.6,46.4,94.9,76.6,138.3c0.4,0.6,1.8,2.9,3.5,0.7s4.6-4.4,3.4-7.9
				c-15.5-46.6-28.2-95.1-50.2-139.2c-10.9-21.1,10.4-17.6,16.5-21.9c16.5-12,34.7-22.7,51-35c7,15.2,13.7,30.4,20.7,45.5
				c-9.7,0.1-19.5-1.9-29.2-1.9c-19.1-0.5-19.4,0.7-11.9,18.5c12,28.8,11.7,61.1,19.8,91c7.3,32.9,5.6,66.1,3.4,99.4
				c-0.1,3.2-3.4,6.1-0.3,9.5c-52.3-23.2-86.9-89.4-112.7-138.2c-1.8-13.4-8.7-7.5-13.5,1c-49,75-129.2,121.8-205.9,164.3
				c-10.7,4.1,12.9-51.4,13.6-57.6c14.9-45.1,36.4-87.5,65.1-125.4C648.7,1066.3,643,1059.3,659.2,1059.4z M693.3,955.5
				c-6.5,14.8-18.5,15.7-32.9,16c-29.7,2.6-59.5,4.3-89.1,2.6c18.2-3.1,35.6-9.3,54.1-11.3c23.6-2.3,47-9.8,70.2-11.3
				C694.7,952.8,693.9,954.1,693.3,955.5L693.3,955.5z M739.9,894.6c-1.3,1.7-3.9,7-5.8,0.3c-2.9-10.4-5.2-20.9-8-32.4
				C739.6,870.4,746.2,886.5,739.9,894.6L739.9,894.6z M687.5,844.3c10.3,2.6,17.7,10.5,28,13.7c5.5,1.7,3.1,11,5.2,16.7
				c3.5,9.6,6.5,19.7,7.5,29.8c0.4,3.9-5.4,8.3-8.2,12.6c-6.5,7.3-13.7,27.4-23.5,28c-41.4,2.9-82.6,10.9-123,20
				c-11.2,2.5-22.1,6.6-33,10.4c-1.4,0.5-2.2,2.9-3.3,4.4c2,1,3.9,3,5.9,3c44.6,2.6,89-2.3,133.3-3.7c-5.2,9.2-10.2,18.4-15.6,27.3
				c-4.4,7.3-13.1,7.1-19.6,7.9c-9.8,1.1-19.5,3.1-30.1,1.3c-15.2-2.6-31.4,0.6-46.9-1c-38.5-2.8-75.8-14.6-112.2-25.8
				c22-20.7,53.1-29,80.2-41.3c18.2-7.3,36.8-13.3,55.8-18c16.5-4.1,33.6-5.7,50.4-8.4c20-3.5,39.9-7.6,60.4-5.9
				c4.9,0.1,9.4,0.8,6-7C696,887.9,689.8,866.2,687.5,844.3z M976,750.4c6.2-8.5,6.9-8.8,8.9-6.2c5.3,6.9-2.4,10.3-5.2,14
				c-9.8,13.3-20.3,25.3-31.3,38.8c11-0.7,18.9,4.7,27.4,8.4c2.5,0.8,2.9,3.5,0.3,5c-2.3,1.5-5.1,0.4-7-0.6
				c-20.2-9.6-26.5-11.7-39.8,8.2c15.7,11.3,33,19.8,47.7,32.6c4,3.9,1.4,9.2-3.9,5.5c-15.9-11.4-33.8-19.8-48.1-33.6
				c-3.5-3.4-6.3-6.3-1.6-11.5C941,791,958.5,770.5,976,750.4z M503,310.2c20.7,8.2,42.9,11.9,64.8,15.5
				c32.2,5.6,64.3,11.2,97.1,11.3c1.3,0.1,2.4,0.2,1.5,2c-2.7,5.9-4.4,12.5-8.2,17.6c-26.8,37.3-32.2,82.8-37.9,127.1
				c-2.1,11.4-2.2,22.7,3.6,33.1c0.2,0.5,3.4,0.4,4.6-0.4c9.4-5.5,18.4-11.5,27.8-16.8c54.2-31,100-75.4,135.1-126.8
				c0.7-1.1,1.5-3.3,3.5-0.5c6,11.6,102,137.2,106.2,97.7c2.7-40.5-1.7-82.1-14.9-120.4c-8.8-22.9-11.8-48.1-27.8-68.3
				c36-6.1,70.1-7.1,106-8.6c4.4-0.1,11.7,1.5,11.9-4.6c-0.5-10.1,2.7-40.7-14.5-35.6c-39,3.6-76.1,11.7-115.3,17.6
				c11.5-16.6,33.7-208-8.6-177.6c-32,22.4-58.1,53.4-77.3,87.3c-3.7,7-4.4,8.2-5.7,6.9c-52.4-56.5-127.5-82.7-201.7-95.7
				c-2.7-0.6-6.4-1.9-9.1,1.6c-2,2.7-1.8,5.3-0.8,7.9c21.1,60.9,63.7,110.1,117.2,145.3c-5.4,4.6-13,5.2-19.7,6.8
				c-24.7,3.7-47.1,13.9-69.7,23.6c-24.6,12.2-49,25.8-70.2,43.3C496,304.1,498.9,308.6,503,310.2z M864.7,256.9
				c20.5-3.3,40.8-7.8,61.2-11.6c22.6-3.7,50.9-19,42.6,18.3c-0.5,6.2-7,2.8-10.7,2.2c-42.8,0.8-85.6,5.6-128.3,9.3
				c-8.8,1.8-22.9-0.9-29.9,4.3c-0.6,1.2,0.3,3.8,1.3,5.2c18.3,28,36.8,57.2,46.5,89.3c-22.5-27.6-42.3-58.1-66.7-84.5
				c-8.7-9.8-12.1-6.9-17.3,3.7c-19.7,36.6-38.2,74.3-66.5,105.4c6.5-17.9,20.3-32.4,27.2-49.7c7.3-19.6,18.5-38.2,19.6-59.7
				c0.7-8.4-56.6-0.8-65.9-2.1c-6.5,1.8-6.3-5.6,0-5.9c23.1-4.1,46.3-8.3,69.4-12.5c4.1-0.7,4.2-2.6,2.3-5.8
				c-23.1-37-52.8-69.5-85.2-98.5c-0.9-0.8-0.6-3-0.9-4.6c42.2,22.3,72.9,60.3,102.2,97.1c1.3,1.5,3.4,3.2,5.1,3.2
				c2.7,0,3.2-2.8,4.2-5.1c13.5-30.7,27.3-61.2,38.7-92.7l1.6,0.4c-5.2,33.6-16.6,65.6-24.2,98.6c-2.1,7.8,7.4,4.6,11.9,4.2
				C823.5,262.5,844.2,260.2,864.7,256.9z M557.3,272.8c34.4-19.7,72.8-29.4,110.8-38.6c19.1-9.7-0.2-13.7-3.9-16.4
				c-47.4-33.9-91.1-76.5-110.6-132.8c-1.1-3,0.1-2.7,2.2-2.1c19.6,5.6,39.9,7.6,59.5,13.3c42.7,13.4,85.5,29.5,117.8,61.6
				c6.7,7.2,14.3,13.5,21.8,19.8c4.2,3.6,6.4-0.7,7.9-3.4c21.2-37.5,49.3-72.8,84.7-97c12.3,50.1,1.6,103.6-4.7,154.1
				c-0.6,6.2-0.7,14.4-4.5,17.9c-4.3,4-12.5,4.1-19.1,5.5c-5.1,1-10.6-1.5-15.5,1.9c-0.9,0.4-1.9,0.3-2.8-0.3
				c4-26.3,15.8-51.5,18.3-78.5c0.5-14.4,10.8-36.1,3.3-48.8c-22.3,34.9-36.2,79.5-53.3,117.7c-34.7-40.4-70-83.8-120.2-106.7
				c-7.3-2.1-21-12.2-27.6-7.9c-1.9,2.4,0.3,4.9,2.1,6.3c18.4,13.9,36,28.7,51.5,45.9c21.5,23.8,44.7,46,62.3,73.1
				c0.9,1.4,3.5,3.1-0.7,3.3c-34.1,5.4-67.5,15-101.8,20c-21.3,3.6-42.7,6.5-64.1,9.8c-1.3,0.2-3.8,0.3-2,3c1.1,1.7,2,3.5,4.5,2.7
				c7.3-2.5,14.5,0.6,21.7,0.4c10.8-0.1,21.6-1,32.3-2.9c33.3,2.8,67,0.3,100.6,0.8c8.5,0,9.1,4,2.5,18.1
				c-19.4,44.3-40.5,87.9-70.3,126.3c-1.9,2.4-6.5,6.2-3.6,9.3c3.8,4.1,6.6-1.3,9.2-3.5c42.2-37.4,71.6-85.6,98.8-134.3
				c3.8-3.9,4-16.5,8.1-17.1c23,21.6,41.2,51,60.4,76.6c8.5,12.1,17.3,24,26.2,35.8c1.8,2.5,4.4,6.3,8,4s1.2-5.9-0.1-9.2
				c-16.7-39.6-30.5-80.9-57.7-115c12.9-5.4,26.7-1.6,40.1-3.2c4.4-0.5,7,9.1,9.2,14.7c18.2,55.1,38,113,33.3,171.5
				c-34.9-27.5-61.1-64-87.3-99.3c-8.8-10.8-11.7-9.3-20.6,0.9c-41.1,53.9-92.8,97.3-149.5,133.6c-1.5,1.5-4.9,2.5-6.6,1.8
				c-2.9-1.2,1.1-2.5,0.9-4.3c-1.8-14,2.5-27.4,4.3-41c2.2-17.1,5.1-34.1,10.3-50.9c8.8-26.3,21.3-50.7,33.3-75.5
				c0.7-1.4,2.5-2.8,0.4-4.2c-1.7-1.1-3.8-2.8-5.5-2.5c-21.4,3-42.3-0.5-63.2-4c-33.8-5.6-69-6.6-101-19.4
				C522.4,291.4,540.1,282.7,557.3,272.8z M90.9,430.6c0.2,3.5,3.1,5.5,5.5,6.2c35.6,12.4,73.1,14.9,110,20.8
				c7.4,1.5,14.4-3.2,21.6,1.2c17.2,4.3,37.2-1.8,55-1.9c2.5-0.2,3,0.8,1.6,2.9c-30.7,46.8-48.5,100.8-73,150.9
				c-1.7,3.9-1.3,8.7-1.6,13.1c0,0.3,2.4,1.4,3.5,1.1c10.4-2.4,20.2-6.9,30.2-10.4c59.6-23.3,123.7-54.2,160-108.9
				c18.1,14.1,35.1,29,55.6,39.4c8.7,4,97,54.4,87.5,27c-22.6-58.6-44.7-118.2-76.5-172.4c39.8-0.9,79.7,3.8,119.5,5.4
				c9.7-0.1,14.4-13.8,12.8-22.1c-2.2-20.8-56.6-13.5-72.8-16.8c-10-0.9-20.3,1.3-30.2,0.1c-14.5-3-28.2,1.2-42.6,0.1
				c-0.2-0.6-0.2-1.2,0-1.8c5.6-9.7,7.3-20.6,9.8-31.3c7.9-27.8,14.6-55.7,18-84.4c2-16.4,8.9-47.7,0.3-61.6c-2-2.1-5.3-2.2-7.4-0.2
				c-9.1,8-18.5,15.7-27.4,23.8c-28.5,25.9-51.1,56.3-69.7,89.8c-0.7,1.3-2,3.7-3.5,1.2c-34.2-54.5-91-97.4-155.2-107.2
				c-13.7-0.9-27.2-5.6-40.7,0.4c-6,2.7-14.3,5.3-5.9,13.6c41.5,34.9,75,76.6,107.4,120.4c-68.1,13.9-130.8,50.7-186.2,92.3
				C93.7,423.5,90.7,426.1,90.9,430.6z M487.2,375.2c35.2-0.4,70.4,2.2,105.6,1.5l-0.2,23.6c-60.2-8.3-120.8-10.2-181.4-9.3
				c-14.4-0.1-5.6,9.1-4,12.5c13.8,28.6,29.1,56.4,45.8,83.4c-27.5-22.9-46.2-54.7-62.6-86.1c-3-3.9-7.9,0.2-8.6,4.1
				c-13.1,44.8-33.1,81.9-69.2,114.5c27.1-37,47.8-71.9,58.2-116c3.7-14.9-7.8-14.4-15.3-11.8c-9.6,3.3-18.4-0.7-27.8,1
				c-20.2,2.5-41.5,6.8-61.6,5.3c21.9-10.5,48.4-9.3,72.3-13.2c4.6-1.5,28.3-0.5,23-9.1c-11.5-18.5-19.2-39-33.2-56.2
				c-9.6-11.9-17.2-25.4-25.6-38.3c-0.3-0.4,0.1-1.3,0.3-1.9c23.2,18.3,40.4,45.7,58.1,69.8c5.2,7.7,10.2,15.5,15.3,23.3
				c2.9,4.3,5.8,4.1,8.3-0.2c13.7-22.9,24.7-46.6,40.9-68.3C391.3,405.2,389.7,372.2,487.2,375.2L487.2,375.2z M175.8,380.5
				c25.5-13.4,51.8-24.5,78.4-34.9c11.5-4.5,24.4-6.1,34.2-14c8.2-6.6-2.2-10.9-4.7-14.8c-24.9-37.4-51.7-75-88-102.2
				c-4.3-3.3-9.5-6.6-12.2-11.4c75.4-6.7,149.4,45.3,189.8,106.7c1.6,2.4,2.3,8.2,7,6.9c4.2-1.2,4.9-6.3,7-9.8
				c24.9-42.9,54.3-81,93.8-112.1c-2.6,40.1-9.8,78.2-18.3,117.3c-4.7,17.9-8.8,36-14.9,53.5c-0.8,2.2-11.7,1-17.9,1.3
				c-3.6-0.8-21.3,3.8-16.9-3.3c10.4-32.4,24.8-63.8,31.7-97c0-5-3.9-7.9-6.4-2.3c-22.5,31.3-38.6,65.8-58.5,98.9
				C354.2,322.4,301.9,245.9,254,236c4.2,11.3,17.8,18.5,25.1,28.2c26.9,33.1,50.6,68.5,70.9,106c0.9,1.8,1.4,2.4-1.1,2.8
				c-23.1,3.3-46.3,5.6-69.1,10.3c-38,8.7-75,21.5-110.4,38c9,5.9,19.1-1.7,28.7-2.5c54.4-9.4,109.8-18.7,164.6-18.6
				C353.8,443.2,329.8,482,304,517c-7,9.3-13.6,18.8-20.3,28.3c-0.6,0.9-0.3,2.5-0.5,3.7c13.2-1.5,23.4-13.7,33-22.1
				c33.1-31.1,59.7-70.4,71.8-114.6c22.2,43.3,51.5,80.6,92.3,107.8c2.6,2.1,5-0.4,7.5-0.4c-25.5-38.1-55.4-74.2-72.5-117.5
				c-0.8-2.2-0.1-3.1,2.6-3.1c13.9,0.1,27.8-0.5,41.6,0.2c6.3,0.3,6.6,8,8.7,12.2c9,18.1,16.6,37,24.8,55.5
				c15,33.6,29.5,67.4,43.4,101.5c0.6,1.3,0,2.5-1.6,1.9c-44.2-18.8-89.3-38.8-125.1-71.6c-3.8-3.2-7.2-3.6-11.4,1.6
				c-14.3,17.6-30.7,32.8-48.4,47.2c-40.2,31-84.1,49.6-131.7,67.5c18.9-36.7,34.4-72.1,51.1-109.1c7.9-16.1,17-31.7,26-47.4
				c1.7-3,3-6.7,1.4-8.7c-3.4-4.1-8.9-3.9-13.7-3.1c-63.4,10-124.5-5.3-186.6-16.6C125.1,415.6,148.3,394.9,175.8,380.5L175.8,380.5
				z M480.4,1343c-81.5-20.5-167.3-26.9-249-4.3c-1.3,0.3-7.1,4.9-6.3-2.6c1.7-15.1,2.7-30.3,5.5-45.2c0.7-3.5-5.7-14.9,7.7-11.6
				c9.7,2.4,19.7,5,29.6,5c17.6-0.7,73.3,7,60.9-23.4c-13.8-26.7-33.5-49.1-53.8-71.1c-10.1-13-22.9-22.6-36.6-31.4
				c-6.2-4-18.1-7.8-4-17.9c46.8-46.2,76.6-108.4,100.7-169c4-10.6,0.5-12.6-10.2-13.1c-69.2,0.6-130.1,41.3-177.3,89.2
				c0.5-50.6-10.1-98.6-24.5-146.6c-6.6-21.9-22.5-92.9-40.2-103.7c-3-0.5-4.6,3.8-5.9,6.8C71,817.4,65.3,830.7,59,843.6
				c-33.7,59.7-53.5,127.8-58.7,196c-0.1,11-6.8,49.7,0.9,55.3c2.4,0,3.8-1.6,3.9-4.2c0.8-15.2,0.8-30.5,2.7-45.6
				c2.6-21.4,5.8-42.8,10-64c10.7-59.7,38.5-113.8,64.4-167.9c3.6,2.1,3.2,6.4,4.9,9.5c8.9,19.5,15.5,39.9,19.9,60.9
				c6.3,31.8,18.4,62.2,23.7,94.1c5.7,28.2,6.3,57,8.4,85.7c0.7,3.1,3.7,5,5.9,1.4c4.7-9.1,12.4-15.5,19.8-21.9
				c43.8-38.5,97.1-69.9,156.1-75.5c2.2-0.5,8-2.3,5.6,4.2c-24.7,59.5-55,119.5-100.6,165.6c-11.1,10.8-23.6,20.2-32.8,33
				c-13.3,19.8-8.5,9-36.2,6c-12.9-2.3-25.9-3.4-38.9-4.8c-1.1-0.1-1.7,3.1-3.3,0.9c38.9-50.9,95.4-85.6,135.9-135.7
				c2-2.3,7.9-5.3,4.3-10c-2.9-3.8-6.9-1.6-10.1,0.6c-50.9,32.8-101.5,66.9-146.6,107.6c-11.8-79.3-8.3-160.1-15-239.9
				c-0.1-8.2-10.6-10.8-11.8-1.3c-2.3,14.8-4.9,29.7-6,44.7c-4.1,68.2-7.5,136.8-0.5,204.9c-0.1,1.9-1.2,6.5-4,5.9
				c-14.2-8.5-31-9.3-46-15.3c-4.9-1.9-12.5-0.9-14.6,2.6c-2.8,5.5,4.8,6.4,9.1,7.5c16,3.6,32.2,6.8,47.8,11.8
				c14.5,4.7,14.8-1.8,14.3-13.3c-2.7-78.5-6.8-158,4.6-235.8c3.3,79.7,4.9,160.4,13.1,240.1c-2,10.9,4.6,7.2,9.9,1.4
				c36.7-38.9,83.8-67.8,127.3-98.9c-8,11.5-17.3,21.8-28.2,29.9c-35.7,27.9-70.1,58-96.8,94.8c-4.6,6.4-1,9.5,3.8,9.2
				c24.4-1.1,48.1,5.2,73.6,5.9c-6.2,3.6-6.8,14.2-13.3,13c-17.8-3.3-35.5-2.8-53.3-2.5c-9.3,0.1-17.6,2.1-15.4,15.4
				c2.6,26.1,6.6,52.1,11.8,77.8c0.8,7.7,7,13.8,6,21.1c-1.3,9.8-4.4,19.3-6.9,29.4c-5.7-7.2-13.9-11-15.9-23.5
				c-5.1-31.3-8.4-62.8-12.1-94.3c-0.8-7.3,3.1-24.5-16.5-16.2c-21.1,9-43.5,15.3-63.2,27.4c-3.3,3.1-3.6,10.1,2.9,7.3
				c21.9-9.1,43.3-20.2,66-27c2.3,18-7.8,13.4-20.2,22.6c-15.8,7.8-31.7,15.3-47.4,23.3c-4.6,2.3-7.9,5.5-1.4,10.8
				c34.2,24.6,70.2,46.6,101.5,75.1c3.5,3.1,5.9,10.1,11,8.2c4.8-1.8,2-8.5,2.7-13c8.3-30.6,18.4-60.6,33.9-88.5
				c15.3-30.8,33.4-60,55.5-86.4c6.8-8.4,7-8.2,8.5-5.2c7.4,15.1,9.5,31.5,9.7,47.8c0.6,41.7-1.4,83.5-6.3,124.9
				c-0.1,4.9-8.5,17.4,7.7,14.6c81.4-21.9,169.6-23.2,250.6,1c-36.9,29.4-75.5,58.8-118.5,78.8c-16.8,8.1-34.7,13.7-52.2,20.2
				c-10.7,5-26.5,3.6-34.8,12.2c-1.5,2.6-0.6,5.9,2,7.4c15.4,9,31.4,17.2,46.3,27c40,25,72.3,61,94.3,102.7c2,2.8,4.7-2.5,3.8-4.5
				c-25.6-59.4-78.3-100.8-135.6-130.1c47.3-10.6,90.3-26.5,130.3-52.8c24.8-16.2,48-34.8,71.9-52.3
				C490.5,1355.1,493.5,1344.3,480.4,1343z M80.9,1319.6c-89.1-74.9-99.2-28.9-10.2-82C73.1,1265.1,79.2,1292,80.9,1319.6z
				 M136.8,1257.9c-4.3,10.8-9.4,21.3-14.6,32.4c-1.8-7.4-22.1-59.5-3.7-49.1c7,3,14.9,4.2,21.3,8.1
				C144.7,1252.4,137.9,1255.1,136.8,1257.9L136.8,1257.9z M160.2,1215.1c-3.8,7.3-7.5,14.6-11.8,21.6c-3.6,5.8-9.3,1.9-13.5,1.1
				c-7-1.3-13.6-4.8-20.4-7c-8.2-2.6-4.5-10.5-8.3-15.7c3.3-8.9,11.5-5,16.5-5.7c11.3-1.4,22.9-0.5,34.4-0.4
				C161.5,1209.1,161.9,1211.9,160.2,1215.1L160.2,1215.1z M217.8,1155.8c46.9,29.1,80.9,66.9,104.8,115
				c-14.5,3.7-29.4,5.5-44.8,2.9c-9.9-1.7-20.1-3.4-29.9-2.4c-15.3,1.4-18.3-5.1-15.6-18.2c5-12.4-8.8-28.9,5.2-25.9
				c11.9,3.2,24.4,4.6,35.3,11.2c7.5,4,15.3-1.5,5.6-7.3c-11.6-13.4-27.8-20-42.8-28.2c-7.9-4.4-6-12.5-7.2-19.2
				C226.6,1174.3,222,1166.2,217.8,1155.8L217.8,1155.8z M231.3,1210.7c0.5-4,2.3,0,3,0.3c6.6,3.4,13,7.1,19.4,10.7
				c-7-1.1-13.6-3-20.7-3.2C228.9,1218.4,231,1213.3,231.3,1210.7L231.3,1210.7z M356.4,1589.9c5.1,8.6-5.6,10.2-11.3,6.2
				c-66.3-47.6-133.5-94-204.8-133.8c-6.8-4.3-9.9-2.9-11.6,0.2c-15.4,37.5-35.7,72.9-51.8,110.4c-6.7,10.8-11.2,39.5-29,27.1
				c-3.9-3.2-4.6-8-2.3-12.6c7.4-15.3,8.6-32.3,15.1-47.8c5.9-14,11.5-28.1,16.7-42.3c3.1-8.5,6.1-16.8,10.9-24.5
				c0.2-0.3,0-1.4-0.3-1.5c-13.1,3.3-26.6,9.2-38.7,15.3c-5.5,3.1-4.5,12.3-5.3,18.8c-3.5,30.1-8.6,60.1-7.2,90.6
				c0.4,3.3-2,6.3-5.3,6.7c-0.2,0-0.3,0-0.5,0c-4.1,0-2.5-4.3-2.4-6.6c-0.3-34.2,4.4-67.9,7.8-101.7c-10.1,3.6-19.3,9.9-28.9,14.8
				c-1.8,1-2.9,2.1-4.3-0.1c-1.3-1.8,0.6-2.8,1.8-4c13.1-15.5,31.8-21.6,49.1-30.4c6.1-2.6,40.9-19.2,43.6-14.1
				c0.8,1,0.7,3.4,0.2,4.9c-4.9,13.4-10.3,26.6-15,40c-5,14.3-8,29.5-14.4,43.2c-5.5,11.8-6.5,25-12.6,36.5c-0.5,1,0.9,3,2.1,6.7
				c20.5-46.3,42.4-87.9,65.4-132.2c3.4-7.3,7.3-16.1,16.3-9.6c70.6,43.1,141.4,85.5,205.8,137.7c-5.1-11-14.7-18.3-23-26
				c-41.3-35.4-81.7-72.2-125.9-104.1c-5.9-4.3-12.5-7.6-18.4-11.9c-3.5-2.5-9.6-4-8.3-9.9c1.3-5.8,7.9-5.3,12-6.6
				c39.5-12,79.1-23.7,119.9-30.6c6.7-0.9,13.1-4.2,19.4-8.2c-50.9,7.1-102.5,11.9-151.6,27.6c-6.2,1.8-6.8-0.9-5.8-5.3
				c11.2-49.1,23.6-98,24.9-148.7c-15.6,41.4-30.6,82.9-44.2,124.9c-4.1,10.6-5.9,21.7-9.2,32.4c-2.1,7-5.9,2.9-7.8,1
				c-24.8-24.4-52.5-44.8-81.5-63.7c-11.6-7.6-24.5-13.7-33.6-24.9c-3.1,0.5-4.2,2.6-1.2,4.4c28.8,29.2,57.8,58.1,86.7,87.4
				c13.3,10.3,3.9,13.5-5.1,15c-27,6.8-52.7,17-78.8,26.2c-4.5,1.3-9.8,1.8-13-2.4c14.4-9.7,32.6-13.3,48.6-20.3
				c7.4-2.7,1.7-6,0-7.5c-20.6-18.7-35.4-41.8-49.7-65.3c-2.6-3.4-6.2-7.2-2.7-9.4c5.1-3,9,4.5,11.5,8.3
				c14.6,24.5,34.8,44.9,50.8,68.3c4.7,6.9,9.7-3.8,15.5-2c2.2,0.7,5.3-1,7.8-2.1c21.1-8.9,3-12.2-4.1-16.2
				c-6.5-10.7-16.8-19.2-25.9-28.3c-13.7-13.7-27.8-27-41-41.1c-7.7-6.3-18.5-14.1-10.8-25.1c2.2-0.6,3.9-3.4,6.8-1.4
				c42.5,28,85.8,56.3,121.8,92.3c15.8-57.5,36.7-112.6,57.1-168.4c1-3.2,2.6-6.1,4.8-8.7c0.8-0.9,0.2-4.5,3.2-3
				c10.3,2.6,0.1,60-1.4,70.6c-3.3,16.8-5.1,34-8.6,50.7c-2.6,16.4-10.9,31.9-11.6,48.5c70.2-16,141.6-25.7,213.7-27.4
				c1.8-0.2,4-0.3,4.2,2.3c0.2,2.3-1.4,3.5-3.7,3.8c-27.5,4.1-52.8,15.9-79.5,23c-27,6.6-54.2,12.2-80.5,21.3
				c-13,4.7-27.3,6.6-38.9,14.5c24.6,17.4,49.9,33.8,71.8,54.9C294.4,1526,328.6,1554.7,356.4,1589.9L356.4,1589.9z M294.7,1598.6
				c-18.7,12.3-127.1-57-148.3-71c-1.5-1-2.3-0.2-3.4,1.3c-20,25.7-36.3,56.9-64.8,74.1c-1.6,0.7-3,2.3-4.8,0
				c-1-1.3-0.8-2.2-0.2-2.9c15.5-17.3,31.1-34.5,46.2-52.2c7.9-7,17.8-29.8,27.3-30c28.3,16.2,55,35.3,83.6,50.8
				C250.7,1580.4,275.3,1585.5,294.7,1598.6L294.7,1598.6z M7.3,1208.2c15.1-9.8,30.6-19.4,48-26.1c-7.4-3.1-14.3-8.2-21.5-8.6
				c-11.1-0.6-19.4-8.5-30.2-9c-6.3-3.5-1.5-9.7,4.7-7.3c17.3,6.5,34.6,13.2,51.9,19.6c11.8,2.1,6.4,8.5-1,12
				c-18.2,7.3-34.5,18-51.1,28.1c-2.8,1.7-6.3,3.2-7.7-0.2C-2,1212,4.3,1209.7,7.3,1208.2z"/>
		</g>
	</g>
</g>
<g>
	<g id="Layer_1_2_">
		<g transform="matrix( 1, 0, 0, 1, 0,0) ">
			<g>
				<g id="Layer0_0_FILL_1_">
					<path d="M52,1548v15l-37,37h946l-37-37v-15H52 M52,52V37.7L14.3,0H0v1600h15l37-37v-15V52 M924,52V37.7L961.7,0H14.3L52,37.7
						V52H924 M976,0h-14.3L924,37.7V52v1496v15l37,37h15V0z"/>
				</g>
			</g>
			<g>
				<path id="Layer0_0_1_STROKES_1_" class="st5" d="M961,1600h15V0h-14.3L924,37.7V52v1496v15L961,1600H15H0V0h14.3h947.4 M52,52
					V37.7L14.3,0 M15,1600l37-37v-15V52h872 M924,1548H52"/>
			</g>
		</g>
	</g>
</g>
</svg>
